<?xml version="1.0" encoding="UTF-8"?>
<svg width="21px" height="22px" viewBox="0 0 21 22" version="1.1" xmlns="http://www.w3.org/2000/svg" xmlns:xlink="http://www.w3.org/1999/xlink">
    <!-- Generator: Sketch 39.1 (31720) - http://www.bohemiancoding.com/sketch -->
    <title>-g-Fill 134</title>
    <desc>Created with Sketch.</desc>
    <defs></defs>
    <g id="Page-1" stroke="none" stroke-width="1" fill="none" fill-rule="evenodd">
        <g id="Messages---Batch-send" transform="translate(-44.000000, -411.000000)" fill="#3190E6">
            <path d="M46.2575,416.091923 L44,418.350006 L44,411.350006 L51,411.350006 L48.7425,413.607506 L52.2425,417.107506 L49.7575,419.591923 L46.2575,416.091923 L46.2575,416.091923 L46.2575,416.091923 L46.2575,416.091923 Z M52.2425,426.591923 L49.7575,424.107506 L46.2575,427.607506 L44,425.350006 L44,432.350006 L51,432.350006 L48.7425,430.091923 L52.2425,426.591923 L52.2425,426.591923 L52.2425,426.591923 L52.2425,426.591923 Z M58,411.350006 L60.2575,413.607506 L56.7575,417.107506 L59.2425,419.591923 L62.7425,416.091923 L65,418.350006 L65,411.350006 L58,411.350006 L58,411.350006 L58,411.350006 L58,411.350006 Z M59.2425,424.107506 L56.7575,426.591923 L60.2575,430.091923 L58,432.350006 L65,432.350006 L65,425.350006 L62.7425,427.607506 L59.2425,424.107506 L59.2425,424.107506 Z" id="-g-Fill-134"></path>
        </g>
    </g>
</svg>