<?xml version="1.0" encoding="UTF-8"?>
<svg width="20px" height="23px" viewBox="0 0 20 23" version="1.1" xmlns="http://www.w3.org/2000/svg" xmlns:xlink="http://www.w3.org/1999/xlink">
    <!-- Generator: Sketch 39.1 (31720) - http://www.bohemiancoding.com/sketch -->
    <title>Import Icon</title>
    <desc>Created with Sketch.</desc>
    <defs></defs>
    <g id="NewBackend" stroke="none" stroke-width="1" fill="none" fill-rule="evenodd">
        <g id="Phoonebook---import-from-file" transform="translate(-45.000000, -410.000000)" fill="#3190E6">
            <path d="M55.0338889,423.154167 L48.3333333,423.154167 L48.3333333,430.670833 L45.8333333,430.670833 C45.6,430.670833 45.4027778,430.580633 45.2422222,430.397728 C45.0805556,430.216701 45,429.994333 45,429.73125 L45,410.939583 C45,410.689028 45.0805556,410.469792 45.2422222,410.281249 C45.4027778,410.093958 45.6,410 45.8333333,410 L50,410 L50,415.6375 L58.3333333,415.6375 L58.3333333,410 L60,410 L63.3333333,413.758333 L63.3333333,421.311957 L60,417.553624 L55.0338889,423.154167 L55.0338889,423.154167 L55.0338889,423.154167 L55.0338889,423.154167 Z M55,410 L56.6666667,410 L56.6666667,413.758333 L55,413.758333 L55,413.758333 L55,410 L55,410 Z M61.6666667,426.9125 L65,426.9125 L60,421.275 L55,426.9125 L58.3333333,426.9125 L58.3333333,432.55 L61.6666667,432.55 L61.6666667,426.9125 L61.6666667,426.9125 Z" id="Import-Icon"></path>
        </g>
    </g>
</svg>