<?xml version="1.0" encoding="UTF-8"?>
<svg width="18px" height="23px" viewBox="0 0 18 23" version="1.1" xmlns="http://www.w3.org/2000/svg" xmlns:xlink="http://www.w3.org/1999/xlink">
    <!-- Generator: Sketch 39.1 (31720) - http://www.bohemiancoding.com/sketch -->
    <title>-g-Overview Icon</title>
    <desc>Created with Sketch.</desc>
    <defs></defs>
    <g id="Page-1" stroke="none" stroke-width="1" fill="none" fill-rule="evenodd">
        <g id="Messages---Overview" transform="translate(-44.000000, -325.000000)" fill="#3190E6">
            <g id="-g-Overview-Icon" transform="translate(44.000000, 325.000000)">
                <path d="M2.15809147,13.6104431 C2.81769625,13.2274078 3.4921604,12.8281153 4.02936429,12.336236 C4.28424021,12.1032823 4.80205137,11.6635451 4.68947278,11.3185754 C4.64716136,11.1893109 4.65446512,11.0687697 4.69576912,10.9619084 C4.673606,10.8592105 4.65295399,10.7547283 4.63431682,10.6482635 L3.52792362,10.2578926 L1.89137843,10.8356178 C1.71734754,11.6393576 1.67629539,12.6641555 1.93268243,13.7367338 C2.00798668,13.694703 2.08379464,13.6536635 2.15809147,13.6104431 L2.15809147,13.6104431 L2.15809147,13.6104431 Z M4.56253852,9.44840334 C4.60283511,8.99379669 4.73858424,8.5451378 5.03627529,8.139501 C7.81245837,4.35276445 5.80316974,2.63326884 4.15831337,1.83210641 C4.15831337,1.83210641 6.00188229,5.42732529 3.51331611,9.10363188 L3.52817547,9.14486964 L3.54782006,9.09034856 L4.56253852,9.44840334 L4.56253852,9.44840334 Z M3.49493079,9.09490851 C3.91854867,8.20413325 4.71768039,5.07541653 3.67550987,3.06626531 C3.67550987,3.06626531 4.00065297,7.13333932 2.44041944,9.46743615 L3.49493079,9.09490851 L3.49493079,9.09490851 Z" id="Shape-Copy-122"></path>
                <path d="M6.96597816,0.0118955075 C7.74017637,1.53650305 10.3821214,4.70645754 5.29845497,9.70851843 L4.02382351,9.25827347 C7.90740721,4.01830243 6.96597816,0.0118955075 6.96597816,0.0118955075 L6.96597816,0.0118955075 L6.96597816,0.0118955075 Z M4.44593027,10.5820452 C2.38727832,13.1278821 3.80445896,16.6612443 9.0029707,17.6842579 C9.87463628,17.8557515 12.5687151,17.7155828 13.6982788,16.2026725 C15.2776532,14.0864617 13.7410939,12.29936 12.4488327,10.9194811 L13.5982929,10.5406092 C13.8423391,10.6988194 14.1163559,10.859607 14.427647,11.0410135 C16.6598262,12.7174871 18.4547873,15.4373948 16.3943724,18.6349072 C14.3337056,21.8322214 10.1345493,22.0820271 8.70779819,22.0820271 C7.28180267,22.0820271 2.80359244,21.4442296 1.18014364,18.6511644 C-0.736714692,15.3535315 0.364641437,12.264863 1.46876796,10.9851046 L3.08667598,10.413922 C2.84212606,10.7333164 2.68144341,10.8950953 2.68144341,10.8950953 C2.82953337,10.7311356 2.97157885,10.5681671 3.10984652,10.4057934 L3.52792362,10.2578926 L4.44593027,10.5820452 L4.44593027,10.5820452 Z M11.6265305,10.0160173 C10.5065372,8.58221213 11.5305742,6.92417665 11.5305742,6.92417665 C11.8335542,8.34172462 12.1380453,9.1264316 12.6029672,9.69404557 L11.6265305,10.0160173 L11.6265305,10.0160173 Z M3.17432106,9.20831234 C4.06034229,8.10440925 4.86048142,6.87203467 4.86048142,6.87203467 C4.57210896,7.81197802 4.2147286,8.59113376 3.8727113,9.20533847 L3.54756821,9.09054682 L3.52792362,9.14526615 L3.50827903,9.09054682 L3.17432106,9.20831234 L3.17432106,9.20831234 Z" id="Shape-Copy-123"></path>
                <path d="M7.08384568,1.53630479 C7.85275496,3.0496116 9.83937676,4.94436769 5.75859164,9.87089211 L4.53861242,9.44027474 C8.25949865,4.46676306 7.08384568,1.53630479 7.08384568,1.53630479 L7.08384568,1.53630479 L7.08384568,1.53630479 Z M9.49685576,18.0147548 C10.3685213,18.1862484 13.0626001,18.0460796 14.1916602,16.5335659 C15.9196282,14.2190966 13.9201619,12.2985669 12.5891152,10.8728904 L13.65496,10.5215764 C14.0730371,10.7969574 14.4999291,11.0550899 14.9215321,11.3715104 C17.1532075,13.0485787 18.9481687,15.7680899 16.8882575,18.9654041 C14.8280944,22.1631148 10.6284343,22.4125239 9.20168325,22.4125239 C7.77568773,22.4125239 3.29798121,21.7747264 1.6740287,18.9816613 C-0.465720136,15.3013895 1.08771334,11.8282979 2.27671455,10.8927162 C2.39181168,10.8019138 2.51320516,10.6934665 2.63837643,10.5721323 L3.52817547,10.2578926 L3.76819203,10.342549 C3.38738927,10.8937075 3.10858725,11.1736484 3.10858725,11.1736484 C3.35842609,10.8968796 3.59315372,10.6250673 3.8145331,10.3590044 L5.01159363,10.7816915 C3.08037964,13.4893072 4.22455089,16.97707 9.49685576,18.0147548 Z M11.8277615,9.94940246 C10.9623923,8.62344989 11.0240965,7.2546735 11.0240965,7.2546735 C11.4580403,8.42558795 11.9932294,9.15716166 12.5785374,9.7019759 L11.8277615,9.94940246 L11.8277615,9.94940246 Z M3.83442954,9.19126212 C4.62298341,8.17419623 5.28787711,7.15019129 5.28787711,7.15019129 C5.01637885,8.03660486 4.68292458,8.77967756 4.3587889,9.37643552 L3.83442954,9.19126212 L3.83442954,9.19126212 Z" id="Shape-Copy-124"></path>
                <path d="M15.9007392,15.2454807 C15.8481018,14.0811087 15.0409108,13.6651625 13.1918011,12.376086 C12.7019457,12.0340901 12.2639721,11.5923703 11.9257326,11.0915694 L14.2233937,10.3342221 C14.6439894,10.7612708 15.1310744,11.2121106 15.6647523,11.8397969 C17.3086013,13.7736099 15.9007392,15.2454807 15.9007392,15.2454807 L15.9007392,15.2454807 L15.9007392,15.2454807 Z M11.4157289,10.0854078 C10.9971481,8.88911623 11.1658901,7.54016568 12.3762989,6.43784865 C12.7664202,6.08256949 12.6173228,6.31235105 12.6173228,6.31235105 C12.6767603,7.85500011 12.9724365,8.72674255 13.4416399,9.41747502 L11.4157289,10.0854078 L11.4157289,10.0854078 Z" id="Shape-Copy-125"></path>
                <path d="M14.7850274,11.2775359 C15.0859926,10.1367567 14.4284026,9.58143476 13.0235628,7.98228204 C11.6182193,6.38332757 11.3716545,3.54783511 14.0299701,2.06248274 C14.5165514,1.79047213 14.3024758,1.98595497 14.3024758,1.98595497 C13.4204842,5.23739369 14.5445072,5.67118319 15.5869295,7.92577838 C16.5978702,10.1123709 14.7850274,11.2775359 14.7850274,11.2775359 L14.7850274,11.2775359 L14.7850274,11.2775359 Z" id="Shape"></path>
            </g>
        </g>
    </g>
</svg>