<?xml version="1.0" encoding="UTF-8"?>
<svg width="25px" height="24px" viewBox="0 0 25 24" version="1.1" xmlns="http://www.w3.org/2000/svg" xmlns:xlink="http://www.w3.org/1999/xlink">
    <!-- Generator: Sketch 42 (36781) - http://www.bohemiancoding.com/sketch -->
    <title>a-p-i-icon-blue@2x</title>
    <desc>Created with Sketch.</desc>
    <defs></defs>
    <g id="Page-1" stroke="none" stroke-width="1" fill="none" fill-rule="evenodd">
        <g id="a-p-i-icon-blue@2x" transform="translate(-1.000000, 0.000000)" fill-rule="nonzero" fill="#777777">
            <g id="Page-1">
                <g id="API">
                    <g id="API-+-API-icon">
                        <path d="M18.2072325,11.254623 C17.8383035,11.1559981 17.4851696,11.0080607 17.1463264,10.8108108 L17.0899153,10.7766714 L15.5893781,11.6984353 C15.1380888,11.3494547 14.7432106,10.9511617 14.4047435,10.5035562 L15.3073223,8.97866287 L15.2734756,8.92176387 C15.0929598,8.58795638 14.9500515,8.23518255 14.8447507,7.86344239 L14.8225623,7.79516358 L13.1185688,7.36273115 C13.0734399,7.05168326 13.0508754,6.77098151 13.0508754,6.52062589 C13.0508754,6.33096254 13.0734399,6.05405405 13.1185688,5.68990043 L14.8225623,5.25746799 L14.8447507,5.18918919 C14.94253,4.84058796 15.0854383,4.4874348 15.2734756,4.13086771 L15.3073223,4.07396871 L14.4047435,2.54907539 C14.7507321,2.10905642 15.1456102,1.71114272 15.5893781,1.3541963 L17.0899153,2.27596017 L17.1463264,2.24182077 C17.477272,2.05215742 17.8311581,1.90422001 18.2072325,1.79800853 L18.2636437,1.78662873 L18.6919925,0.0568990043 C19.0455025,0.0189663348 19.3237977,0 19.5268779,0 C19.7826085,0 20.0609036,0.0189663348 20.3621393,0.0568990043 L20.7904881,1.78662873 L20.8581815,1.79800853 C21.219213,1.90422001 21.5689623,2.05215742 21.9074293,2.24182077 L21.9642165,2.27596017 L23.4756598,1.3541963 C23.9273253,1.71114272 24.3184427,2.10905642 24.6490122,2.54907539 L23.7468095,4.07396871 L23.7806562,4.13086771 C23.9532744,4.44950213 24.0999435,4.80227596 24.2206634,5.18918919 L24.2315695,5.25746799 L25.9468452,5.68990043 C25.9840766,6.03129445 26.0032564,6.30820294 26.0032564,6.52062589 C26.0032564,6.77856804 25.9840766,7.0592698 25.9468452,7.36273115 L24.2315695,7.79516358 L24.2206634,7.86344239 C24.107465,8.23518255 23.9607959,8.58795638 23.7806562,8.92176387 L23.7468095,8.97866287 L24.6490122,10.5035562 C24.2879807,10.9663348 23.8964872,11.3646278 23.4756598,11.6984353 L21.9642165,10.7766714 L21.9074293,10.8108108 C21.5539193,11.0080607 21.2037939,11.1559981 20.8581815,11.254623 L20.7904881,11.2773826 L20.3621393,12.9957326 C20.0082532,13.0336652 19.7299581,13.0526316 19.5268779,13.0526316 C19.2715233,13.0526316 18.9928521,13.0336652 18.6919925,12.9957326 L18.2636437,11.2773826 L18.2072325,11.254623 Z M17.8119783,8.25035562 C18.2862082,8.72830725 18.8574653,8.96728307 19.5268779,8.96728307 C20.1962904,8.96728307 20.7679236,8.72830725 21.2421535,8.25035562 C21.7160074,7.77240398 21.9529343,7.19620673 21.9529343,6.52062589 C21.9529343,5.85301091 21.7160074,5.2802276 21.2421535,4.80227596 C20.7679236,4.32432432 20.1962904,4.08534851 19.5268779,4.08534851 C18.8574653,4.08534851 18.2862082,4.32432432 17.8119783,4.80227596 C17.3381244,5.2802276 17.1011975,5.85301091 17.1011975,6.52062589 C17.1011975,6.52062589 17.3381244,7.77240398 17.8119783,8.25035562 Z M10.7144185,13.9795969 C10.9842948,13.7094074 11.2889793,13.4775532 11.6292242,13.2827314 L11.6869954,13.2509476 L11.6389931,11.4905623 C12.1668638,11.2742246 12.7092348,11.1313965 13.266106,11.0620782 L14.135413,12.606181 L14.2016123,12.6053184 C14.580956,12.6158909 14.9579212,12.6685156 15.3325081,12.7631925 L15.4027334,12.7781162 L16.6292276,11.5186308 C16.9211675,11.6350719 17.1755446,11.7558814 17.3923589,11.8810592 C17.5566122,11.9758909 17.7851397,12.1338865 18.0779415,12.3550462 L17.6004423,14.046964 L17.6484793,14.1003191 C17.9014871,14.3592991 18.1358726,14.6596379 18.3506501,15.0007665 L18.3830027,15.0585281 L20.1548885,15.0393186 C20.3629618,15.558963 20.5101261,16.0998944 20.5973668,16.6626818 L19.0488273,17.5013032 L19.0501873,17.5672264 C19.0489678,17.9486653 19.0001423,18.3291084 18.9040869,18.7079041 L18.8857365,18.7624476 L20.169552,19.9982734 C20.0256477,20.3233884 19.9029254,20.5738822 19.8013853,20.7497548 C19.67352,20.971224 19.5179471,21.2027515 19.3344786,21.4446629 L17.6223143,20.950759 L17.5786124,21.0036933 C17.3061149,21.26325 17.0031227,21.492173 16.6696359,21.6904624 L16.6116767,21.7225719 L16.6542259,23.4924021 C16.1192686,23.7050827 15.5791065,23.8448435 15.0327541,23.9111155 L14.1632591,22.3673385 L14.0970598,22.3682011 C13.7348052,22.3583756 13.3559596,22.3090078 12.9605229,22.2200977 L12.8959387,22.1954033 L11.6638033,23.4646594 C11.3495318,23.3262057 11.1001321,23.2043616 10.9161684,23.0981502 C10.6927839,22.9691791 10.459279,22.812218 10.2150894,22.628244 L10.6982298,20.9265555 L10.6445517,20.8829711 C10.3792145,20.5990683 10.1470379,20.2956623 9.94802199,19.972753 L9.91566936,19.9149914 L8.14397168,19.9338752 C7.92370943,19.3898234 7.77452431,18.8516336 7.69585221,18.3202827 L9.24984479,17.4722163 L9.24867282,17.4059674 C9.25460442,17.0011938 9.30154953,16.6240077 9.38894405,16.275386 L9.40308036,16.205382 L8.12912008,14.9752461 C8.27321246,14.6498054 8.39593469,14.3993116 8.4974748,14.223439 C8.62515208,14.0022955 8.780913,13.7704423 8.96419345,13.5288566 L10.6665026,14.0170706 L10.7144185,13.9795969 Z M12.1738324,6.09209586 C12.2728852,6.46091026 12.3213346,6.84070192 12.3199327,7.2327736 L12.3185727,7.29869681 L13.8671122,8.13731816 C13.7905309,8.7026365 13.6430381,9.24375757 13.4246339,9.76068136 L11.6527482,9.7414719 L11.6203955,9.79923351 C11.4215676,10.1224685 11.1875107,10.4226176 10.9182247,10.6996809 L10.8701877,10.753036 L11.347687,12.4449538 C11.1008761,12.6395606 10.8690634,12.7994529 10.6522491,12.9246307 C10.4879958,13.0194624 10.2369038,13.1383752 9.89897306,13.2813692 L8.67247887,12.0218838 L8.60225349,12.0368075 C8.25146629,12.1264287 7.87417254,12.1792431 7.47135776,12.1946816 L7.40515842,12.193819 L6.53585144,13.7379218 C5.98178958,13.6582964 5.43974711,13.5152787 4.9087385,13.3094377 L4.95674085,11.5490524 L4.89896968,11.5172686 C4.56924363,11.3254931 4.26418304,11.0929874 3.98416396,10.8204031 L3.94610318,10.7772395 L2.23393888,11.2711434 C2.02433322,10.9839611 1.86876034,10.7524336 1.76722023,10.576561 C1.63935491,10.3550918 1.51663268,10.104598 1.39886551,9.8247539 L2.68268099,8.58892807 L2.65868948,8.52461396 C2.57015557,8.15884578 2.52339849,7.78198533 2.51841826,7.39403261 L2.51959023,7.32778371 L0.965597643,6.47971734 C1.04888959,5.91009039 1.19793424,5.37241589 1.41371711,4.86612485 L3.18541479,4.88500862 L3.21776742,4.82724701 C3.40740384,4.51843807 3.63958041,4.21503204 3.91429714,3.91702892 L3.96797524,3.8734445 L3.48483488,2.17175598 C3.76187509,1.96881565 3.99209497,1.81375121 4.17605864,1.70753974 C4.3994431,1.57856866 4.65212785,1.45482798 4.93354878,1.33534061 L6.16568409,2.60459671 L6.23026835,2.57990232 C6.60880398,2.49206494 6.9876496,2.44269714 7.3668052,2.43179893 L7.43300454,2.43266153 L8.30249955,0.888884452 C8.8837933,0.970157614 9.42447194,1.11005444 9.92397138,1.30759786 L9.88142211,3.07742809 L9.93938132,3.10953759 C10.2869597,3.31706129 10.59014,3.54631002 10.8483579,3.79630671 L10.901915,3.84355112 L12.6042241,3.35533712 C12.8140178,3.64284512 12.9695907,3.87437258 13.0711308,4.05024521 C13.198808,4.27138875 13.3217183,4.52220825 13.4392974,4.80172662 L12.1653372,6.03186255 L12.1738324,6.09209586 Z M13.5138176,15.1394304 C12.8627844,15.3111497 12.3701967,15.686385 12.0354904,16.2661133 C11.7007841,16.8458415 11.6219266,17.4603783 11.7987299,18.1100493 C11.9757213,18.7593946 12.3562593,19.2526779 12.9413294,19.5904683 C13.519501,19.9242758 14.1340093,20.0054828 14.7848545,19.8340891 C15.4358877,19.6623698 15.9286635,19.2868088 16.2633697,18.7070805 C16.598076,18.1273523 16.6767455,17.5131412 16.4999422,16.8634702 C16.3229508,16.2141249 15.9453694,15.7225485 15.3671978,15.388741 C15.3671978,15.388741 14.1646628,14.9680367 13.5138176,15.1394304 Z M9.76968759,7.93652981 C9.94649089,7.28685884 9.86782146,6.67264775 9.53311518,6.09291946 C9.19840889,5.51319118 8.70563316,5.13763021 8.05459995,4.96591088 C7.40375477,4.79451724 6.78628986,4.87743113 6.20121968,5.21522156 C5.62304815,5.54902905 5.24546671,6.04060543 5.06847537,6.68995071 C4.89167207,7.33962168 4.97052954,7.95415846 5.30523582,8.53388675 C5.6399421,9.11361503 6.1325298,9.48885031 6.78356301,9.66056964 C7.43440819,9.83196328 8.04891654,9.75075636 8.62708808,9.41694886 C8.62708808,9.41694886 9.59269625,8.58587509 9.76968759,7.93652981 Z" id="API-icon"></path>
                    </g>
                </g>
            </g>
        </g>
    </g>
</svg>