<?xml version="1.0" encoding="UTF-8"?>
<svg width="18px" height="17px" viewBox="0 0 18 17" version="1.1" xmlns="http://www.w3.org/2000/svg" xmlns:xlink="http://www.w3.org/1999/xlink">
    <!-- Generator: Sketch 39.1 (31720) - http://www.bohemiancoding.com/sketch -->
    <title>Api Icon</title>
    <desc>Created with Sketch.</desc>
    <defs></defs>
    <g id="NewBackend" stroke="none" stroke-width="1" fill="none" fill-rule="evenodd">
        <g id="Phoonebook---groups" transform="translate(-895.000000, -1022.000000)" fill="#777777">
            <path d="M907.387594,1029.99019 C907.122,1029.92017 906.867776,1029.81514 906.623841,1029.6751 L906.58323,1029.65087 L905.502984,1030.30527 C905.178098,1030.05751 904.893823,1029.77474 904.650158,1029.45697 L905.29993,1028.37438 L905.275564,1028.33398 C905.14561,1028.09699 905.042729,1027.84654 904.966922,1027.58263 L904.950949,1027.53415 L903.724233,1027.22715 C903.691745,1027.00632 903.6755,1026.80704 903.6755,1026.6293 C903.6755,1026.49465 903.691745,1026.29806 903.724233,1026.03953 L904.950949,1025.73252 L904.966922,1025.68405 C905.037314,1025.43656 905.140195,1025.18584 905.275564,1024.9327 L905.29993,1024.8923 L904.650158,1023.80971 C904.899238,1023.49732 905.183513,1023.21482 905.502984,1022.96141 L906.58323,1023.61581 L906.623841,1023.59157 C906.862091,1023.45692 907.116856,1023.3519 907.387594,1023.27649 L907.428205,1023.26841 L907.736576,1022.0404 C907.99107,1022.01347 908.191416,1022 908.337615,1022 C908.521717,1022 908.722063,1022.01347 908.938925,1022.0404 L909.247296,1023.26841 L909.296029,1023.27649 C909.555937,1023.3519 909.807724,1023.45692 910.051389,1023.59157 L910.09227,1023.61581 L911.180368,1022.96141 C911.505524,1023.21482 911.787092,1023.49732 912.025071,1023.80971 L911.37557,1024.8923 L911.399936,1024.9327 C911.524205,1025.15891 911.629793,1025.40936 911.7167,1025.68405 L911.724552,1025.73252 L912.959389,1026.03953 C912.986192,1026.2819 913,1026.47849 913,1026.6293 C913,1026.81242 912.986192,1027.01171 912.959389,1027.22715 L911.724552,1027.53415 L911.7167,1027.58263 C911.635208,1027.84654 911.52962,1028.09699 911.399936,1028.33398 L911.37557,1028.37438 L912.025071,1029.45697 C911.765162,1029.78552 911.483324,1030.06828 911.180368,1030.30527 L910.09227,1029.65087 L910.051389,1029.6751 C909.796895,1029.81514 909.544837,1029.92017 909.296029,1029.99019 L909.247296,1030.00634 L908.938925,1031.22628 C908.68416,1031.25321 908.483813,1031.26668 908.337615,1031.26668 C908.153783,1031.26668 907.953166,1031.25321 907.736576,1031.22628 L907.428205,1030.00634 L907.387594,1029.99019 Z M907.103048,1027.85732 C907.444449,1028.19664 907.8557,1028.3663 908.337615,1028.3663 C908.819529,1028.3663 909.231051,1028.19664 909.572452,1027.85732 C909.913583,1027.518 910.084148,1027.10893 910.084148,1026.6293 C910.084148,1026.15533 909.913583,1025.74868 909.572452,1025.40936 C909.231051,1025.07004 908.819529,1024.90038 908.337615,1024.90038 C907.8557,1024.90038 907.444449,1025.07004 907.103048,1025.40936 C906.761918,1025.74868 906.591352,1026.15533 906.591352,1026.6293 C906.591352,1026.6293 906.761918,1027.518 907.103048,1027.85732 Z M902.034252,1031.91339 C902.227687,1031.71839 902.445755,1031.55074 902.688998,1031.4095 L902.730293,1031.38645 L902.703686,1030.12373 C903.080694,1029.96625 903.467715,1029.86144 903.864749,1029.80931 L904.477417,1030.91333 L904.524583,1030.91242 C904.794796,1030.91837 905.063133,1030.9545 905.329594,1031.02081 L905.379561,1031.03121 L906.258792,1030.12235 C906.466279,1030.20462 906.646985,1030.2902 906.800912,1030.37907 C906.917523,1030.44639 907.079653,1030.55876 907.287302,1030.71616 L906.939818,1031.93202 L906.973811,1031.9701 C907.152947,1032.1548 907.318636,1032.36926 907.470181,1032.61306 L907.492981,1032.65436 L908.75542,1032.63294 C908.901418,1033.00484 909.003931,1033.39228 909.063657,1033.79566 L907.956804,1034.40398 L907.957489,1034.45127 C907.954975,1034.72492 907.918549,1034.99807 907.848482,1035.27024 L907.835174,1035.30945 L908.744482,1036.19051 C908.640557,1036.42438 908.552045,1036.60461 908.478946,1036.73123 C908.386895,1036.89066 908.27506,1037.05744 908.143307,1037.23178 L906.925628,1036.88483 L906.894265,1036.92299 C906.699009,1037.11038 906.482159,1037.27592 906.243715,1037.41961 L906.202284,1037.4429 L906.224966,1038.71242 C905.842925,1038.86731 905.457491,1038.9699 905.067964,1039.0198 L904.455161,1037.91602 L904.407994,1037.91693 C904.149953,1037.91144 903.880263,1037.87765 903.598922,1037.81557 L903.553017,1037.79814 L902.669724,1038.71404 C902.446423,1038.61606 902.269267,1038.52972 902.138662,1038.45432 C901.980071,1038.36276 901.814391,1038.25116 901.641214,1038.12023 L901.99276,1036.89732 L901.954705,1036.86629 C901.766894,1036.66375 901.602791,1036.44709 901.462397,1036.21628 L901.439597,1036.17498 L900.177293,1036.19617 C900.022716,1035.80681 899.918752,1035.42135 899.864995,1035.04049 L900.975774,1034.42537 L900.975224,1034.37785 C900.981196,1034.08743 901.016268,1033.81663 901.080034,1033.56614 L901.090407,1033.51586 L900.188096,1032.63883 C900.292156,1032.40474 900.380668,1032.2245 900.453768,1032.09789 C900.545683,1031.93868 900.657653,1031.77168 900.789271,1031.59757 L901.999953,1031.94048 L902.034252,1031.91339 Z M903.00333,1026.33645 C903.07549,1026.60147 903.111645,1026.87415 903.112337,1027.15542 L903.111652,1027.20271 L904.218505,1027.81103 C904.166384,1028.21627 904.063638,1028.60384 903.910268,1028.97375 L902.647828,1028.95232 L902.625028,1028.99362 C902.48477,1029.22466 902.319314,1029.43898 902.128659,1029.63659 L902.094666,1029.67466 L902.44215,1030.89053 C902.267152,1031.02908 902.10269,1031.14279 901.948763,1031.23166 C901.832152,1031.29899 901.653778,1031.38321 901.41364,1031.48434 L900.534409,1030.57548 L900.484442,1030.58588 C900.234915,1030.64866 899.966345,1030.68493 899.679431,1030.69426 L899.632265,1030.69336 L899.019597,1031.79738 C898.62452,1031.73786 898.237732,1031.63292 897.858534,1031.48296 L897.885141,1030.22024 L897.843846,1030.19718 C897.60811,1030.05818 897.389771,1029.89006 897.189099,1029.6933 L897.161797,1029.66217 L895.944118,1030.00912 C895.793549,1029.80218 895.681715,1029.63541 895.608615,1029.5088 C895.516564,1029.34936 895.428052,1029.16913 895.342944,1028.96785 L896.252252,1028.08679 L896.234882,1028.04054 C896.17023,1027.77775 896.135293,1027.50719 896.130072,1027.22884 L896.130621,1027.18132 L895.019843,1026.5662 C895.076726,1026.1579 895.180593,1025.77281 895.332141,1025.41051 L896.594445,1025.4317 L896.617245,1025.3904 C896.751017,1025.16968 896.91512,1024.95301 897.109553,1024.7404 L897.147608,1024.70936 L896.796062,1023.48646 C896.992561,1023.34206 897.155909,1023.23181 897.286513,1023.15641 C897.445105,1023.06484 897.624593,1022.97716 897.824572,1022.89265 L898.707864,1023.80855 L898.75377,1023.79111 C899.023074,1023.72973 899.292765,1023.69595 899.562842,1023.68976 L899.610009,1023.69067 L900.222812,1022.58688 C900.637297,1022.6477 901.0231,1022.75039 901.379814,1022.89427 L901.357132,1024.16379 L901.398563,1024.18708 C901.647086,1024.33746 901.864071,1024.50323 902.049113,1024.6837 L902.087473,1024.71782 L903.298155,1024.37491 C903.44886,1024.58208 903.560694,1024.74885 903.633793,1024.87546 C903.725709,1025.03466 903.814356,1025.21514 903.89933,1025.41617 L902.997018,1026.2932 L903.00333,1026.33645 Z M904.023645,1032.7334 C903.559084,1032.8594 903.206529,1033.13073 902.965571,1033.54808 C902.724614,1033.96543 902.665783,1034.40665 902.788943,1034.87197 C902.912238,1035.33706 903.18122,1035.6893 903.596588,1035.92912 C904.00706,1036.1661 904.444508,1036.22171 904.908933,1036.09595 C905.373494,1035.96994 905.726185,1035.69838 905.967142,1035.28103 C906.208099,1034.86368 906.266795,1034.4227 906.143635,1033.95738 C906.02034,1033.49229 905.753457,1033.14125 905.342986,1032.90427 C905.342986,1032.90427 904.48807,1032.60763 904.023645,1032.7334 Z M901.298483,1027.64931 C901.421643,1027.18399 901.362947,1026.743 901.12199,1026.32565 C900.881033,1025.9083 900.528341,1025.63674 900.063781,1025.51074 C899.599356,1025.38497 899.159808,1025.44179 898.74444,1025.68161 C898.333968,1025.91859 898.067085,1026.26963 897.94379,1026.73472 C897.820631,1027.20004 897.879462,1027.64126 898.120419,1028.05861 C898.361376,1028.47596 898.713932,1028.74728 899.178493,1028.87329 C899.642918,1028.99905 900.080366,1028.94344 900.490837,1028.70646 C900.490837,1028.70646 901.175188,1028.1144 901.298483,1027.64931 Z" id="Api-Icon"></path>
        </g>
    </g>
</svg>