<?xml version="1.0" encoding="UTF-8"?>
<svg width="26px" height="26px" viewBox="0 0 26 26" version="1.1" xmlns="http://www.w3.org/2000/svg" xmlns:xlink="http://www.w3.org/1999/xlink">
    <!-- Generator: Sketch 39.1 (31720) - http://www.bohemiancoding.com/sketch -->
    <title>Account icon Copy 2</title>
    <desc>Created with Sketch.</desc>
    <defs></defs>
    <g id="Page-1" stroke="none" stroke-width="1" fill="none" fill-rule="evenodd">
        <g id="API" transform="translate(-942.000000, -27.000000)" fill="#3190E6">
            <path d="M968,53 L942,53 L942,49.9016667 L950.666667,44.3333333 L950.666667,42.1666667 C950.132222,42.1666667 949.638222,41.6286111 949.183222,40.5525 C948.7275,39.4763889 948.5,38.57 948.5,37.8333333 L948.5,33.5 C948.5,31.7096111 949.135556,30.1777778 950.407389,28.9066667 C951.6785,27.6355556 953.208889,27 955,27 C956.791111,27 958.322222,27.6355556 959.593333,28.9066667 C960.864444,30.1777778 961.5,31.7096111 961.5,33.5 L961.5,37.8333333 C961.5,38.57 961.273222,39.4763889 960.8175,40.5525 C960.3625,41.6286111 959.8685,42.1666667 959.333333,42.1666667 L959.333333,44.3333333 L968,49.9016667 L968,53 Z" id="Account-icon-Copy-2"></path>
        </g>
    </g>
</svg>