<svg xmlns="http://www.w3.org/2000/svg" width="51" height="48" viewBox="0 0 51 48">
    <path fill="#FFF" fill-rule="evenodd" d="M34.478 22.593a8.594 8.594 0 0 1-2.118-.891l-.113-.069-2.997 1.85c-.9-.7-1.69-1.5-2.365-2.398l1.802-3.06-.068-.115c-.36-.67-.645-1.378-.856-2.125l-.044-.137-3.403-.868a11.941 11.941 0 0 1-.135-1.69c0-.381.045-.937.135-1.668l3.403-.868.044-.137c.196-.7.481-1.409.856-2.125l.068-.114-1.802-3.06a14.82 14.82 0 0 1 2.365-2.4l2.997 1.85.113-.068a9.334 9.334 0 0 1 2.118-.89l.113-.023.855-3.473A16.489 16.489 0 0 1 37.114 0c.51 0 1.066.038 1.668.114l.855 3.473.135.022c.721.214 1.42.51 2.095.891l.114.069 3.018-1.85a12.998 12.998 0 0 1 2.343 2.398l-1.801 3.061.067.114c.345.64.638 1.348.879 2.125l.022.137 3.425.868c.074.685.113 1.241.113 1.668 0 .518-.039 1.081-.113 1.69l-3.425.868-.022.137a11.571 11.571 0 0 1-.879 2.125l-.067.114 1.801 3.061A14.115 14.115 0 0 1 45 23.484l-3.018-1.85-.114.068a9.841 9.841 0 0 1-2.095.89l-.135.047-.855 3.45c-.707.075-1.263.113-1.668.113-.51 0-1.067-.038-1.668-.114l-.855-3.45-.113-.045zm-.79-6.031c.948.96 2.089 1.44 3.425 1.44 1.337 0 2.479-.48 3.426-1.44.946-.96 1.42-2.116 1.42-3.472 0-1.34-.474-2.49-1.42-3.45-.947-.96-2.089-1.439-3.425-1.439-1.337 0-2.478.48-3.425 1.44-.946.959-1.42 2.109-1.42 3.449 0 0 .474 2.513 1.42 3.472zM19.473 28.075a8.594 8.594 0 0 1 1.831-1.39l.116-.063-.104-3.52a12.69 12.69 0 0 1 3.26-.85l1.75 3.092.132-.001c.76.023 1.517.13 2.268.32l.141.03 2.453-2.512c.586.234 1.097.477 1.532.728.33.19.789.507 1.377.95l-.95 3.382.096.107c.509.519.98 1.12 1.412 1.804l.065.115 3.553-.03c.42 1.04.717 2.122.894 3.248l-3.1 1.67.002.132c0 .762-.097 1.523-.287 2.28l-.037.109 2.58 2.477c-.288.65-.533 1.15-.735 1.5-.256.443-.566.905-.933 1.388l-3.435-.995-.087.106a10.09 10.09 0 0 1-1.82 1.369l-.116.064.094 3.539c-1.072.423-2.154.7-3.25.83l-1.75-3.091-.132.001a11.91 11.91 0 0 1-2.28-.301l-.129-.05-2.464 2.533a16.196 16.196 0 0 1-1.501-.737 14.035 14.035 0 0 1-1.408-.942l.961-3.4-.108-.088c-.533-.57-1-1.177-1.4-1.823l-.065-.116-3.552.03a14.115 14.115 0 0 1-.906-3.229l3.112-1.689-.003-.132c.01-.81.103-1.564.276-2.26l.028-.14-2.56-2.466c.288-.65.533-1.15.736-1.501.255-.442.566-.905.932-1.387l3.415.984.096-.075zm3-15.857c.197.737.293 1.496.288 2.28l-.003.132 3.1 1.67a12.69 12.69 0 0 1-.894 3.248l-3.552-.03-.065.115c-.4.647-.87 1.248-1.412 1.804l-.096.106.95 3.381c-.496.39-.962.711-1.397.963-.33.19-.834.43-1.512.717l-2.453-2.513-.141.03c-.704.18-1.46.288-2.268.32h-.133l-1.75 3.09a14.82 14.82 0 0 1-3.26-.849l.105-3.52-.116-.063a9.334 9.334 0 0 1-1.83-1.39l-.077-.086-3.435.996a16.489 16.489 0 0 1-.932-1.387c-.256-.443-.5-.943-.735-1.502l2.579-2.477-.048-.128a10.09 10.09 0 0 1-.276-2.26l.003-.133L0 13.043c.17-1.14.47-2.215.906-3.228l3.552.03.065-.116a11.91 11.91 0 0 1 1.4-1.823l.108-.088-.96-3.4a16.196 16.196 0 0 1 1.387-.932c.448-.259.956-.507 1.52-.747l2.465 2.532.13-.05c.759-.177 1.518-.277 2.279-.3h.132l1.75-3.09c1.166.16 2.249.437 3.25.83L17.89 6.2l.116.064c.696.413 1.303.87 1.82 1.369l.106.094 3.416-.984c.419.574.73 1.036.932 1.388.255.441.5.942.735 1.5l-2.56 2.466.017.12zm2.618 18.189c-1.305.34-2.29 1.088-2.959 2.246-.668 1.158-.824 2.386-.466 3.686.358 1.3 1.123 2.288 2.297 2.966 1.16.67 2.393.835 3.697.495 1.305-.34 2.291-1.089 2.96-2.247.668-1.157.823-2.385.465-3.685-.357-1.3-1.117-2.284-2.277-2.954 0 0-2.413-.847-3.717-.507zm-7.446-14.49c.357-1.3.203-2.528-.466-3.686-.668-1.158-1.655-1.906-2.959-2.247-1.304-.34-2.542-.17-3.717.507-1.16.67-1.92 1.655-2.277 2.954-.358 1.3-.202 2.529.466 3.686.668 1.158 1.654 1.906 2.959 2.246 1.304.34 2.536.175 3.697-.495 0 0 1.94-1.666 2.297-2.965z"/>
</svg>
