<?xml version="1.0" encoding="UTF-8"?>
<svg width="254px" height="61px" viewBox="0 0 254 61" version="1.1" xmlns="http://www.w3.org/2000/svg" xmlns:xlink="http://www.w3.org/1999/xlink">
    <!-- Generator: Sketch 39.1 (31720) - http://www.bohemiancoding.com/sketch -->
    <title>Fill 97 Copy 2</title>
    <desc>Created with Sketch.</desc>
    <defs></defs>
    <g id="NewBackend" stroke="none" stroke-width="1" fill="none" fill-rule="evenodd" stroke-dasharray="2">
        <g id="Live-Transfer-Popup" transform="translate(-303.000000, -568.000000)" stroke="#23BEFF" stroke-width="3">
            <g id="Live-transfer-explication-graph" transform="translate(202.000000, 474.000000)">
                <path d="M230.367068,134.452607 C217.493604,134.537471 205.094425,134.94937 193.169532,135.694515 C181.244639,136.43966 169.726277,137.51805 158.614445,138.923476 C147.502613,140.330971 137.542617,142.24558 128.734458,144.6673 C119.926298,147.089021 113.150791,149.893663 108.407935,153.081227 C109.220996,147.616832 111.998954,142.680247 116.748585,138.271474 C121.484665,133.862701 128.497315,129.867897 137.77976,126.287062 C147.062205,122.706227 159.529138,119.849839 175.187336,117.717897 C190.831982,115.585955 209.227485,114.356466 230.367068,114.02322 L230.367068,97.195367 L352.3262,125.324583 L230.367068,153.143322 L230.367068,134.452607 Z" id="Fill-97-Copy-2" transform="translate(230.367068, 125.169345) scale(-1, -1) translate(-230.367068, -125.169345) "></path>
            </g>
        </g>
    </g>
</svg>