<?xml version="1.0" encoding="UTF-8"?>
<svg width="21px" height="33px" viewBox="0 0 21 33" version="1.1" xmlns="http://www.w3.org/2000/svg" xmlns:xlink="http://www.w3.org/1999/xlink">
    <!-- Generator: sketchtool 39.1 (31720) - http://www.bohemiancoding.com/sketch -->
    <title>0C12C41E-7159-488B-9D4D-754D0DA5641C</title>
    <desc>Created with sketchtool.</desc>
    <defs></defs>
    <g id="Page-1" stroke="none" stroke-width="1" fill="none" fill-rule="evenodd">
        <g id="ClickToCall---OverviewStatistics" transform="translate(-659.000000, -150.000000)">
            <g id="Group-2" transform="translate(660.000000, 151.000000)">
                <g id="callerid-icon">
                    <path d="M2.66262325,3.34678528 L3.79579189,2.78350915 C4.48942347,2.43879301 5.31297423,2.74284039 5.67674789,3.43227266 L6.7801035,5.52408543 C7.14387717,6.21351771 6.83207117,7.08194784 6.13843958,7.42666398 L5.00527094,7.98994011 C4.31191287,8.33437959 3.4880886,8.03088552 3.12431493,7.34117659 L2.02095932,5.24964048 C1.65718566,4.55965489 1.96871814,3.69177807 2.66262325,3.34678528 L2.66262325,3.34678528 L2.66262325,3.34678528 Z" id="Shape-Copy" fill="#3190E6"></path>
                    <path d="M18.7723263,24.6525111 C17.226972,25.0539422 14.6110838,25.6169417 13.1111328,25.801196 C8.83583497,26.3279533 7.75873671,24.7122693 6.9515968,18.0057975 C6.10042113,10.9324769 7.1329366,9.4293928 10.9372433,8.96101044 C12.4210569,8.77813936 15.1045031,8.69431192 16.8547194,8.71921116 L16.3604795,4.61332659 C14.6668806,4.45120487 11.9325609,4.30097946 9.674429,4.57874431 C2.35546699,5.47982012 0.668705944,9.18372031 1.80679784,18.6390681 C2.8565447,27.3612717 5.17102044,31.3161009 12.7796338,30.3793362 C14.7844917,30.1322804 17.5519067,29.4066059 19.2769597,28.8469263 L18.7723263,24.6525111 L18.7723263,24.6525111 Z" id="Shape-Copy-2" fill="#3190E6"></path>
                    <path d="M14.9781396,9.72541709 C15.4395578,9.6684255 15.862684,10.0037353 15.9190279,10.4704577 L16.5675297,15.859483 C16.6236,16.3262055 16.292101,16.7541957 15.8309564,16.8111873 L10.6752168,17.4458413 C10.2137987,17.5028328 9.79067246,17.1675231 9.73460209,16.7008007 L9.0858268,11.3117753 C9.02975642,10.8453295 9.36098192,10.4170626 9.82240009,10.3603477 L14.9781396,9.72541709 Z" id="Shape-Copy-3" fill="#3190E6"></path>
                    <path d="M10.4134639,18.4094418 L11.2296298,18.3090149 C11.4796216,18.2783058 11.7088264,18.4597936 11.73946,18.7126592 L11.8431218,19.5738962 C11.8734818,19.8264852 11.6940566,20.0586014 11.4440648,20.0893105 L10.6278989,20.1897374 C10.3779071,20.2204465 10.1487023,20.0389587 10.1183423,19.7860931 L10.0146805,18.9248561 C9.98404689,18.6722671 10.1634721,18.4401509 10.4134639,18.4094418 L10.4134639,18.4094418 L10.4134639,18.4094418 Z" id="Shape-Copy-4" fill="#3190E6"></path>
                    <path d="M12.9555033,18.0965414 L13.7716692,17.9961144 C14.021661,17.9654054 14.2508658,18.1468932 14.2812259,18.3997588 L14.3848877,19.2609958 C14.4152477,19.5138614 14.2358225,19.745701 13.9858307,19.7764101 L13.1696648,19.876837 C12.919673,19.9075461 12.6904682,19.7260583 12.6601082,19.4731927 L12.5564464,18.6119556 C12.5258128,18.3593667 12.7055115,18.1272504 12.9555033,18.0965414 L12.9555033,18.0965414 L12.9555033,18.0965414 Z" id="Shape-Copy-5" fill="#3190E6"></path>
                    <path d="M15.4975428,17.7833643 L16.3137086,17.6829373 C16.5637005,17.6522283 16.7929052,17.8337161 16.8232653,18.0865817 L16.9468936,19.1132603 C16.9663131,19.2748287 16.8514372,19.4233942 16.6914315,19.4433136 L15.7117043,19.5639366 C15.4617124,19.5946456 15.2325077,19.4131578 15.2021476,19.1602922 L15.0984858,18.2990552 C15.0678522,18.0461896 15.2475509,17.81435 15.4975428,17.7833643 L15.4975428,17.7833643 L15.4975428,17.7833643 Z" id="Shape-Copy-6" fill="#3190E6"></path>
                    <path d="M10.7074915,20.8512272 L11.5233839,20.7505236 C11.7733757,20.7200912 12.0025804,20.901579 12.033214,21.1544446 L12.1368758,22.0151283 C12.1672359,22.2685473 11.9878107,22.5003869 11.7378189,22.5310959 L10.921653,22.6315228 C10.6716612,22.6622319 10.4424564,22.4807441 10.4120963,22.2278785 L10.3084345,21.3666415 C10.277801,21.1137759 10.4572262,20.8816596 10.7074915,20.8512272 L10.7074915,20.8512272 L10.7074915,20.8512272 Z" id="Shape-Copy-7" fill="#3190E6"></path>
                    <path d="M13.2492574,20.5377735 L14.0654233,20.4373465 C14.3154151,20.4069141 14.5446199,20.5884019 14.5749799,20.8409909 L14.6786418,21.7022279 C14.7090018,21.9550935 14.5295766,22.1869331 14.2795848,22.2176422 L13.4636924,22.3180691 C13.2134271,22.3487782 12.9844958,22.1672904 12.9538623,21.9144248 L12.8502004,21.0534644 C12.8198404,20.8005988 12.9992656,20.5684825 13.2492574,20.5377735 L13.2492574,20.5377735 L13.2492574,20.5377735 Z" id="Shape-Copy-8" fill="#3190E6"></path>
                    <path d="M15.7912968,20.224873 L16.6074627,20.1244461 C16.8574545,20.093737 17.0866593,20.2752248 17.1170194,20.5280904 L17.2206812,21.3893275 C17.2513147,21.6421931 17.071616,21.8740327 16.8216242,21.9047417 L16.0057318,22.0051686 C15.75574,22.0358777 15.5265353,21.8543899 15.4959017,21.6015243 L15.3922399,20.7402873 C15.3618798,20.4874217 15.541305,20.2555821 15.7912968,20.224873 L15.7912968,20.224873 L15.7912968,20.224873 Z" id="Shape-Copy-9" fill="#3190E6"></path>
                    <path d="M11.0012456,23.2924593 L11.8174114,23.1920324 C12.0674033,23.1613233 12.296608,23.3428111 12.3269681,23.5956767 L12.4306299,24.4569138 C12.46099,24.7097794 12.2815648,24.9416189 12.0315729,24.972328 L11.2154071,25.0727549 C10.9654152,25.103464 10.7362105,24.9219762 10.7058504,24.6691106 L10.6021886,23.8078736 C10.571555,23.555008 10.7512537,23.3231684 11.0012456,23.2924593 L11.0012456,23.2924593 L11.0012456,23.2924593 Z" id="Shape-Copy-10" fill="#3190E6"></path>
                    <path d="M13.5430115,22.9790056 L14.3591774,22.8785786 C14.6091692,22.8478696 14.8383739,23.0299107 14.868734,23.2827763 L14.9723958,24.14346 C15.0027559,24.3963256 14.8233307,24.6287185 14.5733388,24.6588743 L13.7574465,24.7593012 C13.5074547,24.7900102 13.2782499,24.6085225 13.2476163,24.3556568 L13.1439545,23.4949731 C13.1135945,23.2421075 13.2930197,23.0097146 13.5430115,22.9790056 L13.5430115,22.9790056 L13.5430115,22.9790056 Z" id="Shape-Copy-11" fill="#3190E6"></path>
                    <path d="M16.0850509,22.6661051 L16.9012168,22.5656782 C17.1512086,22.5349691 17.3804134,22.7164569 17.4107734,22.9693225 L17.5144352,23.8305596 C17.5447953,24.0834252 17.3653701,24.3152647 17.1153783,24.3459738 L16.2992124,24.4464007 C16.0492206,24.4771098 15.8200158,24.295622 15.7893822,24.0427564 L15.6857204,23.1815194 C15.6556339,22.9286538 15.8353326,22.6970908 16.0850509,22.6661051 L16.0850509,22.6661051 L16.0850509,22.6661051 Z" id="Shape-Copy-12" fill="#3190E6"></path>
                    <path d="M14.6370676,0.97416442 C16.5478367,0.345596954 19.4361448,2.11786948 19.3390474,4.49740679 C18.3122757,1.9972465 16.691705,1.33879995 14.6370676,0.97416442 L14.6370676,0.97416442 L14.6370676,0.97416442 Z" id="Shape-Copy-13" fill="#3190E6"></path>
                    <path d="M16.3418806,0.159129317 C17.75376,-0.305379827 19.8707586,1.00404351 19.799098,2.76220647 C19.04037,0.91523622 17.860157,0.428041102 16.3418806,0.159129317 L16.3418806,0.159129317 L16.3418806,0.159129317 Z" id="Shape-Copy-14" fill="#3190E6"></path>
                    <path d="M4.57229823,31.150106 C2.93449619,31.6893128 0.458920681,30.1699059 0.542342461,28.1306582 C1.42223711,30.2736527 2.81086785,30.8377588 4.57229823,31.150106 L4.57229823,31.150106 L4.57229823,31.150106 Z" id="Shape-Copy-15" fill="#3190E6"></path>
                    <path d="M3.11091275,31.8489446 C1.90088666,32.2470558 0.0863945678,31.1249301 0.147935225,29.6185261 C0.798351596,31.2010111 1.80980649,31.618765 3.11091275,31.8489446 L3.11091275,31.8489446 L3.11091275,31.8489446 Z" id="Shape-Copy-16" fill="#3190E6"></path>
                    <path d="M0.653115644,2.16600801 C0.653115644,2.16600801 0.759512603,1.29287468 1.70094791,0.67648018 C2.60491179,0.0844315986 3.91285589,0.339787131 3.91285589,0.339787131" id="Shape-Copy-17" stroke="#3190E6" stroke-width="1.5"></path>
                    <path d="M1.38640677,2.35192233 C1.38640677,2.35192233 1.55926764,1.7344212 2.16045148,1.38693848 C2.87842582,0.971951154 3.74464476,1.20572735 3.74464476,1.20572735" id="Shape-Copy-18" stroke="#3190E6" stroke-width="1.5"></path>
                    <path d="M2.16263959,2.58846511 C2.16263959,2.58846511 2.24004406,2.29742066 2.55923494,2.05534473 C2.87842582,1.81326879 3.46894262,1.94191486 3.46894262,1.94191486" id="Shape-Copy-19" stroke="#3190E6" stroke-width="1.5"></path>
                    <path d="M12.1361184,10.8042942 C12.5301777,10.7133096 12.9485724,10.7230708 13.337567,10.8332165 C13.7733794,10.9556541 14.1701564,11.2053498 14.4653921,11.5410892 C14.8295573,11.9498573 15.0354811,12.4879321 15.0364693,13.0293812 C15.0658693,13.3730742 15.0275752,13.7213466 14.9261574,14.0515425 C14.7915101,14.496343 14.5558157,14.9066778 14.2721918,15.2768829 C13.9975856,15.6356396 13.6765322,15.9589665 13.3306494,16.2527686 C13.1236138,16.4272663 12.90719,16.5914003 12.6801426,16.7404705 C12.8145428,16.5329532 12.9188018,16.2990443 12.9353547,16.0516383 C12.9467194,15.8838891 12.8974311,15.7091504 12.7811898,15.5826154 C12.6385132,15.424748 12.4293776,15.3446092 12.2245655,15.2960439 C12.0027064,15.2516964 11.7850473,15.1807163 11.5860412,15.074427 C11.1460288,14.8531716 10.7850754,14.4883894 10.5666751,14.0556399 C10.370016,13.6686839 10.2910806,13.2268962 10.3376513,12.7976415 C10.386569,12.3354876 10.5849575,11.8900846 10.8971167,11.5392815 C11.2173054,11.1754634 11.6573177,10.9135963 12.1361184,10.8042942 L12.1361184,10.8042942 Z M11.3525703,12.1500235 C11.2464584,12.1719563 11.1641877,12.270774 11.1654229,12.3768224 C11.16147,12.4954037 11.2637525,12.6061519 11.3855527,12.6125389 C11.4843763,12.6230232 11.5836941,12.5660222 11.6250765,12.4784119 C11.6707824,12.3867041 11.6453354,12.2669177 11.564547,12.2017221 C11.5075999,12.1529158 11.4263174,12.1327907 11.3525703,12.1500235 L11.3525703,12.1500235 Z M13.8848031,12.1507466 C13.7836323,12.1727998 13.7040793,12.2647486 13.7003734,12.3662175 C13.6896263,12.4957652 13.8078441,12.6184439 13.9416267,12.613262 C14.0843033,12.6188054 14.2063505,12.4785324 14.1794211,12.3421156 C14.162127,12.2107603 14.0157444,12.1154373 13.8848031,12.1507466 L13.8848031,12.1507466 Z M11.0700581,13.1580853 C11.0680816,13.5509462 11.2265701,13.9409148 11.5024116,14.2268838 C11.7323002,14.4670592 12.0411241,14.635411 12.372554,14.6963888 C12.6959544,14.757246 13.0386255,14.7192856 13.3386788,14.5860021 C13.5732615,14.4810383 13.7833853,14.3228094 13.9421208,14.1238482 C14.1629917,13.8513763 14.2846683,13.5052731 14.2841742,13.1580853 L11.0700581,13.1580853 L11.0700581,13.1580853 Z" id="Shape-Copy-20" fill="#FFFFFF"></path>
                </g>
            </g>
        </g>
    </g>
</svg>