<?xml version="1.0" encoding="UTF-8"?>
<svg width="85px" height="24px" viewBox="0 0 85 24" version="1.1" xmlns="http://www.w3.org/2000/svg" xmlns:xlink="http://www.w3.org/1999/xlink">
    <!-- Generator: sketchtool 39.1 (31720) - http://www.bohemiancoding.com/sketch -->
    <title>68E6E717-D912-40D0-81C5-995BE3C1B1B2</title>
    <desc>Created with sketchtool.</desc>
    <defs>
        <linearGradient x1="49.9999972%" y1="-0.000522115834%" x2="49.9999972%" y2="99.9994882%" id="linearGradient-1">
            <stop stop-color="#D11A1C" offset="0%"></stop>
            <stop stop-color="#FFE500" offset="100%"></stop>
        </linearGradient>
        <linearGradient x1="50.0001804%" y1="99.9998541%" x2="50.0001804%" y2="0.000583600817%" id="linearGradient-2">
            <stop stop-color="#FFE900" offset="0%"></stop>
            <stop stop-color="#DC5F13" offset="100%"></stop>
        </linearGradient>
        <linearGradient x1="4.24998921%" y1="50.0619108%" x2="103.198466%" y2="49.5635078%" id="linearGradient-3">
            <stop stop-color="#F0BAA2" offset="0%"></stop>
            <stop stop-color="#F5CFAC" offset="39.85%"></stop>
            <stop stop-color="#F8DDB2" offset="75.52%"></stop>
            <stop stop-color="#F9E2B5" offset="100%"></stop>
        </linearGradient>
        <linearGradient x1="65.6957268%" y1="104.494064%" x2="36.002619%" y2="-4.66733375%" id="linearGradient-4">
            <stop stop-color="#F0BAA2" offset="0%"></stop>
            <stop stop-color="#F5CFAC" offset="39.85%"></stop>
            <stop stop-color="#F8DDB2" offset="75.52%"></stop>
            <stop stop-color="#F9E2B5" offset="100%"></stop>
        </linearGradient>
        <linearGradient x1="49.999845%" y1="100.000325%" x2="49.999845%" y2="0.00113782286%" id="linearGradient-5">
            <stop stop-color="#F0BAA2" offset="0%"></stop>
            <stop stop-color="#F1C0A4" offset="8.45%"></stop>
            <stop stop-color="#F6D6AB" offset="46.27%"></stop>
            <stop stop-color="#F9E3AE" offset="78.14%"></stop>
            <stop stop-color="#FAE7AF" offset="100%"></stop>
        </linearGradient>
        <linearGradient x1="5.53421183%" y1="92.6961048%" x2="99.9681373%" y2="0.043853771%" id="linearGradient-6">
            <stop stop-color="#F0BAA2" offset="0%"></stop>
            <stop stop-color="#F5CFAC" offset="39.85%"></stop>
            <stop stop-color="#F8DDB2" offset="75.52%"></stop>
            <stop stop-color="#F9E2B5" offset="100%"></stop>
        </linearGradient>
        <linearGradient x1="50.0032353%" y1="99.9993339%" x2="50.0032353%" y2="-0.00049960864%" id="linearGradient-7">
            <stop stop-color="#EC9500" offset="0%"></stop>
            <stop stop-color="#E8810B" offset="6.37%"></stop>
            <stop stop-color="#E26614" offset="16.27%"></stop>
            <stop stop-color="#DE4F18" offset="27.14%"></stop>
            <stop stop-color="#DC3A1A" offset="39.14%"></stop>
            <stop stop-color="#DA281B" offset="52.88%"></stop>
            <stop stop-color="#D9191B" offset="69.89%"></stop>
            <stop stop-color="#D9121B" offset="100%"></stop>
        </linearGradient>
        <linearGradient x1="50.0002741%" y1="100.000359%" x2="50.0002741%" y2="0.000449155587%" id="linearGradient-8">
            <stop stop-color="#E42E18" offset="0%"></stop>
            <stop stop-color="#FDD403" offset="100%"></stop>
        </linearGradient>
        <linearGradient x1="-0.000954889317%" y1="49.999905%" x2="99.9994483%" y2="49.999905%" id="linearGradient-9">
            <stop stop-color="#E42E18" offset="0%"></stop>
            <stop stop-color="#FDD403" offset="100%"></stop>
        </linearGradient>
        <linearGradient x1="100.000657%" y1="49.9998465%" x2="-0.00347230841%" y2="49.9998465%" id="linearGradient-10">
            <stop stop-color="#CB2F21" offset="0%"></stop>
            <stop stop-color="#CC3721" offset="9.55%"></stop>
            <stop stop-color="#CF4C21" offset="23.88%"></stop>
            <stop stop-color="#D56920" offset="41.2%"></stop>
            <stop stop-color="#DE8F1C" offset="60.85%"></stop>
            <stop stop-color="#EABA0F" offset="82.18%"></stop>
            <stop stop-color="#F5DE00" offset="100%"></stop>
        </linearGradient>
        <linearGradient x1="-14.0292303%" y1="40.4436359%" x2="128.839768%" y2="57.5183851%" id="linearGradient-11">
            <stop stop-color="#EEAB0C" offset="0%"></stop>
            <stop stop-color="#EA8912" offset="21.99%"></stop>
            <stop stop-color="#E66415" offset="46.63%"></stop>
            <stop stop-color="#E54517" offset="68.74%"></stop>
            <stop stop-color="#E42D18" offset="87.28%"></stop>
            <stop stop-color="#E32119" offset="100%"></stop>
        </linearGradient>
    </defs>
    <g id="Page-1" stroke="none" stroke-width="1" fill="none" fill-rule="evenodd">
        <g id="ClickToCall---Add-New-different-choices" transform="translate(-888.000000, -819.000000)">
            <g id="Group-11" transform="translate(639.000000, 442.000000)">
                <g id="Call_Burn-LOGO" transform="translate(249.000000, 377.000000)">
                    <g id="Burn" transform="translate(35.112880, 0.000000)">
                        <path d="M2.42449775,4.38376266 L0.0370565494,22.108189 L6.75676255,23.1083602 C10.1287754,23.6100191 12.4434447,22.3858614 12.9210452,18.8412121 C13.2297177,16.5474651 12.6335121,15.3419894 11.2830233,14.4765247 C12.7412669,13.7894232 13.3990198,12.850214 13.6693421,10.8433821 C14.1256161,7.45507099 12.441761,5.87477686 9.04468027,5.369185 L2.42449775,4.38376266 L2.42449775,4.38376266 Z M7.58026327,15.6798373 C8.94403434,15.8827819 9.67081769,16.6821716 9.47420268,18.1421149 C9.23923746,19.8881865 8.41087281,20.2169883 6.99752708,20.0067675 L3.87338759,19.541686 L4.45612379,15.2149523 L7.58026327,15.6798373 L7.58026327,15.6798373 Z M8.45689307,8.41886162 C9.74639567,8.61099046 10.3313768,9.33604577 10.1347618,10.7955957 C9.94544264,12.2032295 9.25195851,12.8443145 7.91306831,12.6451062 L4.86319729,12.1912337 L5.43190292,7.96852893 L8.45689307,8.41886162 L8.45689307,8.41886162 Z" id="Shape-Copy-33" fill="url(#linearGradient-1)"></path>
                        <path d="M28.5408072,22.9473024 L31.8967317,22.9473024 L31.8967317,14.1282543 C31.8967317,14.1282543 33.6746851,13.4700606 35.8782323,13.022481 L35.8782323,9.46878576 C33.9749392,9.86366264 31.8714767,11.1798534 31.8714767,11.1798534 L31.8714767,9.7846086 L28.5406202,9.7846086 L28.5406202,22.9473024 L28.5408072,22.9473024 L28.5408072,22.9473024 Z M41.7634002,22.9473024 L41.7634002,13.1017317 C41.7634002,13.1017317 42.8654545,12.6278008 44.0423384,12.6278008 C45.6700712,12.6278008 45.9207506,13.9178368 45.9207506,15.9183759 L45.9207506,22.9473024 L49.276488,22.9473024 L49.276488,15.8131672 C49.276488,11.785541 48.3751644,9.46878576 44.8688323,9.46878576 C43.4412689,9.46878576 41.7387064,10.5216597 41.7387064,10.5216597 L41.7387064,9.7846086 L38.4078499,9.7846086 L38.4078499,22.9473024 L41.7634002,22.9473024 L41.7634002,22.9473024 L41.7634002,22.9473024 Z" id="Shape-Copy-34" fill="url(#linearGradient-2)"></path>
                        <path d="M17.9782226,10.7190981 C16.5437375,13.4047722 16.776832,17.2054622 21.5599456,18.626075 C22.2021714,18.8168273 24.2085424,18.657146 25.0471962,17.1568892 C26.3307124,14.8611757 24.8455302,12.9562094 23.8568429,11.542086 L25.0264309,11.0241051 C25.3369741,11.2972545 25.6540649,11.5532952 25.9672272,11.8671515 C27.6248919,13.5306294 28.580467,16.3976164 27.0501999,19.5690206 C25.5199327,22.740818 22.4004701,22.988206 21.3406946,22.988206 C20.2814804,22.988206 16.9554878,22.355577 15.7492333,19.585146 C14.1598507,15.934698 15.3137245,12.4897512 16.1969019,11.5617512 C16.2823948,11.4716847 16.3725646,11.3641161 16.4655405,11.2437652 L17.1264737,10.932072 L17.3047554,11.0160424 C17.0218992,11.5627345 16.814808,11.8404069 16.814808,11.8404069 C17.0003857,11.5658809 17.5361662,10.8540013 17.7006045,10.5900945 L17.9782226,10.7190981 L17.9782226,10.7190981 Z" id="Shape-Copy-51" fill="#FCE1D2"></path>
                        <path d="M17.6420502,11.1000127 C16.2075651,13.7856868 17.5501968,17.2451858 21.4662214,18.2744615 C22.1136853,18.4445654 24.1148183,18.3055325 24.953472,16.8052757 C26.2369882,14.5095622 24.751806,12.6045959 23.7631187,11.1904726 L24.5548168,10.8420055 C24.86536,11.1151549 25.1824508,11.3711956 25.4956131,11.6850519 C27.1532778,13.3485298 28.4865557,16.046003 26.9564757,19.2174071 C25.4262085,22.3892045 22.3067459,22.6365925 21.2469705,22.6365925 C20.1877562,22.6365925 16.8617637,22.0039636 15.6555091,19.2335325 C14.0661265,15.5830846 15.2200003,12.1381377 16.1031777,11.2101377 C16.1886706,11.1200712 16.2788404,11.0125026 16.3718163,10.8921517 L17.0327495,10.5804586 L17.2110312,10.6644289 C16.928175,11.211121 16.7210838,11.4887934 16.7210838,11.4887934 C16.9066615,11.2142674 17.0810146,10.9446578 17.2454529,10.680751 L17.6420502,11.1000127 L17.6420502,11.1000127 Z" id="Shape-Copy-52" fill="#FACCB0"></path>
                        <path d="M16.6879717,8.78660055 C16.6647745,7.83342912 16.5242818,6.84702352 16.1679054,6.05667981 C16.1679054,6.05667981 16.3175647,7.38525959 16.2472248,8.96673363 L16.6879717,8.78660055 L16.6879717,8.78660055 Z" id="Shape-Copy-53" fill="url(#linearGradient-3)"></path>
                        <path d="M18.7313834,8.98325238 C18.6644108,7.547694 17.9915049,6.06002289 16.5280232,5.3532562 C16.1256266,5.15837423 16.315694,5.31805552 16.315694,5.31805552 C16.9481919,6.9038559 17.0484637,7.82202331 16.9480049,8.67037932 L18.7313834,8.98325238 L18.7313834,8.98325238 Z" id="Shape-Copy-54" fill="url(#linearGradient-4)"></path>
                        <path d="M15.7050837,3.60384149 C15.7050837,3.60384149 18.5759247,5.59277813 18.3592928,9.08138165 C18.3592928,9.08138165 18.0319129,11.7361814 16.9934639,13.0169748 C15.967923,14.282036 14.4423328,15.7020589 14.4423328,15.7020589 C14.4423328,15.7020589 13.5327779,14.1292376 15.2366499,10.5987472 C16.9405219,7.06825683 15.7050837,3.60384149 15.7050837,3.60384149 L15.7050837,3.60384149 Z" id="Shape-Copy-55" fill="url(#linearGradient-5)" opacity="0.6"></path>
                        <path d="M15.6893695,3.47287137 C15.6893695,3.47287137 18.5602105,5.46180801 18.3435786,8.95041153 C18.3435786,8.95041153 18.1097358,11.736378 16.9777497,12.8860047 C15.8407126,14.0409409 14.4266185,15.5708921 14.4266185,15.5708921 C14.4266185,15.5708921 13.5170637,13.9980708 15.2209357,10.4675804 C16.9248077,6.93709006 15.6893695,3.47287137 15.6893695,3.47287137 L15.6893695,3.47287137 Z" id="Shape-Copy-56"></path>
                        <path d="M18.2356367,1.51992202 C19.0582021,2.88586565 20.6352378,4.11592287 18.5996832,9.32070693 L17.6347543,9.07469549 C19.494085,3.69371138 18.2356367,1.51992202 18.2356367,1.51992202 L18.2356367,1.51992202 L18.2356367,1.51992202 Z" id="Shape-Copy-57" fill="#FDF3DA"></path>
                        <path d="M18.2474224,2.00152236 C18.9777602,3.42410172 20.2960722,4.21424878 18.0274231,9.05444035 L17.0810146,8.73901081 C19.2905483,3.50630218 18.2474224,2.00152236 18.2474224,2.00152236 L18.2474224,2.00152236 L18.2474224,2.00152236 Z" id="Shape-Copy-58" fill="#FACCB0"></path>
                        <path d="M26.2154747,14.901096 C26.0869547,13.7534359 25.4574499,13.393563 23.9896656,12.236857 C23.6007383,11.9298834 23.2426782,11.5210443 22.9536486,11.0475067 L24.6779117,10.3167485 C25.0219412,10.7122153 25.2516683,11.020762 25.6952213,11.6071778 C27.060676,13.4144081 26.2154747,14.901096 26.2154747,14.901096 L26.2154747,14.901096 L26.2154747,14.901096 Z" id="Shape-Copy-59" fill="#FEF5DD"></path>
                        <path d="M22.4741773,10.1065277 C21.9939578,8.98403899 21.9224955,7.64169358 22.6513366,6.41615936 C22.8863019,6.02128248 22.8103497,6.26434414 22.8103497,6.26434414 C23.0771176,7.76932062 23.4535109,8.83851663 23.8979992,9.45954312 L22.4741773,10.1065277 L22.4741773,10.1065277 Z" id="Shape-Copy-60" fill="#FDF3DA"></path>
                        <path d="M25.2655118,10.9169299 C24.2833721,9.63869294 23.9879819,9.22985378 23.5348882,7.36087476 C23.0814203,5.49209239 23.9412134,2.77849375 26.2800153,2.11990676 C26.707854,1.99896588 26.4947765,2.12285654 26.4947765,2.12285654 C24.8126051,4.90665989 25.4529602,5.61539309 25.4381813,7.99507692 C25.4239637,10.3029828 25.281039,11.0972596 25.281039,11.0972596 L25.2655118,10.9169299 L25.2655118,10.9169299 Z" id="Shape-Copy-61" fill="url(#linearGradient-6)"></path>
                        <path d="M15.8047943,13.5001483 C16.2947417,13.120217 16.7957265,12.7241602 17.1947558,12.236267 C17.3840749,12.0052011 17.5165234,11.5694206 17.6684277,11.2323594 C17.7223051,11.1125984 17.659074,10.9792685 17.6897542,10.8732732 C17.6732916,10.7714075 17.6579515,10.667772 17.644108,10.56217 L16.822291,10.1749625 L15.6066827,10.7480059 C15.4774144,11.5452325 15.4469213,12.5617258 15.6373629,13.6256122 C15.6932981,13.5837254 15.7496074,13.5430184 15.8047943,13.5001483 L15.8047943,13.5001483 L15.8047943,13.5001483 Z M17.5907919,9.37183641 C17.6207238,8.92091375 17.7215568,8.47589065 17.9426785,8.073541 C20.0047976,4.31749099 18.5123195,2.61192965 17.2905378,1.81725959 C17.2905378,1.81725959 18.6692748,5.34578343 16.8207944,8.99229837 L16.8295869,8.97695953 L16.8370699,9.01648654 L17.5907919,9.37183641 L17.5907919,9.37183641 Z M16.7977843,9.02120619 C17.1124431,8.1376495 17.7060296,5.03428693 16.9319165,3.04141725 C16.9319165,3.04141725 17.1734293,7.07553295 16.0145045,9.39071498 L16.7977843,9.02120619 L16.7977843,9.02120619 Z" id="Shape-Copy-62" fill="url(#linearGradient-7)"></path>
                        <path d="M19.3760412,0.01179911 C19.9511073,1.52405171 21.9135159,4.66831786 18.1374228,9.62984361 L17.1906401,9.1832473 C20.0753246,3.98573935 19.3760412,0.01179911 19.3760412,0.01179911 L19.3760412,0.01179911 L19.3760412,0.01179911 Z M17.5041765,10.4962916 C15.9750318,13.0214978 17.0276985,16.5262267 20.8890975,17.5409502 C21.5365614,17.711054 23.5376943,17.5720212 24.3767222,16.0713711 C25.5498646,13.9723094 24.4085248,12.1996898 23.448647,10.830993 L24.3024537,10.4551914 C24.4837286,10.6121195 24.6872654,10.7716042 24.9184891,10.9515406 C26.5765279,12.6144285 27.9098059,15.312295 26.3793517,18.4838957 C24.8487104,21.6552999 21.7296219,21.9030812 20.6698465,21.9030812 C19.6106323,21.9030812 16.2842655,21.2704522 15.0783851,18.5000212 C13.6545632,15.2291113 14.4726388,12.1654723 15.2927722,10.8960848 L16.494537,10.3295308 C16.3128879,10.6463369 16.1935345,10.8068048 16.1935345,10.8068048 C16.3035342,10.6441738 16.409044,10.482526 16.5117478,10.3214681 L16.822291,10.1747658 L17.5041765,10.4962916 L17.5041765,10.4962916 Z M22.8378496,9.9348506 C22.0059306,8.51266455 22.7665744,6.86806527 22.7665744,6.86806527 C22.9916246,8.27412587 23.2177974,9.05247383 23.5631364,9.61548803 L22.8378496,9.9348506 L22.8378496,9.9348506 Z M16.5596388,9.13369104 C17.2177659,8.03873363 17.8121007,6.81634584 17.8121007,6.81634584 C17.5979007,7.74867218 17.3324424,8.52151388 17.0783956,9.13074126 L16.8368828,9.01687985 L16.8206073,9.00468743 L16.8076992,9.01687985 L16.5596388,9.13369104 L16.5596388,9.13369104 Z" id="Shape-Copy-63" fill="url(#linearGradient-8)"></path>
                        <path d="M19.4635919,1.52385505 C20.0347295,3.0248985 21.510371,4.90430006 18.4792074,9.79090146 L17.5730198,9.36377368 C20.3368544,4.4305658 19.4635919,1.52385505 19.4635919,1.52385505 L19.4635919,1.52385505 L19.4635919,1.52385505 Z M17.0349944,10.2750583 L17.9243452,10.69432 C16.4898601,13.3799941 17.3397383,16.8394931 21.25595,17.8687688 C21.9034139,18.0388726 23.9045468,17.8998398 24.7432006,16.399583 C26.0267168,14.1038695 24.5415346,12.1989032 23.5528473,10.7847798 L24.3445454,10.4363128 C24.6550886,10.7094622 24.9721794,10.9655029 25.2853417,11.2793592 C26.9430063,12.942837 28.2762843,15.6403102 26.7462042,18.8117143 C25.2159371,21.9835118 22.0964745,22.2308998 21.036699,22.2308998 C19.9774848,22.2308998 16.6514922,21.5982708 15.4452377,18.8278398 C13.8558551,15.1773918 15.0097289,11.732445 15.8929063,10.804445 C15.9783992,10.7143785 16.068569,10.6068099 16.1615448,10.486459 L16.8224781,10.1747658 L17.0007598,10.2587362 L17.0349944,10.2750583 L17.0349944,10.2750583 Z M22.9873219,9.86877559 C22.3445349,8.55356813 22.3903681,7.19588387 22.3903681,7.19588387 C22.712697,8.3573096 23.1102297,9.08295486 23.5449902,9.6233541 L22.9873219,9.86877559 L22.9873219,9.86877559 Z M17.0499603,9.11677898 C17.6356897,8.10795508 18.1295656,7.09224836 18.1295656,7.09224836 C17.9278996,7.9714787 17.6802134,8.70852977 17.4394488,9.30045179 L17.0499603,9.11677898 L17.0499603,9.11677898 Z" id="Shape-Copy-64" fill="url(#linearGradient-9)"></path>
                        <path d="M26.0126862,15.121936 C25.9735877,13.9669998 25.3740148,13.5544242 24.0005159,12.275794 C23.6366566,11.9365696 23.3113345,11.4984293 23.0600938,11.0016868 L24.7667719,10.2504768 C25.0791859,10.6740648 25.4409874,11.1212511 25.8373977,11.7438508 C27.0584311,13.6619928 26.0126862,15.121936 26.0126862,15.121936 L26.0126862,15.121936 L26.0126862,15.121936 Z M22.6812685,10.0036787 C22.3703512,8.81708159 22.4956909,7.47906251 23.3947696,6.38567832 C23.6845476,6.03327824 23.5737996,6.26119771 23.5737996,6.26119771 C23.6179491,7.79134562 23.8375743,8.65602373 24.1860935,9.34115872 L22.6812685,10.0036787 L22.6812685,10.0036787 Z" id="Shape-Copy-65" fill="url(#linearGradient-10)"></path>
                        <path d="M25.1839474,11.1861462 C25.4075011,10.0546116 24.9190503,9.50378979 23.8755503,7.9175961 C22.8316762,6.33159907 22.6485305,3.51908455 24.6230989,2.04576902 C24.9845263,1.7759627 24.8255132,1.96986141 24.8255132,1.96986141 C24.1703793,5.19495147 25.0052916,5.62522568 25.7795918,7.86155033 C26.5305077,10.0304234 25.1839474,11.1861462 25.1839474,11.1861462 L25.1839474,11.1861462 L25.1839474,11.1861462 Z" id="Shape-Copy-66" fill="url(#linearGradient-11)"></path>
                        <polygon id="Shape-Copy-67" fill="#FFFFFF" points="18.29681 9.704178 16.8206073 9.00468743 16.822291 10.1749625 18.0551101 10.7570519"></polygon>
                    </g>
                    <g id="Call" transform="translate(0.000000, 0.983259)">
                        <path d="M23.7629158,12.5961399 C23.7629158,9.52581479 22.4648078,8.18740242 19.2192571,8.18740242 C16.8226493,8.18740242 14.1514165,8.94844501 14.1514165,8.94844501 L14.2513141,11.3890909 C14.2513141,11.3890909 17.2970695,11.1790668 18.9446322,11.1790668 C19.9432344,11.1790668 20.4176546,11.4677516 20.4176546,12.5961399 L20.4176546,13.4096885 L17.7464218,13.619516 C15.0003593,13.8293435 13.3774904,14.6692435 13.3774904,17.6345565 C13.3774904,20.4163933 14.6256496,21.9382818 17.2471207,21.9382818 C19.1193595,21.9382818 20.9169557,21.0199178 20.9169557,21.0199178 C21.9653196,21.754609 22.8142624,21.9382818 24.486893,21.9382818 L24.5867907,19.2880051 C23.9127622,19.1566417 23.8128646,18.8416054 23.7629158,18.0544081 L23.7629158,12.5961399 L23.7629158,12.5961399 L23.7629158,12.5961399 Z M20.4176546,15.8501377 L20.4176546,18.6581293 C20.4176546,18.6581293 19.0445298,19.0779809 17.9710979,19.0779809 C17.0723934,19.0779809 16.7478196,18.4481051 16.7478196,17.529741 C16.7478196,16.584829 17.2720016,16.1390193 18.1458253,16.0601619 L20.4176546,15.8501377 L20.4176546,15.8501377 Z" id="Shape-Copy-68" fill="#23BEFF"></path>
                        <polygon id="Shape-Copy-69" fill="#23BEFF" points="25.7812596 21.9386751 29.1265208 21.9386751 29.1265208 3.56864081 25.7812596 3.56864081"></polygon>
                        <path d="M34.2452456,21.9386751 L34.2452456,3.56864081 L30.8999844,3.56864081 L30.8999844,9.90033055 L30.8999844,21.9386751 L34.2452456,21.9386751 Z" id="Shape-Copy-70" fill="#23BEFF"></path>
                        <path d="M1.89468771,2.44457894 L2.6697362,2.0441958 C3.14415643,1.79916762 3.7074369,2.01528798 3.95624562,2.50534435 L4.71090302,3.99222886 C4.95971174,4.48228523 4.74644713,5.09957533 4.2720269,5.34460352 L3.49697841,5.74498665 C3.02274526,5.98981818 2.4592777,5.77409112 2.21046899,5.2838381 L1.45581158,3.79715024 C1.20700287,3.30670057 1.42008041,2.68980377 1.89468771,2.44457894 L1.89468771,2.44457894 L1.89468771,2.44457894 Z" id="Shape-Copy-71" fill="#23BEFF"></path>
                        <path d="M12.9131722,17.5889332 C11.8562029,17.8742751 10.067025,18.2744615 9.04111001,18.4054317 C6.11695287,18.7798567 5.38025458,17.63141 4.82819856,12.864373 C4.24602359,7.83657555 4.95222877,6.76816614 7.5542441,6.43523458 C8.56912175,6.30524772 10.4045069,6.24566222 11.6015949,6.26336088 L11.2635517,3.34485103 C10.1051882,3.22961305 8.23500719,3.12283111 6.69052243,3.32026955 C1.68460336,3.96076457 0.530916638,6.59353931 1.30933247,13.314509 C2.02732333,19.5143513 3.61034538,22.3254893 8.81437605,21.6596262 C10.1856301,21.4840161 12.0784471,20.9681983 13.2583242,20.5703717 L12.9131722,17.5889332 L12.9131722,17.5889332 Z" id="Shape-Copy-72" fill="#23BEFF"></path>
                        <path d="M6.79172958,7.42989955 L10.3180786,6.9785836 C10.6336728,6.93807332 10.9230767,7.17641534 10.961614,7.50816698 L11.4051669,11.338748 C11.4435171,11.6704997 11.2167832,11.9747201 10.9013761,12.0152303 L7.375027,12.4663497 C7.05943279,12.5068599 6.77002897,12.2685179 6.73167875,11.9367663 L6.2879387,8.10618521 C6.24958849,7.77463022 6.47613537,7.47021318 6.79172958,7.42989955 L6.79172958,7.42989955 L6.79172958,7.42989955 Z" id="Shape-Copy-73" fill="#23BEFF"></path>
                        <path d="M7.19599697,13.151288 L7.75422644,13.0799034 C7.92521228,13.058075 8.08198048,13.1870786 8.10293279,13.3668184 L8.17383392,13.9789955 C8.19459916,14.1585387 8.07187847,14.3235296 7.90089263,14.3453579 L7.34266316,14.4167425 C7.17167732,14.4385709 7.01490912,14.3095673 6.99414389,14.1298275 L6.92324276,13.5176503 C6.90229044,13.3381072 7.02501113,13.1731163 7.19599697,13.151288 L7.19599697,13.151288 L7.19599697,13.151288 Z" id="Shape-Copy-74" fill="#23BEFF"></path>
                        <path d="M8.93466478,12.9288748 L9.49289425,12.8574901 C9.66388009,12.8356618 9.82064829,12.9646654 9.84141352,13.1444052 L9.91231465,13.7565823 C9.93307989,13.9363221 9.8103592,14.1011163 9.63937337,14.1229447 L9.08114389,14.1943293 C8.91015805,14.2161577 8.75338986,14.0871541 8.73262462,13.9074143 L8.66172349,13.2952371 C8.64077118,13.115694 8.76367894,12.9507031 8.93466478,12.9288748 L8.93466478,12.9288748 L8.93466478,12.9288748 Z" id="Shape-Copy-75" fill="#23BEFF"></path>
                        <path d="M10.6733326,12.7062649 L11.2315621,12.6348803 C11.4025479,12.6130519 11.5593161,12.7420555 11.5800813,12.9217953 L11.6646389,13.6515702 C11.6779211,13.7664149 11.59935,13.872017 11.4899116,13.8861759 L10.8198117,13.9719161 C10.6488259,13.9937444 10.4920577,13.8647408 10.4712924,13.6850011 L10.4003913,13.0728239 C10.379439,12.8930841 10.5023467,12.7282899 10.6733326,12.7062649 L10.6733326,12.7062649 L10.6733326,12.7062649 Z" id="Shape-Copy-76" fill="#23BEFF"></path>
                        <path d="M7.39710176,14.8869371 L7.95514416,14.8153558 C8.12612999,14.7937241 8.28289819,14.9227277 8.3038505,15.1024675 L8.37475163,15.7142513 C8.39551687,15.8943844 8.27279618,16.0591786 8.10181035,16.081007 L7.54358087,16.1523916 C7.37259503,16.17422 7.21582684,16.0452164 7.1950616,15.8654766 L7.12416047,15.2532994 C7.10320816,15.0735597 7.22592885,14.9085688 7.39710176,14.8869371 L7.39710176,14.8869371 L7.39710176,14.8869371 Z" id="Shape-Copy-77" fill="#23BEFF"></path>
                        <path d="M9.13558249,14.6641305 L9.69381196,14.5927459 C9.8647978,14.5711142 10.021566,14.7001178 10.0423312,14.8796609 L10.1132324,15.4918381 C10.1339976,15.6715779 10.0112769,15.8363721 9.84029108,15.8582005 L9.28224868,15.9295851 C9.11107577,15.9514134 8.95449464,15.8224098 8.93354233,15.6426701 L8.8626412,15.0306896 C8.84187596,14.8509498 8.96459665,14.6859589 9.13558249,14.6641305 L9.13558249,14.6641305 L9.13558249,14.6641305 Z" id="Shape-Copy-78" fill="#23BEFF"></path>
                        <path d="M10.8742503,14.4417173 L11.4324798,14.3703327 C11.6034656,14.3485043 11.7602338,14.4775079 11.780999,14.6572477 L11.8519002,15.2694249 C11.8728525,15.4491647 11.7499447,15.6139589 11.5789589,15.6357872 L11.0209165,15.7071719 C10.8499306,15.7290002 10.6931625,15.5999966 10.6722101,15.4202568 L10.601309,14.8080797 C10.5805438,14.6283399 10.7032645,14.4635457 10.8742503,14.4417173 L10.8742503,14.4417173 L10.8742503,14.4417173 Z" id="Shape-Copy-79" fill="#23BEFF"></path>
                        <path d="M7.59801947,16.6221928 L8.15624894,16.5508082 C8.32723478,16.5289799 8.48400298,16.6579835 8.50476822,16.8377232 L8.57566935,17.4499004 C8.59643459,17.6296402 8.4737139,17.7944344 8.30272806,17.8162628 L7.74449858,17.8876474 C7.57351275,17.9094757 7.41674455,17.7804721 7.39597931,17.6007324 L7.32507818,16.9885552 C7.30412587,16.8088154 7.42703363,16.6440212 7.59801947,16.6221928 L7.59801947,16.6221928 L7.59801947,16.6221928 Z" id="Shape-Copy-80" fill="#23BEFF"></path>
                        <path d="M9.3365002,16.3993863 L9.89472968,16.3280017 C10.0657155,16.3061733 10.2224837,16.4355702 10.2432489,16.61531 L10.3141501,17.2270939 C10.3349153,17.4068337 10.2121946,17.5720212 10.0412088,17.5934562 L9.48316639,17.6648409 C9.31218055,17.6866692 9.15541236,17.5576656 9.13446004,17.3779258 L9.06355891,16.766142 C9.04279368,16.5864022 9.16551436,16.4212147 9.3365002,16.3993863 L9.3365002,16.3993863 L9.3365002,16.3993863 Z" id="Shape-Copy-81" fill="#23BEFF"></path>
                        <path d="M11.075168,16.1769731 L11.6333975,16.1055885 C11.8043833,16.0837601 11.9611515,16.2127637 11.9819168,16.3925035 L12.0528179,17.0046807 C12.0735831,17.1844204 11.9508624,17.3492147 11.7798766,17.371043 L11.2216471,17.4424276 C11.0506613,17.464256 10.8938931,17.3352524 10.8729408,17.1555126 L10.8020396,16.5433355 C10.7814615,16.3635957 10.9043692,16.1989981 11.075168,16.1769731 L11.075168,16.1769731 L11.075168,16.1769731 Z" id="Shape-Copy-82" fill="#23BEFF"></path>
                        <path d="M10.0847971,0.758092816 C11.3916976,0.311299852 13.3672014,1.57105149 13.30079,3.26245391 C12.5985134,1.48531129 11.4900986,1.01727993 10.0847971,0.758092816 L10.0847971,0.758092816 L10.0847971,0.758092816 Z" id="Shape-Copy-83" fill="#23BEFF"></path>
                        <path d="M11.2508307,0.178756516 C12.2165078,-0.151421911 13.6644623,0.779331214 13.6154489,2.02905361 C13.096505,0.716205976 12.2892797,0.369902098 11.2508307,0.178756516 L11.2508307,0.178756516 L11.2508307,0.178756516 Z" id="Shape-Copy-84" fill="#23BEFF"></path>
                        <path d="M3.20083991,22.2074982 C2.08063948,22.5907726 0.387430711,21.5107608 0.444488348,20.0612401 C1.04630612,21.5845052 1.99608193,21.9854783 3.20083991,22.2074982 L3.20083991,22.2074982 L3.20083991,22.2074982 Z" id="Shape-Copy-85" fill="#23BEFF"></path>
                        <path d="M2.20130235,22.7042407 C1.373686,22.9872227 0.132635622,22.1896029 0.174727322,21.1188337 C0.619589819,22.2436821 1.31139029,22.5406264 2.20130235,22.7042407 L2.20130235,22.7042407 L2.20130235,22.7042407 Z" id="Shape-Copy-86" fill="#23BEFF"></path>
                        <path d="M0.520253408,1.60526891 C0.520253408,1.60526891 0.593025279,0.984635728 1.23693475,0.546495444 C1.85521505,0.125660521 2.74980397,0.307170163 2.74980397,0.307170163" id="Shape-Copy-87" stroke="#23BEFF" stroke-width="1.08"></path>
                        <path d="M1.02179939,1.73741894 C1.02179939,1.73741894 1.1400303,1.29849205 1.55121944,1.05149735 C2.04228927,0.756519602 2.63475332,0.922690401 2.63475332,0.922690401" id="Shape-Copy-88" stroke="#23BEFF" stroke-width="1.08"></path>
                        <path d="M1.55271603,1.90555626 C1.55271603,1.90555626 1.60565804,1.69867853 1.82397365,1.52660818 C2.04228927,1.35453783 2.44618251,1.44598093 2.44618251,1.44598093" id="Shape-Copy-89" stroke="#23BEFF" stroke-width="1.08"></path>
                    </g>
                </g>
            </g>
        </g>
    </g>
</svg>