<?xml version="1.0" encoding="UTF-8"?>
<svg width="20px" height="19px" viewBox="0 0 20 19" version="1.1" xmlns="http://www.w3.org/2000/svg" xmlns:xlink="http://www.w3.org/1999/xlink">
    <!-- Generator: Sketch 39.1 (31720) - http://www.bohemiancoding.com/sketch -->
    <title>CallerIDIcon</title>
    <desc>Created with Sketch.</desc>
    <defs></defs>
    <g id="NewBackend" stroke="none" stroke-width="1" fill="none" fill-rule="evenodd">
        <g id="Messages---Overview" transform="translate(-236.000000, -738.000000)" fill="#1AB869">
            <g id="CallerIDIcon" transform="translate(236.000000, 738.000000)">
                <g id="Phone-Icon">
                    <path d="M1.87397259,1.91799062 L2.64054728,1.60385428 C3.10978055,1.41160777 3.66690253,1.58117351 3.91299096,1.96566652 L4.6593975,3.13226028 C4.90548592,3.51675329 4.69455299,4.00107254 4.22531972,4.19331905 L3.45874503,4.50745539 C2.9896968,4.69954761 2.43238978,4.53029045 2.18630136,4.14564315 L1.43989482,2.97920367 C1.1938064,2.59440208 1.4045543,2.11039142 1.87397259,1.91799062 L1.87397259,1.91799062 L1.87397259,1.91799062 Z" id="Shape"></path>
                    <path d="M12.7719892,13.8000899 C11.7265759,14.023966 9.95695963,14.3379481 8.9422612,14.4407058 C6.05007463,14.7344758 5.32143086,13.8334167 4.77541061,10.0932501 C4.19960071,6.14849378 4.89808476,5.31023113 7.47165159,5.04901658 C8.47543331,4.94703027 10.2907517,4.90028011 11.4747516,4.9141663 L11.1404044,2.62433452 C9.99470553,2.53392003 8.14497172,2.45014006 6.61737321,2.60504816 C1.66618515,3.10757373 0.525111988,5.17322078 1.2950172,10.4464221 C2.00515808,15.3107524 3.57087254,17.5163413 8.71800619,16.9939122 C10.0742679,16.8561304 11.9463903,16.4514253 13.1133675,16.1392947 L12.7719892,13.8000899 L12.7719892,13.8000899 Z" id="Shape"></path>
                    <path d="M10.2052684,5.47532243 C10.5174121,5.4435385 10.8036518,5.63053911 10.8417678,5.89082792 L11.2804713,8.89626105 C11.3184022,9.15654986 11.0941472,9.39523794 10.7821885,9.42702187 L7.29439391,9.78096528 C6.98225018,9.81274921 6.69601048,9.6257486 6.65807956,9.36545979 L6.21919103,6.36002665 C6.18126011,6.09989214 6.4053301,5.86104977 6.71747383,5.82942013 L10.2052684,5.47532243 Z" id="Shape"></path>
                    <path d="M7.11732126,10.3183606 L7.66944747,10.262353 C7.83856388,10.2452267 7.99361809,10.3464416 8.01434132,10.4874635 L8.08446727,10.9677712 C8.10500548,11.1086388 7.98362653,11.2380889 7.81451012,11.2552152 L7.26238391,11.3112228 C7.09326751,11.3283491 6.9382133,11.2271342 6.91767509,11.0861123 L6.84754914,10.6058046 C6.82682591,10.464937 6.94820486,10.3354869 7.11732126,10.3183606 L7.11732126,10.3183606 L7.11732126,10.3183606 Z" id="Shape"></path>
                    <path d="M8.83697976,10.1438576 L9.38910597,10.0878499 C9.55822238,10.0707237 9.71327658,10.1719385 9.73381479,10.3129604 L9.80394074,10.7932681 C9.82447895,10.93429 9.7031,11.0635858 9.53398359,11.0807121 L8.98185738,11.1367197 C8.81274098,11.153846 8.65768677,11.0526312 8.63714856,10.9116093 L8.56702261,10.4313016 C8.54629938,10.2904339 8.66786336,10.1609839 8.83697976,10.1438576 L8.83697976,10.1438576 L8.83697976,10.1438576 Z" id="Shape"></path>
                    <path d="M10.5566383,9.96920022 L11.1087645,9.91319261 C11.2778809,9.89606632 11.4329351,9.99728117 11.4534733,10.1383031 L11.5371063,10.7108767 C11.5502434,10.8009827 11.4725313,10.8838369 11.3642894,10.8949458 L10.7015159,10.9622167 C10.5323995,10.979343 10.3773453,10.8781281 10.3568071,10.7371062 L10.2866811,10.2567985 C10.2659579,10.1157766 10.3875219,9.9864808 10.5566383,9.96920022 L10.5566383,9.96920022 L10.5566383,9.96920022 Z" id="Shape"></path>
                    <path d="M7.8681685,11.6239705 C8.0372849,11.6069985 8.19233911,11.7082134 8.21306235,11.8492353 L8.2831883,12.3292344 C8.3037265,12.4705649 8.18234755,12.5998607 8.01323115,12.616987 L7.46110494,12.6729946 C7.29198854,12.6901209 7.13693433,12.588906 7.11639612,12.4478841 L7.04627017,11.9675764 C7.02554694,11.8265545 7.14692589,11.6971044 7.31622732,11.6801324 L7.8681685,11.6239705 Z" id="Shape"></path>
                    <path d="M9.587827,11.4493132 C9.7569434,11.4323412 9.91199761,11.533556 9.93253582,11.6744236 L10.0026618,12.1547313 C10.0232,12.2957532 9.90182102,12.425049 9.73270462,12.4421753 L9.18076344,12.4981829 C9.01146201,12.5153092 8.85659283,12.4140944 8.83586959,12.2730725 L8.76574364,11.7929191 C8.74520543,11.6518972 8.86658439,11.5224471 9.03570079,11.5053208 L9.587827,11.4493132 Z" id="Shape"></path>
                    <path d="M11.3074855,11.2748101 C11.4766019,11.2576838 11.6316561,11.3588987 11.6521943,11.4999206 L11.7223203,11.9802283 C11.7430435,12.1212502 11.6214795,12.250546 11.4523631,12.2676723 L10.9004219,12.3236799 C10.7313055,12.3408062 10.5762513,12.2395913 10.5555281,12.0985694 L10.4854021,11.6182617 C10.4648639,11.4772398 10.5862429,11.347944 10.7553593,11.3308177 L11.3074855,11.2748101 Z" id="Shape"></path>
                    <path d="M7.51494835,13.0415956 L8.06707455,12.985588 C8.23619096,12.9684617 8.39124517,13.0696766 8.41178338,13.2106985 L8.48190932,13.6910062 C8.50244753,13.8320281 8.38106858,13.9613239 8.21195218,13.9784502 L7.65982597,14.0344578 C7.49070956,14.0515841 7.33565535,13.9503692 7.31511715,13.8093473 L7.2449912,13.3290396 C7.22426796,13.1880177 7.34583194,13.0587219 7.51494835,13.0415956 L7.51494835,13.0415956 L7.51494835,13.0415956 Z" id="Shape"></path>
                    <path d="M9.23442182,12.866784 L9.78654802,12.8107764 C9.95566443,12.7936501 10.1107186,12.8951735 10.1312568,13.0361954 L10.2013828,13.5161945 C10.221921,13.6572165 10.1005421,13.7868208 9.93142565,13.8036385 L9.37948447,13.8596462 C9.21036806,13.8767725 9.05531385,13.7755576 9.03459062,13.6345357 L8.96446467,13.1545366 C8.94392646,13.0135147 9.06530541,12.8839103 9.23442182,12.866784 L9.23442182,12.866784 L9.23442182,12.866784 Z" id="Shape"></path>
                    <path d="M10.9540803,12.6922809 L11.5062065,12.6362733 C11.6753229,12.619147 11.8303771,12.7203619 11.8509153,12.8613838 L11.9210413,13.3416915 C11.9415795,13.4827134 11.8202005,13.6120092 11.6510841,13.6291355 L11.0989579,13.6851431 C10.9298415,13.7022694 10.7747873,13.6010546 10.7540641,13.4600326 L10.6839381,12.979725 C10.663585,12.838703 10.7851489,12.7095615 10.9540803,12.6922809 L10.9540803,12.6922809 L10.9540803,12.6922809 Z" id="Shape"></path>
                    <path d="M9.97453738,0.594791557 C11.2671492,0.244242551 13.2210543,1.23263028 13.155369,2.55968662 C12.4607706,1.16535944 11.3644744,0.79814701 9.97453738,0.594791557 L9.97453738,0.594791557 L9.97453738,0.594791557 Z" id="Shape"></path>
                    <path d="M11.1278224,0.14025046 C12.0829416,-0.11880402 13.5150652,0.611454978 13.4665876,1.59197387 C12.9533175,0.561927587 12.1549178,0.29022125 11.1278224,0.14025046 L11.1278224,0.14025046 L11.1278224,0.14025046 Z" id="Shape"></path>
                    <path d="M3.1658443,17.4237668 C2.05789131,17.7244798 0.38319483,16.877114 0.439628642,15.7398355 C1.03486658,16.9349731 1.97425825,17.2495723 3.1658443,17.4237668 L3.1658443,17.4237668 L3.1658443,17.4237668 Z" id="Shape"></path>
                    <path d="M2.17723494,17.8135057 C1.35866714,18.0355303 0.131185483,17.4097263 0.172816983,16.5696122 C0.612815682,17.4521563 1.29705252,17.6851356 2.17723494,17.8135057 L2.17723494,17.8135057 L2.17723494,17.8135057 Z" id="Shape"></path>
                    <path d="M10.4264006,8.5648063 L7.50824597,8.92311063 L7.47318356,8.63755022 L8.38288749,8.00490547 L8.35836832,7.80521288 C8.29838404,7.81257803 8.23685017,7.76979548 8.17360461,7.67688515 C8.110278,7.58398477 8.07448696,7.50358187 8.06615044,7.43568639 L8.01711211,7.0363012 C7.9968511,6.87128855 8.05084872,6.72134734 8.17921053,6.5866673 C8.30749129,6.45199721 8.47206482,6.37233052 8.67309325,6.34764734 C8.87412168,6.32296415 9.05316085,6.3604405 9.21021076,6.46007639 C9.36726067,6.55971227 9.45592839,6.69213639 9.4761894,6.85714903 L9.52522773,7.25653422 C9.53356425,7.3244297 9.51836864,7.41109298 9.47939773,7.51655392 C9.44050788,7.6220049 9.39115187,7.67840301 9.33108652,7.6857781 L9.35560569,7.8854707 L10.3913381,8.27924589 L10.4264006,8.5648063 Z" id="Account-icon"></path>
                </g>
                <text id="ID" font-family="Helvetica" font-size="6.09677419" font-weight="normal">
                    <tspan x="13.9599254" y="18.25">ID</tspan>
                </text>
            </g>
        </g>
    </g>
</svg>