<?xml version="1.0" encoding="UTF-8"?>
<svg width="92px" height="138px" viewBox="0 0 92 138" version="1.1" xmlns="http://www.w3.org/2000/svg" xmlns:xlink="http://www.w3.org/1999/xlink">
    <!-- Generator: Sketch 39.1 (31720) - http://www.bohemiancoding.com/sketch -->
    <title>-g-Callburn Icon</title>
    <desc>Created with Sketch.</desc>
    <defs>
        <linearGradient x1="4.24998921%" y1="50.0619108%" x2="103.198466%" y2="49.5635078%" id="linearGradient-1">
            <stop stop-color="#F0BAA2" offset="0%"></stop>
            <stop stop-color="#F5CFAC" offset="39.85%"></stop>
            <stop stop-color="#F8DDB2" offset="75.52%"></stop>
            <stop stop-color="#F9E2B5" offset="100%"></stop>
        </linearGradient>
        <linearGradient x1="65.6957268%" y1="104.494064%" x2="36.002619%" y2="-4.66733375%" id="linearGradient-2">
            <stop stop-color="#F0BAA2" offset="0%"></stop>
            <stop stop-color="#F5CFAC" offset="39.85%"></stop>
            <stop stop-color="#F8DDB2" offset="75.52%"></stop>
            <stop stop-color="#F9E2B5" offset="100%"></stop>
        </linearGradient>
        <linearGradient x1="49.999845%" y1="100.000325%" x2="49.999845%" y2="0.00113782286%" id="linearGradient-3">
            <stop stop-color="#F0BAA2" offset="0%"></stop>
            <stop stop-color="#F1C0A4" offset="8.45%"></stop>
            <stop stop-color="#F6D6AB" offset="46.27%"></stop>
            <stop stop-color="#F9E3AE" offset="78.14%"></stop>
            <stop stop-color="#FAE7AF" offset="100%"></stop>
        </linearGradient>
        <linearGradient x1="5.53421183%" y1="92.6961048%" x2="99.9681373%" y2="0.043853771%" id="linearGradient-4">
            <stop stop-color="#F0BAA2" offset="0%"></stop>
            <stop stop-color="#F5CFAC" offset="39.85%"></stop>
            <stop stop-color="#F8DDB2" offset="75.52%"></stop>
            <stop stop-color="#F9E2B5" offset="100%"></stop>
        </linearGradient>
        <linearGradient x1="50.0032353%" y1="99.9993339%" x2="50.0032353%" y2="-0.00049960864%" id="linearGradient-5">
            <stop stop-color="#EC9500" offset="0%"></stop>
            <stop stop-color="#E8810B" offset="6.37%"></stop>
            <stop stop-color="#E26614" offset="16.27%"></stop>
            <stop stop-color="#DE4F18" offset="27.14%"></stop>
            <stop stop-color="#DC3A1A" offset="39.14%"></stop>
            <stop stop-color="#DA281B" offset="52.88%"></stop>
            <stop stop-color="#D9191B" offset="69.89%"></stop>
            <stop stop-color="#D9121B" offset="100%"></stop>
        </linearGradient>
        <linearGradient x1="50.0002741%" y1="100.000359%" x2="50.0002741%" y2="0.000449155587%" id="linearGradient-6">
            <stop stop-color="#E42E18" offset="0%"></stop>
            <stop stop-color="#FDD403" offset="100%"></stop>
        </linearGradient>
        <linearGradient x1="-0.000954889317%" y1="49.999905%" x2="99.9994483%" y2="49.999905%" id="linearGradient-7">
            <stop stop-color="#E42E18" offset="0%"></stop>
            <stop stop-color="#FDD403" offset="100%"></stop>
        </linearGradient>
        <linearGradient x1="100.000657%" y1="49.9998465%" x2="-0.00347230841%" y2="49.9998465%" id="linearGradient-8">
            <stop stop-color="#CB2F21" offset="0%"></stop>
            <stop stop-color="#CC3721" offset="9.55%"></stop>
            <stop stop-color="#CF4C21" offset="23.88%"></stop>
            <stop stop-color="#D56920" offset="41.2%"></stop>
            <stop stop-color="#DE8F1C" offset="60.85%"></stop>
            <stop stop-color="#EABA0F" offset="82.18%"></stop>
            <stop stop-color="#F5DE00" offset="100%"></stop>
        </linearGradient>
        <linearGradient x1="-14.0292303%" y1="40.4436359%" x2="128.839768%" y2="57.5183851%" id="linearGradient-9">
            <stop stop-color="#EEAB0C" offset="0%"></stop>
            <stop stop-color="#EA8912" offset="21.99%"></stop>
            <stop stop-color="#E66415" offset="46.63%"></stop>
            <stop stop-color="#E54517" offset="68.74%"></stop>
            <stop stop-color="#E42D18" offset="87.28%"></stop>
            <stop stop-color="#E32119" offset="100%"></stop>
        </linearGradient>
    </defs>
    <g id="NewBackend" stroke="none" stroke-width="1" fill="none" fill-rule="evenodd">
        <g id="Live-Transfer-Popup" transform="translate(-203.000000, -527.000000)">
            <g id="Live-transfer-explication-graph" transform="translate(202.000000, 474.000000)">
                <g id="-g-Callburn-Icon" transform="translate(0.000000, 51.472119)">
                    <path d="M17.6749708,53.8378889 C17.5197283,48.146067 16.5795093,42.2557887 14.1945332,37.5362855 C14.1945332,37.5362855 15.196098,45.4698421 14.7253625,54.9135457 L17.6749708,53.8378889 L17.6749708,53.8378889 Z" id="Shape-Copy-36" fill="url(#linearGradient-1)"></path>
                    <path d="M31.3500859,55.0121868 C30.9018857,46.4398121 26.3986,37.5562485 16.6045484,33.3358219 C13.9115911,32.1720927 15.1835784,33.1256226 15.1835784,33.1256226 C19.4164416,42.5951608 20.08749,48.0779577 19.4151896,53.1438788 L31.3500859,55.0121868 L31.3500859,55.0121868 Z" id="Shape-Copy-20" fill="url(#linearGradient-2)"></path>
                    <path d="M11.0971941,22.8892678 C11.0971941,22.8892678 30.3097105,34.7661167 28.8599455,55.5981614 C28.8599455,55.5981614 26.6690225,71.451183 19.7194149,79.0993852 C12.8561923,86.6536436 2.6464913,95.1332487 2.6464913,95.1332487 C2.6464913,95.1332487 -3.44051864,85.7412141 7.96229636,64.659044 C19.3651114,43.5768738 11.0971941,22.8892678 11.0971941,22.8892678 L11.0971941,22.8892678 Z" id="Shape-Copy-21" fill="url(#linearGradient-3)" opacity="0.6"></path>
                    <path d="M10.9920298,22.1071854 C10.9920298,22.1071854 30.2045462,33.9840343 28.7547812,54.816079 C28.7547812,54.816079 27.1898362,71.4523573 19.6142506,78.3173028 C12.0048622,85.2139543 2.541327,94.349992 2.541327,94.349992 C2.541327,94.349992 -3.54568294,84.9579574 7.85713206,63.8757873 C19.2599471,42.7936171 10.9920298,22.1071854 10.9920298,22.1071854 L10.9920298,22.1071854 Z" id="Shape-Copy-22"></path>
                    <path d="M28.0324026,10.445233 C33.537253,18.6019062 44.0912418,25.9471395 30.4687089,57.0272819 L24.01112,55.5582353 C36.4543104,23.4259219 28.0324026,10.445233 28.0324026,10.445233 L28.0324026,10.445233 L28.0324026,10.445233 Z" id="Shape-Copy-23" fill="#FDF3DA"></path>
                    <path d="M28.1112758,13.3210885 C32.9989119,21.8159595 41.8214457,26.5342885 26.6389756,55.4372826 L20.3053303,53.5537088 C35.0921823,22.306816 28.1112758,13.3210885 28.1112758,13.3210885 L28.1112758,13.3210885 L28.1112758,13.3210885 Z" id="Shape-Copy-24" fill="#FACCB0"></path>
                    <path d="M81.4358366,90.3503333 C80.5757428,83.4971308 76.362911,81.3481657 66.5400644,74.4409454 C63.9372479,72.6078664 61.5410042,70.1665011 59.6067322,67.3387918 L71.1460104,62.9751008 C73.4483574,65.3366139 74.9857594,67.1790873 77.954147,70.6808436 C87.0921736,81.4726412 81.4358366,90.3503333 81.4358366,90.3503333 L81.4358366,90.3503333 L81.4358366,90.3503333 Z" id="Shape-Copy-25" fill="#FEF5DD"></path>
                    <path d="M56.397969,61.7197763 C53.1841981,55.0168839 52.7059509,47.0011265 57.5835714,39.682902 C59.1560281,37.3249118 58.6477339,38.776344 58.6477339,38.776344 C60.4330232,47.7632458 62.9519586,54.1479035 65.926606,57.8563363 L56.397969,61.7197763 L56.397969,61.7197763 Z" id="Shape-Copy-26" fill="#FDF3DA"></path>
                    <path d="M75.0784041,66.559058 C68.5056353,58.9261216 66.5287968,56.4847563 63.4965594,45.3242291 C60.4618181,34.1648762 66.2158078,17.9607395 81.8677614,14.0280159 C84.7309847,13.3058227 83.3050068,14.0456303 83.3050068,14.0456303 C72.0474187,30.6689914 76.332864,34.901161 76.2339595,49.1113398 C76.1388108,62.8928999 75.1823165,67.6358891 75.1823165,67.6358891 L75.0784041,66.559058 L75.0784041,66.559058 Z" id="Shape-Copy-27" fill="url(#linearGradient-4)"></path>
                    <path d="M26.3097111,65.3777143 C16.7097127,81.4151007 18.2696499,104.110756 50.2796602,112.593884 C54.5776251,113.732953 68.0048529,112.779423 73.6173715,103.820705 C82.2070414,90.1119509 72.267763,78.7365272 65.6511756,70.292151 L73.4784044,67.1990503 C75.5566513,68.8301501 77.6787167,70.359086 79.774491,72.2332654 C90.8680729,82.1666513 97.263064,99.2867403 87.0220641,118.224643 C76.7810642,137.164893 55.9046984,138.64216 48.8123678,138.64216 C41.7237931,138.64216 19.4652678,134.864444 11.3926557,118.320935 C0.756037784,96.5224431 8.47810223,75.9510925 14.3885864,70.4095808 C14.9607303,69.8717523 15.564173,69.2294114 16.1863952,68.5107411 L20.6095556,66.6494789 L21.8026696,67.1509041 C19.9097122,70.4154523 18.523797,72.0735609 18.523797,72.0735609 C19.7657373,70.434241 23.3513392,66.1832826 24.4518085,64.6073749 L26.3097111,65.3777143 L26.3097111,65.3777143 Z" id="Shape-Copy-28" fill="#FCE1D2"></path>
                    <path d="M24.0599463,67.6523293 C14.4599479,83.6897157 23.4452359,104.347964 49.6524303,110.494239 C53.9854499,111.510007 67.3776229,110.679779 72.9901416,101.72106 C81.5798115,88.0123062 71.640533,76.6368825 65.0239457,68.1925063 L70.3222234,66.1116505 C72.4004703,67.7427502 74.5225357,69.2716861 76.61831,71.1458655 C87.7118918,81.0792515 96.6345821,97.1870957 86.3948342,116.124998 C76.1538343,135.065249 55.2774685,136.542515 48.1851379,136.542515 C41.0965631,136.542515 18.8380379,132.764799 10.7654258,116.22129 C0.128807842,94.4227984 7.85087228,73.8514479 13.7613564,68.3099361 C14.3335003,67.7721077 14.9369431,67.1297667 15.5591652,66.4110964 L19.9823257,64.5498343 L21.1754397,65.0512595 C19.2824823,68.3158076 17.896567,69.9739162 17.896567,69.9739162 C19.1385073,68.3345964 20.3053303,66.724634 21.4057996,65.1487262 L24.0599463,67.6523293 L24.0599463,67.6523293 Z" id="Shape-Copy-29" fill="#FACCB0"></path>
                    <path d="M11.7644867,81.9846351 C15.0433593,79.7158916 18.3960974,77.3508556 21.0665195,74.4374226 C22.333499,73.0576225 23.2198838,70.4553784 24.2364721,68.4426318 C24.5970354,67.7274844 24.1738743,66.9313104 24.379195,66.2983638 C24.2690229,65.6900775 24.1663625,65.0712225 24.0737178,64.4406246 L18.5738752,62.128432 L10.4386653,65.5503361 C9.5735637,70.3109397 9.36949488,76.3808856 10.6439861,82.7338372 C11.0183209,82.4837117 11.3951596,82.2406321 11.7644867,81.9846351 L11.7644867,81.9846351 L11.7644867,81.9846351 Z M23.7169103,57.3325994 C23.9172233,54.6399343 24.5920276,51.9824982 26.0718395,49.5798847 C39.8721502,27.1507949 29.8840455,16.9661092 21.707521,12.2207714 C21.707521,12.2207714 30.9344365,33.2911986 18.5638595,55.0662045 L18.6227015,54.9746092 L18.6727797,55.2106431 L23.7169103,57.3325994 L23.7169103,57.3325994 Z M18.409869,55.2388262 C20.5156589,49.9627058 24.4881152,31.4311107 19.3075214,19.5307758 C19.3075214,19.5307758 20.9237966,43.6203229 13.1679293,57.445332 L18.409869,55.2388262 L18.409869,55.2388262 Z" id="Shape-Copy-30" fill="url(#linearGradient-5)"></path>
                    <path d="M35.6643262,1.43954243 C39.5128388,10.4698933 52.645857,29.2457423 27.3751257,58.8732782 L21.0389765,56.2064477 C40.3441376,25.1697543 35.6643262,1.43954243 35.6643262,1.43954243 L35.6643262,1.43954243 L35.6643262,1.43954243 Z M23.1372547,64.0472348 C12.9037666,79.1263941 19.9485229,100.054731 45.7901461,106.114108 C50.1231657,107.129876 63.5153388,106.299647 69.1303613,97.3385801 C76.9813772,84.8041244 69.3431938,74.2190031 62.9194077,66.0458898 L68.6333348,63.8018065 C69.8464801,64.7388962 71.2086082,65.6912518 72.7560258,66.7657344 C83.8521116,76.6955974 92.7748018,92.8057902 82.53255,111.744867 C72.2890462,130.682769 51.4151843,132.162384 44.3228537,132.162384 C37.234279,132.162384 14.9732498,128.384668 6.90314161,111.841159 C-2.6254953,92.3090622 2.84930817,74.0146753 8.33788316,66.4345824 L16.3804483,63.0514302 C15.1647991,64.9432241 14.3660512,65.9014511 14.3660512,65.9014511 C15.1022013,64.9303068 15.8083044,63.9650339 16.4956283,63.0032839 L18.5738752,62.1272577 L23.1372547,64.0472348 L23.1372547,64.0472348 Z M58.8317715,60.6946143 C53.2643232,52.2020919 58.3547762,42.3814386 58.3547762,42.3814386 C59.8608793,50.7776685 61.374494,55.4255396 63.6856048,58.7875545 L58.8317715,60.6946143 L58.8317715,60.6946143 Z M16.816129,55.9105246 C21.2205101,49.372034 25.1979742,42.0725982 25.1979742,42.0725982 C23.7644847,47.6399446 21.9879591,52.2549353 20.2878029,55.8929102 L18.6715278,55.2129917 L18.5626076,55.1401852 L18.4762226,55.2129917 L16.816129,55.9105246 L16.816129,55.9105246 Z" id="Shape-Copy-31" fill="url(#linearGradient-6)"></path>
                    <path d="M36.2502416,10.468719 C40.0724632,19.4321348 49.9478919,30.6548998 29.6624492,59.8350282 L23.5979745,57.2844532 C42.0943721,27.8260162 36.2502416,10.468719 36.2502416,10.468719 L36.2502416,10.468719 L36.2502416,10.468719 Z M19.9973491,62.7261496 L25.9491478,65.2297527 C16.3491494,81.2671391 22.0367854,101.925388 48.2452318,108.071663 C52.5782514,109.087431 65.9704244,108.257202 71.582943,99.2984833 C80.172613,85.5897297 70.2333345,74.214306 63.6167472,65.7699298 L68.9150249,63.6890739 C70.9932718,65.3201737 73.1153372,66.8491095 75.2111115,68.723289 C86.3046933,78.6566749 95.2273836,94.7645191 84.9876357,113.702421 C74.7466358,132.642672 53.8702699,134.119939 46.7779394,134.119939 C39.6893646,134.119939 17.4308394,130.342222 9.35822727,113.798714 C-1.27839067,92.0002219 6.44367377,71.4288713 12.3541579,65.8873596 C12.9263018,65.3495311 13.5297446,64.7071902 14.1519667,63.9885199 L18.5751271,62.1272577 L19.7682412,62.6286829 L19.9973491,62.7261496 L19.9973491,62.7261496 Z M59.8320843,60.3000502 C55.5303636,52.4463459 55.8370928,44.3389932 55.8370928,44.3389932 C57.9942129,51.2743966 60.6546194,55.6075558 63.564165,58.8345264 L59.8320843,60.3000502 L59.8320843,60.3000502 Z M20.0975056,55.809535 C24.0173798,49.7853868 27.3225435,43.7201382 27.3225435,43.7201382 C25.972935,48.9704241 24.3153453,53.3716926 22.7040779,56.9063293 L20.0975056,55.809535 L20.0975056,55.809535 Z" id="Shape-Copy-32" fill="url(#linearGradient-7)"></path>
                    <path d="M80.0787163,91.6690699 C79.8170575,84.7724183 75.8045386,82.3087414 66.6126778,74.6734564 C64.1776235,72.6477926 62.000472,70.0314568 60.3190952,67.0651804 L71.7406895,62.5793624 C73.831456,65.1088001 76.2527388,67.7791535 78.9056335,71.4969806 C87.0771502,82.9510823 80.0787163,91.6690699 80.0787163,91.6690699 L80.0787163,91.6690699 L80.0787163,91.6690699 Z M57.7838843,61.1056185 C55.7031335,54.019905 56.541944,46.0299821 62.5588444,39.5008858 C64.4981242,37.396544 63.7569663,38.7575553 63.7569663,38.7575553 C64.0524279,47.8947672 65.5222242,53.0581551 67.8546182,57.1494089 L57.7838843,61.1056185 L57.7838843,61.1056185 Z" id="Shape-Copy-33" fill="url(#linearGradient-8)"></path>
                    <path d="M74.5325513,68.1666718 C76.0286387,61.4097617 72.7597817,58.1205533 65.7763712,48.6486665 C58.7904569,39.1779539 57.564792,22.3831454 70.7791873,13.5853056 C73.1979663,11.9741689 72.1338037,13.1320266 72.1338037,13.1320266 C67.7494539,32.3905121 73.3369334,34.9598759 78.5187791,48.3139916 C83.5441304,61.2653231 74.5325513,68.1666718 74.5325513,68.1666718 L74.5325513,68.1666718 L74.5325513,68.1666718 Z" id="Shape-Copy-34" fill="url(#linearGradient-9)"></path>
                    <polygon id="Shape-Copy-35" fill="#FFFFFF" points="28.4417922 59.3171628 18.5626076 55.1401852 18.5738752 62.128432 26.8242651 65.6043538"></polygon>
                </g>
            </g>
        </g>
    </g>
</svg>