<?xml version="1.0" encoding="UTF-8"?>
<svg width="21px" height="33px" viewBox="0 0 21 33" version="1.1" xmlns="http://www.w3.org/2000/svg" xmlns:xlink="http://www.w3.org/1999/xlink">
    <!-- Generator: Sketch 42 (36781) - http://www.bohemiancoding.com/sketch -->
    <title>callerid-icon-grey</title>
    <desc>Created with Sketch.</desc>
    <defs></defs>
    <g id="Page-1" stroke="none" stroke-width="1" fill="none" fill-rule="evenodd">
        <g id="callerid-icon-grey" fill-rule="nonzero">
            <g id="Page-1">
                <g id="ClickToCall---Overview">
                    <g id="Group-2">
                        <g id="ClickToCallGrey">
                            <path d="M3.66262325,4.34678528 L4.79579189,3.78350915 C5.48942347,3.43879301 6.31297423,3.74284039 6.67674789,4.43227266 L7.7801035,6.52408543 C8.14387717,7.21351771 7.83207117,8.08194784 7.13843958,8.42666398 L6.00527094,8.98994011 C5.31191287,9.33437959 4.4880886,9.03088552 4.12431493,8.34117659 L3.02095932,6.24964048 C2.65718566,5.55965489 2.96871814,4.69177807 3.66262325,4.34678528 L3.66262325,4.34678528 L3.66262325,4.34678528 Z" id="Shape-Copy" fill="#777777"></path>
                            <path d="M19.7723263,25.6525111 C18.226972,26.0539422 15.6110838,26.6169417 14.1111328,26.801196 C9.83583497,27.3279533 8.75873671,25.7122693 7.9515968,19.0057975 C7.10042113,11.9324769 8.1329366,10.4293928 11.9372433,9.96101044 C13.4210569,9.77813936 16.1045031,9.69431192 17.8547194,9.71921116 L17.3604795,5.61332659 C15.6668806,5.45120487 12.9325609,5.30097946 10.674429,5.57874431 C3.35546699,6.47982012 1.66870594,10.1837203 2.80679784,19.6390681 C3.8565447,28.3612717 6.17102044,32.3161009 13.7796338,31.3793362 C15.7844917,31.1322804 18.5519067,30.4066059 20.2769597,29.8469263 L19.7723263,25.6525111 L19.7723263,25.6525111 Z" id="Shape-Copy-2" fill="#777777"></path>
                            <path d="M15.9781396,10.7254171 C16.4395578,10.6684255 16.862684,11.0037353 16.9190279,11.4704577 L17.5675297,16.859483 C17.6236,17.3262055 17.292101,17.7541957 16.8309564,17.8111873 L11.6752168,18.4458413 C11.2137987,18.5028328 10.7906725,18.1675231 10.7346021,17.7008007 L10.0858268,12.3117753 C10.0297564,11.8453295 10.3609819,11.4170626 10.8224001,11.3603477 L15.9781396,10.7254171 Z" id="Shape-Copy-3" fill="#777777"></path>
                            <path d="M11.4134639,19.4094418 L12.2296298,19.3090149 C12.4796216,19.2783058 12.7088264,19.4597936 12.73946,19.7126592 L12.8431218,20.5738962 C12.8734818,20.8264852 12.6940566,21.0586014 12.4440648,21.0893105 L11.6278989,21.1897374 C11.3779071,21.2204465 11.1487023,21.0389587 11.1183423,20.7860931 L11.0146805,19.9248561 C10.9840469,19.6722671 11.1634721,19.4401509 11.4134639,19.4094418 L11.4134639,19.4094418 L11.4134639,19.4094418 Z" id="Shape-Copy-4" fill="#777777"></path>
                            <path d="M13.9555033,19.0965414 L14.7716692,18.9961144 C15.021661,18.9654054 15.2508658,19.1468932 15.2812259,19.3997588 L15.3848877,20.2609958 C15.4152477,20.5138614 15.2358225,20.745701 14.9858307,20.7764101 L14.1696648,20.876837 C13.919673,20.9075461 13.6904682,20.7260583 13.6601082,20.4731927 L13.5564464,19.6119556 C13.5258128,19.3593667 13.7055115,19.1272504 13.9555033,19.0965414 L13.9555033,19.0965414 L13.9555033,19.0965414 Z" id="Shape-Copy-5" fill="#777777"></path>
                            <path d="M16.4975428,18.7833643 L17.3137086,18.6829373 C17.5637005,18.6522283 17.7929052,18.8337161 17.8232653,19.0865817 L17.9468936,20.1132603 C17.9663131,20.2748287 17.8514372,20.4233942 17.6914315,20.4433136 L16.7117043,20.5639366 C16.4617124,20.5946456 16.2325077,20.4131578 16.2021476,20.1602922 L16.0984858,19.2990552 C16.0678522,19.0461896 16.2475509,18.81435 16.4975428,18.7833643 L16.4975428,18.7833643 L16.4975428,18.7833643 Z" id="Shape-Copy-6" fill="#777777"></path>
                            <path d="M11.7074915,21.8512272 L12.5233839,21.7505236 C12.7733757,21.7200912 13.0025804,21.901579 13.033214,22.1544446 L13.1368758,23.0151283 C13.1672359,23.2685473 12.9878107,23.5003869 12.7378189,23.5310959 L11.921653,23.6315228 C11.6716612,23.6622319 11.4424564,23.4807441 11.4120963,23.2278785 L11.3084345,22.3666415 C11.277801,22.1137759 11.4572262,21.8816596 11.7074915,21.8512272 L11.7074915,21.8512272 L11.7074915,21.8512272 Z" id="Shape-Copy-7" fill="#777777"></path>
                            <path d="M14.2492574,21.5377735 L15.0654233,21.4373465 C15.3154151,21.4069141 15.5446199,21.5884019 15.5749799,21.8409909 L15.6786418,22.7022279 C15.7090018,22.9550935 15.5295766,23.1869331 15.2795848,23.2176422 L14.4636924,23.3180691 C14.2134271,23.3487782 13.9844958,23.1672904 13.9538623,22.9144248 L13.8502004,22.0534644 C13.8198404,21.8005988 13.9992656,21.5684825 14.2492574,21.5377735 L14.2492574,21.5377735 L14.2492574,21.5377735 Z" id="Shape-Copy-8" fill="#777777"></path>
                            <path d="M16.7912968,21.224873 L17.6074627,21.1244461 C17.8574545,21.093737 18.0866593,21.2752248 18.1170194,21.5280904 L18.2206812,22.3893275 C18.2513147,22.6421931 18.071616,22.8740327 17.8216242,22.9047417 L17.0057318,23.0051686 C16.75574,23.0358777 16.5265353,22.8543899 16.4959017,22.6015243 L16.3922399,21.7402873 C16.3618798,21.4874217 16.541305,21.2555821 16.7912968,21.224873 L16.7912968,21.224873 L16.7912968,21.224873 Z" id="Shape-Copy-9" fill="#777777"></path>
                            <path d="M12.0012456,24.2924593 L12.8174114,24.1920324 C13.0674033,24.1613233 13.296608,24.3428111 13.3269681,24.5956767 L13.4306299,25.4569138 C13.46099,25.7097794 13.2815648,25.9416189 13.0315729,25.972328 L12.2154071,26.0727549 C11.9654152,26.103464 11.7362105,25.9219762 11.7058504,25.6691106 L11.6021886,24.8078736 C11.571555,24.555008 11.7512537,24.3231684 12.0012456,24.2924593 L12.0012456,24.2924593 L12.0012456,24.2924593 Z" id="Shape-Copy-10" fill="#777777"></path>
                            <path d="M14.5430115,23.9790056 L15.3591774,23.8785786 C15.6091692,23.8478696 15.8383739,24.0299107 15.868734,24.2827763 L15.9723958,25.14346 C16.0027559,25.3963256 15.8233307,25.6287185 15.5733388,25.6588743 L14.7574465,25.7593012 C14.5074547,25.7900102 14.2782499,25.6085225 14.2476163,25.3556568 L14.1439545,24.4949731 C14.1135945,24.2421075 14.2930197,24.0097146 14.5430115,23.9790056 L14.5430115,23.9790056 L14.5430115,23.9790056 Z" id="Shape-Copy-11" fill="#777777"></path>
                            <path d="M17.0850509,23.6661051 L17.9012168,23.5656782 C18.1512086,23.5349691 18.3804134,23.7164569 18.4107734,23.9693225 L18.5144352,24.8305596 C18.5447953,25.0834252 18.3653701,25.3152647 18.1153783,25.3459738 L17.2992124,25.4464007 C17.0492206,25.4771098 16.8200158,25.295622 16.7893822,25.0427564 L16.6857204,24.1815194 C16.6556339,23.9286538 16.8353326,23.6970908 17.0850509,23.6661051 L17.0850509,23.6661051 L17.0850509,23.6661051 Z" id="Shape-Copy-12" fill="#777777"></path>
                            <path d="M15.6370676,1.97416442 C17.5478367,1.34559695 20.4361448,3.11786948 20.3390474,5.49740679 C19.3122757,2.9972465 17.691705,2.33879995 15.6370676,1.97416442 L15.6370676,1.97416442 L15.6370676,1.97416442 Z" id="Shape-Copy-13" fill="#777777"></path>
                            <path d="M17.3418806,1.15912932 C18.75376,0.694620173 20.8707586,2.00404351 20.799098,3.76220647 C20.04037,1.91523622 18.860157,1.4280411 17.3418806,1.15912932 L17.3418806,1.15912932 L17.3418806,1.15912932 Z" id="Shape-Copy-14" fill="#777777"></path>
                            <path d="M5.57229823,32.150106 C3.93449619,32.6893128 1.45892068,31.1699059 1.54234246,29.1306582 C2.42223711,31.2736527 3.81086785,31.8377588 5.57229823,32.150106 L5.57229823,32.150106 L5.57229823,32.150106 Z" id="Shape-Copy-15" fill="#777777"></path>
                            <path d="M4.11091275,32.8489446 C2.90088666,33.2470558 1.08639457,32.1249301 1.14793523,30.6185261 C1.7983516,32.2010111 2.80980649,32.618765 4.11091275,32.8489446 L4.11091275,32.8489446 L4.11091275,32.8489446 Z" id="Shape-Copy-16" fill="#777777"></path>
                            <path d="M2.39760852,3.2567293 C2.4124245,3.13514384 2.50719828,2.88404629 2.74062001,2.62136187 C2.84327535,2.50583723 2.96596912,2.39941698 3.11177735,2.30395064 C3.2388238,2.22074193 3.39280861,2.1564257 3.57032212,2.11139137 C3.90812536,2.0256923 4.28973717,2.01742013 4.63799115,2.05748754 C4.70688276,2.06541367 4.75251794,2.07264365 4.76914346,2.07588953 L5.05656832,0.603684734 C5.00306156,0.59323838 4.91906007,0.579930023 4.80943855,0.567317818 C4.29576071,0.508218021 3.74241967,0.520212759 3.2014643,0.657450547 C2.87093257,0.741304864 2.56453779,0.86927956 2.2900271,1.04906956 C2.03238978,1.21775477 1.80919838,1.41134313 1.61934593,1.62499625 C1.15777327,2.14443354 0.957344524,2.6754577 0.908622764,3.07528672 L2.39760852,3.2567293 Z" id="Shape-Copy-17" fill="#777777"></path>
                            <path d="M3.10864176,3.55410199 C3.12378753,3.49999763 3.18503016,3.36947039 3.29558514,3.23905443 C3.36482729,3.15737307 3.44444238,3.08906066 3.53576661,3.03627549 C3.59129154,3.00418222 3.65162264,2.97748561 3.7166959,2.95599876 C3.94649373,2.88012074 4.21585,2.8740809 4.46287407,2.91353414 C4.51257138,2.9214715 4.54315409,2.92818223 4.54922556,2.92982081 L4.94006396,1.48163389 C4.88535556,1.46686912 4.80380622,1.44897484 4.69944696,1.43230719 C4.2358698,1.35826737 3.73759935,1.3694402 3.24637966,1.53163834 C3.08603621,1.58458289 2.93178216,1.65284057 2.78513635,1.73760147 C2.53847623,1.88017038 2.32797921,2.06078385 2.15138447,2.26910349 C1.88184086,2.58707006 1.73270499,2.90492535 1.66417178,3.14974267 L3.10864176,3.55410199 Z" id="Shape-Copy-18" fill="#777777"></path>
                            <path d="M3.88744421,3.78122988 C3.8839375,3.79441528 3.90601249,3.75161423 3.96215115,3.69632515 C3.97734061,3.68136555 3.99404405,3.66687908 4.01244295,3.65292527 C3.99149612,3.66881145 3.99526673,3.66745633 4.0211701,3.66373369 C4.08894024,3.65399429 4.179765,3.65656053 4.26638994,3.66818083 C4.29278705,3.67172187 4.30856501,3.67456729 4.30929708,3.67472677 L4.62858816,2.20910295 C4.59012946,2.20072459 4.53489348,2.19076325 4.46582105,2.18149753 C4.25352395,2.15301894 4.03203912,2.14676092 3.80779383,2.17898773 C3.5496744,2.21608267 3.31213172,2.3014533 3.10602692,2.4577642 C3.03579663,2.51102719 2.97034518,2.56779159 2.90960853,2.62760908 C2.64095849,2.89219349 2.49805613,3.16926595 2.43783497,3.39570034 L3.88744421,3.78122988 Z" id="Shape-Copy-19" fill="#777777"></path>
                            <path d="M13.1361184,11.8042942 C13.5301777,11.7133096 13.9485724,11.7230708 14.337567,11.8332165 C14.7733794,11.9556541 15.1701564,12.2053498 15.4653921,12.5410892 C15.8295573,12.9498573 16.0354811,13.4879321 16.0364693,14.0293812 C16.0658693,14.3730742 16.0275752,14.7213466 15.9261574,15.0515425 C15.7915101,15.496343 15.5558157,15.9066778 15.2721918,16.2768829 C14.9975856,16.6356396 14.6765322,16.9589665 14.3306494,17.2527686 C14.1236138,17.4272663 13.90719,17.5914003 13.6801426,17.7404705 C13.8145428,17.5329532 13.9188018,17.2990443 13.9353547,17.0516383 C13.9467194,16.8838891 13.8974311,16.7091504 13.7811898,16.5826154 C13.6385132,16.424748 13.4293776,16.3446092 13.2245655,16.2960439 C13.0027064,16.2516964 12.7850473,16.1807163 12.5860412,16.074427 C12.1460288,15.8531716 11.7850754,15.4883894 11.5666751,15.0556399 C11.370016,14.6686839 11.2910806,14.2268962 11.3376513,13.7976415 C11.386569,13.3354876 11.5849575,12.8900846 11.8971167,12.5392815 C12.2173054,12.1754634 12.6573177,11.9135963 13.1361184,11.8042942 L13.1361184,11.8042942 Z M12.3525703,13.1500235 C12.2464584,13.1719563 12.1641877,13.270774 12.1654229,13.3768224 C12.16147,13.4954037 12.2637525,13.6061519 12.3855527,13.6125389 C12.4843763,13.6230232 12.5836941,13.5660222 12.6250765,13.4784119 C12.6707824,13.3867041 12.6453354,13.2669177 12.564547,13.2017221 C12.5075999,13.1529158 12.4263174,13.1327907 12.3525703,13.1500235 L12.3525703,13.1500235 Z M14.8848031,13.1507466 C14.7836323,13.1727998 14.7040793,13.2647486 14.7003734,13.3662175 C14.6896263,13.4957652 14.8078441,13.6184439 14.9416267,13.613262 C15.0843033,13.6188054 15.2063505,13.4785324 15.1794211,13.3421156 C15.162127,13.2107603 15.0157444,13.1154373 14.8848031,13.1507466 L14.8848031,13.1507466 Z M12.0700581,14.1580853 C12.0680816,14.5509462 12.2265701,14.9409148 12.5024116,15.2268838 C12.7323002,15.4670592 13.0411241,15.635411 13.372554,15.6963888 C13.6959544,15.757246 14.0386255,15.7192856 14.3386788,15.5860021 C14.5732615,15.4810383 14.7833853,15.3228094 14.9421208,15.1238482 C15.1629917,14.8513763 15.2846683,14.5052731 15.2841742,14.1580853 L12.0700581,14.1580853 L12.0700581,14.1580853 Z" id="Shape-Copy-20" fill="#FFFFFF"></path>
                        </g>
                    </g>
                </g>
            </g>
        </g>
    </g>
</svg>