<?xml version="1.0" encoding="UTF-8"?>
<svg width="27px" height="28px" viewBox="0 0 27 28" version="1.1" xmlns="http://www.w3.org/2000/svg" xmlns:xlink="http://www.w3.org/1999/xlink">
    <!-- Generator: Sketch 39.1 (31720) - http://www.bohemiancoding.com/sketch -->
    <title>cheaper icon</title>
    <desc>Created with Sketch.</desc>
    <defs></defs>
    <g id="NewHomepage" stroke="none" stroke-width="1" fill="none" fill-rule="evenodd">
        <g id="Homepage" transform="translate(-45.000000, -544.000000)" fill="#777777">
            <g id="Header-Cheaper-Icon" transform="translate(24.000000, 544.000000)">
                <g id="cheaper-icon" transform="translate(21.658333, 0.000000)">
                    <path d="M10.2743147,0.10612618 C12.9054485,-0.132191645 15.5788921,0.0226476202 18.1492058,0.654122535 C19.6300449,1.02439034 21.095018,1.55757598 22.3643087,2.43410087 C23.1443936,2.98613651 23.8848132,3.70378284 24.1704036,4.65301485 C24.4123621,5.4285576 24.225935,6.29565749 23.7711059,6.95136811 C23.0822512,7.97734655 22.0046763,8.64517503 20.9191683,9.1608571 C18.7547632,10.1558677 16.3801318,10.5880712 14.0213666,10.7294462 C10.8031858,10.8910176 7.49509689,10.5544105 4.50036412,9.2793428 C3.26677221,8.72192145 2.01466982,7.99081083 1.28482766,6.79248956 C0.796944045,6.01021467 0.746701287,4.97211838 1.1869865,4.1575292 C1.79915483,2.99825436 2.93754994,2.25502589 4.06801197,1.69087239 C6.01161337,0.760490378 8.14693055,0.317515437 10.2743147,0.10612618 L10.2743147,0.10612618 Z" id="Shape-Copy-225"></path>
                    <path d="M0.00615486163,11.6448722 C0.0484645519,10.022426 -0.0718536298,8.39324762 0.077552464,6.77484069 C0.0749081083,8.11453694 1.02819832,9.20649036 2.00132119,9.99280454 C4.02028673,11.553315 6.5258137,12.2965435 8.99696405,12.6977792 C11.7603157,13.1165184 14.5963871,13.0720863 17.3412283,12.5321685 C19.3086289,12.1295864 21.2654521,11.4806079 22.9432957,10.3347974 C24.1121009,9.50674389 25.3139605,8.31515477 25.3285045,6.76406926 C25.4633666,8.20070836 25.3615589,9.64811887 25.3985799,11.0901437 C25.332471,12.1619007 25.56253,13.2915541 25.1275335,14.309454 C24.5907293,15.5750966 23.495966,16.4852822 22.3575709,17.1733071 C20.4615679,18.2881499 18.3117068,18.8805783 16.156557,19.1996819 C13.4963352,19.5712961 10.773971,19.5214783 8.13490411,19.0098355 C6.36715236,18.6516855 4.61262239,18.1077284 3.04848603,17.176 C1.87968083,16.4704715 0.747896619,15.5252788 0.236213803,14.2044325 C-0.0943306528,13.3925362 0.0392093072,12.4985078 0.00615486163,11.6448722 L0.00615486163,11.6448722 Z" id="Shape-Copy-226"></path>
                    <path d="M0.0614655306,15.337276 C0.0812981979,16.5800294 0.895759736,17.6167793 1.78690759,18.3815506 C3.06280919,19.4586933 4.61107941,20.1413325 6.1857932,20.6247003 C8.46390559,21.318111 10.8530809,21.5766252 13.2250679,21.5389252 C15.8588461,21.4675645 18.5151014,21.0394003 20.9518751,19.9905326 C22.2647977,19.4102219 23.545988,18.6441042 24.4675459,17.5063722 C24.9593961,16.8910544 25.3415055,16.1437867 25.3362168,15.3318903 C25.4605015,17.3515329 25.360016,19.3806005 25.3943926,21.4042824 C25.4353801,22.4423787 24.9633626,23.43335 24.2877298,24.1860034 C23.3542722,25.2308319 22.1233247,25.9471318 20.8580005,26.4951281 C18.6975619,27.4066601 16.3639181,27.8402101 14.0355629,27.9694672 C11.396496,28.10411 8.72437462,27.8536744 6.18447102,27.0902495 C4.66793306,26.6216924 3.17783866,25.970021 1.92705844,24.9615462 C0.860060935,24.1106034 -0.0482752286,22.8516929 0.00593406213,21.4123609 C0.0389885077,19.3873326 -0.0575304733,17.3582651 0.0614655306,15.337276 L0.0614655306,15.337276 Z" id="Shape-Copy-227"></path>
                </g>
            </g>
        </g>
    </g>
</svg>