<?xml version="1.0" encoding="UTF-8"?>
<svg width="29px" height="24px" viewBox="0 0 29 24" version="1.1" xmlns="http://www.w3.org/2000/svg" xmlns:xlink="http://www.w3.org/1999/xlink">
    <!-- Generator: Sketch 39.1 (31720) - http://www.bohemiancoding.com/sketch -->
    <title>conference</title>
    <desc>Created with Sketch.</desc>
    <defs></defs>
    <g id="Page-1" stroke="none" stroke-width="1" fill="none" fill-rule="evenodd">
        <g id="Conference---Add-new" transform="translate(-655.000000, -24.000000)" fill="#777777">
            <g id="Group-14" transform="translate(655.400000, 24.000000)">
                <g id="conference">
                    <path d="M15.804,7.23315789 C16.2200348,6.79957895 16.4773565,6.20905263 16.4773565,5.55726316 C16.4773565,4.22557895 15.4064348,3.14621053 14.0863304,3.14621053 C12.7662261,3.14621053 11.6956174,4.22526316 11.6956174,5.55726316 C11.6956174,6.20905263 11.9538783,6.79989474 12.3696,7.23315789 C11.2373217,7.85021053 10.469113,9.05778947 10.469113,10.4463158 L17.704487,10.4463158 C17.7048,9.05778947 16.9369043,7.84989474 15.804,7.23315789 L15.804,7.23315789 Z" id="Shape"></path>
                    <path d="M8.33321739,12.2017895 L8.83033043,12.2017895 L8.83033043,17.0046316 C9.27391304,15.9821053 10.2822261,15.2658947 11.4567652,15.2658947 C12.6331826,15.2658947 13.6458783,15.9862105 14.0866435,17.0131579 C14.5286609,15.9862105 15.5404174,15.2658947 16.7177739,15.2658947 C17.8913739,15.2658947 18.899687,15.9821053 19.3432696,17.0046316 L19.3432696,12.2017895 L19.8403826,12.2017895 C20.1086609,12.2017895 20.3246609,11.9832632 20.3246609,11.7145263 C20.3246609,11.4457895 20.1089739,11.2275789 19.8403826,11.2275789 L8.33321739,11.2275789 C8.0661913,11.2275789 7.84987826,11.4457895 7.84987826,11.7145263 C7.84956522,11.9832632 8.0661913,12.2017895 8.33321739,12.2017895 L8.33321739,12.2017895 Z" id="Shape"></path>
                    <path d="M17.0092174,20.1167368 C17.3460522,19.3338947 17.9918609,18.7203158 18.785113,18.4174737 C18.7954435,18.3318947 18.8110957,18.2466316 18.8110957,18.1585263 C18.8110957,16.9923158 17.8738435,16.0465263 16.7174609,16.0465263 C15.5607652,16.0465263 14.622887,16.992 14.622887,18.1585263 C14.622887,18.1894737 14.6304,18.2182105 14.6322783,18.2485263 C15.7003826,18.4237895 16.5900522,19.1434737 17.0092174,20.1167368 L17.0092174,20.1167368 Z" id="Shape"></path>
                    <path d="M19.8910957,18.2046316 C21.1482783,18.2046316 22.2310957,18.9546316 22.7332174,20.0321053 C23.0071304,19.4437895 23.4591652,18.9590526 24.0145043,18.6350526 C24.0498783,18.4809474 24.0727304,18.3230526 24.0727304,18.1582105 C24.0727304,16.992 23.1354783,16.0462105 21.9781565,16.0462105 C20.8217739,16.0462105 19.8838957,16.9916842 19.8838957,18.1582105 C19.8838957,18.1749474 19.8892174,18.1897895 19.8892174,18.2043158 C19.8895304,18.2046316 19.8904696,18.2046316 19.8910957,18.2046316 L19.8910957,18.2046316 Z" id="Shape"></path>
                    <path d="M11.2451478,20.1167368 C11.6533565,19.17 12.5082783,18.4661053 13.5391304,18.2677895 C13.5406957,18.2314737 13.5504,18.1961053 13.5504,18.1585263 C13.5504,16.9923158 12.6131478,16.0465263 11.4567652,16.0465263 C10.2994435,16.0465263 9.3621913,16.992 9.3621913,18.1585263 C9.3621913,18.2355789 9.37596522,18.3085263 9.38473043,18.3830526 C10.2180522,18.6748421 10.8951652,19.3064211 11.2451478,20.1167368 L11.2451478,20.1167368 Z" id="Shape"></path>
                    <path d="M5.4813913,20.1167368 C5.95408696,19.0171579 7.0293913,18.2434737 8.28438261,18.2115789 C8.28438261,18.1929474 8.28970435,18.1771579 8.28970435,18.1585263 C8.28970435,16.9923158 7.35245217,16.0465263 6.19513043,16.0465263 C5.03874783,16.0465263 4.10149565,16.992 4.10149565,18.1585263 C4.10149565,18.3230526 4.12497391,18.4809474 4.1594087,18.6353684 C4.74166957,18.9738947 5.21092174,19.4895789 5.4813913,20.1167368 L5.4813913,20.1167368 Z" id="Shape"></path>
                    <path d="M4.89318261,21.3754737 C4.89318261,22.6534737 3.86671304,23.6902105 2.59857391,23.6902105 C1.33137391,23.6902105 0.303965217,22.6534737 0.303965217,21.3754737 C0.303965217,20.0955789 1.33137391,19.0601053 2.59857391,19.0601053 C3.86671304,19.0601053 4.89318261,20.0958947 4.89318261,21.3754737 L4.89318261,21.3754737 Z M8.36264348,19.0601053 C7.09606957,19.0601053 6.06866087,20.0955789 6.06866087,21.3754737 C6.06866087,22.6534737 7.09606957,23.6902105 8.36264348,23.6902105 C9.63078261,23.6902105 10.6581913,22.6534737 10.6581913,21.3754737 C10.6578783,20.0958947 9.63078261,19.0601053 8.36264348,19.0601053 L8.36264348,19.0601053 Z M14.1264,19.0601053 C12.8601391,19.0601053 11.8327304,20.0955789 11.8327304,21.3754737 C11.8327304,22.6534737 12.8601391,23.6902105 14.1264,23.6902105 C15.3945391,23.6902105 16.4219478,22.6534737 16.4219478,21.3754737 C16.4219478,20.0958947 15.3945391,19.0601053 14.1264,19.0601053 L14.1264,19.0601053 Z M19.8910957,19.0601053 C18.6238957,19.0601053 17.596487,20.0955789 17.596487,21.3754737 C17.596487,22.6534737 18.6238957,23.6902105 19.8910957,23.6902105 C21.1586087,23.6902105 22.1857043,22.6534737 22.1857043,21.3754737 C22.1857043,20.0958947 21.1586087,19.0601053 19.8910957,19.0601053 L19.8910957,19.0601053 Z M25.5744,19.0601053 C24.3081391,19.0601053 23.2810435,20.0955789 23.2810435,21.3754737 C23.2810435,22.6534737 24.3081391,23.6902105 25.5744,23.6902105 C26.8425391,23.6902105 27.8699478,22.6534737 27.8699478,21.3754737 C27.8699478,20.0958947 26.8425391,19.0601053 25.5744,19.0601053 L25.5744,19.0601053 Z" id="Shape"></path>
                    <path d="M18.0522783,3.49042105 C18.0522783,4.06452632 18.2047304,4.60263158 18.4698783,5.06778947 L17.7048,6.96852632 L19.5708522,6.20557895 C20.0479304,6.49926316 20.606087,6.67042105 21.2046261,6.67042105 C22.9457739,6.67042105 24.3566609,5.24715789 24.3566609,3.49073684 C24.3566609,1.73305263 22.9454609,0.309789474 21.204313,0.309789474 C19.4628522,0.309789474 18.0522783,1.73305263 18.0522783,3.49042105 Z" id="Shape"></path>
                </g>
            </g>
        </g>
    </g>
</svg>