<svg xmlns="http://www.w3.org/2000/svg" xmlns:xlink="http://www.w3.org/1999/xlink" width="29" height="24" version="1.1" style=""><rect id="backgroundrect" width="100%" height="100%" x="0" y="0" fill="none" stroke="none"/>
    <!-- Generator: Sketch 39.1 (31720) - http://www.bohemiancoding.com/sketch -->
    <title>conference</title>
    <desc>Created with Sketch.</desc>
    <defs/>
    
<g class="currentLayer" style=""><title>Layer 1</title><g id="Page-1" stroke="none" stroke-width="1" fill="#3190e6" fill-rule="evenodd" class="" fill-opacity="1">
        <g id="Conference---Add-new" fill="#3190e6" fill-opacity="1">
            <g id="Group-14" fill="#3190e6" fill-opacity="1">
                <g id="conference" fill="#3190e6" fill-opacity="1">
                    <path d="M16.204024414062474,7.233157890000001 C16.620059214062508,6.799578950000001 16.87738091406254,6.209052630000002 16.87738091406254,5.557263159999998 C16.87738091406254,4.225578949999999 15.806459214062443,3.146210530000001 14.486354814062452,3.146210530000001 C13.16625051406254,3.146210530000001 12.095641814062446,4.225263160000001 12.095641814062446,5.557263159999998 C12.095641814062446,6.209052630000002 12.353902714062542,6.799894739999999 12.769624414062491,7.233157890000001 C11.637346114062552,7.850210529999998 10.869137414062493,9.05778947 10.869137414062493,10.4463158 L18.104511414062472,10.4463158 C18.104824414062477,9.05778947 17.336928714062537,7.84989474 16.204024414062474,7.233157890000001 L16.204024414062474,7.233157890000001 z" id="Shape" fill="#3190e6" fill-opacity="1"/>
                    <path d="M8.733241804062459,12.2017895 L9.230354844062504,12.2017895 L9.230354844062504,17.0046316 C9.673937454062525,15.9821053 10.682250514062503,15.2658947 11.85678961406245,15.2658947 C13.033207014062555,15.2658947 14.04590271406255,15.9862105 14.486667914062537,17.0131579 C14.928685314062477,15.9862105 15.940441814062524,15.2658947 17.117798314062497,15.2658947 C18.291398314062462,15.2658947 19.29971141406247,15.9821053 19.743294014062485,17.0046316 L19.743294014062485,12.2017895 L20.240407014062498,12.2017895 C20.508685314062518,12.2017895 20.724685314062526,11.9832632 20.724685314062526,11.7145263 C20.724685314062526,11.4457895 20.508998314062524,11.2275789 20.240407014062498,11.2275789 L8.733241804062459,11.2275789 C8.466215714062514,11.2275789 8.249902674062469,11.4457895 8.249902674062469,11.7145263 C8.249589634062545,11.9832632 8.466215714062514,12.2017895 8.733241804062459,12.2017895 L8.733241804062459,12.2017895 z" id="Shape" fill="#3190e6" fill-opacity="1"/>
                    <path d="M17.40924181406251,20.1167368 C17.74607661406253,19.333894700000002 18.391885314062506,18.7203158 19.185137414062524,18.4174737 C19.195467914062533,18.3318947 19.21112011406251,18.2466316 19.21112011406251,18.1585263 C19.21112011406251,16.9923158 18.27386791406252,16.0465263 17.117485314062492,16.0465263 C15.960789614062492,16.0465263 15.022911414062492,16.992 15.022911414062492,18.1585263 C15.022911414062492,18.1894737 15.030424414062509,18.2182105 15.032302714062553,18.2485263 C16.10040701406251,18.4237895 16.990076614062446,19.1434737 17.40924181406251,20.1167368 L17.40924181406251,20.1167368 z" id="Shape" fill="#3190e6" fill-opacity="1"/>
                    <path d="M20.29112011406255,18.2046316 C21.548302714062515,18.2046316 22.63112011406247,18.9546316 23.133241814062558,20.0321053 C23.40715481406255,19.4437895 23.85918961406253,18.9590526 24.4145287140625,18.6350526 C24.449902714062546,18.4809474 24.472754814062455,18.3230526 24.472754814062455,18.1582105 C24.472754814062455,16.992 23.535502714062545,16.0462105 22.378180914062455,16.0462105 C21.22179831406254,16.0462105 20.28392011406254,16.9916842 20.28392011406254,18.1582105 C20.28392011406254,18.1749474 20.289241814062507,18.1897895 20.289241814062507,18.2043158 C20.289554814062512,18.2046316 20.29049401406246,18.2046316 20.29112011406255,18.2046316 L20.29112011406255,18.2046316 z" id="Shape" fill="#3190e6" fill-opacity="1"/>
                    <path d="M11.64517221406254,20.1167368 C12.053380914062473,19.17 12.908302714062529,18.4661053 13.939154814062476,18.2677895 C13.940720114062515,18.2314737 13.950424414062468,18.1961053 13.950424414062468,18.1585263 C13.950424414062468,16.9923158 13.013172214062479,16.0465263 11.85678961406245,16.0465263 C10.699467914062552,16.0465263 9.76221571406245,16.992 9.76221571406245,18.1585263 C9.76221571406245,18.2355789 9.775989634062512,18.3085263 9.78475484406249,18.3830526 C10.618076614062488,18.6748421 11.295189614062451,19.3064211 11.64517221406254,20.1167368 L11.64517221406254,20.1167368 z" id="Shape" fill="#3190e6" fill-opacity="1"/>
                    <path d="M5.881415714062541,20.1167368 C6.354111374062541,19.0171579 7.429415714062543,18.2434737 8.684407024062466,18.2115789 C8.684407024062466,18.1929474 8.689728764062465,18.1771579 8.689728764062465,18.1585263 C8.689728764062465,16.9923158 7.752476584062492,16.0465263 6.595154844062449,16.0465263 C5.438772244062534,16.0465263 4.501520064062447,16.992 4.501520064062447,18.1585263 C4.501520064062447,18.3230526 4.524998324062494,18.4809474 4.559433114062472,18.6353684 C5.141693984062499,18.9738947 5.610946154062503,19.4895789 5.881415714062541,20.1167368 L5.881415714062541,20.1167368 z" id="Shape" fill="#3190e6" fill-opacity="1"/>
                    <path d="M5.2932070240625535,21.3754737 C5.2932070240625535,22.6534737 4.266737454062536,23.6902105 2.9985983240625274,23.6902105 C1.7313983240625248,23.6902105 0.7039896310625409,22.6534737 0.7039896310625409,21.3754737 C0.7039896310625409,20.0955789 1.7313983240625248,19.0601053 2.9985983240625274,19.0601053 C4.266737454062536,19.0601053 5.2932070240625535,20.0958947 5.2932070240625535,21.3754737 L5.2932070240625535,21.3754737 zM8.762667894062474,19.0601053 C7.496093984062554,19.0601053 6.468685284062531,20.0955789 6.468685284062531,21.3754737 C6.468685284062531,22.6534737 7.496093984062554,23.6902105 8.762667894062474,23.6902105 C10.030807024062483,23.6902105 11.058215714062499,22.6534737 11.058215714062499,21.3754737 C11.057902714062493,20.0958947 10.030807024062483,19.0601053 8.762667894062474,19.0601053 L8.762667894062474,19.0601053 zM14.52642441406249,19.0601053 C13.26016351406247,19.0601053 12.232754814062446,20.0955789 12.232754814062446,21.3754737 C12.232754814062446,22.6534737 13.26016351406247,23.6902105 14.52642441406249,23.6902105 C15.794563514062474,23.6902105 16.821972214062498,22.6534737 16.821972214062498,21.3754737 C16.821972214062498,20.0958947 15.794563514062474,19.0601053 14.52642441406249,19.0601053 L14.52642441406249,19.0601053 zM20.29112011406255,19.0601053 C19.02392011406255,19.0601053 17.996511414062525,20.0955789 17.996511414062525,21.3754737 C17.996511414062525,22.6534737 19.02392011406255,23.6902105 20.29112011406255,23.6902105 C21.558633114062445,23.6902105 22.585728714062498,22.6534737 22.585728714062498,21.3754737 C22.585728714062498,20.0958947 21.558633114062445,19.0601053 20.29112011406255,19.0601053 L20.29112011406255,19.0601053 zM25.97442441406247,19.0601053 C24.70816351406245,19.0601053 23.68106791406251,20.0955789 23.68106791406251,21.3754737 C23.68106791406251,22.6534737 24.70816351406245,23.6902105 25.97442441406247,23.6902105 C27.242563514062454,23.6902105 28.269972214062477,22.6534737 28.269972214062477,21.3754737 C28.269972214062477,20.0958947 27.242563514062454,19.0601053 25.97442441406247,19.0601053 L25.97442441406247,19.0601053 z" id="Shape" fill="#3190e6" fill-opacity="1"/>
                    <path d="M18.45230271406251,3.490421050000002 C18.45230271406251,4.064526319999999 18.604754814062517,4.602631580000001 18.869902714062505,5.067789470000001 L18.104824414062477,6.968526319999999 L19.97087661406249,6.20557895 C20.44795481406254,6.499263159999998 21.006111414062502,6.670421050000002 21.60465051406254,6.670421050000002 C23.34579831406245,6.670421050000002 24.75668531406245,5.24715789 24.75668531406245,3.4907368400000003 C24.75668531406245,1.7330526299999995 23.345485314062444,0.3097894739999987 21.604337414062456,0.3097894739999987 C19.862876614062543,0.3097894739999987 18.45230271406251,1.7330526299999995 18.45230271406251,3.490421050000002 z" id="Shape" fill="#3190e6" fill-opacity="1"/>
                </g>
            </g>
        </g>
    </g></g></svg>