<?xml version="1.0" encoding="UTF-8"?>
<svg width="66px" height="65px" viewBox="0 0 66 65" version="1.1" xmlns="http://www.w3.org/2000/svg" xmlns:xlink="http://www.w3.org/1999/xlink">
    <!-- Generator: Sketch 39.1 (31720) - http://www.bohemiancoding.com/sketch -->
    <title>Contract icon</title>
    <desc>Created with Sketch.</desc>
    <defs></defs>
    <g id="NewHomepage" stroke="none" stroke-width="1" fill="none" fill-rule="evenodd">
        <g id="Pricing" transform="translate(-663.000000, -1236.000000)">
            <g id="Group" transform="translate(138.000000, 1236.000000)">
                <g id="Contract-icon" transform="translate(528.000000, 0.000000)">
                    <path d="M30.472833,64.4571457 C47.302514,64.4571457 60.945666,50.0279221 60.945666,32.2285728 C60.945666,14.4292236 47.302514,0 30.472833,0 C13.6431521,0 0,14.4292236 0,32.2285728 C0,50.0279221 13.6431521,64.4571457 30.472833,64.4571457 Z" id="Oval-24" fill="#3190E6"></path>
                    <g id="Pen-and-text" transform="translate(15.707646, 11.961120)" fill="#FFFFFF">
                        <path d="M10.9622478,0.085381722 C15.2210399,0.0879954482 19.4790077,0.085381722 23.7369756,0.0871242061 C24.6329127,0.0766693014 25.5346194,0.297964785 26.3217582,0.754495625 C28.0040099,1.69282332 29.1125982,3.65050424 29.0952893,5.66220215 C29.0886955,6.41756902 29.1076528,7.17293589 29.090344,7.92743151 C29.0985863,8.04417795 28.9889638,8.11213483 28.9296193,8.19403158 C28.1020932,9.05830371 27.2869306,9.93477322 26.4585803,10.7973029 C26.4511622,9.02955272 26.4651741,7.26093134 26.4528107,5.49318119 C26.4008842,4.10180762 25.2280061,2.89339488 23.9100637,2.87684129 C19.4847773,2.87422756 15.059491,2.8750988 10.6342046,2.87684129 C10.6276108,3.89445201 10.6416227,4.91293398 10.6259623,5.93141595 C10.5954659,6.9577391 10.3506698,8.05114789 9.64183271,8.79780233 C8.91403837,9.56885156 7.84501315,9.81889803 6.84769586,9.84067908 C5.47205739,9.85200523 4.09641893,9.84242156 2.72078046,9.84590653 C2.72160469,17.776823 2.71665931,25.7068683 2.72407737,33.6377847 C2.73314389,35.0587805 3.92827618,36.3177253 5.27259394,36.3264377 C11.4848091,36.3334077 17.6978485,36.3307939 23.9100637,36.3281802 C25.2214123,36.3107554 26.3918177,35.1110551 26.4511622,33.7257802 C26.4750648,29.3747973 26.4346776,25.0212007 26.4709437,20.6710891 C27.011638,20.0385674 27.6059073,19.4548352 28.1754496,18.849322 C28.4457968,19.1281194 28.75241,19.3668398 29.0862228,19.5558993 C29.1093012,24.1891646 29.0870471,28.8241723 29.097762,33.4583089 C29.1109497,34.761687 28.6897686,36.0685501 27.9001571,37.0730922 C27.1690658,38.0140336 26.144549,38.7031861 25.0186519,38.9715286 C24.4655942,39.1161548 23.8927549,39.1309659 23.3265095,39.1196398 C17.3368362,39.1196398 11.3471628,39.1187685 5.35748954,39.1196398 C4.30824582,39.1152836 3.25982633,38.7842116 2.39438571,38.1543036 C1.28909441,37.364087 0.482174059,36.1182109 0.205233061,34.736421 C0.0478052913,34.0315861 0.0840713743,33.3032278 0.0815986868,32.5853243 C0.082422916,25.2947708 0.0815986868,18.0050884 0.082422916,10.7154061 C0.0815986868,10.1290602 0.0387387705,9.52267573 0.243971831,8.96333832 C0.649492578,7.79064651 1.40778341,6.80352925 2.18173459,5.87914143 C3.70820699,4.12968737 5.45969396,2.59194513 7.39333557,1.36959252 C8.48626343,0.71441849 9.66655959,0.0304934721 10.9622478,0.085381722 Z" id="Shape"></path>
                        <path d="M39.4534313,10.2644571 C40.3493683,10.1180885 41.2774504,10.7192455 41.5791183,11.6183673 C41.8535866,12.3772191 41.650002,13.2833109 41.0985927,13.8443908 C36.8274371,18.3617808 32.553809,22.8774284 28.2826534,27.3939473 C27.6471728,28.058705 27.0265282,28.7382738 26.3786841,29.3899628 C25.1884972,30.5722383 23.8672578,31.6090164 22.4487595,32.4654473 C21.7976184,32.8496651 21.1275201,33.2155867 20.4054954,33.4281698 C20.2060319,33.4760881 19.9859627,33.54056 19.788972,33.4482084 C19.6562711,33.3044534 19.7147913,33.0892566 19.7378697,32.914137 C19.896946,32.1735812 20.231583,31.4922699 20.5645716,30.8257698 C21.5313924,28.9665392 22.7726815,27.2693597 24.2068402,25.7856344 C28.9197826,20.8056148 33.6302522,15.8229815 38.3431946,10.8420906 C38.6415655,10.5293147 39.0371955,10.3245728 39.4534313,10.2644571 L39.4534313,10.2644571 Z" id="Shape"></path>
                        <path d="M33.5832712,22.602618 C36.4375768,19.5907342 39.286937,16.5727517 42.1527818,13.5739365 C42.9003576,14.3484707 42.9135453,15.7372306 42.1601998,16.5117648 C40.2216128,18.5574411 38.2822016,20.6022462 36.337845,22.6418239 C35.596863,23.4093882 34.3094171,23.3780235 33.5832712,22.602618 L33.5832712,22.602618 Z" id="Shape"></path>
                        <path d="M4.99211281,12.8238119 C5.19322472,12.5772504 5.5262133,12.6373661 5.79903315,12.6303962 C11.3790646,12.6356236 16.9582718,12.6295249 22.5383032,12.6338811 C23.0163561,12.6007739 23.1630689,13.1871198 23.1927411,13.5852775 C22.8300803,13.9599115 22.494619,14.3667816 22.1064071,14.7109222 C16.9467325,14.7431582 11.7854095,14.7135359 6.62491077,14.7257333 C6.18806932,14.7152784 5.75040363,14.7414157 5.31521064,14.7117934 C5.01436699,14.6786862 4.8421031,14.3624254 4.77616477,14.0810142 C4.68055418,13.659333 4.71599604,13.1627251 4.99211281,12.8238119 L4.99211281,12.8238119 Z" id="Shape"></path>
                        <path d="M4.83468504,17.2732451 C4.92782293,16.9988039 5.18003706,16.7862208 5.46522035,16.815843 C10.355372,16.8132293 15.2463478,16.8132293 20.1364994,16.815843 C19.4746434,17.5076092 18.83669,18.2307401 18.1501071,18.8928841 C14.0058829,18.9268625 9.86001023,18.8937553 5.71496178,18.9094377 C5.46769303,18.9059527 5.17097053,18.9373174 4.99293704,18.7142795 C4.68055418,18.3222205 4.66489383,17.7358746 4.83468504,17.2732451 L4.83468504,17.2732451 Z" id="Shape"></path>
                        <path d="M5.24762385,21.019586 C5.48500184,20.9760239 5.72650099,20.9969337 5.96635167,20.9943199 C9.44707142,21.0021611 12.9286154,20.9890925 16.4101594,21.0012899 C15.9115007,21.6721463 15.437569,22.3639125 14.999079,23.0800734 C11.848051,23.100112 8.69702288,23.0809447 5.5459948,23.0896571 C5.3481798,23.096627 5.12728639,23.0704898 4.99128858,22.8997263 C4.7176445,22.5573282 4.67560881,22.0624627 4.77451631,21.6399103 C4.8363335,21.3776665 4.98304629,21.0945128 5.24762385,21.019586 L5.24762385,21.019586 Z" id="Shape"></path>
                        <path d="M4.77451631,25.8218722 C4.83798195,25.5108388 5.05228154,25.1710544 5.3877428,25.1823805 C8.22309111,25.1745394 11.0584394,25.1771531 13.894612,25.1815093 C13.6349798,25.846267 13.4248013,26.5406469 13.398426,27.2646491 C10.7814984,27.2785889 8.16374662,27.2655203 5.54681903,27.271619 C5.3481798,27.2777177 5.12728639,27.2524517 4.99046435,27.0825595 C4.71682027,26.7392901 4.68055418,26.2444246 4.77451631,25.8218722 L4.77451631,25.8218722 Z" id="Shape"></path>
                        <path d="M21.2253061,25.3688263 C21.3233894,25.2947708 21.4140546,25.1788956 21.545107,25.1815093 C21.9019983,25.1710544 22.2588895,25.1736681 22.6149565,25.184123 C22.8539829,25.1823805 23.0221257,25.4054185 23.0946578,25.6249715 C23.2372495,26.0466527 23.2306557,26.5354195 23.0452041,26.9422895 C22.9570116,27.1479026 22.7567239,27.2916576 22.5391274,27.2690053 C21.2821779,27.2698765 20.0260527,27.275104 18.7691032,27.2663915 C19.6155866,26.6756894 20.4530034,26.06582 21.2253061,25.3688263 L21.2253061,25.3688263 Z" id="Shape"></path>
                        <path d="M5.24762385,29.3835097 C5.34653135,29.3652137 5.44626307,29.3573725 5.54681903,29.359115 C11.0996509,29.3608575 16.6516585,29.3617287 22.2044904,29.359115 C22.4707164,29.3634712 22.8135957,29.3024842 22.9817385,29.5821529 C23.2562068,30.0351988 23.2595037,30.6459395 23.0419072,31.1251226 C22.9545389,31.3298645 22.7542512,31.471877 22.5383032,31.4518384 C16.8470008,31.4544521 11.1565227,31.4500959 5.46522035,31.4535809 C5.27070226,31.4631645 5.06876612,31.3873665 4.95254981,31.2157318 C4.71105066,30.8724624 4.68467533,30.4072192 4.77451631,30.0038341 C4.83550927,29.740719 4.98222206,29.4575653 5.24762385,29.3835097 L5.24762385,29.3835097 Z" id="Shape"></path>
                    </g>
                    <path d="M5.96890543,52.8282792 L54.3484547,12.9578798" id="Line" stroke="#F5FCFF" stroke-width="12" stroke-linecap="square"></path>
                </g>
            </g>
        </g>
    </g>
</svg>