<svg xmlns="http://www.w3.org/2000/svg" width="39" height="63" viewBox="0 0 39 63">
    <g fill="none" fill-rule="evenodd">
        <path fill="#FFF" d="M6.059 7.484l2.153-1.091c1.318-.668 2.883-.079 3.574 1.257l2.096 4.053c.691 1.336.099 3.018-1.219 3.686l-2.153 1.092c-1.317.667-2.883.079-3.574-1.257L4.84 11.17c-.691-1.337-.1-3.018 1.219-3.687z"/>
        <path fill="#FFF" d="M36.667 48.764c-2.936.778-7.906 1.869-10.756 2.226-8.123 1.02-10.17-2.11-11.703-15.104-1.617-13.704.345-16.617 7.573-17.524 2.819-.354 7.918-.517 11.243-.469l-.94-7.955c-3.217-.314-8.412-.605-12.703-.067-13.906 1.746-17.11 8.922-14.948 27.242 1.994 16.9 6.392 24.562 20.848 22.747 3.81-.479 9.068-1.885 12.345-2.97l-.959-8.126z"/>
        <path fill="#FFF" d="M29.458 19.843c.877-.11 1.681.54 1.788 1.444l1.232 10.44c.107.905-.523 1.734-1.4 1.845l-9.795 1.23c-.877.11-1.68-.54-1.787-1.444l-1.233-10.441c-.106-.904.523-1.734 1.4-1.844l9.795-1.23zM20.786 36.668l1.55-.194c.475-.06.91.292.969.782l.197 1.668c.058.49-.283.94-.758.999l-1.551.195a.878.878 0 0 1-.968-.782l-.197-1.67c-.058-.488.283-.938.758-.998zM25.615 36.062l1.551-.195c.475-.059.91.293.968.783l.197 1.668c.058.49-.283.94-.758.999l-1.55.194a.878.878 0 0 1-.969-.782l-.197-1.668c-.058-.49.283-.94.758-.999zM30.445 35.455l1.551-.194c.475-.06.91.292.968.782l.235 1.989a.573.573 0 0 1-.485.64l-1.862.233a.878.878 0 0 1-.968-.782l-.197-1.669c-.058-.49.283-.939.758-.999zM21.344 41.4l1.55-.196a.88.88 0 0 1 .97.783l.196 1.667c.058.491-.283.94-.758 1l-1.55.195a.878.878 0 0 1-.969-.782l-.197-1.67c-.058-.49.283-.939.758-.998zM26.174 40.792l1.55-.195a.879.879 0 0 1 .968.782l.197 1.67c.058.489-.283.938-.758.998l-1.55.194a.878.878 0 0 1-.969-.782l-.197-1.668c-.057-.49.284-.94.759-1zM31.003 40.186l1.551-.195c.475-.06.91.292.968.782l.197 1.669c.058.49-.283.939-.758.998l-1.55.195c-.475.06-.91-.292-.969-.782l-.197-1.669c-.057-.49.283-.939.758-.998zM21.902 46.13l1.551-.195c.475-.06.91.292.968.782l.197 1.668c.058.49-.283.94-.758.999l-1.55.194a.878.878 0 0 1-.969-.782l-.197-1.668c-.058-.49.283-.94.758-.999zM26.732 45.522l1.55-.195c.475-.06.91.293.969.783l.197 1.668c.057.49-.284.94-.759.999l-1.55.194c-.475.06-.91-.292-.969-.782l-.196-1.667c-.058-.49.283-.94.758-1zM31.562 44.916l1.55-.195c.475-.06.91.292.968.782l.197 1.669c.058.49-.283.939-.758.998l-1.55.195c-.475.06-.911-.292-.97-.782l-.196-1.669c-.057-.49.284-.938.759-.998zM28.81 2.887c3.63-1.217 9.119 2.216 8.934 6.827-1.95-4.844-5.03-6.12-8.934-6.827z"/>
        <path fill="#FFF" d="M32.05 1.308c2.682-.9 6.704 1.637 6.568 5.044-1.441-3.579-3.684-4.523-6.568-5.044zM9.687 61.353c-3.111 1.045-7.815-1.899-7.657-5.85 1.672 4.152 4.31 5.245 7.657 5.85z"/>
        <path fill="#FFF" d="M6.91 62.707c-2.298.772-5.746-1.402-5.629-4.321 1.236 3.066 3.158 3.875 5.63 4.321z"/>
        <path stroke="#FFF" stroke-width="2.911" d="M2.24 5.197s.203-1.692 1.992-2.886c1.717-1.147 4.202-.653 4.202-.653M3.634 5.557s.329-1.197 1.47-1.87c1.365-.804 3.01-.35 3.01-.35M5.109 6.015s.147-.564.754-1.033c.606-.469 1.728-.22 1.728-.22"/>
        <path fill="#3190E6" d="M24.059 21.933a4.532 4.532 0 0 1 2.282.056 4.477 4.477 0 0 1 2.143 1.372 4.435 4.435 0 0 1 1.085 2.883 5.337 5.337 0 0 1-.21 1.98c-.255.863-.703 1.658-1.242 2.375a12.251 12.251 0 0 1-1.789 1.89c-.393.339-.804.657-1.236.946.256-.402.454-.856.485-1.335a1.238 1.238 0 0 0-.293-.909c-.27-.306-.668-.46-1.057-.555a4.35 4.35 0 0 1-1.214-.43 4.442 4.442 0 0 1-2.372-4.411 4.431 4.431 0 0 1 1.064-2.438 4.474 4.474 0 0 1 2.354-1.424zm-1.49 2.608a.457.457 0 0 0-.355.44.459.459 0 1 0 .873.197.454.454 0 0 0-.114-.537.46.46 0 0 0-.403-.1zm4.812.001a.456.456 0 0 0-.35.418.457.457 0 0 0 .458.478.457.457 0 0 0 .452-.525.46.46 0 0 0-.56-.37zm-5.348 1.952a3.024 3.024 0 0 0 .822 2.07 3.063 3.063 0 0 0 4.635-.199c.42-.528.65-1.199.65-1.871h-6.107z"/>
    </g>
</svg>
