<?xml version="1.0" encoding="UTF-8"?>
<svg width="25px" height="24px" viewBox="0 0 25 24" version="1.1" xmlns="http://www.w3.org/2000/svg" xmlns:xlink="http://www.w3.org/1999/xlink">
    <!-- Generator: Sketch 39.1 (31720) - http://www.bohemiancoding.com/sketch -->
    <title>-g-Dashboard Icon</title>
    <desc>Created with Sketch.</desc>
    <defs></defs>
    <g id="Page-1" stroke="none" stroke-width="1" fill="none" fill-rule="evenodd">
        <g id="Dashboard" transform="translate(-288.000000, -156.000000)" fill="#3190E6">
            <g id="Dashboard-+-Dashboard-Icon" transform="translate(288.000000, 156.000000)">
                <path d="M5.98915128,1.61006711 C7.83160511,0.536912752 9.84143253,0 12.0186335,0 C14.1965067,0 16.2063342,0.536912752 18.0481158,1.61006711 C19.8898975,2.68456376 21.3485347,4.1409396 22.4240277,5.97986577 C23.4995206,7.81879195 24.0372671,9.82483221 24.0372671,12 C24.0372671,14.1744966 23.4995206,16.1812081 22.4240277,18.0194631 C21.3485347,19.8590604 19.8898975,21.3154362 18.0481158,22.3885906 C16.2063342,23.4630872 14.1965067,24 12.0186335,24 C9.84143253,24 7.83160511,23.4630872 5.98915128,22.3885906 C4.14736963,21.3154362 2.68873234,19.8590604 1.61391158,18.0194631 C0.537746467,16.1812081 0,14.1744966 0,12 C0,9.82483221 0.537746467,7.81879195 1.61391158,5.97986577 C2.68873234,4.1409396 4.14736963,2.68456376 5.98915128,1.61006711 C5.98915128,1.61006711 4.14736963,2.68456376 5.98915128,1.61006711 L5.98915128,1.61006711 L5.98915128,1.61006711 Z M17.9170401,6.11006711 C16.2836352,4.47986577 14.3174997,3.66442953 12.0186335,3.66442953 C9.71976739,3.66442953 7.75363187,4.47986577 6.12089916,6.11006711 C4.48682209,7.74161074 3.67011964,9.70469799 3.67011964,12 C3.67011964,14.3087248 4.48682209,16.2751678 6.12089916,17.8993289 C7.75363187,19.5234899 9.71976739,20.3355705 12.0186335,20.3355705 C14.3174997,20.3355705 16.2836352,19.5234899 17.9170401,17.8993289 C19.550445,16.2751678 20.3671474,14.3087248 20.3671474,12 C20.3671474,9.70469799 19.550445,7.74161074 17.9170401,6.11006711 C17.9170401,6.11006711 19.550445,7.74161074 17.9170401,6.11006711 L17.9170401,6.11006711 L17.9170401,6.11006711 Z M6.18139564,10.0369128 C6.38910021,9.82818792 6.6478907,9.72483221 6.95709492,9.72483221 C7.26697132,9.72483221 7.52845054,9.83221477 7.74354913,10.0469799 C7.95864771,10.261745 8.06619701,10.5167785 8.06619701,10.8114094 C8.06619701,11.1208054 7.95864771,11.3825503 7.74354913,11.5966443 C7.52845054,11.8114094 7.26697132,11.9194631 6.95709492,11.9194631 C6.66133436,11.9194631 6.40590479,11.8114094 6.1908062,11.5966443 C5.97570762,11.3825503 5.86883051,11.1208054 5.86883051,10.8114094 C5.86883051,10.5033557 5.9723467,10.2442953 6.18139564,10.0369128 C6.18139564,10.0369128 5.9723467,10.2442953 6.18139564,10.0369128 L6.18139564,10.0369128 L6.18139564,10.0369128 Z M9.17597128,5.77785235 C9.47105965,5.77785235 9.72648922,5.88590604 9.94158781,6.10067114 C10.1566864,6.31543624 10.2642357,6.57718121 10.2642357,6.88590604 C10.2642357,7.19463087 10.1566864,7.45637584 9.94158781,7.6704698 C9.72648922,7.88590604 9.47105965,7.99328859 9.17597128,7.99328859 C8.86609488,7.99328859 8.60394347,7.88255034 8.38951707,7.66107383 C8.1737463,7.43959732 8.06619701,7.18120805 8.06619701,6.88590604 C8.06619701,6.59060403 8.1737463,6.33154362 8.38951707,6.11006711 C8.60394347,5.8885906 8.86609488,5.77785235 9.17597128,5.77785235 C9.17597128,5.77785235 8.86609488,5.77785235 9.17597128,5.77785235 L9.17597128,5.77785235 L9.17597128,5.77785235 Z M14.2778409,7.46979866 L14.2973342,7.44899329 C14.1763412,7.26174497 14.1158448,7.0738255 14.1158448,6.88590604 C14.1158448,6.59060403 14.2233941,6.33154362 14.4391648,6.11006711 C14.6535912,5.8885906 14.9157426,5.77785235 15.225619,5.77785235 C15.5207074,5.77785235 15.776137,5.88590604 15.9912356,6.10067114 C16.2063342,6.31543624 16.3138834,6.57718121 16.3138834,6.88590604 C16.3138834,7.19463087 16.2063342,7.45637584 15.9912356,7.6704698 C15.776137,7.88590604 15.5207074,7.99328859 15.225619,7.99328859 C15.0360634,7.99328859 14.8418025,7.92550336 14.6401476,7.79127517 L13.5310455,10.7114094 C13.7595877,11.0067114 13.874531,11.3489933 13.874531,11.738255 C13.874531,12.2214765 13.7024522,12.6342282 13.3596388,12.9765101 C13.0174976,13.3187919 12.6034328,13.4892617 12.119461,13.4892617 C11.6361614,13.4892617 11.2227688,13.3187919 10.8799554,12.9765101 C10.5364698,12.6342282 10.3650632,12.2214765 10.3650632,11.738255 C10.3650632,11.3080537 10.5028607,10.9295302 10.7784558,10.6006711 C11.054723,10.2711409 11.4002251,10.0738255 11.8169786,10.0067114 L14.2778409,7.46979866 L14.2778409,7.46979866 L14.2778409,7.46979866 L14.2778409,7.46979866 Z M16.4557141,10.0469799 C16.6701405,9.83221477 16.9322919,9.72483221 17.2421683,9.72483221 C17.5507003,9.72483221 17.8088186,9.82818792 18.0178676,10.0369128 C18.2269165,10.2442953 18.3304327,10.5033557 18.3304327,10.8114094 C18.3304327,11.1208054 18.2228834,11.3825503 18.0077848,11.5966443 C17.7926862,11.8114094 17.5372567,11.9194631 17.2421683,11.9194631 C16.9322919,11.9194631 16.6701405,11.8114094 16.4557141,11.5966443 C16.2399433,11.3825503 16.132394,11.1208054 16.132394,10.8114094 C16.132394,10.5167785 16.2399433,10.261745 16.4557141,10.0469799 L16.4557141,10.0469799 Z" id="-g-Dashboard-Icon"></path>
            </g>
        </g>
    </g>
</svg>