<svg width="65" height="65" viewBox="0 0 65 65" xmlns="http://www.w3.org/2000/svg"><title>9CB77FF3-BEE4-4318-8769-78FE46661E98</title><path d="M65 65H0v-7.746l21.667-13.92v-5.417c-1.336 0-2.571-1.345-3.709-4.036-1.14-2.69-1.708-4.956-1.708-6.798V16.25c0-4.476 1.589-8.306 4.768-11.483C24.196 1.589 28.022 0 32.5 0s8.306 1.589 11.483 4.767c3.178 3.177 4.767 7.007 4.767 11.483v10.833c0 1.842-.567 4.108-1.706 6.798-1.138 2.69-2.373 4.036-3.71 4.036v5.416L65 57.254V65z" fill="#FFF" fill-rule="evenodd"/></svg>