<?xml version="1.0" encoding="UTF-8"?>
<svg width="14px" height="15px" viewBox="0 0 14 15" version="1.1" xmlns="http://www.w3.org/2000/svg" xmlns:xlink="http://www.w3.org/1999/xlink">
    <!-- Generator: Sketch 39.1 (31720) - http://www.bohemiancoding.com/sketch -->
    <title>-g-Draft Icon</title>
    <desc>Created with Sketch.</desc>
    <defs></defs>
    <g id="NewBackend" stroke="none" stroke-width="1" fill="none" fill-rule="evenodd">
        <g id="Messages---Overview" transform="translate(-924.000000, -441.000000)" fill="#777777">
            <path d="M938,443.727273 L938,455.318182 C938,455.509091 937.936364,455.670455 937.809091,455.801818 C937.681818,455.934545 937.533758,456 937.363636,456 L935.454545,456 L935.454545,450.545455 L926.545455,450.545455 L926.545455,456 L924.636364,456 C924.458182,456 924.307576,455.934545 924.18497,455.801818 C924.061515,455.670455 924,455.509091 924,455.318182 L924,441.681818 C924,441.5 924.061515,441.340909 924.18497,441.204091 C924.307576,441.068182 924.458182,441 924.636364,441 L927.818182,441 L927.818182,445.090909 L934.181818,445.090909 L934.181818,441 L935.454545,441 L938,443.727273 L938,443.727273 L938,443.727273 L938,443.727273 Z M931.636364,443.727273 L932.909091,443.727273 L932.909091,441 L931.636364,441 L931.636364,441 L931.636364,443.727273 L931.636364,443.727273 Z" id="-g-Draft-Icon"></path>
        </g>
    </g>
</svg>