<?xml version="1.0" encoding="UTF-8"?>
<svg width="24px" height="24px" viewBox="0 0 24 24" version="1.1" xmlns="http://www.w3.org/2000/svg" xmlns:xlink="http://www.w3.org/1999/xlink">
    <!-- Generator: Sketch 39.1 (31720) - http://www.bohemiancoding.com/sketch -->
    <title>Esclamation point</title>
    <desc>Created with Sketch.</desc>
    <defs>
        <linearGradient x1="50%" y1="0%" x2="50%" y2="100%" id="linearGradient-1">
            <stop stop-color="#FAD778" offset="0%"></stop>
            <stop stop-color="#F2AE43" offset="100%"></stop>
        </linearGradient>
    </defs>
    <g id="Page-1" stroke="none" stroke-width="1" fill="none" fill-rule="evenodd">
        <g id="API" transform="translate(-865.000000, -29.000000)" fill="url(#linearGradient-1)">
            <path d="M872.269818,29.9464 C873.734215,29.3154 875.277554,29 876.90043,29 C878.522711,29 880.066645,29.3154 881.53124,29.9464 C882.99524,30.5774 884.260298,31.43 885.326017,32.5046 C886.391339,33.5788 887.237289,34.8542 887.862876,36.3312 C888.488066,37.8076 888.80086,39.364 888.80086,41 C888.80086,42.6364 888.488066,44.1924 887.862876,45.6688 C887.237289,47.1456 886.391339,48.4212 885.326017,49.4954 C884.260298,50.5704 882.99524,51.423 881.53124,52.0536 C880.066645,52.6848 878.522711,53 876.90043,53 C875.277554,53 873.734215,52.6848 872.269818,52.0536 C870.80562,51.423 869.540562,50.5704 868.475041,49.4954 C867.409719,48.4212 866.563769,47.1456 865.937785,45.6688 C865.312198,44.1924 865,42.6364 865,41 C865,39.364 865.312198,37.8076 865.937785,36.3312 C866.563769,34.8542 867.409719,33.5788 868.475041,32.5046 C869.540562,31.43 870.80562,30.5774 872.269818,29.9464 C872.269818,29.9464 870.80562,30.5774 872.269818,29.9464 L872.269818,29.9464 L872.269818,29.9464 Z M878.674248,42.0606 L879.870876,35.78 C879.925223,35.5028 879.870876,35.2634 879.705653,35.0624 C879.540231,34.8618 879.313521,34.7608 879.024727,34.7608 L874.755504,34.7608 C874.480198,34.7608 874.26043,34.8618 874.095207,35.0624 C873.930182,35.2634 873.87524,35.5028 873.930182,35.78 L875.12681,42.0606 C875.181554,42.338 875.329322,42.5774 875.570512,42.7782 C875.810909,42.9792 876.06876,43.0796 876.343868,43.0796 L877.456992,43.0796 C877.732298,43.0796 877.990149,42.9792 878.230744,42.7782 C878.471537,42.5774 878.619306,42.338 878.674248,42.0606 C878.674248,42.0606 878.619306,42.338 878.674248,42.0606 L878.674248,42.0606 L878.674248,42.0606 Z M874.837818,47.2392 L878.962843,47.2392 L878.962843,45.1594 L874.837818,45.1594 L874.837818,45.1594 L874.837818,47.2392 L874.837818,47.2392 Z" id="Esclamation-point"></path>
        </g>
    </g>
</svg>