<?xml version="1.0" encoding="UTF-8"?>
<svg width="22px" height="23px" viewBox="0 0 22 23" version="1.1" xmlns="http://www.w3.org/2000/svg" xmlns:xlink="http://www.w3.org/1999/xlink">
    <!-- Generator: Sketch 39.1 (31720) - http://www.bohemiancoding.com/sketch -->
    <title>Fill 46</title>
    <desc>Created with Sketch.</desc>
    <defs></defs>
    <g id="NewBackend" stroke="none" stroke-width="1" fill="none" fill-rule="evenodd">
        <g id="Compose-new:-Templates" transform="translate(-58.000000, -2181.000000)" fill="#777777">
            <path d="M80,2194.81265 L70.825433,2203.97932 L58,2191.14598 L58,2182.43765 C58,2182.31543 58.0458728,2182.20848 58.1370069,2182.11682 C58.2293642,2182.02515 58.3357892,2181.97932 58.4587283,2181.97932 L67.1556062,2181.97932 L80,2194.81265 L80,2194.81265 L80,2194.81265 L80,2194.81265 Z M63.8527621,2187.80932 C64.207512,2187.45487 64.384887,2187.02098 64.384887,2186.50765 C64.384887,2185.99432 64.207512,2185.56043 63.8527621,2185.20598 C63.4857794,2184.83932 63.04907,2184.65598 62.540799,2184.65598 C62.0331396,2184.65598 61.5958186,2184.83932 61.2288359,2185.20598 C60.874086,2185.56043 60.6973227,2185.99432 60.6973227,2186.50765 C60.6973227,2187.02098 60.874086,2187.45487 61.2288359,2187.80932 C61.5958186,2188.17598 62.0331396,2188.35932 62.540799,2188.35932 C63.04907,2188.35932 63.4857794,2188.17598 63.8527621,2187.80932 L63.8527621,2187.80932 Z" id="Fill-46"></path>
        </g>
    </g>
</svg>