<?xml version="1.0" encoding="UTF-8"?>
<svg width="245px" height="57px" viewBox="0 0 245 57" version="1.1" xmlns="http://www.w3.org/2000/svg" xmlns:xlink="http://www.w3.org/1999/xlink">
    <!-- Generator: Sketch 39.1 (31720) - http://www.bohemiancoding.com/sketch -->
    <title>Fill 97</title>
    <desc>Created with Sketch.</desc>
    <defs></defs>
    <g id="NewBackend" stroke="none" stroke-width="1" fill="none" fill-rule="evenodd">
        <g id="Live-Transfer-Popup" transform="translate(-328.000000, -505.000000)" fill="#3190E6">
            <g id="Live-transfer-explication-graph" transform="translate(202.000000, 474.000000)">
                <g id="message-delivery-arrow" transform="translate(126.305630, 31.330855)">
                    <path d="M122.278596,55.9479554 L122.278596,37.25724 C109.405132,37.3421037 97.0059534,37.7540032 85.0810605,38.499148 C73.1561676,39.2442928 61.6378051,40.3226829 50.525973,41.7281088 C39.414141,43.1356045 29.4541452,45.0502127 20.6459857,47.4719333 C11.8378261,49.8936539 5.06231878,52.6982961 0.319463636,55.88586 C1.13252452,50.4214648 3.91048253,45.4848805 8.66011318,41.0761071 C13.3961928,36.6673337 20.4088429,32.6725296 29.691288,29.0916949 C38.973733,25.5108602 51.4406665,22.6544718 67.098864,20.5225297 C82.7435105,18.3905876 101.139013,17.1610987 122.278596,16.8278534 L122.278596,0 L244.237728,28.1292162 L122.278596,55.9479554" id="Fill-97"></path>
                </g>
            </g>
        </g>
    </g>
</svg>