<?xml version="1.0" encoding="UTF-8"?>
<svg width="24px" height="25px" viewBox="0 0 24 25" version="1.1" xmlns="http://www.w3.org/2000/svg" xmlns:xlink="http://www.w3.org/1999/xlink">
    <!-- Generator: Sketch 39.1 (31720) - http://www.bohemiancoding.com/sketch -->
    <title>-g-Fill 113</title>
    <desc>Created with Sketch.</desc>
    <defs></defs>
    <g id="NewBackend" stroke="none" stroke-width="1" fill="none" fill-rule="evenodd">
        <g id="Financials---price-calculator-and-bank-transfer" transform="translate(-363.000000, -1925.000000)" fill="#FFFFFF">
            <g id="Group" transform="translate(363.000000, 1925.000000)">
                <path d="M22.9807042,0 C23.2518369,0 23.4903521,0.0985319309 23.6935317,0.295595793 C23.8973909,0.492659654 24,0.733893002 24,1.01929584 C24,1.30401914 23.8973909,1.54593202 23.6935317,1.74231635 C23.4903521,1.94005974 23.2518369,2.03859167 22.9807042,2.03859167 L21.8798647,2.03859167 L17.7816159,21.6294576 C17.7544346,21.6838201 17.7143423,21.7551708 17.6599799,21.8435098 C17.6049379,21.9318487 17.4765066,22.0507666 17.2719679,22.1995838 C17.0681088,22.34976 16.8438637,22.4245084 16.5992327,22.4245084 L15.9672693,22.4245084 L15.9672693,23.4438042 C15.9672693,23.7156165 15.8687373,23.9534522 15.6716735,24.1566318 C15.4752892,24.360491 15.2333763,24.4631001 14.9479734,24.4631001 C14.6625706,24.4631001 14.4213373,24.360491 14.2249529,24.1566318 C14.0272095,23.9534522 13.9286776,23.7156165 13.9286776,23.4438042 L13.9286776,22.4245084 L7.81290259,22.4245084 L7.81290259,23.4438042 C7.81290259,23.7156165 7.71437066,23.9534522 7.51730679,24.1566318 C7.32092246,24.360491 7.07900958,24.4631001 6.79360675,24.4631001 C6.50820392,24.4631001 6.26697057,24.360491 6.07058624,24.1566318 C5.87284284,23.9534522 5.77431091,23.7156165 5.77431091,23.4438042 L5.77431091,22.4245084 L4.75501508,22.4245084 C4.46961224,22.4245084 4.22837889,22.3218993 4.03199456,22.1180401 C3.83425117,21.9148605 3.73571924,21.6770248 3.73571924,21.4052126 C3.73571924,21.1198097 3.83425117,20.8785764 4.03199456,20.6815125 C4.22837889,20.4844487 4.46961224,20.3859167 4.75501508,20.3859167 L15.6614805,20.3859167 L16.6406841,16.3087334 L3.73571924,16.3087334 C3.30081968,16.3087334 2.93047553,16.166032 2.62536631,15.8806291 C2.31889803,15.5952263 2.13202712,15.3030282 2.06407407,15.0040347 L0.0254823959,5.32072427 C-0.0424706599,4.9945496 0.0254823959,4.70914676 0.229341563,4.46383623 C0.418930589,4.20629415 0.684627037,4.07718335 1.02439232,4.07718335 L19.2908532,4.07718335 L20.0648385,0.774664836 C20.1327916,0.543624446 20.2585047,0.356074012 20.441978,0.213372595 C20.6261308,0.0713507086 20.8333876,0 21.0637485,0 L22.9807042,0 Z" id="-g-Fill-113"></path>
            </g>
        </g>
    </g>
</svg>