<?xml version="1.0" encoding="UTF-8"?>
<svg width="184px" height="99px" viewBox="0 0 184 99" version="1.1" xmlns="http://www.w3.org/2000/svg" xmlns:xlink="http://www.w3.org/1999/xlink">
    <!-- Generator: Sketch 42 (36781) - http://www.bohemiancoding.com/sketch -->
    <title>Group 4</title>
    <desc>Created with Sketch.</desc>
    <defs>
        <rect id="path-1" x="43" y="310" width="940" height="350" rx="4"></rect>
        <mask id="mask-2" maskContentUnits="userSpaceOnUse" maskUnits="objectBoundingBox" x="0" y="0" width="940" height="350" fill="white">
            <use xlink:href="#path-1"></use>
        </mask>
        <rect id="path-3" x="0" y="0" width="70" height="70" rx="0.8"></rect>
        <mask id="mask-4" maskContentUnits="userSpaceOnUse" maskUnits="objectBoundingBox" x="0" y="0" width="70" height="70" fill="white">
            <use xlink:href="#path-3"></use>
        </mask>
        <rect id="path-5" x="11" y="9" width="48" height="43" rx="0.24"></rect>
        <mask id="mask-6" maskContentUnits="userSpaceOnUse" maskUnits="objectBoundingBox" x="0" y="0" width="48" height="43" fill="white">
            <use xlink:href="#path-5"></use>
        </mask>
        <rect id="path-7" x="0" y="0" width="70" height="70" rx="0.8"></rect>
        <mask id="mask-8" maskContentUnits="userSpaceOnUse" maskUnits="objectBoundingBox" x="0" y="0" width="70" height="70" fill="white">
            <use xlink:href="#path-7"></use>
        </mask>
        <rect id="path-9" x="11" y="9" width="48" height="43" rx="0.24"></rect>
        <mask id="mask-10" maskContentUnits="userSpaceOnUse" maskUnits="objectBoundingBox" x="0" y="0" width="48" height="43" fill="white">
            <use xlink:href="#path-9"></use>
        </mask>
        <rect id="path-11" x="0" y="0" width="70" height="70" rx="0.8"></rect>
        <mask id="mask-12" maskContentUnits="userSpaceOnUse" maskUnits="objectBoundingBox" x="0" y="0" width="70" height="70" fill="white">
            <use xlink:href="#path-11"></use>
        </mask>
        <rect id="path-13" x="11" y="9" width="48" height="43" rx="0.24"></rect>
        <mask id="mask-14" maskContentUnits="userSpaceOnUse" maskUnits="objectBoundingBox" x="0" y="0" width="48" height="43" fill="white">
            <use xlink:href="#path-13"></use>
        </mask>
    </defs>
    <g id="Page-1" stroke="none" stroke-width="1" fill="none" fill-rule="evenodd">
        <g id="ClickToCall---First-Creation" transform="translate(-421.000000, -340.000000)">
            <use id="Rectangle-43-Copy" stroke="#D8D8D8" mask="url(#mask-2)" stroke-width="2" xlink:href="#path-1"></use>
            <g id="Group-4" transform="translate(421.000000, 340.000000)">
                <g id="Group" transform="translate(45.970449, 46.459640) rotate(-23.000000) translate(-45.970449, -46.459640) translate(10.970449, 11.459640)">
                    <use id="Rectangle-43-Copy" stroke="#186DFA" mask="url(#mask-4)" xlink:href="#path-3"></use>
                    <use id="Rectangle-43-Copy" stroke="#4D97FA" mask="url(#mask-6)" xlink:href="#path-5"></use>
                    <g id="Send-a-new-message-icon" transform="translate(25.000000, 17.000000)">
                        <g id="Phone-Icon-Copy">
                            <path d="M2.3266182,2.73390677 L3.2783539,2.26709903 C3.86092734,1.98142003 4.55261843,2.23339533 4.85814788,2.80475333 L5.78484395,4.53831585 C6.09037339,5.10967384 5.82849101,5.82937398 5.24591758,6.11505298 L4.29418187,6.58186072 C3.71183816,6.86731044 3.01991734,6.6157937 2.7143879,6.04420642 L1.78769183,4.31087318 C1.48216238,3.73905663 1.74381504,3.01981504 2.3266182,2.73390677 L2.3266182,2.73390677 L2.3266182,2.73390677 Z" id="Shape-Copy-35" fill="#8EBBF6"></path>
                            <path d="M15.8569781,20.3907489 C14.5590523,20.7234297 12.361997,21.1900081 11.1022049,21.3427065 C7.51142989,21.7792497 6.60678707,20.4402727 5.92887926,14.8823718 C5.21398631,9.02044966 6.08118454,7.77478835 9.2763793,7.38662258 C10.5226178,7.23507056 12.7764143,7.16559967 14.2464015,7.18623458 L13.831295,3.78353635 C12.4088601,3.64918009 10.1123354,3.52468274 8.21575566,3.75487673 C2.06864108,4.50163155 0.651949294,7.57119047 1.60781998,15.4071865 C2.48949066,22.6355989 4.43339303,25.9131119 10.8237826,25.1367804 C12.5076403,24.9320362 14.8319613,24.3306429 16.2808141,23.8668157 L15.8569781,20.3907489 L15.8569781,20.3907489 Z" id="Shape-Copy-36" fill="#8EBBF6"></path>
                            <path d="M12.6702831,8.02011461 C13.057823,7.97288357 13.413202,8.25076716 13.4605246,8.63755726 L14.005194,13.1036417 C14.0522869,13.4904318 13.7738646,13.8451231 13.3865543,13.8923542 L9.05630621,14.4183153 C8.66876623,14.4655464 8.31338725,14.1876628 8.26629437,13.8008727 L7.72139524,9.33478827 C7.67430235,8.94822744 7.95249495,8.59330682 8.34003493,8.54630506 L12.6702831,8.02011461 Z" id="Shape-Copy-37" fill="#8EBBF6"></path>
                            <path d="M10.5346784,9.05140203 C10.8685242,8.97555413 11.2229869,8.98369146 11.552542,9.07551262 C11.9217609,9.17758078 12.2579091,9.38573553 12.5080319,9.66561929 C12.8165515,10.0063823 12.9910095,10.4549397 12.9918467,10.90631 C13.0167544,11.1928242 12.9843117,11.4831559 12.8983908,11.7584184 C12.7843181,12.1292192 12.5846385,12.4712882 12.3443532,12.7799037 C12.1117076,13.0789755 11.8397122,13.3485118 11.5466814,13.5934352 C11.3712815,13.7389024 11.1879279,13.87573 10.995574,14 C11.1094375,13.8270065 11.1977653,13.6320121 11.2117889,13.4257661 C11.2214171,13.2859247 11.1796602,13.1402566 11.0811809,13.0347727 C10.9603057,12.9031691 10.7831267,12.8363627 10.6096105,12.795877 C10.4216522,12.7589074 10.237252,12.699736 10.0686546,12.6111296 C9.69587753,12.4266836 9.3900789,12.1225888 9.20505084,11.7618341 C9.03844187,11.4392545 8.97156804,11.0709653 9.01102256,10.7131239 C9.05246549,10.3278568 9.22053962,9.95655373 9.48499997,9.66411238 C9.75626282,9.36082126 10.1290399,9.14251997 10.5346784,9.05140203 L10.5346784,9.05140203 Z M9.87085881,10.1732477 C9.78096113,10.1915315 9.71126165,10.2739094 9.71230819,10.3623149 C9.70895926,10.4611683 9.79561268,10.5534917 9.8988014,10.5588162 C9.9825245,10.5675562 10.0666662,10.5200383 10.1017253,10.4470033 C10.1404472,10.3705526 10.1188885,10.2706946 10.0504449,10.2163453 C10.0021994,10.1756587 9.93333718,10.1588818 9.87085881,10.1732477 L9.87085881,10.1732477 Z M12.0161586,10.1738504 C11.9304471,10.1922347 11.86305,10.2688863 11.8599104,10.3534743 C11.8508055,10.4614697 11.9509593,10.5637387 12.0642994,10.5594189 C12.1851747,10.5640401 12.2885727,10.4471038 12.2657581,10.3333821 C12.2511066,10.2238799 12.1270918,10.1444154 12.0161586,10.1738504 L12.0161586,10.1738504 Z M9.6315154,11.0136021 C9.62984093,11.3411043 9.76411186,11.6661954 9.99780397,11.9045889 C10.1925648,12.1048072 10.4541995,12.245151 10.7349859,12.2959841 C11.0089697,12.3467168 11.2992796,12.3150717 11.5534839,12.203962 C11.7522216,12.1164607 11.9302378,11.9845557 12.064718,11.8186949 C12.2518392,11.5915531 12.3549232,11.3030297 12.3545046,11.0136021 L9.6315154,11.0136021 L9.6315154,11.0136021 Z" id="Shape" fill="#FFFFFF"></path>
                            <path d="M8.83646285,15.2168867 L9.52195146,15.1336592 C9.73191681,15.1082095 9.92442333,15.2586151 9.95015213,15.4681742 L10.0372165,16.1819131 C10.0627156,16.3912429 9.91201838,16.5836062 9.70205303,16.609056 L9.01656441,16.6922835 C8.80659907,16.7177332 8.61409254,16.5673276 8.58859347,16.3577685 L8.50152907,15.6440296 C8.47580027,15.4346998 8.6264975,15.2423365 8.83646285,15.2168867 L8.83646285,15.2168867 L8.83646285,15.2168867 Z" id="Shape-Copy-38" fill="#8EBBF6"></path>
                            <path d="M10.9714934,14.9575746 L11.656982,14.8743471 C11.8669474,14.8488973 12.0594539,14.999303 12.084953,15.208862 L12.1720174,15.922601 C12.1975165,16.1321601 12.0468192,16.3242941 11.8368539,16.3497438 L11.1513653,16.4329713 C10.9413999,16.4584211 10.7488934,16.3080154 10.7233943,16.0984564 L10.6363299,15.3847174 C10.6106011,15.1753876 10.7615281,14.9830243 10.9714934,14.9575746 L10.9714934,14.9575746 L10.9714934,14.9575746 Z" id="Shape-Copy-39" fill="#8EBBF6"></path>
                            <path d="M13.106524,14.6980331 L13.7920126,14.6148056 C14.0019779,14.5893559 14.1944845,14.7397615 14.2199835,14.9493206 L14.3238176,15.8001671 C14.3401278,15.9340648 14.2436448,16.0571865 14.1092578,16.0736945 L13.2863958,16.1736592 C13.0764305,16.1991089 12.883924,16.0487033 12.8584249,15.8391442 L12.7713605,15.1254053 C12.7456317,14.9158462 12.8965586,14.7237122 13.106524,14.6980331 L13.106524,14.6980331 L13.106524,14.6980331 Z" id="Shape-Copy-40" fill="#8EBBF6"></path>
                            <path d="M9.76867223,17.1570277 C9.97863758,17.1318073 10.1711441,17.2822129 10.1968729,17.491772 L10.2839373,18.2050524 C10.3094364,18.41507 10.1587391,18.607204 9.9487738,18.6326538 L9.26328518,18.7158813 C9.05331984,18.741331 8.86081331,18.5909254 8.83531424,18.3813663 L8.74824983,17.6676274 C8.72252104,17.4580683 8.87321827,17.265705 9.08341334,17.2404845 L9.76867223,17.1570277 Z" id="Shape-Copy-41" fill="#8EBBF6"></path>
                            <path d="M11.9037028,16.8974863 C12.1136681,16.8722658 12.3061747,17.0226715 12.3316737,17.2320013 L12.4187381,17.9457402 C12.4442372,18.1552993 12.29354,18.3474333 12.0835746,18.372883 L11.3983157,18.4561106 C11.1881207,18.4815603 10.9958439,18.3311547 10.9701151,18.1215956 L10.8830507,17.4080859 C10.8575516,17.1985268 11.0082488,17.0061635 11.2182142,16.9807138 L11.9037028,16.8974863 Z" id="Shape-Copy-42" fill="#8EBBF6"></path>
                            <path d="M14.0387334,16.6381741 C14.2486987,16.6127244 14.4412052,16.76313 14.4667043,16.9726891 L14.5537687,17.6864281 C14.5794975,17.8959871 14.4285706,18.0881212 14.2186052,18.1135709 L13.5333463,18.1967984 C13.323381,18.2222481 13.1308744,18.0718425 13.1051456,17.8622834 L13.0180812,17.1485445 C12.9925822,16.9389854 13.1432794,16.7468514 13.3532447,16.7214016 L14.0387334,16.6381741 Z" id="Shape-Copy-43" fill="#8EBBF6"></path>
                            <path d="M9.33013411,19.2636237 L10.0156227,19.1803962 C10.2255881,19.1549465 10.4180946,19.3053521 10.4435937,19.5149112 L10.5306581,20.2286501 C10.5561571,20.4382092 10.4054599,20.6303432 10.1954946,20.655793 L9.51000595,20.7390205 C9.3000406,20.7644702 9.10753408,20.6140646 9.08203501,20.4045055 L8.9949706,19.6907666 C8.96924181,19.4812075 9.12016876,19.2890735 9.33013411,19.2636237 L9.33013411,19.2636237 L9.33013411,19.2636237 Z" id="Shape-Copy-44" fill="#8EBBF6"></path>
                            <path d="M11.4649349,19.003853 L12.1504236,18.9206255 C12.3603889,18.8951758 12.5528954,19.04604 12.5783945,19.2555991 L12.6654589,19.9688794 C12.690958,20.1784385 12.5402608,20.3710311 12.3302954,20.3960223 L11.6450365,20.4792498 C11.4350712,20.5046995 11.2425646,20.3542939 11.2168359,20.1447348 L11.1297714,19.4314544 C11.1042724,19.2218953 11.2549696,19.0293028 11.4649349,19.003853 L11.4649349,19.003853 L11.4649349,19.003853 Z" id="Shape-Copy-45" fill="#8EBBF6"></path>
                            <path d="M13.5999655,18.7445409 L14.2854541,18.6613134 C14.4954195,18.6358636 14.687926,18.7862693 14.7134251,18.9958283 L14.8004895,19.7095673 C14.8259886,19.9191264 14.6752913,20.1112604 14.465326,20.1367101 L13.7798374,20.2199376 C13.569872,20.2453874 13.3773655,20.0949817 13.3516367,19.8854227 L13.2645723,19.1716837 C13.2393029,18.9621246 13.3902299,18.7702199 13.5999655,18.7445409 L13.5999655,18.7445409 L13.5999655,18.7445409 Z" id="Shape-Copy-46" fill="#8EBBF6"></path>
                            <path d="M12.3838205,0.767628209 C13.9886541,0.246711128 16.4145119,1.71545885 16.3329608,3.68746933 C15.4705868,1.61549413 14.1094875,1.06981514 12.3838205,0.767628209 L12.3838205,0.767628209 L12.3838205,0.767628209 Z" id="Shape-Copy-47" fill="#8EBBF6"></path>
                            <path d="M13.8156739,0.0921785082 C15.0014957,-0.292777381 16.7795392,0.792390113 16.7193522,2.24944471 C16.0821051,0.718792233 15.0908573,0.31503564 13.8156739,0.0921785082 L13.8156739,0.0921785082 L13.8156739,0.0921785082 Z" id="Shape-Copy-48" fill="#8EBBF6"></path>
                            <path d="M3.93053292,25.7755458 C2.55496126,26.2224065 0.475752991,24.9632178 0.545818014,23.2732179 C1.28483171,25.0491966 2.45112719,25.5166922 3.93053292,25.7755458 L3.93053292,25.7755458 L3.93053292,25.7755458 Z" id="Shape-Copy-49" fill="#8EBBF6"></path>
                            <path d="M2.70313155,26.3546992 C1.68684414,26.6846287 0.162872463,25.7546816 0.214559775,24.506269 C0.760837232,25.8177328 1.61034692,26.1639409 2.70313155,26.3546992 L2.70313155,26.3546992 L2.70313155,26.3546992 Z" id="Shape-Copy-50" fill="#8EBBF6"></path>
                        </g>
                        <g id="Pencil-Icon" transform="translate(17.159019, 11.195122)" fill="#8CB9F4">
                            <polygon id="Pencil-2" points="0 7.88191907 1.41830784 7.3998562 5.04709215 3.42973199 4.04318563 2.34058612 0.475906139 6.24342009 0 7.88191907 0 7.88191907"></polygon>
                            <polygon id="Pencil" points="6.1037651 2.33852697 7.09893324 1.2493811 6.9137466 0.430131614 6.1037651 0.160602945 5.10859697 1.2493811"></polygon>
                        </g>
                        <path d="M17.0564809,8.08519052 C17.4505403,7.99420586 17.868935,8.00396713 18.2579296,8.11411279 C18.6937419,8.23655042 19.0905189,8.48624605 19.3857546,8.82198545 C19.7499198,9.23075359 19.9558436,9.7688284 19.9568319,10.3102775 C19.9862319,10.6539705 19.9479377,11.0022429 19.84652,11.3324388 C19.7118727,11.7772393 19.4761783,12.1875741 19.1925544,12.5577792 C18.9179481,12.9165359 18.5968948,13.2398628 18.2510119,13.5336649 C18.0439764,13.7081626 17.8275525,13.8722965 17.6005052,14.0213668 C17.7349054,13.8138494 17.8391643,13.5799406 17.8557173,13.3325346 C17.867082,13.1647854 17.8177937,12.9900467 17.7015524,12.8635117 C17.5588757,12.7056443 17.3497401,12.6255055 17.1449281,12.5769402 C16.923069,12.5325927 16.7054099,12.4616126 16.5064037,12.3553233 C16.0663914,12.1340679 15.7054379,11.7692857 15.4870377,11.3365362 C15.2903786,10.9495802 15.2114432,10.5077925 15.2580138,10.0785377 C15.3069315,9.61638391 15.50532,9.17098089 15.8174793,8.82017781 C16.1376679,8.4563597 16.5776803,8.19449261 17.0564809,8.08519052 L17.0564809,8.08519052 Z M16.2729328,9.43091983 C16.1668209,9.45285255 16.0845502,9.55167032 16.0857855,9.65771866 C16.0818326,9.77629999 16.1841151,9.88704819 16.3059152,9.8934352 C16.4047389,9.90391952 16.5040567,9.84691854 16.5454391,9.75930815 C16.591145,9.66760044 16.5656979,9.54781402 16.4849096,9.48261839 C16.4279624,9.43381206 16.34668,9.41368697 16.2729328,9.43091983 L16.2729328,9.43091983 Z M18.8051656,9.43164289 C18.7039949,9.45369612 18.6244418,9.54564485 18.620736,9.64711383 C18.6099889,9.77666151 18.7282067,9.89934016 18.8619892,9.89415825 C19.0046659,9.89970169 19.1267131,9.75942866 19.0997837,9.62301193 C19.0824895,9.4916566 18.936107,9.39633361 18.8051656,9.43164289 L18.8051656,9.43164289 Z M15.9904207,10.4389816 C15.9884442,10.8318425 16.1469327,11.2218111 16.4227742,11.5077801 C16.6526627,11.7479555 16.9614867,11.9163072 17.2929165,11.977285 C17.616317,12.0381423 17.958988,12.0001818 18.2590414,11.8668984 C18.493624,11.7619346 18.7037478,11.6037057 18.8624833,11.4047445 C19.0833542,11.1322726 19.2050309,10.7861694 19.2045367,10.4389816 L15.9904207,10.4389816 L15.9904207,10.4389816 Z" id="Shape" fill="#FFFFFF"></path>
                    </g>
                </g>
                <g id="Group" transform="translate(136.970449, 47.459640) rotate(25.000000) translate(-136.970449, -47.459640) translate(101.970449, 12.459640)">
                    <use id="Rectangle-43-Copy" stroke="#186DFA" mask="url(#mask-8)" xlink:href="#path-7"></use>
                    <use id="Rectangle-43-Copy" stroke="#4D97FA" mask="url(#mask-10)" xlink:href="#path-9"></use>
                    <g id="Send-a-new-message-icon" transform="translate(25.000000, 17.000000)">
                        <g id="Phone-Icon-Copy">
                            <path d="M2.3266182,2.73390677 L3.2783539,2.26709903 C3.86092734,1.98142003 4.55261843,2.23339533 4.85814788,2.80475333 L5.78484395,4.53831585 C6.09037339,5.10967384 5.82849101,5.82937398 5.24591758,6.11505298 L4.29418187,6.58186072 C3.71183816,6.86731044 3.01991734,6.6157937 2.7143879,6.04420642 L1.78769183,4.31087318 C1.48216238,3.73905663 1.74381504,3.01981504 2.3266182,2.73390677 L2.3266182,2.73390677 L2.3266182,2.73390677 Z" id="Shape-Copy-35" fill="#8EBBF6"></path>
                            <path d="M15.8569781,20.3907489 C14.5590523,20.7234297 12.361997,21.1900081 11.1022049,21.3427065 C7.51142989,21.7792497 6.60678707,20.4402727 5.92887926,14.8823718 C5.21398631,9.02044966 6.08118454,7.77478835 9.2763793,7.38662258 C10.5226178,7.23507056 12.7764143,7.16559967 14.2464015,7.18623458 L13.831295,3.78353635 C12.4088601,3.64918009 10.1123354,3.52468274 8.21575566,3.75487673 C2.06864108,4.50163155 0.651949294,7.57119047 1.60781998,15.4071865 C2.48949066,22.6355989 4.43339303,25.9131119 10.8237826,25.1367804 C12.5076403,24.9320362 14.8319613,24.3306429 16.2808141,23.8668157 L15.8569781,20.3907489 L15.8569781,20.3907489 Z" id="Shape-Copy-36" fill="#8EBBF6"></path>
                            <path d="M12.6702831,8.02011461 C13.057823,7.97288357 13.413202,8.25076716 13.4605246,8.63755726 L14.005194,13.1036417 C14.0522869,13.4904318 13.7738646,13.8451231 13.3865543,13.8923542 L9.05630621,14.4183153 C8.66876623,14.4655464 8.31338725,14.1876628 8.26629437,13.8008727 L7.72139524,9.33478827 C7.67430235,8.94822744 7.95249495,8.59330682 8.34003493,8.54630506 L12.6702831,8.02011461 Z" id="Shape-Copy-37" fill="#8EBBF6"></path>
                            <path d="M10.5346784,9.05140203 C10.8685242,8.97555413 11.2229869,8.98369146 11.552542,9.07551262 C11.9217609,9.17758078 12.2579091,9.38573553 12.5080319,9.66561929 C12.8165515,10.0063823 12.9910095,10.4549397 12.9918467,10.90631 C13.0167544,11.1928242 12.9843117,11.4831559 12.8983908,11.7584184 C12.7843181,12.1292192 12.5846385,12.4712882 12.3443532,12.7799037 C12.1117076,13.0789755 11.8397122,13.3485118 11.5466814,13.5934352 C11.3712815,13.7389024 11.1879279,13.87573 10.995574,14 C11.1094375,13.8270065 11.1977653,13.6320121 11.2117889,13.4257661 C11.2214171,13.2859247 11.1796602,13.1402566 11.0811809,13.0347727 C10.9603057,12.9031691 10.7831267,12.8363627 10.6096105,12.795877 C10.4216522,12.7589074 10.237252,12.699736 10.0686546,12.6111296 C9.69587753,12.4266836 9.3900789,12.1225888 9.20505084,11.7618341 C9.03844187,11.4392545 8.97156804,11.0709653 9.01102256,10.7131239 C9.05246549,10.3278568 9.22053962,9.95655373 9.48499997,9.66411238 C9.75626282,9.36082126 10.1290399,9.14251997 10.5346784,9.05140203 L10.5346784,9.05140203 Z M9.87085881,10.1732477 C9.78096113,10.1915315 9.71126165,10.2739094 9.71230819,10.3623149 C9.70895926,10.4611683 9.79561268,10.5534917 9.8988014,10.5588162 C9.9825245,10.5675562 10.0666662,10.5200383 10.1017253,10.4470033 C10.1404472,10.3705526 10.1188885,10.2706946 10.0504449,10.2163453 C10.0021994,10.1756587 9.93333718,10.1588818 9.87085881,10.1732477 L9.87085881,10.1732477 Z M12.0161586,10.1738504 C11.9304471,10.1922347 11.86305,10.2688863 11.8599104,10.3534743 C11.8508055,10.4614697 11.9509593,10.5637387 12.0642994,10.5594189 C12.1851747,10.5640401 12.2885727,10.4471038 12.2657581,10.3333821 C12.2511066,10.2238799 12.1270918,10.1444154 12.0161586,10.1738504 L12.0161586,10.1738504 Z M9.6315154,11.0136021 C9.62984093,11.3411043 9.76411186,11.6661954 9.99780397,11.9045889 C10.1925648,12.1048072 10.4541995,12.245151 10.7349859,12.2959841 C11.0089697,12.3467168 11.2992796,12.3150717 11.5534839,12.203962 C11.7522216,12.1164607 11.9302378,11.9845557 12.064718,11.8186949 C12.2518392,11.5915531 12.3549232,11.3030297 12.3545046,11.0136021 L9.6315154,11.0136021 L9.6315154,11.0136021 Z" id="Shape" fill="#FFFFFF"></path>
                            <path d="M8.83646285,15.2168867 L9.52195146,15.1336592 C9.73191681,15.1082095 9.92442333,15.2586151 9.95015213,15.4681742 L10.0372165,16.1819131 C10.0627156,16.3912429 9.91201838,16.5836062 9.70205303,16.609056 L9.01656441,16.6922835 C8.80659907,16.7177332 8.61409254,16.5673276 8.58859347,16.3577685 L8.50152907,15.6440296 C8.47580027,15.4346998 8.6264975,15.2423365 8.83646285,15.2168867 L8.83646285,15.2168867 L8.83646285,15.2168867 Z" id="Shape-Copy-38" fill="#8EBBF6"></path>
                            <path d="M10.9714934,14.9575746 L11.656982,14.8743471 C11.8669474,14.8488973 12.0594539,14.999303 12.084953,15.208862 L12.1720174,15.922601 C12.1975165,16.1321601 12.0468192,16.3242941 11.8368539,16.3497438 L11.1513653,16.4329713 C10.9413999,16.4584211 10.7488934,16.3080154 10.7233943,16.0984564 L10.6363299,15.3847174 C10.6106011,15.1753876 10.7615281,14.9830243 10.9714934,14.9575746 L10.9714934,14.9575746 L10.9714934,14.9575746 Z" id="Shape-Copy-39" fill="#8EBBF6"></path>
                            <path d="M13.106524,14.6980331 L13.7920126,14.6148056 C14.0019779,14.5893559 14.1944845,14.7397615 14.2199835,14.9493206 L14.3238176,15.8001671 C14.3401278,15.9340648 14.2436448,16.0571865 14.1092578,16.0736945 L13.2863958,16.1736592 C13.0764305,16.1991089 12.883924,16.0487033 12.8584249,15.8391442 L12.7713605,15.1254053 C12.7456317,14.9158462 12.8965586,14.7237122 13.106524,14.6980331 L13.106524,14.6980331 L13.106524,14.6980331 Z" id="Shape-Copy-40" fill="#8EBBF6"></path>
                            <path d="M9.76867223,17.1570277 C9.97863758,17.1318073 10.1711441,17.2822129 10.1968729,17.491772 L10.2839373,18.2050524 C10.3094364,18.41507 10.1587391,18.607204 9.9487738,18.6326538 L9.26328518,18.7158813 C9.05331984,18.741331 8.86081331,18.5909254 8.83531424,18.3813663 L8.74824983,17.6676274 C8.72252104,17.4580683 8.87321827,17.265705 9.08341334,17.2404845 L9.76867223,17.1570277 Z" id="Shape-Copy-41" fill="#8EBBF6"></path>
                            <path d="M11.9037028,16.8974863 C12.1136681,16.8722658 12.3061747,17.0226715 12.3316737,17.2320013 L12.4187381,17.9457402 C12.4442372,18.1552993 12.29354,18.3474333 12.0835746,18.372883 L11.3983157,18.4561106 C11.1881207,18.4815603 10.9958439,18.3311547 10.9701151,18.1215956 L10.8830507,17.4080859 C10.8575516,17.1985268 11.0082488,17.0061635 11.2182142,16.9807138 L11.9037028,16.8974863 Z" id="Shape-Copy-42" fill="#8EBBF6"></path>
                            <path d="M14.0387334,16.6381741 C14.2486987,16.6127244 14.4412052,16.76313 14.4667043,16.9726891 L14.5537687,17.6864281 C14.5794975,17.8959871 14.4285706,18.0881212 14.2186052,18.1135709 L13.5333463,18.1967984 C13.323381,18.2222481 13.1308744,18.0718425 13.1051456,17.8622834 L13.0180812,17.1485445 C12.9925822,16.9389854 13.1432794,16.7468514 13.3532447,16.7214016 L14.0387334,16.6381741 Z" id="Shape-Copy-43" fill="#8EBBF6"></path>
                            <path d="M9.33013411,19.2636237 L10.0156227,19.1803962 C10.2255881,19.1549465 10.4180946,19.3053521 10.4435937,19.5149112 L10.5306581,20.2286501 C10.5561571,20.4382092 10.4054599,20.6303432 10.1954946,20.655793 L9.51000595,20.7390205 C9.3000406,20.7644702 9.10753408,20.6140646 9.08203501,20.4045055 L8.9949706,19.6907666 C8.96924181,19.4812075 9.12016876,19.2890735 9.33013411,19.2636237 L9.33013411,19.2636237 L9.33013411,19.2636237 Z" id="Shape-Copy-44" fill="#8EBBF6"></path>
                            <path d="M11.4649349,19.003853 L12.1504236,18.9206255 C12.3603889,18.8951758 12.5528954,19.04604 12.5783945,19.2555991 L12.6654589,19.9688794 C12.690958,20.1784385 12.5402608,20.3710311 12.3302954,20.3960223 L11.6450365,20.4792498 C11.4350712,20.5046995 11.2425646,20.3542939 11.2168359,20.1447348 L11.1297714,19.4314544 C11.1042724,19.2218953 11.2549696,19.0293028 11.4649349,19.003853 L11.4649349,19.003853 L11.4649349,19.003853 Z" id="Shape-Copy-45" fill="#8EBBF6"></path>
                            <path d="M13.5999655,18.7445409 L14.2854541,18.6613134 C14.4954195,18.6358636 14.687926,18.7862693 14.7134251,18.9958283 L14.8004895,19.7095673 C14.8259886,19.9191264 14.6752913,20.1112604 14.465326,20.1367101 L13.7798374,20.2199376 C13.569872,20.2453874 13.3773655,20.0949817 13.3516367,19.8854227 L13.2645723,19.1716837 C13.2393029,18.9621246 13.3902299,18.7702199 13.5999655,18.7445409 L13.5999655,18.7445409 L13.5999655,18.7445409 Z" id="Shape-Copy-46" fill="#8EBBF6"></path>
                            <path d="M12.3838205,0.767628209 C13.9886541,0.246711128 16.4145119,1.71545885 16.3329608,3.68746933 C15.4705868,1.61549413 14.1094875,1.06981514 12.3838205,0.767628209 L12.3838205,0.767628209 L12.3838205,0.767628209 Z" id="Shape-Copy-47" fill="#8EBBF6"></path>
                            <path d="M13.8156739,0.0921785082 C15.0014957,-0.292777381 16.7795392,0.792390113 16.7193522,2.24944471 C16.0821051,0.718792233 15.0908573,0.31503564 13.8156739,0.0921785082 L13.8156739,0.0921785082 L13.8156739,0.0921785082 Z" id="Shape-Copy-48" fill="#8EBBF6"></path>
                            <path d="M3.93053292,25.7755458 C2.55496126,26.2224065 0.475752991,24.9632178 0.545818014,23.2732179 C1.28483171,25.0491966 2.45112719,25.5166922 3.93053292,25.7755458 L3.93053292,25.7755458 L3.93053292,25.7755458 Z" id="Shape-Copy-49" fill="#8EBBF6"></path>
                            <path d="M2.70313155,26.3546992 C1.68684414,26.6846287 0.162872463,25.7546816 0.214559775,24.506269 C0.760837232,25.8177328 1.61034692,26.1639409 2.70313155,26.3546992 L2.70313155,26.3546992 L2.70313155,26.3546992 Z" id="Shape-Copy-50" fill="#8EBBF6"></path>
                        </g>
                        <g id="Pencil-Icon" transform="translate(17.159019, 11.195122)" fill="#8CB9F4">
                            <polygon id="Pencil-2" points="0 7.88191907 1.41830784 7.3998562 5.04709215 3.42973199 4.04318563 2.34058612 0.475906139 6.24342009 0 7.88191907 0 7.88191907"></polygon>
                            <polygon id="Pencil" points="6.1037651 2.33852697 7.09893324 1.2493811 6.9137466 0.430131614 6.1037651 0.160602945 5.10859697 1.2493811"></polygon>
                        </g>
                        <path d="M17.0564809,8.08519052 C17.4505403,7.99420586 17.868935,8.00396713 18.2579296,8.11411279 C18.6937419,8.23655042 19.0905189,8.48624605 19.3857546,8.82198545 C19.7499198,9.23075359 19.9558436,9.7688284 19.9568319,10.3102775 C19.9862319,10.6539705 19.9479377,11.0022429 19.84652,11.3324388 C19.7118727,11.7772393 19.4761783,12.1875741 19.1925544,12.5577792 C18.9179481,12.9165359 18.5968948,13.2398628 18.2510119,13.5336649 C18.0439764,13.7081626 17.8275525,13.8722965 17.6005052,14.0213668 C17.7349054,13.8138494 17.8391643,13.5799406 17.8557173,13.3325346 C17.867082,13.1647854 17.8177937,12.9900467 17.7015524,12.8635117 C17.5588757,12.7056443 17.3497401,12.6255055 17.1449281,12.5769402 C16.923069,12.5325927 16.7054099,12.4616126 16.5064037,12.3553233 C16.0663914,12.1340679 15.7054379,11.7692857 15.4870377,11.3365362 C15.2903786,10.9495802 15.2114432,10.5077925 15.2580138,10.0785377 C15.3069315,9.61638391 15.50532,9.17098089 15.8174793,8.82017781 C16.1376679,8.4563597 16.5776803,8.19449261 17.0564809,8.08519052 L17.0564809,8.08519052 Z M16.2729328,9.43091983 C16.1668209,9.45285255 16.0845502,9.55167032 16.0857855,9.65771866 C16.0818326,9.77629999 16.1841151,9.88704819 16.3059152,9.8934352 C16.4047389,9.90391952 16.5040567,9.84691854 16.5454391,9.75930815 C16.591145,9.66760044 16.5656979,9.54781402 16.4849096,9.48261839 C16.4279624,9.43381206 16.34668,9.41368697 16.2729328,9.43091983 L16.2729328,9.43091983 Z M18.8051656,9.43164289 C18.7039949,9.45369612 18.6244418,9.54564485 18.620736,9.64711383 C18.6099889,9.77666151 18.7282067,9.89934016 18.8619892,9.89415825 C19.0046659,9.89970169 19.1267131,9.75942866 19.0997837,9.62301193 C19.0824895,9.4916566 18.936107,9.39633361 18.8051656,9.43164289 L18.8051656,9.43164289 Z M15.9904207,10.4389816 C15.9884442,10.8318425 16.1469327,11.2218111 16.4227742,11.5077801 C16.6526627,11.7479555 16.9614867,11.9163072 17.2929165,11.977285 C17.616317,12.0381423 17.958988,12.0001818 18.2590414,11.8668984 C18.493624,11.7619346 18.7037478,11.6037057 18.8624833,11.4047445 C19.0833542,11.1322726 19.2050309,10.7861694 19.2045367,10.4389816 L15.9904207,10.4389816 L15.9904207,10.4389816 Z" id="Shape" fill="#FFFFFF"></path>
                    </g>
                </g>
                <g id="Group" transform="translate(59.000000, 29.000000)">
                    <use id="Rectangle-43-Copy" stroke="#186DFA" mask="url(#mask-12)" fill="#FFFFFF" xlink:href="#path-11"></use>
                    <use id="Rectangle-43-Copy" stroke="#4D97FA" mask="url(#mask-14)" fill="#FFFFFF" xlink:href="#path-13"></use>
                    <g id="Send-a-new-message-icon" transform="translate(25.000000, 17.000000)">
                        <g id="Phone-Icon-Copy">
                            <path d="M2.3266182,2.73390677 L3.2783539,2.26709903 C3.86092734,1.98142003 4.55261843,2.23339533 4.85814788,2.80475333 L5.78484395,4.53831585 C6.09037339,5.10967384 5.82849101,5.82937398 5.24591758,6.11505298 L4.29418187,6.58186072 C3.71183816,6.86731044 3.01991734,6.6157937 2.7143879,6.04420642 L1.78769183,4.31087318 C1.48216238,3.73905663 1.74381504,3.01981504 2.3266182,2.73390677 L2.3266182,2.73390677 L2.3266182,2.73390677 Z" id="Shape-Copy-35" fill="#8EBBF6"></path>
                            <path d="M15.8569781,20.3907489 C14.5590523,20.7234297 12.361997,21.1900081 11.1022049,21.3427065 C7.51142989,21.7792497 6.60678707,20.4402727 5.92887926,14.8823718 C5.21398631,9.02044966 6.08118454,7.77478835 9.2763793,7.38662258 C10.5226178,7.23507056 12.7764143,7.16559967 14.2464015,7.18623458 L13.831295,3.78353635 C12.4088601,3.64918009 10.1123354,3.52468274 8.21575566,3.75487673 C2.06864108,4.50163155 0.651949294,7.57119047 1.60781998,15.4071865 C2.48949066,22.6355989 4.43339303,25.9131119 10.8237826,25.1367804 C12.5076403,24.9320362 14.8319613,24.3306429 16.2808141,23.8668157 L15.8569781,20.3907489 L15.8569781,20.3907489 Z" id="Shape-Copy-36" fill="#8EBBF6"></path>
                            <path d="M12.6702831,8.02011461 C13.057823,7.97288357 13.413202,8.25076716 13.4605246,8.63755726 L14.005194,13.1036417 C14.0522869,13.4904318 13.7738646,13.8451231 13.3865543,13.8923542 L9.05630621,14.4183153 C8.66876623,14.4655464 8.31338725,14.1876628 8.26629437,13.8008727 L7.72139524,9.33478827 C7.67430235,8.94822744 7.95249495,8.59330682 8.34003493,8.54630506 L12.6702831,8.02011461 Z" id="Shape-Copy-37" fill="#8EBBF6"></path>
                            <path d="M10.5346784,9.05140203 C10.8685242,8.97555413 11.2229869,8.98369146 11.552542,9.07551262 C11.9217609,9.17758078 12.2579091,9.38573553 12.5080319,9.66561929 C12.8165515,10.0063823 12.9910095,10.4549397 12.9918467,10.90631 C13.0167544,11.1928242 12.9843117,11.4831559 12.8983908,11.7584184 C12.7843181,12.1292192 12.5846385,12.4712882 12.3443532,12.7799037 C12.1117076,13.0789755 11.8397122,13.3485118 11.5466814,13.5934352 C11.3712815,13.7389024 11.1879279,13.87573 10.995574,14 C11.1094375,13.8270065 11.1977653,13.6320121 11.2117889,13.4257661 C11.2214171,13.2859247 11.1796602,13.1402566 11.0811809,13.0347727 C10.9603057,12.9031691 10.7831267,12.8363627 10.6096105,12.795877 C10.4216522,12.7589074 10.237252,12.699736 10.0686546,12.6111296 C9.69587753,12.4266836 9.3900789,12.1225888 9.20505084,11.7618341 C9.03844187,11.4392545 8.97156804,11.0709653 9.01102256,10.7131239 C9.05246549,10.3278568 9.22053962,9.95655373 9.48499997,9.66411238 C9.75626282,9.36082126 10.1290399,9.14251997 10.5346784,9.05140203 L10.5346784,9.05140203 Z M9.87085881,10.1732477 C9.78096113,10.1915315 9.71126165,10.2739094 9.71230819,10.3623149 C9.70895926,10.4611683 9.79561268,10.5534917 9.8988014,10.5588162 C9.9825245,10.5675562 10.0666662,10.5200383 10.1017253,10.4470033 C10.1404472,10.3705526 10.1188885,10.2706946 10.0504449,10.2163453 C10.0021994,10.1756587 9.93333718,10.1588818 9.87085881,10.1732477 L9.87085881,10.1732477 Z M12.0161586,10.1738504 C11.9304471,10.1922347 11.86305,10.2688863 11.8599104,10.3534743 C11.8508055,10.4614697 11.9509593,10.5637387 12.0642994,10.5594189 C12.1851747,10.5640401 12.2885727,10.4471038 12.2657581,10.3333821 C12.2511066,10.2238799 12.1270918,10.1444154 12.0161586,10.1738504 L12.0161586,10.1738504 Z M9.6315154,11.0136021 C9.62984093,11.3411043 9.76411186,11.6661954 9.99780397,11.9045889 C10.1925648,12.1048072 10.4541995,12.245151 10.7349859,12.2959841 C11.0089697,12.3467168 11.2992796,12.3150717 11.5534839,12.203962 C11.7522216,12.1164607 11.9302378,11.9845557 12.064718,11.8186949 C12.2518392,11.5915531 12.3549232,11.3030297 12.3545046,11.0136021 L9.6315154,11.0136021 L9.6315154,11.0136021 Z" id="Shape" fill="#FFFFFF"></path>
                            <path d="M8.83646285,15.2168867 L9.52195146,15.1336592 C9.73191681,15.1082095 9.92442333,15.2586151 9.95015213,15.4681742 L10.0372165,16.1819131 C10.0627156,16.3912429 9.91201838,16.5836062 9.70205303,16.609056 L9.01656441,16.6922835 C8.80659907,16.7177332 8.61409254,16.5673276 8.58859347,16.3577685 L8.50152907,15.6440296 C8.47580027,15.4346998 8.6264975,15.2423365 8.83646285,15.2168867 L8.83646285,15.2168867 L8.83646285,15.2168867 Z" id="Shape-Copy-38" fill="#8EBBF6"></path>
                            <path d="M10.9714934,14.9575746 L11.656982,14.8743471 C11.8669474,14.8488973 12.0594539,14.999303 12.084953,15.208862 L12.1720174,15.922601 C12.1975165,16.1321601 12.0468192,16.3242941 11.8368539,16.3497438 L11.1513653,16.4329713 C10.9413999,16.4584211 10.7488934,16.3080154 10.7233943,16.0984564 L10.6363299,15.3847174 C10.6106011,15.1753876 10.7615281,14.9830243 10.9714934,14.9575746 L10.9714934,14.9575746 L10.9714934,14.9575746 Z" id="Shape-Copy-39" fill="#8EBBF6"></path>
                            <path d="M13.106524,14.6980331 L13.7920126,14.6148056 C14.0019779,14.5893559 14.1944845,14.7397615 14.2199835,14.9493206 L14.3238176,15.8001671 C14.3401278,15.9340648 14.2436448,16.0571865 14.1092578,16.0736945 L13.2863958,16.1736592 C13.0764305,16.1991089 12.883924,16.0487033 12.8584249,15.8391442 L12.7713605,15.1254053 C12.7456317,14.9158462 12.8965586,14.7237122 13.106524,14.6980331 L13.106524,14.6980331 L13.106524,14.6980331 Z" id="Shape-Copy-40" fill="#8EBBF6"></path>
                            <path d="M9.76867223,17.1570277 C9.97863758,17.1318073 10.1711441,17.2822129 10.1968729,17.491772 L10.2839373,18.2050524 C10.3094364,18.41507 10.1587391,18.607204 9.9487738,18.6326538 L9.26328518,18.7158813 C9.05331984,18.741331 8.86081331,18.5909254 8.83531424,18.3813663 L8.74824983,17.6676274 C8.72252104,17.4580683 8.87321827,17.265705 9.08341334,17.2404845 L9.76867223,17.1570277 Z" id="Shape-Copy-41" fill="#8EBBF6"></path>
                            <path d="M11.9037028,16.8974863 C12.1136681,16.8722658 12.3061747,17.0226715 12.3316737,17.2320013 L12.4187381,17.9457402 C12.4442372,18.1552993 12.29354,18.3474333 12.0835746,18.372883 L11.3983157,18.4561106 C11.1881207,18.4815603 10.9958439,18.3311547 10.9701151,18.1215956 L10.8830507,17.4080859 C10.8575516,17.1985268 11.0082488,17.0061635 11.2182142,16.9807138 L11.9037028,16.8974863 Z" id="Shape-Copy-42" fill="#8EBBF6"></path>
                            <path d="M14.0387334,16.6381741 C14.2486987,16.6127244 14.4412052,16.76313 14.4667043,16.9726891 L14.5537687,17.6864281 C14.5794975,17.8959871 14.4285706,18.0881212 14.2186052,18.1135709 L13.5333463,18.1967984 C13.323381,18.2222481 13.1308744,18.0718425 13.1051456,17.8622834 L13.0180812,17.1485445 C12.9925822,16.9389854 13.1432794,16.7468514 13.3532447,16.7214016 L14.0387334,16.6381741 Z" id="Shape-Copy-43" fill="#8EBBF6"></path>
                            <path d="M9.33013411,19.2636237 L10.0156227,19.1803962 C10.2255881,19.1549465 10.4180946,19.3053521 10.4435937,19.5149112 L10.5306581,20.2286501 C10.5561571,20.4382092 10.4054599,20.6303432 10.1954946,20.655793 L9.51000595,20.7390205 C9.3000406,20.7644702 9.10753408,20.6140646 9.08203501,20.4045055 L8.9949706,19.6907666 C8.96924181,19.4812075 9.12016876,19.2890735 9.33013411,19.2636237 L9.33013411,19.2636237 L9.33013411,19.2636237 Z" id="Shape-Copy-44" fill="#8EBBF6"></path>
                            <path d="M11.4649349,19.003853 L12.1504236,18.9206255 C12.3603889,18.8951758 12.5528954,19.04604 12.5783945,19.2555991 L12.6654589,19.9688794 C12.690958,20.1784385 12.5402608,20.3710311 12.3302954,20.3960223 L11.6450365,20.4792498 C11.4350712,20.5046995 11.2425646,20.3542939 11.2168359,20.1447348 L11.1297714,19.4314544 C11.1042724,19.2218953 11.2549696,19.0293028 11.4649349,19.003853 L11.4649349,19.003853 L11.4649349,19.003853 Z" id="Shape-Copy-45" fill="#8EBBF6"></path>
                            <path d="M13.5999655,18.7445409 L14.2854541,18.6613134 C14.4954195,18.6358636 14.687926,18.7862693 14.7134251,18.9958283 L14.8004895,19.7095673 C14.8259886,19.9191264 14.6752913,20.1112604 14.465326,20.1367101 L13.7798374,20.2199376 C13.569872,20.2453874 13.3773655,20.0949817 13.3516367,19.8854227 L13.2645723,19.1716837 C13.2393029,18.9621246 13.3902299,18.7702199 13.5999655,18.7445409 L13.5999655,18.7445409 L13.5999655,18.7445409 Z" id="Shape-Copy-46" fill="#8EBBF6"></path>
                            <path d="M12.3838205,0.767628209 C13.9886541,0.246711128 16.4145119,1.71545885 16.3329608,3.68746933 C15.4705868,1.61549413 14.1094875,1.06981514 12.3838205,0.767628209 L12.3838205,0.767628209 L12.3838205,0.767628209 Z" id="Shape-Copy-47" fill="#8EBBF6"></path>
                            <path d="M13.8156739,0.0921785082 C15.0014957,-0.292777381 16.7795392,0.792390113 16.7193522,2.24944471 C16.0821051,0.718792233 15.0908573,0.31503564 13.8156739,0.0921785082 L13.8156739,0.0921785082 L13.8156739,0.0921785082 Z" id="Shape-Copy-48" fill="#8EBBF6"></path>
                            <path d="M3.93053292,25.7755458 C2.55496126,26.2224065 0.475752991,24.9632178 0.545818014,23.2732179 C1.28483171,25.0491966 2.45112719,25.5166922 3.93053292,25.7755458 L3.93053292,25.7755458 L3.93053292,25.7755458 Z" id="Shape-Copy-49" fill="#8EBBF6"></path>
                            <path d="M2.70313155,26.3546992 C1.68684414,26.6846287 0.162872463,25.7546816 0.214559775,24.506269 C0.760837232,25.8177328 1.61034692,26.1639409 2.70313155,26.3546992 L2.70313155,26.3546992 L2.70313155,26.3546992 Z" id="Shape-Copy-50" fill="#8EBBF6"></path>
                        </g>
                        <g id="Pencil-Icon" transform="translate(17.159019, 11.195122)" fill="#8CB9F4">
                            <polygon id="Pencil-2" points="0 7.88191907 1.41830784 7.3998562 5.04709215 3.42973199 4.04318563 2.34058612 0.475906139 6.24342009 0 7.88191907 0 7.88191907"></polygon>
                            <polygon id="Pencil" points="6.1037651 2.33852697 7.09893324 1.2493811 6.9137466 0.430131614 6.1037651 0.160602945 5.10859697 1.2493811"></polygon>
                        </g>
                        <path d="M17.0564809,8.08519052 C17.4505403,7.99420586 17.868935,8.00396713 18.2579296,8.11411279 C18.6937419,8.23655042 19.0905189,8.48624605 19.3857546,8.82198545 C19.7499198,9.23075359 19.9558436,9.7688284 19.9568319,10.3102775 C19.9862319,10.6539705 19.9479377,11.0022429 19.84652,11.3324388 C19.7118727,11.7772393 19.4761783,12.1875741 19.1925544,12.5577792 C18.9179481,12.9165359 18.5968948,13.2398628 18.2510119,13.5336649 C18.0439764,13.7081626 17.8275525,13.8722965 17.6005052,14.0213668 C17.7349054,13.8138494 17.8391643,13.5799406 17.8557173,13.3325346 C17.867082,13.1647854 17.8177937,12.9900467 17.7015524,12.8635117 C17.5588757,12.7056443 17.3497401,12.6255055 17.1449281,12.5769402 C16.923069,12.5325927 16.7054099,12.4616126 16.5064037,12.3553233 C16.0663914,12.1340679 15.7054379,11.7692857 15.4870377,11.3365362 C15.2903786,10.9495802 15.2114432,10.5077925 15.2580138,10.0785377 C15.3069315,9.61638391 15.50532,9.17098089 15.8174793,8.82017781 C16.1376679,8.4563597 16.5776803,8.19449261 17.0564809,8.08519052 L17.0564809,8.08519052 Z M16.2729328,9.43091983 C16.1668209,9.45285255 16.0845502,9.55167032 16.0857855,9.65771866 C16.0818326,9.77629999 16.1841151,9.88704819 16.3059152,9.8934352 C16.4047389,9.90391952 16.5040567,9.84691854 16.5454391,9.75930815 C16.591145,9.66760044 16.5656979,9.54781402 16.4849096,9.48261839 C16.4279624,9.43381206 16.34668,9.41368697 16.2729328,9.43091983 L16.2729328,9.43091983 Z M18.8051656,9.43164289 C18.7039949,9.45369612 18.6244418,9.54564485 18.620736,9.64711383 C18.6099889,9.77666151 18.7282067,9.89934016 18.8619892,9.89415825 C19.0046659,9.89970169 19.1267131,9.75942866 19.0997837,9.62301193 C19.0824895,9.4916566 18.936107,9.39633361 18.8051656,9.43164289 L18.8051656,9.43164289 Z M15.9904207,10.4389816 C15.9884442,10.8318425 16.1469327,11.2218111 16.4227742,11.5077801 C16.6526627,11.7479555 16.9614867,11.9163072 17.2929165,11.977285 C17.616317,12.0381423 17.958988,12.0001818 18.2590414,11.8668984 C18.493624,11.7619346 18.7037478,11.6037057 18.8624833,11.4047445 C19.0833542,11.1322726 19.2050309,10.7861694 19.2045367,10.4389816 L15.9904207,10.4389816 L15.9904207,10.4389816 Z" id="Shape" fill="#FFFFFF"></path>
                    </g>
                </g>
            </g>
        </g>
    </g>
</svg>