<?xml version="1.0" encoding="UTF-8"?>
<svg width="30px" height="32px" viewBox="0 0 30 32" version="1.1" xmlns="http://www.w3.org/2000/svg" xmlns:xlink="http://www.w3.org/1999/xlink">
    <!-- Generator: Sketch 39.1 (31720) - http://www.bohemiancoding.com/sketch -->
    <title>Group</title>
    <desc>Created with Sketch.</desc>
    <defs></defs>
    <g id="Page-1" stroke="none" stroke-width="1" fill="none" fill-rule="evenodd">
        <g id="Dashboard" transform="translate(-593.000000, -340.000000)" fill="#777777">
            <g id="Group" transform="translate(593.000000, 340.000000)">
                <path d="M13.6942378,13.1100805 L7.82527875,13.1100805 C7.94265793,14.0373025 8.1578531,14.8630998 8.47151635,15.5893507 C8.7845275,16.3156016 9.12623134,16.8853329 9.49793208,17.2985446 C9.86963282,17.7117563 10.2739389,18.052969 10.7108503,18.3221827 C11.1477617,18.5913963 11.5331567,18.7729591 11.865731,18.8668708 C12.1976532,18.9607826 12.5008828,19.0077384 12.7747676,19.0077384 C13.1529894,19.0077384 13.5833797,18.9263483 14.0665907,18.7635679 C14.5484974,18.6014136 15.0375773,18.3691385 15.5338304,18.0686209 C16.0287793,17.7681033 16.442867,17.3455004 16.7754413,16.8008123 C17.1080157,16.2561241 17.2749549,15.6525846 17.2749549,14.9883155 L20.6782991,14.9883155 C20.273993,17.142025 19.4392966,18.8825228 18.1742099,20.2098089 C16.7787018,21.6748322 14.992582,22.4073438 12.8145461,22.4073438 C10.140257,22.4073438 8.02808389,21.4187661 6.47541816,19.4397325 C6.00590144,18.8643665 5.55594791,18.0404474 5.12555758,16.9698534 C4.69581936,15.8992595 4.4017193,14.6126685 4.24521372,13.1100805 L0,13.1100805 L1.95631969,11.2318454 L4.16761304,11.2318454 C4.16761304,10.6433318 4.19956626,10.0178795 4.26477692,9.35361042 L0,9.35361042 L1.95631969,7.47537539 L4.59735126,7.47537539 C5.07925801,5.38427373 5.81026947,3.7752524 6.78842931,2.64831138 C8.31435867,0.882770461 10.2517673,0 12.5993509,0 C15.7548945,0 18.0633518,1.18328806 19.5240705,3.54986419 C20.3072505,4.83958558 20.7369887,6.14808931 20.8152415,7.47537539 L17.2749549,7.47537539 C17.2749549,6.78668922 17.1080157,6.16687166 16.7754413,5.61592272 C16.442867,5.06497378 16.0287793,4.63924051 15.5338304,4.3387229 C15.0375773,4.0382053 14.5484974,3.81031278 14.0665907,3.65316712 C13.5833797,3.49664754 13.1464683,3.41838774 12.7558565,3.41838774 C12.4421932,3.41838774 12.0998373,3.48099558 11.7281365,3.60621125 C11.3564358,3.73142691 10.9482171,3.93177198 10.5054367,4.20724645 C10.0620043,4.48272092 9.63552657,4.90219341 9.22404732,5.46566392 C8.8138723,6.02913443 8.48390638,6.69903825 8.23610588,7.47537539 L15.6505575,7.47537539 L13.6942378,9.35361042 L7.82527875,9.35361042 C7.74702596,9.92960249 7.70855167,10.5556808 7.70855167,11.2318454 L15.6505575,11.2318454 L13.6942378,13.1100805" id="Fill-3-Copy"></path>
                <path d="M20.3802169,19.9457739 C21.3360593,19.3950599 22.3791135,19.1197029 23.5093797,19.1197029 C24.6399947,19.1197029 25.6827001,19.3950599 26.6388914,19.9457739 C27.5943849,20.496488 28.3513842,21.2433939 28.9098891,22.1864917 C29.4676964,23.1299337 29.7467745,24.1587364 29.7467745,25.2739324 C29.7467745,26.3891283 29.4676964,27.4182752 28.9098891,28.361373 C28.3513842,29.3044708 27.5943849,30.0513768 26.6388914,30.6020908 C25.6827001,31.1528049 24.6399947,31.4281619 23.5093797,31.4281619 C22.3791135,31.4281619 21.3360593,31.1528049 20.3802169,30.6020908 C19.4240257,30.0513768 18.6670264,29.3044708 18.1092191,28.361373 C17.551063,27.4182752 17.2719849,26.3891283 17.2719849,25.2739324 C17.2719849,24.1587364 17.551063,23.1299337 18.1092191,22.1864917 C18.6670264,21.2433939 19.4240257,20.496488 20.3802169,19.9457739 C20.3802169,19.9457739 19.4240257,20.496488 20.3802169,19.9457739 L20.3802169,19.9457739 L20.3802169,19.9457739 Z M19.8255492,27.4939984 L25.7702609,21.6392196 C25.0725657,21.2124163 24.3190549,20.9990146 23.5093797,20.9990146 C22.316321,20.9990146 21.2959418,21.417213 20.4482422,22.25361 C19.6005425,23.090007 19.1766927,24.0967811 19.1766927,25.2739324 C19.1766927,26.0655838 19.3929782,26.8056058 19.8255492,27.4939984 C19.8255492,27.4939984 19.3929782,26.8056058 19.8255492,27.4939984 L19.8255492,27.4939984 L19.8255492,27.4939984 Z M27.2249553,23.1158217 L21.3224542,28.9396228 C21.9988697,29.3457744 22.7279611,29.5488502 23.5093797,29.5488502 C24.7024384,29.5488502 25.7231665,29.1306517 26.5708661,28.2942547 C27.4182169,27.4578578 27.8420667,26.4510837 27.8420667,25.2739324 C27.8420667,24.5029327 27.6362466,23.7835625 27.2249553,23.1158217 L27.2249553,23.1158217 Z" id="Fill-92-Copy"></path>
            </g>
        </g>
    </g>
</svg>