<?xml version="1.0" encoding="UTF-8"?>
<svg width="14px" height="15px" viewBox="0 0 14 15" version="1.1" xmlns="http://www.w3.org/2000/svg" xmlns:xlink="http://www.w3.org/1999/xlink">
    <!-- Generator: Sketch 39.1 (31720) - http://www.bohemiancoding.com/sketch -->
    <title>Icons/Trash</title>
    <desc>Created with Sketch.</desc>
    <defs></defs>
    <g id="NewBackend" stroke="none" stroke-width="1" fill="none" fill-rule="evenodd">
        <g id="Messages---templates" transform="translate(-947.000000, -833.000000)" fill="#777777">
            <path d="M961,835.8125 C961,835.636719 960.860795,835.5 960.681818,835.5 L957.609375,835.5 L956.913352,833.869141 C956.714489,833.390625 956.117898,833 955.590909,833 L952.409091,833 C951.882102,833 951.285511,833.390625 951.086648,833.869141 L950.390625,835.5 L947.318182,835.5 C947.139205,835.5 947,835.636719 947,835.8125 L947,836.4375 C947,836.613281 947.139205,836.75 947.318182,836.75 L948.272727,836.75 L948.272727,846.046875 C948.272727,847.121094 948.988636,848 949.863636,848 L958.136364,848 C959.011364,848 959.727273,847.082031 959.727273,846.007812 L959.727273,836.75 L960.681818,836.75 C960.860795,836.75 961,836.613281 961,836.4375 L961,835.8125 Z M958.454545,846.007813 C958.454545,846.476563 958.18608,846.75 958.136364,846.75 L949.863636,846.75 C949.81392,846.75 949.545455,846.476563 949.545455,846.007813 L949.545455,836.75 L958.454545,836.75 L958.454545,846.007813 Z M957.181818,838.9375 C957.181818,838.761719 957.042614,838.625 956.863636,838.625 L956.227273,838.625 C956.048295,838.625 955.909091,838.761719 955.909091,838.9375 L955.909091,844.5625 C955.909091,844.738281 956.048295,844.875 956.227273,844.875 L956.863636,844.875 C957.042614,844.875 957.181818,844.738281 957.181818,844.5625 L957.181818,838.9375 Z M954.636364,838.9375 C954.636364,838.761719 954.497159,838.625 954.318182,838.625 L953.681818,838.625 C953.502841,838.625 953.363636,838.761719 953.363636,838.9375 L953.363636,844.5625 C953.363636,844.738281 953.502841,844.875 953.681818,844.875 L954.318182,844.875 C954.497159,844.875 954.636364,844.738281 954.636364,844.5625 L954.636364,838.9375 Z M952.090909,838.9375 C952.090909,838.761719 951.951705,838.625 951.772727,838.625 L951.136364,838.625 C950.957386,838.625 950.818182,838.761719 950.818182,838.9375 L950.818182,844.5625 C950.818182,844.738281 950.957386,844.875 951.136364,844.875 L951.772727,844.875 C951.951705,844.875 952.090909,844.738281 952.090909,844.5625 L952.090909,838.9375 Z" id="Icons/Trash"></path>
        </g>
    </g>
</svg>