<?xml version="1.0" encoding="UTF-8"?>
<svg width="17px" height="18px" viewBox="0 0 17 18" version="1.1" xmlns="http://www.w3.org/2000/svg" xmlns:xlink="http://www.w3.org/1999/xlink">
    <!-- Generator: Sketch 39.1 (31720) - http://www.bohemiancoding.com/sketch -->
    <title>Icons/Attachment Blue</title>
    <desc>Created with Sketch.</desc>
    <defs></defs>
    <g id="Other" stroke="none" stroke-width="1" fill="none" fill-rule="evenodd">
        <g id="Icons-selected-and-unselected" transform="translate(-637.000000, -547.000000)" fill="#3190E6">
            <g id="Icons/Attachment-Blue" transform="translate(637.681435, 546.874934)">
                <path d="M4.24088988,17.4305405 C3.094181,17.4305405 2.1386046,17.0079862 1.37413201,16.1628649 C0.564690442,15.3412191 0.148733655,14.3669966 0.126249167,13.2401682 C0.103764679,12.1133397 0.575931843,10.9982658 1.54276482,9.89491291 L9.90695251,1.16203604 C10.806332,0.223012322 11.7843926,-0.0939034278 12.8411635,0.211279279 C13.3358222,0.352132836 13.7798842,0.627966915 14.1733628,1.03878979 C14.5668413,1.44961266 14.8310301,1.91324867 14.965937,2.42971171 C15.2582353,3.55654017 14.9546993,4.58945076 14.0553198,5.52847447 L6.0621243,13.874006 C5.61243454,14.3435179 5.11778323,14.6134831 4.57815552,14.6839099 C4.03852781,14.7308611 3.58884479,14.5665344 3.22909299,14.1909249 C2.89182567,13.9092178 2.74005765,13.4749259 2.77378438,12.888036 C2.80751111,12.3011462 3.07169988,11.7612157 3.56635862,11.2682282 L9.16496812,5.38762162 C9.43478197,5.08243891 9.71583385,5.08243891 10.0081322,5.38762162 C10.3004305,5.69280433 10.3004305,5.98624484 10.0081322,6.26795195 L4.4095227,12.1133453 C3.91486396,12.6298084 3.80244321,13.0406251 4.07225707,13.3458078 C4.20716399,13.4397102 4.3420689,13.474923 4.47697583,13.4514474 C4.74678968,13.4044963 5.00535741,13.2519072 5.25268678,12.9936757 L13.2458823,4.64814414 C13.8079945,4.06125432 13.9991097,3.42742282 13.8192338,2.74663063 C13.6393579,2.04236285 13.2121591,1.59633327 12.5376244,1.40852853 C11.9305433,1.24419938 11.3234712,1.45547655 10.71639,2.04236637 L2.3859289,10.74003 C1.6439408,11.6321026 1.28419439,12.4713424 1.30667888,13.2577748 C1.32916337,14.0442071 1.62145733,14.7308579 2.18356953,15.3177477 C2.74568172,15.881162 3.40334313,16.1746025 4.15657347,16.1980781 C4.90980382,16.2215537 5.70237013,15.8576874 6.53429618,15.1064685 L14.8984839,6.4088048 C15.1682977,6.12709769 15.4493496,6.12709769 15.7416479,6.4088048 C16.0339463,6.66703633 16.0339463,6.94873921 15.7416479,7.25392192 L7.37746026,15.9867988 C6.45559626,16.9492981 5.41008325,17.4305405 4.24088988,17.4305405 L4.24088988,17.4305405 Z" id="Icons/Attachment"></path>
            </g>
        </g>
    </g>
</svg>