<?xml version="1.0" encoding="UTF-8"?>
<svg width="152px" height="118px" viewBox="0 0 152 118" version="1.1" xmlns="http://www.w3.org/2000/svg" xmlns:xlink="http://www.w3.org/1999/xlink">
    <!-- Generator: Sketch 42 (36781) - http://www.bohemiancoding.com/sketch -->
    <title>ClickToCallIcon</title>
    <desc>Created with Sketch.</desc>
    <defs>
        <rect id="path-1" x="0" y="0" width="152" height="81.9"></rect>
        <mask id="mask-2" maskContentUnits="userSpaceOnUse" maskUnits="objectBoundingBox" x="0" y="0" width="152" height="81.9" fill="white">
            <use xlink:href="#path-1"></use>
        </mask>
        <path d="M0,76.05 L152,76.05 L152,87.75 C152,94.2117316 146.767816,99.45 140.29378,99.45 L11.7062197,99.45 C5.24105309,99.45 0,94.2131523 0,87.75 L0,76.05 Z" id="path-3"></path>
        <mask id="mask-4" maskContentUnits="userSpaceOnUse" maskUnits="objectBoundingBox" x="0" y="0" width="152" height="23.4" fill="white">
            <use xlink:href="#path-3"></use>
        </mask>
        <rect id="path-5" x="73.0769231" y="84.825" width="5.84615385" height="5.85"></rect>
        <mask id="mask-6" maskContentUnits="userSpaceOnUse" maskUnits="objectBoundingBox" x="0" y="0" width="5.84615385" height="5.85" fill="white">
            <use xlink:href="#path-5"></use>
        </mask>
        <linearGradient x1="50%" y1="0%" x2="50%" y2="100%" id="linearGradient-7">
            <stop stop-color="#F2F1F2" offset="0%"></stop>
            <stop stop-color="#D6D4D6" offset="8.39633518%"></stop>
            <stop stop-color="#D6D4D6" offset="100%"></stop>
        </linearGradient>
        <rect id="path-8" x="0" y="0" width="129" height="73" rx="0.504"></rect>
        <filter x="-50%" y="-50%" width="200%" height="200%" filterUnits="objectBoundingBox" id="filter-10">
            <feGaussianBlur stdDeviation="0.5" in="SourceAlpha" result="shadowBlurInner1"></feGaussianBlur>
            <feOffset dx="0" dy="0" in="shadowBlurInner1" result="shadowOffsetInner1"></feOffset>
            <feComposite in="shadowOffsetInner1" in2="SourceAlpha" operator="arithmetic" k2="-1" k3="1" result="shadowInnerInner1"></feComposite>
            <feColorMatrix values="0 0 0 0 1   0 0 0 0 1   0 0 0 0 1  0 0 0 0.895833333 0" type="matrix" in="shadowInnerInner1"></feColorMatrix>
        </filter>
        <mask id="mask-11" maskContentUnits="userSpaceOnUse" maskUnits="objectBoundingBox" x="-0.5" y="-0.5" width="130" height="74">
            <rect x="-0.5" y="-0.5" width="130" height="74" fill="white"></rect>
            <use xlink:href="#path-8" fill="black"></use>
        </mask>
        <rect id="path-12" x="0" y="0" width="129.100781" height="66.9673611"></rect>
        <mask id="mask-14" maskContentUnits="userSpaceOnUse" maskUnits="objectBoundingBox" x="-0.5" y="-0.5" width="130.100781" height="67.9673611">
            <rect x="-0.5" y="-0.5" width="130.100781" height="67.9673611" fill="white"></rect>
            <use xlink:href="#path-12" fill="black"></use>
        </mask>
        <mask id="mask-15" maskContentUnits="userSpaceOnUse" maskUnits="objectBoundingBox" x="-0.5" y="-0.5" width="130.100781" height="67.9673611">
            <rect x="-0.5" y="-0.5" width="130.100781" height="67.9673611" fill="white"></rect>
            <use xlink:href="#path-12" fill="black"></use>
        </mask>
        <radialGradient cx="50%" cy="50%" fx="50%" fy="50%" r="50%" id="radialGradient-16">
            <stop stop-color="#28C93F" offset="0%"></stop>
            <stop stop-color="#2AD143" offset="80%"></stop>
            <stop stop-color="#26CE3F" offset="100%"></stop>
        </radialGradient>
        <ellipse id="path-17" cx="4.6359375" cy="0.608333333" rx="0.6046875" ry="0.608333333"></ellipse>
        <mask id="mask-18" maskContentUnits="userSpaceOnUse" maskUnits="objectBoundingBox" x="0" y="0" width="1.209375" height="1.21666667" fill="white">
            <use xlink:href="#path-17"></use>
        </mask>
        <radialGradient cx="50%" cy="50%" fx="50%" fy="50%" r="50%" id="radialGradient-19">
            <stop stop-color="#FFBD2E" offset="0%"></stop>
            <stop stop-color="#FFC330" offset="80%"></stop>
            <stop stop-color="#FFBE29" offset="100%"></stop>
        </radialGradient>
        <path d="M2.6203125,1.21666667 C2.95427218,1.21666667 3.225,0.944306556 3.225,0.608333333 C3.225,0.272360111 2.95427218,0 2.6203125,0 C2.28635282,0 2.015625,0.272360111 2.015625,0.608333333 C2.015625,0.944306556 2.28635282,1.21666667 2.6203125,1.21666667 Z" id="path-20"></path>
        <mask id="mask-21" maskContentUnits="userSpaceOnUse" maskUnits="objectBoundingBox" x="0" y="0" width="1.209375" height="1.21666667" fill="white">
            <use xlink:href="#path-20"></use>
        </mask>
        <radialGradient cx="50%" cy="50%" fx="50%" fy="50%" r="50%" id="radialGradient-22">
            <stop stop-color="#FF5F56" offset="0%"></stop>
            <stop stop-color="#FF635B" offset="80%"></stop>
            <stop stop-color="#FF5F56" offset="100%"></stop>
        </radialGradient>
        <path d="M0.6046875,1.21666667 C0.938647185,1.21666667 1.209375,0.944306556 1.209375,0.608333333 C1.209375,0.272360111 0.938647185,0 0.6046875,0 C0.270727815,0 0,0.272360111 0,0.608333333 C0,0.944306556 0.270727815,1.21666667 0.6046875,1.21666667 Z" id="path-23"></path>
        <mask id="mask-24" maskContentUnits="userSpaceOnUse" maskUnits="objectBoundingBox" x="0" y="0" width="1.209375" height="1.21666667" fill="white">
            <use xlink:href="#path-23"></use>
        </mask>
        <linearGradient x1="50%" y1="4.16854467%" x2="50%" y2="95.9209736%" id="linearGradient-25">
            <stop stop-color="#C2C0C2" offset="0%"></stop>
            <stop stop-color="#BAB8BA" offset="100%"></stop>
        </linearGradient>
        <linearGradient x1="50%" y1="0%" x2="50%" y2="95.8714803%" id="linearGradient-26">
            <stop stop-color="#A7A5A7" offset="0%"></stop>
            <stop stop-color="#9E9C9E" offset="100%"></stop>
        </linearGradient>
        <polyline id="path-27" points="2.41875 2.43333333 0 2.43333333 0 0 2.41875 0"></polyline>
        <mask id="mask-28" maskContentUnits="userSpaceOnUse" maskUnits="objectBoundingBox" x="0" y="0" width="2.41875" height="2.43333333" fill="white">
            <use xlink:href="#path-27"></use>
        </mask>
        <linearGradient x1="50%" y1="0%" x2="50%" y2="100%" id="linearGradient-29">
            <stop stop-color="#FEFEFE" offset="0%"></stop>
            <stop stop-color="#F2F2F2" offset="100%"></stop>
        </linearGradient>
        <linearGradient x1="50%" y1="0%" x2="50%" y2="100%" id="linearGradient-30">
            <stop stop-color="#D3D1D3" offset="0%"></stop>
            <stop stop-color="#CECCCE" offset="88.19527%"></stop>
            <stop stop-color="#ACAAAC" offset="100%"></stop>
        </linearGradient>
        <rect id="path-31" x="0" y="0" width="2.67070312" height="2.33194444" rx="0.4032"></rect>
        <filter x="-50%" y="-50%" width="200%" height="200%" filterUnits="objectBoundingBox" id="filter-32">
            <feOffset dx="0" dy="0" in="SourceAlpha" result="shadowOffsetOuter1"></feOffset>
            <feComposite in="shadowOffsetOuter1" in2="SourceAlpha" operator="out" result="shadowOffsetOuter1"></feComposite>
            <feColorMatrix values="0 0 0 0 0   0 0 0 0 0   0 0 0 0 0  0 0 0 0.05 0" type="matrix" in="shadowOffsetOuter1"></feColorMatrix>
        </filter>
        <mask id="mask-33" maskContentUnits="userSpaceOnUse" maskUnits="objectBoundingBox" x="0" y="0" width="2.67070312" height="2.33194444" fill="white">
            <use xlink:href="#path-31"></use>
        </mask>
        <rect id="path-34" x="0" y="0" width="2.56992187" height="2.33194444" rx="0.4032"></rect>
        <filter x="-50%" y="-50%" width="200%" height="200%" filterUnits="objectBoundingBox" id="filter-35">
            <feOffset dx="0" dy="0" in="SourceAlpha" result="shadowOffsetOuter1"></feOffset>
            <feComposite in="shadowOffsetOuter1" in2="SourceAlpha" operator="out" result="shadowOffsetOuter1"></feComposite>
            <feColorMatrix values="0 0 0 0 0   0 0 0 0 0   0 0 0 0 0  0 0 0 0.05 0" type="matrix" in="shadowOffsetOuter1"></feColorMatrix>
        </filter>
        <mask id="mask-36" maskContentUnits="userSpaceOnUse" maskUnits="objectBoundingBox" x="0" y="0" width="2.56992187" height="2.33194444" fill="white">
            <use xlink:href="#path-34"></use>
        </mask>
        <rect id="path-37" x="0" y="0" width="3.8296875" height="2.33194444" rx="0.4032"></rect>
        <filter x="-50%" y="-50%" width="200%" height="200%" filterUnits="objectBoundingBox" id="filter-38">
            <feOffset dx="0" dy="0" in="SourceAlpha" result="shadowOffsetOuter1"></feOffset>
            <feComposite in="shadowOffsetOuter1" in2="SourceAlpha" operator="out" result="shadowOffsetOuter1"></feComposite>
            <feColorMatrix values="0 0 0 0 0   0 0 0 0 0   0 0 0 0 0  0 0 0 0.05 0" type="matrix" in="shadowOffsetOuter1"></feColorMatrix>
        </filter>
        <mask id="mask-39" maskContentUnits="userSpaceOnUse" maskUnits="objectBoundingBox" x="0" y="0" width="3.8296875" height="2.33194444" fill="white">
            <use xlink:href="#path-37"></use>
        </mask>
        <rect id="path-40" x="0" y="0.0506944444" width="1.31015625" height="1.01388889" rx="0.0252"></rect>
        <mask id="mask-41" maskContentUnits="userSpaceOnUse" maskUnits="objectBoundingBox" x="-0.5" y="-0.5" width="2.31015625" height="2.01388889">
            <rect x="-0.5" y="-0.449305556" width="2.31015625" height="2.01388889" fill="white"></rect>
            <use xlink:href="#path-40" fill="black"></use>
        </mask>
        <rect id="path-42" x="0" y="0" width="3.8296875" height="2.33194444" rx="0.4032"></rect>
        <filter x="-50%" y="-50%" width="200%" height="200%" filterUnits="objectBoundingBox" id="filter-43">
            <feOffset dx="0" dy="0" in="SourceAlpha" result="shadowOffsetOuter1"></feOffset>
            <feComposite in="shadowOffsetOuter1" in2="SourceAlpha" operator="out" result="shadowOffsetOuter1"></feComposite>
            <feColorMatrix values="0 0 0 0 0   0 0 0 0 0   0 0 0 0 0  0 0 0 0.05 0" type="matrix" in="shadowOffsetOuter1"></feColorMatrix>
        </filter>
        <mask id="mask-44" maskContentUnits="userSpaceOnUse" maskUnits="objectBoundingBox" x="0" y="0" width="3.8296875" height="2.33194444" fill="white">
            <use xlink:href="#path-42"></use>
        </mask>
        <path d="M0.6046875,0.557638889 L0.881670172,0.557638889 C0.895676709,0.557638889 0.90703125,0.569105011 0.90703125,0.582803267 L0.90703125,1.34358562 C0.90703125,1.35748352 0.895563024,1.36875 0.88182537,1.36875 L0.0252058804,1.36875 C0.011285057,1.36875 0,1.35728388 0,1.34358562 L0,0.582803267 C0,0.568905365 0.0114830397,0.557638889 0.024742058,0.557638889 L0.30234375,0.557638889" id="path-45"></path>
        <mask id="mask-46" maskContentUnits="userSpaceOnUse" maskUnits="objectBoundingBox" x="-0.5" y="-0.5" width="2" height="2">
            <rect x="-0.5" y="0.0576388889" width="2" height="2" fill="white"></rect>
            <use xlink:href="#path-45" fill="black"></use>
        </mask>
        <rect id="path-47" x="0" y="0" width="3.8296875" height="2.33194444" rx="0.4032"></rect>
        <filter x="-50%" y="-50%" width="200%" height="200%" filterUnits="objectBoundingBox" id="filter-48">
            <feOffset dx="0" dy="0" in="SourceAlpha" result="shadowOffsetOuter1"></feOffset>
            <feComposite in="shadowOffsetOuter1" in2="SourceAlpha" operator="out" result="shadowOffsetOuter1"></feComposite>
            <feColorMatrix values="0 0 0 0 0   0 0 0 0 0   0 0 0 0 0  0 0 0 0.05 0" type="matrix" in="shadowOffsetOuter1"></feColorMatrix>
        </filter>
        <mask id="mask-49" maskContentUnits="userSpaceOnUse" maskUnits="objectBoundingBox" x="0" y="0" width="3.8296875" height="2.33194444" fill="white">
            <use xlink:href="#path-47"></use>
        </mask>
        <rect id="path-50" x="0" y="0.304166667" width="0.70546875" height="0.709722222" rx="0.0252"></rect>
        <mask id="mask-51" maskContentUnits="userSpaceOnUse" maskUnits="objectBoundingBox" x="-0.5" y="-0.5" width="2" height="2">
            <rect x="-0.5" y="-0.195833333" width="2" height="2" fill="white"></rect>
            <use xlink:href="#path-50" fill="black"></use>
        </mask>
        <path d="M0.30234375,0.101388889 L0.30234375,0.0255846977 C0.30234375,0.0114546593 0.313424979,0 0.327451756,0 L0.982704494,0 C0.996571263,0 1.0078125,0.0111480413 1.0078125,0.0252593896 L1.0078125,0.684462833 C1.0078125,0.698413208 0.997027141,0.709722222 0.982381135,0.709722222 L0.90703125,0.709722222" id="path-52"></path>
        <mask id="mask-53" maskContentUnits="userSpaceOnUse" maskUnits="objectBoundingBox" x="-0.5" y="-0.5" width="2" height="2">
            <rect x="-0.19765625" y="-0.5" width="2" height="2" fill="white"></rect>
            <use xlink:href="#path-52" fill="black"></use>
        </mask>
        <rect id="path-54" x="0" y="0" width="52.809375" height="2.33194444" rx="0.4032"></rect>
        <filter x="-50%" y="-50%" width="200%" height="200%" filterUnits="objectBoundingBox" id="filter-55">
            <feOffset dx="0" dy="0" in="SourceAlpha" result="shadowOffsetOuter1"></feOffset>
            <feComposite in="shadowOffsetOuter1" in2="SourceAlpha" operator="out" result="shadowOffsetOuter1"></feComposite>
            <feColorMatrix values="0 0 0 0 0   0 0 0 0 0   0 0 0 0 0  0 0 0 0.05 0" type="matrix" in="shadowOffsetOuter1"></feColorMatrix>
        </filter>
        <mask id="mask-56" maskContentUnits="userSpaceOnUse" maskUnits="objectBoundingBox" x="0" y="0" width="52.809375" height="2.33194444" fill="white">
            <use xlink:href="#path-54"></use>
        </mask>
        <rect id="path-57" x="0" y="0" width="54.825" height="60.0222222" rx="1.12896"></rect>
        <mask id="mask-58" maskContentUnits="userSpaceOnUse" maskUnits="objectBoundingBox" x="0" y="0" width="54.825" height="60.0222222" fill="white">
            <use xlink:href="#path-57"></use>
        </mask>
        <linearGradient x1="49.9999972%" y1="-0.000522115834%" x2="49.9999972%" y2="99.9994882%" id="linearGradient-59">
            <stop stop-color="#D11A1C" offset="0%"></stop>
            <stop stop-color="#FFE500" offset="100%"></stop>
        </linearGradient>
        <linearGradient x1="50.0001804%" y1="99.9998541%" x2="50.0001804%" y2="0.000583600817%" id="linearGradient-60">
            <stop stop-color="#FFE900" offset="0%"></stop>
            <stop stop-color="#DC5F13" offset="100%"></stop>
        </linearGradient>
        <linearGradient x1="4.24998921%" y1="50.0619108%" x2="103.198466%" y2="49.5635078%" id="linearGradient-61">
            <stop stop-color="#F0BAA2" offset="0%"></stop>
            <stop stop-color="#F5CFAC" offset="39.85%"></stop>
            <stop stop-color="#F8DDB2" offset="75.52%"></stop>
            <stop stop-color="#F9E2B5" offset="100%"></stop>
        </linearGradient>
        <linearGradient x1="65.6957268%" y1="104.494064%" x2="36.002619%" y2="-4.66733375%" id="linearGradient-62">
            <stop stop-color="#F0BAA2" offset="0%"></stop>
            <stop stop-color="#F5CFAC" offset="39.85%"></stop>
            <stop stop-color="#F8DDB2" offset="75.52%"></stop>
            <stop stop-color="#F9E2B5" offset="100%"></stop>
        </linearGradient>
        <linearGradient x1="49.999845%" y1="100.000325%" x2="49.999845%" y2="0.00113782286%" id="linearGradient-63">
            <stop stop-color="#F0BAA2" offset="0%"></stop>
            <stop stop-color="#F1C0A4" offset="8.45%"></stop>
            <stop stop-color="#F6D6AB" offset="46.27%"></stop>
            <stop stop-color="#F9E3AE" offset="78.14%"></stop>
            <stop stop-color="#FAE7AF" offset="100%"></stop>
        </linearGradient>
        <linearGradient x1="5.53421183%" y1="92.6961048%" x2="99.9681373%" y2="0.043853771%" id="linearGradient-64">
            <stop stop-color="#F0BAA2" offset="0%"></stop>
            <stop stop-color="#F5CFAC" offset="39.85%"></stop>
            <stop stop-color="#F8DDB2" offset="75.52%"></stop>
            <stop stop-color="#F9E2B5" offset="100%"></stop>
        </linearGradient>
        <linearGradient x1="50.0032353%" y1="99.9993339%" x2="50.0032353%" y2="-0.00049960864%" id="linearGradient-65">
            <stop stop-color="#EC9500" offset="0%"></stop>
            <stop stop-color="#E8810B" offset="6.37%"></stop>
            <stop stop-color="#E26614" offset="16.27%"></stop>
            <stop stop-color="#DE4F18" offset="27.14%"></stop>
            <stop stop-color="#DC3A1A" offset="39.14%"></stop>
            <stop stop-color="#DA281B" offset="52.88%"></stop>
            <stop stop-color="#D9191B" offset="69.89%"></stop>
            <stop stop-color="#D9121B" offset="100%"></stop>
        </linearGradient>
        <linearGradient x1="50.0002741%" y1="100.000359%" x2="50.0002741%" y2="0.000449155587%" id="linearGradient-66">
            <stop stop-color="#E42E18" offset="0%"></stop>
            <stop stop-color="#FDD403" offset="100%"></stop>
        </linearGradient>
        <linearGradient x1="-0.000954889317%" y1="49.999905%" x2="99.9994483%" y2="49.999905%" id="linearGradient-67">
            <stop stop-color="#E42E18" offset="0%"></stop>
            <stop stop-color="#FDD403" offset="100%"></stop>
        </linearGradient>
        <linearGradient x1="100.000657%" y1="49.9998465%" x2="-0.00347230841%" y2="49.9998465%" id="linearGradient-68">
            <stop stop-color="#CB2F21" offset="0%"></stop>
            <stop stop-color="#CC3721" offset="9.55%"></stop>
            <stop stop-color="#CF4C21" offset="23.88%"></stop>
            <stop stop-color="#D56920" offset="41.2%"></stop>
            <stop stop-color="#DE8F1C" offset="60.85%"></stop>
            <stop stop-color="#EABA0F" offset="82.18%"></stop>
            <stop stop-color="#F5DE00" offset="100%"></stop>
        </linearGradient>
        <linearGradient x1="-14.0292303%" y1="40.4436359%" x2="128.839768%" y2="57.5183851%" id="linearGradient-69">
            <stop stop-color="#EEAB0C" offset="0%"></stop>
            <stop stop-color="#EA8912" offset="21.99%"></stop>
            <stop stop-color="#E66415" offset="46.63%"></stop>
            <stop stop-color="#E54517" offset="68.74%"></stop>
            <stop stop-color="#E42D18" offset="87.28%"></stop>
            <stop stop-color="#E32119" offset="100%"></stop>
        </linearGradient>
        <rect id="path-70" x="0" y="0" width="48.85875" height="5.51555556" rx="0.64512"></rect>
        <mask id="mask-71" maskContentUnits="userSpaceOnUse" maskUnits="objectBoundingBox" x="0" y="0" width="48.85875" height="5.51555556" fill="white">
            <use xlink:href="#path-70"></use>
        </mask>
        <rect id="path-72" x="0" y="0" width="4.8375" height="3.24444444" rx="0.32256"></rect>
        <rect id="path-74" x="0.115178571" y="0.108148148" width="4.60714286" height="3.02814815" rx="0.16128"></rect>
    </defs>
    <g id="Page-1" stroke="none" stroke-width="1" fill="none" fill-rule="evenodd">
        <g id="Homepage" transform="translate(-436.000000, -845.000000)">
            <g id="ClickToCallIcon" transform="translate(436.000000, 845.000000)">
                <g id="Homecinema" stroke="#314E55" stroke-linejoin="round">
                    <use id="Rectangle-1175" mask="url(#mask-2)" stroke-width="4" stroke-linecap="round" fill="#FFFFFF" xlink:href="#path-1"></use>
                    <use id="Rectangle-1175" mask="url(#mask-4)" stroke-width="4" stroke-linecap="round" fill="#D8D8D8" xlink:href="#path-3"></use>
                    <path d="M70.1538462,96.525 L32.1538462,117" id="Line" stroke-width="2" stroke-linecap="round"></path>
                    <path d="M119.846154,96.525 L81.8461538,117" id="Line" stroke-width="2" stroke-linecap="round" transform="translate(100.846154, 106.762500) scale(-1, 1) translate(-100.846154, -106.762500) "></path>
                    <path d="M76,99.45 L76,111.15" id="Line" stroke-width="2" stroke-linecap="square"></path>
                    <use id="Rectangle-1180" mask="url(#mask-6)" stroke-width="4" stroke-linecap="round" xlink:href="#path-5"></use>
                </g>
                <g id="Safari" transform="translate(12.000000, 2.549988)">
                    <mask id="mask-9" fill="white">
                        <use xlink:href="#path-8"></use>
                    </mask>
                    <g id="window">
                        <use fill="url(#linearGradient-7)" fill-rule="evenodd" xlink:href="#path-8"></use>
                        <use fill="black" fill-opacity="1" filter="url(#filter-10)" xlink:href="#path-8"></use>
                        <use stroke-opacity="0.218325408" stroke="#000000" mask="url(#mask-11)" stroke-width="1" xlink:href="#path-8"></use>
                    </g>
                    <g id="website" mask="url(#mask-9)">
                        <g transform="translate(-0.050391, 6.184722)">
                            <mask id="mask-13" fill="white">
                                <use xlink:href="#path-12"></use>
                            </mask>
                            <g id="Mask" stroke="none" fill="none">
                                <use fill="#333333" fill-rule="evenodd" xlink:href="#path-12"></use>
                                <use stroke="#A3A1A3" mask="url(#mask-14)" stroke-width="1" xlink:href="#path-12"></use>
                                <use stroke="#A3A1A3" mask="url(#mask-15)" stroke-width="1" xlink:href="#path-12"></use>
                            </g>
                            <rect id="PLACE-YOUR-WEBSITE-HERE" stroke="none" fill="#FFFFFF" fill-rule="evenodd" mask="url(#mask-13)" x="0" y="0" width="129.100781" height="66.9673611"></rect>
                        </g>
                    </g>
                    <g id="traffic-light" mask="url(#mask-9)">
                        <g transform="translate(1.310156, 1.267361)">
                            <use id="green" stroke="#1BAC2B" mask="url(#mask-18)" fill="url(#radialGradient-16)" xlink:href="#path-17"></use>
                            <use id="orange" stroke="#DFA023" mask="url(#mask-21)" fill="url(#radialGradient-19)" xlink:href="#path-20"></use>
                            <use id="red" stroke="#E1453F" mask="url(#mask-24)" fill="url(#radialGradient-22)" xlink:href="#path-23"></use>
                        </g>
                    </g>
                    <g id="title" mask="url(#mask-9)" letter-spacing="0.0504000016" font-family=".HelveticaNeueDeskInterface-Regular, .Helvetica Neue DeskInterface" font-size="1.0584" font-weight="normal">
                        <g transform="translate(57.856250, 4.359722)" id="TITLE">
                            <text>
                                <tspan x="1.00279248" y="1" fill="#272527">Awesome Website</tspan>
                            </text>
                        </g>
                    </g>
                    <g id="new-tab" mask="url(#mask-9)">
                        <g transform="translate(126.581250, 3.751389)">
                            <use id="button" stroke="url(#linearGradient-26)" mask="url(#mask-28)" fill="url(#linearGradient-25)" xlink:href="#path-27"></use>
                            <g id="+" stroke="none" fill="none" transform="translate(0.705469, 0.659028)" stroke-linecap="square">
                                <path id="Line" stroke="#6A686A" stroke-width="0.5"></path>
                                <path id="Line-Copy-5" stroke="#6A686A" stroke-width="0.5"></path>
                            </g>
                        </g>
                    </g>
                    <g id="line" mask="url(#mask-9)" stroke-linecap="square" stroke-width="0.5">
                        <g transform="translate(-0.403125, 3.751389)">
                            <path id="bottom" stroke="#C0BEC0"></path>
                            <path id="top" stroke="#BFBDBF"></path>
                        </g>
                    </g>
                    <g id="controls" mask="url(#mask-9)">
                        <g transform="translate(7.810547, 0.760417)">
                            <g id="backward">
                                <g id="button">
                                    <use fill="black" fill-opacity="1" filter="url(#filter-32)" xlink:href="#path-31"></use>
                                    <use stroke="url(#linearGradient-30)" mask="url(#mask-33)" stroke-width="1" fill="url(#linearGradient-29)" fill-rule="evenodd" xlink:href="#path-31"></use>
                                </g>
                                <g id="backward-icon" transform="translate(0.957422, 0.659028)" stroke="#808080" stroke-width="0.5" stroke-linecap="round">
                                    <path d="M0,0.506944444 L0.50390625,0" id="Line"></path>
                                    <path d="M0,0.506944444 L0.50390625,1.01388889" id="Line-Copy-4"></path>
                                </g>
                            </g>
                            <g id="forward" transform="translate(2.670703, 0.000000)">
                                <g id="button">
                                    <use fill="black" fill-opacity="1" filter="url(#filter-35)" xlink:href="#path-34"></use>
                                    <use stroke="url(#linearGradient-30)" mask="url(#mask-36)" stroke-width="1" fill="url(#linearGradient-29)" fill-rule="evenodd" xlink:href="#path-34"></use>
                                </g>
                                <g id="forward-icon" transform="translate(1.112500, 1.659028) scale(-1, 1) translate(-1.112500, -1.659028) translate(0.612500, 0.659028)" stroke="#C6C6C6" stroke-width="0.5" stroke-linecap="round">
                                    <path d="M0,0.506944444 L0.50390625,0" id="Line"></path>
                                    <path d="M0,0.506944444 L0.50390625,1.01388889" id="Line-Copy-4"></path>
                                </g>
                            </g>
                            <g id="sidebar" transform="translate(6.147656, 0.000000)">
                                <g id="button">
                                    <use fill="black" fill-opacity="1" filter="url(#filter-38)" xlink:href="#path-37"></use>
                                    <use stroke="url(#linearGradient-30)" mask="url(#mask-39)" stroke-width="1" fill="url(#linearGradient-29)" fill-rule="evenodd" xlink:href="#path-37"></use>
                                </g>
                                <g id="sidebar-icon" transform="translate(1.259766, 0.608333)">
                                    <use id="Rectangle-9" stroke="#737373" mask="url(#mask-41)" xlink:href="#path-40"></use>
                                    <path id="Line" stroke="#737373" stroke-width="0.5" stroke-linecap="square"></path>
                                    <path id="Line" stroke="#A8A8A8" stroke-width="0.5" stroke-linecap="square"></path>
                                    <path id="Line-Copy" stroke="#A8A8A8" stroke-width="0.5" stroke-linecap="square"></path>
                                    <path id="Line-Copy-2" stroke="#A8A8A8" stroke-width="0.5" stroke-linecap="square"></path>
                                </g>
                            </g>
                            <g id="share" transform="translate(112.068750, 0.000000)">
                                <g id="button">
                                    <use fill="black" fill-opacity="1" filter="url(#filter-43)" xlink:href="#path-42"></use>
                                    <use stroke="url(#linearGradient-30)" mask="url(#mask-44)" stroke-width="1" fill="url(#linearGradient-29)" fill-rule="evenodd" xlink:href="#path-42"></use>
                                </g>
                                <g id="share-icon" transform="translate(1.461328, 0.405556)" stroke="#737373">
                                    <use id="Rectangle-10-Copy-2" mask="url(#mask-46)" xlink:href="#path-45"></use>
                                    <path id="Line" stroke-width="0.5" stroke-linecap="square"></path>
                                    <path id="Line" stroke-width="0.5" stroke-linecap="round"></path>
                                    <path id="Line-Copy-3" stroke-width="0.5" stroke-linecap="round"></path>
                                </g>
                            </g>
                            <g id="show-all-tabs-+-Rectangle-10-+-Rectangle-10-Copy" transform="translate(116.603906, 0.000000)">
                                <g id="button">
                                    <use fill="black" fill-opacity="1" filter="url(#filter-48)" xlink:href="#path-47"></use>
                                    <use stroke="url(#linearGradient-30)" mask="url(#mask-49)" stroke-width="1" fill="url(#linearGradient-29)" fill-rule="evenodd" xlink:href="#path-47"></use>
                                </g>
                                <g id="tabs-icon" transform="translate(1.410937, 0.659028)" stroke="#737373">
                                    <use id="Rectangle-10" mask="url(#mask-51)" xlink:href="#path-50"></use>
                                    <use id="Rectangle-10-Copy" mask="url(#mask-53)" xlink:href="#path-52"></use>
                                </g>
                            </g>
                        </g>
                    </g>
                    <g id="address-and-search-+-refresh" mask="url(#mask-9)">
                        <g transform="translate(36.533203, 0.760417)">
                            <g id="address-and-search">
                                <use fill="black" fill-opacity="1" filter="url(#filter-55)" xlink:href="#path-54"></use>
                                <use stroke="url(#linearGradient-30)" mask="url(#mask-56)" stroke-width="1" fill="url(#linearGradient-29)" fill-rule="evenodd" xlink:href="#path-54"></use>
                            </g>
                            <g id="refresh" stroke-width="1" fill-rule="evenodd" transform="translate(50.045703, 0.405556)">
                                <path d="M1.50390625,0.304166667 C1.22560651,0.304166667 1,0.531133425 1,0.811111111 C1,1.0910888 1.22560651,1.31805556 1.50390625,1.31805556 C1.78220599,1.31805556 2.0078125,1.0910888 2.0078125,0.811111111 L2.0078125,0.760416667" id="Oval-4" stroke="#808080" stroke-width="0.5"></path>
                                <polygon id="Triangle-1" fill="#808080" transform="translate(1.408398, 0.552365) rotate(-270.000000) translate(-1.408398, -0.552365) " points="1.18554688 0.0523654514 1.46269531 0.507990451 0.908398438 0.507990451"></polygon>
                            </g>
                            <g id="url" stroke-width="1" fill-rule="evenodd" transform="translate(20.458594, 0.456250)">
                                <g id="padlock" transform="translate(0.000000, 0.253472)">
                                    <path d="M0.151171875,0.2278125 C0.151171875,0.10199513 0.248330069,0 0.379535151,0 L0.426714849,0 C0.552836404,0 0.655078125,0.105674744 0.655078125,0.2278125 L0.655078125,0.455625 L0.151171875,0.455625 L0.151171875,0.2278125 Z" id="Rectangle-12" stroke="#13C577" stroke-width="0.5"></path>
                                    <rect id="Rectangle-11" fill="#13C577" x="0" y="0.354861111" width="0.80625" height="0.608333333"></rect>
                                </g>
                                <text id="URL" font-family=".HelveticaNeueDeskInterface-Regular, .Helvetica Neue DeskInterface" font-size="1.1592" font-weight="normal" letter-spacing="0.0403200019" fill="#13C577">
                                    <tspan x="1.62157807" y="1">Awesome Website</tspan>
                                </text>
                            </g>
                        </g>
                    </g>
                    <g id="ClickToCall" mask="url(#mask-9)">
                        <g transform="translate(36.885938, 9.682639)">
                            <use id="Rectangle-121" stroke="#B7BCC0" mask="url(#mask-58)" stroke-width="1" fill="#FFFFFF" fill-rule="evenodd" xlink:href="#path-57"></use>
                            <g id="Sub-Header-Text" stroke="none" stroke-width="1" fill="none" fill-rule="evenodd" transform="translate(0.773750, 12.491111)" font-size="2.90304" font-family="Raleway-Medium, Raleway" font-weight="400">
                                <text id="Want-to-talk-with-us" fill="#777777">
                                    <tspan x="12.4051449" y="3">Want to talk with us?</tspan>
                                    <tspan x="1.41859" y="7"> </tspan>
                                    <tspan x="2.15305912" y="7" font-family="Raleway-Regular, Raleway" font-weight="normal">Let’s do it </tspan>
                                    <tspan x="15.8466988" y="7" font-family="Raleway-SemiBoldItalic, Raleway" font-style="italic" font-weight="500">now</tspan>
                                    <tspan x="21.4611782" y="7" font-family="Raleway-Regular, Raleway" font-weight="normal">, totally </tspan>
                                    <tspan x="32.0021164" y="7" font-family="Raleway-SemiBold, Raleway" font-weight="500">free</tspan>
                                    <tspan x="37.5759532" y="7" font-family="Raleway-Regular, Raleway" font-weight="normal"> of charge!</tspan>
                                    <tspan x="51.85891" y="7"> </tspan>
                                </text>
                            </g>
                            <g id="Call_Burn-LOGO" stroke="none" stroke-width="1" fill="none" fill-rule="evenodd" transform="translate(40.151250, 54.993333)">
                                <g id="Burn" transform="translate(5.661952, 0.000000)">
                                    <path d="M0.390950263,0.711143721 L0.0059753686,3.58643955 L1.08952796,3.74868955 C1.63326503,3.83006976 2.00650546,3.63148418 2.08351854,3.0564633 C2.13329197,2.68436657 2.03715383,2.48881161 1.81938751,2.348414 C2.05452928,2.23695087 2.16059195,2.08459028 2.20418141,1.75903754 C2.2777556,1.20937818 2.00623397,0.953019357 1.45845469,0.871001122 L0.390950263,0.711143721 L0.390950263,0.711143721 Z M1.22231745,2.54361804 C1.44222554,2.57654018 1.55941935,2.70621896 1.52771518,2.94305419 C1.48982704,3.22630581 1.35625324,3.27964478 1.12835124,3.24554229 L0.624583749,3.17009572 L0.718549961,2.46820338 L1.22231745,2.54361804 L1.22231745,2.54361804 Z M1.36367401,1.36572644 C1.5716063,1.39689401 1.6659345,1.51451409 1.63423033,1.75128552 C1.60370263,1.97963501 1.49187831,2.08363324 1.27598227,2.05131722 L0.784190563,1.97768903 L0.875894346,1.29267247 L1.36367401,1.36572644 L1.36367401,1.36572644 Z" id="Shape-Copy-33" fill="url(#linearGradient-59)"></path>
                                    <path d="M4.60220517,3.72256239 L5.14334799,3.72256239 L5.14334799,2.29191681 C5.14334799,2.29191681 5.43004297,2.18514316 5.78536496,2.11253581 L5.78536496,1.53604747 C5.47845895,1.60010527 5.13927561,1.81362066 5.13927561,1.81362066 L5.13927561,1.58728095 L4.602175,1.58728095 L4.602175,3.72256239 L4.60220517,3.72256239 L4.60220517,3.72256239 Z M6.73434829,3.72256239 L6.73434829,2.12539204 C6.73434829,2.12539204 6.91205453,2.04850991 7.10182707,2.04850991 C7.36429898,2.04850991 7.40472104,2.25778242 7.40472104,2.58231432 L7.40472104,3.72256239 L7.94583369,3.72256239 L7.94583369,2.56524712 C7.94583369,1.91187665 7.80049526,1.53604747 7.23509921,1.53604747 C7.00490461,1.53604747 6.73036641,1.70684701 6.73036641,1.70684701 L6.73036641,1.58728095 L6.1932658,1.58728095 L6.1932658,3.72256239 L6.73434829,3.72256239 L6.73434829,3.72256239 L6.73434829,3.72256239 Z" id="Shape-Copy-34" fill="url(#linearGradient-60)"></path>
                                    <path d="M2.89898839,1.73887592 C2.66767767,2.17455193 2.70526415,2.79110831 3.47654123,3.02156328 C3.58010014,3.05250754 3.90362747,3.02660369 4.03886038,2.78322869 C4.24582738,2.41081294 4.00634174,2.10178507 3.84691592,1.87238285 L4.03551199,1.78835483 C4.08558708,1.83266573 4.13671797,1.87420122 4.18721539,1.92511569 C4.45451381,2.19496876 4.6086003,2.66005778 4.36184473,3.17453 C4.11508915,3.68906603 3.6120758,3.72919786 3.44118701,3.72919786 C3.27038872,3.72919786 2.73407241,3.62657138 2.53956386,3.17714591 C2.28327592,2.58496212 2.46933807,2.0261152 2.61175043,1.87557298 C2.62553616,1.86096218 2.64007604,1.84351217 2.6550684,1.82398858 L2.76164388,1.77342502 L2.79039181,1.78704688 C2.74478124,1.87573248 2.71138779,1.92077711 2.71138779,1.92077711 C2.74131219,1.8762429 2.8277068,1.76076021 2.85422247,1.71794867 L2.89898839,1.73887592 L2.89898839,1.73887592 Z" id="Shape-Copy-51" fill="#FCE1D2"></path>
                                    <path d="M2.8447806,1.80066873 C2.61346987,2.23634475 2.82996923,2.79755237 3.46142821,2.96452376 C3.56583176,2.99211838 3.88851444,2.96956417 4.02374736,2.72618917 C4.23071435,2.35377342 3.99122871,2.04474556 3.83180289,1.81534333 L3.95946421,1.75881423 C4.00953931,1.80312513 4.0606702,1.84466062 4.11116761,1.89557509 C4.37846604,2.16542816 4.59345711,2.60301826 4.3467317,3.11749048 C4.09997613,3.63202651 3.59696278,3.67215834 3.42607399,3.67215834 C3.25527569,3.67215834 2.71895939,3.56953187 2.52445084,3.12010639 C2.2681629,2.52792261 2.45422505,1.96907568 2.5966374,1.81853346 C2.61042314,1.80392266 2.62496301,1.78647265 2.63995537,1.76694906 L2.74653086,1.7163855 L2.77527878,1.73000736 C2.72966822,1.81869296 2.69627477,1.86373759 2.69627477,1.86373759 C2.72619916,1.81920338 2.75431361,1.7754667 2.78082928,1.73265516 L2.8447806,1.80066873 L2.8447806,1.80066873 Z" id="Shape-Copy-52" fill="#FACCB0"></path>
                                    <path d="M2.70707474,1.42477522 C2.70261431,1.27036145 2.67559992,1.11056374 2.60707474,0.982528057 C2.60707474,0.982528057 2.63585172,1.19775798 2.62232654,1.45395678 L2.70707474,1.42477522 L2.70707474,1.42477522 Z" id="Shape-Copy-53" fill="url(#linearGradient-61)"></path>
                                    <path d="M3.02006649,1.45728316 C3.00927721,1.22440369 2.90087206,0.983070379 2.66510517,0.868417117 C2.60027907,0.836802931 2.63089893,0.862706784 2.63089893,0.862706784 C2.73279435,1.11995885 2.74894813,1.268906 2.73276421,1.4065282 L3.02006649,1.45728316 L3.02006649,1.45728316 Z" id="Shape-Copy-54" fill="url(#linearGradient-62)"></path>
                                    <path d="M2.53244475,0.584623175 C2.53244475,0.584623175 2.99536786,0.907272897 2.96043596,1.47320191 C2.96043596,1.47320191 2.90764596,1.90386943 2.74019605,2.11164258 C2.57482759,2.31686362 2.32882616,2.54722289 2.32882616,2.54722289 C2.32882616,2.54722289 2.18216044,2.29207631 2.4569098,1.71935232 C2.73165916,1.14662833 2.53244475,0.584623175 2.53244475,0.584623175 L2.53244475,0.584623175 Z" id="Shape-Copy-55" fill="url(#linearGradient-63)" opacity="0.6"></path>
                                    <path d="M2.52991083,0.563376911 C2.52991083,0.563376911 2.99283394,0.886026633 2.95790204,1.45195565 C2.95790204,1.45195565 2.92019489,1.90390133 2.73766213,2.09039631 C2.5543149,2.27775263 2.32629224,2.52594472 2.32629224,2.52594472 C2.32629224,2.52594472 2.17962652,2.27079815 2.45437588,1.69807416 C2.72912524,1.12535017 2.52991083,0.563376911 2.52991083,0.563376911 L2.52991083,0.563376911 Z" id="Shape-Copy-56"></path>
                                    <path d="M2.94051445,0.246565127 C3.07317779,0.468151539 3.3275221,0.667694154 2.99922786,1.51202579 L2.84360414,1.47211727 C3.14347699,0.599202068 2.94051445,0.246565127 2.94051445,0.246565127 L2.94051445,0.246565127 L2.94051445,0.246565127 Z" id="Shape-Copy-57" fill="#FDF3DA"></path>
                                    <path d="M2.94243186,0.324691404 C3.06022073,0.55546539 3.27283809,0.683644802 2.90695037,1.46883143 L2.75431361,1.41766175 C3.11066719,0.568800132 2.94243186,0.324691404 2.94243186,0.324691404 L2.94243186,0.324691404 L2.94243186,0.324691404 Z" id="Shape-Copy-58" fill="#FACCB0"></path>
                                    <path d="M4.22724529,2.41728891 C4.20652144,2.23111293 4.1050138,2.17273356 3.86833358,1.98509013 C3.80561905,1.9352922 3.74788187,1.86896941 3.70127583,1.79215108 L3.97931326,1.67360586 C4.03478801,1.73775937 4.07183151,1.78781251 4.14335443,1.88294218 C4.36353401,2.1761151 4.22724529,2.41728891 4.22724529,2.41728891 L4.22724529,2.41728891 L4.22724529,2.41728891 Z" id="Shape-Copy-59" fill="#FEF5DD"></path>
                                    <path d="M3.62397207,1.63950338 C3.54652226,1.45741077 3.53499681,1.23965251 3.65254432,1.04084363 C3.69043951,0.976785824 3.67818995,1.01621583 3.67818995,1.01621583 C3.72121427,1.26035646 3.78191898,1.43380381 3.85360606,1.53454811 L3.62397207,1.63950338 L3.62397207,1.63950338 Z" id="Shape-Copy-60" fill="#FDF3DA"></path>
                                    <path d="M4.07406378,1.77096862 C3.91569376,1.56361019 3.86806209,1.49728739 3.79500072,1.19409746 C3.72187902,0.890939433 3.86052066,0.45073343 4.23765247,0.343895985 C4.30664146,0.324276688 4.27228271,0.344374505 4.27228271,0.344374505 C4.00103257,0.79596927 4.10428983,0.910941546 4.10190673,1.29697915 C4.09961414,1.67137277 4.07656753,1.80022211 4.07656753,1.80022211 L4.07406378,1.77096862 L4.07406378,1.77096862 Z" id="Shape-Copy-61" fill="url(#linearGradient-64)"></path>
                                    <path d="M2.54852308,2.19002406 C2.6275271,2.12839076 2.70831089,2.06414154 2.77265437,1.98499443 C2.80318207,1.9475104 2.8245394,1.87681713 2.84903397,1.8221383 C2.85772169,1.80271041 2.84752568,1.78108133 2.85247286,1.76388653 C2.84981827,1.74736166 2.84734469,1.73054968 2.84511242,1.71341868 L2.71259442,1.65060503 L2.51657759,1.74356541 C2.49573308,1.87289327 2.49081606,2.03779107 2.52152476,2.21037709 C2.53054431,2.20358211 2.5396242,2.19697855 2.54852308,2.19002406 L2.54852308,2.19002406 L2.54852308,2.19002406 Z M2.83651519,1.52032013 C2.84134171,1.44717045 2.85760103,1.37497782 2.89325691,1.30970776 C3.22577362,0.700392983 2.98511152,0.423713031 2.78809922,0.294799889 C2.78809922,0.294799889 3.01042056,0.867204867 2.7123531,1.45875062 L2.71377089,1.45626232 L2.71497751,1.46267448 L2.83651519,1.52032013 L2.83651519,1.52032013 Z M2.70864271,1.46344011 C2.75938145,1.32010759 2.85509727,0.816673212 2.73027153,0.493385465 C2.73027153,0.493385465 2.76921548,1.14780868 2.58233885,1.52338265 L2.70864271,1.46344011 L2.70864271,1.46344011 Z" id="Shape-Copy-62" fill="url(#linearGradient-65)"></path>
                                    <path d="M3.12438664,0.00191407784 C3.21711606,0.247235055 3.53355444,0.757304898 2.92465942,1.56217463 L2.77199072,1.48972678 C3.23714609,0.646575495 3.12438664,0.00191407784 3.12438664,0.00191407784 L3.12438664,0.00191407784 L3.12438664,0.00191407784 Z M2.82254847,1.70273175 C2.57597389,2.11237631 2.74571638,2.68092123 3.36836697,2.84553192 C3.47277052,2.87312654 3.7954532,2.85057233 3.93074645,2.60713353 C4.11991567,2.26661908 3.93587462,1.97906078 3.78109432,1.75702775 L3.91877066,1.69606438 C3.94800124,1.72152161 3.98082154,1.74739356 4.01810637,1.77658325 C4.28546513,2.04634062 4.5004562,2.48399452 4.25367046,2.99849864 C4.00685456,3.51297086 3.50390154,3.5531665 3.33301275,3.5531665 C3.16221445,3.5531665 2.62583782,3.45054003 2.4313896,3.00111455 C2.20179832,2.47050027 2.333713,1.97350996 2.46595951,1.76758708 L2.65974408,1.67567945 C2.63045317,1.72707244 2.61120744,1.75310389 2.61120744,1.75310389 C2.62894489,1.72672152 2.64595835,1.70049866 2.66251933,1.67437149 L2.71259442,1.65057313 L2.82254847,1.70273175 L2.82254847,1.70273175 Z M3.68260325,1.61165354 C3.5484563,1.38094336 3.67111011,1.11415281 3.67111011,1.11415281 C3.70739947,1.34224709 3.74386983,1.46851242 3.79955574,1.55984584 L3.68260325,1.61165354 L3.68260325,1.61165354 Z M2.67024175,1.48168766 C2.77636475,1.30406123 2.87220124,1.10576277 2.87220124,1.10576277 C2.83766149,1.25700682 2.79485634,1.38237892 2.75389129,1.48120914 L2.71494735,1.46273829 L2.71232293,1.46076041 L2.7102415,1.46273829 L2.67024175,1.48168766 L2.67024175,1.48168766 Z" id="Shape-Copy-63" fill="url(#linearGradient-66)"></path>
                                    <path d="M3.1385042,0.247203153 C3.23060013,0.490705756 3.46854732,0.795586455 2.97977219,1.58830179 L2.83364945,1.51901217 C3.27931777,0.718736229 3.1385042,0.247203153 3.1385042,0.247203153 L3.1385042,0.247203153 L3.1385042,0.247203153 Z M2.74689284,1.66684279 L2.89030067,1.73485635 C2.65898994,2.17053237 2.7960328,2.73173999 3.42752194,2.89871138 C3.53192549,2.92630601 3.85460818,2.90375179 3.98984109,2.66037679 C4.19680808,2.28796105 3.95732245,1.97893318 3.79789663,1.74953095 L3.92555795,1.69300185 C3.97563304,1.73731275 4.02676393,1.77884824 4.07726134,1.82976271 C4.34455977,2.09961579 4.55955084,2.53720588 4.31282544,3.05167811 C4.06606986,3.56621413 3.56305651,3.60634596 3.39216772,3.60634596 C3.22136942,3.60634596 2.68505312,3.50371949 2.49054457,3.05429401 C2.23425663,2.46211023 2.42031878,1.9032633 2.56273114,1.75272108 C2.57651687,1.73811029 2.59105674,1.72066028 2.60604911,1.70113668 L2.71262459,1.65057313 L2.74137252,1.66419498 L2.74689284,1.66684279 L2.74689284,1.66684279 Z M3.70670566,1.60093471 C3.60305625,1.38757883 3.61044686,1.16733227 3.61044686,1.16733227 C3.66242239,1.35574134 3.72652454,1.47345712 3.79662967,1.56112189 L3.70670566,1.60093471 L3.70670566,1.60093471 Z M2.7493061,1.47894415 C2.84375496,1.31529049 2.92339246,1.15052029 2.92339246,1.15052029 C2.89087382,1.29315099 2.85093441,1.41271705 2.81211113,1.50873996 L2.7493061,1.47894415 L2.7493061,1.47894415 Z" id="Shape-Copy-64" fill="url(#linearGradient-67)"></path>
                                    <path d="M4.19454565,2.45311406 C4.18824102,2.26575774 4.09155989,2.19882882 3.87008319,1.99140659 C3.81141087,1.93637685 3.75895269,1.86530076 3.71844013,1.78471808 L3.99364197,1.66285512 C4.04401872,1.73157052 4.10235922,1.80411407 4.16628038,1.90511358 C4.36317202,2.21627883 4.19454565,2.45311406 4.19454565,2.45311406 L4.19454565,2.45311406 L4.19454565,2.45311406 Z M3.65735455,1.622819 C3.60721912,1.43032657 3.62743015,1.21327014 3.7724066,1.03589893 C3.81913329,0.978731803 3.80127519,1.01570541 3.80127519,1.01570541 C3.8083943,1.2639294 3.84380885,1.40419941 3.90000758,1.51534353 L3.65735455,1.622819 L3.65735455,1.622819 Z" id="Shape-Copy-65" fill="url(#linearGradient-68)"></path>
                                    <path d="M4.06013281,1.8146415 C4.09609701,1.63108143 4.01751749,1.5417259 3.84964443,1.28441003 C3.68171117,1.02712607 3.65224761,0.570873716 3.96990631,0.331869196 C4.02805094,0.288100616 4.00246971,0.319555296 4.00246971,0.319555296 C3.89707504,0.842736572 4.03139155,0.912536611 4.15595709,1.27531816 C4.27676069,1.62715757 4.06013281,1.8146415 4.06013281,1.8146415 L4.06013281,1.8146415 L4.06013281,1.8146415 Z" id="Shape-Copy-66" fill="url(#linearGradient-69)"></path>
                                    <polygon id="Shape-Copy-67" fill="#FFFFFF" points="2.9504049 1.57357425 2.71232293 1.46076041 2.71259447 1.64950237 2.91142354 1.74338175"></polygon>
                                </g>
                                <g id="Call" transform="translate(0.000000, 0.159506)">
                                    <path d="M3.83177017,2.0433738 C3.83177017,1.54529884 3.62245025,1.32817861 3.09910521,1.32817861 C2.7126522,1.32817861 2.28191591,1.45163663 2.28191591,1.45163663 L2.2980244,1.84756364 C2.2980244,1.84756364 2.78915246,1.81349305 3.05482194,1.81349305 C3.21584654,1.81349305 3.2923468,1.86032416 3.2923468,2.0433738 L3.2923468,2.17534947 L2.86161051,2.20938815 C2.41880794,2.24342684 2.15712033,2.37967728 2.15712033,2.86071694 C2.15712033,3.31199269 2.358386,3.55887683 2.78109821,3.55887683 C3.08299672,3.55887683 3.3728591,3.40989777 3.3728591,3.40989777 C3.54190779,3.52908102 3.67879982,3.55887683 3.9485115,3.55887683 L3.96461999,3.12894305 C3.85593291,3.10763298 3.83982442,3.0565271 3.83177017,2.92882621 L3.83177017,2.0433738 L3.83177017,2.0433738 L3.83177017,2.0433738 Z M3.2923468,2.57124457 L3.2923468,3.02676319 C3.2923468,3.02676319 3.07093043,3.09487246 2.89783954,3.09487246 C2.75292343,3.09487246 2.70058591,2.99269261 2.70058591,2.84371355 C2.70058591,2.69042781 2.78511025,2.61810757 2.92601432,2.60531515 L3.2923468,2.57124457 L3.2923468,2.57124457 Z" id="Shape-Copy-68" fill="#23BEFF"></path>
                                    <polygon id="Shape-Copy-69" fill="#23BEFF" points="4.1572281 3.55894063 4.69665148 3.55894063 4.69665148 0.578912843 4.1572281 0.578912843"></polygon>
                                    <path d="M5.52204585,3.55894063 L5.52204585,0.578912843 L4.98262248,0.578912843 L4.98262248,1.60605362 L4.98262248,3.55894063 L5.52204585,3.55894063 Z" id="Shape-Copy-70" fill="#23BEFF"></path>
                                    <path d="M0.305518393,0.396565027 L0.430494963,0.331613986 C0.506995224,0.29186497 0.597824201,0.326924495 0.637944606,0.406422528 L0.759633113,0.647628238 C0.799753518,0.727126271 0.765364599,0.827264443 0.688864338,0.86701346 L0.563887768,0.931964501 C0.487417673,0.971681616 0.39655853,0.936685893 0.356438125,0.857155959 L0.234749618,0.615982151 C0.194629213,0.536420315 0.228987966,0.436345945 0.305518393,0.396565027 L0.305518393,0.396565027 L0.305518393,0.396565027 Z" id="Shape-Copy-71" fill="#23BEFF"></path>
                                    <path d="M2.08224902,2.85331584 C1.91181271,2.89960462 1.62330779,2.96452376 1.45787899,2.98577002 C0.98635865,3.04651009 0.867566052,2.86020652 0.778547018,2.08688717 C0.684671303,1.2712667 0.798546889,1.09794695 1.21812186,1.04393805 C1.38177088,1.0228513 1.67772674,1.0131852 1.87075717,1.01605632 L1.81624772,0.542609167 C1.62946159,0.523915006 1.32789491,0.506592602 1.07884674,0.538621505 C0.271642291,0.64252403 0.0856103079,1.0696186 0.211129861,2.15990924 C0.326905887,3.16566144 0.582168193,3.62169049 1.42131814,3.51367269 C1.64243285,3.48518483 1.94764959,3.40150773 2.13790477,3.33697141 L2.08224902,2.85331584 L2.08224902,2.85331584 Z" id="Shape-Copy-72" fill="#23BEFF"></path>
                                    <path d="M1.09516639,1.20529482 L1.66379018,1.13208134 C1.71467975,1.12550967 1.76134611,1.16417404 1.76756025,1.21799153 L1.83908317,1.8393969 C1.84526714,1.89321439 1.80870629,1.9425657 1.75784689,1.94913737 L1.1892231,2.02231894 C1.13833354,2.02889061 1.09166717,1.99022624 1.0854832,1.93640875 L1.01393012,1.31500338 C1.00774614,1.26121779 1.04427683,1.21183458 1.09516639,1.20529482 L1.09516639,1.20529482 L1.09516639,1.20529482 Z" id="Shape-Copy-73" fill="#23BEFF"></path>
                                    <path d="M1.16036276,2.13336163 L1.25039401,2.12184872 C1.27797061,2.11832824 1.30325418,2.13913395 1.30663337,2.16812238 L1.31806831,2.26685431 C1.32141733,2.29581102 1.30162493,2.32242075 1.27404834,2.32594123 L1.18401709,2.33745414 C1.15644049,2.34097462 1.13115692,2.32016892 1.1278079,2.29118049 L1.11637296,2.19244855 C1.11299378,2.16349184 1.13278617,2.13688211 1.16036276,2.13336163 L1.16036276,2.13336163 L1.16036276,2.13336163 Z" id="Shape-Copy-74" fill="#23BEFF"></path>
                                    <path d="M1.44072295,2.09728127 L1.5307542,2.08576835 C1.5583308,2.08224788 1.58361437,2.10305358 1.58696339,2.13204201 L1.59839833,2.23077394 C1.60174734,2.25976237 1.58195495,2.28634039 1.55437835,2.28986086 L1.4643471,2.30137377 C1.43677051,2.30489425 1.41148693,2.28408855 1.40813792,2.25510012 L1.39670298,2.15636819 C1.39332379,2.12741147 1.41314636,2.10080174 1.44072295,2.09728127 L1.44072295,2.09728127 L1.44072295,2.09728127 Z" id="Shape-Copy-75" fill="#23BEFF"></path>
                                    <path d="M1.72108314,2.061169 L1.81111439,2.04965609 C1.83869098,2.04613561 1.86397456,2.06694131 1.86732357,2.09592974 L1.88096102,2.21362785 C1.88310318,2.23214999 1.87043122,2.24918149 1.85278099,2.25146504 L1.74470729,2.26529322 C1.71713069,2.2688137 1.69184712,2.248008 1.6884981,2.21901957 L1.67706317,2.12028763 C1.67368398,2.0912992 1.69350654,2.06472119 1.72108314,2.061169 L1.72108314,2.061169 L1.72108314,2.061169 Z" id="Shape-Copy-76" fill="#23BEFF"></path>
                                    <path d="M1.19279092,2.41492234 L1.28279199,2.40337771 C1.31036859,2.39988895 1.33565217,2.42069465 1.33903135,2.44968308 L1.35046629,2.54835158 C1.35381531,2.57740344 1.33402291,2.60398146 1.30644632,2.60750193 L1.21641507,2.61901484 C1.18883847,2.62253532 1.1635549,2.60172962 1.16020588,2.57274119 L1.14877095,2.47400926 C1.14539176,2.44502083 1.16518415,2.4184111 1.19279092,2.41492234 L1.19279092,2.41492234 L1.19279092,2.41492234 Z" id="Shape-Copy-77" fill="#23BEFF"></path>
                                    <path d="M1.47312093,2.37877835 L1.56315218,2.36726544 C1.59072878,2.36377668 1.61601235,2.38458238 1.61936137,2.4135391 L1.63079631,2.51227103 C1.63414532,2.54125946 1.61435293,2.56783747 1.58677633,2.57135795 L1.49677526,2.58287086 C1.46916849,2.58639134 1.44391509,2.56558564 1.4405359,2.5365972 L1.42910096,2.43789699 C1.42575194,2.40890856 1.44554434,2.38229883 1.47312093,2.37877835 L1.47312093,2.37877835 L1.47312093,2.37877835 Z" id="Shape-Copy-78" fill="#23BEFF"></path>
                                    <path d="M1.75348112,2.34269795 L1.84351237,2.33118503 C1.87108896,2.32766456 1.89637254,2.34847026 1.89972156,2.37745869 L1.91115649,2.47619062 C1.91453568,2.50517905 1.89471311,2.53175707 1.86713652,2.53527754 L1.77713544,2.54679045 C1.74955884,2.55031093 1.72427527,2.52950523 1.72089608,2.5005168 L1.70946115,2.40178487 C1.70611213,2.37279644 1.72590452,2.34621842 1.75348112,2.34269795 L1.75348112,2.34269795 L1.75348112,2.34269795 Z" id="Shape-Copy-79" fill="#23BEFF"></path>
                                    <path d="M1.2251889,2.69641953 L1.31522015,2.68490662 C1.34279674,2.68138614 1.36808032,2.70219184 1.37142934,2.73118028 L1.38286427,2.82991221 C1.38621329,2.85890064 1.36642089,2.88547865 1.3388443,2.88899913 L1.24881305,2.90051204 C1.22123645,2.90403252 1.19595288,2.88322682 1.19260386,2.85423838 L1.18116893,2.75550645 C1.17778974,2.72651802 1.1976123,2.69994001 1.2251889,2.69641953 L1.2251889,2.69641953 L1.2251889,2.69641953 Z" id="Shape-Copy-80" fill="#23BEFF"></path>
                                    <path d="M1.50551891,2.66027537 L1.59555016,2.64876246 C1.62312676,2.64524198 1.64841033,2.66611111 1.65175935,2.69509954 L1.66319429,2.79376804 C1.6665433,2.82275647 1.64675091,2.84939792 1.61917432,2.85285496 L1.52917324,2.86436788 C1.50159664,2.86788835 1.47631307,2.84708265 1.47293388,2.81809422 L1.46149894,2.71942572 C1.45814993,2.69043729 1.47794232,2.66379584 1.50551891,2.66027537 L1.50551891,2.66027537 L1.50551891,2.66027537 Z" id="Shape-Copy-81" fill="#23BEFF"></path>
                                    <path d="M1.7858791,2.62419499 L1.87591035,2.61268208 C1.90348695,2.60916161 1.92877052,2.62996731 1.93211954,2.65895574 L1.94355447,2.75768767 C1.94690349,2.7866761 1.9271111,2.81325411 1.8995345,2.81677459 L1.80950325,2.8282875 C1.78192666,2.83180798 1.75664308,2.81100228 1.75326389,2.78201385 L1.74182896,2.68328192 C1.73851011,2.65429348 1.75833268,2.62774719 1.7858791,2.62419499 L1.7858791,2.62419499 L1.7858791,2.62419499 Z" id="Shape-Copy-82" fill="#23BEFF"></path>
                                    <path d="M1.62617353,0.122922988 C1.83691124,0.0507212452 2.15546122,0.254297111 2.14475239,0.527627741 C2.03151028,0.240441494 1.8527784,0.164807626 1.62617353,0.122922988 L1.62617353,0.122922988 L1.62617353,0.122922988 Z" id="Shape-Copy-83" fill="#23BEFF"></path>
                                    <path d="M1.81419645,0.028935028 C1.96976704,-0.0243161488 2.2030325,0.125795715 2.19513643,0.327350944 C2.11153457,0.115614877 1.98149058,0.0597629874 1.81419645,0.028935028 L1.81419645,0.028935028 L1.81419645,0.028935028 Z" id="Shape-Copy-84" fill="#23BEFF"></path>
                                    <path d="M0.515721773,3.60052746 C0.335257483,3.66234195 0.06248155,3.48815764 0.0716735354,3.25437895 C0.168626378,3.50005114 0.321635262,3.56472008 0.515721773,3.60052746 L0.515721773,3.60052746 L0.515721773,3.60052746 Z" id="Shape-Copy-85" fill="#23BEFF"></path>
                                    <path d="M0.355020833,3.68163858 C0.221542868,3.72727791 0.0213862627,3.59863779 0.028174812,3.42594413 C0.0999222354,3.60735969 0.211495815,3.65525086 0.355020833,3.68163858 L0.355020833,3.68163858 L0.355020833,3.68163858 Z" id="Shape-Copy-86" fill="#23BEFF"></path>
                                    <path d="M0.083890862,0.259150512 C0.083890862,0.259150512 0.0956275094,0.159054792 0.199477228,0.0883915267 C0.299193475,0.0205192704 0.443472776,0.0497931454 0.443472776,0.0497931454" id="Shape-Copy-87" stroke="#23BEFF" stroke-width="0.5"></path>
                                    <path d="M0.164765152,0.281036363 C0.164765152,0.281036363 0.183833433,0.210246234 0.250150017,0.170410928 C0.329349759,0.122836917 0.424902362,0.149636943 0.424902362,0.149636943" id="Shape-Copy-88" stroke="#23BEFF" stroke-width="0.5"></path>
                                    <path d="M0.25037546,0.330632266 C0.25037546,0.330632266 0.258913946,0.287875728 0.294123889,0.252313018 C0.329333831,0.216750308 0.394473734,0.235649348 0.394473734,0.235649348" id="Shape-Copy-89" stroke="#23BEFF" stroke-width="0.5"></path>
                                </g>
                            </g>
                            <g id="Group-5" stroke="none" stroke-width="1" fill="none" fill-rule="evenodd" transform="translate(2.418750, 38.446667)">
                                <rect id="Rectangle-43-Copy" fill="#22CD78" x="0" y="0" width="50.0145586" height="5.75041264" rx="0.64512"></rect>
                                <text id="Call-me-now" font-family="Helvetica-Bold, Helvetica" font-size="2.58048" font-weight="bold" fill="#FFFFFF">
                                    <tspan x="17.46588" y="4.29777778">Call me now</tspan>
                                </text>
                            </g>
                            <g id="Group-4" stroke="none" stroke-width="1" fill="none" fill-rule="evenodd" transform="translate(3.063750, 32.282222)">
                                <text id="Insert-your-phonenum" font-family="Helvetica" font-size="2.25792" font-weight="normal" fill="#D8D8D8">
                                    <tspan x="18.2651213" y="4.29777778">Insert your phonenumber</tspan>
                                </text>
                                <use id="Rectangle-43-Copy" stroke="#D8D8D8" mask="url(#mask-71)" xlink:href="#path-70"></use>
                                <g id="New-Caller-ID-number-" transform="translate(0.806250, 1.135556)">
                                    <text id="(+39)" font-family="Helvetica-Light, Helvetica" font-size="2.25792" font-weight="300" fill="#777777">
                                        <tspan x="5.71322052" y="3">(+39)</tspan>
                                    </text>
                                    <g id="IT-Copy-3">
                                        <mask id="mask-73" fill="white">
                                            <use xlink:href="#path-72"></use>
                                        </mask>
                                        <use id="background" fill="#FFFFFF" xlink:href="#path-72"></use>
                                        <rect id="left" fill="#229F55" mask="url(#mask-73)" x="0" y="0" width="1.6125" height="3.24444444"></rect>
                                        <rect id="right" fill="#CF3946" mask="url(#mask-73)" x="3.225" y="0" width="1.6125" height="3.24444444"></rect>
                                        <mask id="mask-75" fill="white">
                                            <use xlink:href="#path-74"></use>
                                        </mask>
                                        <use id="overlay" stroke-opacity="0.156646286" stroke="#2F343A" stroke-width="0.5" xlink:href="#path-74"></use>
                                    </g>
                                </g>
                                <path id="Line" stroke="#D8D8D8" stroke-width="0.5" stroke-linecap="square"></path>
                            </g>
                            <text id="Powered-with-♥︎-by" stroke="none" fill="none" font-family="Raleway-Regular, Raleway" font-size="2.25792" font-weight="normal">
                                <tspan x="18.888537" y="58.2911111" fill="#777777">Powered with </tspan>
                                <tspan x="33.8720941" y="58.2911111" font-family="HiraginoSans-W3, Hiragino Sans" font-weight="300" fill="#777777">♥︎</tspan>
                                <tspan x="36.1300141" y="58.2911111" fill="#777777"> by</tspan>
                            </text>
                            <text id="Cannot-answer-now?-T" stroke="none" fill="none" font-family="Raleway-Regular, Raleway" font-size="2.25792" font-weight="normal">
                                <tspan x="16.5760818" y="48.8822222" fill="#343434">Cannot answer now? </tspan>
                                <tspan x="11.4776984" y="51.8822222" fill="#343434">Try to </tspan>
                                <tspan x="18.122757" y="51.8822222" font-family="Raleway-Bold, Raleway" font-weight="bold" fill="#3190E6">schedule this call later!</tspan>
                            </text>
                            <g id="callerid-icon" stroke="none" stroke-width="1" fill="none" fill-rule="evenodd" transform="translate(25.155000, 1.946667)">
                                <path d="M0.601087198,0.763485391 L0.856900018,0.634988025 C1.01348735,0.556349656 1.19940393,0.625710464 1.28152584,0.782987202 L1.53060837,1.26018199 C1.61273027,1.41745873 1.54234007,1.61556935 1.38575274,1.69420772 L1.12993991,1.82270509 C0.973414329,1.90128034 0.787436001,1.83204576 0.705314096,1.67470591 L0.456231567,1.19757424 C0.374109663,1.04017127 0.444438121,0.842186872 0.601087198,0.763485391 L0.601087198,0.763485391 L0.601087198,0.763485391 Z" id="Shape" fill="#23BEFF"></path>
                                <path d="M4.23785266,5.6238541 C3.88898893,5.71543056 3.29845216,5.84386481 2.95983824,5.88589784 C1.99468975,6.00606434 1.75153481,5.63748643 1.56932298,4.10757255 C1.37717007,2.49397129 1.61026044,2.15108023 2.46908267,2.04423051 C2.8040536,2.00251304 3.40984157,1.98338991 3.8049529,1.98907005 L3.69337826,1.05241513 C3.31104831,1.01543111 2.69377561,0.98116094 2.18400235,1.04452605 C0.531746672,1.25008396 0.150960367,2.0950362 0.407884612,4.25203742 C0.644864965,6.24179011 1.16735787,7.14398552 2.88500233,6.93028606 C3.337599,6.87392646 3.96234293,6.70838197 4.35177365,6.58070507 L4.23785266,5.6238541 L4.23785266,5.6238541 Z" id="Shape" fill="#23BEFF"></path>
                                <path d="M3.38131502,2.21861077 C3.48548017,2.20560957 3.58100091,2.28210211 3.59372055,2.38857316 L3.74011982,3.61794457 C3.75277771,3.72441562 3.67794181,3.8220509 3.5738384,3.8350521 L2.4099302,3.97983254 C2.30576505,3.99283374 2.21024431,3.91634121 2.19758642,3.80987016 L2.0511254,2.58049874 C2.03846751,2.4740908 2.11324167,2.37639241 2.21740682,2.36345432 L3.38131502,2.21861077 Z" id="Shape" fill="#23BEFF"></path>
                                <path d="M2.35075502,4.19956308 L2.53483307,4.17674106 C2.59121623,4.16976242 2.64291107,4.21100552 2.64982016,4.26846923 L2.67320005,4.46418535 C2.68004746,4.52158618 2.6395799,4.5743346 2.58319674,4.58131324 L2.39911869,4.60413526 C2.34273553,4.61111389 2.29104069,4.56987079 2.28419328,4.51240708 L2.2608134,4.31669097 C2.2539043,4.25929013 2.29437186,4.20654171 2.35075502,4.19956308 L2.35075502,4.19956308 L2.35075502,4.19956308 Z" id="Shape" fill="#23BEFF"></path>
                                <path d="M2.92462036,4.12818266 L3.10869841,4.10536064 C3.16508157,4.09838201 3.21677641,4.13962511 3.22362382,4.19708882 L3.24700371,4.39280493 C3.25385111,4.45026864 3.21338355,4.50295419 3.1570004,4.50993282 L2.97292234,4.53275484 C2.91653919,4.53973348 2.86484435,4.49849038 2.85799694,4.44102667 L2.83461705,4.24531055 C2.82770796,4.18790971 2.86823721,4.1351613 2.92462036,4.12818266 L2.92462036,4.12818266 L2.92462036,4.12818266 Z" id="Shape" fill="#23BEFF"></path>
                                <path d="M3.49848576,4.05673914 L3.68256381,4.03391712 C3.73894697,4.02693848 3.79064181,4.06818158 3.79748922,4.12564529 L3.82537236,4.35895801 C3.82975223,4.39567443 3.80384312,4.42943593 3.76775543,4.43396261 L3.54678774,4.46137419 C3.49040459,4.46835282 3.43870975,4.42710972 3.43186234,4.36964601 L3.40848245,4.1739299 C3.40157336,4.11646619 3.44210261,4.06378064 3.49848576,4.05673914 L3.49848576,4.05673914 L3.49848576,4.05673914 Z" id="Shape" fill="#23BEFF"></path>
                                <path d="M2.41713169,4.75659518 L2.60114805,4.73371029 C2.65753121,4.72679453 2.70922605,4.76803763 2.71613515,4.82550134 L2.73951503,5.02109171 C2.74636244,5.07868116 2.70589488,5.13136671 2.64951172,5.13834534 L2.46543367,5.16116736 C2.40905051,5.16814599 2.35735567,5.12690289 2.35050827,5.06943918 L2.32712838,4.87372307 C2.32021928,4.81625936 2.36068684,4.76351094 2.41713169,4.75659518 L2.41713169,4.75659518 L2.41713169,4.75659518 Z" id="Shape" fill="#23BEFF"></path>
                                <path d="M2.99093536,4.68508878 L3.17501341,4.66226676 C3.23139656,4.655351 3.2830914,4.6965941 3.28993881,4.75399494 L3.3133187,4.94971105 C3.32016611,5.00717476 3.27969855,5.05986031 3.22331539,5.06683894 L3.03929903,5.08966096 C2.98285418,5.0966396 2.93122103,5.0553965 2.92431193,4.99793279 L2.90093205,4.80227954 C2.89408464,4.74481584 2.9345522,4.69206742 2.99093536,4.68508878 L2.99093536,4.68508878 L2.99093536,4.68508878 Z" id="Shape" fill="#23BEFF"></path>
                                <path d="M3.56480076,4.61370832 L3.74887881,4.5908863 C3.80526196,4.58390767 3.8569568,4.62515077 3.86380421,4.68261448 L3.8871841,4.87833059 C3.89409319,4.9357943 3.85356395,4.98847985 3.79718079,4.99545848 L3.61316443,5.0182805 C3.55678127,5.02525913 3.50508643,4.98401603 3.49817733,4.92655233 L3.47479745,4.73083621 C3.46795004,4.6733725 3.5084176,4.62068696 3.56480076,4.61370832 L3.56480076,4.61370832 L3.56480076,4.61370832 Z" id="Shape" fill="#23BEFF"></path>
                                <path d="M2.48344667,5.31350144 L2.66752472,5.29067942 C2.72390788,5.28370079 2.77560272,5.32494389 2.78245013,5.3824076 L2.80583002,5.57812371 C2.81267742,5.63558742 2.77220986,5.68827297 2.71582671,5.6952516 L2.53174865,5.71807362 C2.4753655,5.72505226 2.42367066,5.68380916 2.41682325,5.62634545 L2.39344336,5.43062933 C2.38653427,5.37316562 2.42706352,5.32048008 2.48344667,5.31350144 L2.48344667,5.31350144 L2.48344667,5.31350144 Z" id="Shape" fill="#23BEFF"></path>
                                <path d="M3.05725034,5.24199481 L3.24132839,5.21917279 C3.29771155,5.21219416 3.34940639,5.253563 3.35625379,5.31102671 L3.37963368,5.50661708 C3.38648109,5.56408079 3.34601353,5.61689208 3.28963037,5.62374497 L3.10561401,5.64656699 C3.04923085,5.65354563 2.99753601,5.61230253 2.99062691,5.55483882 L2.96724703,5.35924844 C2.96039962,5.30178473 3.00086718,5.24897345 3.05725034,5.24199481 L3.05725034,5.24199481 L3.05725034,5.24199481 Z" id="Shape" fill="#23BEFF"></path>
                                <path d="M3.63111569,5.17061439 L3.81519374,5.14779237 C3.8715769,5.14081374 3.92327174,5.18205684 3.93011915,5.23952055 L3.95349904,5.43523666 C3.96034644,5.49270037 3.91987888,5.54538592 3.86349573,5.55236455 L3.67941767,5.57518657 C3.62303452,5.58216521 3.57133968,5.54092211 3.56443058,5.4834584 L3.54105069,5.28774228 C3.53426498,5.23027857 3.57479422,5.1776559 3.63111569,5.17061439 L3.63111569,5.17061439 L3.63111569,5.17061439 Z" id="Shape" fill="#23BEFF"></path>
                                <path d="M3.30431801,0.222231258 C3.73567412,0.0788393051 4.3877097,0.483138976 4.36578994,1.02597092 C4.13399623,0.455621858 3.76815241,0.305413738 3.30431801,0.222231258 L3.30431801,0.222231258 L3.30431801,0.222231258 Z" id="Shape" fill="#23BEFF"></path>
                                <path d="M3.68917954,0.0363013754 C4.00791133,-0.0696647731 4.48582376,0.229047425 4.46964637,0.63012835 C4.29836354,0.208788263 4.03193044,0.0976468764 3.68917954,0.0363013754 L3.68917954,0.0363013754 L3.68917954,0.0363013754 Z" id="Shape" fill="#23BEFF"></path>
                                <path d="M1.03219632,7.10611792 C0.662462516,7.22912449 0.103601344,6.88250978 0.122433811,6.4173064 C0.321070027,6.90617703 0.634553418,7.03486373 1.03219632,7.10611792 L1.03219632,7.10611792 L1.03219632,7.10611792 Z" id="Shape" fill="#23BEFF"></path>
                                <path d="M0.702288552,7.26554049 C0.429125164,7.3563596 0.0195035737,7.10037467 0.0333963771,6.75672626 C0.180227873,7.11773065 0.408563815,7.21303076 0.702288552,7.26554049 L0.702288552,7.26554049 L0.702288552,7.26554049 Z" id="Shape" fill="#23BEFF"></path>
                                <path d="M0.147440857,0.492474712 C0.147440857,0.492474712 0.17145997,0.294055163 0.38398899,0.153979512 C0.588058835,0.0194364717 0.883327218,0.0774660166 0.883327218,0.0774660166" id="Shape" stroke="#23BEFF" stroke-width="0.5"></path>
                                <path d="M0.312981328,0.534926636 C0.312981328,0.534926636 0.352004669,0.394877378 0.487721922,0.316068298 C0.649804628,0.221949173 0.845353555,0.274969613 0.845353555,0.274969613" id="Shape" stroke="#23BEFF" stroke-width="0.5"></path>
                                <path d="M0.488215888,0.589591673 C0.488215888,0.589591673 0.505693199,0.523582793 0.577763945,0.46867997 C0.649834691,0.413777148 0.78316866,0.442954076 0.78316866,0.442954076" id="Shape" stroke="#23BEFF" stroke-width="0.5"></path>
                                <path d="M2.73972872,2.46472962 C2.82868762,2.44397375 2.92314022,2.44620054 3.01095576,2.47132751 C3.10934039,2.4992586 3.1989128,2.55622041 3.26556226,2.63281096 C3.34777255,2.7260612 3.39425985,2.84880951 3.39448294,2.97232758 C3.40112,3.05073255 3.39247509,3.13018219 3.36958003,3.20550814 C3.33918342,3.30697825 3.2859754,3.40058587 3.2219473,3.48503891 C3.15995494,3.56688028 3.08747714,3.64063924 3.0093941,3.70766284 C2.96265582,3.74747013 2.91379814,3.78491318 2.8625422,3.81891983 C2.89288304,3.77157994 2.9164195,3.71821947 2.92015633,3.66177999 C2.92272192,3.62351221 2.91159508,3.58364993 2.8853536,3.55478415 C2.85314434,3.51877064 2.80593199,3.50048898 2.75969567,3.48941001 C2.70961097,3.47929324 2.66047443,3.46310091 2.61554879,3.43885365 C2.516216,3.38837977 2.43473077,3.30516383 2.3854269,3.20644285 C2.34103111,3.11816852 2.32321145,3.0173857 2.33372477,2.91946196 C2.34476794,2.81403311 2.38955415,2.71242555 2.4600241,2.6323986 C2.53230669,2.54940259 2.63163948,2.48966416 2.73972872,2.46472962 L2.73972872,2.46472962 Z M2.56284274,2.77172412 C2.53888797,2.77672752 2.52031536,2.79927033 2.52059423,2.8234626 C2.51970185,2.85051397 2.54279212,2.8757784 2.57028851,2.87723544 C2.59259795,2.87962717 2.61501894,2.86662382 2.62436102,2.8466377 C2.63467914,2.82571688 2.62893446,2.79839061 2.61069649,2.78351785 C2.59784067,2.77238391 2.57949116,2.76779287 2.56284274,2.77172412 L2.56284274,2.77172412 Z M3.13449429,2.77188907 C3.111655,2.77691996 3.0936959,2.79789576 3.09285929,2.82104338 C3.09043314,2.85059644 3.11712081,2.87858251 3.14732222,2.87740038 C3.17953147,2.87866498 3.20708364,2.8466652 3.20100431,2.81554513 C3.19710016,2.7855797 3.1640543,2.76383414 3.13449429,2.77188907 L3.13449429,2.77188907 Z M2.49906562,3.00168821 C2.49861943,3.0913096 2.5343982,3.1802712 2.59666943,3.24550787 C2.64856676,3.30029788 2.71828377,3.33870312 2.79310406,3.35261368 C2.86611171,3.36649675 2.9434697,3.35783702 3.01120674,3.32743172 C3.06416377,3.30348687 3.11159923,3.26739089 3.14743377,3.22200288 C3.19729537,3.15984522 3.22476387,3.08089043 3.22465232,3.00168821 L2.49906562,3.00168821 L2.49906562,3.00168821 Z" id="Shape" fill="#FFFFFF"></path>
                            </g>
                            <text id="Tell-us-your-phonenu" stroke="none" fill="none" font-family="Raleway-Medium, Raleway" font-size="2.25792" font-weight="400">
                                <tspan x="7.10138064" y="22.2777778" fill="#777777">Tell us your phonenumber and we will</tspan>
                                <tspan x="12.7800494" y="25.2777778" fill="#777777"> </tspan>
                                <tspan x="13.3513032" y="25.2777778" font-family="Raleway-SemiBoldItalic, Raleway" font-style="italic" font-weight="500" fill="#777777">#ring</tspan>
                                <tspan x="18.9103022" y="25.2777778" fill="#777777"> you just immediately.</tspan>
                            </text>
                        </g>
                    </g>
                </g>
            </g>
        </g>
    </g>
</svg>