<?xml version="1.0" encoding="UTF-8"?>
<svg width="10px" height="18px" viewBox="0 0 10 18" version="1.1" xmlns="http://www.w3.org/2000/svg" xmlns:xlink="http://www.w3.org/1999/xlink">
    <!-- Generator: Sketch 39.1 (31720) - http://www.bohemiancoding.com/sketch -->
    <title>Group 2</title>
    <desc>Created with Sketch.</desc>
    <defs></defs>
    <g id="Page-1" stroke="none" stroke-width="1" fill="none" fill-rule="evenodd">
        <g id="Group-2" transform="translate(-1.000000, -1.000000)">
            <path d="M3.37196169,9.48319169 L5.53512098,8.40629913 C6.85922717,7.7472578 8.43134222,8.32854706 9.12576699,9.6466297 L11.2320148,13.6458363 C11.9264396,14.963919 11.3312183,16.6242165 10.0071121,17.2832578 L7.84395284,18.3601504 C6.52036876,19.0186628 4.9477316,18.4384314 4.25330682,17.1198198 L2.14705903,13.1211421 C1.45263425,11.8020016 2.04733337,10.1427619 3.37196169,9.48319169 L3.37196169,9.48319169 L3.37196169,9.48319169 Z" id="Shape" fill="#23BEFF" transform="translate(6.689491, 13.383155) rotate(23.000000) translate(-6.689491, -13.383155) "></path>
            <g id="Group" transform="translate(5.376980, 4.831499) rotate(-5.000000) translate(-5.376980, -4.831499) translate(1.376980, 0.331499)" stroke="#23BEFF" stroke-width="1.5">
                <path d="M0.772163151,5.3743828 C0.772163151,5.3743828 0.975269345,3.70509354 2.77241979,2.52664726 C4.49803926,1.39474644 6.99483572,1.88294478 6.99483572,1.88294478" id="Shape" transform="translate(3.883499, 3.576309) rotate(23.000000) translate(-3.883499, -3.576309) "></path>
                <path d="M2.15005713,6.43213157 C2.15005713,6.43213157 2.48003943,5.25156958 3.62766775,4.58723901 C4.99824297,3.79385058 6.65180935,4.24079272 6.65180935,4.24079272" id="Shape" transform="translate(4.400933, 5.273741) rotate(23.000000) translate(-4.400933, -5.273741) "></path>
                <path d="M3.48779345,7.68726155 C3.48779345,7.68726155 3.63555451,7.1308318 4.2448731,6.66802188 C4.85419168,6.20521197 5.98145717,6.45116238 5.98145717,6.45116238" id="Shape" transform="translate(4.734625, 7.036566) rotate(23.000000) translate(-4.734625, -7.036566) "></path>
            </g>
        </g>
    </g>
</svg>