<?xml version="1.0" encoding="UTF-8"?>
<svg width="15px" height="18px" viewBox="0 0 15 18" version="1.1" xmlns="http://www.w3.org/2000/svg" xmlns:xlink="http://www.w3.org/1999/xlink">
    <!-- Generator: Sketch 39.1 (31720) - http://www.bohemiancoding.com/sketch -->
    <title>Invoices Icon Black</title>
    <desc>Created with Sketch.</desc>
    <defs></defs>
    <g id="Other" stroke="none" stroke-width="1" fill="none" fill-rule="evenodd">
        <g id="Icons-selected-and-unselected" transform="translate(-53.000000, -196.000000)" fill="#777777">
            <g id="Invoices-Icon-Black" transform="translate(53.000000, 196.000000)">
                <path d="M0.0118226601,0.599126819 C-0.0107142857,0.299002079 0.256403941,0.0187110187 0.55455665,0.037047817 C3.15036946,0.0359251559 5.74618227,0.0359251559 8.34199507,0.037047817 C8.34273399,1.09721414 8.34236453,2.15700624 8.34236453,3.21679834 C8.32426108,3.37135135 8.45246305,3.52553015 8.60800493,3.5229106 C9.7182266,3.52553015 10.8284483,3.52328482 11.9390394,3.52440748 C11.9401478,5.01043659 11.9405172,6.4964657 11.93867,7.9824948 C11.1753695,7.68873181 10.3474138,7.58357588 9.53534483,7.65954262 C9.16958128,7.70744283 8.79975369,7.67264033 8.4317734,7.68386694 C8.37229064,7.68349272 8.31280788,7.68349272 8.25295567,7.68349272 L2.29211823,7.68349272 C2.10406404,7.68461538 1.89421182,7.65692308 1.73238916,7.77742204 C1.52918719,7.91326403 1.44605911,8.19879418 1.54248768,8.42519751 C1.62155172,8.62054054 1.8203202,8.76012474 2.03054187,8.75488565 C3.63288177,8.75862786 5.23559113,8.75376299 6.83793103,8.75713098 C6.33103448,9.15455301 5.89064039,9.6391684 5.54704433,10.1874012 C5.43916256,10.1877755 5.33128079,10.1885239 5.22376847,10.1885239 C5.16206897,10.1885239 5.10073892,10.1881497 5.03903941,10.1881497 C4.85394089,10.1877755 4.66847291,10.1881497 4.48337438,10.1885239 C4.42278325,10.1881497 4.36219212,10.1881497 4.30197044,10.1881497 C4.11687192,10.1874012 3.9317734,10.1881497 3.74667488,10.1885239 C3.68497537,10.1881497 3.62364532,10.1881497 3.56231527,10.1881497 C3.37684729,10.1877755 3.19174877,10.1881497 3.00628079,10.1885239 C2.94495074,10.1881497 2.88362069,10.1881497 2.82229064,10.1881497 C2.54704433,10.1888981 2.27179803,10.1859044 1.99655172,10.1907692 C1.73349754,10.1990021 1.50665025,10.4385031 1.50258621,10.7041996 C1.49150246,10.9190021 1.62118227,11.1214553 1.80849754,11.2168815 C1.89199507,11.2471933 1.98066502,11.2640333 2.06970443,11.2640333 C3.05283251,11.2632848 4.03596059,11.263659 5.01908867,11.263659 C5.00246305,11.406237 4.94519704,11.5390852 4.91490148,11.6782952 C4.83842365,12.0128482 4.78448276,12.3526403 4.76194581,12.6954262 C4.58349754,12.6943035 4.40504926,12.6946778 4.22660099,12.6954262 C4.16490148,12.695052 4.10320197,12.695052 4.04150246,12.695052 C3.85640394,12.6943035 3.67167488,12.6946778 3.48694581,12.6954262 C3.42598522,12.695052 3.36539409,12.695052 3.30480296,12.695052 C2.88066502,12.6965489 2.45652709,12.6931809 2.03238916,12.6961746 C1.76970443,12.6890644 1.52844828,12.9068607 1.50628079,13.1718087 C1.46674877,13.4461123 1.67549261,13.7211642 1.94445813,13.7608316 C2.89913793,13.7821622 3.85529557,13.7630769 4.81071429,13.7701871 C4.93633005,14.6192931 5.25332512,15.4388358 5.73657635,16.1446154 C4.00972906,16.1453638 2.28288177,16.1453638 0.556034483,16.1446154 C0.362807882,16.1494802 0.167364532,16.0432017 0.0775862069,15.8676923 C-0.0136699507,15.7086486 0.0162561576,15.5196674 0.011453202,15.3445322 C0.0121921182,10.4295218 0.0118226601,5.51451143 0.0118226601,0.599126819 L0.0118226601,0.599126819 Z M1.82364532,5.22112266 C1.55098522,5.32964657 1.42204433,5.68702703 1.55578818,5.94972973 C1.64076355,6.13047817 1.83399015,6.25322245 2.03238916,6.25097713 C4.65554187,6.25247401 7.27906404,6.25172557 9.90221675,6.25172557 C10.0751232,6.25733888 10.2476601,6.17239085 10.3481527,6.02943867 C10.4837438,5.84419958 10.4793103,5.57064449 10.3403941,5.38914761 C10.239532,5.25143451 10.0699507,5.17397089 9.90221675,5.1777131 C7.35258621,5.17846154 4.80332512,5.17846154 2.25406404,5.17733888 C2.11034483,5.18070686 1.95923645,5.16199584 1.82364532,5.22112266 L1.82364532,5.22112266 Z" id="Shape-Copy-23"></path>
                <path d="M11.6770936,2.98627859 C10.7419951,2.98852391 9.80726601,2.98665281 8.87253695,2.98740125 C8.87216749,2.0791684 8.87179803,1.17130977 8.87253695,0.263076923 C9.80800493,1.17018711 10.7416256,2.0791684 11.6770936,2.98627859 Z" id="Shape-Copy-24"></path>
                <path d="M10.495936,8.06070686 C11.4498768,8.14116424 12.3783251,8.51388773 13.1261084,9.11975052 C13.8694581,9.71663202 14.4391626,10.535052 14.7358374,11.4485239 C15.1736453,12.7639085 15.0328818,14.2637838 14.351601,15.4691476 C13.6884236,16.6647817 12.5183498,17.5610395 11.196798,17.8671518 C9.79100985,18.2095634 8.24261084,17.8791268 7.09729064,16.9836175 C6.34507389,16.4035759 5.7591133,15.6019958 5.44359606,14.6978794 C5.1979064,14.0055717 5.10923645,13.257131 5.18128079,12.5251559 C5.18756158,12.4637838 5.19384236,12.4027859 5.20160099,12.3421622 C5.29987685,11.6210395 5.55554187,10.9234927 5.94568966,10.3123909 C6.31921182,9.73721414 6.8046798,9.23650728 7.3729064,8.85817048 C8.28583744,8.24632017 9.40603448,7.96191268 10.495936,8.06070686 Z M11.3179803,11.3523493 C10.4815271,12.0570062 9.75997537,12.8952599 9.15960591,13.8132225 C8.75061576,13.32 8.34901478,12.7919751 7.78596059,12.4697713 C7.26391626,12.167027 6.65172414,11.9817879 6.04802956,12.0730977 C5.95529557,12.1097713 5.95492611,12.2489813 6.04285714,12.2923909 C6.51169951,12.6183368 6.97167488,12.9644906 7.36514778,13.3824948 C7.97327586,14.0197921 8.32869458,14.8453222 8.85406404,15.5454886 C8.95049261,15.6772141 9.10049261,15.7902287 9.27155172,15.7662786 C9.55935961,15.736341 9.7455665,15.4762578 9.87081281,15.2375052 C10.5938424,13.8424116 11.4254926,12.4933472 12.4747537,11.3239085 C12.7307882,11.0353846 13.0004926,10.75921 13.2772167,10.490894 C13.3751232,10.4250312 13.3078818,10.2491476 13.1907635,10.2775884 C12.485468,10.4594595 11.8751232,10.8924324 11.3179803,11.3523493 L11.3179803,11.3523493 Z" id="Shape-Copy-25"></path>
            </g>
        </g>
    </g>
</svg>