<?xml version="1.0" encoding="UTF-8"?>
<svg width="18px" height="17px" viewBox="0 0 18 17" version="1.1" xmlns="http://www.w3.org/2000/svg" xmlns:xlink="http://www.w3.org/1999/xlink">
    <!-- Generator: Sketch 39.1 (31720) - http://www.bohemiancoding.com/sketch -->
    <title>Api Icon</title>
    <desc>Created with Sketch.</desc>
    <defs></defs>
    <g id="NewBackend" stroke="none" stroke-width="1" fill="none" fill-rule="evenodd">
        <g id="Phoonebook---groups" transform="translate(-895.000000, -647.000000)" fill="#D8D8D8">
            <path d="M907.387594,654.990186 C907.122,654.920168 906.867776,654.81514 906.623841,654.675103 L906.58323,654.650866 L905.502984,655.30527 C905.178098,655.057512 904.893823,654.774745 904.650158,654.456969 L905.29993,653.374375 L905.275564,653.33398 C905.14561,653.096994 905.042729,652.846544 904.966922,652.582628 L904.950949,652.534153 L903.724233,652.227149 C903.691745,652.006322 903.6755,651.807038 903.6755,651.629299 C903.6755,651.494648 903.691745,651.298058 903.724233,651.039528 L904.950949,650.732524 L904.966922,650.68405 C905.037314,650.436561 905.140195,650.185841 905.275564,649.932697 L905.29993,649.892302 L904.650158,648.809709 C904.899238,648.497318 905.183513,648.214821 905.502984,647.961408 L906.58323,648.615811 L906.623841,648.591574 C906.862091,648.456923 907.116856,648.351895 907.387594,648.276491 L907.428205,648.268412 L907.736576,647.040395 C907.99107,647.013465 908.191416,647 908.337615,647 C908.521717,647 908.722063,647.013465 908.938925,647.040395 L909.247296,648.268412 L909.296029,648.276491 C909.555937,648.351895 909.807724,648.456923 910.051389,648.591574 L910.09227,648.615811 L911.180368,647.961408 C911.505524,648.214821 911.787092,648.497318 912.025071,648.809709 L911.37557,649.892302 L911.399936,649.932697 C911.524205,650.158911 911.629793,650.409362 911.7167,650.68405 L911.724552,650.732524 L912.959389,651.039528 C912.986192,651.2819 913,651.47849 913,651.629299 C913,651.812424 912.986192,652.011708 912.959389,652.227149 L911.724552,652.534153 L911.7167,652.582628 C911.635208,652.846544 911.52962,653.096994 911.399936,653.33398 L911.37557,653.374375 L912.025071,654.456969 C911.765162,654.785517 911.483324,655.068284 911.180368,655.30527 L910.09227,654.650866 L910.051389,654.675103 C909.796895,654.81514 909.544837,654.920168 909.296029,654.990186 L909.247296,655.006345 L908.938925,656.226282 C908.68416,656.253212 908.483813,656.266677 908.337615,656.266677 C908.153783,656.266677 907.953166,656.253212 907.736576,656.226282 L907.428205,655.006345 L907.387594,654.990186 Z M907.103048,652.857316 C907.444449,653.196636 907.8557,653.366296 908.337615,653.366296 C908.819529,653.366296 909.231051,653.196636 909.572452,652.857316 C909.913583,652.517995 910.084148,652.108926 910.084148,651.629299 C910.084148,651.155328 909.913583,650.748682 909.572452,650.409362 C909.231051,650.070041 908.819529,649.900381 908.337615,649.900381 C907.8557,649.900381 907.444449,650.070041 907.103048,650.409362 C906.761918,650.748682 906.591352,651.155328 906.591352,651.629299 C906.591352,651.629299 906.761918,652.517995 907.103048,652.857316 Z M902.034252,656.91339 C902.227687,656.718388 902.445755,656.550738 902.688998,656.409502 L902.730293,656.386451 L902.703686,655.123729 C903.080694,654.966248 903.467715,654.861442 903.864749,654.80931 L904.477417,655.913326 L904.524583,655.912422 C904.794796,655.918371 905.063133,655.954499 905.329594,656.020806 L905.379561,656.03121 L906.258792,655.122345 C906.466279,655.204623 906.646985,655.290197 906.800912,655.379066 C906.917523,655.446392 907.079653,655.558755 907.287302,655.716156 L906.939818,656.932025 L906.973811,656.970095 C907.152947,657.154801 907.318636,657.369258 907.470181,657.613063 L907.492981,657.654363 L908.75542,657.63294 C908.901418,658.004844 909.003931,658.392283 909.063657,658.79566 L907.956804,659.403978 L907.957489,659.451267 C907.954975,659.724923 907.918549,659.998069 907.848482,660.270238 L907.835174,660.309447 L908.744482,661.190513 C908.640557,661.424376 908.552045,661.604614 908.478946,661.731226 C908.386895,661.890663 908.27506,662.057435 908.143307,662.231778 L906.925628,661.884826 L906.894265,661.922991 C906.699009,662.110376 906.482159,662.275916 906.243715,662.41961 L906.202284,662.442896 L906.224966,663.712418 C905.842925,663.867305 905.457491,663.969901 905.067964,664.019802 L904.455161,662.916021 L904.407994,662.916925 C904.149953,662.911438 903.880263,662.877655 903.598922,662.815575 L903.553017,662.798137 L902.669724,663.714036 C902.446423,663.616062 902.269267,663.529725 902.138662,663.45432 C901.980071,663.362757 901.814391,663.251158 901.641214,663.120225 L901.99276,661.897322 L901.954705,661.866285 C901.766894,661.663753 901.602791,661.447086 901.462397,661.216284 L901.439597,661.174984 L900.177293,661.196172 C900.022716,660.80681 899.918752,660.421347 899.864995,660.040487 L900.975774,659.425369 L900.975224,659.377846 C900.981196,659.087429 901.016268,658.816627 901.080034,658.566143 L901.090407,658.51586 L900.188096,657.638834 C900.292156,657.404736 900.380668,657.224499 900.453768,657.097887 C900.545683,656.938684 900.657653,656.771677 900.789271,656.597569 L901.999953,656.940481 L902.034252,656.91339 Z M903.00333,651.336449 C903.07549,651.60147 903.111645,651.874147 903.112337,652.15542 L903.111652,652.202708 L904.218505,652.811027 C904.166384,653.216266 904.063638,653.603839 903.910268,653.973746 L902.647828,653.952324 L902.625028,653.993624 C902.48477,654.22466 902.319314,654.438983 902.128659,654.636591 L902.094666,654.674662 L902.44215,655.890531 C902.267152,656.029081 902.10269,656.14279 901.948763,656.23166 C901.832152,656.298985 901.653778,656.383213 901.41364,656.484342 L900.534409,655.575477 L900.484442,655.58588 C900.234915,655.648663 899.966345,655.684926 899.679431,655.694265 L899.632265,655.693361 L899.019597,656.797377 C898.62452,656.737863 898.237732,656.632922 897.858534,656.482958 L897.885141,655.220236 L897.843846,655.197184 C897.60811,655.05818 897.389771,654.890061 897.189099,654.693297 L897.161797,654.662166 L895.944118,655.009117 C895.793549,654.802184 895.681715,654.635412 895.608615,654.5088 C895.516564,654.349363 895.428052,654.169125 895.342944,653.967853 L896.252252,653.086787 L896.234882,653.040544 C896.17023,652.777754 896.135293,652.507186 896.130072,652.228841 L896.130621,652.181318 L895.019843,651.5662 C895.076726,651.157899 895.180593,650.772806 895.332141,650.410515 L896.594445,650.431703 L896.617245,650.390403 C896.751017,650.169676 896.91512,649.953009 897.109553,649.740401 L897.147608,649.709365 L896.796062,648.486462 C896.992561,648.342064 897.155909,648.231811 897.286513,648.156406 C897.445105,648.064844 897.624593,647.97716 897.824572,647.892651 L898.707864,648.80855 L898.75377,648.791112 C899.023074,648.729729 899.292765,648.695945 899.562842,648.689762 L899.610009,648.690666 L900.222812,647.586885 C900.637297,647.647698 901.0231,647.750394 901.379814,647.894269 L901.357132,649.163791 L901.398563,649.187077 C901.647086,649.337456 901.864071,649.503231 902.049113,649.683696 L902.087473,649.717821 L903.298155,649.374909 C903.44886,649.582077 903.560694,649.748849 903.633793,649.875461 C903.725709,650.034664 903.814356,650.215136 903.89933,650.416174 L902.997018,651.2932 L903.00333,651.336449 Z M904.023645,657.733401 C903.559084,657.859403 903.206529,658.130727 902.965571,658.548077 C902.724614,658.965427 902.665783,659.406646 902.788943,659.871968 C902.912238,660.337056 903.18122,660.689305 903.596588,660.929118 C904.00706,661.166104 904.444508,661.221713 904.908933,661.095945 C905.373494,660.969944 905.726185,660.698385 905.967142,660.281035 C906.208099,659.863685 906.266795,659.422701 906.143635,658.957378 C906.02034,658.492291 905.753457,658.141254 905.342986,657.904268 C905.342986,657.904268 904.48807,657.607634 904.023645,657.733401 Z M901.298483,652.649308 C901.421643,652.183986 901.362947,651.743002 901.12199,651.325652 C900.881033,650.908302 900.528341,650.636743 900.063781,650.510741 C899.599356,650.384974 899.159808,650.441795 898.74444,650.681608 C898.333968,650.918594 898.067085,651.269631 897.94379,651.734718 C897.820631,652.20004 897.879462,652.641259 898.120419,653.058609 C898.361376,653.475959 898.713932,653.747284 899.178493,653.873285 C899.642918,653.999053 900.080366,653.943444 900.490837,653.706458 C900.490837,653.706458 901.175188,653.114396 901.298483,652.649308 Z" id="Api-Icon"></path>
        </g>
    </g>
</svg>