<?xml version="1.0" encoding="UTF-8"?>
<svg width="21px" height="33px" viewBox="0 0 21 33" version="1.1" xmlns="http://www.w3.org/2000/svg" xmlns:xlink="http://www.w3.org/1999/xlink">
    <!-- Generator: Sketch 39.1 (31720) - http://www.bohemiancoding.com/sketch -->
    <title>-g-Messages Icon</title>
    <desc>Created with Sketch.</desc>
    <defs></defs>
    <g id="Page-1" stroke="none" stroke-width="1" fill="none" fill-rule="evenodd">
        <g id="Messages---Batch-send" transform="translate(-458.000000, -151.000000)" fill="#3190E6">
            <g id="Messages-+-Messages-Icon" transform="translate(458.000000, 151.000000)">
                <g id="-g-Messages-Icon">
                    <path d="M2.8298973,3.34144161 L3.98750635,2.77089882 C4.69609833,2.4217356 5.53741159,2.7297054 5.9090312,3.42803184 L7.03618422,5.54683048 C7.40780382,6.24515692 7.08927273,7.12479042 6.38068075,7.47395364 L5.2230717,8.04449643 C4.51475914,8.39337943 3.67316646,8.08597007 3.30154685,7.38736341 L2.17439384,5.268845 C1.80277423,4.5699581 2.12102591,3.69088505 2.8298973,3.34144161 L2.8298973,3.34144161 L2.8298973,3.34144161 Z" id="Shape-Copy-106"></path>
                    <path d="M19.2870577,24.9220264 C17.7083729,25.3286363 15.0360647,25.8988988 13.5037625,26.0855302 C9.13625413,26.619083 8.03592479,24.9825555 7.21137632,18.1895655 C6.34184231,11.024994 7.3966273,9.50251909 11.2829861,9.02809427 C12.7988029,8.84286402 15.5401262,8.75795515 17.3280915,8.7831756 L16.8231918,4.6243222 C15.093065,4.460109 12.2997708,4.30794557 9.99293512,4.58929379 C2.51611623,5.50199411 0.792974776,9.25367725 1.95561327,18.8310058 C3.02800128,27.665732 5.39239612,31.6715813 13.1651136,30.7227316 C15.2132127,30.4724886 18.0403159,29.7374524 19.8025752,29.1705526 L19.2870577,24.9220264 L19.2870577,24.9220264 Z" id="Shape-Copy-107"></path>
                    <path d="M15.4110373,9.8023623 C15.8824074,9.74463548 16.3146597,10.084271 16.3722188,10.5570144 L17.0347076,16.0155621 C17.0919873,16.4883055 16.7533385,16.9218172 16.2822477,16.979544 L11.0153082,17.6223854 C10.543938,17.6801122 10.1116858,17.3404768 10.054406,16.8677333 L9.39163783,11.4091857 C9.33435812,10.9367224 9.67272755,10.5029306 10.1440977,10.445484 L15.4110373,9.8023623 Z" id="Shape-Copy-108"></path>
                    <path d="M10.7479097,18.5984171 L11.5816788,18.4966946 C11.8370625,18.4655894 12.0712108,18.6494185 12.1025051,18.9055462 L12.2084027,19.7778938 C12.2394176,20.0337414 12.0561225,20.2688521 11.8007388,20.2999573 L10.9669697,20.4016798 C10.711586,20.432785 10.4774377,20.2489559 10.4464228,19.9928282 L10.3405252,19.1204806 C10.3092309,18.8646331 10.492526,18.6295223 10.7479097,18.5984171 L10.7479097,18.5984171 L10.7479097,18.5984171 Z" id="Shape-Copy-109"></path>
                    <path d="M13.3447764,18.28148 L14.1785455,18.1797575 C14.4339292,18.1486523 14.6680775,18.3324814 14.6990923,18.5886092 L14.8049899,19.4609568 C14.8360048,19.7170845 14.6527097,19.951915 14.397326,19.9830202 L13.5635569,20.0847427 C13.3081732,20.115848 13.0740249,19.9320189 13.0430101,19.6758911 L12.9371124,18.8035435 C12.9058182,18.547696 13.0893927,18.3125853 13.3447764,18.28148 L13.3447764,18.28148 L13.3447764,18.28148 Z" id="Shape-Copy-110"></path>
                    <path d="M15.941643,17.9642627 L16.7754121,17.8625402 C17.0307958,17.831435 17.2649441,18.0152641 17.295959,18.2713919 L17.4222538,19.3113154 C17.4420921,19.4749681 17.3247385,19.6254502 17.1612818,19.6456266 L16.1604236,19.7678057 C15.9050399,19.7989109 15.6708916,19.6150818 15.6398767,19.358954 L15.5339791,18.4866064 C15.5026848,18.2304787 15.6862593,17.9956482 15.941643,17.9642627 L15.941643,17.9642627 L15.941643,17.9642627 Z" id="Shape-Copy-111"></path>
                    <path d="M11.8817686,20.9697006 C12.1371523,20.9388756 12.3713006,21.1227047 12.4025949,21.3788324 L12.5084925,22.2506196 C12.5395074,22.5073078 12.3562123,22.7421382 12.1008286,22.7732435 L11.2670595,22.874966 C11.0116758,22.9060712 10.7775275,22.7222421 10.7465126,22.4661144 L10.640615,21.5937668 C10.6093207,21.337639 10.7926158,21.1025283 11.0482789,21.0717033 L11.8817686,20.9697006 Z" id="Shape-Copy-112"></path>
                    <path d="M14.4786353,20.6524833 C14.734019,20.6216582 14.9681673,20.8054874 14.9991821,21.0613349 L15.1050798,21.9336825 C15.1360946,22.1898102 14.9527996,22.4246407 14.6974158,22.4557459 L13.8639262,22.5574685 C13.608263,22.5885737 13.3743942,22.4047446 13.3430999,22.1486168 L13.2372023,21.2765495 C13.2061874,21.0204217 13.3894825,20.785311 13.6448662,20.7542058 L14.4786353,20.6524833 Z" id="Shape-Copy-113"></path>
                    <path d="M17.0755019,20.3355462 C17.3308856,20.3044409 17.5650339,20.4882701 17.5960488,20.7443978 L17.7019464,21.6167454 C17.7332407,21.8728732 17.5496662,22.1077036 17.2942825,22.1388089 L16.4607928,22.2405314 C16.2054091,22.2716366 15.9712608,22.0878075 15.9399665,21.8316797 L15.8340689,20.9593321 C15.803054,20.7032044 15.9863491,20.4683739 16.2417328,20.4372687 L17.0755019,20.3355462 Z" id="Shape-Copy-114"></path>
                    <path d="M11.3483688,23.544429 L12.1821379,23.4427065 C12.4375216,23.4116013 12.6716699,23.5954304 12.7026847,23.8515581 L12.8085823,24.7239057 C12.8395972,24.9800335 12.6563021,25.214864 12.4009184,25.2459692 L11.5671493,25.3476917 C11.3117656,25.3787969 11.0776173,25.1949678 11.0466025,24.9388401 L10.9407048,24.0664925 C10.9094106,23.8103647 11.0929851,23.5755342 11.3483688,23.544429 L11.3483688,23.544429 L11.3483688,23.544429 Z" id="Shape-Copy-115"></path>
                    <path d="M13.944956,23.2269315 L14.7787251,23.125209 C15.0341088,23.0941037 15.2682571,23.2784933 15.299272,23.5346211 L15.4051696,24.4064082 C15.4361845,24.662536 15.2528894,24.8979269 14.9975057,24.9284717 L14.164016,25.0301942 C13.9086323,25.0612994 13.674484,24.8774703 13.6431897,24.6213425 L13.5372921,23.7495554 C13.5062772,23.4934276 13.6895723,23.2580367 13.944956,23.2269315 L13.944956,23.2269315 L13.944956,23.2269315 Z" id="Shape-Copy-116"></path>
                    <path d="M16.5418226,22.9099944 L17.3755918,22.8082719 C17.6309755,22.7771667 17.8651238,22.9609958 17.8961386,23.2171235 L18.0020362,24.0894711 C18.0330511,24.3455989 17.849756,24.5804294 17.5943723,24.6115346 L16.7606032,24.7132571 C16.5052195,24.7443623 16.2710712,24.5605332 16.2397769,24.3044055 L16.1338793,23.4320579 C16.1031439,23.1759301 16.2867184,22.9413799 16.5418226,22.9099944 L16.5418226,22.9099944 L16.5418226,22.9099944 Z" id="Shape-Copy-117"></path>
                    <path d="M15.062609,0.938212256 C17.0145899,0.301535823 19.9651937,2.09667193 19.866002,4.50690696 C18.8170847,1.97449282 17.1615612,1.30755184 15.062609,0.938212256 L15.062609,0.938212256 L15.062609,0.938212256 Z" id="Shape-Copy-118"></path>
                    <path d="M16.8041917,0.112662621 C18.2465228,-0.357839021 20.4091813,0.968476805 20.335975,2.74932132 C19.5608827,0.87852384 18.3552146,0.38504356 16.8041917,0.112662621 L16.8041917,0.112662621 L16.8041917,0.112662621 Z" id="Shape-Copy-119"></path>
                    <path d="M4.78076054,31.5034449 C3.10763406,32.0496079 0.578664821,30.5105995 0.663885859,28.4450441 C1.56275825,30.6156848 2.98133927,31.1870683 4.78076054,31.5034449 L4.78076054,31.5034449 L4.78076054,31.5034449 Z" id="Shape-Copy-120"></path>
                    <path d="M3.2878556,32.211299 C2.05173142,32.6145461 0.198103987,31.4779442 0.260971966,29.9521065 C0.925416652,31.5550067 1.95868681,31.9781499 3.2878556,32.211299 L3.2878556,32.211299 L3.2878556,32.211299 Z" id="Shape-Copy-121"></path>
                </g>
            </g>
        </g>
    </g>
</svg>