<?xml version="1.0" encoding="UTF-8"?>
<svg width="15px" height="15px" viewBox="0 0 15 15" version="1.1" xmlns="http://www.w3.org/2000/svg" xmlns:xlink="http://www.w3.org/1999/xlink">
    <!-- Generator: Sketch 39.1 (31720) - http://www.bohemiancoding.com/sketch -->
    <title>-g-Message Icon</title>
    <desc>Created with Sketch.</desc>
    <defs></defs>
    <g id="NewBackend" stroke="none" stroke-width="1" fill="none" fill-rule="evenodd">
        <g id="Messages---Overview" transform="translate(-262.000000, -740.000000)">
            <g id="-g-Message-Icon" transform="translate(262.000000, 740.000000)">
                <path d="M0,6.90852331 C0,6.61734684 0.085374099,6.32010419 0.25510189,6.01618875 C0.425169816,5.71348655 0.595577878,5.48297184 0.765305669,5.32525125 L1.02040756,5.08867037 L1.02040756,9.63830272 C0.993536826,9.61403802 0.956121882,9.58067405 0.908162727,9.53821081 C0.860543707,9.49574758 0.779251239,9.41082111 0.663264913,9.2834314 C0.547618723,9.15604169 0.445918103,9.0256189 0.357142645,8.89216302 C0.269047459,8.75870714 0.187414855,8.59128066 0.112244831,8.39109684 C0.0374149438,8.19151964 0,7.99982846 0,7.81844978 L0,6.90852331 Z M10.0340077,0 L10.0340077,13.1767654 L4.16680576,10.07635 L3.83679376,10.07635 L4.24503512,14.3544065 C4.25662465,14.4784231 4.24822224,14.5693686 4.21895867,14.6256929 C4.18998483,14.6830505 4.15811361,14.713538 4.12334501,14.7187053 C4.08886614,14.7243894 4.02773135,14.7269731 3.94080984,14.7269731 L3.87156237,14.7269731 L3.15011384,14.7269731 C3.03392875,14.7269731 2.93396902,14.6546301 2.84994489,14.509944 C2.76592077,14.365258 2.71231917,14.1844004 2.68942984,13.9668546 C2.36463313,10.4845714 2.20237965,8.67082837 2.20237965,8.52614232 L2.20237965,4.65062308 L2.20237965,4.5731127 C2.20237965,4.43876136 2.20382834,4.34316522 2.20701546,4.28580754 C2.20962311,4.22948333 2.21686656,4.16230766 2.2284561,4.08428054 C2.24004563,4.00677015 2.2632247,3.95251288 2.29799331,3.92150873 C2.33276191,3.89050458 2.3765124,3.87551924 2.42837557,3.87551924 L4.16680576,3.87551924 L10.0340077,0 Z" id="Fill-119-Copy" fill="#3190E6"></path>
                <path d="M12.5,13.1821283 C14.7528965,8.85595618 14.3138998,5.55606086 13.1854993,1.875 C15.4107234,4.25913801 15.4650915,10.785142 12.5,13.1821283 Z" id="Shape-Copy-33" fill="#3190E6"></path>
                <path d="M11.1994904,2.8125 C13.4157934,4.57969844 13.4533472,9.38839528 10.5,11.1646915 C12.7424631,7.95893509 12.3244296,5.53929442 11.1994904,2.8125 L11.1994904,2.8125 L11.1994904,2.8125 Z" id="Shape-Copy-34" fill="#3190E6"></path>
                <path d="M11.1994904,2.8125 C13.4157934,4.57969844 13.4533472,9.38839528 10.5,11.1646915 C12.7424631,7.95893509 12.3244296,5.53929442 11.1994904,2.8125 L11.1994904,2.8125 L11.1994904,2.8125 Z" id="Shape-Copy-34" fill="#3190E6"></path>
                <path d="M5.16402406,5.12867647 L10.0847458,5.12867647" id="Path-195-Copy-4" stroke="#FFFFFF"></path>
                <path d="M5.16402406,6.06617647 L10.0847458,6.06617647" id="Path-195-Copy-5" stroke="#FFFFFF"></path>
                <path d="M5.16402406,8.40992647 L10.0847458,8.40992647" id="Path-195-Copy-6" stroke="#FFFFFF"></path>
                <path d="M5.16402406,9.34742647 L10.0847458,9.34742647" id="Path-195-Copy-7" stroke="#FFFFFF"></path>
            </g>
        </g>
    </g>
</svg>