<?xml version="1.0" encoding="UTF-8"?>
<svg width="15px" height="16px" viewBox="0 0 15 16" version="1.1" xmlns="http://www.w3.org/2000/svg" xmlns:xlink="http://www.w3.org/1999/xlink">
    <!-- Generator: Sketch 39.1 (31720) - http://www.bohemiancoding.com/sketch -->
    <title>-g-PDF Icon</title>
    <desc>Created with Sketch.</desc>
    <defs>
        <path d="M0,0 L8.76176564,0 C10.589935,0 14.0322581,2.7523614 14.0322581,4 C14.0322581,4.06393752 13.9210302,3.44028567 13.9285714,3.47826087 C13.9629445,3.65135331 14.1821732,4.28222859 14.2741935,4.53333333 C14.395969,4.86563348 14.5015384,5.63605442 14.516129,6.13333333 C14.5205414,6.28371614 14.5112095,6.24667341 14.516129,6.4 C14.5191602,6.49447348 14.495133,6.57501004 14.516129,6.66666667 C14.5673431,6.89023753 14.5073731,7.49671562 14.516129,7.73333333 C14.5301032,8.11096655 14.5029931,8.68569496 14.516129,9.06666667 C14.63522,12.520582 14.516129,16 14.516129,16 L0,16 L0,0 Z" id="path-1"></path>
        <mask id="mask-2" maskContentUnits="userSpaceOnUse" maskUnits="objectBoundingBox" x="0" y="0" width="14.5690584" height="16" fill="white">
            <use xlink:href="#path-1"></use>
        </mask>
    </defs>
    <g id="NewBackend" stroke="none" stroke-width="1" fill="none" fill-rule="evenodd">
        <g id="Account---Invoices" transform="translate(-430.000000, -455.000000)">
            <g id="-g-PDF-Icon" transform="translate(430.000000, 455.000000)">
                <use id="Rectangle-690" stroke="#D8D8D8" mask="url(#mask-2)" stroke-width="2.8" xlink:href="#path-1"></use>
                <path d="M7.74396131,1.11252217 C8.8125738,1.89676689 10.0292877,2.29523778 11.0017734,3.26123457 C11.9799118,4.23284641 12.7129999,5.77304739 13.5028221,6.92981472 L13.525894,6.91369719 L13.5462648,6.89394754 C12.5780325,5.87956482 11.2694614,5.31079769 9.72398119,5.31102469 C9.63011792,5.31102469 9.53546682,5.31306776 9.43991536,5.3172674 L9.44115336,5.34564333 L9.46906474,5.34848092 C9.48999828,5.13668298 9.50012741,4.9327168 9.50012741,4.73624187 C9.50069014,3.08351423 8.78219716,1.9560818 7.77907563,1.06825572 L7.76050556,1.08959442 L7.74396131,1.11252217 L7.76050556,1.08959442 L7.74193548,1.11093312 C8.73729135,1.99308401 9.44340428,3.1009938 9.44385446,4.73624187 C9.44385446,4.93078724 9.43383788,5.13282386 9.41312944,5.34280573 L9.4098656,5.3753813 L9.44239137,5.37401926 C9.53704246,5.36981962 9.63101828,5.36777655 9.72398119,5.36777655 C11.2558433,5.36789006 12.5476451,5.93007397 13.5056357,6.93333333 L13.5490784,6.89757966 C12.879377,5.91674452 12.8906442,4.75316179 12.142857,3.82608698 C11.971627,3.61380328 11.1926444,3.44836826 11.0017734,3.26123457 C10.0601369,2.33803554 8.80552156,1.82148132 7.7770498,1.06666667 L7.74193548,1.11093312 L7.76050556,1.08959442 L7.74396131,1.11252217 Z" id="Fill-14-Copy" stroke="#D8D8D8" stroke-width="1.4"></path>
                <path d="M6.01951652,9.58154792 C5.85073785,9.94036335 5.68589323,10.2731322 5.53354502,10.5787221 C6.37597276,10.1801834 7.28250245,9.92511871 8.14568039,9.74392519 C8.02966434,9.65341554 7.91704237,9.55776627 7.81113144,9.4564547 C7.33588217,9.00207711 6.97348628,8.43515047 6.71083026,7.83851855 C6.54421146,8.34533772 6.3462745,8.88386577 6.01951652,9.58154792 M5.6993153,9.39634724 C5.94407523,8.85459604 6.22223606,8.24411327 6.44485729,7.63127846 L6.53294927,7.38945481 C6.24213775,6.1396551 6.06772798,5.13655733 6.22354741,4.48791938 C6.26551066,4.31883447 6.43891764,4.21621622 6.62435819,4.21621622 L6.73728871,4.21813269 L6.75803892,4.21813269 C7.01190117,4.21368996 7.13146559,4.57834191 7.1449648,4.72016069 C7.16741205,4.95623493 7.07068058,5.35590602 7.07068058,5.35590602 C7.07068058,5.1945741 7.07631168,4.93375997 6.98613697,4.70874898 C6.88107456,4.44837041 6.78087187,4.29287501 6.69092857,4.26813513 C6.64557123,4.30245736 6.60137097,4.37336675 6.58625185,4.50978456 C6.55501083,4.70099599 6.54559995,4.94238408 6.54559995,5.0667804 C6.54559995,5.50652313 6.62227545,6.08677795 6.77292662,6.68506501 C6.80131353,6.59237755 6.82630635,6.50343593 6.84620804,6.42006949 C6.87714051,6.28861707 7.07345756,5.41749439 7.07345756,5.41749439 C7.07345756,5.41749439 7.02401189,6.57704579 6.95481881,6.92793401 C6.94000825,7.00206655 6.92373206,7.07532797 6.90668449,7.15041874 C7.15506992,7.93434204 7.55541787,8.63385356 8.03290415,9.13736247 C8.22112168,9.33615266 8.45886203,9.49626501 8.68395168,9.64235228 C9.1754,9.56299301 9.6279706,9.52553473 10.0054085,9.53032591 C10.5062677,9.53773045 10.873909,9.62144534 11.0227859,9.78695865 C11.0956817,9.8675375 11.1253028,9.96466768 11.1344822,10.0736451 C11.1366421,10.1161559 11.1183603,10.2157252 11.1129606,10.2406393 C11.1183603,10.2104985 11.1183603,10.0616236 10.7163153,9.91675593 C10.3996625,9.80237752 9.80708581,9.80594912 9.09594752,9.89149337 C9.91839642,10.3457838 10.7197094,10.5715788 10.9736488,10.4362935 C11.0358223,10.4021455 11.1110322,10.2855893 11.1110322,10.2855893 C11.1110322,10.2855893 11.066292,10.5153043 11.0342024,10.5727113 C10.9931648,10.6350837 10.9127095,10.7025957 10.8364197,10.7254191 C10.4353775,10.8462438 9.39138733,10.5667006 8.48130928,9.97938965 C7.46454891,10.1484746 6.3478944,10.4608592 5.45285833,10.7924084 C4.57324992,12.53326 3.91194299,13.3327764 3.37398025,13.0285804 L3.17619757,12.9162927 C3.09581942,12.8643737 3.08347729,12.7379738 3.10214477,12.6350071 C3.16485823,12.2884745 3.54962424,11.7664978 4.32255033,11.2453051 C4.40578259,11.1884208 4.77627801,10.9671557 4.77627801,10.9671557 C4.77627801,10.9671557 4.5019741,11.2669961 4.43771786,11.325884 C3.82076548,11.8968178 3.3654179,12.6150584 3.37683437,12.8934692 L3.37907138,12.9177736 C3.90307208,12.8334489 4.68895741,11.6288604 5.6993153,9.39634724" id="Fill-16-Copy" fill="#D8D8D8"></path>
            </g>
        </g>
    </g>
</svg>