<?xml version="1.0" encoding="UTF-8"?>
<svg width="60px" height="69px" viewBox="0 0 60 69" version="1.1" xmlns="http://www.w3.org/2000/svg" xmlns:xlink="http://www.w3.org/1999/xlink">
    <!-- Generator: Sketch 39.1 (31720) - http://www.bohemiancoding.com/sketch -->
    <title>Phone icon</title>
    <desc>Created with Sketch.</desc>
    <defs></defs>
    <g id="NewBackend" stroke="none" stroke-width="1" fill="none" fill-rule="evenodd">
        <g id="Call-me-Back-popup" transform="translate(-574.000000, -626.000000)">
            <g id="Group" transform="translate(202.000000, 417.000000)">
                <g id="Live-transfer-explication-graph">
                    <g id="Phone-icon" transform="translate(372.000000, 209.000000)">
                        <path d="M6.34610869,7.31227064 L8.97321635,6.1072719 C10.5813132,5.36983161 12.490611,6.02027052 13.3339741,7.4951511 L15.8919641,11.9700998 C16.7353271,13.4449803 16.0124445,15.3027854 14.4043477,16.0402257 L11.77724,17.2452244 C10.1697773,17.9820728 8.25984534,17.3328176 7.41648227,15.8573452 L4.85849233,11.3829884 C4.01512926,9.90692412 4.73737778,8.05030278 6.34610869,7.31227064 L6.34610869,7.31227064 L6.34610869,7.31227064 Z" id="Shape-Copy-55" fill="#005B82"></path>
                        <path d="M21.7429603,20.0243911 C16.0493995,21.6779206 14.6356522,25.9896303 16.2895495,38.6718302 C18.1608009,53.0187725 20.6579166,56.4751539 30.569652,55.3482789 C33.2238067,55.0474297 37.3851054,54.2745783 40.7997004,53.5436603 C43.3399996,51.0468681 44.2042587,46.3013979 44.5537418,38.0197268 C45.1981264,22.743508 42.5326708,19.7424812 33.6589267,19.5110031 C30.6787566,19.432923 25.6581759,19.6913586 21.7429603,20.0243911 Z M37.5281063,9.97264743 C33.5774549,9.64648809 27.5889147,9.38173864 22.6020904,9.9477615 C5.63400589,11.8754044 1.7234645,19.7990405 4.3619861,40.026566 C6.21735744,54.2516356 6.54346747,61.3125671 14.4095599,62.977179 L14.3161688,63.1686474 C14.3161702,63.1686469 33.6564587,64.5534866 38.5829106,64.1224645 C56.231295,62.5783829 55.7592779,57.1697795 56.5542259,38.332445 C57.385641,18.636687 53.1474831,10.8968882 37.5281063,9.97264743 Z" id="Shape-Copy-37" fill="#005B82"></path>
                        <path d="M22.9451426,22.3161621 L34.8980703,20.9578752 C35.9678097,20.8359549 36.9487742,21.5532725 37.0794003,22.5517169 L38.5828694,34.0802878 C38.7128614,35.0787323 37.944323,35.9943183 36.8752177,36.1162386 L24.92229,37.4739336 C23.8525505,37.5958539 22.8715861,36.8785364 22.741594,35.880092 L21.2374909,24.351521 C21.1074988,23.3536684 21.8754031,22.4374906 22.9451426,22.3161621 L22.9451426,22.3161621 L22.9451426,22.3161621 Z" id="Shape-Copy-38" fill="#005B82"></path>
                        <path d="M24.315449,39.5353337 L26.207626,39.3204936 C26.7872003,39.2547986 27.3185825,39.6430497 27.3896025,40.1839971 L27.6299293,42.0264141 C27.7003152,42.5667696 27.2843407,43.0633286 26.7047664,43.1290235 L24.8125894,43.3438636 C24.233015,43.4095585 23.7016329,43.0213075 23.631247,42.4803601 L23.3909202,40.6379431 C23.3199001,40.0975875 23.7358747,39.6010286 24.315449,39.5353337 L24.315449,39.5353337 L24.315449,39.5353337 Z" id="Shape-Copy-39" fill="#005B82"></path>
                        <path d="M30.2088448,38.8659557 L32.1010218,38.6511156 C32.6805961,38.5854207 33.2119782,38.9736717 33.2823642,39.5146191 L33.522691,41.3570361 C33.5930769,41.8979835 33.1771023,42.3939506 32.597528,42.4596455 L30.705351,42.6744856 C30.1257767,42.7401806 29.5943946,42.3519295 29.5240086,41.8109821 L29.2836818,39.9685651 C29.2126618,39.4282096 29.6292705,38.9316507 30.2088448,38.8659557 L30.2088448,38.8659557 L30.2088448,38.8659557 Z" id="Shape-Copy-40" fill="#005B82"></path>
                        <path d="M36.1022406,38.1959859 L37.9944175,37.9811458 C38.5739919,37.9154508 39.105374,38.3037019 39.1757599,38.8446493 L39.4623766,41.0409903 C39.5073982,41.3866284 39.241073,41.7044498 38.8701201,41.7470627 L36.5987468,42.0051077 C36.0191725,42.0708026 35.4877903,41.6825515 35.4174044,41.1416041 L35.1770776,39.2991871 C35.1060576,38.7582397 35.5226662,38.2622727 36.1022406,38.1959859 L36.1022406,38.1959859 L36.1022406,38.1959859 Z" id="Shape-Copy-41" fill="#005B82"></path>
                        <path d="M24.9971147,44.7589677 L26.8886576,44.5435357 C27.4682319,44.4784327 27.999614,44.8666837 28.0706341,45.4076311 L28.3109608,47.2488645 C28.3813468,47.7909955 27.9653722,48.2869626 27.3857979,48.3526575 L25.4936209,48.5674977 C24.9140466,48.6331926 24.3826644,48.2449415 24.3122785,47.7039941 L24.0719517,45.8615771 C24.0009317,45.3206297 24.4169062,44.8240708 24.9971147,44.7589677 L24.9971147,44.7589677 L24.9971147,44.7589677 Z" id="Shape-Copy-42" fill="#005B82"></path>
                        <path d="M30.8898763,44.0884061 L32.7820533,43.8735659 C33.3616276,43.8084628 33.8930098,44.1967139 33.9633957,44.7370694 L34.2037225,46.5794865 C34.2741084,47.1204338 33.8581339,47.6164009 33.2785595,47.6820958 L31.3870167,47.896936 C30.8068082,47.9626309 30.2760602,47.5743798 30.2050401,47.0334325 L29.9647134,45.1916073 C29.8943274,44.6506599 30.310302,44.154101 30.8898763,44.0884061 L30.8898763,44.0884061 L30.8898763,44.0884061 Z" id="Shape-Copy-43" fill="#005B82"></path>
                        <path d="M36.7832721,43.4190281 L38.6754491,43.2041879 C39.2550234,43.138493 39.7864055,43.5267441 39.8567915,44.0676915 L40.0971182,45.9101085 C40.1681383,46.4510559 39.7515296,46.9470229 39.1719553,47.0127178 L37.2804124,47.227558 C36.7008381,47.2932529 36.169456,46.9050018 36.0984359,46.3640545 L35.8581091,44.5216374 C35.7877232,43.9806901 36.2036978,43.484723 36.7832721,43.4190281 L36.7832721,43.4190281 L36.7832721,43.4190281 Z" id="Shape-Copy-44" fill="#005B82"></path>
                        <path d="M25.6781462,49.9814181 L27.5703232,49.7665779 C28.1498975,49.700883 28.6812797,50.0891341 28.7516656,50.6300814 L28.9919924,52.4724985 C29.0623783,53.0134459 28.6464037,53.5094129 28.0668294,53.5751078 L26.1746524,53.789948 C25.5950781,53.8556429 25.063696,53.4673918 24.99331,52.9264445 L24.7529833,51.0840274 C24.6819632,50.5430801 25.0985719,50.047113 25.6781462,49.9814181 L25.6781462,49.9814181 L25.6781462,49.9814181 Z" id="Shape-Copy-45" fill="#005B82"></path>
                        <path d="M31.5709079,49.3108564 L33.4630848,49.0960163 C34.0426592,49.0303213 34.5740413,49.4197561 34.6444272,49.9607035 L34.884754,51.8019368 C34.95514,52.3428842 34.5391654,52.8400349 33.9595911,52.9045462 L32.0680482,53.1193863 C31.4884739,53.1850812 30.9570917,52.7968302 30.8860717,52.2558828 L30.6457449,50.4146495 C30.575359,49.8737021 30.9913335,49.3765513 31.5709079,49.3108564 L31.5709079,49.3108564 L31.5709079,49.3108564 Z" id="Shape-Copy-46" fill="#005B82"></path>
                        <path d="M37.4643036,48.6414784 L39.3564806,48.4266383 C39.9360549,48.3609434 40.4674371,48.7491944 40.537823,49.2901418 L40.7781498,51.1325588 C40.8485357,51.6735062 40.4325612,52.1694733 39.8529868,52.2351682 L37.9608098,52.4500083 C37.3812355,52.5157033 36.8498534,52.1274522 36.7788333,51.5865048 L36.5385066,49.7440878 C36.4687547,49.2031404 36.8853634,48.7077652 37.4643036,48.6414784 L37.4643036,48.6414784 L37.4643036,48.6414784 Z" id="Shape-Copy-47" fill="#005B82"></path>
                        <path d="M47.4665875,6.71243458 C51.896463,5.36776015 58.5926389,9.15912652 58.3675307,14.2495952 C55.9870909,8.9010816 52.2300035,7.49248779 47.4665875,6.71243458 L47.4665875,6.71243458 L47.4665875,6.71243458 Z" id="Shape-Copy-48" fill="#005B82"></path>
                        <path d="M51.41898,4.96885585 C54.6922432,3.97514618 59.6002358,6.77635396 59.4340996,10.5375362 C57.6750852,6.58637135 54.9389111,5.5441303 51.41898,4.96885585 L51.41898,4.96885585 L51.41898,4.96885585 Z" id="Shape-Copy-49" fill="#005B82"></path>
                        <path d="M10.7734477,66.7910321 C6.97641161,67.9445403 1.23710399,64.6941213 1.4305068,60.3316234 C3.47043086,64.9160636 6.68979499,66.1228378 10.7734477,66.7910321 L10.7734477,66.7910321 L10.7734477,66.7910321 Z" id="Shape-Copy-50" fill="#005B82"></path>
                        <path d="M7.385411,68.2860355 C4.5801191,69.1377021 0.373449479,66.7371741 0.516123683,63.5145719 C2.02403149,66.8999318 4.36896128,67.7936195 7.385411,68.2860355 L7.385411,68.2860355 L7.385411,68.2860355 Z" id="Shape-Copy-51" fill="#005B82"></path>
                        <path d="M1.68732037,4.78627132 C1.68732037,4.78627132 1.93398821,2.9184049 4.11658647,1.5997717 C6.21231199,0.333220963 9.24461439,0.87949495 9.24461439,0.87949495" id="Shape-Copy-52" stroke="#005B82" stroke-width="1.5"></path>
                        <path d="M3.38736276,5.18399192 C3.38736276,5.18399192 3.78811875,3.86299134 5.18188719,3.11963259 C6.84641956,2.23186338 8.85463824,2.73197337 8.85463824,2.73197337" id="Shape-Copy-53" stroke="#005B82" stroke-width="1.5"></path>
                        <path d="M5.18696005,5.69002037 C5.18696005,5.69002037 5.36641249,5.06739823 6.10641603,4.54953286 C6.84641956,4.03166749 8.21545781,4.30687594 8.21545781,4.30687594" id="Shape-Copy-54" stroke="#005B82" stroke-width="1.5"></path>
                    </g>
                </g>
            </g>
        </g>
    </g>
</svg>