<?xml version="1.0" encoding="UTF-8"?>
<svg width="26px" height="25px" viewBox="0 0 26 25" version="1.1" xmlns="http://www.w3.org/2000/svg" xmlns:xlink="http://www.w3.org/1999/xlink">
    <!-- Generator: Sketch 39.1 (31720) - http://www.bohemiancoding.com/sketch -->
    <title>-g-Phonebook Icon</title>
    <desc>Created with Sketch.</desc>
    <defs></defs>
    <g id="Page-1" stroke="none" stroke-width="1" fill="none" fill-rule="evenodd">
        <g id="Phoonebook---groups" transform="translate(-615.000000, -155.000000)">
            <g id="Phonebook-+-Phonebook-Icon" transform="translate(616.000000, 156.000000)">
                <g id="-g-Phonebook-Icon">
                    <path d="M12.4206783,1.34663916 C12.3432179,1.35006781 12.1115169,2.07689747 12.037037,2.07830448 C8.31323251,2.14865161 0.97521818,0.421755317 0.97521818,0.421755317 L0.773361943,21.5313216 C0.773361943,21.5313216 8.37843159,23.0131388 12.0370371,23.0657394 C15.7461843,23.1190667 22.8766199,21.8491055 22.8766199,21.8491055 L23.3007121,0 C23.3007121,0 16.2100313,1.17890984 12.4206783,1.34663916 Z" id="Path-1149" stroke="#3190E6" stroke-width="1.6"></path>
                    <path d="M12.8319581,23.7961343 L12.8319581,1.78211727" id="Path-1150" stroke="#3190E6" stroke-width="1.6"></path>
                    <path d="M3.64744869,14.9773742 L10.5144268,14.6550588" id="Path-1151" stroke="#3190E6" stroke-width="1.6"></path>
                    <path d="M4.33021416,17.0906134 L10.5144268,16.5773742" id="Path-1152" stroke="#3190E6" stroke-width="1.6"></path>
                    <path d="M5.4081383,19.1467258 L10.5160035,18.6906134" id="Path-1153" stroke="#3190E6" stroke-width="1.6"></path>
                    <path d="M14.8685356,14.2549839 L21.6464271,13.1515346" id="Path-1155" stroke="#3190E6" stroke-width="1.6"></path>
                    <path d="M15.4622145,17.1630386 L20.9862813,15.7944008" id="Path-1156" stroke="#3190E6" stroke-width="1.6"></path>
                    <path d="M16.2344146,19.5578541 L20.811588,18.6456294" id="Path-1157" stroke="#3190E6" stroke-width="1.6"></path>
                    <polygon id="Path-1158" stroke="#3190E6" stroke-width="0.8" points="14.8253843 4.45369458 14.8253843 10.4145596 21.2382313 10.4145594 20.8804251 3.11415925"></polygon>
                    <path d="M20.8641975,9.73266667 L20.8641975,10.4 L15.2469136,10.4 L15.2469136,9.73266667 L17.1193416,8.53333333 L17.1193416,8.06666667 C17.0038752,8.06666667 16.8971468,7.95077778 16.7988443,7.719 C16.7003858,7.48722222 16.6512346,7.292 16.6512346,7.13333333 L16.6512346,6.2 C16.6512346,5.81437778 16.788546,5.48444444 17.0633248,5.21066667 C17.3379475,4.93688889 17.6685871,4.8 18.0555556,4.8 C18.442524,4.8 18.7733196,4.93688889 19.0479424,5.21066667 C19.3225652,5.48444444 19.4598765,5.81437778 19.4598765,6.2 L19.4598765,7.13333333 C19.4598765,7.292 19.4108813,7.48722222 19.3124228,7.719 C19.2141204,7.95077778 19.107392,8.06666667 18.9917695,8.06666667 L18.9917695,8.53333333 L20.8641975,9.73266667" id="Account-icon-Copy" fill="#3190E6"></path>
                    <path d="M4.7869553,4.25171535 L5.1038202,4.09644208 C5.29777854,4.00141729 5.52806582,4.08523129 5.62978687,4.27528088 L5.93831523,4.85191209 C6.04003628,5.04196168 5.95284681,5.281354 5.75888847,5.37637879 L5.44202358,5.53165206 C5.24814172,5.62660059 5.01777796,5.54293911 4.91605691,5.35281326 L4.60752855,4.77625832 C4.5058075,4.5860562 4.59292049,4.34681641 4.7869553,4.25171535 L4.7869553,4.25171535 L4.7869553,4.25171535 Z" id="Shape-Copy-74" fill="#3190E6"></path>
                    <path d="M9.29166821,10.1248731 C8.85954495,10.235532 8.12807117,10.390729 7.70864392,10.4415207 C6.51315389,10.5867271 6.2119678,10.1413461 5.98626944,8.29263333 C5.74825748,6.34279469 6.036977,5.92845303 7.10076504,5.79933828 C7.51567985,5.74892785 8.26604469,5.7258199 8.75545296,5.73268365 L8.61725,4.60085139 C8.1436735,4.55616076 7.37908301,4.51474947 6.74764768,4.59131841 C4.70106603,4.83970987 4.22940158,5.8607307 4.54764315,8.46720135 C4.84118104,10.8715727 5.48837166,11.9617649 7.61594775,11.7035354 C8.17656076,11.6354318 8.95040556,11.4353916 9.43277749,11.2811098 L9.29166821,10.1248731 L9.29166821,10.1248731 Z" id="Shape-Copy-75" fill="#3190E6"></path>
                    <path d="M8.23071001,6.01005538 C8.35973513,5.99434502 8.47805277,6.08677684 8.49380806,6.21543401 L8.67514687,7.70097814 C8.69082568,7.82963531 8.5981295,7.94761553 8.46918086,7.96332589 L7.02749529,8.13827524 C6.89847017,8.1539856 6.78015253,8.06155377 6.76447372,7.9328966 L6.58305843,6.44735247 C6.56737962,6.31877157 6.65999931,6.20071508 6.78902444,6.18508099 L8.23071001,6.01005538 Z" id="Shape-Copy-76" fill="#3190E6"></path>
                    <path d="M6.95430202,8.40390233 L7.18252429,8.37621854 C7.25242883,8.36775325 7.31652074,8.41778236 7.32508673,8.48748755 L7.3540734,8.72489701 C7.3625629,8.79452593 7.31239072,8.85851133 7.24248617,8.86697662 L7.01426391,8.8946604 C6.94435937,8.9031257 6.88026746,8.85309659 6.87177795,8.7833914 L6.84279128,8.54598194 C6.8342253,8.47635302 6.88439748,8.41236762 6.95430202,8.40390233 L6.95430202,8.40390233 L6.95430202,8.40390233 Z" id="Shape-Copy-77" fill="#3190E6"></path>
                    <path d="M7.66512567,8.31764788 L7.89334794,8.28996409 C7.96325248,8.2814988 8.02734439,8.33152791 8.03583389,8.4012331 L8.06482056,8.63864256 C8.07331006,8.70834774 8.02313788,8.77225688 7.95323334,8.78072217 L7.72501107,8.80840596 C7.65510653,8.81687125 7.59101462,8.76684214 7.58252512,8.69713695 L7.55353844,8.45972749 C7.54497246,8.39009857 7.59522113,8.32611317 7.66512567,8.31764788 L7.66512567,8.31764788 L7.66512567,8.31764788 Z" id="Shape-Copy-78" fill="#3190E6"></path>
                    <path d="M8.37594931,8.23131717 L8.60417158,8.20363338 C8.67407612,8.19516809 8.73816803,8.2451972 8.74665753,8.31490238 L8.78122739,8.59791764 C8.78665761,8.64245575 8.75453518,8.68340946 8.70979321,8.68890045 L8.43583471,8.72215151 C8.36593017,8.7306168 8.30183826,8.68058769 8.29334876,8.6108825 L8.26436208,8.37347304 C8.2557961,8.30376786 8.30604477,8.23985872 8.37594931,8.23131717 L8.37594931,8.23131717 L8.37594931,8.23131717 Z" id="Shape-Copy-79" fill="#3190E6"></path>
                    <path d="M7.26466595,9.04924729 C7.33457049,9.04085826 7.3986624,9.09088737 7.40722839,9.16059256 L7.43621506,9.39784949 C7.44470456,9.4677072 7.39453238,9.53161634 7.32462783,9.54008163 L7.09640557,9.56776542 C7.02650103,9.57623071 6.96240912,9.5262016 6.95391961,9.45649641 L6.92493294,9.21908695 C6.91636696,9.14938177 6.96653914,9.08539637 7.03652017,9.07700734 L7.26466595,9.04924729 Z" id="Shape-Copy-80" fill="#3190E6"></path>
                    <path d="M7.9754896,8.96291658 C8.04539414,8.95452755 8.10948605,9.00455666 8.11797555,9.07418558 L8.14696222,9.31159504 C8.15545173,9.38130023 8.10527954,9.44520936 8.035375,9.45367465 L7.80722921,9.48135844 C7.73724819,9.48982373 7.67323276,9.43979462 7.66466678,9.37008944 L7.6356801,9.13275624 C7.6271906,9.06305105 7.67736279,8.99906566 7.74726733,8.99060037 L7.9754896,8.96291658 Z" id="Shape-Copy-81" fill="#3190E6"></path>
                    <path d="M8.68631324,8.87666213 C8.75621778,8.86819684 8.82030969,8.91822594 8.82879919,8.98793113 L8.85778587,9.22534059 C8.86635185,9.29504578 8.81610318,9.35895491 8.74619864,9.3674202 L8.51805285,9.39510399 C8.44814831,9.40356928 8.3840564,9.35354018 8.37549042,9.28383499 L8.34650374,9.04642553 C8.33801424,8.97672034 8.38818643,8.91281121 8.45809097,8.90434592 L8.68631324,8.87666213 Z" id="Shape-Copy-82" fill="#3190E6"></path>
                    <path d="M7.11866183,9.74995983 L7.34688409,9.72227604 C7.41678864,9.71381075 7.48088055,9.76383985 7.48937005,9.83354504 L7.51835672,10.0709545 C7.52684622,10.1406597 7.47667404,10.2045688 7.4067695,10.2130341 L7.17854723,10.2407179 C7.10864269,10.2491832 7.04455078,10.1991541 7.03606127,10.1294489 L7.0070746,9.89203944 C6.99850862,9.82233425 7.04875729,9.75842512 7.11866183,9.74995983 L7.11866183,9.74995983 L7.11866183,9.74995983 Z" id="Shape-Copy-83" fill="#3190E6"></path>
                    <path d="M7.82940899,9.66355285 L8.05763126,9.63586906 C8.1275358,9.62740377 8.19162771,9.6775854 8.20011721,9.74729059 L8.22910388,9.98454752 C8.23759339,10.0542527 8.1874212,10.1183144 8.11751666,10.1266271 L7.88937087,10.1543109 C7.81946633,10.1627762 7.75537442,10.1127471 7.74680844,10.0430419 L7.71782176,9.80578499 C7.70933226,9.7360798 7.75950445,9.67201814 7.82940899,9.66355285 L7.82940899,9.66355285 L7.82940899,9.66355285 Z" id="Shape-Copy-84" fill="#3190E6"></path>
                    <path d="M8.54023263,9.5772984 L8.7684549,9.54961461 C8.83835944,9.54114932 8.90245135,9.59117843 8.91094085,9.66088361 L8.93992753,9.89829308 C8.94841703,9.96799826 8.89824484,10.0319074 8.8283403,10.0403727 L8.60011803,10.0680565 C8.53021349,10.0765218 8.46612158,10.0264927 8.4575556,9.95678747 L8.42856892,9.71937801 C8.4201559,9.64967282 8.47040457,9.58583996 8.54023263,9.5772984 L8.54023263,9.5772984 L8.54023263,9.5772984 Z" id="Shape-Copy-85" fill="#3190E6"></path>
                    <path d="M8.13533696,3.5976763 C8.66964016,3.42440477 9.47729001,3.91295119 9.4501389,4.56889683 C9.1630255,3.87970014 8.70986969,3.6981921 8.13533696,3.5976763 L8.13533696,3.5976763 L8.13533696,3.5976763 Z" id="Shape-Copy-86" fill="#3190E6"></path>
                    <path d="M8.61204922,3.37300291 C9.00684927,3.24495586 9.5988199,3.6059128 9.57878162,4.09056977 C9.36662057,3.5814321 9.03660077,3.4471314 8.61204922,3.37300291 L8.61204922,3.37300291 L8.61204922,3.37300291 Z" id="Shape-Copy-87" fill="#3190E6"></path>
                    <path d="M5.32095258,11.9160066 C4.86297841,12.0646449 4.17073989,11.6458036 4.19406689,11.0836626 C4.44010947,11.6744026 4.82840855,11.8299046 5.32095258,11.9160066 L5.32095258,11.9160066 L5.32095258,11.9160066 Z" id="Shape-Copy-88" fill="#3190E6"></path>
                    <path d="M4.91230929,12.1086491 C4.57395295,12.2183929 4.06657141,11.9090666 4.08377986,11.4938097 C4.26565404,11.9300391 4.54848445,12.0451976 4.91230929,12.1086491 L4.91230929,12.1086491 L4.91230929,12.1086491 Z" id="Shape" fill="#3190E6"></path>
                </g>
            </g>
        </g>
    </g>
</svg>