<?xml version="1.0" encoding="UTF-8"?>
<svg width="14px" height="20px" viewBox="0 0 14 20" version="1.1" xmlns="http://www.w3.org/2000/svg" xmlns:xlink="http://www.w3.org/1999/xlink">
    <!-- Generator: Sketch 39.1 (31720) - http://www.bohemiancoding.com/sketch -->
    <title>-g-Phone Icon</title>
    <desc>Created with Sketch.</desc>
    <defs></defs>
    <g id="NewBackend" stroke="none" stroke-width="1" fill="none" fill-rule="evenodd">
        <g id="Messages---Overview-Statistics" transform="translate(-904.000000, -793.000000)" fill="#777777">
            <g id="-g-Phone-Icon" transform="translate(904.000000, 793.000000)">
                <path d="M12.9203568,15.3554397 C11.8627994,15.6031299 10.0726261,15.9505106 9.04614028,16.0641988 C6.12035621,16.3892175 5.38324804,15.3923116 4.83088486,11.2542988 C4.24838598,6.8899337 4.95498408,5.96250399 7.55844712,5.67350372 C8.57388942,5.56066899 10.4102958,5.50894597 11.6080497,5.52430924 L11.2698185,2.99090517 C10.1108105,2.89087317 8.23958897,2.79818141 6.69424489,2.96956728 C1.68554063,3.52554714 0.531212029,5.81091968 1.31006095,11.6450381 C2.02845129,17.0267934 3.6123541,19.4669936 8.81928018,18.888993 C10.1912972,18.7365552 12.0851672,18.2888011 13.2657008,17.9434688 L12.9203568,15.3554397 L12.9203568,15.3554397 Z" id="Shape-Copy-18"></path>
                <path d="M10.090408,0.745477146 C11.3980357,0.357639799 13.3746386,1.45116359 13.3081903,2.91938058 C12.6055229,1.37673705 11.4964915,0.970463775 10.090408,0.745477146 L10.090408,0.745477146 L10.090408,0.745477146 Z" id="Shape-Copy-29"></path>
                <path d="M11.2570904,0.242585938 C12.2233048,-0.0440244958 13.6720649,0.763913076 13.6230242,1.84873101 C13.1037916,0.709117394 12.2961172,0.40850931 11.2570904,0.242585938 L11.2570904,0.242585938 L11.2570904,0.242585938 Z" id="Shape-Copy-30"></path>
                <path d="M3.20262079,19.3645717 C2.0817971,19.697272 0.387646269,18.7597708 0.444735652,17.5015186 C1.04688826,18.8237845 1.99719251,19.171848 3.20262079,19.3645717 L3.20262079,19.3645717 L3.20262079,19.3645717 Z" id="Shape-Copy-31"></path>
                <path d="M2.20252711,19.7957677 C1.37445029,20.0414094 0.132709418,19.3490378 0.174824537,18.4195596 C0.619934545,19.3959811 1.31211992,19.6537427 2.20252711,19.7957677 L2.20252711,19.7957677 L2.20252711,19.7957677 Z" id="Shape-Copy-32"></path>
                <path d="M1.89574187,2.20942657 L2.67122159,1.86187514 C3.14590577,1.64917913 3.70949964,1.83678179 3.95844679,2.26217381 L4.71352407,3.55285963 C4.96247121,3.97825165 4.74908795,4.51408855 4.27440376,4.72678456 L3.49892405,5.07433598 C3.02442705,5.28686129 2.46064599,5.09960004 2.21169885,4.67403731 L1.45662157,3.3835222 C1.20767442,2.95778877 1.42087051,2.42229328 1.89574187,2.20942657 L1.89574187,2.20942657 L1.89574187,2.20942657 Z" id="Shape-Copy-17"></path>
                <path d="M10.3238194,6.14515626 C10.6395892,6.10999143 10.929154,6.31688354 10.9677128,6.6048596 L11.4115125,9.92998446 C11.4498841,10.2179605 11.223024,10.4820381 10.9074413,10.517203 L7.3791303,10.9087958 C7.0633605,10.9439606 6.77379567,10.7370685 6.73542411,10.4490925 L6.29143718,7.1239676 C6.25306562,6.83616224 6.47973855,6.57191391 6.79550835,6.53691978 L10.3238194,6.14515626 Z" id="Shape-Copy-19"></path>
                <path d="M7.20000067,11.5033545 L7.75854073,11.4413893 C7.9296217,11.4224413 8.08647712,11.5344225 8.10744109,11.6904451 L8.17838166,12.2218437 C8.19915846,12.3776956 8.07636949,12.5209155 7.90528852,12.5398635 L7.34674846,12.6018287 C7.17566749,12.6207768 7.01881207,12.5087955 6.99803528,12.352773 L6.9270947,11.8213743 C6.90613073,11.6655224 7.0289197,11.5223026 7.20000067,11.5033545 L7.20000067,11.5033545 L7.20000067,11.5033545 Z" id="Shape-Copy-20"></path>
                <path d="M8.93963583,11.3102894 L9.49817589,11.2483242 C9.66925686,11.2293761 9.82611228,11.3413573 9.84688907,11.4973799 L9.91782965,12.0287785 C9.93860644,12.1848011 9.81581747,12.3278503 9.6447365,12.3467983 L9.08619644,12.4087636 C8.91511547,12.4277116 8.75826005,12.3157304 8.73748326,12.1597078 L8.66654268,11.6283092 C8.64557871,11.4724573 8.76855486,11.3292374 8.93963583,11.3102894 L8.93963583,11.3102894 L8.93963583,11.3102894 Z" id="Shape-Copy-21"></path>
                <path d="M10.679271,11.1170535 L11.2378111,11.0550883 C11.408892,11.0361403 11.5657474,11.1481215 11.5865242,11.3041441 L11.6711288,11.9376231 C11.6844185,12.0373137 11.6058036,12.1289812 11.4963043,12.1412719 L10.8258316,12.2156984 C10.6547506,12.2346464 10.4978952,12.1226652 10.4771184,11.9666426 L10.4061778,11.435244 C10.3852139,11.2792214 10.50819,11.1361723 10.679271,11.1170535 L10.679271,11.1170535 L10.679271,11.1170535 Z" id="Shape-Copy-22"></path>
                <path d="M7.95957023,12.9478438 C8.1306512,12.9290665 8.28750662,13.0410477 8.30847059,13.1970703 L8.37941116,13.7281275 C8.40018796,13.8844915 8.27739899,14.0275407 8.10631802,14.0464887 L7.54777796,14.1084539 C7.37669699,14.1274019 7.21984157,14.0154207 7.19906477,13.8593981 L7.1281242,13.3279995 C7.10716023,13.1719769 7.22994919,13.0287571 7.40121734,13.0099797 L7.95957023,12.9478438 Z" id="Shape-Copy-23"></path>
                <path d="M9.69920539,12.754608 C9.87028636,12.7358306 10.0271418,12.8478118 10.0479186,13.0036637 L10.1188591,13.5350623 C10.1396359,13.6910849 10.016847,13.8341341 9.845766,13.8530821 L9.28741312,13.9150473 C9.11614497,13.9339954 8.95947673,13.8220142 8.93851276,13.6659916 L8.86757218,13.1347637 C8.84679539,12.9787411 8.96958436,12.8355212 9.14066533,12.8165732 L9.69920539,12.754608 Z" id="Shape-Copy-24"></path>
                <path d="M11.4388406,12.5615428 C11.6099215,12.5425948 11.7667769,12.654576 11.7875537,12.8105986 L11.8584943,13.3419972 C11.8794583,13.4980198 11.7564821,13.6410689 11.5854012,13.660017 L11.0270483,13.7219822 C10.8559673,13.7409302 10.6991119,13.628949 10.6781479,13.4729264 L10.6072073,12.9415278 C10.5864306,12.7855052 10.7092195,12.642456 10.8803005,12.623508 L11.4388406,12.5615428 Z" id="Shape-Copy-25"></path>
                <path d="M7.60224684,14.5162635 L8.1607869,14.4542983 C8.33186787,14.4353503 8.48872329,14.5473315 8.50950009,14.7033541 L8.58044066,15.2347527 C8.60121745,15.3907753 8.47842849,15.5338244 8.30734752,15.5527725 L7.74880746,15.6147377 C7.57772648,15.6336857 7.42087107,15.5217045 7.40009427,15.3656819 L7.3291537,14.8342833 C7.30818973,14.6782607 7.43116587,14.5352115 7.60224684,14.5162635 L7.60224684,14.5162635 L7.60224684,14.5162635 Z" id="Shape-Copy-26"></path>
                <path d="M9.34169483,14.3228569 L9.90023489,14.2608917 C10.0713159,14.2419437 10.2281713,14.3542663 10.2489481,14.5102889 L10.3198886,15.0413461 C10.3406654,15.1973687 10.2178765,15.3407593 10.0467955,15.3593659 L9.48844262,15.4213311 C9.31736165,15.4402792 9.16050623,15.3282979 9.13954226,15.1722754 L9.06860168,14.6412181 C9.04782489,14.4851955 9.17061386,14.341805 9.34169483,14.3228569 L9.34169483,14.3228569 L9.34169483,14.3228569 Z" id="Shape-Copy-27"></path>
                <path d="M11.08133,14.1297918 L11.6398701,14.0678266 C11.810951,14.0488785 11.9678064,14.1608597 11.9885832,14.3168823 L12.0595238,14.848281 C12.0803006,15.0043035 11.9575116,15.1473527 11.7864307,15.1663007 L11.2278906,15.228266 C11.0568096,15.247214 10.8999542,15.1352328 10.8789902,14.9792102 L10.8080497,14.4478116 C10.7874601,14.291789 10.9104362,14.1489105 11.08133,14.1297918 L11.08133,14.1297918 L11.08133,14.1297918 Z" id="Shape-Copy-28"></path>
            </g>
        </g>
    </g>
</svg>