<?xml version="1.0" encoding="UTF-8"?>
<svg width="26px" height="25px" viewBox="0 0 26 25" version="1.1" xmlns="http://www.w3.org/2000/svg" xmlns:xlink="http://www.w3.org/1999/xlink">
    <!-- Generator: Sketch 42 (36781) - http://www.bohemiancoding.com/sketch -->
    <title>Dashboard</title>
    <desc>Created with Sketch.</desc>
    <defs></defs>
    <g id="Page-1" stroke="none" stroke-width="1" fill="none" fill-rule="evenodd">
        <g id="phonebook-icon@2x" fill-rule="nonzero" fill="#777777">
            <g id="Page-1">
                <g id="Dashboard">
                    <g id="-g-Phonebook-Icon">
                        <path d="M12.622205,2.10599907 C12.6555916,2.03839656 12.6878211,1.98066094 12.7274077,1.92341421 C12.7726669,1.85963106 12.7726669,1.85963106 12.8639434,1.76558999 C13.0023916,1.64124495 13.0023916,1.64124495 13.3853023,1.5474217 C14.4691146,1.49944858 15.9044701,1.36340615 17.6017124,1.15672245 C18.2575142,1.0768614 18.9425802,0.987617866 19.6490337,0.89063354 C20.7326184,0.741875369 21.8131167,0.582424347 22.8395887,0.422979978 C23.1987809,0.367185774 23.5254795,0.315391277 23.8133366,0.268932583 C23.9856775,0.241117623 24.1065138,0.221305938 24.1695037,0.210833119 L25.1192455,0.0529272769 L24.6637192,23.5215091 L24.0168958,23.6367111 C23.961779,23.6465277 23.8580279,23.6646732 23.7104713,23.6899591 C23.4654288,23.7319507 23.1862626,23.7787013 22.8777954,23.8290226 C21.996935,23.9727206 21.056988,24.1163962 20.096385,24.2505501 C19.1820119,24.3782477 18.2950676,24.4907271 17.4521863,24.5838176 C15.6722701,24.780397 14.1704494,24.8821174 13.0255365,24.8656567 C11.8423838,24.8486463 10.2191192,24.6901592 8.25689507,24.4199848 C7.54586386,24.3220844 6.80243026,24.2110663 6.03603153,24.0893447 C4.97219329,23.9203831 3.91717532,23.7394412 2.91825614,23.5584868 C2.56853057,23.495134 2.25069325,23.4362849 1.9706768,23.3834372 C1.8022012,23.3516407 1.68344995,23.3288471 1.62036242,23.3165548 L0.967033992,23.1892564 L1.18481911,0.413891617 L2.15848028,0.643028792 C2.21144904,0.655494227 2.31439978,0.679295949 2.46228301,0.712811941 C2.70985399,0.768920987 2.99228946,0.831508235 3.30453193,0.89895096 C4.19720457,1.09176354 5.14873192,1.2846093 6.11844872,1.46449536 C7.00601968,1.62914306 7.86571647,1.77474805 8.68114981,1.89616395 C10.2118667,2.12408371 11.5235799,2.25749209 12.5436374,2.27771676 C12.5744883,2.20624433 12.596539,2.15796853 12.622205,2.10599907 Z M13.8365515,3.31455322 C13.8035949,3.38205922 13.77207,3.43936276 13.7334304,3.49621384 C13.6890969,3.55987976 13.6890969,3.55987976 13.5979472,3.65536757 C13.4579782,3.78432075 13.4579782,3.78432075 13.0521473,3.87816177 C11.8709531,3.90047594 10.3080138,3.75603887 8.44551176,3.47871717 C7.61003114,3.35431629 6.73188825,3.20558712 5.82662145,3.03765678 C4.84043217,2.85471501 3.87384294,2.65881666 2.9667304,2.46288514 C2.89831882,2.4481086 2.83129748,2.43355758 2.76571642,2.41924823 L2.5797253,21.8696844 C2.77356126,21.9057191 2.98199402,21.9439925 3.20345472,21.9841102 C4.19164574,22.1631211 5.23547786,22.3421446 6.28700226,22.5091505 C7.04300642,22.6292212 7.77564927,22.7386279 8.47513664,22.8349389 C10.3778318,23.0969169 11.9453518,23.2499613 13.0485377,23.2658221 C14.1139568,23.2811399 15.5569694,23.1834026 17.2765453,22.9934873 C18.1031414,22.9021955 18.9751001,22.7916165 19.8750832,22.6659285 C20.8227133,22.5335863 21.7507555,22.3917305 22.6201869,22.249897 C22.7855423,22.2229219 22.9422755,22.1970015 23.0896055,22.172327 L23.4822791,1.94190145 C23.3548087,1.96198561 23.2223267,1.98271583 23.0851754,2.00401987 C22.0499406,2.16482539 20.9603088,2.32562426 19.866646,2.47576598 C19.1524813,2.57380893 18.4594252,2.66409334 17.7951254,2.74498924 C16.2903247,2.92823813 14.9830995,3.05751622 13.923685,3.12127873 C13.8862082,3.20907328 13.8644982,3.25730902 13.8365515,3.31455322 Z" id="Path-1149"></path>
                        <polygon id="Path-1150" points="14.6319581 24.7961343 14.6319581 2.78211727 13.0319581 2.78211727 13.0319581 24.7961343"></polygon>
                        <polygon id="Path-1151" points="4.684957 16.7764944 11.5519351 16.454179 11.4769185 14.8559386 4.60994038 15.178254"></polygon>
                        <polygon id="Path-1152" points="5.39638016 18.8878725 11.5805928 18.3746333 11.4482608 16.7801151 5.26404816 17.2933543"></polygon>
                        <polygon id="Path-1153" points="6.47929205 20.9435552 11.5871573 20.4874428 11.4448497 18.893784 6.33698455 19.3498964"></polygon>
                        <polygon id="Path-1155" points="15.9970842 16.0445884 22.7749757 14.9411391 22.5178785 13.3619301 15.739987 14.4653794"></polygon>
                        <polygon id="Path-1156" points="16.6546048 18.9395603 22.1786716 17.5709225 21.793891 16.0178791 16.2698242 17.3865169"></polygon>
                        <polygon id="Path-1157" points="17.3907784 21.3424243 21.9679518 20.4301996 21.6552242 18.8610592 17.0780508 19.7732839"></polygon>
                        <path d="M15.4253843,5.13251386 L22.2567461,3.62123576 L22.6583162,11.8145594 L15.4253843,11.8145596 L15.4253843,5.13251386 Z M16.2253843,5.7748753 L16.2253843,11.0145596 L21.8181464,11.0145594 L21.5041041,4.60708274 L16.2253843,5.7748753 Z" id="Path-1158"></path>
                        <path d="M21.8641975,10.7326667 L21.8641975,11.4 L16.2469136,11.4 L16.2469136,10.7326667 L18.1193416,9.53333333 L18.1193416,9.06666667 C18.0038752,9.06666667 17.8971468,8.95077778 17.7988443,8.719 C17.7003858,8.48722222 17.6512346,8.292 17.6512346,8.13333333 L17.6512346,7.2 C17.6512346,6.81437778 17.788546,6.48444444 18.0633248,6.21066667 C18.3379475,5.93688889 18.6685871,5.8 19.0555556,5.8 C19.442524,5.8 19.7733196,5.93688889 20.0479424,6.21066667 C20.3225652,6.48444444 20.4598765,6.81437778 20.4598765,7.2 L20.4598765,8.13333333 C20.4598765,8.292 20.4108813,8.48722222 20.3124228,8.719 C20.2141204,8.95077778 20.107392,9.06666667 19.9917695,9.06666667 L19.9917695,9.53333333 L21.8641975,10.7326667" id="Account-icon-Copy"></path>
                        <path d="M5.7869553,5.25171535 L6.1038202,5.09644208 C6.29777854,5.00141729 6.52806582,5.08523129 6.62978687,5.27528088 L6.93831523,5.85191209 C7.04003628,6.04196168 6.95284681,6.281354 6.75888847,6.37637879 L6.44202358,6.53165206 C6.24814172,6.62660059 6.01777796,6.54293911 5.91605691,6.35281326 L5.60752855,5.77625832 C5.5058075,5.5860562 5.59292049,5.34681641 5.7869553,5.25171535 L5.7869553,5.25171535 L5.7869553,5.25171535 Z" id="Shape-Copy-90"></path>
                        <path d="M10.2916682,11.1248731 C9.85954495,11.235532 9.12807117,11.390729 8.70864392,11.4415207 C7.51315389,11.5867271 7.2119678,11.1413461 6.98626944,9.29263333 C6.74825748,7.34279469 7.036977,6.92845303 8.10076504,6.79933828 C8.51567985,6.74892785 9.26604469,6.7258199 9.75545296,6.73268365 L9.61725,5.60085139 C9.1436735,5.55616076 8.37908301,5.51474947 7.74764768,5.59131841 C5.70106603,5.83970987 5.22940158,6.8607307 5.54764315,9.46720135 C5.84118104,11.8715727 6.48837166,12.9617649 8.61594775,12.7035354 C9.17656076,12.6354318 9.95040556,12.4353916 10.4327775,12.2811098 L10.2916682,11.1248731 L10.2916682,11.1248731 Z" id="Shape-Copy-91"></path>
                        <path d="M9.23071001,7.01005538 C9.35973513,6.99434502 9.47805277,7.08677684 9.49380806,7.21543401 L9.67514687,8.70097814 C9.69082568,8.82963531 9.5981295,8.94761553 9.46918086,8.96332589 L8.02749529,9.13827524 C7.89847017,9.1539856 7.78015253,9.06155377 7.76447372,8.9328966 L7.58305843,7.44735247 C7.56737962,7.31877157 7.65999931,7.20071508 7.78902444,7.18508099 L9.23071001,7.01005538 Z" id="Shape-Copy-92"></path>
                        <path d="M7.95430202,9.40390233 L8.18252429,9.37621854 C8.25242883,9.36775325 8.31652074,9.41778236 8.32508673,9.48748755 L8.3540734,9.72489701 C8.3625629,9.79452593 8.31239072,9.85851133 8.24248617,9.86697662 L8.01426391,9.8946604 C7.94435937,9.9031257 7.88026746,9.85309659 7.87177795,9.7833914 L7.84279128,9.54598194 C7.8342253,9.47635302 7.88439748,9.41236762 7.95430202,9.40390233 L7.95430202,9.40390233 L7.95430202,9.40390233 Z" id="Shape-Copy-93"></path>
                        <path d="M8.66512567,9.31764788 L8.89334794,9.28996409 C8.96325248,9.2814988 9.02734439,9.33152791 9.03583389,9.4012331 L9.06482056,9.63864256 C9.07331006,9.70834774 9.02313788,9.77225688 8.95323334,9.78072217 L8.72501107,9.80840596 C8.65510653,9.81687125 8.59101462,9.76684214 8.58252512,9.69713695 L8.55353844,9.45972749 C8.54497246,9.39009857 8.59522113,9.32611317 8.66512567,9.31764788 L8.66512567,9.31764788 L8.66512567,9.31764788 Z" id="Shape-Copy-94"></path>
                        <path d="M9.37594931,9.23131717 L9.60417158,9.20363338 C9.67407612,9.19516809 9.73816803,9.2451972 9.74665753,9.31490238 L9.78122739,9.59791764 C9.78665761,9.64245575 9.75453518,9.68340946 9.70979321,9.68890045 L9.43583471,9.72215151 C9.36593017,9.7306168 9.30183826,9.68058769 9.29334876,9.6108825 L9.26436208,9.37347304 C9.2557961,9.30376786 9.30604477,9.23985872 9.37594931,9.23131717 L9.37594931,9.23131717 L9.37594931,9.23131717 Z" id="Shape-Copy-95"></path>
                        <path d="M8.26466595,10.0492473 C8.33457049,10.0408583 8.3986624,10.0908874 8.40722839,10.1605926 L8.43621506,10.3978495 C8.44470456,10.4677072 8.39453238,10.5316163 8.32462783,10.5400816 L8.09640557,10.5677654 C8.02650103,10.5762307 7.96240912,10.5262016 7.95391961,10.4564964 L7.92493294,10.2190869 C7.91636696,10.1493818 7.96653914,10.0853964 8.03652017,10.0770073 L8.26466595,10.0492473 Z" id="Shape-Copy-96"></path>
                        <path d="M8.9754896,9.96291658 C9.04539414,9.95452755 9.10948605,10.0045567 9.11797555,10.0741856 L9.14696222,10.311595 C9.15545173,10.3813002 9.10527954,10.4452094 9.035375,10.4536746 L8.80722921,10.4813584 C8.73724819,10.4898237 8.67323276,10.4397946 8.66466678,10.3700894 L8.6356801,10.1327562 C8.6271906,10.0630511 8.67736279,9.99906566 8.74726733,9.99060037 L8.9754896,9.96291658 Z" id="Shape-Copy-97"></path>
                        <path d="M9.68631324,9.87666213 C9.75621778,9.86819684 9.82030969,9.91822594 9.82879919,9.98793113 L9.85778587,10.2253406 C9.86635185,10.2950458 9.81610318,10.3589549 9.74619864,10.3674202 L9.51805285,10.395104 C9.44814831,10.4035693 9.3840564,10.3535402 9.37549042,10.283835 L9.34650374,10.0464255 C9.33801424,9.97672034 9.38818643,9.91281121 9.45809097,9.90434592 L9.68631324,9.87666213 Z" id="Shape-Copy-98"></path>
                        <path d="M8.11866183,10.7499598 L8.34688409,10.722276 C8.41678864,10.7138108 8.48088055,10.7638399 8.48937005,10.833545 L8.51835672,11.0709545 C8.52684622,11.1406597 8.47667404,11.2045688 8.4067695,11.2130341 L8.17854723,11.2407179 C8.10864269,11.2491832 8.04455078,11.1991541 8.03606127,11.1294489 L8.0070746,10.8920394 C7.99850862,10.8223343 8.04875729,10.7584251 8.11866183,10.7499598 L8.11866183,10.7499598 L8.11866183,10.7499598 Z" id="Shape-Copy-99"></path>
                        <path d="M8.82940899,10.6635529 L9.05763126,10.6358691 C9.1275358,10.6274038 9.19162771,10.6775854 9.20011721,10.7472906 L9.22910388,10.9845475 C9.23759339,11.0542527 9.1874212,11.1183144 9.11751666,11.1266271 L8.88937087,11.1543109 C8.81946633,11.1627762 8.75537442,11.1127471 8.74680844,11.0430419 L8.71782176,10.805785 C8.70933226,10.7360798 8.75950445,10.6720181 8.82940899,10.6635529 L8.82940899,10.6635529 L8.82940899,10.6635529 Z" id="Shape-Copy-100"></path>
                        <path d="M9.54023263,10.5772984 L9.7684549,10.5496146 C9.83835944,10.5411493 9.90245135,10.5911784 9.91094085,10.6608836 L9.93992753,10.8982931 C9.94841703,10.9679983 9.89824484,11.0319074 9.8283403,11.0403727 L9.60011803,11.0680565 C9.53021349,11.0765218 9.46612158,11.0264927 9.4575556,10.9567875 L9.42856892,10.719378 C9.4201559,10.6496728 9.47040457,10.58584 9.54023263,10.5772984 L9.54023263,10.5772984 L9.54023263,10.5772984 Z" id="Shape-Copy-101"></path>
                        <path d="M9.13533696,4.5976763 C9.66964016,4.42440477 10.47729,4.91295119 10.4501389,5.56889683 C10.1630255,4.87970014 9.70986969,4.6981921 9.13533696,4.5976763 L9.13533696,4.5976763 L9.13533696,4.5976763 Z" id="Shape-Copy-102"></path>
                        <path d="M9.61204922,4.37300291 C10.0068493,4.24495586 10.5988199,4.6059128 10.5787816,5.09056977 C10.3666206,4.5814321 10.0366008,4.4471314 9.61204922,4.37300291 L9.61204922,4.37300291 L9.61204922,4.37300291 Z" id="Shape-Copy-103"></path>
                        <path d="M6.32095258,12.9160066 C5.86297841,13.0646449 5.17073989,12.6458036 5.19406689,12.0836626 C5.44010947,12.6744026 5.82840855,12.8299046 6.32095258,12.9160066 L6.32095258,12.9160066 L6.32095258,12.9160066 Z" id="Shape-Copy-104"></path>
                        <path d="M5.91230929,13.1086491 C5.57395295,13.2183929 5.06657141,12.9090666 5.08377986,12.4938097 C5.26565404,12.9300391 5.54848445,13.0451976 5.91230929,13.1086491 L5.91230929,13.1086491 L5.91230929,13.1086491 Z" id="Shape-Copy-105"></path>
                    </g>
                </g>
            </g>
        </g>
    </g>
</svg>