<?xml version="1.0" encoding="UTF-8"?>
<svg width="26px" height="23px" viewBox="0 0 26 23" version="1.1" xmlns="http://www.w3.org/2000/svg" xmlns:xlink="http://www.w3.org/1999/xlink">
    <!-- Generator: Sketch 39.1 (31720) - http://www.bohemiancoding.com/sketch -->
    <title>Pig icon</title>
    <desc>Created with Sketch.</desc>
    <defs>
        <linearGradient x1="50%" y1="0%" x2="50%" y2="198.234705%" id="linearGradient-1">
            <stop stop-color="#F960E1" stop-opacity="0.636888587" offset="0%"></stop>
            <stop stop-color="#6BA8C2" offset="100%"></stop>
        </linearGradient>
    </defs>
    <g id="Page-1" stroke="none" stroke-width="1" fill="none" fill-rule="evenodd">
        <g id="API" transform="translate(-775.000000, -29.000000)" fill="url(#linearGradient-1)">
            <path d="M791.216405,35.232892 C792.18849,35.6269115 793.436903,36.1445498 793.628951,36.0905022 C793.765249,36.0521443 793.896631,35.9741898 793.996376,35.868924 C794.096121,35.7636581 794.169987,35.6250039 794.206333,35.4811621 C794.242398,35.3384311 794.227616,35.1840068 794.206333,35.0380057 C794.192006,34.9397258 794.153619,34.843769 794.101354,34.761033 C793.891728,34.4291889 792.825404,34.0321165 792.894102,33.9855093 C793.137722,33.820228 793.433096,33.7550019 793.68144,33.5977475 C793.85941,33.4850551 794.347935,32.8031429 794.573758,32.8776184 C795.509891,33.1863524 797.61578,35.8887624 798.038047,36.5890531 C798.28809,37.0037261 798.528432,37.7293401 798.667918,38.195495 C798.710396,38.3374533 798.591504,38.5781902 798.720407,38.6386514 C798.863412,38.705727 799.015127,38.516166 799.140321,38.4170732 C799.298681,38.2917296 799.445179,38.1439105 799.560235,37.9739168 C799.710387,37.7520684 799.825898,37.5043744 799.92766,37.2537877 C800.032797,36.9948892 799.956414,35.8438749 800.085127,35.9797131 C800.971978,36.9156515 800.96128,38.6557106 800.085127,39.5803587 C799.926691,39.747565 799.756939,39.9102831 799.560235,40.0235151 C799.365944,40.1353576 799.019071,40.031112 798.930364,40.2450933 C798.733503,40.7199679 798.913245,41.2861683 798.825386,41.7961406 C798.668376,42.7074934 798.366446,43.4989006 797.933069,44.2888953 C797.913467,44.3246276 797.674152,44.7264641 797.565644,44.8982353 C797.219397,45.4463529 796.134594,46.1024488 795.990967,46.6708608 C795.59508,48.2376083 796.76444,50.3404234 795.256118,51.434792 C795.146315,51.5144596 795.021736,51.5931752 794.888693,51.6009756 C793.834828,51.6627643 791.916787,52.096848 791.371914,50.6592683 C791.31833,50.5178937 791.283473,50.3673734 791.266936,50.2161119 C791.230781,49.8854261 791.478909,49.4004257 791.214446,49.21901 C790.926231,49.021301 790.555102,49.429628 790.217151,49.4959828 C789.801108,49.5776704 789.380141,49.6415758 788.957409,49.6621664 C788.240819,49.6970704 787.520535,49.7209797 786.80535,49.6621664 C786.168721,49.6098131 785.545116,49.2159338 784.915738,49.3297991 C784.708082,49.3673676 784.968227,49.7721875 784.968227,49.9945337 C784.968227,50.4216575 784.843023,50.7402854 784.600803,51.1024247 C783.941494,52.0881429 781.613556,51.5775849 781.189002,51.5455811 C780.966929,51.5288407 780.5914,51.1258089 780.506642,50.9916356 C779.799793,49.8726754 780.328371,48.2510965 780.244196,47.1140172 C780.23456,46.9838477 780.082423,46.9129345 779.98175,46.8370445 C779.225485,46.2669558 778.280318,45.2954285 777.829691,44.3442898 C777.5985,43.8563145 777.543269,43.2564034 777.19982,42.848637 C777.060332,42.6830274 776.779117,42.8678322 776.569949,42.848637 C776.375069,42.8307529 776.173449,42.8164512 775.992568,42.7378479 C774.67083,42.1634789 775.023024,40.1674288 775.100251,39.0264132 C775.112528,38.8450177 775.204414,38.671412 775.310208,38.5278623 C775.512938,38.252782 775.889859,37.9075931 776.255014,37.8631277 C776.567874,37.8250304 776.960703,38.0794295 777.19982,37.8631277 C777.545211,37.5506918 777.52786,36.9664672 777.724712,36.5336585 C778.126617,35.6500126 779.150479,34.5615338 779.771793,33.9301148 C779.785259,33.9164297 780.242021,33.6241372 780.244196,33.5977475 C780.310887,32.7883485 780.061074,31.9495212 780.244196,31.1603874 C780.321602,30.8268158 781.230036,30.7942781 781.398959,30.8834146 L781.661405,30.8834146 C781.741325,30.8178142 781.840059,30.8568855 781.923851,30.8834146 C782.194594,30.969133 782.474609,31.0525326 782.71119,31.2157819 C782.938997,31.3729769 783.016453,31.8190117 783.288572,31.825122 C783.942144,31.8397974 784.527149,31.2087155 785.178184,31.2711765 C785.459147,31.2981323 785.424892,31.811681 785.598098,32.0467001 C785.795583,32.3146632 786.069788,32.5102939 786.280458,32.7668293 C786.303376,32.7947366 786.312435,32.8626198 786.280458,32.8776184 C785.843361,33.0826363 785.285497,33.165266 785.44063,33.8747202 C785.470593,34.0117431 785.512794,34.1544516 785.598098,34.2624821 C785.694452,34.3845068 785.828866,34.4728913 785.965523,34.5394548 C786.062154,34.5865223 786.174032,34.5948494 786.280458,34.5948494 C786.638425,34.5948494 786.996495,34.5697974 787.354423,34.550717 C786.850031,33.9613667 786.542904,33.1803716 786.542904,32.3236729 C786.542904,30.488059 787.952918,29 789.692258,29 C791.431599,29 792.841613,30.488059 792.841613,32.3236729 C792.841613,33.5757868 792.185545,34.6661865 791.216405,35.232892 Z M791.216405,35.232892 C790.711593,35.0282738 790.281301,34.8569935 790.112172,34.8164275 C789.542723,34.6798437 788.963124,34.5731738 788.380028,34.5394548 C788.038432,34.5197012 787.696493,34.532482 787.354423,34.550717 C787.930772,35.2241439 788.764685,35.6473458 789.692258,35.6473458 C790.245155,35.6473458 790.764775,35.4969834 791.216405,35.232892 Z M780.291266,38.4487066 C780.708148,38.6520337 781.307027,38.2818795 781.628899,37.6219439 C781.950771,36.9620084 781.87375,36.2621958 781.456868,36.0588687 C781.039985,35.8555416 780.441107,36.2256959 780.119234,36.8856314 C779.797362,37.5455669 779.874383,38.2453795 780.291266,38.4487066 Z" id="Pig-icon"></path>
        </g>
    </g>
</svg>