<?xml version="1.0" encoding="UTF-8"?>
<svg width="17px" height="19px" viewBox="0 0 17 19" version="1.1" xmlns="http://www.w3.org/2000/svg" xmlns:xlink="http://www.w3.org/1999/xlink">
    <!-- Generator: Sketch 39.1 (31720) - http://www.bohemiancoding.com/sketch -->
    <title>-g-Fill 163</title>
    <desc>Created with Sketch.</desc>
    <defs></defs>
    <g id="Other" stroke="none" stroke-width="1" fill="none" fill-rule="evenodd">
        <path d="M17,3.45454545 L17,18.1363636 C17,18.3781818 16.9227273,18.5825758 16.7681818,18.7489697 C16.6136364,18.9170909 16.4338485,19 16.2272727,19 L13.9090909,19 L13.9090909,12.0909091 L3.09090909,12.0909091 L3.09090909,19 L0.772727273,19 C0.556363636,19 0.373484848,18.9170909 0.224606061,18.7489697 C0.0746969697,18.5825758 0,18.3781818 0,18.1363636 L0,0.863636364 C0,0.633333333 0.0746969697,0.431818182 0.224606061,0.258515152 C0.373484848,0.0863636364 0.556363636,0 0.772727273,0 L4.63636364,0 L4.63636364,5.18181818 L12.3636364,5.18181818 L12.3636364,0 L13.9090909,0 L17,3.45454545 L17,3.45454545 L17,3.45454545 L17,3.45454545 Z M9.27272727,3.45454545 L10.8181818,3.45454545 L10.8181818,0 L9.27272727,0 L9.27272727,0 L9.27272727,3.45454545 L9.27272727,3.45454545 Z" id="-g-Fill-163" fill="#FFFFFF"></path>
    </g>
</svg>