<?xml version="1.0" encoding="UTF-8"?>
<svg width="20px" height="27px" viewBox="0 0 20 27" version="1.1" xmlns="http://www.w3.org/2000/svg" xmlns:xlink="http://www.w3.org/1999/xlink">
    <!-- Generator: Sketch 39.1 (31720) - http://www.bohemiancoding.com/sketch -->
    <title>-g-Send Icon</title>
    <desc>Created with Sketch.</desc>
    <defs></defs>
    <g id="NewBackend" stroke="none" stroke-width="1" fill="none" fill-rule="evenodd">
        <g id="Compose-new:-Templates" transform="translate(-459.000000, -2340.000000)" fill="#FFFFFF">
            <g id="Group-3" transform="translate(459.000000, 2340.000000)">
                <g id="-g-Send-Icon">
                    <path d="M2.26543177,16.1333546 C2.99084634,15.6793175 3.73260282,15.2060098 4.32340438,14.622953 C4.60370967,14.3468176 5.17318365,13.8255681 5.04937292,13.4166528 C5.00284003,13.263427 5.01087249,13.1205417 5.05629746,12.9938719 C5.03192308,12.8721374 5.0092106,12.7482877 4.98871397,12.622088 L3.7719342,12.1593556 L1.97210835,12.8441713 C1.78071412,13.796897 1.73556614,15.0116575 2.01753332,16.2830552 C2.10035079,16.2332333 2.18372222,16.1845865 2.26543177,16.1333546 L2.26543177,16.1333546 L2.26543177,16.1333546 Z M4.90977424,11.1998147 C4.95409128,10.6609395 5.10338431,10.1291146 5.43077646,9.64828655 C8.48394364,5.15961834 6.27418515,3.12138697 4.46521892,2.17171638 C4.46521892,2.17171638 6.49272357,6.43336608 3.75586927,10.7911344 L3.77221118,10.8400162 L3.79381574,10.7753888 L4.90977424,11.1998147 L4.90977424,11.1998147 Z M3.73564962,10.780794 C4.20153252,9.72489942 5.08039485,6.01622544 3.93424536,3.6346462 C3.93424536,3.6346462 4.29182849,8.45561685 2.57592804,11.2223755 L3.73564962,10.780794 L3.73564962,10.780794 Z" id="Shape"></path>
                    <path d="M7.55300878,0.0141005284 C8.40444994,1.82131825 11.309986,5.57887406 5.71911421,11.5081462 L4.31731079,10.9744412 C8.58836567,4.76315849 7.55300878,0.0141005284 7.55300878,0.0141005284 L7.55300878,0.0141005284 L7.55300878,0.0141005284 Z M4.7815318,12.543595 C2.51748494,15.5613431 4.07605989,19.7496701 9.79323523,20.9623155 C10.7518682,21.1655981 13.7147394,20.9994469 14.9570015,19.2060947 C16.6939526,16.6976107 15.0040884,14.5792413 13.5828962,12.94358 L14.8470399,12.4944782 C15.1154349,12.6820152 15.4167908,12.8726074 15.75914,13.0876404 C18.2140271,15.0748749 20.1880743,18.2989607 17.9220886,22.0891827 C15.6558259,25.8791698 11.0377132,26.1752809 9.4686129,26.1752809 C7.9003436,26.1752809 2.97533538,25.4192575 1.18991257,22.1084535 C-0.918193704,18.199552 0.293046437,14.5383498 1.50733338,13.0213679 L3.28666259,12.3443076 C3.01771355,12.7229068 2.84099934,12.9146739 2.84099934,12.9146739 C3.00386447,12.7203217 3.16008204,12.5271444 3.31214489,12.3346722 L3.7719342,12.1593556 L4.7815318,12.543595 L4.7815318,12.543595 Z M12.6785516,11.8726449 C11.4468148,10.1730612 12.5730217,8.20768256 12.5730217,8.20768256 C12.9062304,9.88799553 13.2411011,10.8181604 13.7524089,11.4909906 L12.6785516,11.8726449 L12.6785516,11.8726449 Z M3.38305216,10.915219 C4.35747311,9.60668999 5.23744336,8.14587525 5.23744336,8.14587525 C4.92029954,9.260052 4.52726277,10.1836366 4.15112188,10.9116939 L3.79353875,10.7756238 L3.7719342,10.8404862 L3.75032964,10.7756238 L3.38305216,10.915219 L3.38305216,10.915219 Z" id="Shape"></path>
                    <path d="M7.68263613,1.82108324 C8.52826068,3.61490546 10.7130908,5.86088462 6.22515943,11.7006185 L4.883461,11.1901793 C8.97558582,5.29474841 7.68263613,1.82108324 7.68263613,1.82108324 L7.68263613,1.82108324 L7.68263613,1.82108324 Z M10.336396,21.3540752 C11.295029,21.5573578 14.2579002,21.3912066 15.4996083,19.5983244 C17.3999784,16.8548316 15.2010222,14.5783013 13.7371749,12.888353 L14.9093607,12.4719174 C15.36915,12.7983446 15.8386337,13.1043261 16.3023007,13.4794001 C18.7566339,15.4673396 20.7306811,18.6909554 18.4652493,22.4809424 C16.1995406,26.2713995 11.5808739,26.5670405 10.0117736,26.5670405 C8.44350434,26.5670405 3.51905008,25.8110172 1.73307331,22.5002131 C-0.6201616,18.1377447 1.08826035,14.0208604 2.39589006,12.9118538 C2.52247061,12.8042198 2.6559757,12.67567 2.79363551,12.5318446 L3.77221118,12.1593556 L4.03617456,12.2597044 C3.61737851,12.9130289 3.31075998,13.2448613 3.31075998,13.2448613 C3.58552564,12.916789 3.84367241,12.594592 4.08713916,12.2792101 L5.40363227,12.7802489 C3.27973805,15.9897642 4.53806505,20.1240391 10.336396,21.3540752 Z M12.8998598,11.7936819 C11.9481514,10.221943 12.0160118,8.59944224 12.0160118,8.59944224 C12.493251,9.98740425 13.0818367,10.8545867 13.7255417,11.5003909 L12.8998598,11.7936819 L12.8998598,11.7936819 Z M4.10902069,10.8950083 C4.9762498,9.68941309 5.70748099,8.4755926 5.70748099,8.4755926 C5.40889492,9.52631698 5.0421714,10.40713 4.6856962,11.1145065 L4.10902069,10.8950083 L4.10902069,10.8950083 Z" id="Shape"></path>
                    <path d="M17.3792048,18.0714722 C17.3213157,16.6912655 16.4335899,16.198217 14.3999917,14.6701897 C13.8612627,14.2647995 13.3795918,13.7411999 13.0076057,13.1475677 L15.534508,12.249834 C15.9970671,12.756043 16.5327493,13.290453 17.1196731,14.0344909 C18.9275315,16.3267668 17.3792048,18.0714722 17.3792048,18.0714722 L17.3792048,18.0714722 L17.3792048,18.0714722 Z M12.4467181,11.954898 C11.9863748,10.5368548 12.1719524,8.93785492 13.5031256,7.63120596 C13.9321699,7.21007018 13.7681969,7.48244539 13.7681969,7.48244539 C13.8335645,9.31104891 14.1587408,10.3443826 14.6747574,11.1631533 L12.4467181,11.954898 L12.4467181,11.954898 Z" id="Shape"></path>
                    <path d="M16.1521767,13.3680059 C16.4831696,12.0157653 15.7599709,11.3575056 14.2149681,9.46192456 C12.6694112,7.56657854 12.3982463,4.20548259 15.3217862,2.44479661 C15.8569144,2.12236453 15.6214802,2.35408321 15.6214802,2.35408321 C14.6514909,6.20822764 15.8876594,6.72242691 17.0340859,9.39494705 C18.1458896,11.9868592 16.1521767,13.3680059 16.1521767,13.3680059 L16.1521767,13.3680059 L16.1521767,13.3680059 Z" id="Shape"></path>
                </g>
            </g>
        </g>
    </g>
</svg>