<?xml version="1.0" encoding="UTF-8"?>
<svg width="25px" height="27px" viewBox="0 0 25 27" version="1.1" xmlns="http://www.w3.org/2000/svg" xmlns:xlink="http://www.w3.org/1999/xlink">
    <!-- Generator: Sketch 39.1 (31720) - http://www.bohemiancoding.com/sketch -->
    <title>Send a new message icon</title>
    <desc>Created with Sketch.</desc>
    <defs></defs>
    <g id="Page-1" stroke="none" stroke-width="1" fill="none" fill-rule="evenodd">
        <g id="API" transform="translate(-820.000000, -91.000000)" fill="#FFFFFF">
            <g id="Quick-menu-Compose-new" transform="translate(803.000000, 83.000000)">
                <g id="Send-a-new-message-icon" transform="translate(17.000000, 8.000000)">
                    <g id="Phone-Icon-Copy">
                        <path d="M2.3266182,2.73390677 L3.2783539,2.26709903 C3.86092734,1.98142003 4.55261843,2.23339533 4.85814788,2.80475333 L5.78484395,4.53831585 C6.09037339,5.10967384 5.82849101,5.82937398 5.24591758,6.11505298 L4.29418187,6.58186072 C3.71183816,6.86731044 3.01991734,6.6157937 2.7143879,6.04420642 L1.78769183,4.31087318 C1.48216238,3.73905663 1.74381504,3.01981504 2.3266182,2.73390677 L2.3266182,2.73390677 L2.3266182,2.73390677 Z" id="Shape-Copy-35"></path>
                        <path d="M15.8569781,20.3907489 C14.5590523,20.7234297 12.361997,21.1900081 11.1022049,21.3427065 C7.51142989,21.7792497 6.60678707,20.4402727 5.92887926,14.8823718 C5.21398631,9.02044966 6.08118454,7.77478835 9.2763793,7.38662258 C10.5226178,7.23507056 12.7764143,7.16559967 14.2464015,7.18623458 L13.831295,3.78353635 C12.4088601,3.64918009 10.1123354,3.52468274 8.21575566,3.75487673 C2.06864108,4.50163155 0.651949294,7.57119047 1.60781998,15.4071865 C2.48949066,22.6355989 4.43339303,25.9131119 10.8237826,25.1367804 C12.5076403,24.9320362 14.8319613,24.3306429 16.2808141,23.8668157 L15.8569781,20.3907489 L15.8569781,20.3907489 Z" id="Shape-Copy-36"></path>
                        <path d="M12.6702831,8.02011461 C13.057823,7.97288357 13.413202,8.25076716 13.4605246,8.63755726 L14.005194,13.1036417 C14.0522869,13.4904318 13.7738646,13.8451231 13.3865543,13.8923542 L9.05630621,14.4183153 C8.66876623,14.4655464 8.31338725,14.1876628 8.26629437,13.8008727 L7.72139524,9.33478827 C7.67430235,8.94822744 7.95249495,8.59330682 8.34003493,8.54630506 L12.6702831,8.02011461 Z" id="Shape-Copy-37"></path>
                        <path d="M8.83646285,15.2168867 L9.52195146,15.1336592 C9.73191681,15.1082095 9.92442333,15.2586151 9.95015213,15.4681742 L10.0372165,16.1819131 C10.0627156,16.3912429 9.91201838,16.5836062 9.70205303,16.609056 L9.01656441,16.6922835 C8.80659907,16.7177332 8.61409254,16.5673276 8.58859347,16.3577685 L8.50152907,15.6440296 C8.47580027,15.4346998 8.6264975,15.2423365 8.83646285,15.2168867 L8.83646285,15.2168867 L8.83646285,15.2168867 Z" id="Shape-Copy-38"></path>
                        <path d="M10.9714934,14.9575746 L11.656982,14.8743471 C11.8669474,14.8488973 12.0594539,14.999303 12.084953,15.208862 L12.1720174,15.922601 C12.1975165,16.1321601 12.0468192,16.3242941 11.8368539,16.3497438 L11.1513653,16.4329713 C10.9413999,16.4584211 10.7488934,16.3080154 10.7233943,16.0984564 L10.6363299,15.3847174 C10.6106011,15.1753876 10.7615281,14.9830243 10.9714934,14.9575746 L10.9714934,14.9575746 L10.9714934,14.9575746 Z" id="Shape-Copy-39"></path>
                        <path d="M13.106524,14.6980331 L13.7920126,14.6148056 C14.0019779,14.5893559 14.1944845,14.7397615 14.2199835,14.9493206 L14.3238176,15.8001671 C14.3401278,15.9340648 14.2436448,16.0571865 14.1092578,16.0736945 L13.2863958,16.1736592 C13.0764305,16.1991089 12.883924,16.0487033 12.8584249,15.8391442 L12.7713605,15.1254053 C12.7456317,14.9158462 12.8965586,14.7237122 13.106524,14.6980331 L13.106524,14.6980331 L13.106524,14.6980331 Z" id="Shape-Copy-40"></path>
                        <path d="M9.76867223,17.1570277 C9.97863758,17.1318073 10.1711441,17.2822129 10.1968729,17.491772 L10.2839373,18.2050524 C10.3094364,18.41507 10.1587391,18.607204 9.9487738,18.6326538 L9.26328518,18.7158813 C9.05331984,18.741331 8.86081331,18.5909254 8.83531424,18.3813663 L8.74824983,17.6676274 C8.72252104,17.4580683 8.87321827,17.265705 9.08341334,17.2404845 L9.76867223,17.1570277 Z" id="Shape-Copy-41"></path>
                        <path d="M11.9037028,16.8974863 C12.1136681,16.8722658 12.3061747,17.0226715 12.3316737,17.2320013 L12.4187381,17.9457402 C12.4442372,18.1552993 12.29354,18.3474333 12.0835746,18.372883 L11.3983157,18.4561106 C11.1881207,18.4815603 10.9958439,18.3311547 10.9701151,18.1215956 L10.8830507,17.4080859 C10.8575516,17.1985268 11.0082488,17.0061635 11.2182142,16.9807138 L11.9037028,16.8974863 Z" id="Shape-Copy-42"></path>
                        <path d="M14.0387334,16.6381741 C14.2486987,16.6127244 14.4412052,16.76313 14.4667043,16.9726891 L14.5537687,17.6864281 C14.5794975,17.8959871 14.4285706,18.0881212 14.2186052,18.1135709 L13.5333463,18.1967984 C13.323381,18.2222481 13.1308744,18.0718425 13.1051456,17.8622834 L13.0180812,17.1485445 C12.9925822,16.9389854 13.1432794,16.7468514 13.3532447,16.7214016 L14.0387334,16.6381741 Z" id="Shape-Copy-43"></path>
                        <path d="M9.33013411,19.2636237 L10.0156227,19.1803962 C10.2255881,19.1549465 10.4180946,19.3053521 10.4435937,19.5149112 L10.5306581,20.2286501 C10.5561571,20.4382092 10.4054599,20.6303432 10.1954946,20.655793 L9.51000595,20.7390205 C9.3000406,20.7644702 9.10753408,20.6140646 9.08203501,20.4045055 L8.9949706,19.6907666 C8.96924181,19.4812075 9.12016876,19.2890735 9.33013411,19.2636237 L9.33013411,19.2636237 L9.33013411,19.2636237 Z" id="Shape-Copy-44"></path>
                        <path d="M11.4649349,19.003853 L12.1504236,18.9206255 C12.3603889,18.8951758 12.5528954,19.04604 12.5783945,19.2555991 L12.6654589,19.9688794 C12.690958,20.1784385 12.5402608,20.3710311 12.3302954,20.3960223 L11.6450365,20.4792498 C11.4350712,20.5046995 11.2425646,20.3542939 11.2168359,20.1447348 L11.1297714,19.4314544 C11.1042724,19.2218953 11.2549696,19.0293028 11.4649349,19.003853 L11.4649349,19.003853 L11.4649349,19.003853 Z" id="Shape-Copy-45"></path>
                        <path d="M13.5999655,18.7445409 L14.2854541,18.6613134 C14.4954195,18.6358636 14.687926,18.7862693 14.7134251,18.9958283 L14.8004895,19.7095673 C14.8259886,19.9191264 14.6752913,20.1112604 14.465326,20.1367101 L13.7798374,20.2199376 C13.569872,20.2453874 13.3773655,20.0949817 13.3516367,19.8854227 L13.2645723,19.1716837 C13.2393029,18.9621246 13.3902299,18.7702199 13.5999655,18.7445409 L13.5999655,18.7445409 L13.5999655,18.7445409 Z" id="Shape-Copy-46"></path>
                        <path d="M12.3838205,0.767628209 C13.9886541,0.246711128 16.4145119,1.71545885 16.3329608,3.68746933 C15.4705868,1.61549413 14.1094875,1.06981514 12.3838205,0.767628209 L12.3838205,0.767628209 L12.3838205,0.767628209 Z" id="Shape-Copy-47"></path>
                        <path d="M13.8156739,0.0921785082 C15.0014957,-0.292777381 16.7795392,0.792390113 16.7193522,2.24944471 C16.0821051,0.718792233 15.0908573,0.31503564 13.8156739,0.0921785082 L13.8156739,0.0921785082 L13.8156739,0.0921785082 Z" id="Shape-Copy-48"></path>
                        <path d="M3.93053292,25.7755458 C2.55496126,26.2224065 0.475752991,24.9632178 0.545818014,23.2732179 C1.28483171,25.0491966 2.45112719,25.5166922 3.93053292,25.7755458 L3.93053292,25.7755458 L3.93053292,25.7755458 Z" id="Shape-Copy-49"></path>
                        <path d="M2.70313155,26.3546992 C1.68684414,26.6846287 0.162872463,25.7546816 0.214559775,24.506269 C0.760837232,25.8177328 1.61034692,26.1639409 2.70313155,26.3546992 L2.70313155,26.3546992 L2.70313155,26.3546992 Z" id="Shape-Copy-50"></path>
                    </g>
                    <g id="Pencil-Icon" transform="translate(17.159019, 11.195122)">
                        <polygon id="Pencil-2" points="0 7.88191907 1.41830784 7.3998562 5.04709215 3.42973199 4.04318563 2.34058612 0.475906139 6.24342009 0 7.88191907 0 7.88191907"></polygon>
                        <polygon id="Pencil" points="6.1037651 2.33852697 7.09893324 1.2493811 6.9137466 0.430131614 6.1037651 0.160602945 5.10859697 1.2493811"></polygon>
                    </g>
                </g>
            </g>
        </g>
    </g>
</svg>