<svg xmlns="http://www.w3.org/2000/svg" width="45" height="63" viewBox="0 0 45 63">
    <g fill="#FFF" fill-rule="evenodd">
        <path d="M5.857 38.52c1.62-1.062 3.278-2.169 4.598-3.532.626-.646 1.899-1.865 1.622-2.821a1.615 1.615 0 0 1 .015-.99 25.15 25.15 0 0 1-.15-.869l-2.72-1.082-4.02 1.602c-.428 2.228-.529 5.069.101 8.042.185-.116.371-.23.554-.35zm5.908-11.538c.099-1.26.433-2.504 1.164-3.629 6.822-10.497 1.884-15.264-2.157-17.485 0 0 4.53 9.967-1.585 20.158l.036.115.049-.152 2.493.993zm-2.623-.98c1.04-2.47 3.004-11.143.443-16.713 0 0 .8 11.275-3.034 17.746l2.59-1.033z"/>
        <path d="M17.67.822c1.903 4.226 8.395 13.014-4.097 26.881l-3.132-1.248C19.984 11.928 17.671.822 17.671.822zm-6.192 29.303C6.42 37.182 9.902 46.978 22.676 49.814c2.142.475 8.761.087 11.537-4.107 3.88-5.867.105-10.821-3.07-14.647l2.824-1.05c.6.438 1.273.884 2.038 1.387 5.485 4.648 9.895 12.188 4.832 21.052-5.063 8.864-15.38 9.557-18.887 9.557-3.503 0-14.507-1.769-18.496-9.512-4.71-9.141-2.004-17.704.71-21.252l3.975-1.583c-.601.885-.996 1.334-.996 1.334.364-.455.713-.907 1.053-1.357l1.027-.41 2.255.899zm17.644-1.57c-2.752-3.974-.236-8.57-.236-8.57.745 3.929 1.493 6.104 2.635 7.678l-2.399.893zM8.354 26.317c2.177-3.06 4.143-6.476 4.143-6.476a35.92 35.92 0 0 1-2.427 6.468l-.799-.318-.048.152-.048-.152-.821.326z"/>
        <path d="M17.96 5.048c1.89 4.195 6.77 9.448-3.256 23.105l-2.998-1.194C20.85 13.172 17.96 5.048 17.96 5.048zm5.93 45.682c2.141.476 8.76.087 11.535-4.106 4.246-6.416-.667-11.74-3.938-15.693l2.62-.974c1.027.764 2.076 1.48 3.111 2.356 5.484 4.65 9.894 12.189 4.833 21.053-5.062 8.864-15.381 9.556-18.887 9.556-3.504 0-14.506-1.768-18.496-9.511C-.59 43.208 3.227 33.58 6.148 30.986c.283-.252.582-.552.89-.889l2.185-.87.59.234c-.935 1.528-1.62 2.304-1.62 2.304a72.3 72.3 0 0 0 1.734-2.259l2.941 1.172C8.123 38.184 10.935 47.853 23.89 50.73zm5.727-22.36c-2.127-3.675-1.975-7.47-1.975-7.47 1.066 3.247 2.381 5.275 3.82 6.785l-1.845.686zm-19.641-2.1c1.938-2.82 3.571-5.66 3.571-5.66a35.936 35.936 0 0 1-2.283 6.173l-1.288-.514z"/>
        <path d="M39.625 43.053c-.13-3.228-2.113-4.381-6.657-7.955a13.175 13.175 0 0 1-3.11-3.56l5.645-2.1c1.034 1.184 2.23 2.433 3.542 4.174 4.039 5.36.58 9.441.58 9.441zm-11.02-14.305c-1.03-3.316-.615-7.056 2.36-10.112.958-.985.592-.348.592-.348.146 4.277.872 6.693 2.025 8.608l-4.978 1.852z"/>
        <path d="M36.883 32.053c.74-3.163-.876-4.702-4.328-9.135-3.453-4.433-4.059-12.294 2.473-16.412 1.195-.754.67-.212.67-.212-2.168 9.014.594 10.217 3.155 16.467 2.484 6.062-1.97 9.292-1.97 9.292z"/>
    </g>
</svg>
