<?xml version="1.0" encoding="UTF-8"?>
<svg width="36px" height="25px" viewBox="0 0 36 25" version="1.1" xmlns="http://www.w3.org/2000/svg" xmlns:xlink="http://www.w3.org/1999/xlink">
    <!-- Generator: Sketch 39.1 (31720) - http://www.bohemiancoding.com/sketch -->
    <title>Speed</title>
    <desc>Created with Sketch.</desc>
    <defs>
        <linearGradient x1="50%" y1="0%" x2="50%" y2="100%" id="linearGradient-1">
            <stop stop-color="#E84815" offset="0%"></stop>
            <stop stop-color="#FDE301" offset="100%"></stop>
        </linearGradient>
        <linearGradient x1="50%" y1="0%" x2="50%" y2="100%" id="linearGradient-2">
            <stop stop-color="#48E0FF" offset="0%"></stop>
            <stop stop-color="#23BDFF" offset="100%"></stop>
        </linearGradient>
        <linearGradient x1="50%" y1="0%" x2="50%" y2="100%" id="linearGradient-3">
            <stop stop-color="#F5515F" offset="0%"></stop>
            <stop stop-color="#9F031B" offset="100%"></stop>
        </linearGradient>
        <linearGradient x1="50%" y1="0%" x2="50%" y2="100%" id="linearGradient-4">
            <stop stop-color="#FBDA61" offset="0%"></stop>
            <stop stop-color="#F76B1C" offset="100%"></stop>
        </linearGradient>
    </defs>
    <g id="Page-1" stroke="none" stroke-width="1" fill="none" fill-rule="evenodd">
        <g id="Schedule-Panel" transform="translate(-738.000000, -312.000000)">
            <g id="Schedulation-Panel" transform="translate(108.000000, 80.000000)">
                <g id="Speed" transform="translate(630.000000, 232.000000)">
                    <path d="M17.8239015,0 C7.9962478,0 0,7.91295355 0,17.6382358 L0,24.2525743 C0,24.6589886 0.332712828,24.9875008 0.742662561,24.9875008 L34.9051404,24.9875008 C35.3150901,24.9875008 35.6478029,24.6589886 35.6478029,24.2525743 L35.6478029,17.6382358 C35.6478029,7.91295355 27.6515551,0 17.8239015,0 Z" id="Fill-2417" fill="#FFFFFF"></path>
                    <path d="M27.5818967,6.464966 C27.2915157,6.17834467 26.8214103,6.17834467 26.5317719,6.464966 L19.6279807,13.2946379 C19.1860965,13.0366787 18.6773726,12.8786695 18.128545,12.8786695 C16.4902314,12.8786695 15.1578947,14.1971276 15.1578947,15.8183755 C15.1578947,17.4396233 16.4902314,18.7580814 18.128545,18.7580814 C19.7668586,18.7580814 21.0991952,17.4396233 21.0991952,15.8183755 C21.0991952,15.2745299 20.9387801,14.7711052 20.6781056,14.333824 L27.5818967,7.50415206 C27.8715351,7.21753073 27.8715351,6.75232226 27.5818967,6.464966 L27.5818967,6.464966 Z M18.128545,17.2882285 C17.3093882,17.2882285 16.6432199,16.6289994 16.6432199,15.8183755 C16.6432199,15.0077516 17.3093882,14.3485225 18.128545,14.3485225 C18.9477018,14.3485225 19.6138701,15.0077516 19.6138701,15.8183755 C19.6138701,16.6289994 18.9477018,17.2882285 18.128545,17.2882285 L18.128545,17.2882285 Z" id="Fill-2408" fill="url(#linearGradient-1)"></path>
                    <path d="M6.40161147,16.300392 L3.43096123,16.300392 C3.02101149,16.300392 2.68829867,16.6289041 2.68829867,17.0353185 C2.68829867,17.4417328 3.02101149,17.770245 3.43096123,17.770245 L6.40161147,17.770245 C6.81156121,17.770245 7.14427404,17.4417328 7.14427404,17.0353185 C7.14427404,16.6289041 6.81156121,16.300392 6.40161147,16.300392" id="Fill-2409" fill="url(#linearGradient-2)"></path>
                    <path d="M29.1637152,16.875 C28.7537655,16.875 28.4217953,17.2035121 28.4210526,17.6099265 C28.4210526,18.0156059 28.7530228,18.344853 29.1637152,18.344853 L32.1343654,18.3463228 C32.5443152,18.3463228 32.877028,18.0178107 32.877028,17.6113963 C32.8777707,17.2057169 32.5450578,16.8764699 32.1351081,16.8764699 L29.1644579,16.875 L29.1637152,16.875" id="Fill-2410" fill="url(#linearGradient-3)"></path>
                    <path d="M27.2144982,12.7655843 C27.3325816,13.047796 27.6095947,13.2190339 27.9007184,13.2190339 C27.9957792,13.2190339 28.0915827,13.2006607 28.1844155,13.1631795 L30.9292964,12.038742 C31.3080543,11.8836725 31.4885213,11.4537405 31.3318195,11.078928 C31.1751177,10.7041154 30.7406601,10.5255283 30.3611595,10.6813327 L27.6170213,11.8050353 C27.2375208,11.9601048 27.0577964,12.3900368 27.2144982,12.7655843" id="Fill-2411" fill="url(#linearGradient-4)"></path>
                    <path d="M21.9320791,6.62993021 C22.0249119,6.66814639 22.121458,6.68651955 22.2157762,6.68651955 C22.5076426,6.68651955 22.783913,6.51528168 22.902739,6.23233498 L24.0390128,3.51678159 C24.1964572,3.14123415 24.0167329,2.71130215 23.6372323,2.55623266 C23.2569891,2.40042824 22.8240168,2.57975031 22.667315,2.95382789 L21.5302986,5.67011621 C21.3735968,6.04566365 21.5533212,6.47486072 21.9320791,6.62993021" id="Fill-2412" fill="url(#linearGradient-2)"></path>
                    <path d="M17.5415499,5.01142108 C17.9514996,5.01142108 18.2842125,4.68290894 18.2842125,4.27649459 L18.2842125,1.33678862 C18.2842125,0.930374266 17.9514996,0.601862123 17.5415499,0.601862123 C17.1316002,0.601862123 16.7988873,0.930374266 16.7988873,1.33678862 L16.7988873,4.27649459 C16.7988873,4.68290894 17.1316002,5.01142108 17.5415499,5.01142108" id="Fill-2413" fill="url(#linearGradient-2)"></path>
                    <path d="M12.8286133,2.11875041 C12.6719115,1.74467282 12.2367112,1.56535076 11.858696,1.72115517 C11.4799381,1.87622466 11.2994711,2.30615666 11.4569155,2.6817041 L12.5924466,5.39725749 C12.7105299,5.68020419 12.9875431,5.85144206 13.2786668,5.85144206 C13.3737276,5.85144206 13.4695311,5.8330689 13.5623639,5.79485272 C13.9411218,5.63978323 14.1215888,5.21058616 13.964887,4.83503872 L12.8286133,2.11875041" id="Fill-2414" fill="url(#linearGradient-2)"></path>
                    <path d="M8.09042614,4.90632659 C7.80078774,4.62044019 7.33068234,4.61970526 7.04030128,4.90559167 C6.74992022,5.19294793 6.74992022,5.6581564 7.03955861,5.94551265 L9.13832301,8.02608956 C9.28314221,8.16940022 9.47326383,8.24142302 9.66338544,8.24142302 C9.85350706,8.24142302 10.042886,8.16940022 10.1884479,8.02682448 C10.4780863,7.73946822 10.4788289,7.27425975 10.1891905,6.98616857 L8.09042614,4.90632659" id="Fill-2415" fill="url(#linearGradient-2)"></path>
                    <path d="M7.53417188,11.4028418 L4.79003372,10.2776694 C4.41053315,10.1203951 3.97607555,10.2997172 3.81937375,10.6752646 C3.66267195,11.0493422 3.84239629,11.4792742 4.22189686,11.6350786 L6.96529236,12.760986 C7.05812518,12.7984672 7.15467131,12.8168404 7.24973212,12.8168404 C7.54085584,12.8168404 7.81712632,12.6456025 7.93595233,12.3633908 C8.09265413,11.9885782 7.91292979,11.5586463 7.53417188,11.4028418" id="Fill-2416" fill="url(#linearGradient-2)"></path>
                </g>
            </g>
        </g>
    </g>
</svg>