<?xml version="1.0" encoding="UTF-8"?>
<svg width="25px" height="24px" viewBox="0 0 25 24" version="1.1" xmlns="http://www.w3.org/2000/svg" xmlns:xlink="http://www.w3.org/1999/xlink">
    <!-- Generator: Sketch 39.1 (31720) - http://www.bohemiancoding.com/sketch -->
    <title>Support Icon</title>
    <desc>Created with Sketch.</desc>
    <defs></defs>
    <g id="Other" stroke="none" stroke-width="1" fill="none" fill-rule="evenodd">
        <g id="Icons-selected-and-unselected" transform="translate(-891.000000, -206.000000)">
            <g id="Support" transform="translate(891.000000, 206.000000)">
                <g id="Support-Icon">
                    <path d="M5.98915128,1.61006711 C7.83160511,0.536912752 9.84143253,0 12.0186335,0 C14.1965067,0 16.2063342,0.536912752 18.0481158,1.61006711 C19.8898975,2.68456376 21.3485347,4.1409396 22.4240277,5.97986577 C23.4995206,7.81879195 24.0372671,9.82483221 24.0372671,12 C24.0372671,14.1744966 23.4995206,16.1812081 22.4240277,18.0194631 C21.3485347,19.8590604 19.8898975,21.3154362 18.0481158,22.3885906 C16.2063342,23.4630872 14.1965067,24 12.0186335,24 C9.84143253,24 7.83160511,23.4630872 5.98915128,22.3885906 C4.14736963,21.3154362 2.68873234,19.8590604 1.61391158,18.0194631 C0.537746467,16.1812081 0,14.1744966 0,12 C0,9.82483221 0.537746467,7.81879195 1.61391158,5.97986577 C2.68873234,4.1409396 4.14736963,2.68456376 5.98915128,1.61006711 C5.98915128,1.61006711 4.14736963,2.68456376 5.98915128,1.61006711 L5.98915128,1.61006711 L5.98915128,1.61006711 Z" id="Path-Copy-2" fill="#777777"></path>
                    <text id="?" font-family="Helvetica-Bold, Helvetica" font-size="19.2" font-weight="bold" fill="#FFFFFF">
                        <tspan x="6.09876543" y="19">?</tspan>
                    </text>
                </g>
            </g>
        </g>
    </g>
</svg>