<?xml version="1.0" encoding="UTF-8"?>
<svg width="17px" height="16px" viewBox="0 0 17 16" version="1.1" xmlns="http://www.w3.org/2000/svg" xmlns:xlink="http://www.w3.org/1999/xlink">
    <!-- Generator: Sketch 39.1 (31720) - http://www.bohemiancoding.com/sketch -->
    <title>-g-TTS icon</title>
    <desc>Created with Sketch.</desc>
    <defs></defs>
    <g id="Other" stroke="none" stroke-width="1" fill="none" fill-rule="evenodd">
        <g id="Icons-selected-and-unselected" transform="translate(-757.000000, -548.000000)">
            <g id="-g-TTS-icon" transform="translate(757.424051, 548.675234)">
                <path d="M0.151661903,7.20208188 C0.151661903,6.9069123 0.247230462,6.60559335 0.437225326,6.2975101 C0.627600941,5.99065672 0.818357308,5.75698081 1.00835217,5.59709728 L1.2939156,5.357272 L1.2939156,9.96929671 C1.26383625,9.94469924 1.22195361,9.91087773 1.16826769,9.86783216 C1.11496252,9.8247866 1.02396297,9.73869547 0.894126803,9.60955878 C0.764671385,9.48042209 0.650826767,9.34821071 0.551450695,9.21292465 C0.452836126,9.0776386 0.361455831,8.90791609 0.277309809,8.704987 C0.193544538,8.50267285 0.151661903,8.30835287 0.151661903,8.12448682 L0.151661903,7.20208188 Z M11.3838232,0.198817059 L11.3838232,13.5562848 L4.81602295,10.4133512 L4.44660446,10.4133512 L4.90359362,14.7500758 C4.91656705,14.8757931 4.90716132,14.9679859 4.8744034,15.0250825 C4.84196982,15.0832268 4.80629288,15.1141323 4.76737258,15.1193705 C4.72877662,15.1251325 4.66034176,15.1277516 4.56304102,15.1277516 L4.48552476,15.1277516 L3.67792858,15.1277516 C3.54786991,15.1277516 3.43597406,15.0544165 3.34191667,14.9077463 C3.24785928,14.7610761 3.18785716,14.5777383 3.16223463,14.3572091 C2.79865418,10.8271708 2.61702612,8.98855469 2.61702612,8.84188445 L2.61702612,4.91321745 L2.61702612,4.83464411 C2.61702612,4.69845033 2.6186478,4.60154321 2.6222155,4.54339893 C2.62513452,4.48630231 2.63324291,4.41820541 2.64621635,4.33910825 C2.65918978,4.26053491 2.68513664,4.20553357 2.72405694,4.17410424 C2.76297724,4.1426749 2.81195195,4.12748406 2.87000806,4.12748406 L4.81602295,4.12748406 L11.3838232,0.198817059 Z" id="Fill-119" fill="#3190E6"></path>
                <path d="M13.7518926,13.4373116 C16.2738059,9.05181156 15.7823889,5.70666242 14.5192468,1.97512055 C17.0101834,4.39195394 17.0710436,11.0074537 13.7518926,13.4373116 Z" id="Shape-Copy-18" fill="#3190E6"></path>
                <path d="M12.5340594,3.0678589 C15.0150096,4.85929219 15.0570476,9.73393413 11.7510433,11.5345899 C14.2612773,8.28487073 13.7933267,5.8320478 12.5340594,3.0678589 L12.5340594,3.0678589 L12.5340594,3.0678589 Z" id="Shape-Copy-17" fill="#3190E6"></path>
                <path d="M5.69191161,5.18916004 L11.2002132,5.18916004" id="Path-195" stroke="#FFFFFF" stroke-width="0.8"></path>
                <path d="M5.69191161,6.23322127 L11.2002132,6.23322127" id="Path-195-Copy" stroke="#FFFFFF" stroke-width="0.8"></path>
                <path d="M5.69191161,8.35754781 L11.2002132,8.35754781" id="Path-195-Copy-2" stroke="#FFFFFF" stroke-width="0.8"></path>
                <path d="M5.69191161,9.58742106 L11.2002132,9.58742106" id="Path-195-Copy-3" stroke="#FFFFFF" stroke-width="0.8"></path>
            </g>
        </g>
    </g>
</svg>