<?xml version="1.0" encoding="UTF-8"?>
<svg width="15px" height="20px" viewBox="0 0 15 20" version="1.1" xmlns="http://www.w3.org/2000/svg" xmlns:xlink="http://www.w3.org/1999/xlink">
    <!-- Generator: Sketch 39.1 (31720) - http://www.bohemiancoding.com/sketch -->
    <title>-g-Phone Icon</title>
    <desc>Created with Sketch.</desc>
    <defs></defs>
    <g id="Page-1" stroke="none" stroke-width="1" fill="none" fill-rule="evenodd">
        <g id="Messages---templates" transform="translate(-678.000000, -438.000000)" fill="#3190E6">
            <g id="-g-Phone-Icon" transform="translate(678.135021, 438.274333)">
                <path d="M1.95148864,2.0258763 L2.74977235,1.679963 C3.23841524,1.46826949 3.81858233,1.65498792 4.07485009,2.07837493 L4.85213141,3.36297735 C5.10839917,3.78636436 4.88874109,4.31967569 4.4000982,4.5313692 L3.60181449,4.87728251 C3.11336428,5.08880612 2.53300451,4.90242748 2.27673675,4.47887057 L1.49945543,3.19443806 C1.24318767,2.77071124 1.46265307,2.23773971 1.95148864,2.0258763 L1.95148864,2.0258763 L1.95148864,2.0258763 Z" id="Shape-Copy"></path>
                <path d="M13.3002968,15.1099282 C12.2116405,15.3564509 10.3688249,15.7021943 9.31215387,15.8153467 C6.30033328,16.1388334 5.54154949,15.1466263 4.97294335,11.0281172 C4.37331533,6.68432275 5.10069187,5.7612643 7.78071314,5.47362618 C8.82601586,5.36132328 10.7164241,5.30984404 11.9493996,5.3251349 L11.6012223,2.80367155 C10.4081321,2.70411104 8.48188486,2.61185616 6.89109791,2.78243424 C1.73510616,3.33579359 0.546833013,5.61039445 1.34858501,11.4170148 C2.08810055,16.7734042 3.7185801,19.202103 9.07862265,18.6268268 C10.4909856,18.4751074 12.4405474,18.0294637 13.6557961,17.6857591 L13.3002968,15.1099282 L13.3002968,15.1099282 Z" id="Shape-Copy-2"></path>
                <path d="M10.6274048,5.94305568 C10.9524602,5.90805659 11.2505401,6.11397355 11.2902327,6.40059229 L11.747083,9.7100448 C11.7865829,9.99666353 11.5530517,10.2594965 11.2281889,10.2944956 L7.59612328,10.6842427 C7.27106786,10.7192418 6.97298799,10.5133248 6.93348807,10.2267061 L6.47644511,6.91725357 C6.4369452,6.63080473 6.67028374,6.36780188 6.99533916,6.33297269 L10.6274048,5.94305568 Z" id="Shape-Copy-3"></path>
                <path d="M7.4117261,11.2759991 L7.98669077,11.2143259 C8.1628026,11.1954672 8.32427055,11.3069206 8.345851,11.4622078 L8.41887767,11.9911018 C8.44026544,12.1462191 8.3138657,12.2887639 8.13775387,12.3076227 L7.5627892,12.3692958 C7.38667737,12.3881546 7.22520942,12.2767011 7.20382166,12.1214139 L7.13079498,11.59252 C7.10921453,11.4374027 7.23561427,11.2948578 7.4117261,11.2759991 L7.4117261,11.2759991 L7.4117261,11.2759991 Z" id="Shape-Copy-4"></path>
                <path d="M9.20251751,11.0838439 L9.77748218,11.0221708 C9.95359401,11.003312 10.115062,11.1147654 10.1364497,11.2700526 L10.2094764,11.7989466 C10.2308642,11.9542338 10.1044644,12.0966088 9.92835259,12.1154675 L9.35338793,12.1771406 C9.1772761,12.1959994 9.01580814,12.084546 8.99442038,11.9292588 L8.92139371,11.4003648 C8.89981326,11.2452475 9.02640568,11.1027026 9.20251751,11.0838439 L9.20251751,11.0838439 L9.20251751,11.0838439 Z" id="Shape-Copy-5"></path>
                <path d="M10.9933089,10.8915188 L11.5682736,10.8298457 C11.7443854,10.810987 11.9058534,10.9224404 11.9272411,11.0777276 L12.0143336,11.7082208 C12.0280141,11.8074415 11.9470874,11.898677 11.8343682,11.9109097 L11.1441793,11.9849855 C10.9680675,12.0038442 10.8065996,11.8923908 10.7852118,11.7371036 L10.7121851,11.2082096 C10.6906047,11.0529224 10.8171971,10.9105475 10.9933089,10.8915188 L10.9933089,10.8915188 L10.9933089,10.8915188 Z" id="Shape-Copy-6"></path>
                <path d="M8.1936318,12.71368 C8.36974363,12.6949912 8.53121159,12.8064446 8.55279203,12.9617318 L8.62581871,13.490286 C8.64720647,13.645913 8.52080673,13.7882879 8.3446949,13.8071467 L7.76973024,13.8688198 C7.59361841,13.8876785 7.43215045,13.7762251 7.41076269,13.6209379 L7.33773601,13.092044 C7.31615557,12.9367567 7.44255531,12.7942119 7.61885982,12.7755231 L8.1936318,12.71368 Z" id="Shape-Copy-7"></path>
                <path d="M9.98442321,12.521355 C10.160535,12.5026661 10.322003,12.6141195 10.3433908,12.7692368 L10.4164174,13.2981308 C10.4378052,13.453418 10.3114055,13.595793 10.1352936,13.6146517 L9.56052165,13.6763248 C9.38421714,13.6951836 9.22294186,13.5837302 9.20136142,13.4284429 L9.12833474,12.8997189 C9.10694698,12.7444317 9.23334672,12.6018868 9.40945855,12.5830281 L9.98442321,12.521355 Z" id="Shape-Copy-8"></path>
                <path d="M11.7752146,12.3291998 C11.9513265,12.310341 12.1127944,12.4217945 12.1341822,12.5770817 L12.2072088,13.1059756 C12.2287893,13.2612628 12.1021969,13.4036378 11.926085,13.4224965 L11.3513131,13.4841697 C11.1752012,13.5030284 11.0137333,13.391575 10.9921528,13.2362878 L10.9191262,12.7073938 C10.8977384,12.5521066 11.0241381,12.4097317 11.20025,12.3908729 L11.7752146,12.3291998 Z" id="Shape-Copy-9"></path>
                <path d="M7.82580085,14.2747073 L8.40076552,14.2130341 C8.57687735,14.1941754 8.73834531,14.3056288 8.75973307,14.460916 L8.83275974,14.98981 C8.8541475,15.1450972 8.72774777,15.2874721 8.55163594,15.3063309 L7.97667127,15.368004 C7.80055944,15.3868627 7.63909149,15.2754093 7.61770373,15.1201221 L7.54467705,14.5912282 C7.5230966,14.4359409 7.64968902,14.293566 7.82580085,14.2747073 L7.82580085,14.2747073 L7.82580085,14.2747073 Z" id="Shape-Copy-10"></path>
                <path d="M9.61639958,14.0822123 L10.1913642,14.0205392 C10.3674761,14.0016804 10.528944,14.1134736 10.5503318,14.2687608 L10.6233585,14.797315 C10.6447462,14.9526022 10.5183465,15.0953169 10.3422347,15.1138359 L9.76746268,15.175509 C9.59135085,15.1943678 9.4298829,15.0829144 9.40830245,14.9276271 L9.33527578,14.399073 C9.31388801,14.2437858 9.44028775,14.101071 9.61639958,14.0822123 L9.61639958,14.0822123 L9.61639958,14.0822123 Z" id="Shape-Copy-11"></path>
                <path d="M11.407191,13.8900571 L11.9821557,13.828384 C12.1582675,13.8095252 12.3197354,13.9209786 12.3411232,14.0762659 L12.4141499,14.6051598 C12.4355376,14.760447 12.3091379,14.902822 12.1330261,14.9216807 L11.5580614,14.9833538 C11.3819496,15.0022126 11.2204816,14.8907592 11.1989012,14.735472 L11.1258745,14.206578 C11.1046794,14.0512908 11.2312718,13.9090858 11.407191,13.8900571 L11.407191,13.8900571 L11.407191,13.8900571 Z" id="Shape-Copy-12"></path>
                <path d="M10.3871297,0.568826932 C11.7332098,0.182817583 13.7679373,1.27118725 13.699535,2.73248409 C12.9762048,1.19711151 11.8345608,0.79275313 10.3871297,0.568826932 L10.3871297,0.568826932 L10.3871297,0.568826932 Z" id="Shape-Copy-13"></path>
                <path d="M11.5881199,0.0683060072 C12.5827471,-0.216953542 14.0741099,0.587175968 14.023627,1.66688081 C13.4891257,0.532638555 12.6577006,0.233447331 11.5881199,0.0683060072 L11.5881199,0.0683060072 L11.5881199,0.0683060072 Z" id="Shape-Copy-14"></path>
                <path d="M3.29679805,19.1001639 C2.14301507,19.4312961 0.399045514,18.4982136 0.457813685,17.2458919 C1.07767338,18.5619255 2.05592257,18.9083486 3.29679805,19.1001639 L3.29679805,19.1001639 L3.29679805,19.1001639 Z" id="Shape-Copy-15"></path>
                <path d="M2.2672953,19.5293275 C1.4148678,19.7738114 0.136611912,19.0847032 0.179965481,18.1596059 C0.638164531,19.1314253 1.35070452,19.387972 2.2672953,19.5293275 L2.2672953,19.5293275 L2.2672953,19.5293275 Z" id="Shape-Copy-16"></path>
            </g>
        </g>
    </g>
</svg>