<?xml version="1.0" encoding="UTF-8"?>
<svg width="24px" height="24px" viewBox="0 0 24 24" version="1.1" xmlns="http://www.w3.org/2000/svg" xmlns:xlink="http://www.w3.org/1999/xlink">
    <!-- Generator: Sketch 39.1 (31720) - http://www.bohemiancoding.com/sketch -->
    <title>Clock Icon</title>
    <desc>Created with Sketch.</desc>
    <defs></defs>
    <g id="Page-1" stroke="none" stroke-width="1" fill="none" fill-rule="evenodd">
        <g id="API" transform="translate(-494.000000, -28.000000)" fill="#FEA32C">
            <path d="M499.979866,29.6107383 C501.818792,28.5369128 503.825503,28 506,28 C508.175168,28 510.181208,28.5369128 512.020805,29.6107383 C513.85906,30.6845638 515.315436,32.1409396 516.389933,33.9798658 C517.463087,35.8194631 518,37.8255034 518,40 C518,42.1744966 517.463087,44.1812081 516.389933,46.0201342 C515.315436,47.8590604 513.85906,49.3154362 512.020805,50.3892617 C510.181208,51.4630872 508.175168,52 506,52 C503.825503,52 501.818792,51.4630872 499.979866,50.3892617 C498.140268,49.3154362 496.683893,47.8590604 495.610738,46.0201342 C494.536913,44.1812081 494,42.1744966 494,40 C494,37.8255034 494.536913,35.8194631 495.610738,33.9798658 C496.683893,32.1409396 498.140268,30.6845638 499.979866,29.6107383 C499.979866,29.6107383 498.140268,30.6845638 499.979866,29.6107383 L499.979866,29.6107383 L499.979866,29.6107383 Z M511.889933,34.1107383 C510.25906,32.4798658 508.295302,31.6644295 506,31.6644295 C503.704698,31.6644295 501.741611,32.4798658 500.110738,34.1107383 C498.479866,35.7416107 497.66443,37.704698 497.66443,40 C497.66443,42.295302 498.479866,44.2583893 500.110738,45.8892617 C501.741611,47.5201342 503.704698,48.3355705 506,48.3355705 C508.295302,48.3355705 510.25906,47.5201342 511.889933,45.8892617 C513.520134,44.2583893 514.33557,42.295302 514.33557,40 C514.33557,37.704698 513.520134,35.7416107 511.889933,34.1107383 C511.889933,34.1107383 513.520134,35.7416107 511.889933,34.1107383 L511.889933,34.1107383 L511.889933,34.1107383 Z M506,40 L510.026846,40 L510.026846,42.0134228 L503.986577,42.0134228 L503.986577,33.9597315 L506,33.9597315 L506,40 L506,40 Z" id="Clock-Icon"></path>
        </g>
    </g>
</svg>