<?xml version="1.0" encoding="UTF-8"?>
<svg width="60px" height="70px" viewBox="0 0 60 70" version="1.1" xmlns="http://www.w3.org/2000/svg" xmlns:xlink="http://www.w3.org/1999/xlink">
    <!-- Generator: Sketch 39.1 (31720) - http://www.bohemiancoding.com/sketch -->
    <title>Transfer interaction Icon</title>
    <desc>Created with Sketch.</desc>
    <defs></defs>
    <g id="NewBackend" stroke="none" stroke-width="1" fill="none" fill-rule="evenodd">
        <g id="Live-Transfer-Popup" transform="translate(-575.000000, -508.000000)">
            <g id="Live-transfer-explication-graph" transform="translate(202.000000, 474.000000)">
                <g id="Transfer-interaction-Icon" transform="translate(373.000000, 35.000000)">
                    <path d="M6.43091377,7.1622948 L9.05802143,5.95729606 C10.6661182,5.21985577 12.5754161,5.87029468 13.4187792,7.34517526 L15.9767691,11.8201239 C16.8201322,13.2950045 16.0972496,15.1528095 14.4891528,15.8902498 L11.8620451,17.0952486 C10.2545824,17.832097 8.34465041,17.1828418 7.50128735,15.7073694 L4.9432974,11.2330126 C4.09993434,9.75694828 4.82218286,7.90032694 6.43091377,7.1622948 L6.43091377,7.1622948 L6.43091377,7.1622948 Z" id="Shape-Copy-19" fill="#005B82"></path>
                    <path d="M21.8277654,19.8744153 C16.1342045,21.5279448 14.7204573,25.8396545 16.3743546,38.5218544 C18.245606,52.8687966 20.7427216,56.3251781 30.6544571,55.198303 C33.3086117,54.8974538 37.4699105,54.1246025 40.8845055,53.3936845 C43.4248047,50.8968923 44.2890638,46.1514221 44.6385469,37.869751 C45.2829315,22.5935322 42.6174759,19.5925054 33.7437317,19.3610273 C30.7635616,19.2829471 25.7429809,19.5413828 21.8277654,19.8744153 Z M37.6129113,9.82267159 C33.66226,9.49651225 27.6737197,9.2317628 22.6868954,9.79778566 C5.71881096,11.7254285 1.80826958,19.6490647 4.44679118,39.8765902 C6.30216251,54.1016598 6.62827255,61.1625913 14.494365,62.8272032 L14.4009739,63.0186716 C14.4009753,63.018671 33.7412637,64.4035108 38.6677156,63.9724887 C56.3161001,62.428407 55.8440829,57.0198036 56.6390309,38.1824691 C57.470446,18.4867111 53.2322882,10.7469124 37.6129113,9.82267159 Z" id="Shape-Copy" fill="#005B82"></path>
                    <path d="M26.0780424,37.7205791 C26.7080299,37.2141579 27.8571405,37.6954081 28.0018141,38.7936968 C27.449568,37.7694228 26.8337211,37.6510914 26.0780424,37.7205791 L26.0780424,37.7205791 L26.0780424,37.7205791 Z" id="Shape-Copy-57" fill="#005B82"></path>
                    <path d="M23.0299476,22.1661863 L34.9828754,20.8078994 C36.0526148,20.6859791 37.0335792,21.4032966 37.1642054,22.4017411 L38.6676744,33.930312 C38.7976665,34.9287564 38.0291281,35.8443424 36.9600228,35.9662627 L25.0070951,37.3239578 C23.9373556,37.4458781 22.9563912,36.7285606 22.8263991,35.7301161 L21.322296,24.2015452 C21.1923039,23.2036926 21.9602082,22.2875147 23.0299476,22.1661863 L23.0299476,22.1661863 L23.0299476,22.1661863 Z" id="Shape-Copy-2" fill="#005B82"></path>
                    <path d="M26.2924311,39.1705177 C26.8720054,39.1048228 27.4033876,39.4930739 27.4744076,40.0340212 L27.7147344,41.8764383 C27.7851203,42.4167938 27.3691458,42.9133527 26.7895714,42.9790476 L24.8973944,43.1938878 C24.3178201,43.2595827 23.786438,42.8713316 23.716052,42.3303843 L23.4757253,40.4879672 C23.4047052,39.9476117 23.8206798,39.4510528 24.4002541,39.3853579 L26.2924311,39.1705177 Z" id="Shape-Copy-3" stroke="#005B82"></path>
                    <path d="M30.2936499,38.7159799 L32.1858269,38.5011397 C32.7654012,38.4354448 33.2967833,38.8236959 33.3671693,39.3646433 L33.607496,41.2070603 C33.677882,41.7480077 33.2619074,42.2439747 32.6823331,42.3096697 L30.7901561,42.5245098 C30.2105818,42.5902047 29.6791996,42.2019537 29.6088137,41.6610063 L29.3684869,39.8185893 C29.2974669,39.2782337 29.7140755,38.7816748 30.2936499,38.7159799 L30.2936499,38.7159799 L30.2936499,38.7159799 Z" id="Shape-Copy-4" fill="#005B82"></path>
                    <path d="M36.1870456,38.0460101 L38.0792226,37.8311699 C38.6587969,37.765475 39.1901791,38.1537261 39.260565,38.6946734 L39.5471816,40.8910145 C39.5922033,41.2366526 39.3258781,41.554474 38.9549252,41.5970869 L36.6835519,41.8551318 C36.1039775,41.9208267 35.5725954,41.5325757 35.5022095,40.9916283 L35.2618827,39.1492113 C35.1908626,38.6082639 35.6074713,38.1122968 36.1870456,38.0460101 L36.1870456,38.0460101 L36.1870456,38.0460101 Z" id="Shape-Copy-5" fill="#005B82"></path>
                    <path d="M25.0819197,44.6089919 L26.9734626,44.3935599 C27.5530369,44.3284568 28.0844191,44.7167079 28.1554391,45.2576553 L28.3957659,47.0988886 C28.4661518,47.6410197 28.0501773,48.1369867 27.470603,48.2026817 L25.578426,48.4175218 C24.9988517,48.4832167 24.4674695,48.0949657 24.3970836,47.5540183 L24.1567568,45.7116013 C24.0857368,45.1706539 24.5017113,44.674095 25.0819197,44.6089919 L25.0819197,44.6089919 L25.0819197,44.6089919 Z" id="Shape-Copy-6" fill="#005B82"></path>
                    <path d="M30.9746814,43.9384302 L32.8668584,43.7235901 C33.4464327,43.658487 33.9778149,44.0467381 34.0482008,44.5870936 L34.2885276,46.4295106 C34.3589135,46.970458 33.9429389,47.4664251 33.3633646,47.53212 L31.4718217,47.7469601 C30.8916133,47.8126551 30.3608653,47.424404 30.2898452,46.8834566 L30.0495185,45.0416314 C29.9791325,44.5006841 30.3951071,44.0041252 30.9746814,43.9384302 L30.9746814,43.9384302 L30.9746814,43.9384302 Z" id="Shape-Copy-7" fill="#005B82"></path>
                    <path d="M36.8680772,43.2690522 L38.7602542,43.0542121 C39.3398285,42.9885172 39.8712106,43.3767682 39.9415966,43.9177156 L40.1819233,45.7601326 C40.2529434,46.30108 39.8363347,46.7970471 39.2567604,46.862742 L37.3652175,47.0775822 C36.7856432,47.1432771 36.254261,46.755026 36.183241,46.2140786 L35.9429142,44.3716616 C35.8725283,43.8307142 36.2885028,43.3347472 36.8680772,43.2690522 L36.8680772,43.2690522 L36.8680772,43.2690522 Z" id="Shape-Copy-8" fill="#005B82"></path>
                    <path d="M25.7629513,49.8314422 L27.6551283,49.6166021 C28.2347026,49.5509072 28.7660847,49.9391582 28.8364707,50.4801056 L29.0767974,52.3225226 C29.1471834,52.86347 28.7312088,53.3594371 28.1516345,53.425132 L26.2594575,53.6399722 C25.6798832,53.7056671 25.148501,53.317416 25.0781151,52.7764686 L24.8377883,50.9340516 C24.7667683,50.3931042 25.183377,49.8971372 25.7629513,49.8314422 L25.7629513,49.8314422 L25.7629513,49.8314422 Z" id="Shape-Copy-9" fill="#005B82"></path>
                    <path d="M31.6557129,49.1608806 L33.5478899,48.9460404 C34.1274642,48.8803455 34.6588464,49.2697803 34.7292323,49.8107276 L34.9695591,51.651961 C35.039945,52.1929083 34.6239705,52.6900591 34.0443961,52.7545703 L32.1528533,52.9694105 C31.5732789,53.0351054 31.0418968,52.6468543 30.9708768,52.105907 L30.73055,50.2646736 C30.660164,49.7237262 31.0761386,49.2265755 31.6557129,49.1608806 L31.6557129,49.1608806 L31.6557129,49.1608806 Z" id="Shape-Copy-10" fill="#005B82"></path>
                    <path d="M37.5491087,48.4915026 L39.4412857,48.2766624 C40.02086,48.2109675 40.5522421,48.5992186 40.6226281,49.140166 L40.8629549,50.982583 C40.9333408,51.5235304 40.5173662,52.0194974 39.9377919,52.0851923 L38.0456149,52.3000325 C37.4660406,52.3657274 36.9346585,51.9774763 36.8636384,51.436529 L36.6233116,49.5941119 C36.5535598,49.0531646 36.9701685,48.5577893 37.5491087,48.4915026 L37.5491087,48.4915026 L37.5491087,48.4915026 Z" id="Shape-Copy-11" fill="#005B82"></path>
                    <path d="M47.5513925,6.56245874 C51.981268,5.21778431 58.677444,9.00915068 58.4523358,14.0996193 C56.071896,8.75110576 52.3148086,7.34251195 47.5513925,6.56245874 L47.5513925,6.56245874 L47.5513925,6.56245874 Z" id="Shape-Copy-12" fill="#005B82"></path>
                    <path d="M51.503785,4.81888001 C54.7770483,3.82517034 59.6850409,6.62637812 59.5189047,10.3875603 C57.7598903,6.43639551 55.0237162,5.39415446 51.503785,4.81888001 L51.503785,4.81888001 L51.503785,4.81888001 Z" id="Shape-Copy-13" fill="#005B82"></path>
                    <path d="M10.8582528,66.6410563 C7.06121669,67.7945644 1.32190907,64.5441454 1.51531188,60.1816475 C3.55523593,64.7660877 6.77460007,65.972862 10.8582528,66.6410563 L10.8582528,66.6410563 L10.8582528,66.6410563 Z" id="Shape-Copy-14" fill="#005B82"></path>
                    <path d="M7.47021607,68.1360596 C4.66492418,68.9877262 0.458254557,66.5871983 0.60092876,63.3645961 C2.10883656,66.749956 4.45376636,67.6436437 7.47021607,68.1360596 L7.47021607,68.1360596 L7.47021607,68.1360596 Z" id="Shape-Copy-15" fill="#005B82"></path>
                    <path d="M24.4297132,44.3872558 C23.575371,44.540811 22.3894315,43.8384719 22.5151712,43.0244362 C22.8749281,43.9164698 23.5475114,44.1952709 24.4297132,44.3872558 L24.4297132,44.3872558 L24.4297132,44.3872558 Z" id="Shape-Copy-56" fill="#005B82"></path>
                    <path d="M1.77212544,4.63629548 C1.77212544,4.63629548 2.01879329,2.76842906 4.20139155,1.44979586 C6.29711707,0.183245123 9.32941947,0.72951911 9.32941947,0.72951911" id="Shape-Copy-16" stroke="#005B82" stroke-width="1.5"></path>
                    <path d="M3.47216784,5.03401608 C3.47216784,5.03401608 3.87292383,3.7130155 5.26669227,2.96965675 C6.93122464,2.08188754 8.93944332,2.58199753 8.93944332,2.58199753" id="Shape-Copy-17" stroke="#005B82" stroke-width="1.5"></path>
                    <path d="M5.27176513,5.54004453 C5.27176513,5.54004453 5.45121757,4.91742239 6.1912211,4.39955702 C6.93122464,3.88169165 8.30026288,4.1569001 8.30026288,4.1569001" id="Shape-Copy-18" stroke="#005B82" stroke-width="1.5"></path>
                </g>
            </g>
        </g>
    </g>
</svg>