<svg xmlns="http://www.w3.org/2000/svg" width="25" height="25" style=""><rect id="backgroundrect" width="100%" height="100%" x="0" y="0" fill="none" stroke="none"/>
    
<g class="currentLayer" style=""><title>Layer 1</title><path fill="#ffffff" fill-rule="evenodd" d="M12.528000469207765,6.938893903907228e-17 c2.267,0 4.36,0.562 6.285,1.685 a12.44,12.44 0 0 1 4.563,4.58 c1.119,1.9300000000000002 1.6790000000000005,4.032 1.6790000000000005,6.307 c0,2.274 -0.56,4.376 -1.6800000000000004,6.306 a12.44,12.44 0 0 1 -4.562,4.58 C16.888000469207764,24.581000000000003 14.795000469207764,25.143 12.528000469207765,25.143 c-2.266,0 -4.361,-0.562 -6.285,-1.685 a12.435,12.435 0 0 1 -4.563,-4.58 c-1.12,-1.9300000000000002 -1.6800000000000004,-4.032 -1.6800000000000004,-6.306 c0,-2.275 0.56,-4.377 1.6800000000000004,-6.307 a12.435,12.435 0 0 1 4.563,-4.58 C8.168000469207763,0.5620000000000004 10.262000469207763,6.938893903907228e-17 12.528000469207765,6.938893903907228e-17 zM10.428000469207763,14.677 h4.197 c0.07,-0.042000000000000016 0.16900000000000007,-0.09800000000000006 0.2940000000000001,-0.16800000000000007 c0.126,-0.07 0.3460000000000002,-0.25 0.6610000000000003,-0.537 a5.39,5.39 0 0 0 0.8290000000000002,-0.9580000000000002 c0.23700000000000004,-0.3510000000000001 0.454,-0.8360000000000002 0.6500000000000002,-1.453 a6.535,6.535 0 0 0 0.2940000000000001,-1.98 c0,-0.7160000000000002 -0.12300000000000003,-1.34 -0.3670000000000001,-1.874 c-0.24500000000000005,-0.533 -0.539,-0.9400000000000002 -0.8810000000000002,-1.221 a4.068,4.068 0 0 0 -1.228,-0.6740000000000004 a5.986,5.986 0 0 0 -1.227,-0.3160000000000001 a8.884,8.884 0 0 0 -1.081,-0.06300000000000003 c-1.47,0 -2.672,0.3930000000000001 -3.609,1.18 c-0.9380000000000002,0.785 -1.4060000000000001,2.07 -1.4060000000000001,3.853 h3.021 c0.056000000000000015,0 0.137,0.007000000000000004 0.24200000000000005,0.020000000000000007 c0.10500000000000002,0.015000000000000006 0.18100000000000005,0.022000000000000013 0.23,0.022000000000000013 a0.19000000000000006,0.19000000000000006 0 0 0 0.137,-0.06300000000000003 c0.042000000000000016,-0.042000000000000016 0.06300000000000003,-0.10600000000000002 0.06300000000000003,-0.19000000000000006 s0.007000000000000004,-0.16100000000000006 0.021000000000000008,-0.231 a0.453,0.453 0 0 1 0.07300000000000002,-0.18000000000000005 a0.6360000000000002,0.6360000000000002 0 0 0 0.07400000000000002,-0.126 c0.014000000000000004,-0.035 0.05300000000000002,-0.06300000000000003 0.11600000000000003,-0.08400000000000003 a1.17,1.17 0 0 0 0.135,-0.05300000000000002 a0.6200000000000002,0.6200000000000002 0 0 1 0.19000000000000006,-0.031000000000000014 c0.09700000000000006,-0.007000000000000004 0.16000000000000006,-0.010000000000000004 0.18800000000000006,-0.010000000000000004 h0.504 c0.266,0 0.4750000000000001,0.07 0.6300000000000002,0.21000000000000005 c0.15300000000000005,0.14 0.23,0.3230000000000001 0.23,0.547 c0,0.3100000000000001 -0.028000000000000008,0.506 -0.08400000000000003,0.5900000000000002 c-0.056000000000000015,0.08400000000000003 -0.24500000000000005,0.23900000000000005 -0.5660000000000002,0.463 c-0.07,0.014000000000000004 -0.15700000000000006,0.035 -0.263,0.06300000000000003 c-0.10500000000000002,0.028000000000000008 -0.2940000000000001,0.12300000000000003 -0.5660000000000002,0.2850000000000001 c-0.273,0.16100000000000006 -0.51,0.3500000000000001 -0.7140000000000002,0.5680000000000002 c-0.203,0.21900000000000006 -0.3870000000000001,0.54 -0.556,0.9690000000000002 a3.657,3.657 0 0 0 -0.23,1.4420000000000002 s-0.015000000000000006,-0.533 0,0 zm0,4.212 h4.197 V16.783 h-4.197 v2.106 z" id="svg_1" class="selected" fill-opacity="1"/><path fill="#3190E6" fill-opacity="1" stroke="none" stroke-opacity="1" stroke-width="1" stroke-dasharray="none" stroke-linejoin="miter" stroke-linecap="butt" stroke-dashoffset="" fill-rule="evenodd" opacity="1" marker-start="" marker-mid="" marker-end="" d="M-7.354311957923386,22.933778212931145L3.2417145990644087,7.701990037261183" id="svg_2"/><path fill="#3190E6" fill-opacity="1" stroke="none" stroke-opacity="1" stroke-width="1" stroke-dasharray="none" stroke-linejoin="miter" stroke-linecap="butt" stroke-dashoffset="" fill-rule="evenodd" opacity="1" marker-start="" marker-mid="" marker-end="" d="M3.2417145990644087,13.662254975566839L3.2417145990644087,20.284771573684196" id="svg_4"/></g></svg>