<svg xmlns="http://www.w3.org/2000/svg" width="26" height="26" viewBox="0 0 26 26">
    <path fill="#3190E6" fill-rule="evenodd" d="M12.87.057c2.267 0 4.36.562 6.285 1.685a12.44 12.44 0 0 1 4.563 4.58c1.119 1.93 1.679 4.032 1.679 6.307 0 2.274-.56 4.376-1.68 6.306a12.44 12.44 0 0 1-4.562 4.58C17.23 24.638 15.137 25.2 12.87 25.2c-2.266 0-4.361-.562-6.285-1.685a12.435 12.435 0 0 1-4.563-4.58c-1.12-1.93-1.68-4.032-1.68-6.306 0-2.275.56-4.377 1.68-6.307a12.435 12.435 0 0 1 4.563-4.58C8.51.619 10.604.057 12.87.057zM10.77 14.734h4.197c.07-.042.169-.098.294-.168.126-.07.346-.25.661-.537a5.39 5.39 0 0 0 .829-.958c.237-.351.454-.836.65-1.453a6.535 6.535 0 0 0 .294-1.98c0-.716-.123-1.34-.367-1.874-.245-.533-.539-.94-.881-1.221a4.068 4.068 0 0 0-1.228-.674 5.986 5.986 0 0 0-1.227-.316 8.884 8.884 0 0 0-1.081-.063c-1.47 0-2.672.393-3.609 1.18-.938.785-1.406 2.07-1.406 3.853h3.021c.056 0 .137.007.242.02.105.015.181.022.23.022a.19.19 0 0 0 .137-.063c.042-.042.063-.106.063-.19s.007-.161.021-.231a.453.453 0 0 1 .073-.18.636.636 0 0 0 .074-.126c.014-.035.053-.063.116-.084a1.17 1.17 0 0 0 .135-.053.62.62 0 0 1 .19-.031c.097-.007.16-.01.188-.01h.504c.266 0 .475.07.63.21.153.14.23.323.23.547 0 .31-.028.506-.084.59-.056.084-.245.239-.566.463-.07.014-.157.035-.263.063-.105.028-.294.123-.566.285-.273.161-.51.35-.714.568-.203.219-.387.54-.556.969a3.657 3.657 0 0 0-.23 1.442s-.015-.533 0 0zm0 4.212h4.197V16.84h-4.197v2.106z"/>
</svg>
