<?xml version="1.0" encoding="UTF-8"?>
<svg width="28px" height="44px" viewBox="0 0 28 44" version="1.1" xmlns="http://www.w3.org/2000/svg" xmlns:xlink="http://www.w3.org/1999/xlink">
    <!-- Generator: Sketch 39.1 (31720) - http://www.bohemiancoding.com/sketch -->
    <title>hoover C</title>
    <desc>Created with Sketch.</desc>
    <defs></defs>
    <g id="Page-1" stroke="none" stroke-width="1" fill="none" fill-rule="evenodd">
        <g id="hoover-C" fill="#3793E3">
            <path d="M25.8753356,33.6301321 C23.7573869,34.1726012 20.1722432,34.9334039 18.116521,35.1823939 C12.2571128,35.894221 10.7809213,33.7108856 9.67471477,24.6481743 C8.50815612,15.0897262 9.92324575,13.0585513 15.1371482,12.4256083 C17.1707538,12.1784876 20.8484874,12.0652084 23.2472049,12.0988557 L22.5698362,6.55041715 C20.2487143,6.33133589 16.5012571,6.12833056 13.406428,6.5036848 C3.37559791,7.72134293 1.06384752,12.7265646 2.6236324,25.5039371 C4.0623381,37.2905837 7.23438802,42.6348953 17.6621929,41.3690094 C20.4099033,41.0351535 24.2027184,40.0545218 26.5669489,39.2982055 L25.8753356,33.6301321 L25.8753356,33.6301321 Z" id="Shape-Copy-18"></path>
            <path d="M20.2078548,1.63267841 C22.826614,0.783271198 26.7851164,3.17821071 26.6520418,6.39377031 C25.2448241,3.01520827 23.0237894,2.12542431 20.2078548,1.63267841 L20.2078548,1.63267841 L20.2078548,1.63267841 Z" id="Shape-Copy-29"></path>
            <path d="M22.5443458,0.531290362 C24.4793637,-0.0964185745 27.3807661,1.67305516 27.2825532,4.04892787 C26.2426966,1.55304648 24.6251836,0.894681122 22.5443458,0.531290362 L22.5443458,0.531290362 L22.5443458,0.531290362 Z" id="Shape-Copy-30"></path>
            <path d="M6.41382346,42.41058 C4.16917268,43.1392308 0.776331291,41.0859983 0.890663036,38.330285 C2.0965818,41.2261953 3.99973678,41.9884934 6.41382346,42.41058 L6.41382346,42.41058 L6.41382346,42.41058 Z" id="Shape-Copy-31"></path>
            <path d="M4.41095621,43.3549474 C2.75258362,43.8929302 0.26577445,42.3765589 0.35011754,40.3408977 C1.24153029,42.47937 2.62775584,43.0438968 4.41095621,43.3549474 L4.41095621,43.3549474 L4.41095621,43.3549474 Z" id="Shape-Copy-32"></path>
            <path d="M3.79656365,4.83889153 L5.34960109,4.077715 C6.30024143,3.61188693 7.42893941,4.02275776 7.92750079,4.9544139 L9.43967869,7.78116034 C9.93824007,8.71281649 9.51090175,9.88635928 8.5602614,10.3521874 L7.00722396,11.1133639 C6.05695848,11.5788181 4.92788564,11.168695 4.42932426,10.236665 L2.91714636,7.4102924 C2.41858498,6.47788854 2.84554845,5.30509346 3.79656365,4.83889153 L3.79656365,4.83889153 L3.79656365,4.83889153 Z" id="Shape-Copy-17"></path>
            <path d="M20.6753029,13.4585802 C21.3076887,13.3815653 21.8875943,13.8346821 21.9648151,14.4653819 L22.8536038,21.7477776 C22.9304497,22.3784774 22.4761216,22.956837 21.8441107,23.0338519 L14.778034,23.891484 C14.1456483,23.968499 13.5657427,23.5153821 13.4888968,22.8846823 L12.5997332,15.6022866 C12.5228872,14.9719606 12.9768405,14.3932272 13.6092262,14.3165861 L20.6753029,13.4585802 Z" id="Shape-Copy-19"></path>
            <path d="M14.4192948,25.1936343 L15.5378716,25.0579235 C15.8804919,25.0164252 16.1946231,25.2616766 16.2366072,25.6033835 L16.3786785,26.767206 C16.4202877,27.1085391 16.1743808,27.4222066 15.8317604,27.4637049 L14.7131836,27.5994157 C14.3705632,27.640914 14.056432,27.3956626 14.0148228,27.0539557 L13.8727515,25.8901332 C13.8307674,25.5488001 14.0766744,25.2351326 14.4192948,25.1936343 L14.4192948,25.1936343 L14.4192948,25.1936343 Z" id="Shape-Copy-20"></path>
            <path d="M17.9032267,24.7707999 L19.0218035,24.6350892 C19.3644239,24.5935909 19.678555,24.8388423 19.7201643,25.1805492 L19.8622355,26.3443717 C19.9038448,26.6860786 19.6579378,26.9993723 19.3153174,27.0408706 L18.1967406,27.1765814 C17.8541203,27.2180797 17.5399891,26.9728283 17.4983799,26.6311214 L17.3563086,25.4672989 C17.3143245,25.1259658 17.5606063,24.8122983 17.9032267,24.7707999 L17.9032267,24.7707999 L17.9032267,24.7707999 Z" id="Shape-Copy-21"></path>
            <path d="M21.3871586,24.3475918 L22.5057354,24.211881 C22.8483558,24.1703827 23.162487,24.4156341 23.2040962,24.757341 L23.3735321,26.1447311 C23.400147,26.3630646 23.2427066,26.5638268 23.0234146,26.5907446 L21.6806726,26.7537471 C21.3380522,26.7952454 21.023921,26.549994 20.9823118,26.2082871 L20.8402405,25.0444646 C20.7982564,24.7027576 21.0445382,24.389464 21.3871586,24.3475918 L21.3871586,24.3475918 L21.3871586,24.3475918 Z" id="Shape-Copy-22"></path>
            <path d="M15.9404693,28.3572275 C16.2830896,28.316103 16.5972208,28.5613544 16.6392049,28.9030613 L16.7812762,30.0661361 C16.8228854,30.4085908 16.5769784,30.7218844 16.2343581,30.7633828 L15.1157813,30.8990935 C14.7731609,30.9405918 14.4590297,30.6953405 14.4174205,30.3536335 L14.2753492,29.189811 C14.2333651,28.8481041 14.4792721,28.5344366 14.8222673,28.4933121 L15.9404693,28.3572275 Z" id="Shape-Copy-23"></path>
            <path d="M19.4244012,27.9340193 C19.7670216,27.8928948 20.0811527,28.1381462 20.122762,28.4794793 L20.2648332,29.6433018 C20.3064425,29.9850087 20.0605355,30.2983024 19.7179151,30.3398007 L18.5997132,30.4755115 C18.2567179,30.5170098 17.9429617,30.2717584 17.9009775,29.9300515 L17.7589063,28.7666029 C17.717297,28.4248959 17.963204,28.1112284 18.3058244,28.0697301 L19.4244012,27.9340193 Z" id="Shape-Copy-24"></path>
            <path d="M22.9083331,27.511185 C23.2509535,27.4696867 23.5650846,27.7149381 23.6066939,28.056645 L23.7487651,29.2204675 C23.7907493,29.5621744 23.5444674,29.8754681 23.2018471,29.9169664 L22.0836451,30.0526772 C21.7410247,30.0941755 21.4268936,29.8489241 21.3849095,29.5072172 L21.2428382,28.3433947 C21.201229,28.0016878 21.4471359,27.6883941 21.7897563,27.6468957 L22.9083331,27.511185 Z" id="Shape-Copy-25"></path>
            <path d="M15.224865,31.7922422 L16.3434418,31.6565315 C16.6860622,31.6150331 17.0001933,31.8602845 17.0418026,32.2019914 L17.1838738,33.3658139 C17.2254831,33.7075209 16.9795761,34.0208145 16.6369558,34.0623129 L15.5183789,34.1980236 C15.1757586,34.2395219 14.8616274,33.9942706 14.8200182,33.6525636 L14.6779469,32.4887412 C14.6359628,32.1470342 14.8822446,31.8337405 15.224865,31.7922422 L15.224865,31.7922422 L15.224865,31.7922422 Z" id="Shape-Copy-26"></path>
            <path d="M18.7084221,31.3686602 L19.8269989,31.2329494 C20.1696192,31.1914511 20.4837504,31.4374502 20.5253597,31.7791571 L20.6674309,32.9422319 C20.7090402,33.2839388 20.4631332,33.5979802 20.1205128,33.6387308 L19.0023109,33.7744416 C18.6596905,33.8159399 18.3455593,33.5706885 18.3035752,33.2289816 L18.161504,32.0659068 C18.1198947,31.7241999 18.3658017,31.4101585 18.7084221,31.3686602 L18.7084221,31.3686602 L18.7084221,31.3686602 Z" id="Shape-Copy-27"></path>
            <path d="M22.192354,30.9458259 L23.3109308,30.8101151 C23.6535512,30.7686168 23.9676823,31.0138682 24.0092916,31.3555751 L24.1513628,32.5193976 C24.1929721,32.8611045 23.9470651,33.1743982 23.6044447,33.2158965 L22.4858679,33.3516073 C22.1432476,33.3931056 21.8291164,33.1478542 21.7871323,32.8061473 L21.645061,31.6423248 C21.6038266,31.3006179 21.8501085,30.987698 22.192354,30.9458259 L22.192354,30.9458259 L22.192354,30.9458259 Z" id="Shape-Copy-28"></path>
        </g>
    </g>
</svg>