<?xml version="1.0" encoding="UTF-8"?>
<svg width="38px" height="62px" viewBox="0 0 38 62" version="1.1" xmlns="http://www.w3.org/2000/svg" xmlns:xlink="http://www.w3.org/1999/xlink">
    <!-- Generator: Sketch 39.1 (31720) - http://www.bohemiancoding.com/sketch -->
    <title>Voice Messages icon</title>
    <desc>Created with Sketch.</desc>
    <defs></defs>
    <g id="Page-1" stroke="none" stroke-width="1" fill="none" fill-rule="evenodd">
        <g id="Voice-Messages-icon" transform="translate(0.000000, 1.000000)">
            <path d="M4.80331859,6.27483722 L6.96647789,5.19794466 C8.29058408,4.53890333 9.86269913,5.12019259 10.5571239,6.43827523 L12.6633717,10.4374818 C13.3577965,11.7555645 12.7625752,13.415862 11.438469,14.0749033 L9.27530975,15.1517959 C7.95172567,15.8103083 6.37908851,15.2300769 5.68466373,13.9114653 L3.57841594,9.91278763 C2.88399116,8.59364714 3.47869028,6.93440747 4.80331859,6.27483722 L4.80331859,6.27483722 L4.80331859,6.27483722 Z" id="Shape" fill="#777777"></path>
            <path d="M35.5558938,47.0079281 C32.6058938,47.7753992 27.6123009,48.8517628 24.7489735,49.2040273 C16.5876549,50.2111017 14.531531,47.1221761 12.9907434,34.3004901 C11.3658938,20.7774488 13.3369115,17.9037959 20.5991328,17.0083248 C23.4316549,16.658705 28.5542124,16.4984405 31.8952832,16.5460438 L30.9518053,8.69625871 C27.7188142,8.38630829 22.4991416,8.09910168 18.1884867,8.630143 C4.21697346,10.3528537 0.997035409,17.4341099 3.16959293,35.5112009 C5.17350444,52.1866389 9.59171682,59.7476306 24.1161593,57.9566885 C27.9433274,57.4843579 33.226177,56.096986 36.5192124,55.0269694 L35.5558938,47.0079281 L35.5558938,47.0079281 Z" id="Shape" fill="#777777"></path>
            <path d="M18.4709558,19.6836306 L28.3129912,18.4697463 C29.1938142,18.3607876 30.0015398,19.0018455 30.1090974,19.894143 L31.3470531,30.1970852 C31.4540885,31.0893827 30.8212743,31.9076306 29.9409735,32.0165893 L20.0989381,33.2299447 C19.2181151,33.3389033 18.4103894,32.6978455 18.303354,31.805548 L17.0648761,21.5026058 C16.9578407,20.6108372 17.5901328,19.7920604 18.4709558,19.6836306 L18.4709558,19.6836306 L18.4709558,19.6836306 Z" id="Shape" fill="#777777"></path>
            <path d="M19.5992655,35.0721926 L21.1572832,34.8801926 C21.6345044,34.8214818 22.0720443,35.1684571 22.1305221,35.6518951 L22.3284071,37.2984405 C22.3863628,37.7813496 22.0438496,38.2251182 21.5666283,38.283829 L20.0086106,38.475829 C19.5313894,38.5345397 19.0938496,38.1875645 19.0358938,37.7041265 L18.8380089,36.057581 C18.779531,35.5746719 19.1220443,35.1309033 19.5992655,35.0721926 L19.5992655,35.0721926 L19.5992655,35.0721926 Z" id="Shape" fill="#777777"></path>
            <path d="M24.451885,34.4739777 L26.0099027,34.2819777 C26.4871239,34.223267 26.9246637,34.5702422 26.9826195,35.0536802 L27.1805044,36.7002256 C27.2384602,37.1836637 26.8959469,37.6269033 26.4187257,37.6856141 L24.860708,37.8776141 C24.3834867,37.9363248 23.9459469,37.5893496 23.8879912,37.1059116 L23.6901062,35.4593661 C23.6316283,34.9764571 23.9746637,34.5326885 24.451885,34.4739777 L24.451885,34.4739777 L24.451885,34.4739777 Z" id="Shape" fill="#777777"></path>
            <path d="M29.3045044,33.8752339 L30.8625221,33.6832339 C31.3397434,33.6245232 31.7772832,33.9714984 31.8352389,34.4549364 L32.0712389,36.4177794 C32.1083097,36.7266719 31.8890177,37.010705 31.5835752,37.0487876 L29.7133274,37.2793992 C29.2361062,37.3381099 28.7985664,36.9911347 28.7406106,36.5076967 L28.5427257,34.8611513 C28.4842478,34.3777133 28.8272832,33.9344736 29.3045044,33.8752339 L29.3045044,33.8752339 L29.3045044,33.8752339 Z" id="Shape" fill="#777777"></path>
            <path d="M20.1605487,39.7404901 L21.7180443,39.5479612 C22.1952655,39.4897794 22.6328053,39.8367546 22.6912832,40.3201926 L22.8891682,41.9656802 C22.9471239,42.4501761 22.6046106,42.8934157 22.1273894,42.9521265 L20.5693717,43.1441265 C20.0921505,43.2028372 19.6546106,42.855862 19.5966549,42.372424 L19.3987699,40.7258785 C19.340292,40.2424405 19.6828053,39.7986719 20.1605487,39.7404901 L20.1605487,39.7404901 L20.1605487,39.7404901 Z" id="Shape" fill="#777777"></path>
            <path d="M25.012646,39.1412174 L26.5706637,38.9492174 C27.047885,38.8910356 27.4854248,39.2380108 27.5433805,39.7209199 L27.7412655,41.3674653 C27.7992212,41.8509033 27.456708,42.294143 26.9794867,42.3528537 L25.4219912,42.5448537 C24.9442478,42.6035645 24.5072301,42.2565893 24.4487522,41.7731513 L24.2508673,40.1271347 C24.1929115,39.6436967 24.5354248,39.1999281 25.012646,39.1412174 L25.012646,39.1412174 L25.012646,39.1412174 Z" id="Shape" fill="#777777"></path>
            <path d="M29.8652655,38.5430025 L31.4232832,38.3510025 C31.9005044,38.2922918 32.3380443,38.639267 32.396,39.122705 L32.593885,40.7692504 C32.6523628,41.2526885 32.3093274,41.6959281 31.8321062,41.7546389 L30.2746106,41.9466389 C29.7973894,42.0053496 29.3598496,41.6583744 29.3013717,41.1749364 L29.1034867,39.5283909 C29.045531,39.0449529 29.3880443,38.6017133 29.8652655,38.5430025 L29.8652655,38.5430025 L29.8652655,38.5430025 Z" id="Shape" fill="#777777"></path>
            <path d="M20.7213097,44.4077298 L22.2793274,44.2157298 C22.7565487,44.157019 23.1940885,44.5039942 23.2520443,44.9874323 L23.4499292,46.6339777 C23.507885,47.1174157 23.1653717,47.5606554 22.6881505,47.6193661 L21.1301328,47.8113661 C20.6529115,47.8700769 20.2153717,47.5231017 20.1574159,47.0396637 L19.959531,45.3931182 C19.9010531,44.9096802 20.2440885,44.4664405 20.7213097,44.4077298 L20.7213097,44.4077298 L20.7213097,44.4077298 Z" id="Shape" fill="#777777"></path>
            <path d="M25.5734071,43.8084571 L27.1314248,43.6164571 C27.608646,43.5577463 28.0461859,43.9057794 28.1041416,44.3892174 L28.3020266,46.034705 C28.3599823,46.518143 28.017469,46.9624405 27.5402478,47.0200934 L25.9827522,47.2120934 C25.505531,47.2708042 25.0679912,46.923829 25.0095133,46.4403909 L24.8116283,44.7949033 C24.7536726,44.3114653 25.0961859,43.8671678 25.5734071,43.8084571 L25.5734071,43.8084571 L25.5734071,43.8084571 Z" id="Shape" fill="#777777"></path>
            <path d="M30.4260266,43.2102422 L31.9840443,43.0182422 C32.4612655,42.9595314 32.8988053,43.3065066 32.9567611,43.7899447 L33.154646,45.4364901 C33.2126018,45.9199281 32.8700885,46.3631678 32.3928673,46.4218785 L30.8348496,46.6138785 C30.3576283,46.6725893 29.9200885,46.3256141 29.8616106,45.8421761 L29.6637257,44.1956306 C29.606292,43.7121926 29.9493274,43.2694818 30.4260266,43.2102422 L30.4260266,43.2102422 L30.4260266,43.2102422 Z" id="Shape" fill="#777777"></path>
            <path d="M27.6619027,1.7387711 C31.3094602,0.537052094 36.8230885,3.92534961 36.6377345,8.47463887 C34.6776814,3.69473804 31.5840974,2.43589507 27.6619027,1.7387711 L27.6619027,1.7387711 L27.6619027,1.7387711 Z" id="Shape" fill="#777777"></path>
            <path d="M30.9163009,0.180556226 C33.6115044,-0.70750989 37.6527434,1.79589507 37.5159469,5.15721738 C36.0675752,1.62610994 33.8146106,0.694671928 30.9163009,0.180556226 L30.9163009,0.180556226 L30.9163009,0.180556226 Z" id="Shape" fill="#777777"></path>
            <path d="M8.44878762,59.4302752 C5.32230975,60.4611513 0.596566382,57.5562918 0.75581417,53.657581 C2.43548674,57.7546389 5.08630975,58.8331182 8.44878762,59.4302752 L8.44878762,59.4302752 L8.44878762,59.4302752 Z" id="Shape" fill="#777777"></path>
            <path d="M5.65907966,60.7663413 C3.34920355,61.5274653 -0.114566361,59.382143 0.00291151507,56.502143 C1.24452213,59.5275975 3.17533629,60.3262752 5.65907966,60.7663413 L5.65907966,60.7663413 L5.65907966,60.7663413 Z" id="Shape" fill="#777777"></path>
            <path d="M0.967274347,4.01738267 C0.967274347,4.01738267 1.17038054,2.34809342 2.96753098,1.16964714 C4.69315045,0.0377463086 7.18994691,0.525944656 7.18994691,0.525944656" id="Shape" stroke="#777777" stroke-width="1.5"></path>
            <path d="M2.36708851,4.37282069 C2.36708851,4.37282069 2.69707081,3.19225871 3.84469913,2.52792813 C5.21527435,1.7345397 6.86884072,2.18148185 6.86884072,2.18148185" id="Shape" stroke="#777777" stroke-width="1.5"></path>
            <path d="M3.84887612,4.82505209 C3.84887612,4.82505209 3.99663718,4.26862234 4.60595576,3.80581242 C5.21527435,3.34300251 6.34253983,3.58895292 6.34253983,3.58895292" id="Shape" stroke="#777777" stroke-width="1.5"></path>
            <g id="Group" transform="translate(25.015248, 26.055135) rotate(-6.000000) translate(-25.015248, -26.055135) translate(20.515248, 21.055135)" fill="#FFFFFF">
                <path d="M-1.53832502e-12,4.60568221 C-1.53832502e-12,4.41156456 0.0512244594,4.2134028 0.153061134,4.0107925 C0.25510189,3.80899103 0.357346727,3.65531456 0.459183401,3.5501675 L0.612244535,3.39244691 L0.612244535,6.42553515 C0.596122095,6.40935868 0.573673129,6.38711603 0.544897636,6.35880721 C0.516326224,6.33049838 0.467550743,6.27388074 0.397958948,6.18895427 C0.328571234,6.1040278 0.267550862,6.01707927 0.214285587,5.92810868 C0.161428476,5.83913809 0.112448913,5.72752044 0.0673468988,5.59406456 C0.0224489663,5.46101309 -1.53832502e-12,5.33321897 -1.53832502e-12,5.21229985 L-1.53832502e-12,4.60568221 Z M6.02040459,-1.36068934e-12 L6.02040459,8.78451027 L2.50008346,6.71756667 L2.30207626,6.71756667 L2.54702107,9.56960434 C2.55397479,9.65228208 2.54893335,9.71291243 2.5313752,9.75046191 C2.5139909,9.78870036 2.49486817,9.80902531 2.474007,9.81247021 C2.45331968,9.81625961 2.41663881,9.81798206 2.3644859,9.81798206 L2.32293742,9.81798206 L1.8900683,9.81798206 C1.82035725,9.81798206 1.76038141,9.76975338 1.70996694,9.67329601 C1.65955246,9.57683864 1.6273915,9.45626693 1.6136579,9.31123639 C1.41877988,6.98971425 1.32142779,5.78055225 1.32142779,5.68409488 L1.32142779,3.10041539 L1.32142779,3.0487418 C1.32142779,2.95917424 1.322297,2.89544348 1.32420928,2.85720503 C1.32577386,2.81965555 1.33011994,2.77487177 1.33707366,2.72285369 C1.34402738,2.6711801 1.35793482,2.63500859 1.37879598,2.61433915 C1.39965715,2.59366972 1.42590744,2.58367949 1.45702534,2.58367949 L2.50008346,2.58367949 L6.02040459,-1.36068934e-12 Z" id="Fill-119-Copy"></path>
                <path d="M7.5,8.78808552 C8.85173791,5.90397079 8.58833988,3.70404057 7.91129955,1.25 C9.24643405,2.83942534 9.27905492,7.1900947 7.5,8.78808552 Z" id="Shape-Copy-33"></path>
                <path d="M6.71969427,1.875 C8.04947607,3.05313229 8.07200833,6.25893019 6.3,7.44312765 C7.64547786,5.30595673 7.39465775,3.69286295 6.71969427,1.875 L6.71969427,1.875 L6.71969427,1.875 Z" id="Shape-Copy-34"></path>
                <path d="M3.09841443,3.41911765 L6.05084746,3.41911765" id="Path-195-Copy-4" stroke="#FFFFFF"></path>
                <path d="M3.09841443,4.04411765 L6.05084746,4.04411765" id="Path-195-Copy-5" stroke="#FFFFFF"></path>
                <path d="M3.09841443,5.60661765 L6.05084746,5.60661765" id="Path-195-Copy-6" stroke="#FFFFFF"></path>
                <path d="M3.09841443,6.23161765 L6.05084746,6.23161765" id="Path-195-Copy-7" stroke="#FFFFFF"></path>
            </g>
        </g>
    </g>
</svg>