<?xml version="1.0" encoding="UTF-8"?>
<svg width="28px" height="46px" viewBox="0 0 28 46" version="1.1" xmlns="http://www.w3.org/2000/svg" xmlns:xlink="http://www.w3.org/1999/xlink">
    <!-- Generator: sketchtool 39.1 (31720) - http://www.bohemiancoding.com/sketch -->
    <title>21EE6AB4-2038-4AE8-8E78-6CB313415D5C</title>
    <desc>Created with sketchtool.</desc>
    <defs></defs>
    <g id="Page-1" stroke="none" stroke-width="1" fill="none" fill-rule="evenodd">
        <g id="ClickToCall---Add-New-different-choices" transform="translate(-795.000000, -491.000000)">
            <g id="Group-11" transform="translate(639.000000, 442.000000)">
                <g id="callerid-icon" transform="translate(156.000000, 50.000000)">
                    <path d="M3.72767254,4.70641679 L5.31410864,3.91430974 C6.28519286,3.42955267 7.43816392,3.8571193 7.94744705,4.82663343 L9.4921449,7.76824514 C10.001428,8.73775927 9.56489963,9.95898916 8.59381541,10.4437462 L7.00737932,11.2358533 C6.03667801,11.7202213 4.88332404,11.2934328 4.37404091,10.3235296 L2.82934305,7.38230693 C2.32005992,6.41201469 2.7562054,5.19156291 3.72767254,4.70641679 L3.72767254,4.70641679 L3.72767254,4.70641679 Z" id="Shape" fill="#23BEFF"></path>
                    <path d="M26.2812568,34.6675938 C24.1177608,35.2321062 20.4555173,36.0238242 18.355586,36.2829319 C12.370169,37.0236843 10.8622314,34.7516287 9.73223552,25.3206527 C8.54058958,15.3737956 9.98611125,13.2600836 15.3121406,12.6014209 C17.3894797,12.3442585 21.1463043,12.2263761 23.5966072,12.2613907 L22.9046714,6.48749051 C20.5336329,6.25950685 16.7055852,6.04825237 13.5442006,6.43885919 C3.29765378,7.70599704 0.936188322,12.9146067 2.52951697,26.2111896 C3.99916257,38.4767883 7.23942862,44.0382669 17.8914873,42.7209415 C20.6982884,42.3735193 24.5726693,41.3530395 26.9877435,40.5659901 L26.2812568,34.6675938 L26.2812568,34.6675938 Z" id="Shape" fill="#23BEFF"></path>
                    <path d="M20.9693955,13.6763678 C21.6153809,13.5962234 22.2077576,14.0677527 22.286639,14.7240811 L23.1945415,22.302398 C23.2730401,22.9587264 22.8089414,23.5605877 22.1633389,23.6407322 L14.9453036,24.5332143 C14.2993181,24.6133587 13.7069414,24.1418293 13.6284429,23.485501 L12.7201575,15.907184 C12.641659,15.2512447 13.1053747,14.6489943 13.7513601,14.569239 L20.9693955,13.6763678 Z" id="Shape" fill="#23BEFF"></path>
                    <path d="M14.5788495,25.8882776 L15.7214817,25.7470522 C16.0714703,25.7038676 16.3923569,25.9590848 16.4352439,26.314677 L16.5803705,27.5257916 C16.6228746,27.8809948 16.3716793,28.2074083 16.0216907,28.2505929 L14.8790585,28.3918183 C14.5290699,28.4350029 14.2081833,28.1797857 14.1656792,27.8241934 L14.0205526,26.6130789 C13.9776656,26.2578756 14.2288609,25.9314622 14.5788495,25.8882776 L14.5788495,25.8882776 L14.5788495,25.8882776 Z" id="Shape" fill="#23BEFF"></path>
                    <path d="M18.1377047,25.4482613 L19.2803369,25.3070359 C19.6303255,25.2638513 19.9512121,25.5190685 19.9937162,25.8746608 L20.1388428,27.0857754 C20.1813468,27.4413676 19.9301515,27.767392 19.580163,27.8105767 L18.4375308,27.951802 C18.0875422,27.9949866 17.7666555,27.7397694 17.7241515,27.3841772 L17.5790249,26.1730626 C17.5361379,25.8178594 17.7877161,25.4914459 18.1377047,25.4482613 L18.1377047,25.4482613 L18.1377047,25.4482613 Z" id="Shape" fill="#23BEFF"></path>
                    <path d="M21.6965599,25.007856 L22.8391921,24.8666306 C23.1891807,24.823446 23.5100673,25.0786632 23.5525714,25.4342555 L23.7256511,26.8780223 C23.7528384,27.1052279 23.5920121,27.3141481 23.3680041,27.3421597 L21.996386,27.5117858 C21.6463974,27.5549704 21.3255107,27.2997532 21.2830067,26.9441609 L21.1378801,25.7330464 C21.0949931,25.3774541 21.3465713,25.0514297 21.6965599,25.007856 L21.6965599,25.007856 L21.6965599,25.007856 Z" id="Shape" fill="#23BEFF"></path>
                    <path d="M14.9904881,29.3220383 L16.1327374,29.1804239 C16.482726,29.1376283 16.8036126,29.3928455 16.8464996,29.7484378 L16.9916262,30.9587742 C17.0341303,31.3151446 16.782935,31.641169 16.4329464,31.6843536 L15.2903142,31.825579 C14.9403256,31.8687636 14.619439,31.6135464 14.5769349,31.2579542 L14.4318083,30.0468396 C14.3889213,29.6912473 14.6401166,29.3648339 14.9904881,29.3220383 L14.9904881,29.3220383 L14.9904881,29.3220383 Z" id="Shape" fill="#23BEFF"></path>
                    <path d="M18.5489604,28.8812439 L19.6915926,28.7400186 C20.0415812,28.697223 20.3624678,28.9524402 20.4049719,29.3076434 L20.5500985,30.518758 C20.5926025,30.8743502 20.3414072,31.2003747 19.9914187,31.2435593 L18.8491694,31.3847847 C18.4987979,31.4279693 18.1782942,31.1727521 18.1354072,30.8171598 L17.9902806,29.6064343 C17.9477765,29.250842 18.1989718,28.9244286 18.5489604,28.8812439 L18.5489604,28.8812439 L18.5489604,28.8812439 Z" id="Shape" fill="#23BEFF"></path>
                    <path d="M22.1078156,28.4412277 L23.2504478,28.3000023 C23.6004364,28.2568177 23.921323,28.5120349 23.9638271,28.8676272 L24.1089536,30.0787417 C24.1518406,30.434334 23.9002624,30.7603584 23.5502739,30.803543 L22.4080246,30.9447684 C22.058036,30.987953 21.7371494,30.7327358 21.6942624,30.3771436 L21.5491358,29.166029 C21.5066317,28.8104367 21.757827,28.4844123 22.1078156,28.4412277 L22.1078156,28.4412277 L22.1078156,28.4412277 Z" id="Shape" fill="#23BEFF"></path>
                    <path d="M15.4017438,32.7550209 L16.544376,32.6137956 C16.8943646,32.5706109 17.2152512,32.8258281 17.2577553,33.1814204 L17.4028819,34.392535 C17.445386,34.7481272 17.1941907,35.0741516 16.8442021,35.1173363 L15.7015699,35.2585616 C15.3515813,35.3017463 15.0306947,35.0465291 14.9881906,34.6909368 L14.843064,33.4798222 C14.800177,33.12423 15.0517552,32.7982055 15.4017438,32.7550209 L15.4017438,32.7550209 L15.4017438,32.7550209 Z" id="Shape" fill="#23BEFF"></path>
                    <path d="M18.9602161,32.3142266 L20.1028483,32.1730012 C20.4528369,32.1298166 20.7737235,32.3858119 20.8162276,32.7414042 L20.9613542,33.9517406 C21.0038582,34.3073329 20.7526629,34.6341354 20.4026744,34.6765419 L19.2604251,34.8177673 C18.9104365,34.8609519 18.5895499,34.6057347 18.5466629,34.2501424 L18.4015363,33.039806 C18.3590322,32.6842137 18.6102275,32.3574112 18.9602161,32.3142266 L18.9602161,32.3142266 L18.9602161,32.3142266 Z" id="Shape" fill="#23BEFF"></path>
                    <path d="M22.5190713,31.8742103 L23.6617035,31.732985 C24.0116921,31.6898003 24.3325787,31.9450175 24.3750828,32.3006098 L24.5202093,33.5117244 C24.5627134,33.8673166 24.3115181,34.1933411 23.9615296,34.2365257 L22.8188974,34.377751 C22.4689088,34.4209357 22.1480221,34.1657185 22.1051351,33.8101262 L21.9600086,32.5990116 C21.9178874,32.2434194 22.1694656,31.917784 22.5190713,31.8742103 L22.5190713,31.8742103 L22.5190713,31.8742103 Z" id="Shape" fill="#23BEFF"></path>
                    <path d="M20.4918947,1.36991872 C23.1669713,0.485995717 27.2106028,2.97825396 27.0746663,6.3244783 C25.637186,2.80862789 23.368387,1.88268743 20.4918947,1.36991872 L20.4918947,1.36991872 L20.4918947,1.36991872 Z" id="Shape" fill="#23BEFF"></path>
                    <path d="M22.8786328,0.223775602 C24.855264,-0.429440382 27.8190621,1.41193618 27.7187372,3.88435284 C26.6565181,1.28705093 25.0042198,0.6019328 22.8786328,0.223775602 L22.8786328,0.223775602 L22.8786328,0.223775602 Z" id="Shape" fill="#23BEFF"></path>
                    <path d="M6.40121752,43.8048365 C4.10829467,44.5630962 0.642488953,42.4264302 0.759279445,39.5587381 C1.99113195,42.5723242 3.93521499,43.3655984 6.40121752,43.8048365 L6.40121752,43.8048365 L6.40121752,43.8048365 Z" id="Shape" fill="#23BEFF"></path>
                    <path d="M4.35527784,44.7875784 C2.66124133,45.3474222 0.120952395,43.7694329 0.207109315,41.6510523 C1.11769223,43.8764218 2.53372909,44.4638883 4.35527784,44.7875784 L4.35527784,44.7875784 L4.35527784,44.7875784 Z" id="Shape" fill="#23BEFF"></path>
                    <path d="M0.914361902,3.04594877 C0.914361902,3.04594877 1.06331764,1.81810502 2.38132707,0.951300253 C3.6468765,0.118731935 5.47799825,0.477825654 5.47799825,0.477825654" id="Shape" stroke="#23BEFF" stroke-width="1.5"></path>
                    <path d="M1.94096947,3.30739078 C1.94096947,3.30739078 2.18297469,2.43902981 3.02463207,1.95038223 C4.02979615,1.36680631 5.24250267,1.69555408 5.24250267,1.69555408" id="Shape" stroke="#23BEFF" stroke-width="1.5"></path>
                    <path d="M3.02769543,3.64002906 C3.02769543,3.64002906 3.13606169,3.23074781 3.58292892,2.89032852 C4.02979615,2.54990923 4.85651966,2.73081777 4.85651966,2.73081777" id="Shape" stroke="#23BEFF" stroke-width="1.5"></path>
                    <path d="M16.9905657,15.1935388 C17.5422488,15.0655916 18.1280013,15.0793184 18.6725938,15.2342107 C19.2827311,15.4063886 19.8382189,15.7575231 20.2515489,16.2296566 C20.7613802,16.8044868 21.0496735,17.5611545 21.051057,18.3225673 C21.0922171,18.8058856 21.0386052,19.2956436 20.8966203,19.7599817 C20.7081142,20.3854824 20.378142,20.9625156 19.9810685,21.4831166 C19.5966198,21.9876182 19.1471451,22.4422967 18.6629091,22.8554559 C18.3730593,23.1008433 18.070066,23.3316566 17.7521997,23.5412866 C17.9403599,23.2494654 18.0863225,22.920531 18.1094966,22.5726164 C18.1254072,22.3367191 18.0564036,22.0909927 17.8936657,21.913053 C17.6939184,21.6910519 17.4011286,21.5783567 17.1143918,21.5100617 C16.803789,21.4476981 16.4990662,21.3478823 16.2204576,21.1984129 C15.6044403,20.8872725 15.0991055,20.3742976 14.7933451,19.7657436 C14.5180224,19.2215868 14.4075128,18.6003228 14.4727118,17.9966833 C14.5411966,17.3467795 14.8189405,16.7204315 15.2559634,16.2271146 C15.7042275,15.7154954 16.3202448,15.3472448 16.9905657,15.1935388 L16.9905657,15.1935388 Z M15.8935984,17.0859706 C15.7450417,17.1168135 15.6298627,17.255776 15.6315921,17.4049065 C15.626058,17.5716614 15.7692535,17.7274011 15.9397737,17.7363828 C16.0781268,17.7511264 16.2171717,17.6709688 16.2751071,17.5477667 C16.3390954,17.4188027 16.3034695,17.2503531 16.1903658,17.1586717 C16.1106398,17.0900378 15.9968444,17.0617369 15.8935984,17.0859706 L15.8935984,17.0859706 Z M19.4387243,17.0869874 C19.2970853,17.1179998 19.185711,17.2473027 19.1805228,17.3899934 C19.1654769,17.5721698 19.3309818,17.7446867 19.5182773,17.7373996 C19.7180246,17.7451951 19.8888908,17.5479361 19.8511895,17.3561001 C19.8269777,17.1713817 19.6220422,17.0373337 19.4387243,17.0869874 L19.4387243,17.0869874 Z M15.4980814,18.5035575 C15.4953143,19.0560181 15.7171981,19.6044115 16.1033763,20.0065554 C16.4252202,20.344302 16.8575738,20.5810467 17.3215756,20.6667967 C17.7743362,20.7523772 18.2540756,20.6989953 18.6741503,20.5115654 C19.002566,20.3639601 19.2967394,20.1414507 19.5189691,19.8616616 C19.8281883,19.4784979 19.9985356,18.9917903 19.9978438,18.5035575 L15.4980814,18.5035575 L15.4980814,18.5035575 Z" id="Shape" fill="#FFFFFF"></path>
                </g>
            </g>
        </g>
    </g>
</svg>