<?xml version="1.0" encoding="UTF-8"?>
<svg width="25px" height="24px" viewBox="0 0 25 24" version="1.1" xmlns="http://www.w3.org/2000/svg" xmlns:xlink="http://www.w3.org/1999/xlink">
    <!-- Generator: Sketch 39.1 (31720) - http://www.bohemiancoding.com/sketch -->
    <title>API icon</title>
    <desc>Created with Sketch.</desc>
    <defs></defs>
    <g id="Page-1" stroke="none" stroke-width="1" fill="none" fill-rule="evenodd">
        <g id="Dashboard" transform="translate(-787.000000, -156.000000)" fill="#777777">
            <path d="M804.207233,167.254623 C803.838303,167.155998 803.48517,167.008061 803.146326,166.810811 L803.089915,166.776671 L801.589378,167.698435 C801.138089,167.349455 800.743211,166.951162 800.404744,166.503556 L801.307322,164.978663 L801.273476,164.921764 C801.09296,164.587956 800.950052,164.235183 800.844751,163.863442 L800.822562,163.795164 L799.118569,163.362731 C799.07344,163.051683 799.050875,162.770982 799.050875,162.520626 C799.050875,162.330963 799.07344,162.054054 799.118569,161.6899 L800.822562,161.257468 L800.844751,161.189189 C800.94253,160.840588 801.085438,160.487435 801.273476,160.130868 L801.307322,160.073969 L800.404744,158.549075 C800.750732,158.109056 801.14561,157.711143 801.589378,157.354196 L803.089915,158.27596 L803.146326,158.241821 C803.477272,158.052157 803.831158,157.90422 804.207233,157.798009 L804.263644,157.786629 L804.691993,156.056899 C805.045503,156.018966 805.323798,156 805.526878,156 C805.782609,156 806.060904,156.018966 806.362139,156.056899 L806.790488,157.786629 L806.858182,157.798009 C807.219213,157.90422 807.568962,158.052157 807.907429,158.241821 L807.964217,158.27596 L809.47566,157.354196 C809.927325,157.711143 810.318443,158.109056 810.649012,158.549075 L809.74681,160.073969 L809.780656,160.130868 C809.953274,160.449502 810.099943,160.802276 810.220663,161.189189 L810.23157,161.257468 L811.946845,161.6899 C811.984077,162.031294 812.003256,162.308203 812.003256,162.520626 C812.003256,162.778568 811.984077,163.05927 811.946845,163.362731 L810.23157,163.795164 L810.220663,163.863442 C810.107465,164.235183 809.960796,164.587956 809.780656,164.921764 L809.74681,164.978663 L810.649012,166.503556 C810.287981,166.966335 809.896487,167.364628 809.47566,167.698435 L807.964217,166.776671 L807.907429,166.810811 C807.553919,167.008061 807.203794,167.155998 806.858182,167.254623 L806.790488,167.277383 L806.362139,168.995733 C806.008253,169.033665 805.729958,169.052632 805.526878,169.052632 C805.271523,169.052632 804.992852,169.033665 804.691993,168.995733 L804.263644,167.277383 L804.207233,167.254623 Z M803.811978,164.250356 C804.286208,164.728307 804.857465,164.967283 805.526878,164.967283 C806.19629,164.967283 806.767924,164.728307 807.242154,164.250356 C807.716007,163.772404 807.952934,163.196207 807.952934,162.520626 C807.952934,161.853011 807.716007,161.280228 807.242154,160.802276 C806.767924,160.324324 806.19629,160.085349 805.526878,160.085349 C804.857465,160.085349 804.286208,160.324324 803.811978,160.802276 C803.338124,161.280228 803.101198,161.853011 803.101198,162.520626 C803.101198,162.520626 803.338124,163.772404 803.811978,164.250356 Z M796.714419,169.979597 C796.984295,169.709407 797.288979,169.477553 797.629224,169.282731 L797.686995,169.250948 L797.638993,167.490562 C798.166864,167.274225 798.709235,167.131397 799.266106,167.062078 L800.135413,168.606181 L800.201612,168.605318 C800.580956,168.615891 800.957921,168.668516 801.332508,168.763192 L801.402733,168.778116 L802.629228,167.518631 C802.921167,167.635072 803.175545,167.755881 803.392359,167.881059 C803.556612,167.975891 803.78514,168.133887 804.077942,168.355046 L803.600442,170.046964 L803.648479,170.100319 C803.901487,170.359299 804.135873,170.659638 804.35065,171.000766 L804.383003,171.058528 L806.154888,171.039319 C806.362962,171.558963 806.510126,172.099894 806.597367,172.662682 L805.048827,173.501303 L805.050187,173.567226 C805.048968,173.948665 805.000142,174.329108 804.904087,174.707904 L804.885737,174.762448 L806.169552,175.998273 C806.025648,176.323388 805.902925,176.573882 805.801385,176.749755 C805.67352,176.971224 805.517947,177.202751 805.334479,177.444663 L803.622314,176.950759 L803.578612,177.003693 C803.306115,177.26325 803.003123,177.492173 802.669636,177.690462 L802.611677,177.722572 L802.654226,179.492402 C802.119269,179.705083 801.579106,179.844843 801.032754,179.911116 L800.163259,178.367338 L800.09706,178.368201 C799.734805,178.358376 799.35596,178.309008 798.960523,178.220098 L798.895939,178.195403 L797.663803,179.464659 C797.349532,179.326206 797.100132,179.204362 796.916168,179.09815 C796.692784,178.969179 796.459279,178.812218 796.215089,178.628244 L796.69823,176.926555 L796.644552,176.882971 C796.379214,176.599068 796.147038,176.295662 795.948022,175.972753 L795.915669,175.914991 L794.143972,175.933875 C793.923709,175.389823 793.774524,174.851634 793.695852,174.320283 L795.249845,173.472216 L795.248673,173.405967 C795.254604,173.001194 795.30155,172.624008 795.388944,172.275386 L795.40308,172.205382 L794.12912,170.975246 C794.273212,170.649805 794.395935,170.399312 794.497475,170.223439 C794.625152,170.002295 794.780913,169.770442 794.964193,169.528857 L796.666503,170.017071 L796.714419,169.979597 Z M798.173832,162.092096 C798.272885,162.46091 798.321335,162.840702 798.319933,163.232774 L798.318573,163.298697 L799.867112,164.137318 C799.790531,164.702637 799.643038,165.243758 799.424634,165.760681 L797.652748,165.741472 L797.620396,165.799234 C797.421568,166.122468 797.187511,166.422618 796.918225,166.699681 L796.870188,166.753036 L797.347687,168.444954 C797.100876,168.639561 796.869063,168.799453 796.652249,168.924631 C796.487996,169.019462 796.236904,169.138375 795.898973,169.281369 L794.672479,168.021884 L794.602253,168.036808 C794.251466,168.126429 793.874173,168.179243 793.471358,168.194682 L793.405158,168.193819 L792.535851,169.737922 C791.98179,169.658296 791.439747,169.515279 790.908739,169.309438 L790.956741,167.549052 L790.89897,167.517269 C790.569244,167.325493 790.264183,167.092987 789.984164,166.820403 L789.946103,166.77724 L788.233939,167.271143 C788.024333,166.983961 787.86876,166.752434 787.76722,166.576561 C787.639355,166.355092 787.516633,166.104598 787.398866,165.824754 L788.682681,164.588928 L788.658689,164.524614 C788.570156,164.158846 788.523398,163.781985 788.518418,163.394033 L788.51959,163.327784 L786.965598,162.479717 C787.04889,161.91009 787.197934,161.372416 787.413717,160.866125 L789.185415,160.885009 L789.217767,160.827247 C789.407404,160.518438 789.63958,160.215032 789.914297,159.917029 L789.967975,159.873445 L789.484835,158.171756 C789.761875,157.968816 789.992095,157.813751 790.176059,157.70754 C790.399443,157.578569 790.652128,157.454828 790.933549,157.335341 L792.165684,158.604597 L792.230268,158.579902 C792.608804,158.492065 792.98765,158.442697 793.366805,158.431799 L793.433005,158.432662 L794.3025,156.888884 C794.883793,156.970158 795.424472,157.110054 795.923971,157.307598 L795.881422,159.077428 L795.939381,159.109538 C796.28696,159.317061 796.59014,159.54631 796.848358,159.796307 L796.901915,159.843551 L798.604224,159.355337 C798.814018,159.642845 798.969591,159.874373 799.071131,160.050245 C799.198808,160.271389 799.321718,160.522208 799.439297,160.801727 L798.165337,162.031863 L798.173832,162.092096 Z M799.513818,171.13943 C798.862784,171.31115 798.370197,171.686385 798.03549,172.266113 C797.700784,172.845842 797.621927,173.460378 797.79873,174.110049 C797.975721,174.759395 798.356259,175.252678 798.941329,175.590468 C799.519501,175.924276 800.134009,176.005483 800.784855,175.834089 C801.435888,175.66237 801.928663,175.286809 802.26337,174.707081 C802.598076,174.127352 802.676745,173.513141 802.499942,172.86347 C802.322951,172.214125 801.945369,171.722549 801.367198,171.388741 C801.367198,171.388741 800.164663,170.968037 799.513818,171.13943 Z M795.769688,163.93653 C795.946491,163.286859 795.867821,162.672648 795.533115,162.092919 C795.198409,161.513191 794.705633,161.13763 794.0546,160.965911 C793.403755,160.794517 792.78629,160.877431 792.20122,161.215222 C791.623048,161.549029 791.245467,162.040605 791.068475,162.689951 C790.891672,163.339622 790.97053,163.954158 791.305236,164.533887 C791.639942,165.113615 792.13253,165.48885 792.783563,165.66057 C793.434408,165.831963 794.048917,165.750756 794.627088,165.416949 C794.627088,165.416949 795.592696,164.585875 795.769688,163.93653 Z" id="API-icon"></path>
        </g>
    </g>
</svg>