<?xml version="1.0" encoding="UTF-8"?>
<svg width="56px" height="56px" viewBox="0 0 56 56" version="1.1" xmlns="http://www.w3.org/2000/svg" xmlns:xlink="http://www.w3.org/1999/xlink">
    <!-- Generator: Sketch 39.1 (31720) - http://www.bohemiancoding.com/sketch -->
    <title>CallburnV1</title>
    <desc>Created with Sketch.</desc>
    <defs>
        <linearGradient x1="4.24998921%" y1="50.0619108%" x2="103.198466%" y2="49.5635078%" id="linearGradient-1">
            <stop stop-color="#F0BAA2" offset="0%"></stop>
            <stop stop-color="#F5CFAC" offset="39.85%"></stop>
            <stop stop-color="#F8DDB2" offset="75.52%"></stop>
            <stop stop-color="#F9E2B5" offset="100%"></stop>
        </linearGradient>
        <linearGradient x1="65.6957268%" y1="104.494064%" x2="36.002619%" y2="-4.66733375%" id="linearGradient-2">
            <stop stop-color="#F0BAA2" offset="0%"></stop>
            <stop stop-color="#F5CFAC" offset="39.85%"></stop>
            <stop stop-color="#F8DDB2" offset="75.52%"></stop>
            <stop stop-color="#F9E2B5" offset="100%"></stop>
        </linearGradient>
        <linearGradient x1="49.999845%" y1="100.000325%" x2="49.999845%" y2="0.00113782286%" id="linearGradient-3">
            <stop stop-color="#F0BAA2" offset="0%"></stop>
            <stop stop-color="#F1C0A4" offset="8.45%"></stop>
            <stop stop-color="#F6D6AB" offset="46.27%"></stop>
            <stop stop-color="#F9E3AE" offset="78.14%"></stop>
            <stop stop-color="#FAE7AF" offset="100%"></stop>
        </linearGradient>
        <linearGradient x1="5.53421183%" y1="92.6961048%" x2="99.9681373%" y2="0.043853771%" id="linearGradient-4">
            <stop stop-color="#F0BAA2" offset="0%"></stop>
            <stop stop-color="#F5CFAC" offset="39.85%"></stop>
            <stop stop-color="#F8DDB2" offset="75.52%"></stop>
            <stop stop-color="#F9E2B5" offset="100%"></stop>
        </linearGradient>
        <linearGradient x1="50.0032353%" y1="99.9993339%" x2="50.0032353%" y2="-0.00049960864%" id="linearGradient-5">
            <stop stop-color="#EC9500" offset="0%"></stop>
            <stop stop-color="#E8810B" offset="6.37%"></stop>
            <stop stop-color="#E26614" offset="16.27%"></stop>
            <stop stop-color="#DE4F18" offset="27.14%"></stop>
            <stop stop-color="#DC3A1A" offset="39.14%"></stop>
            <stop stop-color="#DA281B" offset="52.88%"></stop>
            <stop stop-color="#D9191B" offset="69.89%"></stop>
            <stop stop-color="#D9121B" offset="100%"></stop>
        </linearGradient>
        <linearGradient x1="50.0002741%" y1="100.000359%" x2="50.0002741%" y2="0.000449155587%" id="linearGradient-6">
            <stop stop-color="#E42E18" offset="0%"></stop>
            <stop stop-color="#FDD403" offset="100%"></stop>
        </linearGradient>
        <linearGradient x1="-0.000954889317%" y1="49.999905%" x2="99.9994483%" y2="49.999905%" id="linearGradient-7">
            <stop stop-color="#E42E18" offset="0%"></stop>
            <stop stop-color="#FDD403" offset="100%"></stop>
        </linearGradient>
        <linearGradient x1="100.000657%" y1="49.9998465%" x2="-0.00347230841%" y2="49.9998465%" id="linearGradient-8">
            <stop stop-color="#CB2F21" offset="0%"></stop>
            <stop stop-color="#CC3721" offset="9.55%"></stop>
            <stop stop-color="#CF4C21" offset="23.88%"></stop>
            <stop stop-color="#D56920" offset="41.2%"></stop>
            <stop stop-color="#DE8F1C" offset="60.85%"></stop>
            <stop stop-color="#EABA0F" offset="82.18%"></stop>
            <stop stop-color="#F5DE00" offset="100%"></stop>
        </linearGradient>
        <linearGradient x1="-14.0292303%" y1="40.4436359%" x2="128.839768%" y2="57.5183851%" id="linearGradient-9">
            <stop stop-color="#EEAB0C" offset="0%"></stop>
            <stop stop-color="#EA8912" offset="21.99%"></stop>
            <stop stop-color="#E66415" offset="46.63%"></stop>
            <stop stop-color="#E54517" offset="68.74%"></stop>
            <stop stop-color="#E42D18" offset="87.28%"></stop>
            <stop stop-color="#E32119" offset="100%"></stop>
        </linearGradient>
    </defs>
    <g id="Page-1" stroke="none" stroke-width="1" fill="none" fill-rule="evenodd">
        <g id="Account---Settings" transform="translate(-68.000000, -361.000000)">
            <g id="CallburnV1" transform="translate(96.000000, 389.000000) scale(-1, 1) translate(-96.000000, -389.000000) translate(68.000000, 361.000000)">
                <ellipse id="Oval-35" fill="#FFFFFF" cx="27.8092949" cy="27.9661721" rx="27.8092949" ry="27.9661721"></ellipse>
                <g id="Call_Burn-LOGO-Watch" transform="translate(27.772727, 28.123853) scale(-1, 1) translate(-27.772727, -28.123853) translate(12.272727, 4.623853)">
                    <path d="M5.95710567,17.5891009 C5.90699162,15.6810332 5.6034783,13.7064371 4.83358099,12.1243195 C4.83358099,12.1243195 5.15689745,14.7838832 5.00493872,17.949693 L5.95710567,17.5891009 L5.95710567,17.5891009 Z" id="Shape" fill="url(#linearGradient-1)"></path>
                    <path d="M10.3715877,17.9827604 C10.2269036,15.109046 8.77319199,12.1310117 5.61156121,10.7161994 C4.7422441,10.3260828 5.15285599,10.6457343 5.15285599,10.6457343 C6.51927216,13.8202047 6.73589418,15.658201 6.51886801,17.3564482 L10.3715877,17.9827604 L10.3715877,17.9827604 Z" id="Shape" fill="url(#linearGradient-2)"></path>
                    <path d="M3.83372486,7.21420433 C3.83372486,7.21420433 10.0357427,11.1956767 9.56774218,18.1791965 C9.56774218,18.1791965 8.86048744,23.4936 6.61707539,26.0575045 C4.40154938,28.5899162 1.10574227,31.4325315 1.10574227,31.4325315 C1.10574227,31.4325315 -0.859213478,28.2840427 2.82174436,21.2166734 C6.50270219,14.1493041 3.83372486,7.21420433 3.83372486,7.21420433 L3.83372486,7.21420433 Z" id="Shape" fill="url(#linearGradient-3)" opacity="0.6"></path>
                    <path d="M3.79977663,6.95202709 C3.79977663,6.95202709 10.0017945,10.9334995 9.53379395,17.9170193 C9.53379395,17.9170193 9.02861199,23.4939937 6.58312716,25.7953272 C4.1267304,28.1072896 1.07179405,31.1699606 1.07179405,31.1699606 C1.07179405,31.1699606 -0.893161706,28.0214718 2.78779613,20.9541025 C6.46875396,13.8867332 3.79977663,6.95202709 3.79977663,6.95202709 L3.79977663,6.95202709 Z" id="Shape"></path>
                    <path d="M9.30060196,3.04259442 C11.07763,5.77695343 14.4845772,8.23929371 10.0870692,18.6582802 L8.00248639,18.1658121 C12.0192892,7.39410673 9.30060196,3.04259442 9.30060196,3.04259442 L9.30060196,3.04259442 L9.30060196,3.04259442 Z" id="Shape" fill="#FDF3DA"></path>
                    <path d="M9.32606313,4.00666658 C10.9038474,6.85439953 13.7518612,8.43612347 8.85078794,18.1252652 L6.80621551,17.4938353 C11.5795788,7.01894921 9.32606313,4.00666658 9.32606313,4.00666658 L9.32606313,4.00666658 L9.32606313,4.00666658 Z" id="Shape" fill="#FACCB0"></path>
                    <path d="M26.5398353,29.8291563 C26.2621873,27.5317594 24.9022375,26.8113625 21.7313113,24.4958572 C20.8910927,23.8813547 20.1175581,23.0629365 19.4931532,22.1150044 L23.2181629,20.6521656 C23.9613866,21.4438149 24.4576773,22.0614667 25.4159065,23.2353594 C28.365765,26.8530904 26.5398353,29.8291563 26.5398353,29.8291563 L26.5398353,29.8291563 L26.5398353,29.8291563 Z" id="Shape" fill="#FEF5DD"></path>
                    <path d="M18.4573281,20.2313436 C17.4198864,17.9843351 17.2655028,15.2972152 18.8400539,12.8439291 C19.3476608,12.0534608 19.1835777,12.540024 19.1835777,12.540024 C19.7598893,15.5527002 20.5730301,17.693027 21.53328,18.9362038 L18.4573281,20.2313436 L18.4573281,20.2313436 Z" id="Shape" fill="#FDF3DA"></path>
                    <path d="M24.4875841,21.8536145 C22.3658199,19.2948276 21.727674,18.4764095 20.7488335,14.7350694 C19.7691846,10.994123 21.6266376,5.56201533 26.6792655,4.24364961 C27.6035464,4.001549 27.1432246,4.2495545 27.1432246,4.2495545 C23.5091477,9.82219864 24.892538,11.2409475 24.8606105,16.0046214 C24.8298954,20.6246095 24.5211282,22.2146003 24.5211282,22.2146003 L24.4875841,21.8536145 L24.4875841,21.8536145 Z" id="Shape" fill="url(#linearGradient-4)"></path>
                    <path d="M8.74449766,21.457593 C5.64550944,26.8338011 6.14907482,34.4420586 16.4822687,37.2858549 C17.8697004,37.6677047 22.2041617,37.3480531 24.0159462,34.3448247 C26.788789,29.7492434 23.5802773,25.9358637 21.444368,23.1050581 L23.9710861,22.0681589 C24.6419677,22.614952 25.3269945,23.1274967 26.0035341,23.7557773 C29.584668,27.0857431 31.6490436,32.8249053 28.3431328,39.1734523 C25.0372221,45.5227867 18.2980947,46.0180104 16.0086101,46.0180104 C13.7203379,46.0180104 6.53503384,44.7516077 3.92910321,39.2057324 C0.495482467,31.8982308 2.98825233,25.0021033 4.89622356,23.144424 C5.08091808,22.964128 5.27571625,22.7487962 5.47657659,22.5078766 L6.90442289,21.8839263 L7.28957361,22.0520189 C6.67850551,23.1463923 6.23111637,23.7022396 6.23111637,23.7022396 C6.63202877,23.1526909 7.78950168,21.7276434 8.14474563,21.1993524 L8.74449766,21.457593 L8.74449766,21.457593 Z" id="Shape" fill="#FCE1D2"></path>
                    <path d="M8.01824807,22.2201115 C4.91925986,27.5963195 7.8198126,34.5215778 16.2797918,36.5819917 C17.6785396,36.9225072 22.0016847,36.6441899 23.8134693,33.6409614 C26.5863121,29.0453802 23.3778004,25.2320005 21.2418911,22.4011949 L22.9522351,21.7036302 C23.6231167,22.2504233 24.3081435,22.762968 24.9846832,23.3912486 C28.565817,26.7212144 31.4461625,32.121042 28.1406559,38.4695891 C24.8347452,44.8189235 18.0956178,45.3141471 15.8061332,45.3141471 C13.517861,45.3141471 6.33255691,44.0477445 3.72662628,38.5018692 C0.293005537,31.1943675 2.7857754,24.2982401 4.69374663,22.4405608 C4.87844115,22.2602648 5.07323932,22.044933 5.27409966,21.8040134 L6.70194596,21.1800631 L7.08709668,21.3481557 C6.47602858,22.4425291 6.02863944,22.9983764 6.02863944,22.9983764 C6.42955184,22.4488277 6.80621551,21.9091205 7.16145947,21.3808294 L8.01824807,22.2201115 L8.01824807,22.2201115 Z" id="Shape" fill="#FACCB0"></path>
                    <path d="M4.04913445,27.0247259 C5.10759169,26.2641757 6.18989352,25.4713455 7.05193602,24.4946762 C7.46093133,24.0321263 7.7470664,23.1597768 8.0752326,22.4850444 C8.19162652,22.2453057 8.05502532,21.9784046 8.12130519,21.7662221 C8.08574038,21.5623064 8.05260044,21.3548479 8.02269367,21.1434527 L6.24728219,20.3683371 L3.62114429,21.515461 C3.3418797,23.1113566 3.27600398,25.1461827 3.68742416,27.2758807 C3.80826369,27.1920312 3.9299115,27.1105437 4.04913445,27.0247259 L4.04913445,27.0247259 L4.04913445,27.0247259 Z M7.90751219,18.7606317 C7.97217548,17.8579704 8.19000994,16.9671189 8.66771,16.1616915 C13.1226066,8.64279472 9.89833325,5.22858572 7.25885855,3.63780761 C7.25885855,3.63780761 10.2374114,10.7012403 6.24404903,18.0008688 L6.26304387,17.9701633 L6.27920969,18.0492889 L7.90751219,18.7606317 L7.90751219,18.7606317 Z M6.19433912,18.0587367 C6.87411197,16.2900245 8.15646586,10.0776837 6.48411149,6.08833811 C6.48411149,6.08833811 7.00586342,14.1638695 4.50218163,18.798423 L6.19433912,18.0587367 L6.19433912,18.0587367 Z" id="Shape" fill="url(#linearGradient-5)"></path>
                    <path d="M11.7642733,0.0236195711 C13.0066168,3.05086127 17.2461038,9.3450833 9.08842554,19.2771129 L7.04304482,18.3831122 C13.2749695,7.97869111 11.7642733,0.0236195711 11.7642733,0.0236195711 L11.7642733,0.0236195711 L11.7642733,0.0236195711 Z M7.72039279,21.0115768 C4.41690691,26.0665587 6.69103403,33.0823586 15.0330027,35.1136417 C16.4317505,35.4541572 20.7548957,35.1758399 22.5674885,32.1718241 C25.1018854,27.9699024 22.6361933,24.4214555 20.5625224,21.6815853 L22.4070427,20.9293019 C22.7986598,21.2434422 23.2383702,21.5627001 23.7378941,21.9228986 C27.3198363,25.2516834 30.2001817,30.6522984 26.8938668,37.0012391 C23.5871478,43.3497861 16.8488287,43.8457971 14.5593441,43.8457971 C12.2710719,43.8457971 5.08495954,42.5793945 2.47983721,37.0335192 C-0.596114713,30.4857804 1.17121386,24.3529588 2.94298803,21.8118866 L5.53921916,20.6777535 C5.14679381,21.311939 4.88894894,21.6331652 4.88894894,21.6331652 C5.12658653,21.3076087 5.35452463,20.9840206 5.57640055,20.6616135 L6.24728219,20.3679435 L7.72039279,21.0115768 L7.72039279,21.0115768 Z M19.2429871,19.8876789 C17.4457517,17.0407332 19.0890076,13.7485587 19.0890076,13.7485587 C19.5751947,16.5632242 20.0638067,18.1213286 20.8098594,19.2483758 L19.2429871,19.8876789 L19.2429871,19.8876789 Z M5.67986181,18.28391 C7.10164592,16.0920138 8.38561639,13.6450262 8.38561639,13.6450262 C7.92286972,15.511366 7.34938716,17.0584479 6.80055747,18.2780051 L6.27880555,18.0500762 L6.24364488,18.0256693 L6.21575884,18.0500762 L5.67986181,18.28391 L5.67986181,18.28391 Z" id="Shape" fill="url(#linearGradient-6)"></path>
                    <path d="M11.9534135,3.05046761 C13.1872699,6.05527071 16.3751701,9.81747472 9.82679949,19.5995201 L7.86911836,18.7444916 C13.839965,8.86914894 11.9534135,3.05046761 11.9534135,3.05046761 L11.9534135,3.05046761 L11.9534135,3.05046761 Z M6.7067957,20.5687098 L8.62810373,21.4079919 C5.52911552,26.7842 7.36514883,33.7094582 15.8255322,35.7698721 C17.22428,36.1103876 21.5474251,35.8320703 23.3592097,32.8288419 C26.1320524,28.2332606 22.9235408,24.4198809 20.7876314,21.5890753 L22.4979755,20.8915106 C23.1688571,21.4383037 23.8538839,21.9508484 24.5304235,22.579129 C28.1115574,25.9090948 30.9919029,31.3089225 27.6863963,37.6574695 C24.3804855,44.0068039 17.6413582,44.5020275 15.3518736,44.5020275 C13.0636013,44.5020275 5.87829729,43.2356249 3.27236667,37.6897496 C-0.161254082,30.3822479 2.33151578,23.4861205 4.23948701,21.6284412 C4.42418153,21.4481452 4.6189797,21.2328134 4.81984005,20.9918938 L6.24768634,20.3679435 L6.63283706,20.5360361 L6.7067957,20.5687098 L6.7067957,20.5687098 Z M19.5658994,19.7554093 C18.1772552,17.1226144 18.2762709,14.4047891 18.2762709,14.4047891 C18.9726137,16.7297422 19.831423,18.1823458 20.7706573,19.2641222 L19.5658994,19.7554093 L19.5658994,19.7554093 Z M6.73912735,18.2500553 C8.00450712,16.2305819 9.07145142,14.1973305 9.07145142,14.1973305 C8.6357825,15.9573822 8.10069377,17.4328181 7.58055842,18.6177333 L6.73912735,18.2500553 L6.73912735,18.2500553 Z" id="Shape" fill="url(#linearGradient-7)"></path>
                    <path d="M26.1017415,30.271236 C26.0172751,27.9592736 24.7219885,27.1333759 21.7547518,24.5738018 C20.9686887,23.8947391 20.2658795,23.0176657 19.723112,22.0232817 L23.410132,20.5195024 C24.0850551,21.367445 24.8666727,22.2626267 25.7230571,23.5089528 C28.3609152,27.3487077 26.1017415,30.271236 26.1017415,30.271236 L26.1017415,30.271236 L26.1017415,30.271236 Z M18.9047172,20.0254597 C18.2330273,17.6501182 18.5038048,14.9716588 20.4461284,12.7829119 C21.0721499,12.077474 20.8328957,12.5337254 20.8328957,12.5337254 C20.9282741,15.5967901 21.402741,17.327711 22.1556642,18.6992208 L18.9047172,20.0254597 L18.9047172,20.0254597 Z" id="Shape" fill="url(#linearGradient-8)"></path>
                    <path d="M24.3113767,22.3925344 C24.7943306,20.1274175 23.7391065,19.0247772 21.4847825,15.8495195 C19.2296503,12.6746555 18.8339918,7.04453708 23.0997482,4.09523997 C23.8805575,3.55513911 23.5370337,3.94328739 23.5370337,3.94328739 C22.121716,10.3993035 23.9254176,11.2606305 25.5981761,15.7373266 C27.2204164,20.0789974 24.3113767,22.3925344 24.3113767,22.3925344 L24.3113767,22.3925344 L24.3113767,22.3925344 Z" id="Shape" fill="url(#linearGradient-9)"></path>
                    <polygon id="Shape" fill="#FFFFFF" points="9.43275756 19.4259162 6.24364488 18.0256693 6.24728219 20.3683371 8.91060149 21.5335693"></polygon>
                </g>
            </g>
        </g>
    </g>
</svg>