<?xml version="1.0" encoding="UTF-8"?>
<svg width="50px" height="50px" viewBox="0 0 50 50" version="1.1" xmlns="http://www.w3.org/2000/svg" xmlns:xlink="http://www.w3.org/1999/xlink">
    <!-- Generator: Sketch 39.1 (31720) - http://www.bohemiancoding.com/sketch -->
    <title>Group 6</title>
    <desc>Created with Sketch.</desc>
    <defs></defs>
    <g id="Page-1" stroke="none" stroke-width="1" fill="none" fill-rule="evenodd">
        <g id="ClickToCall---Modals" transform="translate(-658.000000, -1104.000000)">
            <g id="Group-10" transform="translate(350.000000, 14.000000)">
                <g id="Group-9" transform="translate(175.000000, 1066.000000)">
                    <g id="Group-8" transform="translate(46.000000, 24.000000)">
                        <g id="Group-6" transform="translate(86.666667, 0.000000)">
                            <path d="M9.29989998,25.1208865 L8.35082383,24.173433 C5.40800893,21.2297621 4.49690089,17.0253729 5.61162696,13.2976878 C2.66966059,12.6328477 0.472497346,10.0024416 0.472497346,6.85872546 C0.473308662,3.21361595 3.4277946,0.2580284 7.0723161,0.2580284 C10.3537625,0.259732908 13.0744033,2.65348774 13.5860088,5.7895373 C17.1468457,4.95444735 21.0439321,5.92574165 23.8207547,8.70256424 L24.1995724,9.08137446 L19.3286386,13.9497552 L18.9506769,13.570089 C17.3707317,11.9909924 14.8084241,11.9909924 13.2267818,13.5717935 C11.6400261,15.1585493 11.6434276,17.728516 13.2182667,19.3033477 L14.1708338,20.2542102 L19.0426161,25.1208865 L24.1944588,30.2701836 L19.3286386,35.1402614 L14.1708338,29.9892672 L9.29989998,25.1208865" id="path174" fill="#86BE3C"></path>
                            <path d="M14.7479847,19.6770593 L19.9040924,14.5243531 L24.7758748,9.65853286 L25.7258813,8.71022337 C28.6576355,5.77932514 32.8356384,4.85655349 36.5488538,5.94702196 C36.9932094,2.73350286 39.7513047,0.2580284 43.087407,0.2580284 C46.7325165,0.2580284 49.68896,3.21191144 49.6881041,6.85872546 C49.6881041,10.2084489 47.1913493,12.9767564 43.9565499,13.4023922 C45.019776,17.1019864 44.0936028,21.2501939 41.1814318,24.1649179 L40.8017656,24.5454326 L35.9342408,19.6736503 L36.310498,19.2965445 C37.8921477,17.7157434 37.8921477,15.1517387 36.3122025,13.5717935 C34.7365075,11.997803 32.1801693,11.9944014 30.5934136,13.5803086 L29.6433996,14.5294667 L24.7716172,19.39784 L19.6189185,24.5454326 L14.7479847,19.6770593" id="path176" fill="#E4B645"></path>
                            <path d="M36.6799446,44.2512525 C32.9343882,45.4034406 28.6908325,44.4973493 25.7258813,41.5329117 L25.3530332,41.1604804 L30.2197094,36.2886162 L30.5934136,36.6631763 C32.1750558,38.24397 34.7390679,38.24397 36.3190131,36.6648733 C37.8938448,35.0883372 37.8972538,32.5328402 36.310498,30.9452359 L35.3587869,29.9926688 L30.4912622,25.1208865 L25.3479271,19.9732939 L30.2197094,15.1066176 L35.3587869,20.2508087 L40.2246072,25.1208865 L41.1814318,26.0785596 C43.9812318,28.878367 44.9482685,32.8171655 44.0774286,36.4001312 C47.2832885,36.8513049 49.7493994,39.6059912 49.7493994,42.9361314 C49.7493994,46.5822681 46.7929558,49.5351314 43.1495508,49.5351314 C39.953903,49.5351314 37.2894514,47.2672794 36.6799446,44.2512525" id="path184" fill="#C33734"></path>
                            <path d="M34.7816285,30.5698272 L29.6433996,35.7140108 L24.7758748,40.5849446 L23.8207547,41.5395511 C21.0090306,44.3527266 17.0438457,45.3086952 13.4447058,44.4158902 C12.7722066,47.348746 10.1469066,49.5334194 7.01076772,49.5351314 C3.36463104,49.5351314 0.409318892,46.5806529 0.410152538,42.9361314 C0.410152538,39.8154001 2.57653043,37.1986152 5.48700433,36.5116462 C4.56585532,32.8954761 5.5202013,28.9004958 8.35082383,26.0700445 L8.72325516,25.6988934 L13.5945239,30.5664182 L13.2182667,30.9401298 C11.6383216,32.521772 11.6383216,35.0815266 13.2199712,36.6648733 C14.805871,38.2507806 17.3758378,38.2473716 18.9506769,36.6716839 L19.9040924,35.7165638 L24.7716172,30.847342 L29.9149523,25.6988934 L34.7816285,30.5698272" id="path186" fill="#748EC4"></path>
                        </g>
                    </g>
                </g>
            </g>
        </g>
    </g>
</svg>