<?xml version="1.0" encoding="UTF-8"?>
<svg width="49px" height="49px" viewBox="0 0 49 49" version="1.1" xmlns="http://www.w3.org/2000/svg" xmlns:xlink="http://www.w3.org/1999/xlink">
    <!-- Generator: Sketch 39.1 (31720) - http://www.bohemiancoding.com/sketch -->
    <title>Wordpress-Logo</title>
    <desc>Created with Sketch.</desc>
    <defs></defs>
    <g id="Page-1" stroke="none" stroke-width="1" fill="none" fill-rule="evenodd">
        <g id="ClickToCall---Modals" transform="translate(-572.000000, -1106.000000)" fill="#464342">
            <g id="Group-10" transform="translate(350.000000, 14.000000)">
                <g id="Group-9" transform="translate(175.000000, 1066.000000)">
                    <g id="Group-8" transform="translate(46.000000, 24.000000)">
                        <g id="Wordpress-Logo" transform="translate(0.000000, 2.000000)">
                            <g id="Group" transform="translate(0.536551, 0.369042)">
                                <path d="M24.7432898,3.46073678 C30.1654775,3.46073678 35.1024649,5.53316499 38.80324,8.92625275 C36.9893548,8.87770938 35.1792134,9.95313159 35.1043368,12.4157738 C34.9517758,17.3942691 41.0729364,18.4547549 37.7746229,28.4686906 L35.0463075,36.7518688 L27.6157426,14.9204246 C27.5006199,14.5824881 27.6344618,14.3901817 28.0509628,14.3901817 L30.1517189,14.3901817 C30.2608983,14.3901817 30.3501512,14.2972025 30.3501512,14.183331 L30.3501512,12.9423012 C30.3501512,12.8284764 30.2606737,12.7307922 30.1517189,12.7354972 C26.1734325,12.9090117 22.218545,12.9101879 18.2875244,12.7354972 C18.1780174,12.7308295 18.0891015,12.8288498 18.0891015,12.94274 L18.0891015,14.1837697 C18.0891015,14.2975199 18.1783918,14.3906205 18.2875338,14.3906205 L20.3998022,14.3906205 C20.8696621,14.3906205 21.0012109,14.5467807 21.1119814,14.8488605 L24.1650741,23.1768479 L19.5723317,37.0089059 L12.0229003,14.83019 C11.9293046,14.5519991 12.0425554,14.3904991 12.3111751,14.3904991 L14.7179893,14.3904991 C14.8271313,14.3904991 14.9163841,14.2975199 14.9163841,14.1836484 L14.9163841,12.9426186 C14.9163841,12.8287938 14.826813,12.7301107 14.7179893,12.7358146 C12.1927765,12.8695982 9.65792344,12.8965024 7.29669042,12.9206807 C11.0020517,7.22766445 17.4312358,3.46032603 24.7419981,3.46032603 L24.741971,3.46026815 L24.7432898,3.46073678 Z M43.0244073,14.3204473 C44.6216184,17.2555471 45.528561,20.6183886 45.528561,24.1915536 C45.528561,32.0336406 41.1599804,38.8591175 34.7191904,42.3822455 L41.2016305,24.0692616 C42.2059127,21.235076 43.1381261,17.4048179 43.0239393,14.3204473 L43.0239019,14.3204473 L43.0244073,14.3204473 Z M31.7021321,43.7302574 C29.5260314,44.5022835 27.1842663,44.9233039 24.7432898,44.9233039 C22.6401937,44.9233039 20.6110384,44.6105726 18.6979417,44.0317863 L25.1012934,25.7290712 L31.7020385,43.7311909 L31.7020385,43.73119 L31.7021321,43.7302574 Z M15.8488877,42.933026 C8.81975498,39.6080856 3.95755051,32.4653965 3.95755051,24.1924871 C3.95755051,21.1256667 4.62643238,18.2143719 5.82525326,15.595084 L15.8493557,42.9333994 L15.8493838,42.9333714 L15.8488877,42.933026 Z M24.7426346,1.51526814 C37.2966296,1.51526814 47.4779728,11.6701664 47.4779728,24.1915536 C47.4779728,36.7129408 37.2966296,46.867839 24.7426346,46.867839 C12.1886396,46.867839 2.00729633,36.7129408 2.00729633,24.1915536 C2.00729633,11.6701664 12.1886396,1.51526814 24.7426346,1.51526814 L24.7426346,1.51526814 Z M24.7426346,0.0819319783 C38.0903213,0.0819319783 48.9156032,10.8790962 48.9156032,24.1921137 C48.9156032,37.5051311 38.0903213,48.3022954 24.7426346,48.3022954 C11.3949478,48.3022954 0.569665953,37.5051311 0.569665953,24.1921137 C0.569665953,10.8790962 11.3949478,0.0819319783 24.7426346,0.0819319783 L24.7426346,0.0819319783 Z" id="Shape"></path>
                            </g>
                        </g>
                    </g>
                </g>
            </g>
        </g>
    </g>
</svg>