<?xml version="1.0" encoding="UTF-8"?>
<svg width="23px" height="16px" viewBox="0 0 23 16" version="1.1" xmlns="http://www.w3.org/2000/svg" xmlns:xlink="http://www.w3.org/1999/xlink">
    <!-- Generator: Sketch 39.1 (31720) - http://www.bohemiancoding.com/sketch -->
    <title>AL</title>
    <desc>Created with Sketch.</desc>
    <defs>
        <rect id="path-1" x="0" y="0" width="23" height="16" rx="1.62"></rect>
    </defs>
    <g id="Page-1" stroke="none" stroke-width="1" fill="none" fill-rule="evenodd">
        <g id="Flags" transform="translate(-152.000000, -140.000000)">
            <g id="AL" transform="translate(152.000000, 140.000000)">
                <mask id="mask-2" fill="white">
                    <use xlink:href="#path-1"></use>
                </mask>
                <g id="Mask"></g>
                <rect id="Mask" fill="#EE343C" mask="url(#mask-2)" x="0" y="0" width="23" height="16"></rect>
                <path d="M10.2381766,3.57109375 C10.0277375,3.36614433 9.65569632,3.33079427 9.40822492,3.49147135 L8.66320365,3.97519531 C8.41527312,4.1361705 8.43232518,4.37284241 8.70042338,4.50339457 L9.91862424,5.09660543 C10.1871107,5.22734664 10.4047619,5.58072917 10.4047619,5.86666667 L10.4047619,5.86666667 C10.4047619,6.16121853 10.1724901,6.4 9.85714286,6.4 L9.85714286,6.4 C9.55470121,6.4 9.09148434,6.29382426 8.82338615,6.16327209 L7.60518528,5.57006124 C7.33669886,5.43932003 6.94791667,5.5 6.73598648,5.70640157 L6.40687066,6.02693176 C6.19531184,6.23297166 6.24184899,6.50617574 6.50994719,6.63672791 L7.72814805,7.22993876 C7.99663447,7.36067997 8.01283918,7.59746094 7.76536778,7.75813802 L7.02034651,8.24186198 C6.77241598,8.40283716 6.80487703,8.57880503 7.09936087,8.63616536 L8.78159151,8.96383464 C9.07316047,9.0206272 9.10737537,9.21432292 8.86624827,9.39045054 L7.56232316,10.3428828 C7.31750884,10.5217037 7.35131945,10.6666667 7.66666667,10.6666667 L7.66666667,10.6666667 C7.96910832,10.6666667 8.44870504,10.6095907 8.7445389,10.5375615 L9.87450872,10.2624385 C10.1673595,10.1911357 10.2704642,10.3295247 10.099677,10.5790225 L9.61460868,11.2876441 C9.44611496,11.5337915 9.55193304,11.7333333 9.84745668,11.7333333 L10.4144481,11.7333333 C10.7115402,11.7333333 11.028525,11.9558065 11.125651,12.2395833 L11.3267299,12.8270833 C11.4224243,13.1066775 11.5761441,13.1108602 11.6732701,12.8270833 L11.874349,12.2395833 C11.9700434,11.9599892 12.2900283,11.7333333 12.5855519,11.7333333 L13.1525433,11.7333333 C13.4496354,11.7333333 13.5561785,11.5371419 13.3853913,11.2876441 L12.900323,10.5790225 C12.7318292,10.3328752 12.8296574,10.1904093 13.1254913,10.2624385 L14.2554611,10.5375615 C14.5483118,10.6088643 15.0179861,10.6666667 15.3333333,10.6666667 L15.3333333,10.6666667 C15.635775,10.6666667 15.6788039,10.5190104 15.4376768,10.3428828 L14.1337517,9.39045054 C13.8889374,9.21162965 13.9239247,9.02119497 14.2184085,8.96383464 L15.9006391,8.63616536 C16.1922081,8.5793728 16.2271249,8.40253906 15.9796535,8.24186198 L15.2346322,7.75813802 C14.9867017,7.59716284 15.0037538,7.36049093 15.2718519,7.22993876 L16.4900528,6.63672791 C16.7585392,6.50598669 16.8050595,6.23333333 16.5931293,6.02693176 L16.2640135,5.70640157 C16.0524547,5.50036167 15.6629129,5.43950907 15.3948147,5.57006124 L14.1766139,6.16327209 C13.9081274,6.29401331 13.4582044,6.4 13.1428571,6.4 L13.1428571,6.4 C12.8404155,6.4 12.5952381,6.15260417 12.5952381,5.86666667 L12.5952381,5.86666667 C12.5952381,5.5721148 12.8180426,5.22483724 13.0793994,5.09756781 L14.7857143,4.26666667 L13.5917751,3.49147135 C13.3438445,3.33049617 12.9670427,3.37122803 12.7618234,3.57109375 L11.8810338,4.42890625 C11.6705946,4.63385567 11.3241855,4.62877197 11.1189662,4.42890625 L10.2381766,3.57109375 Z" id="Line" fill="#262626" mask="url(#mask-2)"></path>
            </g>
        </g>
    </g>
</svg>