<?xml version="1.0" encoding="UTF-8"?>
<svg width="23px" height="16px" viewBox="0 0 23 16" version="1.1" xmlns="http://www.w3.org/2000/svg" xmlns:xlink="http://www.w3.org/1999/xlink">
    <!-- Generator: Sketch 39.1 (31720) - http://www.bohemiancoding.com/sketch -->
    <title>AN</title>
    <desc>Created with Sketch.</desc>
    <defs>
        <rect id="path-1" x="0" y="0" width="23" height="16" rx="1.62"></rect>
        <mask id="mask-2" maskContentUnits="userSpaceOnUse" maskUnits="objectBoundingBox" x="0" y="0" width="23" height="16" fill="white">
            <use xlink:href="#path-1"></use>
        </mask>
        <mask id="mask-4" maskContentUnits="userSpaceOnUse" maskUnits="objectBoundingBox" x="0" y="0" width="23" height="16" fill="white">
            <use xlink:href="#path-1"></use>
        </mask>
    </defs>
    <g id="Page-1" stroke="none" stroke-width="1" fill="none" fill-rule="evenodd">
        <g id="Flags" transform="translate(-618.000000, -140.000000)">
            <g id="AN" transform="translate(618.000000, 140.000000)">
                <mask id="mask-3" fill="white">
                    <use xlink:href="#path-1"></use>
                </mask>
                <g id="Mask" stroke="#F5F5F5" mask="url(#mask-2)" fill="#FFFFFF">
                    <use mask="url(#mask-4)" xlink:href="#path-1"></use>
                </g>
                <rect id="Mask" fill="#D6182D" mask="url(#mask-3)" x="8.76190476" y="0" width="5.47619048" height="16"></rect>
                <rect id="Mask" fill="#1425A2" mask="url(#mask-3)" x="0" y="5.33333333" width="23" height="5.33333333"></rect>
                <polygon id="Star-2" fill="#FFFFFF" mask="url(#mask-3)" points="9.30952381 9.33333333 8.92229867 9.44379028 9.03571429 9.06666667 8.92229867 8.68954305 9.30952381 8.8 9.69674895 8.68954305 9.58333333 9.06666667 9.69674895 9.44379028"></polygon>
                <polygon id="Star-2" fill="#FFFFFF" mask="url(#mask-3)" points="13.6904762 9.33333333 13.303251 9.44379028 13.4166667 9.06666667 13.303251 8.68954305 13.6904762 8.8 14.0777013 8.68954305 13.9642857 9.06666667 14.0777013 9.44379028"></polygon>
                <polygon id="Star-2" fill="#FFFFFF" mask="url(#mask-3)" points="7.11904762 8.26666667 6.73182248 8.37712362 6.8452381 8 6.73182248 7.62287638 7.11904762 7.73333333 7.50627276 7.62287638 7.39285714 8 7.50627276 8.37712362"></polygon>
                <polygon id="Star-2" fill="#FFFFFF" mask="url(#mask-3)" points="15.8809524 8.26666667 15.4937272 8.37712362 15.6071429 8 15.4937272 7.62287638 15.8809524 7.73333333 16.2681775 7.62287638 16.1547619 8 16.2681775 8.37712362"></polygon>
                <polygon id="Star-2" fill="#FFFFFF" mask="url(#mask-3)" points="11.5 7.2 11.1127749 7.31045695 11.2261905 6.93333333 11.1127749 6.55620972 11.5 6.66666667 11.8872251 6.55620972 11.7738095 6.93333333 11.8872251 7.31045695"></polygon>
            </g>
        </g>
    </g>
</svg>