<?xml version="1.0" encoding="UTF-8"?>
<svg width="23px" height="16px" viewBox="0 0 23 16" version="1.1" xmlns="http://www.w3.org/2000/svg" xmlns:xlink="http://www.w3.org/1999/xlink">
    <!-- Generator: Sketch 39.1 (31720) - http://www.bohemiancoding.com/sketch -->
    <title>BB</title>
    <desc>Created with Sketch.</desc>
    <defs>
        <rect id="path-1" x="0" y="0" width="23" height="16" rx="1.62"></rect>
        <linearGradient x1="50%" y1="0%" x2="50%" y2="100%" id="linearGradient-3">
            <stop stop-color="#1031C7" offset="0%"></stop>
            <stop stop-color="#0522A5" offset="100%"></stop>
        </linearGradient>
    </defs>
    <g id="Page-1" stroke="none" stroke-width="1" fill="none" fill-rule="evenodd">
        <g id="Flags" transform="translate(-190.000000, -178.000000)">
            <g id="BB" transform="translate(190.000000, 178.000000)">
                <mask id="mask-2" fill="white">
                    <use xlink:href="#path-1"></use>
                </mask>
                <use id="Mask" fill="#FFFFFF" xlink:href="#path-1"></use>
                <rect id="Mask-Copy" fill="url(#linearGradient-3)" mask="url(#mask-2)" x="0" y="0" width="23" height="16"></rect>
                <rect id="Mask" fill="#08379D" mask="url(#mask-2)" x="10.952381" y="0" width="12.047619" height="16"></rect>
                <rect id="Rectangle-2" fill="#08379D" mask="url(#mask-2)" x="0" y="0" width="7.66666667" height="16"></rect>
                <rect id="Rectangle-2-Copy" fill="#FFCC50" mask="url(#mask-2)" x="7.66666667" y="0" width="7.66666667" height="16"></rect>
                <path d="M11.3666756,5.02247314 C11.4524735,4.89960462 11.5924428,4.90498047 11.6712519,5.02247314 L12.4460126,6.17752686 C12.5284276,6.30039538 12.4668899,6.40000001 12.3171399,6.40000002 L12.0519078,6.40000003 C11.8983183,6.40000004 11.7855748,6.51458338 11.8010645,6.66543939 L12.0203641,8.80122732 C12.0354166,8.94782542 12.1746303,9.06666667 12.3214286,9.06666667 L12.3214286,9.06666667 C12.4726494,9.06666667 12.6808036,8.98422852 12.7929411,8.87618945 L12.9451541,8.72953971 C13.0543425,8.62434205 13.1428571,8.42429736 13.1428571,8.26845175 L13.1428571,7.73727742 C13.1428571,7.58782323 13.0572917,7.38333333 12.9451541,7.27412109 L12.7929411,7.12587891 C12.6837528,7.01953892 12.7030305,6.89833985 12.8519345,6.85000001 L13.9813988,6.48333337 C14.1231683,6.43730965 14.2164576,6.51458338 14.1879704,6.66543939 L13.7846539,8.80122732 C13.7569707,8.94782542 13.6451308,9.15036621 13.5360797,9.25246582 L12.7936874,9.94753418 C12.6840869,10.0501482 12.4682268,10.1333333 12.3214286,10.1333333 L12.3214286,10.1333333 C12.1702077,10.1333333 12.047619,10.2641276 12.047619,10.4024984 L12.047619,10.930835 C12.047619,11.0794907 11.9304094,11.2 11.7712442,11.2 L11.2287558,11.2 C11.0761182,11.2 10.952381,11.0692057 10.952381,10.930835 L10.952381,10.4024984 C10.952381,10.2538426 10.8253697,10.1333333 10.6785714,10.1333333 L10.6785714,10.1333333 C10.5273506,10.1333333 10.3188204,10.0496338 10.213986,9.94753418 L9.50029973,9.25246582 C9.3949371,9.14985178 9.2859933,8.95208334 9.25501394,8.80122732 L8.81641463,6.66543939 C8.78630966,6.51884129 8.86969721,6.43499353 9.01860119,6.48333337 L10.1480655,6.85000001 C10.289835,6.89602373 10.3191964,7.01666667 10.2070589,7.12587891 L10.0548459,7.27412109 C9.94565752,7.38046108 9.85714286,7.58143181 9.85714286,7.73727742 L9.85714286,8.26845175 C9.85714286,8.41790594 9.94270833,8.62150065 10.0548459,8.72953971 L10.2070589,8.87618945 C10.3162472,8.98138711 10.5317732,9.06666667 10.6785714,9.06666667 L10.6785714,9.06666667 C10.8297923,9.06666667 10.9641462,8.95208333 10.9796359,8.80122732 L11.1989355,6.66543935 C11.213988,6.51884125 11.0978423,6.4 10.9480922,6.4 L10.6828601,6.4 C10.5292707,6.4 10.4780688,6.29501953 10.5601127,6.17752686 L11.3666756,5.02247314 Z" id="Line" fill="#262626" mask="url(#mask-2)"></path>
            </g>
        </g>
    </g>
</svg>