<?xml version="1.0" encoding="UTF-8"?>
<svg width="23px" height="16px" viewBox="0 0 23 16" version="1.1" xmlns="http://www.w3.org/2000/svg" xmlns:xlink="http://www.w3.org/1999/xlink">
    <!-- Generator: Sketch 39.1 (31720) - http://www.bohemiancoding.com/sketch -->
    <title>BH</title>
    <desc>Created with Sketch.</desc>
    <defs>
        <rect id="path-1" x="0" y="0" width="23" height="16" rx="1.62"></rect>
        <mask id="mask-2" maskContentUnits="userSpaceOnUse" maskUnits="objectBoundingBox" x="0" y="0" width="23" height="16" fill="white">
            <use xlink:href="#path-1"></use>
        </mask>
        <mask id="mask-4" maskContentUnits="userSpaceOnUse" maskUnits="objectBoundingBox" x="0" y="0" width="23" height="16" fill="white">
            <use xlink:href="#path-1"></use>
        </mask>
    </defs>
    <g id="Page-1" stroke="none" stroke-width="1" fill="none" fill-rule="evenodd">
        <g id="Flags" transform="translate(-618.000000, -178.000000)">
            <g id="BH" transform="translate(618.000000, 178.000000)">
                <mask id="mask-3" fill="white">
                    <use xlink:href="#path-1"></use>
                </mask>
                <g id="Mask" stroke="#F5F5F5" mask="url(#mask-2)" fill="#FFFFFF">
                    <use mask="url(#mask-4)" xlink:href="#path-1"></use>
                </g>
                <path d="M0,0 L23,0 L23,16 L0,16 L0,0 Z M0,16 L8.21428571,16 L6.57142857,14.9333333 L8.21428571,13.8666667 L6.57142857,12.8 L8.21428571,11.7333333 L6.57142857,10.6666667 L8.21428571,9.6 L6.57142857,8.53333333 L8.21428571,7.46666667 L6.57142857,6.4 L8.21428571,5.33333333 L6.57142857,4.26666667 L8.21428571,3.2 L6.57142857,2.13333333 L8.21428571,1.06666667 L6.57142857,0 L0,0 L0,16 Z" id="Combined-Shape" fill="#E7243B" mask="url(#mask-3)"></path>
            </g>
        </g>
    </g>
</svg>