<?xml version="1.0" encoding="UTF-8"?>
<svg width="23px" height="16px" viewBox="0 0 23 16" version="1.1" xmlns="http://www.w3.org/2000/svg" xmlns:xlink="http://www.w3.org/1999/xlink">
    <!-- Generator: Sketch 39.1 (31720) - http://www.bohemiancoding.com/sketch -->
    <title>BI</title>
    <desc>Created with Sketch.</desc>
    <defs>
        <rect id="path-1" x="0" y="0" width="23" height="16" rx="1.62"></rect>
    </defs>
    <g id="Page-1" stroke="none" stroke-width="1" fill="none" fill-rule="evenodd">
        <g id="Flags" transform="translate(-229.000000, -178.000000)">
            <g id="BI" transform="translate(229.000000, 178.000000)">
                <mask id="mask-2" fill="white">
                    <use xlink:href="#path-1"></use>
                </mask>
                <use id="Mask" fill="#FFFFFF" xlink:href="#path-1"></use>
                <rect id="Mask-Copy" fill="#E4233B" mask="url(#mask-2)" x="0" y="0" width="23" height="16"></rect>
                <polygon id="Rectangle-253" fill="#34CD4E" mask="url(#mask-2)" points="0 0 9.85714286 8 0 16"></polygon>
                <polygon id="Rectangle-253" fill="#34CD4E" mask="url(#mask-2)" transform="translate(18.071429, 8.000000) scale(-1, 1) translate(-18.071429, -8.000000) " points="13.1428571 0 23 8 13.1428571 16"></polygon>
                <path d="M9.09602614,5.09186668 L-1.06943378,-1.76482262 L-2.26237864,0.00379087227 L7.85853619,6.83043413 C7.73403299,7.19832391 7.66666667,7.59150006 7.66666667,8 C7.66666667,8.40849994 7.73403299,8.80167609 7.85853619,9.16956587 L-2.26237864,15.9962091 L-1.06943378,17.7648226 L9.09602614,10.9081333 C9.75353709,11.4243223 10.5897152,11.7333333 11.5,11.7333333 C12.4102848,11.7333333 13.2464629,11.4243223 13.9039739,10.9081333 L24.0694338,17.7648226 L25.2623786,15.9962091 L15.1414638,9.16956587 C15.265967,8.80167609 15.3333333,8.40849994 15.3333333,8 C15.3333333,7.59150006 15.265967,7.19832391 15.1414638,6.83043413 L25.2623786,0.00379087227 L24.0694338,-1.76482262 L13.9039739,5.09186668 C13.2464629,4.57567765 12.4102848,4.26666667 11.5,4.26666667 C10.5897152,4.26666667 9.75353709,4.57567765 9.09602614,5.09186668 Z" id="Rectangle-2" fill="#FFFFFF" mask="url(#mask-2)"></path>
                <path d="M11.5,6.93333333 L10.7255497,7.15424723 L10.952381,6.4 L10.7255497,5.64575277 L11.5,5.86666667 L12.2744503,5.64575277 L12.047619,6.4 L12.2744503,7.15424723 L11.5,6.93333333 Z M9.85714286,9.6 L9.08269257,9.8209139 L9.30952381,9.06666667 L9.08269257,8.31241943 L9.85714286,8.53333333 L10.6315931,8.31241943 L10.4047619,9.06666667 L10.6315931,9.8209139 L9.85714286,9.6 Z M13.1428571,9.6 L12.3684069,9.8209139 L12.5952381,9.06666667 L12.3684069,8.31241943 L13.1428571,8.53333333 L13.9173074,8.31241943 L13.6904762,9.06666667 L13.9173074,9.8209139 L13.1428571,9.6 Z" id="Star-2" fill="#DF2239" mask="url(#mask-2)"></path>
            </g>
        </g>
    </g>
</svg>