<?xml version="1.0" encoding="UTF-8"?>
<svg width="23px" height="16px" viewBox="0 0 23 16" version="1.1" xmlns="http://www.w3.org/2000/svg" xmlns:xlink="http://www.w3.org/1999/xlink">
    <!-- Generator: Sketch 39.1 (31720) - http://www.bohemiancoding.com/sketch -->
    <title>BM</title>
    <desc>Created with Sketch.</desc>
    <defs>
        <rect id="path-1" x="0" y="0" width="23" height="16" rx="1.62"></rect>
        <path d="M0,2.66666667 L0,0 L2.19047619,0 L4.38095238,0 L4.38095238,2.66666667 C4.38095238,4.26666667 2.19047619,5.33333333 2.19047619,5.33333333 C2.19047619,5.33333333 0,4.26666667 0,2.66666667 Z" id="path-3"></path>
        <linearGradient x1="50%" y1="0%" x2="50%" y2="100%" id="linearGradient-5">
            <stop stop-color="#E20A0B" offset="0%"></stop>
            <stop stop-color="#D40001" offset="100%"></stop>
        </linearGradient>
        <path d="M3.83333333,3.2 L0,0 L0.547619048,0 L4.38095238,2.66666667 L5.47619048,2.66666667 L9.85714286,0 L9.85714286,0.266666667 C9.85714286,0.4139426 9.76238578,0.599251302 9.62883021,0.692159526 L6.02380952,3.2 L6.02380952,4.26666667 L9.65104621,7.29462077 C9.76487024,7.38963909 9.7301316,7.46666667 9.58333333,7.46666667 L9.58333333,7.46666667 C9.43211251,7.46666667 9.21476673,7.4007487 9.08121116,7.30784047 L5.47619048,4.8 L4.38095238,4.8 L0,7.46666667 L0,6.93333333 L3.83333333,4.26666667 L3.83333333,3.2 Z" id="path-6"></path>
        <mask id="mask-7" maskContentUnits="userSpaceOnUse" maskUnits="objectBoundingBox" x="-0.54" y="-0.54" width="10.9371429" height="8.54666667">
            <rect x="-0.54" y="-0.54" width="10.9371429" height="8.54666667" fill="white"></rect>
            <use xlink:href="#path-6" fill="black"></use>
        </mask>
        <linearGradient x1="50%" y1="0%" x2="50%" y2="100%" id="linearGradient-8">
            <stop stop-color="#DB1E36" offset="0%"></stop>
            <stop stop-color="#D51931" offset="100%"></stop>
        </linearGradient>
    </defs>
    <g id="Page-1" stroke="none" stroke-width="1" fill="none" fill-rule="evenodd">
        <g id="Flags" transform="translate(-774.000000, -178.000000)">
            <g id="BM" transform="translate(774.000000, 178.000000)">
                <mask id="mask-2" fill="white">
                    <use xlink:href="#path-1"></use>
                </mask>
                <use id="Mask" fill="#FFFFFF" xlink:href="#path-1"></use>
                <rect id="Mask-Copy" fill="#DC1F37" mask="url(#mask-2)" x="0" y="0" width="23" height="16"></rect>
                <rect id="Rectangle-1115" fill="#042C90" mask="url(#mask-2)" x="0" y="0" width="9.85714286" height="7.46666667"></rect>
                <g id="Rectangle-1105" mask="url(#mask-2)">
                    <g transform="translate(14.238095, 5.333333)">
                        <mask id="mask-4" fill="white">
                            <use xlink:href="#path-3"></use>
                        </mask>
                        <use id="Mask" stroke="none" fill="#FFFFFF" fill-rule="evenodd" xlink:href="#path-3"></use>
                        <ellipse id="Oval-173" stroke="none" fill="#65B5D2" fill-rule="evenodd" mask="url(#mask-4)" cx="2.19047619" cy="3.2" rx="1.0952381" ry="1.06666667"></ellipse>
                        <path d="M2.19047619,2.13333333 C2.49291784,2.13333333 2.73809524,1.89455187 2.73809524,1.6 C2.73809524,1.30544813 2.49291784,1.06666667 2.19047619,1.06666667 C1.88803454,1.06666667 1.64285714,1.30544813 1.64285714,1.6 C1.64285714,1.89455187 1.88803454,2.13333333 2.19047619,2.13333333 Z M1.0952381,3.2 C1.39767974,3.2 1.64285714,2.96121853 1.64285714,2.66666667 C1.64285714,2.3721148 1.39767974,2.13333333 1.0952381,2.13333333 C0.792796447,2.13333333 0.547619048,2.3721148 0.547619048,2.66666667 C0.547619048,2.96121853 0.792796447,3.2 1.0952381,3.2 Z M3.28571429,3.2 C3.58815593,3.2 3.83333333,2.96121853 3.83333333,2.66666667 C3.83333333,2.3721148 3.58815593,2.13333333 3.28571429,2.13333333 C2.98327264,2.13333333 2.73809524,2.3721148 2.73809524,2.66666667 C2.73809524,2.96121853 2.98327264,3.2 3.28571429,3.2 Z" id="Oval-174" stroke="none" fill="url(#linearGradient-5)" fill-rule="evenodd" mask="url(#mask-4)"></path>
                        <rect id="Rectangle-1106" stroke="none" fill="#2F8F22" fill-rule="evenodd" mask="url(#mask-4)" x="0" y="4.26666667" width="4.38095238" height="1.06666667"></rect>
                    </g>
                </g>
                <g id="Rectangle-36" mask="url(#mask-2)">
                    <use fill="#DB1E36" fill-rule="evenodd" xlink:href="#path-6"></use>
                    <use stroke="#FFFFFF" mask="url(#mask-7)" stroke-width="1.08" xlink:href="#path-6"></use>
                </g>
                <path d="M0,2.66666667 L0,4.8 L3.83333333,4.8 L3.83333333,7.45716362 C3.83333333,7.75696387 4.06775266,8 4.36358652,8 L5.49355634,8 C5.78640709,8 6.02380952,7.74890137 6.02380952,7.45716362 L6.02380952,4.8 L9.86757115,4.8 C10.1642534,4.8 10.4047619,4.55527954 10.4047619,4.26166992 L10.4047619,3.20499674 C10.4047619,2.90768525 10.1692229,2.66666667 9.86757115,2.66666667 L6.02380952,2.66666667 L6.02380952,0 L3.83333333,0 L3.83333333,2.66666667 L0,2.66666667 Z" id="Rectangle-2" fill="#FFFFFF" mask="url(#mask-2)"></path>
                <polygon id="Rectangle-36" fill="url(#linearGradient-8)" mask="url(#mask-2)" points="0 3.2 4.38095238 3.2 4.38095238 2.66666667 4.38095238 0 5.47619048 0 5.47619048 2.66666667 5.47619048 3.2 9.85714286 3.2 9.85714286 4.26666667 5.47619048 4.26666667 5.47619048 4.8 5.47619048 7.46666667 4.38095238 7.46666667 4.38095238 4.8 4.38095238 4.26666667 0 4.26666667"></polygon>
            </g>
        </g>
    </g>
</svg>