<?xml version="1.0" encoding="UTF-8"?>
<svg width="23px" height="16px" viewBox="0 0 23 16" version="1.1" xmlns="http://www.w3.org/2000/svg" xmlns:xlink="http://www.w3.org/1999/xlink">
    <!-- Generator: Sketch 39.1 (31720) - http://www.bohemiancoding.com/sketch -->
    <title>CN</title>
    <desc>Created with Sketch.</desc>
    <defs>
        <rect id="path-1" x="0" y="0" width="23" height="16" rx="1.62"></rect>
    </defs>
    <g id="Page-1" stroke="none" stroke-width="1" fill="none" fill-rule="evenodd">
        <g id="Flags" transform="translate(-308.000000, -217.000000)">
            <g id="CN" transform="translate(308.000000, 217.000000)">
                <mask id="mask-2" fill="white">
                    <use xlink:href="#path-1"></use>
                </mask>
                <use id="Mask" fill="#FFFFFF" xlink:href="#path-1"></use>
                <rect id="Mask" fill="#F1361D" mask="url(#mask-2)" x="0" y="0" width="23" height="16"></rect>
                <path d="M11.0904178,4.78182711 L10.399533,5.19565603 L10.4234216,4.40840091 L10.0091059,3.73856227 L10.8143441,3.75150623 L11.5052289,3.3376773 L11.4813403,4.12493243 L11.895656,4.79477107 L11.0904178,4.78182711 Z M9.07572586,2.61269016 L8.28281228,2.4717496 L8.81732707,1.89327294 L8.94409273,1.11592375 L9.54332175,1.65397651 L10.3362353,1.79491707 L9.80172055,2.37339372 L9.67495489,3.15074292 L9.07572586,2.61269016 Z M9.46545539,9.57669587 L8.78943387,10.0143842 L8.78583311,9.22677498 L8.34839277,8.5718038 L9.15359223,8.55663746 L9.82961375,8.1189491 L9.83321451,8.90655835 L10.2706548,9.56152953 L9.46545539,9.57669587 Z M10.8597686,7.45856413 L10.0587227,7.54163998 L10.4130815,6.83824028 L10.32067,6.05606293 L11.0449933,6.40810253 L11.8460393,6.32502669 L11.4916804,7.02842638 L11.5840919,7.81060374 L10.8597686,7.45856413 Z" id="Star-2" fill="#FFDC42" mask="url(#mask-2)"></path>
                <polygon id="Star-8" fill="#FFDC42" mask="url(#mask-2)" points="5.47619048 6.58133338 3.54489608 7.92218772 4.25747943 5.71898656 2.35129049 4.34447895 4.72298563 4.32368008 5.47619048 2.13333333 6.22939532 4.32368008 8.60109046 4.34447895 6.69490152 5.71898656 7.40748488 7.92218772"></polygon>
            </g>
        </g>
    </g>
</svg>