<?xml version="1.0" encoding="UTF-8"?>
<svg width="23px" height="16px" viewBox="0 0 23 16" version="1.1" xmlns="http://www.w3.org/2000/svg" xmlns:xlink="http://www.w3.org/1999/xlink">
    <!-- Generator: Sketch 39.1 (31720) - http://www.bohemiancoding.com/sketch -->
    <title>FK</title>
    <desc>Created with Sketch.</desc>
    <defs>
        <rect id="path-1" x="0" y="0" width="23" height="16" rx="1.62"></rect>
        <path d="M0,3.73333333 L2.85224806e-17,1.08224688 C1.27699495e-17,0.484538431 0.485975373,0 1.08191902,0 L4.39427146,0 C4.99179883,0 5.47619048,0.482261181 5.47619048,1.08224688 L5.47619048,3.73333333 C5.47619048,6.4 2.73809524,7.46666667 2.73809524,7.46666667 C2.73809524,7.46666667 0,6.4 0,3.73333333 Z" id="path-3"></path>
        <path d="M0,3.73333333 L2.85224806e-17,1.08224688 C1.27699495e-17,0.484538431 0.485975373,0 1.08191902,0 L4.39427146,0 C4.99179883,0 5.47619048,0.482261181 5.47619048,1.08224688 L5.47619048,3.73333333 C5.47619048,6.4 2.73809524,7.46666667 2.73809524,7.46666667 C2.73809524,7.46666667 0,6.4 0,3.73333333 Z" id="path-5"></path>
        <mask id="mask-6" maskContentUnits="userSpaceOnUse" maskUnits="objectBoundingBox" x="0" y="0" width="5.47619048" height="7.46666667" fill="white">
            <use xlink:href="#path-5"></use>
        </mask>
        <mask id="mask-8" maskContentUnits="userSpaceOnUse" maskUnits="objectBoundingBox" x="0" y="0" width="5.47619048" height="7.46666667" fill="white">
            <use xlink:href="#path-5"></use>
        </mask>
        <path d="M3.83333333,3.2 L0,0 L0.547619048,0 L4.38095238,2.66666667 L5.47619048,2.66666667 L9.85714286,0 L9.85714286,0.266666667 C9.85714286,0.4139426 9.76238578,0.599251302 9.62883021,0.692159526 L6.02380952,3.2 L6.02380952,4.26666667 L9.65104621,7.29462077 C9.76487024,7.38963909 9.7301316,7.46666667 9.58333333,7.46666667 L9.58333333,7.46666667 C9.43211251,7.46666667 9.21476673,7.4007487 9.08121116,7.30784047 L5.47619048,4.8 L4.38095238,4.8 L0,7.46666667 L0,6.93333333 L3.83333333,4.26666667 L3.83333333,3.2 Z" id="path-9"></path>
        <mask id="mask-10" maskContentUnits="userSpaceOnUse" maskUnits="objectBoundingBox" x="-0.54" y="-0.54" width="10.9371429" height="8.54666667">
            <rect x="-0.54" y="-0.54" width="10.9371429" height="8.54666667" fill="white"></rect>
            <use xlink:href="#path-9" fill="black"></use>
        </mask>
    </defs>
    <g id="Page-1" stroke="none" stroke-width="1" fill="none" fill-rule="evenodd">
        <g id="Flags" transform="translate(-268.000000, -334.000000)">
            <g id="FK" transform="translate(268.000000, 334.000000)">
                <mask id="mask-2" fill="white">
                    <use xlink:href="#path-1"></use>
                </mask>
                <use id="Mask" fill="#FFFFFF" xlink:href="#path-1"></use>
                <rect id="Mask-Copy" fill="#07319C" mask="url(#mask-2)" x="0" y="0" width="23" height="16"></rect>
                <g id="Rectangle-1105" mask="url(#mask-2)">
                    <g transform="translate(14.238095, 4.266667)">
                        <g id="Rectangle-1238" stroke="none" stroke-width="1" fill="none" fill-rule="evenodd">
                            <mask id="mask-4" fill="white">
                                <use xlink:href="#path-3"></use>
                            </mask>
                            <use id="Mask" fill="#0072C4" xlink:href="#path-3"></use>
                            <path d="M1.26155599,3.14748877 C0.700366799,3.69954187 1.80019207,3.62952483 1.80019207,3.62952483 L2.58351723,3.38526241 C2.58351723,3.38526241 2.93569021,3.42675785 3.17340958,3.49654946 C3.33088197,3.54278151 3.76909249,3.73333338 3.76909249,3.73333338 C3.76909249,3.73333338 4.69460326,3.55338924 4.36918706,3.14748874 C4.04377086,2.74158823 1.82274518,2.59543567 1.26155599,3.14748877 Z" id="Path-66" fill="#005121" mask="url(#mask-4)"></path>
                            <g id="Group-2" mask="url(#mask-4)">
                                <g transform="translate(0.000000, 1.066667)" id="Group">
                                    <g transform="translate(0.876191, 0.000000)">
                                        <path d="M2.71886772,1.50735238 C2.74138095,1.5023746 2.79395238,1.50349206 2.81354497,1.52675556 C2.84433333,1.56312381 2.90737037,1.55103492 2.93815873,1.58608254 C2.9688254,1.62123175 3.00448148,1.6536381 3.00448148,1.70361905 C3.00448148,1.7536 2.99851852,1.87753651 2.99961376,1.9047619 C3.00119577,1.94671746 3.00861905,1.95321905 3.05291534,1.95210159 C3.10633862,1.95078095 3.18008466,1.94671746 3.18239683,1.8535619 C3.18397884,1.78864762 3.11765608,1.74811429 3.09830688,1.51720635 C3.12739153,1.49292698 3.15331217,1.47128889 3.14357672,1.43898413 C3.13384127,1.40657778 3.19858201,1.39032381 3.19213228,1.34166349 C3.18556085,1.29310476 3.25675132,1.26333968 3.22766667,1.20939683 C3.19858201,1.15535238 3.26320106,1.15271111 3.23740212,1.10943492 C3.21148148,1.06626032 3.27938624,1.02836825 3.25030159,0.990679365 C3.22121693,0.952787302 3.28912169,0.917739683 3.2535873,0.871822222 C3.21793122,0.825904762 3.27293651,0.79888254 3.23740212,0.763733333 C3.26003704,0.728685714 3.24056614,0.62872381 3.16937566,0.572038095 C3.09830688,0.515250794 2.99803175,0.485587302 2.93974074,0.463949206 C2.83131217,0.423720635 2.62917989,0.442311111 2.48679894,0.458565079 C2.34441799,0.47471746 2.07912698,0.490971429 1.99820106,0.480203175 C1.91739683,0.469434921 1.72658201,0.458565079 1.57604762,0.482844444 C1.52457143,0.491174603 1.46603704,0.476139683 1.43537037,0.447796825 C1.41078836,0.425142857 1.39655026,0.427580952 1.37391534,0.428901587 C1.35128042,0.430222222 1.33825926,0.423415873 1.3269418,0.396393651 C1.30698413,0.348850794 1.26232275,0.381561905 1.24126984,0.322133333 C1.22715344,0.282412698 1.15377249,0.316749206 1.13125926,0.283022222 C1.10850265,0.249295238 1.08112169,0.245231746 1.01954497,0.249295238 C1.01638095,0.228977778 0.982428571,0.214146032 0.951640212,0.219530159 C0.956507937,0.185803175 0.922555556,0.158780952 0.865968254,0.160101587 C0.872417989,0.118247619 0.793195767,0.0858412698 0.752671958,0.111542857 C0.726873016,0.0804571429 0.675031746,0.0871619048 0.662132275,0.111542857 C0.63462963,0.0804571429 0.547253968,0.0899047619 0.526201058,0.123631746 C0.489084656,0.103415873 0.416798942,0.153092063 0.422761905,0.231720635 C0.424343915,0.25335873 0.425804233,0.275809524 0.388687831,0.283022222 C0.319201058,0.296533333 0.278798942,0.372114286 0.218804233,0.38288254 C0.15905291,0.393752381 0.0991798942,0.412647619 0.0878624339,0.445053968 C0.0765449735,0.477460317 0.0975978836,0.511288889 0.074962963,0.52744127 C0.0523280423,0.543695238 0.0894444444,0.558526984 0.100761905,0.566552381 C0.112079365,0.574679365 0.129846561,0.588190476 0.133132275,0.607085714 C0.137756614,0.633904762 0.183148148,0.641930159 0.230243386,0.612469841 C0.249592593,0.600380952 0.283544974,0.636850794 0.338550265,0.611149206 C0.393555556,0.585549206 0.47168254,0.599060317 0.458296296,0.640914286 C0.451846561,0.661130159 0.466328042,0.682768254 0.484216931,0.702984127 C0.501984127,0.7232 0.528634921,0.784253968 0.513301587,0.819098413 C0.490666667,0.8704 0.535936508,0.898844444 0.524619048,0.944660317 C0.513301587,0.990679365 0.531068783,1.03253333 0.506851852,1.09460317 C0.482513228,1.15667302 0.482148148,1.2343873 0.518169312,1.25663492 C0.568306878,1.28772063 0.538005291,1.34928254 0.581206349,1.37549206 C0.616740741,1.39702857 0.595809524,1.44975238 0.662132275,1.46590476 C0.728455026,1.48215873 0.689634921,1.52533333 0.759121693,1.53478095 C0.828730159,1.54422857 0.85294709,1.59288889 0.925719577,1.58201905 C0.979386243,1.57409524 1.00761905,1.58679365 1.03889418,1.59878095 C1.04534392,1.64205714 1.03098413,1.8008381 1.02769841,1.84137143 C1.02477778,1.87723175 1.00506349,1.9344254 1.00506349,1.96967619 C1.00506349,1.9912127 1.05033333,1.99659683 1.1021746,1.99659683 C1.15377249,1.99659683 1.1765291,1.97638095 1.16350794,1.91969524 C1.15060847,1.86290794 1.14744444,1.72464762 1.15073016,1.63819683 C1.19563492,1.6592254 1.23834921,1.68868571 1.23640212,1.72119365 C1.2331164,1.77381587 1.23396825,1.86829206 1.22496296,1.91695238 C1.21863492,1.95210159 1.22824868,2.00746667 1.23153439,2.04393651 C1.23482011,2.05734603 1.32207407,2.0560254 1.35773016,2.04393651 C1.39326455,2.03174603 1.39326455,1.99933968 1.38997884,1.85213968 C1.38839683,1.77930159 1.30905291,1.7048381 1.40944974,1.66846984 C1.45800529,1.65089524 1.52591005,1.6103619 1.55183069,1.57267302 C1.57762963,1.53478095 1.63433862,1.5496127 1.67474074,1.56860952 C1.71514286,1.58750476 1.7798836,1.61635556 1.82040741,1.60365714 C1.87212698,1.58750476 1.92713228,1.62793651 1.97240212,1.60365714 C2.01767196,1.57937778 2.07596296,1.62123175 2.11307937,1.59156825 C2.15031746,1.56180317 2.2150582,1.59014603 2.24256085,1.56180317 C2.27006349,1.53346032 2.3832381,1.57805714 2.4237619,1.54026667 C2.46416402,1.5023746 2.51916931,1.55103492 2.55640741,1.52269206 C2.56614286,1.5151746 2.5777037,1.51354921 2.59035979,1.51446349 C2.58889947,1.5783619 2.57660847,1.68005079 2.5741746,1.71174603 C2.57125397,1.74770794 2.55153968,1.8048 2.55153968,1.83994921 C2.55153968,1.8615873 2.59680952,1.86697143 2.6485291,1.86697143 C2.70037037,1.86697143 2.72300529,1.84675556 2.71010582,1.79006984 C2.69708466,1.73338413 2.7157037,1.59390476 2.71886772,1.50735238" id="Fill-41" fill="#A3A3A3"></path>
                                        <path d="" id="Fill-43" fill="#A3A3A3"></path>
                                        <path d="M0.621608466,0.688152381 C0.59252381,0.698920635 0.602259259,0.731326984 0.628179894,0.744838095 C0.654100529,0.758349206 0.712269841,0.763733333 0.749507937,0.757028571 C0.786624339,0.750222222 0.794777778,0.761092063 0.770560847,0.774603175 C0.746222222,0.788012698 0.807677249,0.790755556 0.802809524,0.812393651 C0.798063492,0.833930159 0.825444444,0.829866667 0.851365079,0.828546032 C0.877285714,0.827225397 0.911238095,0.810971429 0.940322751,0.796139683 C0.969407407,0.781307937 0.990460317,0.79207619 0.962957672,0.817777778 C0.93557672,0.843377778 0.843333333,0.875885714 0.770560847,0.871822222 C0.697666667,0.86775873 0.658846561,0.883911111 0.675031746,0.906869841 C0.691216931,0.929828571 0.768857143,0.933892063 0.809259259,0.921701587 C0.849783069,0.909612698 0.843333333,0.931250794 0.812544974,0.945980952 C0.781756614,0.960914286 0.738068783,0.962234921 0.700952381,0.960914286 C0.663714286,0.959593651 0.631343915,0.990679365 0.679899471,1.00815238 C0.728455026,1.02572698 0.793195767,1.01495873 0.817412698,1.02979048 C0.841751323,1.04462222 0.91610582,1.02166349 0.917687831,1.04736508 C0.919269841,1.07296508 0.896634921,1.0824127 0.85294709,1.07977143 C0.809259259,1.07702857 0.82215873,1.09622857 0.854650794,1.10669206 C0.88373545,1.11624127 0.93557672,1.11624127 0.962957672,1.11349841 C0.990460317,1.11085714 0.982428571,1.13777778 0.954925926,1.1472254 C0.92742328,1.15667302 0.838465608,1.17018413 0.794777778,1.16886349 C0.751089947,1.16754286 0.772021164,1.19456508 0.828730159,1.19456508 C1.00177778,1.19456508 1.06006878,1.11481905 1.10375661,1.05945397 C1.1251746,1.03233016 1.16679365,1.0176 1.1765291,1.03385397 C1.18626455,1.05000635 1.18784656,1.05406984 1.16849735,1.06758095 C1.14902646,1.08109206 1.15377249,1.08921905 1.18942857,1.09053968 C1.22496296,1.09186032 1.27680423,1.0824127 1.30759259,1.0743873 C1.33825926,1.06626032 1.42879894,1.11735873 1.35444444,1.11888254 C1.22338095,1.1216254 1.06165079,1.16754286 1.00834921,1.1864381 C0.954925926,1.20533333 0.865846561,1.24088889 0.810962963,1.23906032 C0.770560847,1.23773968 0.754253968,1.25257143 0.770560847,1.27014603 C0.786624339,1.28772063 0.838465608,1.28772063 0.867550265,1.27959365 C0.896634921,1.27146667 0.903084656,1.27959365 0.88373545,1.29574603 C0.864386243,1.312 0.815830688,1.31870476 0.781756614,1.32419048 C0.747925926,1.3295746 0.731132275,1.35070476 0.757539683,1.3592381 C0.807677249,1.37549206 0.762407407,1.39032381 0.798063492,1.39845079 C0.833597884,1.40657778 0.794777778,1.43217778 0.833597884,1.44030476 C0.872417989,1.44843175 0.89505291,1.44436825 0.924137566,1.42547302 C0.953343915,1.40657778 0.969407407,1.39570794 1.00019577,1.39845079 C1.03098413,1.40119365 1.05203704,1.38758095 1.06980423,1.36736508 C1.08757143,1.34714921 1.14744444,1.31067937 1.16679365,1.32825397 C1.18626455,1.34582857 1.22666667,1.31332063 1.23482011,1.33089524 C1.24285185,1.34846984 1.27680423,1.33770159 1.28495767,1.36198095 C1.29384127,1.38900317 1.33180952,1.3943873 1.35773016,1.38493968 C1.3835291,1.37549206 1.40458201,1.35253333 1.40458201,1.31870476 C1.40458201,1.28497778 1.41431746,1.27146667 1.42405291,1.30793651 C1.43366667,1.34440635 1.46932275,1.3551746 1.48708995,1.33770159 C1.50485714,1.32012698 1.51130688,1.25937778 1.49840741,1.23103492 C1.48550794,1.20259048 1.48380423,1.16612063 1.4968254,1.15941587 C1.50972487,1.15271111 1.54051323,1.21478095 1.5534127,1.24180317 C1.56643386,1.2688254 1.60026455,1.26069841 1.60196825,1.23367619 C1.60355026,1.20665397 1.63433862,1.19314286 1.65697354,1.21346032 C1.67960847,1.23367619 1.66670899,1.30123175 1.67315873,1.3336381 C1.67960847,1.36604444 1.7426455,1.32551111 1.74921693,1.33627937 C1.75566667,1.34714921 1.7798836,1.34979048 1.78961905,1.32683175 C1.7993545,1.30387302 1.82198942,1.28365714 1.83488889,1.29716825 C1.84791005,1.31067937 1.86725926,1.3336381 1.87529101,1.3592381 C1.88344444,1.38493968 1.9125291,1.39845079 1.9302963,1.37142857 C1.94806349,1.34440635 1.96108466,1.29178413 1.95463492,1.2552127 C1.94806349,1.21884444 1.95950265,1.19588571 1.97556614,1.21478095 C1.99175132,1.23367619 1.99016931,1.28497778 1.99175132,1.32683175 C1.99345503,1.36868571 2.04675661,1.36472381 2.04675661,1.30255238 C2.04675661,1.27420952 2.0629418,1.2688254 2.06780952,1.28497778 C2.07267725,1.30123175 2.07267725,1.32825397 2.07754497,1.34034286 C2.0894709,1.37031111 2.13096825,1.35385397 2.13571429,1.3336381 C2.14058201,1.31332063 2.13255026,1.24038095 2.12281481,1.20807619 C2.11307937,1.17556825 2.13255026,1.15271111 2.14873545,1.17018413 C2.16492063,1.18775873 2.16808466,1.23367619 2.17137037,1.28497778 C2.17453439,1.33627937 2.20848677,1.33902222 2.22637566,1.32419048 C2.24414286,1.30925714 2.24414286,1.26608254 2.23611111,1.23499683 C2.22795767,1.2040127 2.25387831,1.2040127 2.26519577,1.22290794 C2.27651323,1.24180317 2.29598413,1.2296127 2.29269841,1.21478095 C2.28953439,1.19994921 2.30559788,1.1864381 2.32178307,1.20665397 C2.33796825,1.22697143 2.33310053,1.27288889 2.32506878,1.30925714 C2.31691534,1.34582857 2.3654709,1.34166349 2.38810582,1.31067937 C2.41074074,1.27959365 2.39942328,1.19456508 2.38007407,1.16754286 C2.36060317,1.14052063 2.36230688,1.10537143 2.37350265,1.0743873 C2.3849418,1.04330159 2.40599471,1.04187937 2.40757672,1.05549206 C2.40915873,1.06890159 2.41889418,1.09186032 2.43666138,1.10943492 C2.45442857,1.12700952 2.46416402,1.12975238 2.46732804,1.10262857 C2.47061376,1.07570794 2.48679894,1.0824127 2.49324868,1.10262857 C2.49982011,1.12294603 2.51101587,1.13909841 2.52720106,1.1216254 C2.54338624,1.10405079 2.56443915,1.1175619 2.55153968,1.14458413 C2.53851852,1.17160635 2.53851852,1.19588571 2.54825397,1.22290794 C2.55798942,1.24993016 2.5919418,1.24586667 2.59522751,1.21478095 C2.60192063,1.15017143 2.6114127,1.19314286 2.61944444,1.22148571 C2.62747619,1.24993016 2.65181481,1.24850794 2.65668254,1.23235556 C2.66155026,1.21610159 2.66641799,1.21213968 2.66641799,1.2296127 C2.66641799,1.2471873 2.67444974,1.26201905 2.69550265,1.26201905 C2.71655556,1.26201905 2.71168783,1.22697143 2.72130159,1.20533333 C2.73103704,1.18369524 2.74880423,1.21346032 2.77314286,1.26333968 C2.79735979,1.31332063 2.81512698,1.26608254 2.87183598,1.37955556 C2.89495767,1.42577778 2.92842328,1.38626032 2.92684127,1.37010794 C2.92513757,1.35385397 2.93000529,1.34308571 2.95750794,1.34308571 C2.98501058,1.34308571 3.0076455,1.33770159 2.99803175,1.32012698 C2.9882963,1.30255238 2.99474603,1.27014603 2.99316402,1.23367619 C2.99158201,1.19720635 2.99632804,1.17699048 3.00119577,1.19720635 C3.00606349,1.21742222 3.02224868,1.24586667 3.04804762,1.26069841 C3.07396825,1.27553016 3.09173545,1.23499683 3.07068254,1.20939683 C3.04975132,1.18369524 3.02066667,1.12294603 3.02224868,1.07164444 C3.02346561,1.03385397 3.04159788,1.04594286 3.04159788,1.07296508 C3.04159788,1.0999873 3.05778307,1.14864762 3.08212169,1.15941587 C3.10633862,1.17018413 3.11607407,1.12020317 3.10475661,1.09460317 C3.09343915,1.06890159 3.08698942,1.03385397 3.11120635,1.02704762 C3.13542328,1.02034286 3.10475661,0.992 3.0837037,0.97168254 C3.06265079,0.951466667 3.04975132,0.931250794 3.08698942,0.932571429 C3.12410582,0.933892063 3.09343915,0.910933333 3.07555026,0.896101587 C3.05778307,0.881269841 3.0271164,0.851504762 3.07555026,0.855568254 C3.12410582,0.859631746 3.10804233,0.835352381 3.08857143,0.82184127 C3.06910053,0.808330159 3.05778307,0.782628571 3.09173545,0.784050794 C3.12580952,0.785371429 3.14674074,0.76911746 3.14357672,0.757028571 C3.13116402,0.710196825 3.04975132,0.655746032 2.99961376,0.613892063 C2.94947619,0.572038095 2.86855026,0.530184127 2.82486243,0.523377778 C2.7811746,0.516571429 2.77959259,0.543695238 2.79091005,0.559847619 C2.80222751,0.576 2.82486243,0.586869841 2.82814815,0.570615873 C2.83131217,0.554463492 2.86526455,0.572038095 2.88144974,0.593574603 C2.89763492,0.615212698 2.95264021,0.642234921 2.98671429,0.666514286 C3.02066667,0.690793651 2.94132275,0.678704762 2.90250265,0.646298413 C2.8803545,0.627707937 2.88303175,0.650260317 2.9122381,0.675961905 C2.94132275,0.701663492 2.90408466,0.712431746 2.87341799,0.690793651 C2.84262963,0.669257143 2.76340741,0.608507937 2.71326984,0.569295238 C2.66313228,0.530184127 2.65497884,0.539631746 2.65339683,0.565231746 C2.65181481,0.590933333 2.66958201,0.608507937 2.70195238,0.630044444 C2.73432275,0.65168254 2.77472487,0.685409524 2.80551323,0.708368254 C2.83617989,0.731326984 2.81038095,0.74615873 2.79091005,0.729904762 C2.77143915,0.713752381 2.7052381,0.669257143 2.66641799,0.638171429 C2.62747619,0.607085714 2.5919418,0.592253968 2.56772487,0.59631746 C2.54338624,0.600380952 2.54508995,0.623339683 2.5741746,0.647619048 C2.60325926,0.671898413 2.63891534,0.717815873 2.63891534,0.744838095 C2.63891534,0.771860317 2.61299471,0.790755556 2.59997354,0.742196825 C2.58707407,0.693536508 2.52561905,0.636850794 2.48034921,0.593574603 C2.43507937,0.5504 2.38968783,0.542273016 2.35573545,0.545015873 C2.32178307,0.547657143 2.32336508,0.580063492 2.32336508,0.605765079 C2.32336508,0.631365079 2.30073016,0.616533333 2.29914815,0.597638095 C2.29756614,0.578742857 2.2716455,0.562590476 2.25704233,0.563911111 C2.24256085,0.565231746 2.24742857,0.604444444 2.24256085,0.622019048 C2.23769312,0.639492063 2.2150582,0.655746032 2.2150582,0.615212698 C2.2150582,0.574679365 2.16163492,0.554463492 2.139,0.55304127 C2.11636508,0.551720635 2.09531217,0.559847619 2.10662963,0.577422222 C2.11794709,0.594895238 2.11307937,0.642234921 2.10504762,0.669257143 C2.09689418,0.696177778 2.07267725,0.648939683 2.06780952,0.59895873 C2.0629418,0.549079365 1.98700529,0.513930159 1.93358201,0.528761905 C1.88015873,0.543695238 1.92068254,0.576 1.91094709,0.607085714 C1.90121164,0.638171429 1.88660847,0.609828571 1.88174074,0.577422222 C1.87699471,0.545015873 1.85107407,0.524698413 1.81553968,0.532825397 C1.7798836,0.540952381 1.75566667,0.557104762 1.75724868,0.578742857 C1.75883069,0.600380952 1.75883069,0.61927619 1.75079894,0.65432381 C1.7426455,0.689473016 1.72816402,0.671898413 1.72974603,0.648939683 C1.73144974,0.625980952 1.7232963,0.588190476 1.71514286,0.566552381 C1.70711111,0.545015873 1.69408995,0.565231746 1.69737566,0.592253968 C1.70066138,0.61927619 1.69250794,0.681346032 1.67960847,0.719238095 C1.66670899,0.757028571 1.6472381,0.758349206 1.65697354,0.707047619 C1.66670899,0.655746032 1.64237037,0.580063492 1.61815344,0.545015873 C1.60075132,0.51992381 1.56156614,0.511288889 1.56156614,0.546336508 C1.56156614,0.581485714 1.5728836,0.607085714 1.60196825,0.632787302 C1.63105291,0.658387302 1.60841799,0.721879365 1.57933333,0.755707937 C1.55012698,0.789434921 1.55183069,0.740774603 1.56156614,0.704304762 C1.57117989,0.667834921 1.51787831,0.655746032 1.4968254,0.648939683 C1.47577249,0.642234921 1.51946032,0.605765079 1.52919577,0.557104762 C1.5339418,0.533130159 1.52749206,0.517993651 1.50814286,0.516571429 C1.48867196,0.515250794 1.43695238,0.561168254 1.41431746,0.594895238 C1.4207672,0.559847619 1.41431746,0.528761905 1.39484656,0.528761905 C1.37549735,0.528761905 1.35444444,0.562590476 1.33996296,0.586869841 C1.32535979,0.611149206 1.31075661,0.597638095 1.32535979,0.572038095 C1.33996296,0.546336508 1.36247619,0.477460317 1.33339153,0.462628571 C1.30430688,0.447796825 1.27838624,0.508546032 1.24771958,0.49767619 C1.23031746,0.491580952 1.25416931,0.453180952 1.26390476,0.435606349 C1.27351852,0.418031746 1.25416931,0.404520635 1.21048148,0.436926984 C1.16679365,0.469434921 1.14744444,0.522057143 1.13600529,0.554463492 C1.12480952,0.586869841 1.04716931,0.639492063 1.00506349,0.667834921 C0.962957672,0.696177778 0.945190476,0.685409524 0.966243386,0.673219048 C0.987296296,0.661130159 1.02928042,0.623339683 1.05033333,0.608507937 C1.07138624,0.593574603 1.06165079,0.584838095 1.02124868,0.610438095 C0.980846561,0.636139683 0.907222222,0.682768254 0.83189418,0.698920635 C0.787719577,0.708469841 0.781756614,0.700342857 0.825444444,0.688152381 C0.869132275,0.675961905 0.969407407,0.617853968 0.993746032,0.590933333 C1.00895767,0.573968254 0.969407407,0.588190476 0.950058201,0.592253968 C0.930708995,0.59631746 0.91452381,0.590933333 0.953343915,0.577422222 C0.992042328,0.563911111 1.11507407,0.457244444 1.14099471,0.418031746 C1.16679365,0.378920635 1.14415873,0.363987302 1.12797354,0.365409524 C1.11178836,0.366730159 1.08915344,0.376177778 1.09402116,0.360025397 C1.09888889,0.343771429 1.08757143,0.322133333 1.06651852,0.328939683 C1.04546561,0.335644444 1.04716931,0.374857143 1.03901587,0.396393651 C1.03098413,0.418031746 0.985592593,0.44647619 0.956507937,0.44647619 C0.92742328,0.44647619 0.887021164,0.451860317 0.856232804,0.47207619 C0.825444444,0.492292063 0.810962963,0.473396825 0.825444444,0.457244444 C0.840047619,0.440990476 0.872417989,0.436926984 0.90478836,0.435606349 C0.93715873,0.434285714 0.972693122,0.430222222 1.00019577,0.404520635 C1.02769841,0.378920635 1.02928042,0.358603175 1.00834921,0.35728254 C0.987296296,0.355961905 0.951640212,0.333003175 0.940322751,0.323555556 C0.882883598,0.275504762 0.777619048,0.342450794 0.736486772,0.381561905 C0.713851852,0.4032 0.63621164,0.465371429 0.611994709,0.48152381 C0.587656085,0.49767619 0.597391534,0.520634921 0.637793651,0.489650794 C0.67831746,0.458565079 0.691216931,0.480203175 0.654100529,0.503161905 C0.616740741,0.526120635 0.589359788,0.559847619 0.602259259,0.572038095 C0.61515873,0.584126984 0.665296296,0.569295238 0.692798942,0.554463492 C0.720301587,0.539631746 0.733322751,0.576 0.665296296,0.588190476 C0.619661376,0.596419048 0.603719577,0.612063492 0.639497354,0.613892063 C0.667,0.615212698 0.708984127,0.604444444 0.747925926,0.585549206 C0.786624339,0.566552381 0.817412698,0.577422222 0.785042328,0.59631746 C0.752671958,0.615212698 0.681481481,0.640914286 0.64594709,0.640914286 C0.616132275,0.640914286 0.650814815,0.677384127 0.621608466,0.688152381 Z" id="Fill-44" fill="#FFFFFF"></path>
                                        <path d="" id="Fill-45" fill="#A3A3A3"></path>
                                        <path d="" id="Fill-46" fill="#A3A3A3"></path>
                                        <path d="" id="Fill-47" fill="#A3A3A3"></path>
                                        <path d="" id="Fill-48" fill="#A3A3A3"></path>
                                        <path d="" id="Fill-49" fill="#A3A3A3"></path>
                                        <path d="" id="Fill-50" fill="#A3A3A3"></path>
                                        <path d="" id="Fill-51" fill="#A3A3A3"></path>
                                        <path d="" id="Fill-52" fill="#A3A3A3"></path>
                                        <path d="" id="Fill-53" fill="#A3A3A3"></path>
                                        <path d="" id="Fill-54" fill="#A3A3A3"></path>
                                        <path d="" id="Fill-55" fill="#A3A3A3"></path>
                                        <path d="" id="Fill-56" fill="#A3A3A3"></path>
                                        <path d="" id="Fill-57" fill="#A3A3A3"></path>
                                        <path d="" id="Fill-58" fill="#A3A3A3"></path>
                                    </g>
                                </g>
                            </g>
                            <path d="M-1.0952381,3.2 C-1.0952381,3.2 0.76769059,3.73903758 1.08213653,3.73903758 C1.17050125,3.73903758 2.37718691,3.46951879 2.73895591,3.46951879 C2.87425324,3.46951879 4.12330912,3.65414343 4.44943662,3.73903758 C4.77556412,3.82393173 6.57315014,3.2 6.57315014,3.2" id="Path-63" stroke="#FFFFFF" stroke-width="0.54" stroke-linecap="round" stroke-linejoin="round" mask="url(#mask-4)"></path>
                            <path d="M-1.0952381,4.26666667 C-1.0952381,4.26666667 0.76769059,4.80570424 1.08213653,4.80570424 C1.17050125,4.80570424 2.37718691,4.53618545 2.73895591,4.53618546 C2.87425324,4.53618546 4.12330912,4.72081009 4.44943662,4.80570424 C4.77556412,4.8905984 6.57315014,4.26666667 6.57315014,4.26666667" id="Path-63" stroke="#FFFFFF" stroke-width="0.54" stroke-linecap="round" stroke-linejoin="round" mask="url(#mask-4)"></path>
                            <path d="M-1.0952381,6.4 C-1.0952381,6.4 0.76769059,6.93903758 1.08213653,6.93903758 C1.17050125,6.93903758 1.88983652,6.50286458 2.73895591,6.50286458 C3.58807529,6.50286458 4.12330912,6.85414343 4.44943662,6.93903758 C4.77556412,7.02393173 6.57315014,6.4 6.57315014,6.4 L12.4688285,7.31835938" id="Path-63" stroke="#FFFFFF" stroke-width="1.08" stroke-linecap="round" stroke-linejoin="round" mask="url(#mask-4)"></path>
                        </g>
                        <mask id="mask-7" fill="white">
                            <use xlink:href="#path-5"></use>
                        </mask>
                        <g id="Mask" stroke="#FFFFFF" mask="url(#mask-6)" stroke-width="1.08" fill="none">
                            <use mask="url(#mask-8)" xlink:href="#path-5"></use>
                        </g>
                    </g>
                </g>
                <g id="Rectangle-36" mask="url(#mask-2)">
                    <use fill="#DB1E36" fill-rule="evenodd" xlink:href="#path-9"></use>
                    <use stroke="#FFFFFF" mask="url(#mask-10)" stroke-width="1.08" xlink:href="#path-9"></use>
                </g>
                <path d="M0,2.66666667 L0,4.8 L3.83333333,4.8 L3.83333333,7.45716362 C3.83333333,7.75696387 4.06775266,8 4.36358652,8 L5.49355634,8 C5.78640709,8 6.02380952,7.74890137 6.02380952,7.45716362 L6.02380952,4.8 L9.86757115,4.8 C10.1642534,4.8 10.4047619,4.55527954 10.4047619,4.26166992 L10.4047619,3.20499674 C10.4047619,2.90768525 10.1692229,2.66666667 9.86757115,2.66666667 L6.02380952,2.66666667 L6.02380952,0 L3.83333333,0 L3.83333333,2.66666667 L0,2.66666667 Z" id="Rectangle-2" fill="#FFFFFF" mask="url(#mask-2)"></path>
                <polygon id="Rectangle-36" fill="#DB1E36" mask="url(#mask-2)" points="0 3.2 4.38095238 3.2 4.38095238 2.66666667 4.38095238 0 5.47619048 0 5.47619048 2.66666667 5.47619048 3.2 9.85714286 3.2 9.85714286 4.26666667 5.47619048 4.26666667 5.47619048 4.8 5.47619048 7.46666667 4.38095238 7.46666667 4.38095238 4.8 4.38095238 4.26666667 0 4.26666667"></polygon>
            </g>
        </g>
    </g>
</svg>