<?xml version="1.0" encoding="UTF-8"?>
<svg width="23px" height="16px" viewBox="0 0 23 16" version="1.1" xmlns="http://www.w3.org/2000/svg" xmlns:xlink="http://www.w3.org/1999/xlink">
    <!-- Generator: Sketch 39.1 (31720) - http://www.bohemiancoding.com/sketch -->
    <title>HN</title>
    <desc>Created with Sketch.</desc>
    <defs>
        <rect id="path-1" x="0" y="0" width="23" height="16" rx="1.62"></rect>
        <mask id="mask-2" maskContentUnits="userSpaceOnUse" maskUnits="objectBoundingBox" x="0" y="0" width="23" height="16" fill="white">
            <use xlink:href="#path-1"></use>
        </mask>
        <mask id="mask-4" maskContentUnits="userSpaceOnUse" maskUnits="objectBoundingBox" x="0" y="0" width="23" height="16" fill="white">
            <use xlink:href="#path-1"></use>
        </mask>
    </defs>
    <g id="Page-1" stroke="none" stroke-width="1" fill="none" fill-rule="evenodd">
        <g id="Flags" transform="translate(-190.000000, -411.000000)">
            <g id="HN" transform="translate(190.000000, 411.000000)">
                <mask id="mask-3" fill="white">
                    <use xlink:href="#path-1"></use>
                </mask>
                <g id="Mask" stroke="#F5F5F5" mask="url(#mask-2)" fill="#FFFFFF">
                    <use mask="url(#mask-4)" xlink:href="#path-1"></use>
                </g>
                <rect id="Rectangle-2" fill="#0884E6" mask="url(#mask-3)" x="0" y="0" width="23" height="5.33333333"></rect>
                <rect id="Rectangle-2" fill="#0884E6" mask="url(#mask-3)" x="0" y="10.6666667" width="23" height="5.33333333"></rect>
                <polygon id="Star-20" fill="#0E88E9" mask="url(#mask-3)" points="11.5 8.53333333 10.7255497 8.75424723 10.952381 8 10.7255497 7.24575277 11.5 7.46666667 12.2744503 7.24575277 12.047619 8 12.2744503 8.75424723"></polygon>
                <polygon id="Star-20-Copy" fill="#0E88E9" mask="url(#mask-3)" points="15.8809524 7.46666667 15.1065021 7.68758057 15.3333333 6.93333333 15.1065021 6.1790861 15.8809524 6.4 16.6554027 6.1790861 16.4285714 6.93333333 16.6554027 7.68758057"></polygon>
                <polygon id="Star-20-Copy-2" fill="#0E88E9" mask="url(#mask-3)" points="15.8809524 9.6 15.1065021 9.8209139 15.3333333 9.06666667 15.1065021 8.31241943 15.8809524 8.53333333 16.6554027 8.31241943 16.4285714 9.06666667 16.6554027 9.8209139"></polygon>
                <polygon id="Star-20-Copy-3" fill="#0E88E9" mask="url(#mask-3)" points="7.11904762 9.6 6.34459733 9.8209139 6.57142857 9.06666667 6.34459733 8.31241943 7.11904762 8.53333333 7.8934979 8.31241943 7.66666667 9.06666667 7.8934979 9.8209139"></polygon>
                <polygon id="Star-20-Copy-4" fill="#0E88E9" mask="url(#mask-3)" points="7.11904762 7.46666667 6.34459733 7.68758057 6.57142857 6.93333333 6.34459733 6.1790861 7.11904762 6.4 7.8934979 6.1790861 7.66666667 6.93333333 7.8934979 7.68758057"></polygon>
            </g>
        </g>
    </g>
</svg>