<?xml version="1.0" encoding="UTF-8"?>
<svg width="23px" height="16px" viewBox="0 0 23 16" version="1.1" xmlns="http://www.w3.org/2000/svg" xmlns:xlink="http://www.w3.org/1999/xlink">
    <!-- Generator: Sketch 39.1 (31720) - http://www.bohemiancoding.com/sketch -->
    <title>HR</title>
    <desc>Created with Sketch.</desc>
    <defs>
        <rect id="path-1" x="0" y="0" width="23" height="16" rx="1.62"></rect>
        <mask id="mask-2" maskContentUnits="userSpaceOnUse" maskUnits="objectBoundingBox" x="0" y="0" width="23" height="16" fill="white">
            <use xlink:href="#path-1"></use>
        </mask>
        <mask id="mask-4" maskContentUnits="userSpaceOnUse" maskUnits="objectBoundingBox" x="0" y="0" width="23" height="16" fill="white">
            <use xlink:href="#path-1"></use>
        </mask>
        <linearGradient x1="50%" y1="0%" x2="50%" y2="100%" id="linearGradient-5">
            <stop stop-color="#FF202D" offset="0%"></stop>
            <stop stop-color="#FD0D1B" offset="100%"></stop>
        </linearGradient>
    </defs>
    <g id="Page-1" stroke="none" stroke-width="1" fill="none" fill-rule="evenodd">
        <g id="Flags" transform="translate(-268.000000, -411.000000)">
            <g id="HR" transform="translate(268.000000, 411.000000)">
                <mask id="mask-3" fill="white">
                    <use xlink:href="#path-1"></use>
                </mask>
                <g id="Mask" stroke="#F5F5F5" mask="url(#mask-2)" fill="#FFFFFF">
                    <use mask="url(#mask-4)" xlink:href="#path-1"></use>
                </g>
                <rect id="Rectangle-2" fill="#FF202D" mask="url(#mask-3)" x="0" y="0" width="23" height="5.33333333"></rect>
                <path d="M8.76190476,4.26666667 L9.30952381,3.73333333 L9.85714286,4.26666667 L9.85714286,5.33333333 L8.76190476,5.33333333 L8.76190476,4.26666667 Z M10.952381,4.26666667 L11.5,3.73333333 L12.047619,4.26666667 L12.047619,5.33333333 L10.952381,5.33333333 L10.952381,4.26666667 Z M13.1428571,4.26666667 L13.6904762,3.73333333 L14.2380952,4.26666667 L14.2380952,5.33333333 L13.1428571,5.33333333 L13.1428571,4.26666667 Z" id="Rectangle-675" fill="#1895DB" opacity="0.5" mask="url(#mask-3)"></path>
                <path d="M9.85714286,4.26666667 L10.4047619,3.73333333 L10.952381,4.26666667 L10.952381,5.33333333 L9.85714286,5.33333333 L9.85714286,4.26666667 Z M12.047619,4.26666667 L12.5952381,3.73333333 L13.1428571,4.26666667 L13.1428571,5.33333333 L12.047619,5.33333333 L12.047619,4.26666667 Z" id="Rectangle-675" fill="#191F94" opacity="0.5" mask="url(#mask-3)"></path>
                <rect id="Rectangle-2" fill="#2027AC" mask="url(#mask-3)" x="0" y="10.6666667" width="23" height="5.33333333"></rect>
                <path d="M10.952381,5.33333333 L12.047619,5.33333333 L12.047619,6.4 L10.952381,6.4 L10.952381,5.33333333 Z M13.1428571,5.33333333 L13.6904762,5.33333333 L14.2380952,6.4 L13.1428571,6.4 L13.1428571,5.33333333 Z M9.30952381,5.33333333 L9.85714286,5.33333333 L9.85714286,6.4 L8.76190476,6.4 L9.30952381,5.33333333 Z M9.85714286,6.4 L10.952381,6.4 L10.952381,7.46666667 L9.85714286,7.46666667 L9.85714286,6.4 Z M12.047619,6.4 L13.1428571,6.4 L13.1428571,7.46666667 L12.047619,7.46666667 L12.047619,6.4 Z M10.952381,7.46666667 L12.047619,7.46666667 L12.047619,8.53333333 L10.952381,8.53333333 L10.952381,7.46666667 Z M13.1428571,7.46666667 L14.2380952,7.46666667 L14.2380952,8.53333333 L13.1428571,8.53333333 L13.1428571,7.46666667 Z M12.047619,8.53333333 L13.1428571,8.53333333 L13.1428571,9.6 L12.047619,9.6 L12.047619,8.53333333 Z M8.76190476,7.46666667 L9.85714286,7.46666667 L9.85714286,8.53333333 L8.76190476,8.53333333 L8.76190476,7.46666667 Z M9.85714286,8.53333333 L10.952381,8.53333333 L10.952381,9.6 L9.85714286,9.6 L9.85714286,8.53333333 Z M8.76190476,9.6 L9.85714286,9.6 L9.85714286,10.6666667 L8.76190476,10.6666667 L8.76190476,9.6 Z M10.952381,9.6 L12.047619,9.6 L12.047619,10.6666667 L10.952381,10.6666667 L10.952381,9.6 Z M13.1428571,9.6 L14.2380952,9.6 L14.2380952,10.6666667 L13.1428571,10.6666667 L13.1428571,9.6 Z M12.047619,10.6666667 L13.1428571,10.6666667 L13.1428571,11.7333333 L12.047619,11.7333333 L12.047619,10.6666667 Z M9.85714286,10.6666667 L10.952381,10.6666667 L10.952381,11.7333333 L9.85714286,11.7333333 L9.85714286,10.6666667 Z" id="Rectangle-657" fill="url(#linearGradient-5)" mask="url(#mask-3)"></path>
            </g>
        </g>
    </g>
</svg>