<?xml version="1.0" encoding="UTF-8"?>
<svg width="23px" height="16px" viewBox="0 0 23 16" version="1.1" xmlns="http://www.w3.org/2000/svg" xmlns:xlink="http://www.w3.org/1999/xlink">
    <!-- Generator: Sketch 39.1 (31720) - http://www.bohemiancoding.com/sketch -->
    <title>KR</title>
    <desc>Created with Sketch.</desc>
    <defs>
        <rect id="path-1" x="0" y="0" width="23" height="16" rx="1.62"></rect>
        <mask id="mask-2" maskContentUnits="userSpaceOnUse" maskUnits="objectBoundingBox" x="0" y="0" width="23" height="16" fill="white">
            <use xlink:href="#path-1"></use>
        </mask>
        <mask id="mask-4" maskContentUnits="userSpaceOnUse" maskUnits="objectBoundingBox" x="0" y="0" width="23" height="16" fill="white">
            <use xlink:href="#path-1"></use>
        </mask>
        <ellipse id="path-5" cx="3.83333333" cy="3.73333333" rx="3.83333333" ry="3.73333333"></ellipse>
    </defs>
    <g id="Page-1" stroke="none" stroke-width="1" fill="none" fill-rule="evenodd">
        <g id="Flags" transform="translate(-229.000000, -529.000000)">
            <g id="KR" transform="translate(229.000000, 529.000000)">
                <mask id="mask-3" fill="white">
                    <use xlink:href="#path-1"></use>
                </mask>
                <g id="Mask" stroke="#F5F5F5" mask="url(#mask-2)" fill="#FFFFFF">
                    <use mask="url(#mask-4)" xlink:href="#path-1"></use>
                </g>
                <g id="Oval-9" mask="url(#mask-3)">
                    <g transform="translate(7.666667, 4.266667)">
                        <mask id="mask-6" fill="white">
                            <use xlink:href="#path-5"></use>
                        </mask>
                        <use id="Mask" stroke="none" fill="#E01B41" fill-rule="evenodd" xlink:href="#path-5"></use>
                        <path d="M-1.80966353e-14,4.26666667 C1.09523807,5.26666664 2.73809524,5.86666667 3.83333333,4.26666667 C4.92857143,2.66666667 7.11904762,2.66666661 7.66666667,4.26666667 C8.21428571,5.86666672 7.66666667,7.46666667 7.66666667,7.46666667 L-1.80966353e-14,7.46666667 C-1.80966353e-14,7.46666667 -1.09523807,3.26666669 -1.80966353e-14,4.26666667 Z" id="Rectangle-277" stroke="none" fill="#0E4B9C" fill-rule="evenodd" mask="url(#mask-6)"></path>
                    </g>
                </g>
                <path d="M15.5789352,4.19111343 C15.5035952,4.06062076 15.5440266,3.89623071 15.6818677,3.81664814 L16.1516765,3.54540391 C16.2838645,3.46908511 16.4517922,3.51246998 16.5274392,3.64349438 L17.854609,5.9422199 C17.929949,6.07271258 17.8895175,6.23710262 17.7516765,6.3166852 L17.2818677,6.58792943 C17.1496796,6.66424823 16.9817519,6.62086335 16.906105,6.48983895 L15.5789352,4.19111343 Z M17.0016912,3.39111343 C16.9263512,3.26062076 16.9667826,3.09623071 17.1046237,3.01664814 L17.5744325,2.74540391 C17.7066205,2.66908511 17.8745482,2.71246998 17.9501952,2.84349438 L19.277365,5.1422199 C19.352705,5.27271258 19.3122736,5.43710262 19.1744325,5.5166852 L18.7046237,5.78792943 C18.5724357,5.86424823 18.404508,5.82086335 18.328861,5.68983895 L17.0016912,3.39111343 Z M3.722635,10.8577801 C3.64729502,10.7272874 3.68772644,10.5628974 3.82556751,10.4833148 L4.2953763,10.2120706 C4.42756433,10.1357518 4.59549204,10.1791366 4.67113901,10.310161 L5.99830881,12.6088866 C6.07364879,12.7393792 6.03321737,12.9037693 5.8953763,12.9833519 L5.42556751,13.2545961 C5.29337947,13.3309149 5.12545177,13.28753 5.0498048,13.1565056 L3.722635,10.8577801 Z M5.14539102,10.0577801 C5.07005104,9.92728742 5.11048246,9.76289738 5.24832353,9.6833148 L5.71813232,9.41207057 C5.85032036,9.33575177 6.01824806,9.37913665 6.09389503,9.51016105 L7.42106483,11.8088866 C7.49640481,11.9393792 7.45597339,12.1037693 7.31813232,12.1833519 L6.84832353,12.4545961 C6.71613549,12.5309149 6.54820779,12.48753 6.47256082,12.3565056 L5.14539102,10.0577801 Z M16.906105,9.51016105 C16.9814449,9.37966838 17.1440266,9.33248799 17.2818677,9.41207057 L17.7516765,9.6833148 C17.8838645,9.7596336 17.930256,9.9267557 17.854609,10.0577801 L16.5274392,12.3565056 C16.4520992,12.4869983 16.2895175,12.5341787 16.1516765,12.4545961 L15.6818677,12.1833519 C15.5496796,12.1070331 15.5032882,11.939911 15.5789352,11.8088866 L16.906105,9.51016105 Z M18.328861,10.310161 C18.404201,10.1796684 18.5667826,10.132488 18.7046237,10.2120706 L19.1744325,10.4833148 C19.3066205,10.5596336 19.353012,10.7267557 19.277365,10.8577801 L17.9501952,13.1565056 C17.8748552,13.2869983 17.7122736,13.3341787 17.5744325,13.2545961 L17.1046237,12.9833519 C16.9724357,12.9070331 16.9260442,12.739911 17.0016912,12.6088866 L18.328861,10.310161 Z M5.0498048,2.84349438 C5.12514478,2.71300171 5.28772644,2.66582133 5.42556751,2.74540391 L5.8953763,3.01664814 C6.02756433,3.09296693 6.07395578,3.26008903 5.99830881,3.39111343 L4.67113901,5.68983895 C4.59579903,5.82033162 4.43321737,5.86751201 4.2953763,5.78792943 L3.82556751,5.5166852 C3.69337947,5.4403664 3.64698802,5.2732443 3.722635,5.1422199 L5.0498048,2.84349438 Z M6.47256082,3.64349438 C6.5479008,3.51300171 6.71048246,3.46582133 6.84832353,3.54540391 L7.31813232,3.81664814 C7.45032036,3.89296693 7.4967118,4.06008903 7.42106483,4.19111343 L6.09389503,6.48983895 C6.01855505,6.62033162 5.85597339,6.66751201 5.71813232,6.58792943 L5.24832353,6.3166852 C5.11613549,6.2403664 5.06974405,6.0732443 5.14539102,5.9422199 L6.47256082,3.64349438 Z" id="Rectangle-278" fill="#262626" opacity="0.75" mask="url(#mask-3)"></path>
            </g>
        </g>
    </g>
</svg>