<?xml version="1.0" encoding="UTF-8"?>
<svg width="23px" height="16px" viewBox="0 0 23 16" version="1.1" xmlns="http://www.w3.org/2000/svg" xmlns:xlink="http://www.w3.org/1999/xlink">
    <!-- Generator: Sketch 39.1 (31720) - http://www.bohemiancoding.com/sketch -->
    <title>LB</title>
    <desc>Created with Sketch.</desc>
    <defs>
        <rect id="path-1" x="0" y="0" width="23" height="16" rx="1.62"></rect>
        <mask id="mask-2" maskContentUnits="userSpaceOnUse" maskUnits="objectBoundingBox" x="0" y="0" width="23" height="16" fill="white">
            <use xlink:href="#path-1"></use>
        </mask>
        <mask id="mask-4" maskContentUnits="userSpaceOnUse" maskUnits="objectBoundingBox" x="0" y="0" width="23" height="16" fill="white">
            <use xlink:href="#path-1"></use>
        </mask>
    </defs>
    <g id="Page-1" stroke="none" stroke-width="1" fill="none" fill-rule="evenodd">
        <g id="Flags" transform="translate(-346.000000, -567.000000)">
            <g id="LB" transform="translate(346.000000, 567.000000)">
                <mask id="mask-3" fill="white">
                    <use xlink:href="#path-1"></use>
                </mask>
                <g id="Mask" stroke="#F5F5F5" mask="url(#mask-2)" fill="#FFFFFF">
                    <use mask="url(#mask-4)" xlink:href="#path-1"></use>
                </g>
                <rect id="Rectangle-2" fill="#F03340" mask="url(#mask-3)" x="0" y="0" width="23" height="4.26666667"></rect>
                <rect id="Rectangle-2" fill="#F03340" mask="url(#mask-3)" x="0" y="11.7333333" width="23" height="4.26666667"></rect>
                <path d="M10.5693198,9.97306821 C10.7808786,9.7670283 10.7791109,9.43124995 10.5661038,9.22379959 L10.7910391,9.44286698 C10.5777041,9.23509725 10.1703426,9.12374263 9.87450872,9.19577174 L8.7445389,9.47089483 C8.45168815,9.54219762 8.41643415,9.4523437 8.65756126,9.27621608 L9.96148636,8.32378383 C10.2063007,8.14496293 10.1623527,7.99999995 9.86682903,7.99999995 L9.29983763,7.99999995 C9.00274551,7.99999995 8.97994423,7.89382421 9.24804242,7.76327205 L10.4662433,7.17006119 C10.7347297,7.03931998 10.7099717,6.93333328 10.4144481,6.93333328 L9.84745668,6.93333328 C9.55036456,6.93333328 9.51167225,6.78567703 9.75279935,6.60954941 L11.0567245,5.65711716 C11.3015388,5.47829626 11.7021484,5.48098953 11.9432755,5.65711716 L13.2472006,6.60954941 C13.492015,6.78837031 13.448067,6.93333328 13.1525433,6.93333328 L12.5855519,6.93333328 C12.2884598,6.93333328 12.2656585,7.03950902 12.5337567,7.17006119 L13.7519576,7.76327205 C14.020444,7.89401326 13.995686,7.99999995 13.7001624,7.99999995 L13.133171,7.99999995 C12.8360788,7.99999995 12.7973865,8.1476562 13.0385136,8.32378383 L14.3424387,9.27621608 C14.5872531,9.45503697 14.551295,9.54292394 14.2554611,9.47089483 L13.1254913,9.19577174 C12.8326405,9.12446895 12.421968,9.23541662 12.2089609,9.44286698 L12.4338962,9.22379959 C12.2205612,9.43156931 12.21875,9.76666662 12.4306802,9.97306819 L12.759796,10.2935984 C12.9713548,10.4996383 12.9065567,10.6666666 12.6002883,10.6666666 L10.3997117,10.6666667 C10.1000592,10.6666667 10.0282738,10.5 10.240204,10.2935984 L10.5693198,9.97306821 Z" id="Rectangle-317" fill="#1FC065" mask="url(#mask-3)"></path>
            </g>
        </g>
    </g>
</svg>