<?xml version="1.0" encoding="UTF-8"?>
<svg width="23px" height="16px" viewBox="0 0 23 16" version="1.1" xmlns="http://www.w3.org/2000/svg" xmlns:xlink="http://www.w3.org/1999/xlink">
    <!-- Generator: Sketch 39.1 (31720) - http://www.bohemiancoding.com/sketch -->
    <title>ME</title>
    <desc>Created with Sketch.</desc>
    <defs>
        <rect id="path-1" x="0" y="0" width="23" height="16" rx="1.62"></rect>
    </defs>
    <g id="Page-1" stroke="none" stroke-width="1" fill="none" fill-rule="evenodd">
        <g id="Flags" transform="translate(-541.000000, -606.000000)">
            <g id="ME" transform="translate(541.000000, 606.000000)">
                <mask id="mask-2" fill="white">
                    <use xlink:href="#path-1"></use>
                </mask>
                <use id="Mask" fill="#FFFFFF" xlink:href="#path-1"></use>
                <rect id="Mask-Copy" fill="#E6BE53" mask="url(#mask-2)" x="0" y="0" width="23" height="16"></rect>
                <rect id="Rectangle-2" fill="#E01826" mask="url(#mask-2)" x="1.0952381" y="1.06666667" width="20.8095238" height="13.8666667" rx="0.81"></rect>
                <path d="M11.1137228,5.49046631 C11.3270578,5.69823603 11.6732701,5.69791667 11.8862772,5.49046631 L11.6613419,5.70953369 C11.8746769,5.50176397 12.21875,5.16666667 12.4306802,4.9602651 L12.759796,4.6397349 C12.9713548,4.43369501 13.3540301,4.3694987 13.6264326,4.50214691 L13.7545197,4.56451976 C14.0215911,4.6945719 14.0648251,4.96875 13.8518181,5.17620036 L14.0767533,4.95713298 C13.8634184,5.1649027 13.5193452,5.5 13.3074151,5.70640157 L12.9782992,6.02693176 C12.7667404,6.23297166 12.706057,6.61585592 12.8434114,6.88339844 L12.8946838,6.98326823 C13.0317462,7.25024181 13.1428571,7.70836589 13.1428571,8 L13.1428571,7.46666667 C13.1428571,7.76121853 13.3540301,7.89716797 13.6264326,7.76451976 L13.7545197,7.70214691 C14.0215911,7.57209476 14.0648251,7.29791667 13.8518181,7.09046631 L14.0767533,7.30953369 C13.8634184,7.10176397 13.8637463,6.76458333 14.0767533,6.55713298 L13.8518181,6.77620036 C14.0651531,6.56843064 14.3489141,6.18414408 14.4862685,5.91660156 L14.537541,5.81673177 C14.6746033,5.54975819 14.8443191,5.1050293 14.9182776,4.81691284 L15.20077,3.71642049 C15.2739827,3.43120933 15.4849447,3.396875 15.66579,3.63171183 L16.6437338,4.9016215 C16.8273446,5.14004936 16.9761905,5.57805379 16.9761905,5.87166341 L16.9761905,6.92833659 C16.9761905,7.22564808 16.8653716,7.68252258 16.7280172,7.9500651 L16.6767447,8.0499349 C16.5396824,8.31690848 16.2574405,8.7 16.0455103,8.90640157 L15.7163945,9.22693176 C15.5048356,9.43297166 15.1221604,9.70283203 14.8497578,9.83548024 L14.7216707,9.89785309 C14.4545994,10.0279052 14.0058234,10.1333333 13.6904762,10.1333333 C13.3880345,10.1333333 13.3540301,10.2361654 13.6264326,10.3688136 L13.7545197,10.4311864 C14.0215911,10.5612386 14.4113653,10.8354167 14.6243724,11.042867 L14.3994371,10.8237996 C14.6127721,11.0315694 14.9589844,11.03125 15.1719914,10.8237996 L14.9470562,11.042867 C15.1603912,10.8350973 15.5066034,10.8354167 15.7196105,11.042867 L15.4946752,10.8237996 C15.7080102,11.0315694 15.7701335,11.4158559 15.6327791,11.6833984 L15.5815066,11.7832682 C15.4444443,12.0502418 15.1010615,12.2666667 14.7857143,12.2666667 C14.4832726,12.2666667 14.0269223,12.1638346 13.7545197,12.0311864 L13.6264326,11.9688136 C13.3593613,11.8387614 13.0320383,11.5174774 12.8946838,11.2499349 L12.8434114,11.1500651 C12.7063491,10.8830915 12.421968,10.8354167 12.2089609,11.042867 L12.4338962,10.8237996 C12.2205612,11.0315694 12.1819167,11.3961914 12.3527039,11.6456892 L12.8377723,12.3543108 C13.006266,12.6004581 12.9414106,12.9307943 12.6939392,13.0914714 L11.9489179,13.5751953 C11.7009874,13.7361705 11.2985535,13.7358724 11.0510821,13.5751953 L10.3060608,13.0914714 C10.0581303,12.9304962 9.99144055,12.6038086 10.1622277,12.3543108 L10.6472961,11.6456892 C10.8157898,11.3995419 10.7791109,11.03125 10.5661038,10.8237996 L10.7910391,11.042867 C10.5777041,10.8350973 10.293943,10.8825226 10.1565886,11.1500651 L10.1053162,11.2499349 C9.96825383,11.5169085 9.64596994,11.8361654 9.37356735,11.9688136 L9.24548026,12.0311864 C8.97840889,12.1612386 8.52963293,12.2666667 8.21428571,12.2666667 C7.91184407,12.2666667 7.55584778,12.0508108 7.41849336,11.7832682 L7.36722092,11.6833984 C7.23015859,11.4164249 7.29231771,11.03125 7.50532477,10.8237996 L7.28038951,11.042867 C7.49372449,10.8350973 7.83993676,10.8354167 8.05294382,11.042867 L7.82800856,10.8237996 C8.04134354,11.0315694 8.3875558,11.03125 8.60056287,10.8237996 L8.37562761,11.042867 C8.58896259,10.8350973 8.97307768,10.5638346 9.24548026,10.4311864 L9.37356735,10.3688136 C9.64063873,10.2387614 9.62487103,10.1333333 9.30952381,10.1333333 C9.00708216,10.1333333 8.55073184,10.0305013 8.27832926,9.89785309 L8.15024217,9.83548024 C7.88317079,9.7054281 7.49553571,9.43333333 7.28360553,9.22693176 L6.95448971,8.90640157 C6.74293088,8.70036167 6.46060969,8.31747742 6.32325527,8.0499349 L6.27198283,7.9500651 C6.1349205,7.68309152 6.02380952,7.22194621 6.02380952,6.92833659 L6.02380952,5.87166341 C6.02380952,5.57435192 6.17542085,5.13645833 6.35626618,4.9016215 L7.33421001,3.63171183 C7.51782075,3.39328397 7.7252715,3.42830404 7.79922996,3.71642049 L8.08172242,4.81691284 C8.15493511,5.102124 8.3251046,5.54918925 8.46245902,5.81673177 L8.51373146,5.91660156 C8.65079379,6.18357515 8.93517485,6.56875 9.14818192,6.77620036 L8.92324666,6.55713298 C9.13658164,6.7649027 9.13625372,7.10208333 8.92324666,7.30953369 L9.14818192,7.09046631 C8.93484693,7.29823603 8.97307768,7.5694987 9.24548026,7.70214691 L9.37356735,7.76451976 C9.64063873,7.8945719 9.85714286,7.75830078 9.85714286,7.46666667 L9.85714286,8 C9.85714286,7.70544813 9.96796174,7.25081075 10.1053162,6.98326823 L10.1565886,6.88339844 C10.2936509,6.61642485 10.233631,6.23333333 10.0217008,6.02693176 L9.69258495,5.70640157 C9.48102612,5.50036167 9.13625372,5.16458333 8.92324666,4.95713298 L9.14818192,5.17620036 C8.93484693,4.96843064 8.97307768,4.69716797 9.24548026,4.56451976 L9.37356735,4.50214691 C9.64063873,4.37209476 10.0282738,4.43333333 10.240204,4.6397349 L10.5693198,4.9602651 C10.7808786,5.16630499 11.125651,5.50208333 11.3386581,5.70953369 L11.1137228,5.49046631 Z M10.240204,3.57306824 C10.0286452,3.36702834 10.0855751,3.12584229 10.3769531,3.03125 L10.9801897,2.83541667 C11.267273,2.74221862 11.7284322,2.74082438 12.0198103,2.83541667 L12.6230469,3.03125 C12.9101302,3.12444805 12.9717262,3.36666667 12.759796,3.57306824 L12.4306802,3.89359843 C12.2191214,4.09963833 11.8153472,4.26666667 11.5,4.26666667 C11.1975584,4.26666667 10.78125,4.1 10.5693198,3.89359843 L10.240204,3.57306824 Z" id="Line" fill="#E6BE53" mask="url(#mask-2)"></path>
                <path d="M10.4047619,9.59276244 C10.4047619,9.8913115 10.4879564,9.91086019 10.6069103,9.62708333 C10.6069103,9.62708333 10.952381,8.53333333 11.5,8.53333333 C12.047619,8.53333333 12.3930897,9.62708333 12.3930897,9.62708333 C12.5047332,9.90667749 12.5952381,9.89671764 12.5952381,9.59428985 L12.5952381,9.06666667 C12.5952381,8.18301107 12.1048833,7.46666667 11.5,7.46666667 C10.8951167,7.46666667 10.4047619,8.18301107 10.4047619,9.06666667 L10.4047619,9.59276244 Z" id="Oval-205" fill="#215F90" mask="url(#mask-2)"></path>
            </g>
        </g>
    </g>
</svg>