<?xml version="1.0" encoding="UTF-8"?>
<svg width="23px" height="16px" viewBox="0 0 23 16" version="1.1" xmlns="http://www.w3.org/2000/svg" xmlns:xlink="http://www.w3.org/1999/xlink">
    <!-- Generator: Sketch 39.1 (31720) - http://www.bohemiancoding.com/sketch -->
    <title>MK</title>
    <desc>Created with Sketch.</desc>
    <defs>
        <rect id="path-1" x="0" y="0" width="23" height="16" rx="1.62"></rect>
    </defs>
    <g id="Page-1" stroke="none" stroke-width="1" fill="none" fill-rule="evenodd">
        <g id="Flags" transform="translate(-424.000000, -606.000000)">
            <g id="MK" transform="translate(424.000000, 606.000000)">
                <mask id="mask-2" fill="white">
                    <use xlink:href="#path-1"></use>
                </mask>
                <use id="Mask" fill="#FFFFFF" xlink:href="#path-1"></use>
                <rect id="Mask-Copy" fill="#E81B26" mask="url(#mask-2)" x="0" y="0" width="23" height="16"></rect>
                <ellipse id="Oval-12" fill="#FFE94F" mask="url(#mask-2)" cx="11.5" cy="8" rx="2.73809524" ry="2.66666667"></ellipse>
                <path d="M8.98141261,5.1854779 L1.58268191,-3.08260569 L-0.558536033,-0.704542245 L8.42016951,5.77680188 C8.58502551,5.56054015 8.77332699,5.36224355 8.98141261,5.1854779 Z M7.70471328,7.47196011 L0,6.4 L0,9.6 L7.70471328,8.52803989 C7.67963694,8.35553804 7.66666667,8.17924419 7.66666667,8 C7.66666667,7.82075581 7.67963694,7.64446196 7.70471328,7.47196011 Z M8.98141261,10.8145221 L1.58268191,19.0826057 L-0.558536033,16.7045422 L8.42016951,10.2231981 C8.58502551,10.4394599 8.77332699,10.6377565 8.98141261,10.8145221 Z M10.7480769,4.33846161 L9.85714286,-3.06421555e-14 L13.1428571,-3.06421555e-14 L12.2519231,4.33846161 C12.0087804,4.29136535 11.7573518,4.26666667 11.5,4.26666667 C11.2426482,4.26666667 10.9912196,4.29136535 10.7480769,4.33846161 Z M14.5798305,5.77680188 L23.558536,-0.704542245 L21.4173181,-3.08260569 L14.0185874,5.1854779 C14.226673,5.36224355 14.4149745,5.56054015 14.5798305,5.77680188 Z M15.2952867,8.52803989 L23,9.6 L23,6.4 L15.2952867,7.47196011 C15.3203631,7.64446196 15.3333333,7.82075581 15.3333333,8 C15.3333333,8.17924419 15.3203631,8.35553804 15.2952867,8.52803989 Z M14.0185874,10.8145221 L21.4173181,19.0826057 L23.558536,16.7045422 L14.5798305,10.2231981 C14.4149745,10.4394599 14.226673,10.6377565 14.0185874,10.8145221 Z M12.2519231,11.6615384 L13.1428571,16 L9.85714286,16 L10.7480769,11.6615384 C10.9912196,11.7086346 11.2426482,11.7333333 11.5,11.7333333 C11.7573518,11.7333333 12.0087804,11.7086346 12.2519231,11.6615384 Z" id="Rectangle-346" fill="#FFE94F" mask="url(#mask-2)"></path>
            </g>
        </g>
    </g>
</svg>