<?xml version="1.0" encoding="UTF-8"?>
<svg width="23px" height="16px" viewBox="0 0 23 16" version="1.1" xmlns="http://www.w3.org/2000/svg" xmlns:xlink="http://www.w3.org/1999/xlink">
    <!-- Generator: Sketch 39.1 (31720) - http://www.bohemiancoding.com/sketch -->
    <title>PH</title>
    <desc>Created with Sketch.</desc>
    <defs>
        <rect id="path-1" x="0" y="0" width="23" height="16" rx="1.62"></rect>
        <mask id="mask-2" maskContentUnits="userSpaceOnUse" maskUnits="objectBoundingBox" x="0" y="0" width="23" height="16" fill="white">
            <use xlink:href="#path-1"></use>
        </mask>
        <mask id="mask-4" maskContentUnits="userSpaceOnUse" maskUnits="objectBoundingBox" x="0" y="0" width="23" height="16" fill="white">
            <use xlink:href="#path-1"></use>
        </mask>
    </defs>
    <g id="Page-1" stroke="none" stroke-width="1" fill="none" fill-rule="evenodd">
        <g id="Flags" transform="translate(-268.000000, -723.000000)">
            <g id="PH" transform="translate(268.000000, 723.000000)">
                <mask id="mask-3" fill="white">
                    <use xlink:href="#path-1"></use>
                </mask>
                <g id="Mask" stroke="#F5F5F5" mask="url(#mask-2)" fill="#FFFFFF">
                    <use mask="url(#mask-4)" xlink:href="#path-1"></use>
                </g>
                <path d="M10.2222222,7.46666667 L23,7.46666667 L23,16 L0,16 L0,11.7333333 L0,16 L10.952381,8 L10.2222222,7.46666667 Z" id="Combined-Shape" fill="#DD1C34" mask="url(#mask-3)"></path>
                <path d="M10.2222222,7.46666667 L23,7.46666667 L23,0 L0,0 L0,3.73333333 L0,0 L10.2222222,7.46666667 Z" id="Combined-Shape" fill="#0D4BC3" mask="url(#mask-3)"></path>
                <path d="M3.72277613,9.06129957 L2.78550965,10.4636788 L3.14096704,8.82653564 C3.08376745,8.78103389 3.03137889,8.730012 2.98465834,8.67430456 L1.30366318,9.02048915 L2.7436061,8.1076731 C2.73996161,8.07226391 2.73809524,8.03634423 2.73809524,8 C2.73809524,7.96365577 2.73996161,7.92773609 2.7436061,7.8923269 L1.30366318,6.97951085 L2.98465834,7.32569544 C3.03137889,7.269988 3.08376745,7.21896611 3.14096704,7.17346436 L2.78550965,5.53632125 L3.72277613,6.93870043 C3.75913378,6.93515102 3.7960156,6.93333333 3.83333333,6.93333333 C3.87065107,6.93333333 3.90753288,6.93515102 3.94389054,6.93870043 L4.88115702,5.53632125 L4.52569963,7.17346436 C4.58289922,7.21896611 4.63528777,7.269988 4.68200832,7.32569544 L6.36300348,6.97951085 L4.92306057,7.8923269 C4.92670506,7.92773609 4.92857143,7.96365577 4.92857143,8 C4.92857143,8.03634423 4.92670506,8.07226391 4.92306057,8.1076731 L6.36300348,9.02048915 L4.68200832,8.67430456 C4.63528777,8.730012 4.58289922,8.78103389 4.52569963,8.82653564 L4.88115702,10.4636788 L3.94389054,9.06129957 C3.90753288,9.06484898 3.87065107,9.06666667 3.83333333,9.06666667 C3.7960156,9.06666667 3.75913378,9.06484898 3.72277613,9.06129957 Z M8.21428571,8.53333333 C8.51672736,8.53333333 8.76190476,8.29455187 8.76190476,8 C8.76190476,7.70544813 8.51672736,7.46666667 8.21428571,7.46666667 C7.91184407,7.46666667 7.66666667,7.70544813 7.66666667,8 C7.66666667,8.29455187 7.91184407,8.53333333 8.21428571,8.53333333 Z M1.64285714,3.2 C1.94529879,3.2 2.19047619,2.96121853 2.19047619,2.66666667 C2.19047619,2.3721148 1.94529879,2.13333333 1.64285714,2.13333333 C1.34041549,2.13333333 1.0952381,2.3721148 1.0952381,2.66666667 C1.0952381,2.96121853 1.34041549,3.2 1.64285714,3.2 Z M1.64285714,13.8666667 C1.94529879,13.8666667 2.19047619,13.6278852 2.19047619,13.3333333 C2.19047619,13.0387815 1.94529879,12.8 1.64285714,12.8 C1.34041549,12.8 1.0952381,13.0387815 1.0952381,13.3333333 C1.0952381,13.6278852 1.34041549,13.8666667 1.64285714,13.8666667 Z" id="Oval-206" fill="#FDD64D" mask="url(#mask-3)"></path>
            </g>
        </g>
    </g>
</svg>