<?xml version="1.0" encoding="UTF-8"?>
<svg width="23px" height="16px" viewBox="0 0 23 16" version="1.1" xmlns="http://www.w3.org/2000/svg" xmlns:xlink="http://www.w3.org/1999/xlink">
    <!-- Generator: Sketch 39.1 (31720) - http://www.bohemiancoding.com/sketch -->
    <title>SG</title>
    <desc>Created with Sketch.</desc>
    <defs>
        <linearGradient x1="50%" y1="0%" x2="50%" y2="100%" id="linearGradient-1">
            <stop stop-color="#FFFFFF" offset="0%"></stop>
            <stop stop-color="#F0F0F0" offset="100%"></stop>
        </linearGradient>
        <rect id="path-2" x="0" y="0" width="23" height="16" rx="1.62"></rect>
        <mask id="mask-3" maskContentUnits="userSpaceOnUse" maskUnits="objectBoundingBox" x="0" y="0" width="23" height="16" fill="white">
            <use xlink:href="#path-2"></use>
        </mask>
        <mask id="mask-5" maskContentUnits="userSpaceOnUse" maskUnits="objectBoundingBox" x="0" y="0" width="23" height="16" fill="white">
            <use xlink:href="#path-2"></use>
        </mask>
    </defs>
    <g id="Page-1" stroke="none" stroke-width="1" fill="none" fill-rule="evenodd">
        <g id="Flags" transform="translate(-152.000000, -839.000000)">
            <g id="SG" transform="translate(152.000000, 839.000000)">
                <mask id="mask-4" fill="white">
                    <use xlink:href="#path-2"></use>
                </mask>
                <g id="Mask" stroke="#F5F5F5" mask="url(#mask-3)" fill="#FFFFFF">
                    <use mask="url(#mask-5)" xlink:href="#path-2"></use>
                </g>
                <rect id="Rectangle-2" fill="#E12237" mask="url(#mask-4)" x="0" y="0" width="23" height="8.53333333"></rect>
                <path d="M7.52826688,6.76598155 C6.96598357,7.20444446 6.25252991,7.46666667 5.47619048,7.46666667 C3.66154058,7.46666667 2.19047619,6.03397787 2.19047619,4.26666667 C2.19047619,2.49935547 3.66154058,1.06666667 5.47619048,1.06666667 C6.25252991,1.06666667 6.96598357,1.32888887 7.52826688,1.76735178 C7.23041228,1.65914728 6.90801274,1.6 6.57142857,1.6 C5.05922033,1.6 3.83333333,2.79390733 3.83333333,4.26666667 C3.83333333,5.739426 5.05922033,6.93333333 6.57142857,6.93333333 C6.90801274,6.93333333 7.23041228,6.87418605 7.52826688,6.76598155 Z M6.02380952,4.26666667 C6.32625117,4.26666667 6.57142857,4.0278852 6.57142857,3.73333333 C6.57142857,3.43878147 6.32625117,3.2 6.02380952,3.2 C5.72136788,3.2 5.47619048,3.43878147 5.47619048,3.73333333 C5.47619048,4.0278852 5.72136788,4.26666667 6.02380952,4.26666667 Z M7.11904762,6.4 C7.42148927,6.4 7.66666667,6.16121853 7.66666667,5.86666667 C7.66666667,5.5721148 7.42148927,5.33333333 7.11904762,5.33333333 C6.81660597,5.33333333 6.57142857,5.5721148 6.57142857,5.86666667 C6.57142857,6.16121853 6.81660597,6.4 7.11904762,6.4 Z M9.30952381,6.4 C9.61196546,6.4 9.85714286,6.16121853 9.85714286,5.86666667 C9.85714286,5.5721148 9.61196546,5.33333333 9.30952381,5.33333333 C9.00708216,5.33333333 8.76190476,5.5721148 8.76190476,5.86666667 C8.76190476,6.16121853 9.00708216,6.4 9.30952381,6.4 Z M10.4047619,4.26666667 C10.7072036,4.26666667 10.952381,4.0278852 10.952381,3.73333333 C10.952381,3.43878147 10.7072036,3.2 10.4047619,3.2 C10.1023203,3.2 9.85714286,3.43878147 9.85714286,3.73333333 C9.85714286,4.0278852 10.1023203,4.26666667 10.4047619,4.26666667 Z M8.21428571,2.66666667 C8.51672736,2.66666667 8.76190476,2.4278852 8.76190476,2.13333333 C8.76190476,1.83878147 8.51672736,1.6 8.21428571,1.6 C7.91184407,1.6 7.66666667,1.83878147 7.66666667,2.13333333 C7.66666667,2.4278852 7.91184407,2.66666667 8.21428571,2.66666667 Z" id="Oval-12" fill="#FFFFFF" mask="url(#mask-4)"></path>
            </g>
        </g>
    </g>
</svg>