<?xml version="1.0" encoding="UTF-8"?>
<svg width="23px" height="16px" viewBox="0 0 23 16" version="1.1" xmlns="http://www.w3.org/2000/svg" xmlns:xlink="http://www.w3.org/1999/xlink">
    <!-- Generator: Sketch 39.1 (31720) - http://www.bohemiancoding.com/sketch -->
    <title>SI</title>
    <desc>Created with Sketch.</desc>
    <defs>
        <rect id="path-1" x="0" y="0" width="23" height="16" rx="1.62"></rect>
        <mask id="mask-2" maskContentUnits="userSpaceOnUse" maskUnits="objectBoundingBox" x="0" y="0" width="23" height="16" fill="white">
            <use xlink:href="#path-1"></use>
        </mask>
        <mask id="mask-4" maskContentUnits="userSpaceOnUse" maskUnits="objectBoundingBox" x="0" y="0" width="23" height="16" fill="white">
            <use xlink:href="#path-1"></use>
        </mask>
        <rect id="path-5" x="0" y="10.6666667" width="23" height="5.33333333"></rect>
        <filter x="-50%" y="-50%" width="200%" height="200%" filterUnits="objectBoundingBox" id="filter-6">
            <feMorphology radius="0.5" operator="dilate" in="SourceAlpha" result="shadowSpreadOuter1"></feMorphology>
            <feOffset dx="0" dy="0" in="shadowSpreadOuter1" result="shadowOffsetOuter1"></feOffset>
            <feColorMatrix values="0 0 0 0 0   0 0 0 0 0   0 0 0 0 0  0 0 0 0.06 0" type="matrix" in="shadowOffsetOuter1"></feColorMatrix>
        </filter>
    </defs>
    <g id="Page-1" stroke="none" stroke-width="1" fill="none" fill-rule="evenodd">
        <g id="Flags" transform="translate(-229.000000, -839.000000)">
            <g id="SI" transform="translate(229.000000, 839.000000)">
                <mask id="mask-3" fill="white">
                    <use xlink:href="#path-1"></use>
                </mask>
                <g id="Mask" stroke="#F5F5F5" mask="url(#mask-2)" fill="#FFFFFF">
                    <use mask="url(#mask-4)" xlink:href="#path-1"></use>
                </g>
                <path d="M0,10.6666667 L23,10.6666667 L23,0 L0,0 L0,10.6666667 Z M0,5.33333333 L4.38095238,5.33333333 L4.38095238,4.26666667 C4.38095238,4.26666667 5.2267452,3.73333333 6.02380952,3.73333333 C6.82087385,3.73333333 7.59326753,4.26666667 7.59326753,4.26666667 L7.59326753,5.33333333 L23,5.33333333 L23,0 L0,0 L0,5.33333333 Z M6.02380952,7.46666667 C6.62869282,7.46666667 7.11904762,6.98910373 7.11904762,6.4 C7.11904762,5.81089627 6.62869282,5.33333333 6.02380952,5.33333333 C5.41892623,5.33333333 4.92857143,5.81089627 4.92857143,6.4 C4.92857143,6.98910373 5.41892623,7.46666667 6.02380952,7.46666667 Z" id="Combined-Shape" fill="#0C47B7" mask="url(#mask-3)"></path>
                <g id="Rectangle-2" mask="url(#mask-3)">
                    <use fill="black" fill-opacity="1" filter="url(#filter-6)" xlink:href="#path-5"></use>
                    <use fill="#E53B35" fill-rule="evenodd" xlink:href="#path-5"></use>
                </g>
            </g>
        </g>
    </g>
</svg>