<?xml version="1.0" encoding="UTF-8"?>
<svg width="23px" height="16px" viewBox="0 0 23 16" version="1.1" xmlns="http://www.w3.org/2000/svg" xmlns:xlink="http://www.w3.org/1999/xlink">
    <!-- Generator: Sketch 39.1 (31720) - http://www.bohemiancoding.com/sketch -->
    <title>TN</title>
    <desc>Created with Sketch.</desc>
    <defs>
        <rect id="path-1" x="0" y="0" width="23" height="16" rx="1.62"></rect>
    </defs>
    <g id="Page-1" stroke="none" stroke-width="1" fill="none" fill-rule="evenodd">
        <g id="Flags" transform="translate(-385.000000, -878.000000)">
            <g id="TN" transform="translate(385.000000, 878.000000)">
                <mask id="mask-2" fill="white">
                    <use xlink:href="#path-1"></use>
                </mask>
                <use id="Mask" fill="#FFFFFF" xlink:href="#path-1"></use>
                <rect id="Mask-Copy" fill="#E92434" mask="url(#mask-2)" x="0" y="0" width="23" height="16"></rect>
                <path d="M12.987721,11.4417528 C12.5302792,11.6295311 12.0275864,11.7333333 11.5,11.7333333 C9.38290846,11.7333333 7.66666667,10.0618631 7.66666667,8 C7.66666667,5.93813693 9.38290846,4.26666667 11.5,4.26666667 C12.0275864,4.26666667 12.5302792,4.37046889 12.987721,4.55824722 C11.2241106,4.76454642 9.85714286,6.22680142 9.85714286,8 C9.85714286,9.77319858 11.2241106,11.2354536 12.987721,11.4417528 Z M11.5,12.8 C14.2219748,12.8 16.4285714,10.6509668 16.4285714,8 C16.4285714,5.3490332 14.2219748,3.2 11.5,3.2 C8.77802516,3.2 6.57142857,5.3490332 6.57142857,8 C6.57142857,10.6509668 8.77802516,12.8 11.5,12.8 Z M13.4266204,8.93608183 L12.4143214,10.1327629 L12.4930363,8.59105687 L11.028379,8.03484727 L12.5520447,7.61222725 L12.6591357,6.07178975 L13.522098,7.35230224 L15.0529412,6.9564691 L14.0626156,8.17048936 L14.9016376,9.46628853 L13.4266204,8.93608183 Z" id="Oval-41" fill="#FFFFFF" mask="url(#mask-2)"></path>
            </g>
        </g>
    </g>
</svg>