<?xml version="1.0" encoding="UTF-8"?>
<svg width="23px" height="16px" viewBox="0 0 23 16" version="1.1" xmlns="http://www.w3.org/2000/svg" xmlns:xlink="http://www.w3.org/1999/xlink">
    <!-- Generator: Sketch 39.1 (31720) - http://www.bohemiancoding.com/sketch -->
    <title>US</title>
    <desc>Created with Sketch.</desc>
    <defs>
        <rect id="path-1" x="0" y="0" width="23" height="16" rx="1.62"></rect>
        <linearGradient x1="50%" y1="0%" x2="50%" y2="100%" id="linearGradient-3">
            <stop stop-color="#FFFFFF" offset="0%"></stop>
            <stop stop-color="#F0F0F0" offset="100%"></stop>
        </linearGradient>
        <path d="M1.64285714,2.13333333 C1.94529879,2.13333333 2.19047619,1.89455187 2.19047619,1.6 C2.19047619,1.30544813 1.94529879,1.06666667 1.64285714,1.06666667 C1.34041549,1.06666667 1.0952381,1.30544813 1.0952381,1.6 C1.0952381,1.89455187 1.34041549,2.13333333 1.64285714,2.13333333 Z M3.83333333,2.13333333 C4.13577498,2.13333333 4.38095238,1.89455187 4.38095238,1.6 C4.38095238,1.30544813 4.13577498,1.06666667 3.83333333,1.06666667 C3.53089168,1.06666667 3.28571429,1.30544813 3.28571429,1.6 C3.28571429,1.89455187 3.53089168,2.13333333 3.83333333,2.13333333 Z M6.02380952,2.13333333 C6.32625117,2.13333333 6.57142857,1.89455187 6.57142857,1.6 C6.57142857,1.30544813 6.32625117,1.06666667 6.02380952,1.06666667 C5.72136788,1.06666667 5.47619048,1.30544813 5.47619048,1.6 C5.47619048,1.89455187 5.72136788,2.13333333 6.02380952,2.13333333 Z M8.21428571,2.13333333 C8.51672736,2.13333333 8.76190476,1.89455187 8.76190476,1.6 C8.76190476,1.30544813 8.51672736,1.06666667 8.21428571,1.06666667 C7.91184407,1.06666667 7.66666667,1.30544813 7.66666667,1.6 C7.66666667,1.89455187 7.91184407,2.13333333 8.21428571,2.13333333 Z M2.73809524,3.2 C3.04053689,3.2 3.28571429,2.96121853 3.28571429,2.66666667 C3.28571429,2.3721148 3.04053689,2.13333333 2.73809524,2.13333333 C2.43565359,2.13333333 2.19047619,2.3721148 2.19047619,2.66666667 C2.19047619,2.96121853 2.43565359,3.2 2.73809524,3.2 Z M4.92857143,3.2 C5.23101308,3.2 5.47619048,2.96121853 5.47619048,2.66666667 C5.47619048,2.3721148 5.23101308,2.13333333 4.92857143,2.13333333 C4.62612978,2.13333333 4.38095238,2.3721148 4.38095238,2.66666667 C4.38095238,2.96121853 4.62612978,3.2 4.92857143,3.2 Z M7.11904762,3.2 C7.42148927,3.2 7.66666667,2.96121853 7.66666667,2.66666667 C7.66666667,2.3721148 7.42148927,2.13333333 7.11904762,2.13333333 C6.81660597,2.13333333 6.57142857,2.3721148 6.57142857,2.66666667 C6.57142857,2.96121853 6.81660597,3.2 7.11904762,3.2 Z M8.21428571,4.26666667 C8.51672736,4.26666667 8.76190476,4.0278852 8.76190476,3.73333333 C8.76190476,3.43878147 8.51672736,3.2 8.21428571,3.2 C7.91184407,3.2 7.66666667,3.43878147 7.66666667,3.73333333 C7.66666667,4.0278852 7.91184407,4.26666667 8.21428571,4.26666667 Z M6.02380952,4.26666667 C6.32625117,4.26666667 6.57142857,4.0278852 6.57142857,3.73333333 C6.57142857,3.43878147 6.32625117,3.2 6.02380952,3.2 C5.72136788,3.2 5.47619048,3.43878147 5.47619048,3.73333333 C5.47619048,4.0278852 5.72136788,4.26666667 6.02380952,4.26666667 Z M3.83333333,4.26666667 C4.13577498,4.26666667 4.38095238,4.0278852 4.38095238,3.73333333 C4.38095238,3.43878147 4.13577498,3.2 3.83333333,3.2 C3.53089168,3.2 3.28571429,3.43878147 3.28571429,3.73333333 C3.28571429,4.0278852 3.53089168,4.26666667 3.83333333,4.26666667 Z M1.64285714,4.26666667 C1.94529879,4.26666667 2.19047619,4.0278852 2.19047619,3.73333333 C2.19047619,3.43878147 1.94529879,3.2 1.64285714,3.2 C1.34041549,3.2 1.0952381,3.43878147 1.0952381,3.73333333 C1.0952381,4.0278852 1.34041549,4.26666667 1.64285714,4.26666667 Z M2.73809524,5.33333333 C3.04053689,5.33333333 3.28571429,5.09455187 3.28571429,4.8 C3.28571429,4.50544813 3.04053689,4.26666667 2.73809524,4.26666667 C2.43565359,4.26666667 2.19047619,4.50544813 2.19047619,4.8 C2.19047619,5.09455187 2.43565359,5.33333333 2.73809524,5.33333333 Z M4.92857143,5.33333333 C5.23101308,5.33333333 5.47619048,5.09455187 5.47619048,4.8 C5.47619048,4.50544813 5.23101308,4.26666667 4.92857143,4.26666667 C4.62612978,4.26666667 4.38095238,4.50544813 4.38095238,4.8 C4.38095238,5.09455187 4.62612978,5.33333333 4.92857143,5.33333333 Z M7.11904762,5.33333333 C7.42148927,5.33333333 7.66666667,5.09455187 7.66666667,4.8 C7.66666667,4.50544813 7.42148927,4.26666667 7.11904762,4.26666667 C6.81660597,4.26666667 6.57142857,4.50544813 6.57142857,4.8 C6.57142857,5.09455187 6.81660597,5.33333333 7.11904762,5.33333333 Z M8.21428571,6.4 C8.51672736,6.4 8.76190476,6.16121853 8.76190476,5.86666667 C8.76190476,5.5721148 8.51672736,5.33333333 8.21428571,5.33333333 C7.91184407,5.33333333 7.66666667,5.5721148 7.66666667,5.86666667 C7.66666667,6.16121853 7.91184407,6.4 8.21428571,6.4 Z M6.02380952,6.4 C6.32625117,6.4 6.57142857,6.16121853 6.57142857,5.86666667 C6.57142857,5.5721148 6.32625117,5.33333333 6.02380952,5.33333333 C5.72136788,5.33333333 5.47619048,5.5721148 5.47619048,5.86666667 C5.47619048,6.16121853 5.72136788,6.4 6.02380952,6.4 Z M3.83333333,6.4 C4.13577498,6.4 4.38095238,6.16121853 4.38095238,5.86666667 C4.38095238,5.5721148 4.13577498,5.33333333 3.83333333,5.33333333 C3.53089168,5.33333333 3.28571429,5.5721148 3.28571429,5.86666667 C3.28571429,6.16121853 3.53089168,6.4 3.83333333,6.4 Z M1.64285714,6.4 C1.94529879,6.4 2.19047619,6.16121853 2.19047619,5.86666667 C2.19047619,5.5721148 1.94529879,5.33333333 1.64285714,5.33333333 C1.34041549,5.33333333 1.0952381,5.5721148 1.0952381,5.86666667 C1.0952381,6.16121853 1.34041549,6.4 1.64285714,6.4 Z" id="path-4"></path>
        <filter x="-50%" y="-50%" width="200%" height="200%" filterUnits="objectBoundingBox" id="filter-5">
            <feOffset dx="0" dy="1" in="SourceAlpha" result="shadowOffsetOuter1"></feOffset>
            <feColorMatrix values="0 0 0 0 0   0 0 0 0 0   0 0 0 0 0  0 0 0 0.06 0" type="matrix" in="shadowOffsetOuter1"></feColorMatrix>
        </filter>
    </defs>
    <g id="Page-1" stroke="none" stroke-width="1" fill="none" fill-rule="evenodd">
        <g id="Flags" transform="translate(-229.000000, -917.000000)">
            <g id="US" transform="translate(229.000000, 917.000000)">
                <mask id="mask-2" fill="white">
                    <use xlink:href="#path-1"></use>
                </mask>
                <use id="Mask" fill="#FFFFFF" xlink:href="#path-1"></use>
                <path d="M0,0 L23,0 L23,1.06666667 L0,1.06666667 L0,0 Z M0,2.13333333 L23,2.13333333 L23,3.2 L0,3.2 L0,2.13333333 Z M0,4.26666667 L23,4.26666667 L23,5.33333333 L0,5.33333333 L0,4.26666667 Z M0,6.4 L23,6.4 L23,7.46666667 L0,7.46666667 L0,6.4 Z M0,8.53333333 L23,8.53333333 L23,9.6 L0,9.6 L0,8.53333333 Z M0,10.6666667 L23,10.6666667 L23,11.7333333 L0,11.7333333 L0,10.6666667 Z M0,12.8 L23,12.8 L23,13.8666667 L0,13.8666667 L0,12.8 Z M0,14.9333333 L23,14.9333333 L23,16 L0,16 L0,14.9333333 Z" id="Rectangle-511" fill="#D02F44" mask="url(#mask-2)"></path>
                <rect id="Rectangle-511" fill="#46467F" mask="url(#mask-2)" x="0" y="0" width="9.85714286" height="7.46666667"></rect>
                <g id="Oval-43" mask="url(#mask-2)">
                    <use fill="black" fill-opacity="1" filter="url(#filter-5)" xlink:href="#path-4"></use>
                    <use fill="url(#linearGradient-3)" fill-rule="evenodd" xlink:href="#path-4"></use>
                </g>
            </g>
        </g>
    </g>
</svg>