<?xml version="1.0" encoding="UTF-8"?>
<svg width="23px" height="16px" viewBox="0 0 23 16" version="1.1" xmlns="http://www.w3.org/2000/svg" xmlns:xlink="http://www.w3.org/1999/xlink">
    <!-- Generator: Sketch 39.1 (31720) - http://www.bohemiancoding.com/sketch -->
    <title>UZ</title>
    <desc>Created with Sketch.</desc>
    <defs>
        <rect id="path-1" x="0" y="0" width="23" height="16" rx="1.62"></rect>
        <mask id="mask-2" maskContentUnits="userSpaceOnUse" maskUnits="objectBoundingBox" x="0" y="0" width="23" height="16" fill="white">
            <use xlink:href="#path-1"></use>
        </mask>
        <mask id="mask-4" maskContentUnits="userSpaceOnUse" maskUnits="objectBoundingBox" x="0" y="0" width="23" height="16" fill="white">
            <use xlink:href="#path-1"></use>
        </mask>
    </defs>
    <g id="Page-1" stroke="none" stroke-width="1" fill="none" fill-rule="evenodd">
        <g id="Flags" transform="translate(-268.000000, -917.000000)">
            <g id="UZ" transform="translate(268.000000, 917.000000)">
                <mask id="mask-3" fill="white">
                    <use xlink:href="#path-1"></use>
                </mask>
                <g id="Mask" stroke="#F5F5F5" mask="url(#mask-2)" fill="#FFFFFF">
                    <use mask="url(#mask-4)" xlink:href="#path-1"></use>
                </g>
                <rect id="Rectangle-2" fill="#04AAC8" mask="url(#mask-3)" x="0" y="0" width="23" height="5.33333333"></rect>
                <rect id="Rectangle-2" fill="#23C840" mask="url(#mask-3)" x="0" y="10.6666667" width="23" height="5.33333333"></rect>
                <path d="M4.74628978,3.99706748 C4.48518898,4.16735296 4.1711698,4.26666667 3.83333333,4.26666667 C2.92600839,4.26666667 2.19047619,3.55032227 2.19047619,2.66666667 C2.19047619,1.78301107 2.92600839,1.06666667 3.83333333,1.06666667 C4.1711698,1.06666667 4.48518898,1.16598038 4.74628978,1.33626586 C4.71603846,1.33432111 4.68551862,1.33333333 4.6547619,1.33333333 C3.89865778,1.33333333 3.28571429,1.930287 3.28571429,2.66666667 C3.28571429,3.40304633 3.89865778,4 4.6547619,4 C4.68551862,4 4.71603846,3.99901223 4.74628978,3.99706748 Z M6.02380952,4.26666667 C6.32625117,4.26666667 6.57142857,4.0278852 6.57142857,3.73333333 C6.57142857,3.43878147 6.32625117,3.2 6.02380952,3.2 C5.72136788,3.2 5.47619048,3.43878147 5.47619048,3.73333333 C5.47619048,4.0278852 5.72136788,4.26666667 6.02380952,4.26666667 Z M8.21428571,2.13333333 C8.51672736,2.13333333 8.76190476,1.89455187 8.76190476,1.6 C8.76190476,1.30544813 8.51672736,1.06666667 8.21428571,1.06666667 C7.91184407,1.06666667 7.66666667,1.30544813 7.66666667,1.6 C7.66666667,1.89455187 7.91184407,2.13333333 8.21428571,2.13333333 Z M10.4047619,2.13333333 C10.7072036,2.13333333 10.952381,1.89455187 10.952381,1.6 C10.952381,1.30544813 10.7072036,1.06666667 10.4047619,1.06666667 C10.1023203,1.06666667 9.85714286,1.30544813 9.85714286,1.6 C9.85714286,1.89455187 10.1023203,2.13333333 10.4047619,2.13333333 Z M10.4047619,4.26666667 C10.7072036,4.26666667 10.952381,4.0278852 10.952381,3.73333333 C10.952381,3.43878147 10.7072036,3.2 10.4047619,3.2 C10.1023203,3.2 9.85714286,3.43878147 9.85714286,3.73333333 C9.85714286,4.0278852 10.1023203,4.26666667 10.4047619,4.26666667 Z M8.21428571,4.26666667 C8.51672736,4.26666667 8.76190476,4.0278852 8.76190476,3.73333333 C8.76190476,3.43878147 8.51672736,3.2 8.21428571,3.2 C7.91184407,3.2 7.66666667,3.43878147 7.66666667,3.73333333 C7.66666667,4.0278852 7.91184407,4.26666667 8.21428571,4.26666667 Z" id="Oval-68" fill="#FFFFFF" mask="url(#mask-3)"></path>
            </g>
        </g>
    </g>
</svg>