<svg xmlns="http://www.w3.org/2000/svg" xmlns:xlink="http://www.w3.org/1999/xlink" width="19" height="19" version="1.1" style=""><rect id="backgroundrect" width="100%" height="100%" x="0" y="0" fill="none" stroke="none"/>
    <!-- Generator: sketchtool 49.3 (51167) - http://www.bohemiancoding.com/sketch -->
    <title>632257FB-805B-46BD-BD35-F0345A746733</title>
    <desc>Created with sketchtool.</desc>
    <defs>
        <polygon id="path-1" points="0 0.188395496 18.8344302 0.188395496 18.8344302 19 0 19"/>
    </defs>
    
<g class="currentLayer" style=""><title>Layer 1</title><g id="Page-1" stroke="none" stroke-width="1" fill="#000000" fill-rule="evenodd" class="" fill-opacity="1">
        <g id="Voz-y-SMS" fill="#000000" fill-opacity="1">
            <g id="Page-1" fill="#000000" fill-opacity="1">
                <g id="Group-3" fill="#000000" fill-opacity="1">
                    <mask id="mask-2" fill="white" transform="translate(0.00001049041748046875,-0.000011444091796875) translate(701.0006103515625,929.9998168945312) translate(0,0.8118000030517578) translate(-701,-931) ">
                        <use xlink:href="#path-1" id="svg_1"/>
                    </mask>
                    <g id="Clip-2" fill="#000000" fill-opacity="1"/>
                    <path d="M13.373020841979951,7.7820054534912515 C13.373020841979951,7.324005453491168 13.390020841980004,6.945005453491262 13.370020841980022,6.56700545349122 C13.275020841979995,4.783005453491228 12.212020841980006,3.3610054534912024 10.61702084197998,2.8680054534912642 C9.024020841980018,2.3760054534911887 7.352020841979993,2.8890054534912224 6.324020841979973,4.189005453491177 C5.639020841980027,5.054005453491186 5.444020841979977,6.058005453491205 5.452020841980016,7.13600545349118 C5.453020841979992,7.367005453491174 5.332020841980012,7.7400054534912215 5.168020841980024,7.808005453491205 C4.677020841979925,8.01100545349118 4.556020841979944,8.362005453491179 4.556020841979944,8.821005453491239 C4.556020841979944,10.677005453491233 4.550020841979972,12.532005453491252 4.560020841979963,14.388005453491246 C4.564020841979982,15.143005453491241 4.788020841980028,15.35900545349125 5.551020841979948,15.361005453491202 C8.121020841979998,15.367005453491174 10.690020841979958,15.367005453491174 13.259020841980032,15.362005453491179 C14.112020841979984,15.360005453491226 14.299020841979996,15.170005453491171 14.303020841980015,14.295005453491171 C14.31202084198003,12.487005453491179 14.29802084198002,10.67800545349121 14.310020841979963,8.871005453491193 C14.313020841980006,8.267005453491265 14.124020841979927,7.844005453491263 13.373020841979951,7.7820054534912515 M0.000020841980017394238,9.363005453491155 C0.01302084197993736,4.154005453491209 4.2250208419799264,-0.0049945465087830624 9.486020841980007,0.000005453491212392698 C14.65902084198001,0.005005453491207845 18.848020841979974,4.2260054534912115 18.83502084197994,9.422005453491238 C18.823020841979996,14.586005453491225 14.581020841980035,18.819005453491172 9.426020841979948,18.812005453491224 C4.221020841980022,18.804005453491186 -0.010979158020063553,14.561005453491248 0.000020841980017394238,9.363005453491155 z" id="Fill-1" fill="#000000" mask="url(#mask-2)" fill-opacity="1"/>
                </g>
                <path d="M7.15522084197994,7.772205450439401 C7.034220841979959,6.550205450439421 7.027220841980011,5.414205450439454 8.17922084197994,4.685205450439412 C8.997220841979924,4.168205450439473 9.849220841980014,4.162205450439501 10.663220841979978,4.6842054504394355 C11.80522084198003,5.417205450439496 11.80822084197996,6.550205450439421 11.686220841980003,7.772205450439401 L7.15522084197994,7.772205450439401 z" id="Fill-4" fill="#000000" fill-opacity="1"/>
                <path d="M8.727920841979994,12.47000545043943 C8.618920841979957,12.045005450439476 8.42392084198002,11.619005450439431 8.42692084197995,11.195005450439453 C8.428920841980016,10.792005450439433 8.518920841979934,10.235005450439417 8.78792084197994,10.032005450439442 C9.06292084198003,9.824005450439472 9.70492084197997,9.80400545043949 9.994920841979933,9.994005450439431 C10.277920841979949,10.17900545043949 10.428920841980016,10.733005450439464 10.43792084198003,11.129005450439422 C10.45092084197995,11.72400545043945 10.236920841980009,12.322005450439406 10.217920841980003,12.922005450439428 C10.199920841979974,13.469005450439454 10.084920841979965,13.741005450439502 9.457920841980012,13.741005450439502 C8.841920841980027,13.739005450439436 8.567920841980026,13.542005450439433 8.637920841979962,12.920005450439476 C8.652920841979949,12.7790054504394 8.639920841980029,12.636005450439484 8.639920841980029,12.493005450439455 C8.668920841980025,12.486005450439507 8.698920841979998,12.478005450439468 8.727920841979994,12.47000545043943 " id="Fill-6" fill="#000000" fill-opacity="1"/>
            </g>
        </g>
    </g></g></svg>