<?xml version="1.0" encoding="UTF-8"?>
<svg width="19px" height="19px" viewBox="0 0 19 19" version="1.1" xmlns="http://www.w3.org/2000/svg" xmlns:xlink="http://www.w3.org/1999/xlink">
    <!-- Generator: sketchtool 49.3 (51167) - http://www.bohemiancoding.com/sketch -->
    <title>5044E879-3879-4742-BC3E-77B9B0A7F951</title>
    <desc>Created with sketchtool.</desc>
    <defs>
        <polygon id="path-1" points="0 0.188395496 18.8344302 0.188395496 18.8344302 19 0 19"></polygon>
    </defs>
    <g id="Page-1" stroke="none" stroke-width="1" fill="none" fill-rule="evenodd">
        <g id="Mensaje-de-voz" transform="translate(-702.000000, -929.000000)">
            <g id="Page-1" transform="translate(702.000000, 928.000000)">
                <g id="Group-3" transform="translate(0.000000, 0.811800)">
                    <mask id="mask-2" fill="white">
                        <use xlink:href="#path-1"></use>
                    </mask>
                    <g id="Clip-2"></g>
                    <path d="M13.3724,7.9704 C13.3724,7.5124 13.3894,7.1334 13.3694,6.7554 C13.2744,4.9714 12.2114,3.5494 10.6164,3.0564 C9.0234,2.5644 7.3514,3.0774 6.3234,4.3774 C5.6384,5.2424 5.4434,6.2464 5.4514,7.3244 C5.4524,7.5554 5.3314,7.9284 5.1674,7.9964 C4.6764,8.1994 4.5554,8.5504 4.5554,9.0094 C4.5554,10.8654 4.5494,12.7204 4.5594,14.5764 C4.5634,15.3314 4.7874,15.5474 5.5504,15.5494 C8.1204,15.5554 10.6894,15.5554 13.2584,15.5504 C14.1114,15.5484 14.2984,15.3584 14.3024,14.4834 C14.3114,12.6754 14.2974,10.8664 14.3094,9.0594 C14.3124,8.4554 14.1234,8.0324 13.3724,7.9704 M9.4254,19.0004 C4.2204,18.9924 -0.0116,14.7494 -0.0006,9.5514 C0.0124,4.3424 4.2244,0.1834 9.4854,0.1884 C14.6584,0.1934 18.8474,4.4144 18.8344,9.6104 C18.8224,14.7744 14.5804,19.0074 9.4254,19.0004" id="Fill-1" fill="#4A90E2" mask="url(#mask-2)"></path>
                </g>
                <path d="M7.1546,8.7724 C7.0336,7.5504 7.0266,6.4144 8.1786,5.6854 C8.9966,5.1684 9.8486,5.1624 10.6626,5.6844 C11.8046,6.4174 11.8076,7.5504 11.6856,8.7724 L7.1546,8.7724 Z" id="Fill-4" fill="#4A90E2"></path>
                <path d="M8.7273,13.4702 C8.6183,13.0452 8.4233,12.6192 8.4263,12.1952 C8.4283,11.7922 8.5183,11.2352 8.7873,11.0322 C9.0623,10.8242 9.7043,10.8042 9.9943,10.9942 C10.2773,11.1792 10.4283,11.7332 10.4373,12.1292 C10.4503,12.7242 10.2363,13.3222 10.2173,13.9222 C10.1993,14.4692 10.0843,14.7412 9.4573,14.7412 C8.8413,14.7392 8.5673,14.5422 8.6373,13.9202 C8.6523,13.7792 8.6393,13.6362 8.6393,13.4932 C8.6683,13.4862 8.6983,13.4782 8.7273,13.4702" id="Fill-6" fill="#4A90E2"></path>
            </g>
        </g>
    </g>
</svg>