<?xml version="1.0" encoding="UTF-8"?>
<svg width="20px" height="23px" viewBox="0 0 20 23" version="1.1" xmlns="http://www.w3.org/2000/svg" xmlns:xlink="http://www.w3.org/1999/xlink">
    <!-- Generator: Sketch 48.2 (47327) - http://www.bohemiancoding.com/sketch -->
    <title>Circle-icons-calendar</title>
    <desc>Created with Sketch.</desc>
    <defs></defs>
    <g id="Page-1" stroke="none" stroke-width="1" fill="none" fill-rule="evenodd">
        <g id="Circle-icons-calendar" fill-rule="nonzero">
            <g id="Group">
                <g opacity="0.2" transform="translate(0.000000, 8.500000)" fill="#231F20" id="Shape">
                    <path d="M0,0 L0,12.5 C0,13.6 0.9,14.5 2,14.5 L18,14.5 C19.1,14.5 20,13.6 20,12.5 L20,0 L0,0 Z"></path>
                </g>
                <path d="M0,7.5 L0,20 C0,21.1 0.9,22 2,22 L18,22 C19.1,22 20,21.1 20,20 L20,7.5 L0,7.5 Z" id="Shape" fill="#FFFFFF"></path>
                <g opacity="0.2" transform="translate(0.000000, 3.000000)" fill="#231F20" id="Shape">
                    <path d="M18,0 L2,0 C0.9,0 0,0.9 0,2 L0,5.5 L20,5.5 L20,2 C20,0.9 19.1,0 18,0 Z"></path>
                </g>
                <path d="M18,2 L2,2 C0.9,2 0,2.9 0,4 L0,7.5 L20,7.5 L20,4 C20,2.9 19.1,2 18,2 Z" id="Shape" fill="#C75C5C"></path>
                <path d="M10,20 C9.45,20 9,19.55 9,19 C9,16.25 9.9,14.25 10.75,13 L7.5,13 C6.95,13 6.5,12.55 6.5,12 C6.5,11.45 6.95,11 7.5,11 L13,11 C13.45,11 13.8,11.3 13.95,11.7 C14.1,12.1 13.95,12.55 13.6,12.8 C13.5,12.9 11,14.75 11,19 C11,19.55 10.55,20 10,20 Z" id="Shape" fill="#4F5D73"></path>
                <g opacity="0.2" transform="translate(3.000000, 1.000000)" fill="#231F20" id="Shape">
                    <path d="M1,5.5 C0.45,5.5 0,5.05 0,4.5 L0,1 C0,0.45 0.45,0 1,0 C1.55,0 2,0.45 2,1 L2,4.5 C2,5.05 1.55,5.5 1,5.5 Z"></path>
                </g>
                <g opacity="0.2" transform="translate(15.500000, 1.000000)" fill="#231F20" id="Shape">
                    <path d="M1,5.5 C0.45,5.5 0,5.05 0,4.5 L0,1 C0,0.45 0.45,0 1,0 C1.55,0 2,0.45 2,1 L2,4.5 C2,5.05 1.55,5.5 1,5.5 Z"></path>
                </g>
                <path d="M4,5.5 C3.45,5.5 3,5.05 3,4.5 L3,1 C3,0.45 3.45,0 4,0 C4.55,0 5,0.45 5,1 L5,4.5 C5,5.05 4.55,5.5 4,5.5 Z" id="Shape" fill="#E0E0D1"></path>
                <path d="M16.5,5.5 C15.95,5.5 15.5,5.05 15.5,4.5 L15.5,1 C15.5,0.45 15.95,0 16.5,0 C17.05,0 17.5,0.45 17.5,1 L17.5,4.5 C17.5,5.05 17.05,5.5 16.5,5.5 Z" id="Shape" fill="#E0E0D1"></path>
            </g>
        </g>
    </g>
</svg>