<?xml version="1.0" encoding="UTF-8"?>
<svg width="19px" height="19px" viewBox="0 0 19 19" version="1.1" xmlns="http://www.w3.org/2000/svg" xmlns:xlink="http://www.w3.org/1999/xlink">
    <!-- Generator: sketchtool 49.3 (51167) - http://www.bohemiancoding.com/sketch -->
    <title>F6CF5481-CB63-41C8-8E0A-F9DCED5FAC50</title>
    <desc>Created with sketchtool.</desc>
    <defs>
        <polygon id="path-1" points="0.712509091 0.230545455 15.9359072 0.230545455 15.9359072 15.4910545 0.712509091 15.4910545"></polygon>
    </defs>
    <g id="Page-1" stroke="none" stroke-width="1" fill="none" fill-rule="evenodd">
        <g id="Voz-y-SMS" transform="translate(-701.000000, -863.000000)">
            <g id="Page-1" transform="translate(701.000000, 863.000000)">
                <path d="M2.57260131,5.00678265 C2.91127473,4.96759987 3.36478989,5.10141277 3.62153799,5.32468071 C4.32668091,5.93608 4.95794475,6.63397713 5.61261583,7.30378095 C6.19048192,7.8959585 6.04930704,8.61455597 5.66601358,9.1446325 C5.08961044,9.94307413 5.37708054,10.4502324 5.95421515,11.0032272 C6.83856971,11.8497232 7.70829475,12.7102658 8.57801979,13.5730264 C8.85817512,13.8517417 9.10175665,13.8325199 9.42580054,13.6151664 C9.72936311,13.4103809 10.0833975,13.2625213 10.435969,13.1568017 C10.938493,13.005985 11.3920082,13.1139224 11.7774961,13.5227541 C12.359751,14.143025 12.9588299,14.7492492 13.5732698,15.3377303 C13.9938686,15.7406476 14.0735994,16.2049266 13.9419338,16.7416568 C13.4723261,18.6549595 11.3846934,19.5761246 9.63207679,18.616516 C7.93870971,17.6894366 6.45161887,16.4747703 5.06839764,15.1292483 C3.32894756,13.4377349 1.74676484,11.6124086 0.555921808,9.47731651 C0.296979281,9.01377679 0.181406064,8.4696536 0,7.9624953 C0.0914345078,6.45506706 1.14037118,5.17386396 2.57260131,5.00678265 Z" id="Fill-1" fill="#FFFFFF"></path>
                <g id="Group-5" transform="translate(3.000000, 0.000000)">
                    <mask id="mask-2" fill="white">
                        <use xlink:href="#path-1"></use>
                    </mask>
                    <g id="Clip-4"></g>
                    <path d="M0.712509091,3.71069091 C2.04778182,1.38196364 5.75541818,-0.1824 8.76705455,0.326690909 C12.4070545,0.942690909 15.1008727,3.57323636 15.8026909,7.19723636 C16.4056,10.3077818 14.9066909,13.9768727 12.4252364,15.4910545 C12.1685091,15.0859636 11.9125091,14.6816 11.6259636,14.2299636 C13.6150545,12.6234182 14.6070545,10.5150545 14.3372364,7.90196364 C14.1510545,6.08378182 13.3125091,4.57250909 11.9154182,3.39432727 C9.09869091,1.01832727 4.61432727,1.14123636 1.92850909,4.55214545 C1.50378182,4.25832727 1.10887273,3.98487273 0.712509091,3.71069091 Z" id="Fill-3" fill="#FFFFFF" mask="url(#mask-2)"></path>
                </g>
                <path d="M11.2177659,7.84896223 L12.6532484,7.84896223 C13.5412446,7.84896223 14.4292408,7.84501426 15.3164024,7.85212061 C15.6819497,7.85527899 15.9648733,7.99345802 15.997422,8.37878012 C16.0283016,8.76410222 15.7787613,8.98281989 15.4107102,8.98676786 C13.8091457,9.00492853 12.2075812,9.00413894 10.6060167,8.98597826 C10.2304544,8.98203029 10.0059516,8.74120398 10.0042824,8.37483215 C9.99927493,6.78537849 9.99760576,5.19750402 10.005117,3.60883996 C10.0067862,3.25273285 10.1928982,3.00480019 10.5951671,3.00006263 C11.0291502,2.99532506 11.2119238,3.2598392 11.2144276,3.63805495 C11.2211042,4.82560503 11.2177659,6.01236551 11.2177659,7.19912599 L11.2177659,7.84896223 Z" id="Fill-6" fill="#FFFFFF"></path>
            </g>
        </g>
    </g>
</svg>