<?xml version="1.0" encoding="UTF-8"?>
<svg width="20px" height="27px" viewBox="0 0 20 27" version="1.1" xmlns="http://www.w3.org/2000/svg" xmlns:xlink="http://www.w3.org/1999/xlink">
    <!-- Generator: Sketch 48.2 (47327) - http://www.bohemiancoding.com/sketch -->
    <title>Group</title>
    <desc>Created with Sketch.</desc>
    <defs>
        <linearGradient x1="4.24998921%" y1="50.0619108%" x2="103.198466%" y2="49.5635078%" id="linearGradient-1">
            <stop stop-color="#F0BAA2" offset="0%"></stop>
            <stop stop-color="#F5CFAC" offset="39.85%"></stop>
            <stop stop-color="#F8DDB2" offset="75.52%"></stop>
            <stop stop-color="#F9E2B5" offset="100%"></stop>
        </linearGradient>
        <linearGradient x1="65.6957268%" y1="104.494064%" x2="36.002619%" y2="-4.66733375%" id="linearGradient-2">
            <stop stop-color="#F0BAA2" offset="0%"></stop>
            <stop stop-color="#F5CFAC" offset="39.85%"></stop>
            <stop stop-color="#F8DDB2" offset="75.52%"></stop>
            <stop stop-color="#F9E2B5" offset="100%"></stop>
        </linearGradient>
        <linearGradient x1="49.999845%" y1="100.000325%" x2="49.999845%" y2="0.00113782286%" id="linearGradient-3">
            <stop stop-color="#F0BAA2" offset="0%"></stop>
            <stop stop-color="#F1C0A4" offset="8.45%"></stop>
            <stop stop-color="#F6D6AB" offset="46.27%"></stop>
            <stop stop-color="#F9E3AE" offset="78.14%"></stop>
            <stop stop-color="#FAE7AF" offset="100%"></stop>
        </linearGradient>
        <linearGradient x1="5.53421183%" y1="92.6961048%" x2="99.9681373%" y2="0.043853771%" id="linearGradient-4">
            <stop stop-color="#F0BAA2" offset="0%"></stop>
            <stop stop-color="#F5CFAC" offset="39.85%"></stop>
            <stop stop-color="#F8DDB2" offset="75.52%"></stop>
            <stop stop-color="#F9E2B5" offset="100%"></stop>
        </linearGradient>
        <linearGradient x1="50.0032353%" y1="99.9993339%" x2="50.0032353%" y2="-0.00049960864%" id="linearGradient-5">
            <stop stop-color="#EC9500" offset="0%"></stop>
            <stop stop-color="#E8810B" offset="6.37%"></stop>
            <stop stop-color="#E26614" offset="16.27%"></stop>
            <stop stop-color="#DE4F18" offset="27.14%"></stop>
            <stop stop-color="#DC3A1A" offset="39.14%"></stop>
            <stop stop-color="#DA281B" offset="52.88%"></stop>
            <stop stop-color="#D9191B" offset="69.89%"></stop>
            <stop stop-color="#D9121B" offset="100%"></stop>
        </linearGradient>
        <linearGradient x1="50.0002741%" y1="100.000359%" x2="50.0002741%" y2="0.000449155587%" id="linearGradient-6">
            <stop stop-color="#E42E18" offset="0%"></stop>
            <stop stop-color="#FDD403" offset="100%"></stop>
        </linearGradient>
        <linearGradient x1="-0.000954889317%" y1="49.999905%" x2="99.9994483%" y2="49.999905%" id="linearGradient-7">
            <stop stop-color="#E42E18" offset="0%"></stop>
            <stop stop-color="#FDD403" offset="100%"></stop>
        </linearGradient>
        <linearGradient x1="100.000657%" y1="49.9998465%" x2="-0.00347230841%" y2="49.9998465%" id="linearGradient-8">
            <stop stop-color="#CB2F21" offset="0%"></stop>
            <stop stop-color="#CC3721" offset="9.55%"></stop>
            <stop stop-color="#CF4C21" offset="23.88%"></stop>
            <stop stop-color="#D56920" offset="41.2%"></stop>
            <stop stop-color="#DE8F1C" offset="60.85%"></stop>
            <stop stop-color="#EABA0F" offset="82.18%"></stop>
            <stop stop-color="#F5DE00" offset="100%"></stop>
        </linearGradient>
        <linearGradient x1="-14.0292303%" y1="40.4436359%" x2="128.839768%" y2="57.5183851%" id="linearGradient-9">
            <stop stop-color="#EEAB0C" offset="0%"></stop>
            <stop stop-color="#EA8912" offset="21.99%"></stop>
            <stop stop-color="#E66415" offset="46.63%"></stop>
            <stop stop-color="#E54517" offset="68.74%"></stop>
            <stop stop-color="#E42D18" offset="87.28%"></stop>
            <stop stop-color="#E32119" offset="100%"></stop>
        </linearGradient>
    </defs>
    <g id="Page-1" stroke="none" stroke-width="1" fill="none" fill-rule="evenodd">
        <g id="Group">
            <path d="M5.52700695,12.5080786 C3.4670196,15.6419825 3.80175411,20.0769945 10.6705278,21.7347027 C11.5927939,21.9572909 14.474036,21.7709593 15.6783818,20.0203148 C17.5215708,17.3414546 15.38878,15.118556 13.9689791,13.4684204 L15.6485619,12.8639902 C16.0945164,13.1827273 16.5498736,13.4815003 16.9995891,13.8477382 C19.3800727,15.7888448 20.752323,19.1343221 18.5547882,22.8350226 C16.3572535,26.5361821 11.8775601,26.8248583 10.3556732,26.8248583 C8.83459229,26.8248583 4.05831226,26.0866457 2.32607459,22.8538393 C0.0436472819,18.5941442 1.70066372,14.5742476 2.96894753,13.4913676 C3.09171934,13.3862693 3.22120733,13.2607479 3.35472503,13.1203108 L4.30385588,12.7565972 L4.55987674,12.8545819 C4.15368205,13.492515 3.85628951,13.8165299 3.85628951,13.8165299 C4.12278761,13.4961865 4.89219343,12.6654967 5.12833439,12.3575448 L5.52700695,12.5080786 L5.52700695,12.5080786 Z" id="Shape-Copy-51" fill="#FCE1D2"></path>
            <path d="M5.04424779,12.9525666 C2.98426043,16.0864704 4.91234197,20.1233479 10.5359355,21.3244062 C11.4657238,21.5228997 14.3394437,21.3606628 15.5437895,19.6100183 C17.3869785,16.9311581 15.2541877,14.7082595 13.8343869,13.0581238 L14.9713021,12.6514988 C15.4172566,12.9702359 15.8726138,13.2690089 16.3223293,13.6352468 C18.7028129,15.5763534 20.6174621,18.7240255 18.420196,22.4247261 C16.2226612,26.1258855 11.7429678,26.4145617 10.2210809,26.4145617 C8.7,26.4145617 3.92371997,25.6763492 2.1914823,22.4435428 C-0.0909450063,18.1838476 1.56607143,14.1639511 2.83435525,13.0810711 C2.95712705,12.9759727 3.08661504,12.8504514 3.22013274,12.7100143 L4.16926359,12.3463006 L4.42528445,12.4442853 C4.01908976,13.0822184 3.72169722,13.4062334 3.72169722,13.4062334 C3.98819532,13.08589 4.23857459,12.7712834 4.47471555,12.4633315 L5.04424779,12.9525666 L5.04424779,12.9525666 Z" id="Shape-Copy-52" fill="#FACCB0"></path>
            <path d="M3.67414665,10.2530539 C3.64083439,9.14080142 3.43908028,7.98976814 2.92730721,7.06751878 C2.92730721,7.06751878 3.14222503,8.61783395 3.04121365,10.4632506 L3.67414665,10.2530539 L3.67414665,10.2530539 Z" id="Shape-Copy-53" fill="url(#linearGradient-1)"></path>
            <path d="M6.60858091,10.4825262 C6.51240518,8.80737811 5.54608091,7.07141981 3.44445322,6.2466962 C2.86659292,6.0192891 3.13953856,6.20562065 3.13953856,6.20562065 C4.04783502,8.05608565 4.19182996,9.12749203 4.04756637,10.1174357 L6.60858091,10.4825262 L6.60858091,10.4825262 Z" id="Shape-Copy-54" fill="url(#linearGradient-2)"></path>
            <path d="M2.26267383,4.20531021 C2.26267383,4.20531021 6.38533502,6.52619352 6.07424147,10.5970329 C6.07424147,10.5970329 5.60410872,13.6949096 4.11284766,15.189463 C2.64012326,16.6656586 0.449304678,18.3226784 0.449304678,18.3226784 C0.449304678,18.3226784 -0.856858407,16.4873586 1.58998104,12.3676416 C4.03682048,8.24792453 2.26267383,4.20531021 2.26267383,4.20531021 L2.26267383,4.20531021 Z" id="Shape-Copy-55" fill="url(#linearGradient-3)" opacity="0.6"></path>
            <path d="M2.24010746,4.05248163 C2.24010746,4.05248163 6.36276865,6.37336493 6.05167509,10.4442043 C6.05167509,10.4442043 5.71586599,13.6951391 4.09028129,15.0366344 C2.45744311,16.3843255 0.426738306,18.1696203 0.426738306,18.1696203 C0.426738306,18.1696203 -0.879424779,16.3343005 1.56741466,12.2145835 C4.01425411,8.09486647 2.24010746,4.05248163 2.24010746,4.05248163 L2.24010746,4.05248163 Z" id="Shape-Copy-56"></path>
            <path d="M5.89666561,1.77359176 C7.07790771,3.36750668 9.3426043,4.8028562 6.41945322,10.8763008 L5.03377054,10.5892309 C7.70385588,4.31017907 5.89666561,1.77359176 5.89666561,1.77359176 L5.89666561,1.77359176 L5.89666561,1.77359176 Z" id="Shape-Copy-57" fill="#FDF3DA"></path>
            <path d="M5.91359039,2.33556954 C6.96238938,3.99557249 8.85554678,4.91759237 5.59766119,10.5655952 L4.23857459,10.1975216 C7.41156764,4.09149193 5.91359039,2.33556954 5.91359039,2.33556954 L5.91359039,2.33556954 L5.91359039,2.33556954 Z" id="Shape-Copy-58" fill="#FACCB0"></path>
            <path d="M17.3560841,17.3880375 C17.1715234,16.0488369 16.2675253,15.6289025 14.1597187,14.2791462 C13.601201,13.9209399 13.0870101,13.4438669 12.6719501,12.8912974 L15.1480721,12.0385782 C15.6421144,12.5000471 15.9720133,12.8600892 16.608976,13.5443757 C18.5698325,15.6532266 17.3560841,17.3880375 17.3560841,17.3880375 L17.3560841,17.3880375 L17.3560841,17.3880375 Z" id="Shape-Copy-59" fill="#FEF5DD"></path>
            <path d="M11.9834071,11.7932723 C11.2937895,10.4834441 11.1911662,8.91706589 12.2378161,7.48699423 C12.575237,7.02621376 12.4661662,7.30984158 12.4661662,7.30984158 C12.8492573,9.06599344 13.3897756,10.3136346 14.0280815,11.0383083 L11.9834071,11.7932723 L11.9834071,11.7932723 Z" id="Shape-Copy-60" fill="#FDF3DA"></path>
            <path d="M15.9918932,12.7389278 C14.5814949,11.2473576 14.1573009,10.7702846 13.5066372,8.58937938 C12.8554362,6.40870367 14.0901391,3.24221477 17.4487674,2.47371189 C18.0631637,2.3325864 17.7571745,2.47715397 17.7571745,2.47715397 C15.3414981,5.7255645 16.2610777,6.55258284 16.2398546,9.32942769 C16.2194374,12.0225151 16.0141909,12.9493539 16.0141909,12.9493539 L15.9918932,12.7389278 L15.9918932,12.7389278 Z" id="Shape-Copy-61" fill="url(#linearGradient-4)"></path>
            <path d="M2.40586283,15.7532765 C3.10945006,15.309936 3.82888748,14.8477787 4.40191214,14.2784578 C4.67378319,14.0088278 4.86398546,13.5003171 5.08212705,13.1070014 C5.15949747,12.9672528 5.06869469,12.8116705 5.11275284,12.6879849 C5.08911188,12.5691183 5.06708281,12.4481863 5.04720291,12.3249597 L3.8670354,11.8731286 L2.12136536,12.5418111 C1.93573009,13.472092 1.89194058,14.6582345 2.16542351,15.8996799 C2.24574905,15.8508023 2.32661188,15.8033015 2.40586283,15.7532765 L2.40586283,15.7532765 L2.40586283,15.7532765 Z M4.97063843,10.9359636 C5.013622,10.4097835 5.15842288,9.89048758 5.47596397,9.42098716 C8.43726296,5.03806535 6.29399494,3.0478517 4.53945954,2.12055395 C4.53945954,2.12055395 6.51939001,6.23797625 3.86488622,10.493082 L3.87751264,10.4751831 L3.88825853,10.5213071 L4.97063843,10.9359636 L4.97063843,10.9359636 Z M3.8318426,10.5268144 C4.28370733,9.49579514 5.13612516,5.87449205 4.02446271,3.5490193 C4.02446271,3.5490193 4.37128635,8.256415 2.70701643,10.9579929 L3.8318426,10.5268144 L3.8318426,10.5268144 Z" id="Shape-Copy-62" fill="url(#linearGradient-5)"></path>
            <path d="M7.53433944,0.0137683408 C8.36016119,1.77841068 11.1782712,5.44744402 5.75562579,11.2370313 L4.3960019,10.7158996 C8.53854298,4.65094551 7.53433944,0.0137683408 7.53433944,0.0137683408 L7.53433944,0.0137683408 L7.53433944,0.0137683408 Z M4.84625474,12.2480865 C2.65033186,15.1947409 4.16201011,19.284397 9.70715866,20.4684743 C10.6369469,20.6669679 13.5106669,20.5047309 14.7155499,18.7536275 C16.400237,16.3042396 14.76122,14.2357759 13.3827908,12.6386484 L14.608897,12.2001267 C14.8692162,12.3832457 15.1615044,12.5693477 15.4935525,12.7793149 C17.8745733,14.7197331 19.7892225,17.8678642 17.5914191,21.5687942 C15.393347,25.2694947 10.9141909,25.5586299 9.39230405,25.5586299 C7.87122314,25.5586299 3.09440582,24.8204173 1.36270544,21.5876109 C-0.681969027,17.7707974 0.492825537,14.1958477 1.67057522,12.7146037 L3.39636536,12.0534939 C3.13550885,12.4231739 2.96411188,12.6104233 2.96411188,12.6104233 C3.12207649,12.4206497 3.27359355,12.2320234 3.42108091,12.0440855 L3.8670354,11.8728992 L4.84625474,12.2480865 L4.84625474,12.2480865 Z M12.5056574,11.5929429 C11.3109829,9.93339891 12.4033028,8.01432168 12.4033028,8.01432168 C12.7264855,9.65504895 13.05128,10.5633005 13.5472029,11.2202798 L12.5056574,11.5929429 L12.5056574,11.5929429 Z M3.48985461,10.6580726 C4.43495575,9.38037055 5.28844817,7.95397045 5.28844817,7.95397045 C4.98084703,9.04189884 4.59963654,9.94372516 4.23481353,10.6546305 L3.88798989,10.521766 L3.86461757,10.5075387 L3.84608091,10.521766 L3.48985461,10.6580726 L3.48985461,10.6580726 Z" id="Shape-Copy-63" fill="url(#linearGradient-6)"></path>
            <path d="M7.66006637,1.77818121 C8.48024652,3.52974362 10.5993363,5.72281083 6.24644437,11.4249692 L4.94511694,10.9265552 C8.91411188,5.17001195 7.66006637,1.77818121 7.66006637,1.77818121 L7.66006637,1.77818121 L7.66006637,1.77818121 Z M4.17248736,11.9899301 L5.44963654,12.4791651 C3.38964918,15.6130689 4.61011378,19.6499464 10.233976,20.8510047 C11.1637642,21.0494983 14.0374842,20.8872613 15.24183,19.1366168 C17.085019,16.4577566 14.9522282,14.234858 13.5324273,12.5847224 L14.6693426,12.1780974 C15.1152971,12.4968345 15.5706542,12.7956075 16.0203698,13.1618453 C18.4008534,15.1029519 20.3155025,18.2506241 18.1182364,21.9513246 C15.9207016,25.6524841 11.4410082,25.9411603 9.91912137,25.9411603 C8.39804046,25.9411603 3.62176043,25.2029477 1.88952276,21.9701413 C-0.392904551,17.7104462 1.26411188,13.6905496 2.5323957,12.6076696 C2.65516751,12.5025713 2.7846555,12.3770499 2.9181732,12.2366128 L3.86730405,11.8728992 L4.12332491,11.9708839 L4.17248736,11.9899301 L4.17248736,11.9899301 Z M12.7203066,11.5158402 C11.7972345,9.98112915 11.8630531,8.39685208 11.8630531,8.39685208 C12.3259324,9.75211575 12.8968078,10.5988687 13.5211441,11.2294587 L12.7203066,11.5158402 L12.7203066,11.5158402 Z M4.19397914,10.638338 C5.03511378,9.46114482 5.7443426,8.27592015 5.7443426,8.27592015 C5.45474083,9.30189101 5.09905183,10.1619534 4.75330278,10.8526651 L4.19397914,10.638338 L4.19397914,10.638338 Z" id="Shape-Copy-64" fill="url(#linearGradient-7)"></path>
            <path d="M17.0648704,17.645735 C17.0087231,16.2980439 16.1477086,15.8166109 14.1753003,14.3245817 C13.6527813,13.9287419 13.1856037,13.4174775 12.8248104,12.8378304 L15.2756795,11.961246 C15.7243205,12.4555295 16.2438843,12.9773496 16.8131479,13.703859 C18.5666087,15.9421323 17.0648704,17.645735 17.0648704,17.645735 L17.0648704,17.645735 L17.0648704,17.645735 Z M12.2807996,11.6732582 C11.8343078,10.2886221 12.0143015,8.72729226 13.3054204,7.45142601 C13.721555,7.04021157 13.5625158,7.30617002 13.5625158,7.30617002 C13.6259166,9.09169434 13.9413085,10.1006842 14.4417984,10.9001659 L12.2807996,11.6732582 L12.2807996,11.6732582 Z" id="Shape-Copy-65" fill="url(#linearGradient-8)"></path>
            <path d="M15.874763,13.0530754 C16.1957965,11.7326916 15.4943584,11.0899395 13.9958439,9.23901559 C12.496792,7.38832112 12.2337863,4.10640763 15.0693584,2.38720081 C15.588385,2.07236476 15.3600348,2.29862449 15.3600348,2.29862449 C14.419232,6.06197096 15.6182048,6.56405645 16.7301359,9.17361597 C17.8084861,11.7044665 15.874763,13.0530754 15.874763,13.0530754 L15.874763,13.0530754 L15.874763,13.0530754 Z" id="Shape-Copy-66" fill="url(#linearGradient-9)"></path>
            <polygon id="Shape-Copy-67" fill="#FFFFFF" points="5.98451327 11.3237718 3.86461757 10.5075387 3.8670354 11.8731286 5.63742099 12.5523668"></polygon>
        </g>
    </g>
</svg>