<?xml version="1.0" encoding="UTF-8"?>
<svg width="20px" height="20px" viewBox="0 0 20 20" version="1.1" xmlns="http://www.w3.org/2000/svg" xmlns:xlink="http://www.w3.org/1999/xlink">
    <!-- Generator: sketchtool 49.3 (51167) - http://www.bohemiancoding.com/sketch -->
    <title>F6B1F494-8EF3-4B99-8E2C-2641A2DCABB6</title>
    <desc>Created with sketchtool.</desc>
    <defs>
        <polygon id="path-1" points="0 0.462 19.5338105 0.462 19.5338105 19.999786 0 19.999786"></polygon>
    </defs>
    <g id="Page-1" stroke="none" stroke-width="1" fill="none" fill-rule="evenodd">
        <g id="Voz-y-SMS" transform="translate(-701.000000, -724.000000)">
            <g id="Page-1" transform="translate(701.000000, 724.000000)">
                <g id="Group-3">
                    <mask id="mask-2" fill="white">
                        <use xlink:href="#path-1"></use>
                    </mask>
                    <g id="Clip-2"></g>
                    <path d="M9.7987,19.9592 C9.6567,18.7812 9.6567,18.7812 10.7487,18.6652 C14.7457,18.2382 18.0127,14.7862 18.2057,10.7842 C18.4127,6.5182 15.6077,2.7982 11.5477,1.9552 C7.9067,1.1992 4.2597,2.8232 2.4137,6.0232 C0.5837,9.1972 1.0017,13.1412 3.4657,15.9162 C3.6437,16.1172 3.8327,16.3082 4.0397,16.5282 C4.6037,15.9442 5.1267,15.4012 5.7667,14.7382 C6.0667,16.5062 6.3377,18.1052 6.6257,19.8012 C4.9417,19.5172 3.3487,19.2482 1.7557,18.9802 C1.7177,18.9332 1.6807,18.8852 1.6427,18.8382 C2.1767,18.4182 2.7097,17.9992 3.2457,17.5782 C-0.9713,13.5072 -0.7923,7.7322 2.1337,4.1282 C5.1227,0.4442 10.2297,-0.6048 14.3827,1.6282 C18.5147,3.8512 20.4907,8.7082 19.0827,13.1722 C17.8007,17.2342 13.4867,20.3972 9.7987,19.9592" id="Fill-1" fill="#FFFFFF" mask="url(#mask-2)"></path>
                </g>
                <path d="M8,6 C10.0161443,7.17792578 11.97151,8.32159848 14,9.50808754 C11.9781576,10.6841104 10.0322887,11.8173168 8,13 L8,6 Z" id="Fill-4" fill="#FFFFFF"></path>
            </g>
        </g>
    </g>
</svg>