<?xml version="1.0" encoding="UTF-8"?>
<svg width="24px" height="25px" viewBox="0 0 24 25" version="1.1" xmlns="http://www.w3.org/2000/svg" xmlns:xlink="http://www.w3.org/1999/xlink">
    <!-- Generator: Sketch 48.2 (47327) - http://www.bohemiancoding.com/sketch -->
    <title>save</title>
    <desc>Created with Sketch.</desc>
    <defs></defs>
    <g id="Page-1" stroke="none" stroke-width="1" fill="none" fill-rule="evenodd">
        <g id="save" transform="translate(0.000000, -1.000000)" fill-rule="nonzero">
            <path d="M0,9.33333333 L0,12 L0,14.6666667 L0,22.6666667 C0,24.1333333 1.19386667,25.3333333 2.66666667,25.3333333 L21.3333333,25.3333333 C22.8066667,25.3333333 24,24.1333333 24,22.6666667 L24,14.6666667 L24,12 L24,9.33333333 L0,9.33333333 Z" id="Shape" fill="#2980B9"></path>
            <path d="M2.66666667,1.33333333 C1.19386667,1.33333333 0,2.5272 0,4 L0,6.66666667 L0,9.33333333 L0,10.6666667 L0,13.3333333 L0,21.3333333 C0,22.8066667 1.19386667,24 2.66666667,24 L21.3333333,24 C22.8066667,24 24,22.8066667 24,21.3333333 L24,13.3333333 L24,10.6666667 L24,9.33333333 L24,6.66666667 L24,5.33333333 L20,1.33333333 L18.6666667,1.33333333 L16,1.33333333 L2.66666667,1.33333333 Z" id="Shape" fill="#3498DB"></path>
            <path d="M4,1.33333333 L4,2.66666667 L4,4 L4,6.66666667 C4,8.13946667 5.19386667,9.33333333 6.66666667,9.33333333 L8,9.33333333 L13.3333333,9.33333333 L16,9.33333333 L17.3333333,9.33333333 C18.8066667,9.33333333 20,8.13946667 20,6.66666667 L20,4.20826667 L20,4 L20,2.66666667 L20,1.33333333 L4,1.33333333 Z" id="Shape" fill="#2980B9"></path>
            <path d="M6.66666667,14.6666667 C5.19386667,14.6666667 4,15.8666667 4,17.3333333 L4,19.7333333 L4,24 L20,24 L20,19.7333333 L20,17.3333333 C20,15.8666667 18.8066667,14.6666667 17.3333333,14.6666667 L13.3333333,14.6666667 L6.66666667,14.6666667 Z" id="Shape" fill="#ECF0F1"></path>
            <rect id="Rectangle-path" fill="#BDC3C7" x="4" y="24" width="16" height="1.33333333"></rect>
            <path d="M5.33333333,1.33333333 L5.33333333,2.66666667 L5.33333333,5.33333333 C5.33333333,6.8 6.5272,8 8,8 L9.33333333,8 L14.6666667,8 L16,8 C17.4733333,8 18.6666667,6.8 18.6666667,5.33333333 L18.6666667,2.8 L18.6666667,2.66666667 L18.6666667,1.33333333 L5.33333333,1.33333333 Z" id="Shape" fill="#ECF0F1"></path>
            <path d="M6.66666667,2.66666667 L6.66666667,5.33333333 C6.66666667,6.06973333 7.2636,6.66666667 8,6.66666667 L9.33333333,6.66666667 L10.6666667,6.66666667 C11.4026667,6.66666667 12,6.06973333 12,5.33333333 L12,2.66666667 L9.33333333,2.66666667 L6.66666667,2.66666667 Z" id="Shape" fill="#95A5A6"></path>
            <g id="Group" transform="translate(6.666667, 0.800000)" fill="#BDC3C7">
                <rect id="Rectangle-path" x="0" y="16.5333333" width="10.6666667" height="1.33333333"></rect>
                <rect id="Rectangle-path" x="0" y="19.2" width="10.6666667" height="1.33333333"></rect>
                <rect id="Rectangle-path" x="0" y="0.533333333" width="5.33333333" height="1.33333333"></rect>
            </g>
        </g>
    </g>
</svg>