<?xml version="1.0" encoding="UTF-8"?>
<svg width="117px" height="135px" viewBox="0 0 117 135" version="1.1" xmlns="http://www.w3.org/2000/svg" xmlns:xlink="http://www.w3.org/1999/xlink">
    <!-- Generator: sketchtool 49.3 (51167) - http://www.bohemiancoding.com/sketch -->
    <title>42796526-6D54-4571-BBF7-545AFF1A073D</title>
    <desc>Created with sketchtool.</desc>
    <defs>
        <path d="M4,0 L113,0 C115.209139,-4.05812251e-16 117,1.790861 117,4 L117,135 L0,135 L0,4 C-2.705415e-16,1.790861 1.790861,4.05812251e-16 4,0 Z" id="path-1"></path>
        <path d="M8,19 L109,19 C110.104569,19 111,19.8954305 111,21 L111,135 L6,135 L6,21 C6,19.8954305 6.8954305,19 8,19 Z" id="path-2"></path>
    </defs>
    <g id="Page-1" stroke="none" stroke-width="1" fill="none" fill-rule="evenodd">
        <g id="Mensaje-de-voz" transform="translate(-921.000000, -245.000000)">
            <g id="Group-6" transform="translate(921.000000, 245.000000)">
                <g id="Group-4">
                    <g id="Rectangle-29-Copy-4">
                        <use fill="#FFFFFF" fill-rule="evenodd" xlink:href="#path-1"></use>
                        <path stroke="#CFCFCF" stroke-width="1" d="M0.5,134.5 L116.5,134.5 L116.5,4 C116.5,2.06700338 114.932997,0.5 113,0.5 L4,0.5 C2.06700338,0.5 0.5,2.06700338 0.5,4 L0.5,134.5 Z"></path>
                    </g>
                    <circle id="Oval-4-Copy-2" fill="#979797" cx="59" cy="9" r="2"></circle>
                    <rect id="Rectangle-3-Copy-2" fill="#979797" x="33" y="13" width="51" height="2" rx="1"></rect>
                    <g id="Rectangle-29-Copy-3">
                        <use fill="#474747" fill-rule="evenodd" xlink:href="#path-2"></use>
                        <path stroke="#DADADA" stroke-width="1" d="M6.5,134.5 L110.5,134.5 L110.5,21 C110.5,20.1715729 109.828427,19.5 109,19.5 L8,19.5 C7.17157288,19.5 6.5,20.1715729 6.5,21 L6.5,134.5 Z"></path>
                    </g>
                    <rect id="Rectangle-2-Copy-2" fill="#4A90E2" x="11" y="27" width="95" height="19" rx="2"></rect>
                    <g id="envelope4" fill="#000000" transform="translate(26.000000, 33.000000)">
                        <g id="Group" fill="none" transform="translate(0.000000, -0.070175)">
                            <path d="M0.959794521,2.52652632 C1.08630137,2.61796491 1.46760274,2.88961404 2.10376712,3.34126316 C2.73993151,3.79291228 3.22726027,4.14070175 3.56582192,4.3845614 C3.6030137,4.41129825 3.68205479,4.46940351 3.80294521,4.55894737 C3.92383562,4.6485614 4.02431507,4.72105263 4.10424658,4.7762807 C4.18424658,4.83150877 4.2809589,4.89347368 4.39445205,4.96203509 C4.50794521,5.03059649 4.61493151,5.08210526 4.71534247,5.1162807 C4.81582192,5.15066667 4.90883562,5.1677193 4.99438356,5.1677193 L5,5.1677193 L5.00561644,5.1677193 C5.09116438,5.1677193 5.18417808,5.15066667 5.28465753,5.1162807 C5.38506849,5.08210526 5.49212329,5.03052632 5.60554795,4.96203509 C5.7189726,4.89340351 5.81568493,4.83150877 5.89568493,4.7762807 C5.97568493,4.72105263 6.07609589,4.6485614 6.1969863,4.55894737 C6.31787671,4.46933333 6.3969863,4.41129825 6.43417808,4.3845614 C6.77636986,4.14063158 7.6469863,3.52126316 9.04575342,2.52638596 C9.31732877,2.33207018 9.54417808,2.09761404 9.72650685,1.82315789 C9.90890411,1.54884211 10,1.26105263 10,0.959929825 C10,0.708350877 9.91157534,0.492982456 9.73486301,0.313824561 C9.55815068,0.134666667 9.34883562,0.045122807 9.10712329,0.045122807 L0.892808219,0.045122807 C0.606369863,0.045122807 0.385958904,0.144210526 0.231575342,0.342385965 C0.0771917808,0.540631579 0,0.788421053 0,1.08568421 C0,1.32582456 0.102328767,1.58603509 0.306917808,1.86617544 C0.511506849,2.14631579 0.729178082,2.36645614 0.959794521,2.52652632 L0.959794521,2.52652632 Z" id="Shape" fill="#FFFFFF"></path>
                            <path d="M9.44191781,3.13824561 C8.22178082,3.98435088 7.29534247,4.64189474 6.6630137,5.11073684 C6.4509589,5.27080702 6.27890411,5.3957193 6.14678082,5.48519298 C6.01472603,5.57480702 5.8389726,5.66624561 5.61945205,5.75964912 C5.4,5.85305263 5.19541096,5.8997193 5.00568493,5.8997193 L5,5.8997193 L4.99438356,5.8997193 C4.80465753,5.8997193 4.6,5.85305263 4.38054795,5.75964912 C4.16109589,5.66624561 3.98527397,5.57480702 3.85321918,5.48519298 C3.72116438,5.3957193 3.54910959,5.27080702 3.33705479,5.11073684 C2.83479452,4.73340351 1.91034247,4.07585965 0.563630137,3.13824561 C0.351575342,2.99347368 0.16369863,2.82757895 0,2.64084211 L0,7.18035088 C0,7.432 0.0873972603,7.64729825 0.262260274,7.82645614 C0.437123288,8.00568421 0.647328767,8.09522807 0.892876712,8.09522807 L9.10719178,8.09522807 C9.35267123,8.09522807 9.56287671,8.00568421 9.73773973,7.82645614 C9.91267123,7.64722807 10,7.432 10,7.18035088 L10,2.64084211 C9.84,2.8237193 9.6540411,2.98961404 9.44191781,3.13824561 L9.44191781,3.13824561 Z" id="Shape" fill="#FFFFFF"></path>
                        </g>
                    </g>
                </g>
            </g>
        </g>
    </g>
</svg>