<?xml version="1.0" encoding="UTF-8"?>
<svg width="20px" height="22px" viewBox="0 0 20 22" version="1.1" xmlns="http://www.w3.org/2000/svg" xmlns:xlink="http://www.w3.org/1999/xlink">
    <!-- Generator: sketchtool 49.3 (51167) - http://www.bohemiancoding.com/sketch -->
    <title>58720C90-8191-46D3-BC6A-E6A0A35D58D6</title>
    <desc>Created with sketchtool.</desc>
    <defs>
        <polygon id="path-1" points="0.0276163495 0.187733333 19.6228571 0.187733333 19.6228571 10.5382363 0.0276163495 10.5382363"></polygon>
    </defs>
    <g id="Page-1" stroke="none" stroke-width="1" fill="none" fill-rule="evenodd">
        <g id="Voz-y-SMS" transform="translate(-701.000000, -792.000000)">
            <g id="Page-1" transform="translate(701.000000, 792.000000)">
                <path d="M4.10312257,22 C2.88331222,20.7829847 1.66423012,19.5659694 0.445148016,18.348954 C-0.145458665,17.7592141 -0.14909989,17.399018 0.438593812,16.8164964 C1.64165452,15.6225799 2.84398699,14.4279415 4.05214542,13.2383559 C4.3594648,12.9351848 4.78548812,12.8716633 5.09717697,13.0622279 C5.43289791,13.2665075 5.528298,13.5841153 5.43581089,13.9378149 C5.39284443,14.1023935 5.27122752,14.2619192 5.14815412,14.386075 C4.20143564,15.3374547 3.24452173,16.2787287 2.29270554,17.2243337 C2.18419704,17.3311654 2.08224274,17.4444937 1.98975563,17.5426633 C2.61386158,18.1526147 3.21612018,18.7416328 3.87591013,19.3869541 L3.87591013,18.3027565 C3.87591013,18.1056953 3.87445364,17.909356 3.87591013,17.7122948 C3.88392083,17.0842976 4.18104478,16.7897885 4.81971563,16.7890667 C7.97010343,16.787623 11.119763,16.7731863 14.2694225,16.7941195 C16.5444599,16.8099999 18.2864219,15.006132 18.3621593,13.083883 C18.3665288,12.987157 18.3876479,12.8897092 18.4007563,12.7915395 C18.4641136,12.2905854 18.7859979,11.9787523 19.2193037,12.0011292 C19.6744568,12.0249498 20.0181884,12.3945297 19.9992541,12.890431 C19.8900173,15.696929 17.9310383,17.7844784 15.4448099,18.2572809 C15.0581119,18.3309081 14.6568489,18.3511196 14.2621401,18.3518414 C11.5101023,18.3597816 8.75733626,18.3641126 6.00457022,18.3482322 C5.59820952,18.3460667 5.45474526,18.4630041 5.4700384,18.8708414 C5.49698347,19.6013393 5.49479873,20.3332809 5.46931016,21.0637788 C5.45765824,21.3777775 5.35643218,21.6881669 5.29598785,22 L4.10312257,22 Z" id="Fill-1" fill="#FFFFFF"></path>
                <g id="Group-5">
                    <mask id="mask-2" fill="white">
                        <use xlink:href="#path-1"></use>
                    </mask>
                    <g id="Clip-4"></g>
                    <path d="M17.7256429,5.04005333 C17.0235,4.33898667 16.4313571,3.74865333 15.7913571,3.10918667 C15.7913571,3.59318667 15.7920714,4.06838667 15.7913571,4.54285333 C15.7906429,5.48665333 15.5606429,5.72132 14.6299286,5.72132 C11.5820714,5.72132 8.53492857,5.72058667 5.48707143,5.72205333 C3.37207143,5.72278667 1.63421429,7.46445333 1.5785,9.63365333 C1.5635,10.22252 1.26564286,10.5510533 0.757071429,10.5378533 C0.280642857,10.52612 0.0320714286,10.2232533 0.0277857143,9.65052 C0.00421428571,6.66878667 2.44421429,4.12998667 5.37707143,4.11238667 C8.13207143,4.09625333 10.8877857,4.10872 13.6427857,4.10798667 C14.2399286,4.10798667 14.2399286,4.10725333 14.2399286,3.50665333 C14.2406429,2.70585333 14.2477857,1.90652 14.2370714,1.10645333 C14.2320714,0.70752 14.3656429,0.400253333 14.7320714,0.24992 C15.0777857,0.107653333 15.3820714,0.217653333 15.6413571,0.484586667 C16.8706429,1.74885333 18.1049286,3.00725333 19.3285,4.27592 C19.7249286,4.68732 19.7199286,5.10385333 19.3206429,5.51672 C18.0963571,6.78465333 16.8656429,8.04745333 15.6313571,9.30512 C15.2599286,9.68498667 14.7620714,9.69745333 14.4492143,9.35938667 C14.1306429,9.01545333 14.1635,8.53952 14.5456429,8.14498667 C15.4777857,7.18285333 16.4113571,6.22218667 17.3527857,5.26885333 C17.4592143,5.16105333 17.6163571,5.10605333 17.7256429,5.04005333" id="Fill-3" fill="#FFFFFF" mask="url(#mask-2)"></path>
                </g>
                <path d="M7.99983274,10.9750935 C8.01024679,11.5159756 7.5328027,12.0047727 7.00088513,11.9999648 C6.49139782,11.995157 6.01395373,11.5239886 6.00033536,11.0111523 C5.98591591,10.4951108 6.43852649,10.0215385 6.96403542,10.0007045 C7.51758217,9.97987055 7.98941869,10.4237945 7.99983274,10.9750935" id="Fill-6" fill="#FFFFFF"></path>
                <path d="M10.9998133,11.0050603 C10.9901729,11.5398103 10.5378794,11.9991983 10.01971,12 C9.48868687,12 8.98738815,11.4989224 9.00024196,10.9794052 C9.01229241,10.4342328 9.49591714,9.98286207 10.046221,10.0005 C10.581261,10.0173362 11.010257,10.4679052 10.9998133,11.0050603" id="Fill-8" fill="#FFFFFF"></path>
                <path d="M12.9942363,11.9999906 C12.441254,11.9967848 12.0033051,11.5583963 12.0000184,11.0029972 C11.9967318,10.4131362 12.4330373,9.98516644 13.022173,10.0003938 C13.580907,10.0156212 14.0048874,10.4516054 13.9999574,11.0054016 C13.9950274,11.5447718 13.5332502,12.0023949 12.9942363,11.9999906 Z" id="Fill-10" fill="#FFFFFF"></path>
            </g>
        </g>
    </g>
</svg>