<?xml version="1.0" encoding="UTF-8"?>
<svg width="117px" height="136px" viewBox="0 0 117 136" version="1.1" xmlns="http://www.w3.org/2000/svg" xmlns:xlink="http://www.w3.org/1999/xlink">
    <!-- Generator: sketchtool 49.3 (51167) - http://www.bohemiancoding.com/sketch -->
    <title>44A62CAE-1BC7-4095-A1B5-7F9C845A5F1D</title>
    <desc>Created with sketchtool.</desc>
    <defs>
        <path d="M4,0 L113,0 C115.209139,-4.05812251e-16 117,1.790861 117,4 L117,136 L0,136 L0,4 C-2.705415e-16,1.790861 1.790861,4.05812251e-16 4,0 Z" id="path-1"></path>
        <path d="M8,20 L109,20 C110.104569,20 111,20.8954305 111,22 L111,136 L6,136 L6,22 C6,20.8954305 6.8954305,20 8,20 Z" id="path-2"></path>
        <polygon id="path-3" points="0.0789898445 0.0746948663 16.8776695 0.0746948663 16.8776695 16.9159765 0.0789898445 16.9159765"></polygon>
    </defs>
    <g id="Page-1" stroke="none" stroke-width="1" fill="none" fill-rule="evenodd">
        <g id="Mensaje-de-voz" transform="translate(-330.000000, -245.000000)">
            <g id="Group" transform="translate(330.000000, 245.000000)">
                <g id="Rectangle-29-Copy-2">
                    <use fill="#FFFFFF" fill-rule="evenodd" xlink:href="#path-1"></use>
                    <path stroke="#CFCFCF" stroke-width="1" d="M0.5,135.5 L116.5,135.5 L116.5,4 C116.5,2.06700338 114.932997,0.5 113,0.5 L4,0.5 C2.06700338,0.5 0.5,2.06700338 0.5,4 L0.5,135.5 Z"></path>
                </g>
                <circle id="Oval-4-Copy" fill="#979797" cx="59" cy="9" r="2"></circle>
                <rect id="Rectangle-3-Copy" fill="#979797" x="33" y="13" width="51" height="2" rx="1"></rect>
                <g id="Rectangle-29-Copy">
                    <use fill="#474747" fill-rule="evenodd" xlink:href="#path-2"></use>
                    <path stroke="#DADADA" stroke-width="1" d="M6.5,135.5 L110.5,135.5 L110.5,22 C110.5,21.1715729 109.828427,20.5 109,20.5 L8,20.5 C7.17157288,20.5 6.5,21.1715729 6.5,22 L6.5,135.5 Z"></path>
                </g>
                <g id="Group-13" transform="translate(41.428870, 77.571130)">
                    <g id="Group-2">
                        <path d="M20.8233943,31.0541342 C22.5630445,31.0622511 23.9738977,30.4516102 25.2279432,29.1945309 C25.8248106,28.5959614 25.8899045,28.0034275 25.5419744,27.2951757 C25.4783363,27.1650971 25.4209372,27.0312723 25.3489804,26.9059806 C24.7616795,25.8882459 23.9932387,25.0243161 23.081716,24.2904648 C22.4422152,23.7753537 21.7349169,23.3828286 20.9277941,23.1828198 C20.6245771,23.1074783 20.4292954,23.164921 20.2726957,23.4598351 C20.0801176,23.822182 19.864663,24.1816151 19.6053272,24.4979662 C18.562161,25.7712793 17.1163693,25.8256001 15.9546614,24.6617611 C13.7865977,22.4895531 11.6158304,20.3200507 9.44651885,18.1486751 C9.07571236,17.7777951 8.69284374,17.4175295 8.34054638,17.0297913 C7.3778637,15.9702233 7.43963012,14.6373863 8.49548235,13.678343 C8.73318948,13.4625166 9.0000121,13.2720816 9.27515343,13.1053729 C10.1271973,12.5894293 10.1521534,12.5324028 9.77053259,11.5870959 C9.74952785,11.5354807 9.72852311,11.4836574 9.70419088,11.4337072 C8.88687765,9.74351832 7.59082267,8.52577479 5.95578026,7.64873305 C5.76195432,7.54467019 5.54442006,7.46953681 5.32896548,7.42416541 C4.96335818,7.34736702 4.62166718,7.35423517 4.29432595,7.62438234 C2.88014529,8.7921757 2.18366131,10.2927621 2.12231083,12.1136539 C2.05846473,14.0086385 2.51058661,15.8001846 3.30876681,17.4887085 C5.94371813,23.0637719 10.064807,27.1821635 15.6254485,29.8359744 C17.1968528,30.5860594 18.8687055,31.0179203 20.8233943,31.0541342 Z M0,11.6299698 C0.0912978397,11.15024 0.167206066,10.666764 0.277013035,10.1911967 C0.699603492,8.35885797 1.73985815,6.93486186 3.21538929,5.80931802 C4.00649859,5.20575346 4.90117583,5.16287956 5.8278801,5.38078718 C6.99957037,5.6561375 7.96578851,6.31069286 8.86836852,7.07243296 C10.1579765,8.16093042 11.2346255,9.41925846 11.7876117,11.0395171 C11.9749907,11.5885527 12.076063,12.190036 12.088749,12.7702905 C12.1058024,13.5717826 11.643906,14.1482909 10.9705065,14.5555929 C10.6652098,14.7399922 10.348059,14.9071172 10.0571121,15.1114966 C9.71812472,15.3498006 9.71854066,15.4355484 10.0167664,15.7350413 C11.5447054,17.2689277 13.075764,18.7996923 14.6059906,20.3312894 C15.5208407,21.2474588 16.4350669,22.1638363 17.3513728,23.0785488 C17.7309139,23.4575457 17.7968397,23.4510938 18.1054638,23.0029992 C18.2000892,22.8656362 18.2816125,22.7186995 18.362096,22.5719708 C19.1394795,21.155051 20.0537057,20.7641909 21.6128399,21.1912649 C22.8321547,21.5255148 23.8834317,22.1675826 24.8184547,23.0007098 C25.8077572,23.8821222 26.6674959,24.876755 27.2822485,26.0611984 C27.7557911,26.9732052 28.0286448,27.936411 27.7772118,28.9639277 C27.6896573,29.3212795 27.5145485,29.6827939 27.2924389,29.9768755 C25.9502151,31.7565584 24.1729228,32.8046795 21.9493317,33.0712885 C21.863441,33.0814867 21.7808778,33.1181168 21.6968588,33.1422594 L19.6209248,33.1422594 C19.5595743,33.1201981 19.4996796,33.0844005 19.4366654,33.0775323 C17.2184814,32.8358984 15.1639681,32.0837321 13.2265406,31.014174 C9.03973394,28.7027299 5.68791781,25.4842739 3.07209952,21.4938797 C1.72800399,19.4436333 0.727679137,17.2377089 0.249145358,14.8172069 C0.150152711,14.3164564 0.082147259,13.8094622 0,13.3053817 L0,11.6299698 Z" id="Fill-1" fill="#7E7C7E"></path>
                        <g id="Group-5" transform="translate(15.776996, 0.000000)">
                            <mask id="mask-4" fill="white">
                                <use xlink:href="#path-3"></use>
                            </mask>
                            <g id="Clip-4"></g>
                            <path d="M16.8540195,15.4519326 C16.8540195,15.6166706 16.8613592,15.7816132 16.8527962,15.9457373 C16.8254764,16.4610295 16.4154749,16.877479 15.9076112,16.9132916 C15.3875148,16.9495135 14.9088058,16.6161493 14.8364286,16.0998338 C14.7640515,15.580244 14.7758765,15.0493989 14.7222562,14.5265348 C14.134064,8.76438864 10.1025521,4.04531024 4.52420694,2.58354194 C3.41897654,2.29397143 2.2941737,2.15338137 1.15163336,2.15010707 C0.722059399,2.14887921 0.391366959,1.96122115 0.196050463,1.57096606 C0.00685034894,1.19217099 0.050684427,0.824017393 0.300844491,0.487788173 C0.527966179,0.182460117 0.84744525,0.0697015656 1.21972909,0.0748176524 C4.42226722,0.119634572 7.37117934,1.00615008 9.99816583,2.84957845 C13.8504677,5.55291868 16.1045587,9.25819334 16.733119,13.9437102 C16.7999915,14.4432449 16.8303695,14.9474864 16.8776695,15.4494769 C16.8697182,15.4502954 16.8619708,15.451114 16.8540195,15.4519326" id="Fill-3" fill="#7E7C7E" mask="url(#mask-4)"></path>
                        </g>
                    </g>
                    <path d="M27.3467926,15.4264197 C27.331048,15.6751081 27.3424986,15.8660287 27.3030347,16.0456825 C27.1997742,16.5147899 26.7756902,16.8364051 26.2968067,16.8341517 C25.8029963,16.8318984 25.3760497,16.5027038 25.3014159,16.0012299 C25.2141045,15.4165868 25.2151268,14.8178091 25.1135021,14.2364436 C24.4822837,10.6284131 21.4024611,7.76890608 17.7654405,7.39587346 C17.4605663,7.3647362 17.1538518,7.34773361 16.8477507,7.33646684 C16.2416828,7.31372844 15.7857006,6.8800601 15.7771126,6.30873228 C15.7685246,5.72593283 16.2343217,5.25559627 16.8573611,5.26071753 C19.0211297,5.27853951 21.0141605,5.8789561 22.7836987,7.13038732 C25.6596584,9.16496169 27.1359775,11.9812453 27.3467926,15.4264197" id="Fill-6" fill="#7E7C7E"></path>
                    <path d="M21.4788038,16.7214999 C21.0904987,16.9123749 20.7117991,16.8566091 20.3719299,16.5853656 C20.1042038,16.3717332 19.9875079,16.0771172 19.989756,15.7453924 C20.000792,14.1534002 18.6821897,12.6290651 16.8387624,12.5991319 C16.2319847,12.5892909 15.7831857,12.1409088 15.7770546,11.5674636 C15.7709235,10.9915581 16.2446557,10.5349751 16.8620607,10.5222638 C19.179629,10.4749038 21.427711,12.2786833 21.9235153,14.5923513 C21.9970889,14.9341222 22.0338757,15.2840939 22.0876253,15.6301703 C22.0939608,16.1193516 21.9224934,16.503562 21.4788038,16.7214999 Z" id="Fill-8" fill="#7E7C7E"></path>
                </g>
            </g>
        </g>
    </g>
</svg>