<?xml version="1.0" encoding="UTF-8"?>
<svg width="117px" height="112px" viewBox="0 0 117 112" version="1.1" xmlns="http://www.w3.org/2000/svg" xmlns:xlink="http://www.w3.org/1999/xlink">
    <!-- Generator: sketchtool 49.3 (51167) - http://www.bohemiancoding.com/sketch -->
    <title>B8D983D7-5FAB-4554-9A7B-8C4EDDDCD204</title>
    <desc>Created with sketchtool.</desc>
    <defs>
        <path d="M4,0 L113,0 C115.209139,-4.05812251e-16 117,1.790861 117,4 L117,112 L0,112 L0,4 C-2.705415e-16,1.790861 1.790861,4.05812251e-16 4,0 Z" id="path-1"></path>
        <path d="M8,19 L109,19 C110.104569,19 111,19.8954305 111,21 L111,112 L6,112 L6,21 C6,19.8954305 6.8954305,19 8,19 Z" id="path-2"></path>
        <polygon id="path-3" points="0.0263299482 0.0241659862 5.62588984 0.0241659862 5.62588984 5.47281591 0.0263299482 5.47281591"></polygon>
    </defs>
    <g id="Page-1" stroke="none" stroke-width="1" fill="none" fill-rule="evenodd">
        <g id="Mensaje-de-voz" transform="translate(-625.000000, -269.000000)">
            <g id="Group-3" transform="translate(625.000000, 269.000000)">
                <g id="Rectangle-29">
                    <use fill="#FFFFFF" fill-rule="evenodd" xlink:href="#path-1"></use>
                    <path stroke="#CFCFCF" stroke-width="1" d="M0.5,111.5 L116.5,111.5 L116.5,4 C116.5,2.06700338 114.932997,0.5 113,0.5 L4,0.5 C2.06700338,0.5 0.5,2.06700338 0.5,4 L0.5,111.5 Z"></path>
                </g>
                <circle id="Oval-4" fill="#979797" cx="59" cy="9" r="2"></circle>
                <rect id="Rectangle-3" fill="#979797" x="33" y="13" width="51" height="2" rx="1"></rect>
                <g id="Rectangle-29">
                    <use fill="#474747" fill-rule="evenodd" xlink:href="#path-2"></use>
                    <path stroke="#DADADA" stroke-width="1" d="M6.5,111.5 L110.5,111.5 L110.5,21 C110.5,20.1715729 109.828427,19.5 109,19.5 L8,19.5 C7.17157288,19.5 6.5,20.1715729 6.5,21 L6.5,111.5 Z"></path>
                </g>
                <rect id="Rectangle-2" fill="#4A90E2" x="11" y="74" width="95" height="19" rx="2"></rect>
                <rect id="Rectangle-2-Copy" fill="#FFFFFF" x="11" y="25" width="95" height="46" rx="2"></rect>
                <g id="Group-13" transform="translate(52.000000, 29.000000)">
                    <g id="Group-2">
                        <path d="M6.94113143,10.0469258 C7.52101483,10.0495518 7.99129922,9.85199155 8.40931438,9.44528942 C8.60827019,9.25163457 8.62996816,9.05993243 8.51399148,8.83079214 C8.49277877,8.7887079 8.47364574,8.74541163 8.44966013,8.70487609 C8.25389316,8.37560897 7.99774622,8.09610226 7.69390534,7.8586798 C7.48073841,7.6920262 7.24497231,7.56503279 6.97593137,7.50032405 C6.87485904,7.47594886 6.80976514,7.49453326 6.75756524,7.58994666 C6.69337253,7.70717652 6.62155433,7.8234637 6.53510907,7.92581258 C6.187387,8.33776682 5.70545642,8.3553412 5.31822048,7.97880506 C4.59553257,7.27603187 3.87194346,6.57413404 3.14883962,5.87163019 C3.02523745,5.75163959 2.89761458,5.63508308 2.78018213,5.50963836 C2.4592879,5.16683696 2.47987671,4.73562497 2.83182745,4.42534626 C2.91106316,4.35552009 3.00000403,4.29390876 3.09171781,4.23997359 C3.37573242,4.07305065 3.38405113,4.05460092 3.2568442,3.74876631 C3.24984262,3.73206728 3.24284104,3.71530092 3.23473029,3.69914057 C2.96229255,3.15231475 2.53027422,2.7583389 1.98526009,2.4745901 C1.92065144,2.44092271 1.84814002,2.41661485 1.77632183,2.40193587 C1.65445273,2.37708933 1.54055573,2.37931138 1.43144198,2.46671193 C0.96004843,2.84452743 0.727887105,3.33001126 0.707436943,3.91912332 C0.686154911,4.53220657 0.836862203,5.11182443 1.10292227,5.65811157 C1.98123938,7.46180856 3.35493565,8.79422935 5.20848283,9.65281524 C5.73228426,9.89548982 6.28956849,10.0352095 6.94113143,10.0469258 Z M0,3.76263727 C0.0304326132,3.60743059 0.0557353555,3.45101187 0.0923376785,3.29715188 C0.233201164,2.7043364 0.579952716,2.24363178 1.07179643,1.87948524 C1.33549953,1.68421435 1.63372528,1.67034339 1.9426267,1.74084291 C2.33319012,1.82992684 2.65526284,2.04169475 2.95612284,2.28814007 C3.38599217,2.64030102 3.74487517,3.04740715 3.92920391,3.57160848 C3.99166356,3.74923765 4.02535434,3.94383519 4.02958301,4.13156458 C4.03526746,4.39087085 3.88130201,4.57738822 3.65683549,4.7091624 C3.55506994,4.76882102 3.44935301,4.82289086 3.35237071,4.88901362 C3.23937491,4.96611195 3.23951355,4.99385388 3.33892213,5.09074864 C3.84823514,5.58700604 4.35858798,6.08225341 4.86866354,6.57777012 C5.17361357,6.87417786 5.47835564,7.17065293 5.78379094,7.46658933 C5.91030465,7.58920598 5.9322799,7.5871186 6.03515462,7.4421468 C6.06669639,7.39770584 6.09387084,7.35016748 6.12069868,7.30269645 C6.37982649,6.84428121 6.68456856,6.71782648 7.20427995,6.85599746 C7.61071825,6.96413713 7.9611439,7.17186496 8.27281822,7.44140611 C8.60258574,7.72656894 8.88916529,8.0483619 9.09408284,8.43156418 C9.25193036,8.72662522 9.34288159,9.03825063 9.25907059,9.37068248 C9.22988578,9.48629631 9.17151617,9.60325684 9.09747965,9.69840089 C8.65007171,10.2741807 8.05764093,10.6132787 7.31644389,10.6995345 C7.28781366,10.7028339 7.2602926,10.7146849 7.23228627,10.7224957 L6.54030827,10.7224957 C6.51985811,10.7153582 6.4998932,10.7037766 6.47888846,10.7015546 C5.73949381,10.6233789 5.05465602,10.380031 4.40884686,10.0339975 C3.01324465,9.28617732 1.8959726,8.24491215 1.02403317,6.95390224 C0.576001329,6.29058724 0.242559712,5.57690582 0.0830484525,4.79380223 C0.0500509038,4.63179473 0.0273824197,4.46776718 0,4.30468232 L0,3.76263727 Z" id="Fill-1" fill="#7E7C7E"></path>
                        <g id="Group-5" transform="translate(5.258999, 0.000000)">
                            <mask id="mask-4" fill="white">
                                <use xlink:href="#path-3"></use>
                            </mask>
                            <g id="Clip-4"></g>
                            <path d="M5.61800651,4.99915466 C5.61800651,5.05245224 5.62045306,5.10581604 5.61759875,5.158915 C5.60849213,5.3256272 5.47182495,5.46036085 5.30253706,5.47194728 C5.12917159,5.48366613 4.96960195,5.375813 4.94547622,5.20876976 C4.92135048,5.04066719 4.92529215,4.86892316 4.90741872,4.69976126 C4.71135467,2.8355375 3.36751737,1.30877684 1.50806898,0.835851805 C1.13965885,0.742167228 0.764724568,0.696682208 0.383877788,0.695622877 C0.240686466,0.695225628 0.130455653,0.634512726 0.0653501542,0.508253724 C0.00228344965,0.385702381 0.016894809,0.266593863 0.100281497,0.157813821 C0.175988726,0.0590312144 0.28248175,0.0225505065 0.406576365,0.0242057111 C1.47408907,0.0387053028 2.45705978,0.325519144 3.33272194,0.92192244 C4.61682257,1.79653251 5.36818624,2.99529784 5.57770634,4.51120036 C5.59999716,4.67281453 5.61012317,4.83595149 5.62588984,4.99836016 C5.62323941,4.99862499 5.62065694,4.99888982 5.61800651,4.99915466" id="Fill-3" fill="#7E7C7E" mask="url(#mask-4)"></path>
                        </g>
                    </g>
                    <path d="M9,5.51345906 C8.99455663,5.59941013 8.99851544,5.66539563 8.98487167,5.72748714 C8.94917163,5.8896189 8.80255404,6.00077473 8.63699069,5.99999593 C8.46626675,5.99921713 8.31865946,5.8854417 8.29285646,5.71212356 C8.26267048,5.51006067 8.26302395,5.30311258 8.22788946,5.10218248 C8.00965971,3.85518394 6.94487954,2.86688822 5.68746055,2.73796161 C5.58205707,2.72720003 5.47601735,2.72132364 5.37018971,2.71742965 C5.16065522,2.70957086 5.00300951,2.55968748 5.0000404,2.36222658 C4.99707128,2.16080088 5.15811027,1.99824432 5.37351229,2.00001432 C6.12158716,2.00617391 6.81063326,2.2136884 7.42241175,2.64620495 C8.41671085,3.3493895 8.92711537,4.32274644 9,5.51345906" id="Fill-6" fill="#7E7C7E"></path>
                    <path d="M6.80700056,4.96430636 C6.68394003,5.02477864 6.56392363,5.00711112 6.45621329,4.92117682 C6.37136629,4.85349464 6.33438337,4.76015557 6.33509582,4.65505982 C6.33859333,4.15069112 5.92070569,3.66775728 5.33649203,3.65827398 C5.14419377,3.65515618 5.00196171,3.51310153 5.00001865,3.33142488 C4.99807559,3.14896877 5.14820943,3.00431596 5.34387567,3.0002888 C6.0783527,2.9852844 6.79080838,3.5567507 6.94793725,4.28975788 C6.97125398,4.39803639 6.98291234,4.50891306 6.99994651,4.61855561 C7.00195434,4.77353612 6.9476134,4.89526013 6.80700056,4.96430636 Z" id="Fill-8" fill="#7E7C7E"></path>
                </g>
                <g id="envelope4" fill="#000000" transform="translate(26.000000, 80.000000)">
                    <g id="Group" fill="none" transform="translate(0.000000, -0.070175)">
                        <path d="M0.959794521,2.52652632 C1.08630137,2.61796491 1.46760274,2.88961404 2.10376712,3.34126316 C2.73993151,3.79291228 3.22726027,4.14070175 3.56582192,4.3845614 C3.6030137,4.41129825 3.68205479,4.46940351 3.80294521,4.55894737 C3.92383562,4.6485614 4.02431507,4.72105263 4.10424658,4.7762807 C4.18424658,4.83150877 4.2809589,4.89347368 4.39445205,4.96203509 C4.50794521,5.03059649 4.61493151,5.08210526 4.71534247,5.1162807 C4.81582192,5.15066667 4.90883562,5.1677193 4.99438356,5.1677193 L5,5.1677193 L5.00561644,5.1677193 C5.09116438,5.1677193 5.18417808,5.15066667 5.28465753,5.1162807 C5.38506849,5.08210526 5.49212329,5.03052632 5.60554795,4.96203509 C5.7189726,4.89340351 5.81568493,4.83150877 5.89568493,4.7762807 C5.97568493,4.72105263 6.07609589,4.6485614 6.1969863,4.55894737 C6.31787671,4.46933333 6.3969863,4.41129825 6.43417808,4.3845614 C6.77636986,4.14063158 7.6469863,3.52126316 9.04575342,2.52638596 C9.31732877,2.33207018 9.54417808,2.09761404 9.72650685,1.82315789 C9.90890411,1.54884211 10,1.26105263 10,0.959929825 C10,0.708350877 9.91157534,0.492982456 9.73486301,0.313824561 C9.55815068,0.134666667 9.34883562,0.045122807 9.10712329,0.045122807 L0.892808219,0.045122807 C0.606369863,0.045122807 0.385958904,0.144210526 0.231575342,0.342385965 C0.0771917808,0.540631579 0,0.788421053 0,1.08568421 C0,1.32582456 0.102328767,1.58603509 0.306917808,1.86617544 C0.511506849,2.14631579 0.729178082,2.36645614 0.959794521,2.52652632 L0.959794521,2.52652632 Z" id="Shape" fill="#FFFFFF"></path>
                        <path d="M9.44191781,3.13824561 C8.22178082,3.98435088 7.29534247,4.64189474 6.6630137,5.11073684 C6.4509589,5.27080702 6.27890411,5.3957193 6.14678082,5.48519298 C6.01472603,5.57480702 5.8389726,5.66624561 5.61945205,5.75964912 C5.4,5.85305263 5.19541096,5.8997193 5.00568493,5.8997193 L5,5.8997193 L4.99438356,5.8997193 C4.80465753,5.8997193 4.6,5.85305263 4.38054795,5.75964912 C4.16109589,5.66624561 3.98527397,5.57480702 3.85321918,5.48519298 C3.72116438,5.3957193 3.54910959,5.27080702 3.33705479,5.11073684 C2.83479452,4.73340351 1.91034247,4.07585965 0.563630137,3.13824561 C0.351575342,2.99347368 0.16369863,2.82757895 0,2.64084211 L0,7.18035088 C0,7.432 0.0873972603,7.64729825 0.262260274,7.82645614 C0.437123288,8.00568421 0.647328767,8.09522807 0.892876712,8.09522807 L9.10719178,8.09522807 C9.35267123,8.09522807 9.56287671,8.00568421 9.73773973,7.82645614 C9.91267123,7.64722807 10,7.432 10,7.18035088 L10,2.64084211 C9.84,2.8237193 9.6540411,2.98961404 9.44191781,3.13824561 L9.44191781,3.13824561 Z" id="Shape" fill="#FFFFFF"></path>
                    </g>
                </g>
            </g>
        </g>
    </g>
</svg>