<?xml version="1.0" encoding="UTF-8"?>
<svg width="20px" height="23px" viewBox="0 0 20 23" version="1.1" xmlns="http://www.w3.org/2000/svg" xmlns:xlink="http://www.w3.org/1999/xlink">
    <!-- Generator: Sketch 39.1 (31720) - http://www.bohemiancoding.com/sketch -->
    <title>Import Icon</title>
    <desc>Created with Sketch.</desc>
    <defs></defs>
    <g id="NewBackend" stroke="none" stroke-width="1" fill="none" fill-rule="evenodd">
        <g id="Phoonebook---contacts" transform="translate(-45.000000, -410.000000)" fill="#979797">
            <g id="Batch-send-+-Fill-134" transform="translate(45.000000, 410.000000)">
                <path d="M10.0338889,13.1541667 L3.33333333,13.1541667 L3.33333333,20.6708333 L0.833333333,20.6708333 C0.6,20.6708333 0.402777778,20.5806333 0.242222222,20.3977278 C0.0805555556,20.2167014 0,19.9943333 0,19.73125 L0,0.939583333 C0,0.689027778 0.0805555556,0.469791667 0.242222222,0.281248611 C0.402777778,0.0939583333 0.6,0 0.833333333,0 L5,0 L5,5.6375 L13.3333333,5.6375 L13.3333333,0 L15,0 L18.3333333,3.75833333 L18.3333333,11.3119569 L15,7.55362361 L10.0338889,13.1541667 L10.0338889,13.1541667 L10.0338889,13.1541667 L10.0338889,13.1541667 Z M10,0 L11.6666667,0 L11.6666667,3.75833333 L10,3.75833333 L10,3.75833333 L10,0 L10,0 Z M16.6666667,16.9125 L20,16.9125 L15,11.275 L10,16.9125 L13.3333333,16.9125 L13.3333333,22.55 L16.6666667,22.55 L16.6666667,16.9125 L16.6666667,16.9125 Z" id="Import-Icon"></path>
            </g>
        </g>
    </g>
</svg>