<?xml version="1.0" encoding="UTF-8"?>
<svg width="19px" height="21px" viewBox="0 0 19 21" version="1.1" xmlns="http://www.w3.org/2000/svg" xmlns:xlink="http://www.w3.org/1999/xlink">
    <!-- Generator: Sketch 39.1 (31720) - http://www.bohemiancoding.com/sketch -->
    <title>Contacs Icon</title>
    <desc>Created with Sketch.</desc>
    <defs></defs>
    <g id="NewBackend" stroke="none" stroke-width="1" fill="none" fill-rule="evenodd">
        <g id="Phoonebook---import-from-file" transform="translate(-43.000000, -326.000000)" fill="#979797">
            <path d="M62,344.526667 L62,347 L52.5,347 L43,347 L43,344.526667 C43,343.748885 44.3744543,342.800006 47.1234043,341.68 C48.3900773,341.151108 49.25248,340.614447 49.7106383,340.07 C50.1687966,339.525553 50.3978723,338.786671 50.3978723,337.853333 C50.3978723,337.511109 50.2496469,337.130002 49.9531915,336.71 C49.6567361,336.289998 49.4411354,335.722226 49.306383,335.006667 C49.2794325,334.819999 49.2187948,334.68 49.1244681,334.586667 C49.0301414,334.493333 48.9358161,334.431111 48.8414894,334.4 C48.7471626,334.368889 48.6528374,334.236668 48.5585106,334.003333 C48.4641839,333.769999 48.4035462,333.435558 48.3765957,333 C48.3765957,332.75111 48.4102834,332.54889 48.4776596,332.393333 C48.5450358,332.237777 48.6056735,332.144445 48.6595745,332.113333 L48.7404255,332.02 C48.6326236,331.242218 48.5517733,330.557781 48.4978723,329.966667 C48.4439714,329.126662 48.7202097,328.25556 49.3265957,327.353333 C49.9329818,326.451107 50.9907726,326 52.5,326 C54.0092274,326 55.0737558,326.451107 55.693617,327.353333 C56.3134783,328.25556 56.5829791,329.126662 56.5021277,329.966667 L56.2595745,332.02 C56.5021289,332.144445 56.6234043,332.471108 56.6234043,333 C56.5964538,333.435558 56.5358161,333.769999 56.4414894,334.003333 C56.3471626,334.236668 56.2528374,334.368889 56.1585106,334.4 C56.0641839,334.431111 55.9698586,334.493333 55.8755319,334.586667 C55.7812052,334.68 55.7205675,334.819999 55.693617,335.006667 C55.5858151,335.753337 55.3769519,336.328887 55.0670213,336.733333 C54.7570906,337.13778 54.6021277,337.511109 54.6021277,337.853333 C54.6021277,338.786671 54.8379409,339.525553 55.3095745,340.07 C55.781208,340.614447 56.6368732,341.151108 57.8765957,341.68 C60.6255457,342.800006 62,343.748885 62,344.526667 Z" id="Contacs-Icon"></path>
        </g>
    </g>
</svg>