<?xml version="1.0" encoding="UTF-8"?>
<svg width="21px" height="23px" viewBox="0 0 21 23" version="1.1" xmlns="http://www.w3.org/2000/svg" xmlns:xlink="http://www.w3.org/1999/xlink">
    <!-- Generator: Sketch 39.1 (31720) - http://www.bohemiancoding.com/sketch -->
    <title>-g-Fill 38</title>
    <desc>Created with Sketch.</desc>
    <defs></defs>
    <g id="Page-1" stroke="none" stroke-width="1" fill="none" fill-rule="evenodd">
        <g id="Messages---Overview" transform="translate(-44.000000, -368.000000)" fill="#979797">
            <path d="M44,368 L65,368 L65,391 L44,391 L44,391 L44,368 L44,368 Z M45.9090909,389.083333 L63.0909091,389.083333 L63.0909091,371.833333 L45.9090909,371.833333 L45.9090909,371.833333 L45.9090909,389.083333 L45.9090909,389.083333 Z M47.8181818,375.666667 L49.7272727,375.666667 L49.7272727,373.75 L47.8181818,373.75 L47.8181818,373.75 L47.8181818,375.666667 L47.8181818,375.666667 Z M47.8181818,379.5 L49.7272727,379.5 L49.7272727,377.583333 L47.8181818,377.583333 L47.8181818,377.583333 L47.8181818,379.5 L47.8181818,379.5 Z M47.8181818,383.333333 L49.7272727,383.333333 L49.7272727,381.416667 L47.8181818,381.416667 L47.8181818,381.416667 L47.8181818,383.333333 L47.8181818,383.333333 Z M47.8181818,387.166667 L49.7272727,387.166667 L49.7272727,385.25 L47.8181818,385.25 L47.8181818,385.25 L47.8181818,387.166667 L47.8181818,387.166667 Z M51.6363636,375.666667 L61.1818182,375.666667 L61.1818182,373.75 L51.6363636,373.75 L51.6363636,373.75 L51.6363636,375.666667 L51.6363636,375.666667 Z M51.6363636,379.5 L61.1818182,379.5 L61.1818182,377.583333 L51.6363636,377.583333 L51.6363636,377.583333 L51.6363636,379.5 L51.6363636,379.5 Z M51.6363636,383.333333 L61.1818182,383.333333 L61.1818182,381.416667 L51.6363636,381.416667 L51.6363636,381.416667 L51.6363636,383.333333 L51.6363636,383.333333 Z M51.6363636,385.25 L61.1818182,385.25 L61.1818182,387.166667 L51.6363636,387.166667 L51.6363636,387.166667 L51.6363636,385.25 L51.6363636,385.25 Z" id="-g-Fill-38"></path>
        </g>
    </g>
</svg>