<?xml version="1.0" encoding="UTF-8"?>
<svg width="21px" height="22px" viewBox="0 0 21 22" version="1.1" xmlns="http://www.w3.org/2000/svg" xmlns:xlink="http://www.w3.org/1999/xlink">
    <!-- Generator: Sketch 39.1 (31720) - http://www.bohemiancoding.com/sketch -->
    <title>Groups Icon</title>
    <desc>Created with Sketch.</desc>
    <defs></defs>
    <g id="NewBackend" stroke="none" stroke-width="1" fill="none" fill-rule="evenodd">
        <g id="Phoonebook---import-from-file" transform="translate(-44.000000, -368.000000)" fill="#979797">
            <path d="M55.9191639,372.106667 C56.7660148,372.400001 57.1894339,372.648517 57.1894339,372.852222 L57.1894339,373.5 L54.2628315,373.5 L51.3362291,373.5 L51.3362291,372.852222 C51.3362291,372.648517 51.7596482,372.400001 52.606499,372.106667 C52.9967147,371.968147 53.2623894,371.827593 53.4035312,371.685 C53.544673,371.542407 53.6152429,371.34889 53.6152429,371.104444 C53.6152429,371.014814 53.56958,370.915001 53.478253,370.805 C53.3869259,370.694999 53.3205072,370.546297 53.2789949,370.358889 C53.2706925,370.31 53.2520122,370.273333 53.2229536,370.248889 C53.193895,370.224444 53.1648368,370.208148 53.1357782,370.2 C53.1067196,370.191852 53.0776614,370.157223 53.0486028,370.096111 C53.0195442,370.035 53.0008639,369.947408 52.9925615,369.833333 C52.9925615,369.768148 53.0029394,369.715185 53.0236956,369.674444 C53.0444517,369.633703 53.063132,369.609259 53.0797369,369.601111 L53.1046441,369.576667 C53.0714343,369.372962 53.0465273,369.193704 53.0299224,369.038889 C53.0133175,368.818888 53.0984164,368.590742 53.2852217,368.354444 C53.4720271,368.118147 53.7978937,368 54.2628315,368 C54.7277692,368 55.0557114,368.118147 55.246668,368.354444 C55.4376246,368.590742 55.5206479,368.818888 55.4957406,369.038889 L55.4210188,369.576667 C55.4957409,369.609259 55.5331014,369.694814 55.5331014,369.833333 C55.524799,369.947408 55.5061187,370.035 55.4770601,370.096111 C55.4480015,370.157223 55.4189433,370.191852 55.3898847,370.2 C55.3608261,370.208148 55.3317679,370.224444 55.3027093,370.248889 C55.2736507,370.273333 55.2549705,370.31 55.246668,370.358889 C55.2134582,370.554445 55.1491151,370.705185 55.0536368,370.811111 C54.9581585,370.917038 54.9104201,371.014814 54.9104201,371.104444 C54.9104201,371.34889 54.9830655,371.542407 55.1283586,371.685 C55.2736516,371.827593 55.5372507,371.968147 55.9191639,372.106667 Z M61.5600703,376.987759 C61.7294603,377.867821 61.7259487,378.358771 61.5495352,378.460623 L60.9885432,378.784512 L59.525242,376.25 L58.0619408,373.715488 L58.6229328,373.391599 C58.7993463,373.289747 59.226277,373.53218 59.9037379,374.118907 C60.2188068,374.387584 60.4733677,374.547388 60.667428,374.598324 C60.8614883,374.64926 61.0643635,374.613617 61.2760597,374.491394 C61.3536816,374.446579 61.4172915,374.357127 61.4668912,374.223035 C61.516491,374.088943 61.6120615,373.957072 61.7536058,373.827417 C61.7917938,373.795782 61.8142076,373.761272 61.8208479,373.723884 C61.8274882,373.686496 61.827072,373.653183 61.8195992,373.623943 C61.8121264,373.594704 61.8275872,373.552224 61.8659819,373.496503 C61.9043767,373.440781 61.9708932,373.380808 62.0655335,373.316581 C62.1219858,373.283988 62.1730416,373.266494 62.2187024,373.264099 C62.2643631,373.261704 62.2948725,373.265659 62.3102315,373.275966 L62.3438547,373.285314 C62.5036632,373.154701 62.6464512,373.043502 62.772223,372.951714 C62.9544471,372.827333 63.1945767,372.786958 63.492619,372.830587 C63.7906613,372.874217 64.0559129,373.097352 64.2883817,373.5 C64.5208506,373.902648 64.5825034,374.245728 64.4733421,374.52925 C64.3641808,374.812772 64.2081123,374.998745 64.0051321,375.087175 L63.502042,375.291353 C63.5111769,375.372361 63.4557646,375.447493 63.3358035,375.516753 C63.2328607,375.5666 63.1476639,375.594218 63.0802106,375.599608 C63.0127572,375.604999 62.9682383,375.597148 62.9466525,375.576057 C62.9250666,375.554965 62.8964247,375.537948 62.8607258,375.525005 C62.8250268,375.512062 62.7839328,375.514217 62.7374423,375.531472 C62.5514805,375.60049 62.3887649,375.620136 62.2492908,375.590413 C62.1098166,375.56069 62.0012702,375.568235 61.9236483,375.61305 C61.7119521,375.735273 61.5806846,375.894944 61.5298417,376.092068 C61.4789988,376.289193 61.4890749,376.587753 61.5600703,376.987759 Z M59.9037379,383.881093 C59.226277,384.46782 58.7993463,384.710253 58.6229328,384.608401 L58.0619408,384.284512 L59.525242,381.75 L60.9885432,379.215488 L61.5495352,379.539377 C61.7259487,379.641229 61.7294603,380.132179 61.5600703,381.012241 C61.4849236,381.419437 61.4738097,381.719795 61.5267283,381.913324 C61.5796468,382.106853 61.7119521,382.264727 61.9236483,382.38695 C62.0012702,382.431765 62.1105429,382.442126 62.2514697,382.418035 C62.3923965,382.393944 62.5543858,382.410775 62.7374423,382.468528 C62.7839328,382.485783 62.8250268,382.487938 62.8607258,382.474995 C62.8964247,382.462052 62.9250666,382.445035 62.9466525,382.423943 C62.9682383,382.402852 63.0127572,382.395001 63.0802106,382.400392 C63.1476639,382.405782 63.2328607,382.4334 63.3358035,382.483247 C63.3922558,382.51584 63.4329336,382.551309 63.4578383,382.589655 C63.4827429,382.628 63.4945721,382.6564 63.4933261,382.674854 L63.502042,382.708647 C63.6950604,382.781739 63.8627554,382.849797 64.0051321,382.912825 C64.2039611,383.008445 64.3589918,383.196216 64.4702287,383.476143 C64.5814657,383.75607 64.5208506,384.097352 64.2883817,384.5 C64.0559129,384.902648 63.7896235,385.127581 63.4895056,385.174805 C63.1893877,385.22203 62.9502959,385.179857 62.772223,385.048286 L62.3438547,384.714686 C62.2782675,384.763101 62.1854947,384.752679 62.0655335,384.683419 C61.9708932,384.619192 61.9043767,384.559219 61.8659819,384.503497 C61.8275872,384.447776 61.8121264,384.405296 61.8195992,384.376057 C61.827072,384.346817 61.8274882,384.313504 61.8208479,384.276116 C61.8142076,384.238728 61.7917938,384.204218 61.7536058,384.172583 C61.6008538,384.046044 61.5024813,383.914952 61.4584854,383.779302 C61.4144896,383.643652 61.3536816,383.553421 61.2760597,383.508606 C61.0643635,383.386383 60.8604505,383.352538 60.6643146,383.407068 C60.4681786,383.461599 60.2146556,383.619606 59.9037379,383.881093 Z M52.606499,385.893333 C51.7596482,385.599999 51.3362291,385.351482 51.3362291,385.147778 L51.3362291,384.5 L54.2628315,384.5 L57.1894339,384.5 L57.1894339,385.147778 C57.1894339,385.351482 56.7660148,385.599999 55.9191639,385.893333 C55.5289483,386.031853 55.2632736,386.172407 55.1221317,386.315 C54.9809899,386.457593 54.9104201,386.65111 54.9104201,386.895556 C54.9104201,386.985186 54.9560829,387.084999 55.04741,387.195 C55.138737,387.305001 55.2051557,387.453703 55.246668,387.641111 C55.2549705,387.69 55.2736507,387.726667 55.3027093,387.751111 C55.3317679,387.775556 55.3608261,387.791852 55.3898847,387.8 C55.4189433,387.808148 55.4480015,387.842777 55.4770601,387.903889 C55.5061187,387.965 55.524799,388.052592 55.5331014,388.166667 C55.5331014,388.231852 55.5227235,388.284815 55.5019674,388.325556 C55.4812112,388.366296 55.462531,388.390741 55.4459261,388.398889 L55.4210188,388.423333 C55.4542286,388.627038 55.4791356,388.806296 55.4957406,388.961111 C55.5123455,389.181112 55.4272465,389.409258 55.2404412,389.645556 C55.0536359,389.881853 54.7277692,390 54.2628315,390 C53.7978937,390 53.4699515,389.881853 53.2789949,389.645556 C53.0880383,389.409258 53.005015,389.181112 53.0299224,388.961111 L53.1046441,388.423333 C53.029922,388.390741 52.9925615,388.305186 52.9925615,388.166667 C53.0008639,388.052592 53.0195442,387.965 53.0486028,387.903889 C53.0776614,387.842777 53.1067196,387.808148 53.1357782,387.8 C53.1648368,387.791852 53.193895,387.775556 53.2229536,387.751111 C53.2520122,387.726667 53.2706925,387.69 53.2789949,387.641111 C53.3122048,387.445555 53.3765479,387.294815 53.4720261,387.188889 C53.5675044,387.082962 53.6152429,386.985186 53.6152429,386.895556 C53.6152429,386.65111 53.5425974,386.457593 53.3973044,386.315 C53.2520113,386.172407 52.9884122,386.031853 52.606499,385.893333 Z M46.9655926,381.012241 C46.7962026,380.132179 46.7997142,379.641229 46.9761277,379.539377 L47.5371197,379.215488 L49.0004209,381.75 L50.4637221,384.284512 L49.9027301,384.608401 C49.7263166,384.710253 49.2993859,384.46782 48.6219251,383.881093 C48.3068561,383.612416 48.0522953,383.452612 47.858235,383.401676 C47.6641746,383.35074 47.4612994,383.386383 47.2496033,383.508606 C47.1719813,383.553421 47.1083715,383.642873 47.0587717,383.776965 C47.009172,383.911057 46.9136014,384.042928 46.7720572,384.172583 C46.7338692,384.204218 46.7114554,384.238728 46.704815,384.276116 C46.6981747,384.313504 46.698591,384.346817 46.7060637,384.376057 C46.7135365,384.405296 46.6980757,384.447776 46.659681,384.503497 C46.6212863,384.559219 46.5547697,384.619192 46.4601294,384.683419 C46.4036771,384.716012 46.3526213,384.733506 46.3069606,384.735901 C46.2612998,384.738296 46.2307904,384.734341 46.2154314,384.724034 L46.1818083,384.714686 C46.0219997,384.845299 45.8792117,384.956498 45.7534399,385.048286 C45.5712158,385.172667 45.3310862,385.213042 45.033044,385.169413 C44.7350017,385.125783 44.4697501,384.902648 44.2372812,384.5 C44.0048123,384.097352 43.9431595,383.754272 44.0523208,383.47075 C44.1614821,383.187228 44.3175506,383.001255 44.5205308,382.912825 L45.0236209,382.708647 C45.014486,382.627639 45.0698983,382.552507 45.1898594,382.483247 C45.2928022,382.4334 45.377999,382.405782 45.4454523,382.400392 C45.5129057,382.395001 45.5574246,382.402852 45.5790105,382.423943 C45.6005963,382.445035 45.6292382,382.462052 45.6649372,382.474995 C45.7006361,382.487938 45.7417302,382.485783 45.7882206,382.468528 C45.9741825,382.39951 46.136898,382.379864 46.2763722,382.409587 C46.4158463,382.43931 46.5243927,382.431765 46.6020146,382.38695 C46.8137108,382.264727 46.9449784,382.105056 46.9958213,381.907932 C47.0466642,381.710807 47.0365881,381.412247 46.9655926,381.012241 Z M48.6219251,374.118907 C49.2993859,373.53218 49.7263166,373.289747 49.9027301,373.391599 L50.4637221,373.715488 L49.0004209,376.25 L47.5371197,378.784512 L46.9761277,378.460623 C46.7997142,378.358771 46.7962026,377.867821 46.9655926,376.987759 C47.0407393,376.580563 47.0518532,376.280205 46.9989347,376.086676 C46.9460162,375.893147 46.8137108,375.735273 46.6020146,375.61305 C46.5243927,375.568235 46.41512,375.557874 46.2741932,375.581965 C46.1332664,375.606056 45.9712772,375.589225 45.7882206,375.531472 C45.7417302,375.514217 45.7006361,375.512062 45.6649372,375.525005 C45.6292382,375.537948 45.6005963,375.554965 45.5790105,375.576057 C45.5574246,375.597148 45.5129057,375.604999 45.4454523,375.599608 C45.377999,375.594218 45.2928022,375.5666 45.1898594,375.516753 C45.1334071,375.48416 45.0927293,375.448691 45.0678247,375.410345 C45.0429201,375.372 45.0310909,375.3436 45.0323368,375.325146 L45.0236209,375.291353 C44.8306025,375.218261 44.6629075,375.150203 44.5205308,375.087175 C44.3217018,374.991555 44.1666712,374.803784 44.0554342,374.523857 C43.9441973,374.24393 44.0048123,373.902648 44.2372812,373.5 C44.4697501,373.097352 44.7360395,372.872419 45.0361574,372.825195 C45.3362753,372.77797 45.5753671,372.820143 45.7534399,372.951714 L46.1818083,373.285314 C46.2473955,373.236899 46.3401683,373.247321 46.4601294,373.316581 C46.5547697,373.380808 46.6212863,373.440781 46.659681,373.496503 C46.6980757,373.552224 46.7135365,373.594704 46.7060637,373.623943 C46.698591,373.653183 46.6981747,373.686496 46.704815,373.723884 C46.7114554,373.761272 46.7338692,373.795782 46.7720572,373.827417 C46.9248092,373.953956 47.0231816,374.085048 47.0671775,374.220698 C47.1111734,374.356348 47.1719813,374.446579 47.2496033,374.491394 C47.4612994,374.613617 47.6652124,374.647462 47.8613484,374.592932 C48.0574843,374.538401 48.3110073,374.380394 48.6219251,374.118907 Z" id="Groups-Icon"></path>
        </g>
    </g>
</svg>