<?xml version="1.0" encoding="UTF-8"?>
<svg width="31px" height="31px" viewBox="0 0 31 31" version="1.1" xmlns="http://www.w3.org/2000/svg" xmlns:xlink="http://www.w3.org/1999/xlink">
    <!-- Generator: Sketch 39.1 (31720) - http://www.bohemiancoding.com/sketch -->
    <title>Blacklist</title>
    <desc>Created with Sketch.</desc>
    <defs></defs>
    <g id="Other" stroke="none" stroke-width="1" fill="none" fill-rule="evenodd">
        <g id="PauseWhite" transform="translate(-856.000000, -716.000000)" fill="#FFFFFF">
            <path d="M863.723993,718.080537 C866.099273,716.693512 868.691275,716 871.5,716 C874.309592,716 876.900727,716.693512 879.276874,718.080537 C881.651286,719.467562 883.532438,721.348714 884.92033,723.723993 C886.306488,726.10014 887,728.691275 887,731.5 C887,734.308725 886.306488,736.900727 884.92033,739.276007 C883.532438,741.651286 881.651286,743.532438 879.276874,744.919463 C876.900727,746.306488 874.309592,747 871.5,747 C868.691275,747 866.099273,746.306488 863.723993,744.919463 C861.347847,743.532438 859.466695,741.651286 858.080537,739.276007 C856.693512,736.900727 856,734.308725 856,731.5 C856,728.691275 856.693512,726.10014 858.080537,723.723993 C859.466695,721.348714 861.347847,719.467562 863.723993,718.080537 C863.723993,718.080537 861.347847,719.467562 863.723993,718.080537 L863.723993,718.080537 L863.723993,718.080537 Z M862.345638,737.091443 L877.118317,722.345638 C875.384536,721.270694 873.512053,720.733221 871.5,720.733221 C868.535235,720.733221 865.999581,721.786493 863.893037,723.893037 C861.786493,725.999581 860.733221,728.535235 860.733221,731.5 C860.733221,733.493848 861.270694,735.357662 862.345638,737.091443 C862.345638,737.091443 861.270694,735.357662 862.345638,737.091443 L862.345638,737.091443 L862.345638,737.091443 Z M880.733249,726.064597 L866.065464,740.732383 C867.746365,741.755313 869.558166,742.266779 871.5,742.266779 C874.464765,742.266779 877.001286,741.213507 879.10783,739.106963 C881.213507,737.000419 882.266779,734.464765 882.266779,731.5 C882.266779,729.558166 881.755313,727.746365 880.733249,726.064597 L880.733249,726.064597 Z" id="Blacklist"></path>
        </g>
    </g>
</svg>