<?xml version="1.0" encoding="UTF-8"?>
<svg width="31px" height="30px" viewBox="0 0 31 30" version="1.1" xmlns="http://www.w3.org/2000/svg" xmlns:xlink="http://www.w3.org/1999/xlink">
    <!-- Generator: Sketch 39.1 (31720) - http://www.bohemiancoding.com/sketch -->
    <title>DeliveryRate</title>
    <desc>Created with Sketch.</desc>
    <defs></defs>
    <g id="Other" stroke="none" stroke-width="1" fill="none" fill-rule="evenodd">
        <g id="PauseWhite" transform="translate(-136.000000, -718.000000)" fill="#FFFFFF">
            <path d="M167,730.5 L167,735.5 L161.755833,735.5 C161.326139,737.2 160.322083,738.75 158.74625,740.15 C157.170417,741.55 155.616972,742.525 154.083333,743.075 L154.083333,748 L148.916667,748 L148.916667,743.075 C146.505556,742.625 144.714444,741.770833 143.543333,740.5125 C142.372222,739.254167 141.528333,737.584167 141.012528,735.5 L136,735.5 L136,730.5 L141.012528,730.5 C141.27,729.5 141.580861,728.629167 141.942528,727.8875 C142.304194,727.145833 142.78125,726.429167 143.376278,725.7375 C143.969583,725.045833 144.727361,724.470833 145.64875,724.0125 C146.570139,723.554167 147.659444,723.216667 148.916667,723 L148.916667,718 L154.083333,718 L154.083333,723 C155.013333,723.333333 155.986389,723.834167 157.0025,724.5 C158.019472,725.166667 158.988222,726.045833 159.90875,727.1375 C160.830139,728.229167 161.445833,729.35 161.755833,730.5 L167,730.5 L167,730.5 L167,730.5 L167,730.5 Z M154.083333,735.5 L154.083333,740.65 C156.649444,739.85 158.381139,738.133333 159.276694,735.5 L154.083333,735.5 L154.083333,730.5 L159.25,730.5 C158.819444,729.266667 158.165861,728.204167 157.286667,727.3125 C156.409194,726.421667 155.340556,725.783333 154.083333,725.4 L154.083333,730.5 L148.916667,730.5 L148.916667,725.425 C147.625,725.825 146.505556,726.471667 145.558333,727.3625 C144.611111,728.254167 143.930833,729.3 143.518361,730.5 L148.916667,730.5 L148.916667,735.5 L143.492528,735.5 C143.905,736.716667 144.589583,737.779167 145.545417,738.6875 C146.502111,739.596667 147.625,740.25 148.916667,740.65 L148.916667,735.5 L154.083333,735.5 L154.083333,735.5 Z" id="DeliveryRate"></path>
        </g>
    </g>
</svg>