<?xml version="1.0" encoding="UTF-8"?>
<svg width="24px" height="38px" viewBox="0 0 24 38" version="1.1" xmlns="http://www.w3.org/2000/svg" xmlns:xlink="http://www.w3.org/1999/xlink">
    <!-- Generator: Sketch 39.1 (31720) - http://www.bohemiancoding.com/sketch -->
    <title>Delivered</title>
    <desc>Created with Sketch.</desc>
    <defs></defs>
    <g id="Other" stroke="none" stroke-width="1" fill="none" fill-rule="evenodd">
        <g id="PauseWhite" transform="translate(-859.000000, -540.000000)" fill="#FFFFFF">
            <g id="Delivered" transform="translate(859.000000, 540.000000)">
                <path d="M3.30423284,4.0086004 L4.65587548,3.35205544 C5.48323868,2.95026024 6.46556935,3.30465263 6.89947829,4.10824302 L8.21555997,6.54642399 C8.6494689,7.35001438 8.27754696,8.36224161 7.45018376,8.76403681 L6.09854112,9.42058177 C5.27150417,9.8220545 4.28884725,9.46830704 3.85493831,8.66439418 L2.53885663,6.22653568 C2.1049477,5.42230035 2.47654339,4.41071806 3.30423284,4.0086004 L3.30423284,4.0086004 L3.30423284,4.0086004 Z" id="Shape"></path>
                <path d="M22.5198736,28.8421878 C20.6765763,29.310089 17.5563469,29.9663114 15.7672066,30.1810752 C10.6676348,30.7950543 9.38287287,28.9118409 8.42011704,21.0948928 C7.40483538,12.850352 8.63641901,11.0983831 13.174193,10.5524446 C14.9440847,10.3392933 18.1448971,10.2415854 20.2325537,10.2706076 L19.6430248,5.48485915 C17.6229014,5.29589287 14.361407,5.12079272 11.6679091,5.44455065 C2.9378571,6.4948291 0.925889889,10.8120314 2.28340498,21.8330222 C3.53554219,31.9994725 6.296247,36.6091534 15.3717949,35.5172765 C17.7631877,35.2293126 21.0641581,34.3834789 23.1217999,33.731126 L22.5198736,28.8421878 L22.5198736,28.8421878 Z" id="Shape"></path>
                <path d="M17.9941708,11.4434239 C18.5445501,11.3769955 19.0492547,11.7678267 19.1164616,12.3118304 L19.889994,18.5931856 C19.9568747,19.1371892 19.561463,19.6360473 19.01141,19.7024757 L12.861648,20.4422174 C12.3112688,20.5086459 11.8065642,20.1178146 11.7396835,19.573811 L10.9658249,13.2924557 C10.8989442,12.7487746 11.2940297,12.249594 11.8444089,12.1834881 L17.9941708,11.4434239 Z" id="Shape"></path>
                <path d="M12.5494293,21.5653737 L13.5229513,21.4483178 C13.8211414,21.4125238 14.0945366,21.6240629 14.1310763,21.9187987 L14.2547241,22.9226417 C14.2909375,23.217055 14.0769193,23.4876057 13.7787292,23.5233997 L12.8052072,23.6404556 C12.5070172,23.6762496 12.2336219,23.4647105 12.1974085,23.1699747 L12.0737608,22.1661317 C12.0372211,21.8717183 12.2512393,21.6011676 12.5494293,21.5653737 L12.5494293,21.5653737 L12.5494293,21.5653737 Z" id="Shape"></path>
                <path d="M15.5815719,21.2006623 L16.5550939,21.0836064 C16.853284,21.0478124 17.1266792,21.2593515 17.1628927,21.5540873 L17.2865404,22.5579303 C17.3227539,22.8526661 17.1087356,23.1228944 16.8105456,23.1586883 L15.8370236,23.2757442 C15.5388335,23.3115382 15.2654383,23.0999991 15.2292248,22.8052633 L15.1055771,21.8014203 C15.0690374,21.5070069 15.2833819,21.2364563 15.5815719,21.2006623 L15.5815719,21.2006623 L15.5815719,21.2006623 Z" id="Shape"></path>
                <path d="M18.6137145,20.8356285 L19.5872365,20.7185726 C19.8854265,20.6827786 20.1588218,20.8943176 20.1950352,21.1890534 L20.342499,22.3857324 C20.3656626,22.5740537 20.2286387,22.7472191 20.037784,22.7704368 L18.8691661,22.9110329 C18.5709761,22.9468268 18.2975808,22.7352878 18.2613674,22.440552 L18.1377197,21.4367089 C18.10118,21.1419731 18.3155244,20.8717449 18.6137145,20.8356285 L18.6137145,20.8356285 L18.6137145,20.8356285 Z" id="Shape"></path>
                <path d="M13.873341,24.2940984 C14.171531,24.2586269 14.4449263,24.4701659 14.481466,24.7649017 L14.6051137,25.7680998 C14.6413272,26.0634806 14.4273089,26.3337088 14.1291189,26.3695028 L13.1555969,26.4865587 C12.8574068,26.5223526 12.5840116,26.3108136 12.5477981,26.0160778 L12.4241504,25.0122347 C12.3876107,24.7174989 12.6016289,24.4469482 12.9001452,24.4114767 L13.873341,24.2940984 Z" id="Shape"></path>
                <path d="M16.9054835,23.9290645 C17.2036736,23.893593 17.4770688,24.1051321 17.5132823,24.3995454 L17.63693,25.4033885 C17.6731435,25.6981243 17.4591252,25.9683525 17.1609352,26.0041464 L16.1877394,26.1212024 C15.8892231,26.1569963 15.6161541,25.9454573 15.5796144,25.6507215 L15.4559667,24.6472009 C15.4197533,24.3524651 15.6337715,24.0819144 15.9319615,24.0461204 L16.9054835,23.9290645 Z" id="Shape"></path>
                <path d="M19.9376261,23.5643531 C20.2358162,23.5285592 20.5092114,23.7400982 20.5454249,24.034834 L20.6690726,25.0386771 C20.7056123,25.3334129 20.4912678,25.6036411 20.1930778,25.6394351 L19.219882,25.756491 C18.921692,25.7922849 18.6482967,25.5807459 18.611757,25.2860101 L18.4881093,24.282167 C18.4518958,23.9874312 18.6659141,23.717203 18.9641041,23.681409 L19.9376261,23.5643531 Z" id="Shape"></path>
                <path d="M13.2505348,27.2569348 L14.2240568,27.1398789 C14.5222469,27.104085 14.7956421,27.315624 14.8318556,27.6103598 L14.9555033,28.6142029 C14.9917168,28.9089387 14.7776985,29.1791669 14.4795085,29.2149609 L13.5059865,29.3320168 C13.2077964,29.3678107 12.9344012,29.1562717 12.8981877,28.8615359 L12.77454,27.8576928 C12.7380003,27.562957 12.9523448,27.2927288 13.2505348,27.2569348 L13.2505348,27.2569348 L13.2505348,27.2569348 Z" id="Shape"></path>
                <path d="M16.2823512,26.8915785 L17.2558732,26.7745226 C17.5540632,26.7387287 17.8274585,26.9509127 17.8636719,27.2456485 L17.9873196,28.2488466 C18.0235331,28.5435824 17.8095149,28.8144556 17.5113248,28.8496046 L16.5381291,28.9666605 C16.239939,29.0024544 15.9665438,28.7909154 15.9300041,28.4961796 L15.8063563,27.4929815 C15.7701429,27.1982457 15.9841611,26.9273725 16.2823512,26.8915785 L16.2823512,26.8915785 L16.2823512,26.8915785 Z" id="Shape"></path>
                <path d="M19.3144937,26.5268672 L20.2880157,26.4098113 C20.5862058,26.3740173 20.859601,26.5855564 20.8958145,26.8802922 L21.0194622,27.8841352 C21.0556757,28.178871 20.8416574,28.4490992 20.5434674,28.4848932 L19.5699454,28.6019491 C19.2717553,28.6377431 18.9983601,28.426204 18.9618204,28.1314682 L18.8381727,27.1276252 C18.8022854,26.8328894 19.0166299,26.5629836 19.3144937,26.5268672 L19.3144937,26.5268672 L19.3144937,26.5268672 Z" id="Shape"></path>
                <path d="M17.5873404,1.24311435 C19.8665042,0.510466932 23.3116759,2.57619729 23.1958581,5.34974504 C21.9711257,2.43560122 20.0381103,1.66812725 17.5873404,1.24311435 L17.5873404,1.24311435 L17.5873404,1.24311435 Z" id="Shape"></path>
                <path d="M19.62084,0.293123462 C21.3049286,-0.248300403 23.8300829,1.2779409 23.7446061,3.32722539 C22.839596,1.17442866 21.4318388,0.606562412 19.62084,0.293123462 L19.62084,0.293123462 L19.62084,0.293123462 Z" id="Shape"></path>
                <path d="M5.58209162,36.4156726 C3.62852267,37.0441628 0.675658196,35.2731682 0.775163628,32.8962562 C1.82470125,35.3940938 3.48105889,36.0516061 5.58209162,36.4156726 L5.58209162,36.4156726 L5.58209162,36.4156726 Z" id="Shape"></path>
                <path d="M3.83895219,37.2302269 C2.39563406,37.6942584 0.231309349,36.386328 0.304714995,34.6304894 C1.08053112,36.4750067 2.2869937,36.9619334 3.83895219,37.2302269 L3.83895219,37.2302269 L3.83895219,37.2302269 Z" id="Shape"></path>
            </g>
        </g>
    </g>
</svg>