<?xml version="1.0" encoding="UTF-8"?>
<svg width="43px" height="27px" viewBox="0 0 43 27" version="1.1" xmlns="http://www.w3.org/2000/svg" xmlns:xlink="http://www.w3.org/1999/xlink">
    <!-- Generator: Sketch 39.1 (31720) - http://www.bohemiancoding.com/sketch -->
    <title>LiveTransfer</title>
    <desc>Created with Sketch.</desc>
    <defs></defs>
    <g id="Other" stroke="none" stroke-width="1" fill="none" fill-rule="evenodd">
        <g id="PauseWhite" transform="translate(-370.000000, -718.000000)" fill="#FFFFFF">
            <path d="M395.727777,741.7825 L395.727777,745 L370,745 L370,741.7825 L378.575926,736 L378.575926,733.75 C378.047077,733.75 377.558249,733.19125 377.108013,732.07375 C376.657062,730.95625 376.431944,730.015 376.431944,729.25 L376.431944,724.75 C376.431944,722.89075 377.060845,721.3 378.319363,719.98 C379.577165,718.66 381.09153,718 382.863888,718 C384.636246,718 386.151327,718.66 387.409129,719.98 C388.666931,721.3 389.295833,722.89075 389.295833,724.75 L389.295833,729.25 C389.295833,730.015 389.071429,730.95625 388.620478,732.07375 C388.170242,733.19125 387.681415,733.75 387.151851,733.75 L387.151851,736 L395.727777,741.7825 Z M401.964814,733.972273 L401.964814,728.636364 C403.034639,728.660591 404.065049,728.778182 405.056045,728.990909 C406.047041,729.203636 407.004253,729.5115 407.927681,729.912727 C408.851109,730.314545 409.678815,730.861136 410.410801,731.5525 C411.142787,732.243864 411.705852,733.044545 412.099998,733.954545 C412.032431,732.394545 411.801574,730.985227 411.406864,729.726591 C411.013281,728.467955 410.430508,727.3275 409.659108,726.305227 C408.887708,725.282955 407.851667,724.4675 406.550422,723.858864 C405.250303,723.250227 403.721579,722.899227 401.964814,722.804091 L401.964814,718 L391.829629,726.030455 L401.964814,733.972273 Z" id="LiveTransfer"></path>
        </g>
    </g>
</svg>