<?xml version="1.0" encoding="UTF-8"?>
<svg width="31px" height="32px" viewBox="0 0 31 32" version="1.1" xmlns="http://www.w3.org/2000/svg" xmlns:xlink="http://www.w3.org/1999/xlink">
    <!-- Generator: Sketch 39.1 (31720) - http://www.bohemiancoding.com/sketch -->
    <title>Phonebook Icon</title>
    <desc>Created with Sketch.</desc>
    <defs></defs>
    <g id="Other" stroke="none" stroke-width="1" fill="none" fill-rule="evenodd">
        <g id="PauseWhite" transform="translate(-136.000000, -545.000000)">
            <g id="Phonebook-Icon" transform="translate(137.000000, 546.000000)">
                <path d="M14.8725033,1.87982527 C14.7745018,1.88417814 14.4813574,2.8069295 14.3871268,2.80871579 C9.67583021,2.89802544 0.391894594,0.70563293 0.391894594,0.70563293 L0.136509387,27.5054213 C0.136509387,27.5054213 9.75831901,29.386672 14.3871268,29.4534515 C19.0798791,29.5211535 28.1011896,27.9088658 28.1011896,27.9088658 L28.6377441,0.170190701 C28.6377441,0.170190701 19.6667308,1.66688343 14.8725033,1.87982527 Z" id="Path-1149" stroke="#FFFFFF" stroke-width="1.71"></path>
                <path d="M15.3928478,30.3807291 L15.3928478,2.43268937" id="Path-1150" stroke="#FFFFFF" stroke-width="1.71"></path>
                <path d="M3.7727569,19.1848143 L12.4607452,18.7756167" id="Path-1151" stroke="#FFFFFF" stroke-width="1.71"></path>
                <path d="M4.6365806,21.867691 L12.4607452,21.2161048" id="Path-1152" stroke="#FFFFFF" stroke-width="1.71"></path>
                <path d="M6.00035257,24.4780419 L12.46274,23.8989815" id="Path-1153" stroke="#FFFFFF" stroke-width="1.71"></path>
                <path d="M17.9694924,18.2676989 L26.5447697,16.8668078" id="Path-1155" stroke="#FFFFFF" stroke-width="1.71"></path>
                <path d="M18.7206052,21.9596389 L25.709564,20.2220758" id="Path-1156" stroke="#FFFFFF" stroke-width="1.71"></path>
                <path d="M19.6975801,24.9999927 L25.4885449,23.8418717" id="Path-1157" stroke="#FFFFFF" stroke-width="1.71"></path>
                <polygon id="Path-1158" stroke="#FFFFFF" stroke-width="0.855" points="17.914898 5.82440786 17.914898 13.3920632 26.0283272 13.3920629 25.5756366 4.12379199"></polygon>
                <path d="M25.5551057,12.5263615 L25.5551057,13.3735789 L18.44821,13.3735789 L18.44821,12.5263615 L20.8171752,11.00374 L20.8171752,10.4112803 C20.671089,10.4112803 20.536058,10.2641528 20.4116874,9.96989777 C20.2871193,9.67564278 20.2249339,9.42779712 20.2249339,9.22636082 L20.2249339,8.04144136 C20.2249339,7.55187214 20.398658,7.13300311 20.7463037,6.78542674 C21.0937519,6.43785037 21.5120717,6.26406218 22.0016579,6.26406218 C22.491244,6.26406218 22.9097612,6.43785037 23.2572094,6.78542674 C23.6046577,7.13300311 23.7783818,7.55187214 23.7783818,8.04144136 L23.7783818,9.22636082 C23.7783818,9.42779712 23.7163939,9.67564278 23.5918258,9.96989777 C23.4674551,10.2641528 23.3324241,10.4112803 23.1861405,10.4112803 L23.1861405,11.00374 L25.5551057,12.5263615" id="Account-icon" fill="#FFFFFF"></path>
                <g id="Phone-Icon-" transform="translate(4.234419, 4.364398)" fill="#FFFFFF">
                    <path d="M0.980023419,1.2035857 L1.3809157,1.00645752 C1.62630861,0.885818165 1.91766431,0.992224784 2.04636012,1.23350349 L2.43670515,1.96556941 C2.56540096,2.20684812 2.45509026,2.51077021 2.20969735,2.63140956 L1.80880507,2.82853775 C1.56350893,2.94908028 1.27205646,2.8428673 1.14336066,2.60149178 L0.753015625,1.86952267 C0.624319816,1.62805033 0.734533745,1.32432188 0.980023419,1.2035857 L0.980023419,1.2035857 L0.980023419,1.2035857 Z" id="Shape"></path>
                    <path d="M6.67931246,8.6598916 C6.13259718,8.80037932 5.20714852,8.99741069 4.67649603,9.06189368 C3.16398161,9.24624146 2.7829259,8.68080501 2.49737603,6.33375963 C2.19624719,3.8583292 2.56153041,3.33229902 3.90741762,3.16838055 C4.43236105,3.10438166 5.38171036,3.0750448 6.00090169,3.08375872 L5.82604957,1.64683366 C5.22688833,1.59009637 4.25954097,1.5375224 3.46065932,1.634731 C0.87135771,1.950078 0.274615567,3.2463217 0.677249596,6.55538361 C1.04862893,9.60786905 1.86744391,10.9919297 4.55921835,10.6640927 C5.26849675,10.5776313 6.24755253,10.323669 6.8578416,10.1277995 L6.67931246,8.6598916 L6.67931246,8.6598916 Z" id="Shape"></path>
                    <path d="M5.3370055,3.43589783 C5.50024597,3.41595264 5.64993952,3.53330006 5.66987285,3.69663761 L5.89929974,5.58261991 C5.91913631,5.74595746 5.80185863,5.89574003 5.63871492,5.91568522 L3.81471794,6.1377933 C3.65147746,6.15773849 3.50178392,6.04039106 3.48194735,5.87705351 L3.25242369,3.99107122 C3.23258712,3.82783049 3.34976804,3.6779511 3.51300851,3.65810273 L5.3370055,3.43589783 Z" id="Shape"></path>
                    <path d="M3.72211501,6.47502192 L4.01085809,6.43987579 C4.09930017,6.42912862 4.18038821,6.4926434 4.19122575,6.58113808 L4.22789922,6.88254282 C4.23863999,6.97094067 4.17516296,7.05217375 4.08672088,7.06292092 L3.7979778,7.09806705 C3.70953572,7.10881422 3.62844769,7.04529944 3.61770691,6.95680476 L3.58103344,6.65540002 C3.5701959,6.56700217 3.63367293,6.48576909 3.72211501,6.47502192 L3.72211501,6.47502192 L3.72211501,6.47502192 Z" id="Shape"></path>
                    <path d="M4.62143745,6.36551702 L4.91018053,6.33037089 C4.99862261,6.31962372 5.07971064,6.3831385 5.09045142,6.47163318 L5.12712489,6.77303792 C5.13786567,6.86153259 5.07438864,6.94266885 4.98594656,6.95341602 L4.69720348,6.98856215 C4.6087614,6.99930932 4.52767336,6.93579454 4.51693258,6.84729986 L4.48025912,6.54589512 C4.46942157,6.45749727 4.53299537,6.37626419 4.62143745,6.36551702 L4.62143745,6.36551702 L4.62143745,6.36551702 Z" id="Shape"></path>
                    <path d="M5.52075989,6.2559153 L5.80950297,6.22076916 C5.89794505,6.210022 5.97903308,6.27353678 5.98977386,6.36203145 L6.03351108,6.72133534 C6.04038131,6.77787898 5.99974053,6.82987202 5.94313373,6.83684316 L5.59652592,6.87905725 C5.50808384,6.88980442 5.4269958,6.82628964 5.41625502,6.73779496 L5.37958155,6.43639022 C5.36874401,6.34789554 5.43231781,6.26675929 5.52075989,6.2559153 L5.52075989,6.2559153 L5.52075989,6.2559153 Z" id="Shape"></path>
                    <path d="M4.11478237,7.29432385 C4.20322445,7.2836735 4.28431249,7.34718828 4.29515003,7.43568296 L4.3318235,7.73689406 C4.34256428,7.82558238 4.27908725,7.90671863 4.19064517,7.9174658 L3.90190209,7.95261193 C3.81346001,7.9633591 3.73237197,7.89984432 3.72163119,7.81134964 L3.68495773,7.50994491 C3.67412018,7.42145023 3.73759721,7.34021715 3.82613606,7.32956681 L4.11478237,7.29432385 Z" id="Shape"></path>
                    <path d="M5.01410481,7.18472213 C5.10254689,7.17407178 5.18363493,7.23758656 5.19437571,7.32598442 L5.23104917,7.62738915 C5.24178995,7.71588383 5.17831292,7.79702009 5.08987084,7.80776726 L4.80122453,7.84291339 C4.71268568,7.85366056 4.63169441,7.79014578 4.62085687,7.7016511 L4.5841834,7.40034318 C4.57344262,7.31184851 4.63691965,7.23061543 4.72536173,7.21986826 L5.01410481,7.18472213 Z" id="Shape"></path>
                    <path d="M5.91342725,7.07521722 C6.00186933,7.06447006 6.08295737,7.12798484 6.09369815,7.21647952 L6.13037161,7.51788425 C6.14120915,7.60637893 6.07763536,7.68751519 5.98919328,7.69826235 L5.70054697,7.73340849 C5.61210488,7.74415565 5.53101685,7.68064088 5.52017931,7.5921462 L5.48350584,7.29074146 C5.47276506,7.20224678 5.53624209,7.12111052 5.62468417,7.11036336 L5.91342725,7.07521722 Z" id="Shape"></path>
                    <path d="M3.93006034,8.18391804 L4.21880342,8.14877191 C4.3072455,8.13802474 4.38833354,8.20153952 4.39907432,8.2900342 L4.43574778,8.59143894 C4.44648856,8.67993361 4.38301153,8.76106987 4.29456945,8.77181704 L4.00582637,8.80696317 C3.91738429,8.81771034 3.83629626,8.75419556 3.82555548,8.66570088 L3.78888201,8.36429614 C3.77804447,8.27580147 3.84161826,8.19466521 3.93006034,8.18391804 L3.93006034,8.18391804 L3.93006034,8.18391804 Z" id="Shape"></path>
                    <path d="M4.82928602,8.0742195 L5.1180291,8.03907336 C5.20647118,8.0283262 5.28755921,8.09203462 5.29829999,8.1805293 L5.33497346,8.48174039 C5.34571424,8.57023507 5.28223721,8.65156497 5.19379512,8.66211849 L4.90514881,8.69726463 C4.81670673,8.70801179 4.73561869,8.64449702 4.72478115,8.55600234 L4.68810768,8.25479124 C4.67736691,8.16629657 4.74084394,8.08496667 4.82928602,8.0742195 L4.82928602,8.0742195 L4.82928602,8.0742195 Z" id="Shape"></path>
                    <path d="M5.72860846,7.9647146 L6.01735153,7.92956846 C6.10579362,7.9188213 6.18688165,7.98233608 6.19762243,8.07083075 L6.2342959,8.37223549 C6.24503668,8.46073017 6.18155964,8.54186643 6.09311756,8.55261359 L5.80437449,8.58775973 C5.7159324,8.59850689 5.63484437,8.53499211 5.62400683,8.44649744 L5.58733336,8.1450927 C5.57668935,8.05659802 5.64026314,7.97555859 5.72860846,7.9647146 L5.72860846,7.9647146 L5.72860846,7.9647146 Z" id="Shape"></path>
                    <path d="M5.21634108,0.37324615 C5.89233275,0.153268134 6.91415811,0.773505445 6.87980698,1.60626553 C6.5165558,0.731291354 5.94323049,0.500856636 5.21634108,0.37324615 L5.21634108,0.37324615 L5.21634108,0.37324615 Z" id="Shape"></path>
                    <path d="M5.81946963,0.0880105707 C6.31896419,-0.0745524087 7.06791574,0.383702851 7.04256363,0.999002276 C6.77414095,0.352623211 6.3566053,0.182120884 5.81946963,0.0880105707 L5.81946963,0.0880105707 L5.81946963,0.0880105707 Z" id="Shape"></path>
                    <path d="M1.65562803,10.9338369 C1.0762066,11.1225416 0.200397759,10.590799 0.229910707,9.87712911 C0.541199742,10.627107 1.03246938,10.8245256 1.65562803,10.9338369 L1.65562803,10.9338369 L1.65562803,10.9338369 Z" id="Shape"></path>
                    <path d="M1.13861923,11.1784075 C0.710536332,11.3177334 0.0686055099,10.9250261 0.0903773572,10.3978341 C0.320481592,10.951652 0.678313998,11.0978522 1.13861923,11.1784075 L1.13861923,11.1784075 L1.13861923,11.1784075 Z" id="Shape"></path>
                </g>
            </g>
        </g>
    </g>
</svg>