<?xml version="1.0" encoding="UTF-8"?>
<svg width="27px" height="29px" viewBox="0 0 27 29" version="1.1" xmlns="http://www.w3.org/2000/svg" xmlns:xlink="http://www.w3.org/1999/xlink">
    <!-- Generator: Sketch 39.1 (31720) - http://www.bohemiancoding.com/sketch -->
    <title>Saved</title>
    <desc>Created with Sketch.</desc>
    <defs></defs>
    <g id="Other" stroke="none" stroke-width="1" fill="none" fill-rule="evenodd">
        <g id="PauseWhite" transform="translate(-138.000000, -376.000000)" fill="#FFFFFF">
            <path d="M164.1,381.092578 L164.1,402.736035 C164.1,403.092516 163.981364,403.393827 163.744091,403.639119 C163.506818,403.886958 163.230791,404.00918 162.913636,404.00918 L159.354545,404.00918 L159.354545,393.824024 L142.745455,393.824024 L142.745455,404.00918 L139.186364,404.00918 C138.854182,404.00918 138.573409,403.886958 138.344836,403.639119 C138.114682,403.393827 138,403.092516 138,402.736035 L138,377.273145 C138,376.933639 138.114682,376.636572 138.344836,376.381095 C138.573409,376.127314 138.854182,376 139.186364,376 L145.118182,376 L145.118182,383.638867 L156.981818,383.638867 L156.981818,376 L159.354545,376 L164.1,381.092578 L164.1,381.092578 L164.1,381.092578 L164.1,381.092578 Z M152.236364,381.092578 L154.609091,381.092578 L154.609091,376 L152.236364,376 L152.236364,376 L152.236364,381.092578 L152.236364,381.092578 Z" id="Saved"></path>
        </g>
    </g>
</svg>