<?xml version="1.0" encoding="UTF-8"?>
<svg width="27px" height="29px" viewBox="0 0 27 29" version="1.1" xmlns="http://www.w3.org/2000/svg" xmlns:xlink="http://www.w3.org/1999/xlink">
    <!-- Generator: Sketch 39.1 (31720) - http://www.bohemiancoding.com/sketch -->
    <title>Scheduled</title>
    <desc>Created with Sketch.</desc>
    <defs></defs>
    <g id="Other" stroke="none" stroke-width="1" fill="none" fill-rule="evenodd">
        <g id="PauseWhite" transform="translate(-378.000000, -376.000000)" fill="#FFFFFF">
            <path d="M378,383.002295 L378,379.501148 C378,379.174492 378.1143,378.898295 378.3429,378.671672 C378.5733,378.44682 378.8523,378.334393 379.1862,378.334393 L382.7457,378.334393 L382.7457,376 L385.1181,376 L385.1181,378.334393 L396.9819,378.334393 L396.9819,376 L399.3552,376 L399.3552,378.334393 L402.9138,378.334393 C403.245,378.334393 403.5267,378.44682 403.7562,378.671672 C403.9839,378.898295 404.1,379.174492 404.1,379.501148 L404.1,383.002295 L378,383.002295 L378,383.002295 L378,383.002295 L378,383.002295 Z M404.1,385.334918 L404.1,402.838885 C404.1,403.151377 403.9839,403.423148 403.7562,403.655967 C403.5267,403.889672 403.245,404.006525 402.9138,404.006525 L379.1862,404.006525 C378.8523,404.006525 378.5733,403.889672 378.3429,403.655967 C378.1143,403.423148 378,403.151377 378,402.838885 L378,385.334918 L404.1,385.334918 L404.1,385.334918 L404.1,385.334918 L404.1,385.334918 Z M380.3733,392.337213 L382.7457,392.337213 L382.7457,390.003705 L380.3733,390.003705 L380.3733,390.003705 L380.3733,392.337213 L380.3733,392.337213 Z M380.3733,397.005115 L382.7457,397.005115 L382.7457,394.671607 L380.3733,394.671607 L380.3733,394.671607 L380.3733,397.005115 L380.3733,397.005115 Z M380.3733,401.673016 L382.7457,401.673016 L382.7457,399.338623 L380.3733,399.338623 L380.3733,399.338623 L380.3733,401.673016 L380.3733,401.673016 Z M385.1181,392.337213 L387.4905,392.337213 L387.4905,390.003705 L385.1181,390.003705 L385.1181,390.003705 L385.1181,392.337213 L385.1181,392.337213 Z M385.1181,397.005115 L387.4905,397.005115 L387.4905,394.671607 L385.1181,394.671607 L385.1181,394.671607 L385.1181,397.005115 L385.1181,397.005115 Z M385.1181,401.673016 L387.4905,401.673016 L387.4905,399.338623 L385.1181,399.338623 L385.1181,399.338623 L385.1181,401.673016 L385.1181,401.673016 Z M389.8638,392.337213 L392.2371,392.337213 L392.2371,390.003705 L389.8638,390.003705 L389.8638,390.003705 L389.8638,392.337213 L389.8638,392.337213 Z M389.8638,397.005115 L392.2371,397.005115 L392.2371,394.671607 L389.8638,394.671607 L389.8638,394.671607 L389.8638,397.005115 L389.8638,397.005115 Z M389.8638,401.673016 L392.2371,401.673016 L392.2371,399.338623 L389.8638,399.338623 L389.8638,399.338623 L389.8638,401.673016 L389.8638,401.673016 Z M394.6095,392.337213 L396.9819,392.337213 L396.9819,390.003705 L394.6095,390.003705 L394.6095,390.003705 L394.6095,392.337213 L394.6095,392.337213 Z M394.6095,397.005115 L396.9819,397.005115 L396.9819,394.671607 L394.6095,394.671607 L394.6095,394.671607 L394.6095,397.005115 L394.6095,397.005115 Z M394.6095,401.673016 L396.9819,401.673016 L396.9819,399.338623 L394.6095,399.338623 L394.6095,399.338623 L394.6095,401.673016 L394.6095,401.673016 Z M399.3552,392.337213 L401.7267,392.337213 L401.7267,390.003705 L399.3552,390.003705 L399.3552,390.003705 L399.3552,392.337213 L399.3552,392.337213 Z M399.3552,397.005115 L401.7267,397.005115 L401.7267,394.671607 L399.3552,394.671607 L399.3552,394.671607 L399.3552,397.005115 L399.3552,397.005115 Z M399.3552,401.673016 L401.7267,401.673016 L401.7267,399.338623 L399.3552,399.338623 L399.3552,399.338623 L399.3552,401.673016 L399.3552,401.673016 Z" id="Scheduled"></path>
        </g>
    </g>
</svg>