<?xml version="1.0" encoding="UTF-8"?>
<svg width="40px" height="36px" viewBox="0 0 40 36" version="1.1" xmlns="http://www.w3.org/2000/svg" xmlns:xlink="http://www.w3.org/1999/xlink">
    <!-- Generator: Sketch 39.1 (31720) - http://www.bohemiancoding.com/sketch -->
    <title>Sent Messages</title>
    <desc>Created with Sketch.</desc>
    <defs></defs>
    <g id="Other" stroke="none" stroke-width="1" fill="none" fill-rule="evenodd">
        <g id="PauseWhite" transform="translate(-611.000000, -541.000000)" fill="#FFFFFF">
            <g id="Sent-Messages" transform="translate(611.000000, 541.000000)">
                <g id="Callburn-Icon" transform="translate(0.375000, 0.436799)">
                    <path d="M3.58791625,20.8974966 C4.68453645,20.3093835 5.80586096,19.6963091 6.69898464,18.9410769 C7.12272639,18.5833994 7.98360884,17.9082261 7.79644227,17.3785591 C7.72609779,17.1800861 7.73824059,16.995007 7.8069102,16.830932 C7.77006309,16.6732495 7.73572829,16.5128274 7.70474322,16.3493612 L5.8653188,15.749985 L3.14449479,16.6370252 C2.85516124,17.8710886 2.78691035,19.444565 3.2131644,21.0914034 C3.33836083,21.0268693 3.46439469,20.9638572 3.58791625,20.8974966 L3.58791625,20.8974966 L3.58791625,20.8974966 Z M7.58540883,14.5070939 C7.65240357,13.8090901 7.87809212,13.1202185 8.37301578,12.4974031 C12.9885349,6.68324162 9.64800949,4.04312527 6.91336781,2.81301917 C6.91336781,2.81301917 9.97837732,8.33312409 5.8410332,13.9777312 L5.86573752,14.0410477 L5.89839745,13.957336 L7.58540883,14.5070939 L7.58540883,14.5070939 Z M5.81046685,13.9643373 C6.51474909,12.5966396 7.84333859,7.7928028 6.11068705,4.70794876 C6.11068705,4.70794876 6.65125088,10.9525408 4.05729817,14.5363169 L5.81046685,13.9643373 L5.81046685,13.9643373 Z" id="Shape"></path>
                    <path d="M11.5812265,0.0182643816 C12.8683631,2.35914929 17.2607059,7.22630257 8.80890033,14.906475 L6.68977286,14.2151682 C13.1463912,6.16970809 11.5812265,0.0182643816 11.5812265,0.0182643816 L11.5812265,0.0182643816 L11.5812265,0.0182643816 Z M7.39154279,16.2476894 C3.96894885,20.1565715 6.32507022,25.5817016 14.9678108,27.1524385 C16.4169909,27.41575 20.8960082,27.2005347 22.7739546,24.8776097 C25.3997298,21.6283762 22.8451365,18.8844573 20.6966988,16.7657891 L22.6077238,16.1840685 C23.0134608,16.4269848 23.469025,16.6738583 23.9865594,16.9523902 C27.6976495,19.5264503 30.6818466,23.7026012 27.2563216,28.6120669 C23.8303779,33.5212283 16.8491069,33.9047803 14.4770743,33.9047803 C12.1062978,33.9047803 4.66108829,32.9255051 1.96203757,28.6370283 C-1.22481862,23.5738373 0.606231457,18.8314906 2.44188742,16.8665476 L5.13172636,15.9895528 C4.72515201,16.4799515 4.45801047,16.7283471 4.45801047,16.7283471 C4.70421616,16.476603 4.94037263,16.226381 5.17024834,15.9770722 L5.8653188,15.749985 L7.39154279,16.2476894 L7.39154279,16.2476894 Z M19.3295873,15.3786093 C17.4675522,13.1771425 19.1700561,10.6313921 19.1700561,10.6313921 C19.6737728,12.8078976 20.1800018,14.0127379 20.9529537,14.8842534 L19.3295873,15.3786093 L19.3295873,15.3786093 Z M5.27743993,14.1384578 C6.75048684,12.4435232 8.08075121,10.5513332 8.08075121,10.5513332 C7.60132008,11.9945238 7.00716045,13.1908408 6.43854257,14.1338917 L5.89797874,13.9576404 L5.8653188,14.0416565 L5.83265886,13.9576404 L5.27743993,14.1384578 L5.27743993,14.1384578 Z" id="Shape"></path>
                    <path d="M11.7771862,2.35884488 C13.0555296,4.68237862 16.3583705,7.5915902 9.57389655,15.1557838 L7.5456307,14.4946132 C13.7317578,6.85827528 11.7771862,2.35884488 11.7771862,2.35884488 L11.7771862,2.35884488 L11.7771862,2.35884488 Z M15.7889151,27.6598839 C17.2380952,27.9231954 21.7171125,27.7079801 23.5942214,25.3856639 C26.4670398,21.8320241 23.1428444,18.8832397 20.9299242,16.6942536 L22.7019352,16.1548455 C23.3970057,16.5776659 24.1067312,16.974003 24.8076637,17.4598356 C28.5179163,20.034809 31.5021134,24.210351 28.0774259,29.1195123 C24.6523197,34.0292825 17.6702113,34.4122257 15.2981786,34.4122257 C12.9274022,34.4122257 5.48303005,33.4329505 2.78314189,29.1444737 C-0.77427897,23.4937784 1.80836838,18.1611878 3.78513202,16.7246942 C3.97648576,16.5852761 4.17830742,16.4187658 4.38640984,16.2324691 L5.86573752,15.749985 L6.26477496,15.8799666 C5.63167463,16.7262162 5.16815475,17.156038 5.16815475,17.156038 C5.58352216,16.7310867 5.97376654,16.3137456 6.34181891,15.9052323 L8.3319815,16.5542266 C5.12125843,20.7115043 7.02349042,26.066621 15.7889151,27.6598839 Z M19.6641423,15.2763287 C18.2254302,13.240459 18.3280159,11.1388375 18.3280159,11.1388375 C19.0494655,12.9366615 19.9392395,14.0599209 20.9123381,14.8964296 L19.6641423,15.2763287 L19.6641423,15.2763287 Z M6.37489756,14.1122788 C7.68590095,12.5506742 8.79131421,10.9784154 8.79131421,10.9784154 C8.33993713,12.3394162 7.78555563,13.4803312 7.24666666,14.3965944 L6.37489756,14.1122788 L6.37489756,14.1122788 Z" id="Shape"></path>
                    <path d="M26.435636,23.4079358 C26.3481241,21.6201573 25.0061357,20.9815127 21.9319144,19.0022626 C21.1175095,18.4771616 20.3893604,17.7989442 19.8270233,17.0300138 L23.6469798,15.8671815 C24.3462374,16.5228728 25.1560364,17.2150928 26.043298,18.1788434 C28.7762648,21.148023 26.435636,23.4079358 26.435636,23.4079358 L26.435636,23.4079358 L26.435636,23.4079358 Z M18.9791211,15.4851515 C18.2832132,13.6483635 18.5637537,11.5771827 20.5761083,9.8846833 C21.2247011,9.33918711 20.9768206,9.69199408 20.9768206,9.69199408 C21.0756378,12.06058 21.5672117,13.3990547 22.3472818,14.4596065 L18.9791211,15.4851515 L18.9791211,15.4851515 Z" id="Shape"></path>
                    <path d="M24.580719,17.3155469 C25.081086,15.5639928 23.9878156,14.7113505 21.6522113,12.2560088 C19.3157697,9.80097156 18.9058456,5.4473518 23.325405,3.16673936 C24.1343666,2.74909383 23.778457,3.0492385 23.778457,3.0492385 C22.3121095,8.0415028 24.1808442,8.70754391 25.9139144,12.169253 C27.594645,15.5265508 24.580719,17.3155469 24.580719,17.3155469 L24.580719,17.3155469 L24.580719,17.3155469 Z" id="Shape"></path>
                </g>
                <path d="M28.15,35.4098361 L28.15,29.9404142 C26.915,29.9652476 25.7255,30.0857808 24.5815,30.3038309 C23.4375,30.5218809 22.3325,30.8374478 21.2665,31.2487144 C20.2005,31.6605867 19.245,32.2208542 18.4,32.9295168 C17.555,33.6381795 16.905,34.4588956 16.45,35.3916652 C16.528,33.7926316 16.7945,32.34805 17.25015,31.0579206 C17.7045,29.7677912 18.37725,28.5988007 19.26775,27.5509491 C20.15825,26.5030975 21.35425,25.667239 22.8564,25.0433736 C24.35725,24.4195082 26.122,24.0597256 28.15,23.9622088 L28.15,19.037912 L39.85,27.2693011 L28.15,35.4098361" id="Fill-97" stroke="#D8D8D8" stroke-width="0.9"></path>
            </g>
        </g>
    </g>
</svg>