<?xml version="1.0" encoding="UTF-8"?>
<svg width="30px" height="30px" viewBox="0 0 30 30" version="1.1" xmlns="http://www.w3.org/2000/svg" xmlns:xlink="http://www.w3.org/1999/xlink">
    <!-- Generator: Sketch 39.1 (31720) - http://www.bohemiancoding.com/sketch -->
    <title>Templates</title>
    <desc>Created with Sketch.</desc>
    <defs></defs>
    <g id="Other" stroke="none" stroke-width="1" fill="none" fill-rule="evenodd">
        <g id="PauseWhite" transform="translate(-376.000000, -547.000000)" fill="#FFFFFF">
            <path d="M376,547 L405.583964,547 L405.583964,577 L376,577 L376,577 L376,547 L376,547 Z M378.689451,574.5 L402.894513,574.5 L402.894513,552 L378.689451,552 L378.689451,552 L378.689451,574.5 L378.689451,574.5 Z M381.378903,557 L384.068354,557 L384.068354,554.5 L381.378903,554.5 L381.378903,554.5 L381.378903,557 L381.378903,557 Z M381.378903,562 L384.068354,562 L384.068354,559.5 L381.378903,559.5 L381.378903,559.5 L381.378903,562 L381.378903,562 Z M381.378903,567 L384.068354,567 L384.068354,564.5 L381.378903,564.5 L381.378903,564.5 L381.378903,567 L381.378903,567 Z M381.378903,572 L384.068354,572 L384.068354,569.5 L381.378903,569.5 L381.378903,569.5 L381.378903,572 L381.378903,572 Z M386.757805,557 L400.205061,557 L400.205061,554.5 L386.757805,554.5 L386.757805,554.5 L386.757805,557 L386.757805,557 Z M386.757805,562 L400.205061,562 L400.205061,559.5 L386.757805,559.5 L386.757805,559.5 L386.757805,562 L386.757805,562 Z M386.757805,567 L400.205061,567 L400.205061,564.5 L386.757805,564.5 L386.757805,564.5 L386.757805,567 L386.757805,567 Z M386.757805,569.5 L400.205061,569.5 L400.205061,572 L386.757805,572 L386.757805,572 L386.757805,569.5 L386.757805,569.5 Z" id="Templates"></path>
        </g>
    </g>
</svg>