<?xml version="1.0" encoding="UTF-8"?>
<svg width="15px" height="23px" viewBox="0 0 15 23" version="1.1" xmlns="http://www.w3.org/2000/svg" xmlns:xlink="http://www.w3.org/1999/xlink">
    <!-- Generator: sketchtool 39.1 (31720) - http://www.bohemiancoding.com/sketch -->
    <title>11AA9290-F984-4926-9E95-FD129B17E5DD</title>
    <desc>Created with sketchtool.</desc>
    <defs></defs>
    <g id="Page-1" stroke="none" stroke-width="1" fill="none" fill-rule="evenodd">
        <g id="ClickToCall---Add-New-different-choices" transform="translate(-619.000000, -3064.000000)">
            <g id="Group-10" transform="translate(620.000000, 3065.000000)">
                <g id="callerid-icon">
                    <path d="M1.86383627,2.30091488 L2.65705432,1.91366254 C3.14259643,1.6766702 3.71908196,1.88570277 3.97372352,2.35968746 L4.74607245,3.79780873 C5.00071402,4.27179342 4.78244982,4.86883914 4.29690771,5.10583149 L3.50368966,5.49308382 C3.01833901,5.72988597 2.44166202,5.5212338 2.18702045,5.04705891 L1.41467153,3.60912783 C1.16002996,3.13476274 1.3781027,2.53809742 1.86383627,2.30091488 L1.86383627,2.30091488 L1.86383627,2.30091488 Z" id="Shape" fill="#777777"></path>
                    <path d="M13.1406284,16.9486014 C12.0588804,17.2245853 10.2277586,17.6116474 9.17779298,17.7383223 C6.18508448,18.1004679 5.4311157,16.9896851 4.86611776,12.3789858 C4.27029479,7.51607786 4.99305562,6.48270755 7.6560703,6.16069468 C8.69473984,6.03497081 10.5731522,5.97733945 11.7983036,5.99445767 L11.4523357,3.17166203 C10.2668165,3.06020335 8.3527926,2.95692338 6.7721003,3.14788671 C1.64882689,3.76737633 0.468094161,6.31380771 1.26475849,12.8143593 C1.99958129,18.8108743 3.61971431,21.5298194 8.94574367,20.8857936 C10.3491442,20.7159428 12.2863347,20.2170415 13.4938718,19.8322618 L13.1406284,16.9486014 L13.1406284,16.9486014 Z" id="Shape" fill="#777777"></path>
                    <path d="M10.4846977,6.68622425 C10.8076905,6.64704253 11.1038788,6.87756799 11.1433195,7.19843965 L11.5972708,10.9033946 C11.63652,11.2242663 11.4044707,11.5185096 11.0816695,11.5576913 L7.47265179,11.9940159 C7.14965907,12.0331976 6.85347072,11.8026721 6.81422146,11.4818005 L6.36007876,7.77684552 C6.3208295,7.45616407 6.55268734,7.16173056 6.87568006,7.12273904 L10.4846977,6.68622425 Z" id="Shape" fill="#777777"></path>
                    <path d="M7.28942474,12.6564913 L7.86074085,12.5874477 C8.03573513,12.5663353 8.19617846,12.6911081 8.21762197,12.8649532 L8.29018524,13.4570537 C8.31143728,13.6307086 8.18583963,13.7902885 8.01084536,13.811401 L7.43952924,13.8804445 C7.26453497,13.901557 7.10409163,13.7767841 7.08283959,13.602939 L7.01027632,13.0108386 C6.98883282,12.8371836 7.11443046,12.6776037 7.28942474,12.6564913 L7.28942474,12.6564913 L7.28942474,12.6564913 Z" id="Shape" fill="#777777"></path>
                    <path d="M9.06885234,12.4413722 L9.64016845,12.3723287 C9.81516273,12.3512162 9.97560606,12.4759891 9.9968581,12.6498342 L10.0694214,13.2419346 C10.0906734,13.4157797 9.96507577,13.5751694 9.79008149,13.5962819 L9.21876538,13.6653254 C9.0437711,13.6864379 8.88332777,13.5616651 8.86207573,13.38782 L8.78951246,12.7957195 C8.76806896,12.6220646 8.89385806,12.4624847 9.06885234,12.4413722 L9.06885234,12.4413722 L9.06885234,12.4413722 Z" id="Shape" fill="#777777"></path>
                    <path d="M10.8482799,12.2260629 L11.419596,12.1570194 C11.5945903,12.1359069 11.7550337,12.2606798 11.7762857,12.4345249 L11.8628255,13.1403665 C11.8764192,13.2514447 11.7960061,13.3535835 11.6840021,13.3672781 L10.998193,13.4502064 C10.8231987,13.4713189 10.6627554,13.346546 10.6415033,13.1727009 L10.5689401,12.5806004 C10.5474966,12.4067553 10.6732857,12.2473656 10.8482799,12.2260629 L10.8482799,12.2260629 L10.8482799,12.2260629 Z" id="Shape" fill="#777777"></path>
                    <path d="M7.49524405,14.3352187 L8.0663687,14.265985 C8.24136298,14.2450627 8.40180631,14.3698356 8.42324982,14.5436807 L8.49581309,15.1354007 C8.51706513,15.3096262 8.39146748,15.469016 8.21647321,15.4901284 L7.64515709,15.559172 C7.47016282,15.5802844 7.30971948,15.4555116 7.28846744,15.2816665 L7.21590417,14.689566 C7.19446067,14.5157209 7.32005831,14.356141 7.49524405,14.3352187 L7.49524405,14.3352187 L7.49524405,14.3352187 Z" id="Shape" fill="#777777"></path>
                    <path d="M9.27448019,14.1197193 L9.8457963,14.0506757 C10.0207906,14.0297535 10.1812339,14.1545263 10.202486,14.3281812 L10.2750492,14.9202817 C10.2963013,15.0941268 10.1707036,15.2535165 9.99570934,15.274629 L9.42458469,15.3436725 C9.24939895,15.364785 9.08914708,15.2400121 9.06770358,15.066167 L8.99514031,14.4742568 C8.97388827,14.3004117 9.09948591,14.1408317 9.27448019,14.1197193 L9.27448019,14.1197193 L9.27448019,14.1197193 Z" id="Shape" fill="#777777"></path>
                    <path d="M11.0539078,13.9046002 L11.6252239,13.8355567 C11.8002182,13.8144442 11.9606615,13.9392171 11.9819135,14.1130622 L12.0544768,14.7051626 C12.0759203,14.8790077 11.9501312,15.0383974 11.7751369,15.0595099 L11.2040123,15.1285534 C11.029018,15.1496659 10.8685747,15.0248931 10.8471312,14.851048 L10.7745679,14.2589475 C10.7533159,14.0851024 10.8789135,13.9257127 11.0539078,13.9046002 L11.0539078,13.9046002 L11.0539078,13.9046002 Z" id="Shape" fill="#777777"></path>
                    <path d="M7.7008719,16.0135658 L8.27218801,15.9445223 C8.44718229,15.9234098 8.60762562,16.0481826 8.62887767,16.2220278 L8.70144094,16.8141282 C8.72269298,16.9879733 8.59709533,17.147363 8.42210106,17.1684755 L7.85078494,17.237519 C7.67579067,17.2586315 7.51534733,17.1338586 7.49409529,16.9600135 L7.42153202,16.3679131 C7.40008852,16.194068 7.52587762,16.0346783 7.7008719,16.0135658 L7.7008719,16.0135658 L7.7008719,16.0135658 Z" id="Shape" fill="#777777"></path>
                    <path d="M9.48010804,15.7980663 L10.0514242,15.7290228 C10.2264184,15.7079103 10.3868618,15.8330636 10.4081138,16.0069087 L10.4806771,16.5986287 C10.5019291,16.7724739 10.3763315,16.932244 10.2013372,16.952976 L9.63021254,17.0220196 C9.45521826,17.043132 9.29477493,16.9183592 9.27333143,16.7445141 L9.20076816,16.152794 C9.17951612,15.9789489 9.30511376,15.8191788 9.48010804,15.7980663 L9.48010804,15.7980663 L9.48010804,15.7980663 Z" id="Shape" fill="#777777"></path>
                    <path d="M11.2595356,15.5829473 L11.8308517,15.5139038 C12.005846,15.4927913 12.1662894,15.6175641 12.1875414,15.7914092 L12.2601047,16.3835097 C12.2813567,16.5573548 12.1557591,16.7167445 11.9807648,16.737857 L11.4094487,16.8069005 C11.2344544,16.828013 11.0740111,16.7032401 11.0525676,16.529395 L10.9800043,15.9372946 C10.9589437,15.7634495 11.0847328,15.60425 11.2595356,15.5829473 L11.2595356,15.5829473 L11.2595356,15.5829473 Z" id="Shape" fill="#777777"></path>
                    <path d="M10.2459473,0.669738039 C11.5834857,0.237597906 13.6053014,1.45603527 13.5373332,3.09196717 C12.818593,1.37310697 11.6841935,0.920424964 10.2459473,0.669738039 L10.2459473,0.669738039 L10.2459473,0.669738039 Z" id="Shape" fill="#777777"></path>
                    <path d="M11.4393164,0.109401405 C12.427632,-0.209948631 13.909531,0.690279911 13.8593686,1.89901695 C13.328259,0.629224901 12.5021099,0.294278258 11.4393164,0.109401405 L11.4393164,0.109401405 L11.4393164,0.109401405 Z" id="Shape" fill="#777777"></path>
                    <path d="M3.20060876,21.4156978 C2.05414734,21.7864026 0.321244477,20.7418103 0.379639723,19.3398275 C0.995565974,20.8131363 1.9676075,21.2009592 3.20060876,21.4156978 L3.20060876,21.4156978 L3.20060876,21.4156978 Z" id="Shape" fill="#777777"></path>
                    <path d="M2.17763892,21.8961494 C1.33062066,22.1698509 0.0604761974,21.3983894 0.103554658,20.3627367 C0.558846117,21.4506951 1.26686454,21.7379009 2.17763892,21.8961494 L2.17763892,21.8961494 L2.17763892,21.8961494 Z" id="Shape" fill="#777777"></path>
                    <path d="M0.457180951,1.48913051 C0.457180951,1.48913051 0.531658822,0.888851345 1.19066353,0.465080124 C1.82343825,0.058046724 2.73899912,0.233603653 2.73899912,0.233603653" id="Shape" stroke="#777777" stroke-width="1.5"></path>
                    <path d="M0.970484737,1.6169466 C0.970484737,1.6169466 1.09148735,1.19241457 1.51231604,0.953520203 C2.01489807,0.668216418 2.62125133,0.82893755 2.62125133,0.82893755" id="Shape" stroke="#777777" stroke-width="1.5"></path>
                    <path d="M1.51384772,1.79020572 C1.51384772,1.79020572 1.56803085,1.5855651 1.79146446,1.41535546 C2.01489807,1.24514581 2.42825983,1.33560008 2.42825983,1.33560008" id="Shape" stroke="#777777" stroke-width="1.5"></path>
                    <path d="M8.49528285,7.42795228 C8.7711244,7.36540033 9.06400067,7.3721112 9.33629692,7.44783634 C9.64136556,7.53201221 9.91910946,7.70367796 10.1257744,7.9344988 C10.3806901,8.21552689 10.5248367,8.58545332 10.5255285,8.95769956 C10.5461085,9.19398851 10.5193026,9.43342578 10.4483102,9.6604355 C10.3540571,9.96623583 10.189071,10.248341 9.99053427,10.502857 C9.79830989,10.7495022 9.57357253,10.9717895 9.33145456,11.1737784 C9.18652966,11.2937456 9.03503299,11.4065877 8.87609983,11.5090734 C8.97017996,11.3664053 9.04316123,11.2055929 9.05474831,11.0355013 C9.06270361,10.9201738 9.0282018,10.8000409 8.94683287,10.7130481 C8.84695921,10.6045143 8.70056431,10.5494188 8.55719588,10.5160302 C8.40189449,10.4855413 8.24953311,10.4367425 8.11022881,10.3636685 C7.80222016,10.2115555 7.54955277,9.96076771 7.39667256,9.66325241 C7.2590112,9.39722021 7.20375642,9.09349114 7.23635588,8.7983785 C7.27059828,8.48064774 7.40947023,8.17443316 7.6279817,7.93325604 C7.85211376,7.68313109 8.16012241,7.50309747 8.49528285,7.42795228 L8.49528285,7.42795228 Z M7.94679918,8.35314118 C7.87252085,8.36821993 7.81493136,8.43615715 7.81579606,8.50906538 C7.813029,8.59059004 7.88462674,8.66672943 7.96988686,8.6711205 C8.03906342,8.67832847 8.10858587,8.63914029 8.13755355,8.57890815 C8.16954771,8.5158591 8.15173475,8.43350594 8.09518291,8.38868395 C8.05531991,8.35512959 7.99842219,8.34129359 7.94679918,8.35314118 L7.94679918,8.35314118 Z M9.71936214,8.35363828 C9.64854263,8.36879988 9.5928555,8.43201463 9.59026138,8.50177456 C9.58273843,8.59083859 9.66549089,8.67518016 9.75913866,8.6716176 C9.85901232,8.67542871 9.94444538,8.578991 9.92559477,8.4852045 C9.91348887,8.39489771 9.81102108,8.32936316 9.71936214,8.35363828 L9.71936214,8.35363828 Z M7.74904068,9.04618364 C7.74765715,9.3162755 7.85859906,9.58437896 8.05168814,9.78098264 C8.21261012,9.94610321 8.42878688,10.061845 8.66078778,10.1037673 C8.88716808,10.1456066 9.12703782,10.1195088 9.33707516,10.0278764 C9.50128302,9.95571384 9.64836969,9.84693145 9.75948454,9.71014566 C9.91409416,9.52282121 9.99926781,9.28487525 9.99892192,9.04618364 L7.74904068,9.04618364 L7.74904068,9.04618364 Z" id="Shape" fill="#FFFFFF"></path>
                </g>
            </g>
        </g>
    </g>
</svg>