<?xml version="1.0" encoding="UTF-8"?>
<svg width="23px" height="22px" viewBox="0 0 23 22" version="1.1" xmlns="http://www.w3.org/2000/svg" xmlns:xlink="http://www.w3.org/1999/xlink">
    <!-- Generator: sketchtool 39.1 (31720) - http://www.bohemiancoding.com/sketch -->
    <title>7F1CD952-6247-41D3-9983-AF0E709078C3</title>
    <desc>Created with sketchtool.</desc>
    <defs></defs>
    <g id="Page-1" stroke="none" stroke-width="1" fill="none" fill-rule="evenodd">
        <g id="ClickToCall---Add-New-different-choices" transform="translate(-181.000000, -324.000000)">
            <g id="Support-Icon" transform="translate(181.000000, 324.000000)">
                <path d="M5.51001918,1.47589485 C7.2050767,0.492170022 9.05411793,0 11.0571429,0 C13.0607862,0 14.9098274,0.492170022 16.6042665,1.47589485 C18.2987057,2.46085011 19.640652,3.7958613 20.6301055,5.48154362 C21.619559,7.16722595 22.1142857,9.0060962 22.1142857,11 C22.1142857,12.9932886 21.619559,14.832774 20.6301055,16.5178412 C19.640652,18.2041387 18.2987057,19.5391499 16.6042665,20.5228747 C14.9098274,21.50783 13.0607862,22 11.0571429,22 C9.05411793,22 7.2050767,21.50783 5.51001918,20.5228747 C3.81558006,19.5391499 2.47363375,18.2041387 1.48479866,16.5178412 C0.49472675,14.832774 0,12.9932886 0,11 C0,9.0060962 0.49472675,7.16722595 1.48479866,5.48154362 C2.47363375,3.7958613 3.81558006,2.46085011 5.51001918,1.47589485 C5.51001918,1.47589485 3.81558006,2.46085011 5.51001918,1.47589485 L5.51001918,1.47589485 L5.51001918,1.47589485 Z" id="Path" fill="#D8D8D8"></path>
                <text id="?" font-family="Helvetica-Bold, Helvetica" font-size="17.28" font-weight="bold" fill="#FFFFFF">
                    <tspan x="5.6108642" y="18">?</tspan>
                </text>
            </g>
        </g>
    </g>
</svg>