<?xml version="1.0" encoding="UTF-8"?>
<svg width="22px" height="22px" viewBox="0 0 22 22" version="1.1" xmlns="http://www.w3.org/2000/svg" xmlns:xlink="http://www.w3.org/1999/xlink">
    <!-- Generator: sketchtool 39.1 (31720) - http://www.bohemiancoding.com/sketch -->
    <title>D07A6655-05F7-42DB-BD64-20D697E5841C</title>
    <desc>Created with sketchtool.</desc>
    <defs></defs>
    <g id="Page-1" stroke="none" stroke-width="1" fill="none" fill-rule="evenodd">
        <g id="ClickToCall---Add-New-different-choices" transform="translate(-132.000000, -3065.000000)" fill="#777777">
            <path d="M154,3077.83333 L144.825433,3087 L132,3074.16667 L132,3065.45833 C132,3065.33611 132.045873,3065.22917 132.137007,3065.1375 C132.229364,3065.04583 132.335789,3065 132.458728,3065 L141.155606,3065 L154,3077.83333 L154,3077.83333 L154,3077.83333 L154,3077.83333 Z M137.852762,3070.83 C138.207512,3070.47556 138.384887,3070.04167 138.384887,3069.52833 C138.384887,3069.015 138.207512,3068.58111 137.852762,3068.22667 C137.485779,3067.86 137.04907,3067.67667 136.540799,3067.67667 C136.03314,3067.67667 135.595819,3067.86 135.228836,3068.22667 C134.874086,3068.58111 134.697323,3069.015 134.697323,3069.52833 C134.697323,3070.04167 134.874086,3070.47556 135.228836,3070.83 C135.595819,3071.19667 136.03314,3071.38 136.540799,3071.38 C137.04907,3071.38 137.485779,3071.19667 137.852762,3070.83 L137.852762,3070.83 Z" id="Fill-46"></path>
        </g>
    </g>
</svg>