<?xml version="1.0" encoding="UTF-8"?>
<svg width="23px" height="16px" viewBox="0 0 23 16" version="1.1" xmlns="http://www.w3.org/2000/svg" xmlns:xlink="http://www.w3.org/1999/xlink">
    <!-- Generator: Sketch 39.1 (31720) - http://www.bohemiancoding.com/sketch -->
    <title>AX</title>
    <desc>Created with Sketch.</desc>
    <defs>
        <rect id="path-1" x="0" y="0" width="23" height="16" rx="1.62"></rect>
    </defs>
    <g id="Page-1" stroke="none" stroke-width="1" fill="none" fill-rule="evenodd">
        <g id="Flags" transform="translate(-541.000000, -140.000000)">
            <g id="AX" transform="translate(541.000000, 140.000000)">
                <mask id="mask-2" fill="white">
                    <use xlink:href="#path-1"></use>
                </mask>
                <use id="Mask" fill="#FFFFFF" xlink:href="#path-1"></use>
                <rect id="Mask-Copy" fill="#157CBB" mask="url(#mask-2)" x="0" y="0" width="23" height="16"></rect>
                <polygon id="Rectangle-2" fill="#FFD34D" mask="url(#mask-2)" points="0 9.6 6.57142857 9.6 6.57142857 16 9.85714286 16 9.85714286 9.6 23 9.6 23 6.4 9.85714286 6.4 9.85714286 0 6.57142857 0 6.57142857 6.4 0 6.4"></polygon>
                <polygon id="Rectangle-2" fill="#EB363A" mask="url(#mask-2)" points="0 8.53333333 7.66666667 8.53333333 7.66666667 16 8.76190476 16 8.76190476 8.53333333 23 8.53333333 23 7.46666667 8.76190476 7.46666667 8.76190476 0 7.66666667 0 7.66666667 7.46666667 0 7.46666667"></polygon>
            </g>
        </g>
    </g>
</svg>