<?xml version="1.0" encoding="UTF-8"?>
<svg width="23px" height="16px" viewBox="0 0 23 16" version="1.1" xmlns="http://www.w3.org/2000/svg" xmlns:xlink="http://www.w3.org/1999/xlink">
    <!-- Generator: Sketch 39.1 (31720) - http://www.bohemiancoding.com/sketch -->
    <title>BR</title>
    <desc>Created with Sketch.</desc>
    <defs>
        <rect id="path-1" x="0" y="0" width="23" height="16" rx="1.62"></rect>
        <ellipse id="path-3" cx="3.83333333" cy="3.73333333" rx="3.83333333" ry="3.73333333"></ellipse>
    </defs>
    <g id="Page-1" stroke="none" stroke-width="1" fill="none" fill-rule="evenodd">
        <g id="Flags" transform="translate(-579.000000, -178.000000)">
            <g id="BR" transform="translate(579.000000, 178.000000)">
                <mask id="mask-2" fill="white">
                    <use xlink:href="#path-1"></use>
                </mask>
                <use id="Mask" fill="#FFFFFF" xlink:href="#path-1"></use>
                <rect id="Mask-Copy" fill="#05AB41" mask="url(#mask-2)" x="0" y="0" width="23" height="16"></rect>
                <path d="M2.63949387,8.28296153 C2.39150826,8.12668619 2.4024101,7.8664437 2.63949387,7.71703847 L11.0509823,2.41629486 C11.2989679,2.26001952 11.7119339,2.26688964 11.9490177,2.41629486 L20.3605061,7.71703847 C20.6084917,7.87331381 20.5975899,8.1335563 20.3605061,8.28296153 L11.9490177,13.5837051 C11.7010321,13.7399805 11.2880661,13.7331104 11.0509823,13.5837051 L2.63949387,8.28296153 Z" id="Rectangle-60" fill="#FDD216" mask="url(#mask-2)"></path>
                <g id="Oval-2" mask="url(#mask-2)">
                    <g transform="translate(7.666667, 4.266667)">
                        <mask id="mask-4" fill="white">
                            <use xlink:href="#path-3"></use>
                        </mask>
                        <use id="Mask" stroke="none" fill="#053087" fill-rule="evenodd" xlink:href="#path-3"></use>
                        <path d="M-0.547619048,3.2 C3.16413562e-14,2.66666669 1.97977121,2.91614588 3.83333333,3.20000001 C5.68689546,3.48385414 7.67333849,4.27316452 8.21428571,4.8" id="Line" stroke="#FFFFFF" stroke-width="1.08" stroke-linecap="square" fill="none" mask="url(#mask-4)" transform="translate(3.833333, 3.843358) rotate(6.000000) translate(-3.833333, -3.843358) "></path>
                    </g>
                </g>
            </g>
        </g>
    </g>
</svg>