<?xml version="1.0" encoding="UTF-8"?>
<svg width="23px" height="16px" viewBox="0 0 23 16" version="1.1" xmlns="http://www.w3.org/2000/svg" xmlns:xlink="http://www.w3.org/1999/xlink">
    <!-- Generator: Sketch 39.1 (31720) - http://www.bohemiancoding.com/sketch -->
    <title>BY</title>
    <desc>Created with Sketch.</desc>
    <defs>
        <rect id="path-1" x="0" y="0" width="23" height="16" rx="1.62"></rect>
    </defs>
    <g id="Page-1" stroke="none" stroke-width="1" fill="none" fill-rule="evenodd">
        <g id="Flags" transform="translate(-462.000000, -178.000000)">
            <g id="BY" transform="translate(462.000000, 178.000000)">
                <mask id="mask-2" fill="white">
                    <use xlink:href="#path-1"></use>
                </mask>
                <use id="Mask" fill="#FFFFFF" xlink:href="#path-1"></use>
                <rect id="Rectangle-2" fill="#E54252" mask="url(#mask-2)" x="0" y="0" width="23" height="10.6666667"></rect>
                <rect id="Rectangle-2" fill="#5CBE6B" mask="url(#mask-2)" x="0" y="10.6666667" width="23" height="5.33333333"></rect>
                <path d="M3.28571429,13.6 L3.28571429,16 L0,16 L0,0 L3.28571429,0 L3.28571429,2.4 L2.73809524,3.2 L3.28571429,4 L3.28571429,5.6 L2.73809524,6.4 L3.28571429,7.2 L3.28571429,8.8 L2.73809524,9.6 L3.28571429,10.4 L3.28571429,12 L2.73809524,12.8 L3.28571429,13.6 Z" id="Rectangle-1512" fill="#FFFFFF" mask="url(#mask-2)"></path>
                <path d="M-1.64285714,3.2 L-0.547619048,1.6 L0.547619048,3.2 L-0.547619048,4.8 L-1.64285714,3.2 Z M-1.64285714,6.4 L-0.547619048,4.8 L0.547619048,6.4 L-0.547619048,8 L-1.64285714,6.4 Z M-1.64285714,9.6 L-0.547619048,8 L0.547619048,9.6 L-0.547619048,11.2 L-1.64285714,9.6 Z M-1.64285714,12.8 L-0.547619048,11.2 L0.547619048,12.8 L-0.547619048,14.4 L-1.64285714,12.8 Z" id="Rectangle-1513" fill="#E54252" mask="url(#mask-2)"></path>
                <path d="M0.547619048,1.6 L1.64285714,0 L2.73809524,1.6 L1.64285714,3.2 L0.547619048,1.6 Z M0.547619048,4.8 L1.64285714,3.2 L2.73809524,4.8 L1.64285714,6.4 L0.547619048,4.8 Z M0.547619048,8 L1.64285714,6.4 L2.73809524,8 L1.64285714,9.6 L0.547619048,8 Z M0.547619048,11.2 L1.64285714,9.6 L2.73809524,11.2 L1.64285714,12.8 L0.547619048,11.2 Z M0.547619048,14.4 L1.64285714,12.8 L2.73809524,14.4 L1.64285714,16 L0.547619048,14.4 Z" id="Rectangle-1513" fill="#E54252" mask="url(#mask-2)"></path>
            </g>
        </g>
    </g>
</svg>