<?xml version="1.0" encoding="UTF-8"?>
<svg width="23px" height="16px" viewBox="0 0 23 16" version="1.1" xmlns="http://www.w3.org/2000/svg" xmlns:xlink="http://www.w3.org/1999/xlink">
    <!-- Generator: Sketch 39.1 (31720) - http://www.bohemiancoding.com/sketch -->
    <title>WW</title>
    <desc>Created with Sketch.</desc>
    <defs>
        <rect id="path-1" x="0" y="0" width="23" height="16" rx="1.62"></rect>
    </defs>
    <g id="Page-1" stroke="none" stroke-width="1" fill="none" fill-rule="evenodd">
        <g id="Flags" transform="translate(-152.000000, -1072.000000)">
            <g id="WW" transform="translate(152.000000, 1072.000000)">
                <mask id="mask-2" fill="white">
                    <use xlink:href="#path-1"></use>
                </mask>
                <use id="Mask" fill="#FFFFFF" xlink:href="#path-1"></use>
                <rect id="Mask-Copy" fill="#19BFBF" mask="url(#mask-2)" x="0" y="0" width="23" height="16"></rect>
                <path d="M11.1833338,12.7902517 C11.2880348,12.7967178 11.3936238,12.8 11.5,12.8 C11.6063762,12.8 11.7119652,12.7967178 11.8166662,12.7902517 C12.5687387,11.9227426 13.0511004,10.33257 13.1310659,8.53333333 L9.86893406,8.53333333 C9.9488996,10.33257 10.4312613,11.9227426 11.1833338,12.7902517 Z M9.67862784,12.461582 C8.02031319,11.818904 6.80483457,10.3246662 6.60150862,8.53333333 L8.77260335,8.53333333 C8.83268468,10.0224244 9.14464081,11.4023618 9.67862784,12.461582 Z M11.1833338,3.20974826 C11.2880348,3.20328219 11.3936238,3.2 11.5,3.2 C11.6063762,3.2 11.7119652,3.20328219 11.8166662,3.20974826 C12.5687387,4.0772574 13.0511004,5.66742995 13.1310659,7.46666667 L9.86893406,7.46666667 C9.9488996,5.66742995 10.4312613,4.0772574 11.1833338,3.20974826 Z M9.67862784,3.53841803 C8.02031318,4.18109599 6.80483457,5.67533382 6.60150862,7.46666667 L8.77260335,7.46666667 C8.83268468,5.97757556 9.14464081,4.59763823 9.67862784,3.53841803 Z M13.3213722,12.461582 C14.9796868,11.818904 16.1951654,10.3246662 16.3984914,8.53333333 L14.2273966,8.53333333 C14.1673153,10.0224244 13.8553592,11.4023618 13.3213722,12.461582 Z M13.3213722,3.53841803 C14.9796868,4.18109599 16.1951654,5.67533382 16.3984914,7.46666667 L14.2273966,7.46666667 C14.1673153,5.97757556 13.8553592,4.59763823 13.3213722,3.53841803 Z M11.5,13.8666667 C14.8268581,13.8666667 17.5238095,11.2400705 17.5238095,8 C17.5238095,4.75992947 14.8268581,2.13333333 11.5,2.13333333 C8.17314186,2.13333333 5.47619048,4.75992947 5.47619048,8 C5.47619048,11.2400705 8.17314186,13.8666667 11.5,13.8666667 Z" id="Oval-143" fill="#FFFFFF" mask="url(#mask-2)"></path>
            </g>
        </g>
    </g>
</svg>