<?xml version="1.0" encoding="UTF-8"?>
<svg width="23px" height="16px" viewBox="0 0 23 16" version="1.1" xmlns="http://www.w3.org/2000/svg" xmlns:xlink="http://www.w3.org/1999/xlink">
    <!-- Generator: Sketch 39.1 (31720) - http://www.bohemiancoding.com/sketch -->
    <title>IM</title>
    <desc>Created with Sketch.</desc>
    <defs>
        <rect id="path-1" x="0" y="0" width="23" height="16" rx="1.62"></rect>
    </defs>
    <g id="Page-1" stroke="none" stroke-width="1" fill="none" fill-rule="evenodd">
        <g id="Flags" transform="translate(-424.000000, -450.000000)">
            <g id="IM" transform="translate(424.000000, 450.000000)">
                <mask id="mask-2" fill="white">
                    <use xlink:href="#path-1"></use>
                </mask>
                <use id="Mask" fill="#D01129" xlink:href="#path-1"></use>
                <g id="Group-9" mask="url(#mask-2)">
                    <g transform="translate(6.571429, 2.133333)" id="Group-8">
                        <g>
                            <path d="" id="Fill-3" fill="#FFFFFF"></path>
                            <path d="" id="Stroke-4"></path>
                            <path d="M4.83669903,5.89935168 C5.37960749,5.89935168 5.8197337,5.44929664 5.8197337,4.89423853 C5.8197337,4.33908257 5.37960749,3.88902752 4.83669903,3.88902752 C4.29379057,3.88902752 3.85376006,4.33908257 3.85376006,4.89423853 C3.85376006,5.44929664 4.29379057,5.89935168 4.83669903,5.89935168" id="Fill-3" fill="#FFF101"></path>
                            <path d="M4.83669903,5.89935168 C5.37960749,5.89935168 5.8197337,5.44929664 5.8197337,4.89423853 C5.8197337,4.33908257 5.37960749,3.88902752 4.83669903,3.88902752 C4.29379057,3.88902752 3.85376006,4.33908257 3.85376006,4.89423853 C3.85376006,5.44929664 4.29379057,5.89935168 4.83669903,5.89935168 L4.83669903,5.89935168 Z" id="Stroke-4"></path>
                            <path d="M3.94065603,4.49007951 C4.21904854,4.39926606 4.58022191,4.50495413 4.81784605,4.73815291 C5.07011234,4.69118043 5.32304854,4.36726606 5.40142718,4.07887462 C5.31529681,3.12053823 4.70223994,2.39451988 4.51581553,1.89631804 C4.45686408,1.73886239 4.18354369,1.49127829 3.89931345,1.60655657 C3.66561304,1.70138226 3.54742302,1.62759633 2.76248821,2.02793884 C2.33805687,2.24440367 1.98080721,2.46674006 1.79256449,2.50549235 C1.60422607,2.54424465 1.40555201,2.57878899 1.25491956,2.45812844 C1.04772816,2.29215902 0.815367545,2.246263 0.67851595,2.12119878 C0.510848821,1.96795107 0.403281553,1.85228135 0.28987656,1.80540673 C0.176471567,1.75843425 -0.0155034674,1.86275229 0.065554785,2.11102141 C0.24843828,2.67175535 0.679568655,2.76256881 0.864653259,3.28670336 C0.952027739,3.53448318 1.07624688,3.72070948 1.35387379,3.53291743 C1.63150069,3.34512538 2.0238724,3.09568196 2.69281831,3.06945566 C3.14203606,3.05174312 3.60627878,2.88283792 3.81959501,2.60570031 C3.8174896,2.84545566 3.90017476,3.04195719 3.87835506,3.35383486 C3.85663107,3.6658104 3.86007628,4.05382263 3.94065603,4.49007951" id="Fill-5" fill="#FFFFFF"></path>
                            <path d="M3.94065603,4.49007951 C4.21904854,4.39926606 4.58022191,4.50495413 4.81784605,4.73815291 C5.07011234,4.69118043 5.32304854,4.36726606 5.40142718,4.07887462 C5.31529681,3.12053823 4.70223994,2.39451988 4.51581553,1.89631804 C4.45686408,1.73886239 4.18354369,1.49127829 3.89931345,1.60655657 C3.66561304,1.70138226 3.54742302,1.62759633 2.76248821,2.02793884 C2.33805687,2.24440367 1.98080721,2.46674006 1.79256449,2.50549235 C1.60422607,2.54424465 1.40555201,2.57878899 1.25491956,2.45812844 C1.04772816,2.29215902 0.815367545,2.246263 0.67851595,2.12119878 C0.510848821,1.96795107 0.403281553,1.85228135 0.28987656,1.80540673 C0.176471567,1.75843425 -0.0155034674,1.86275229 0.065554785,2.11102141 C0.24843828,2.67175535 0.679568655,2.76256881 0.864653259,3.28670336 C0.952027739,3.53448318 1.07624688,3.72070948 1.35387379,3.53291743 C1.63150069,3.34512538 2.0238724,3.09568196 2.69281831,3.06945566 C3.14203606,3.05174312 3.60627878,2.88283792 3.81959501,2.60570031 C3.8174896,2.84545566 3.90017476,3.04195719 3.87835506,3.35383486 C3.85663107,3.6658104 3.86007628,4.05382263 3.94065603,4.49007951 L3.94065603,4.49007951 Z M1.0817975,2.34363303 C0.9659043,2.28609174 0.838814147,2.41448318 0.765316227,2.72420795 L1.0817975,2.34363303 Z M0.932409154,2.26818349 C0.821588072,2.2169052 0.72914147,2.24332722 0.59104577,2.5426789 L0.932409154,2.26818349 Z M0.710192788,2.14703364 C0.625402219,2.08185933 0.515920943,2.17609786 0.461180305,2.31662385 L0.710192788,2.14703364 Z" id="Stroke-6"></path>
                            <path d="" id="Fill-7" fill="#FFF101"></path>
                            <path d="" id="Stroke-8"></path>
                            <path d="M4.04429958,4.46463609 C4.04487379,4.40464832 4.04114147,4.34201835 4.03204993,4.28819572 C4.15827878,4.25717431 4.37446602,4.37646483 4.36843689,4.28780428 C4.36661859,4.25971865 4.3693939,4.1689052 4.3711165,4.12075841 C4.36834119,4.19601223 4.06774619,4.06899083 4.01597226,4.1017737 C3.96037032,3.82727829 4.02927462,3.54485627 3.98515673,3.37252599 C4.08554646,3.34444037 4.27005687,3.40570031 4.24747157,3.32525994 C4.23464771,3.28406116 4.2101484,3.18160245 4.19397503,3.11750459 C4.2097656,3.18463609 4.06324827,3.12905199 4.01367545,3.16741284 C3.98793204,3.01856881 3.95032178,2.73614679 3.95108738,2.60707034 L3.81959501,2.60570031 C3.8174896,2.84545566 3.90017476,3.04195719 3.87835506,3.35383486 C3.85663107,3.6658104 3.86007628,4.05382263 3.94065603,4.49007951 C3.96946186,4.48146789 4.01692926,4.47040979 4.04429958,4.46463609" id="Fill-9" fill="#FFF101"></path>
                            <path d="M4.04429958,4.46463609 C4.04487379,4.40464832 4.04114147,4.34201835 4.03204993,4.28819572 C4.15827878,4.25717431 4.37446602,4.37646483 4.36843689,4.28780428 C4.36661859,4.25971865 4.3693939,4.1689052 4.3711165,4.12075841 C4.36834119,4.19601223 4.06774619,4.06899083 4.01597226,4.1017737 C3.96037032,3.82727829 4.02927462,3.54485627 3.98515673,3.37252599 C4.08554646,3.34444037 4.27005687,3.40570031 4.24747157,3.32525994 C4.23464771,3.28406116 4.2101484,3.18160245 4.19397503,3.11750459 C4.2097656,3.18463609 4.06324827,3.12905199 4.01367545,3.16741284 C3.98793204,3.01856881 3.95032178,2.73614679 3.95108738,2.60707034 L3.81959501,2.60570031 C3.8174896,2.84545566 3.90017476,3.04195719 3.87835506,3.35383486 C3.85663107,3.6658104 3.86007628,4.05382263 3.94065603,4.49007951 C3.96946186,4.48146789 4.01692926,4.47040979 4.04429958,4.46463609 L4.04429958,4.46463609 Z M3.05695839,1.88075841 C2.9210638,1.94035474 3.10117198,2.34099083 3.25984327,2.62732722 L3.05695839,1.88075841 Z M3.26051318,2.71579205 C3.20596394,2.7435667 3.14940499,2.76910146 3.09121914,2.79127638 L3.26051318,2.71579205 Z M2.24857698,2.93587768 C2.20503329,2.94752511 2.1631165,2.9601805 2.12244383,2.97384383 L2.24857698,2.93587768 Z" id="Stroke-10"></path>
                            <path d="M3.71221914,2.27307645 C3.51622469,2.56244648 3.04805825,2.76217737 2.61520527,2.80631193 C2.10856727,2.85798165 1.76844799,3.03040979 1.518,3.19921713 C1.49646741,3.1595841 1.45761304,3.13825076 1.42325659,3.11212232 C1.05681969,2.83459327 1.20745215,2.45851988 1.34621775,2.51224465 C1.29386963,2.49149847 1.26343689,2.4635107 1.23482247,2.44247095 C1.18639806,2.4057737 1.04667545,2.54639755 1.06418863,2.76971254 C1.07165326,2.8648318 1.15127601,3.00516208 1.21606519,3.07953517 C1.09777947,3.05751682 1.04112483,3.02659327 0.971646325,2.94077064 C1.01069209,2.91591437 1.06122191,2.90182263 1.10199029,2.89859327 C1.08811373,2.86453823 1.06878225,2.82676453 1.06418863,2.76971254 C1.00628988,2.76922324 0.935662968,2.78987156 0.875084605,2.83195107 C0.729715673,2.68388991 0.580040222,2.5657737 0.493239945,2.39099694 C0.354378641,2.11102141 0.495632455,1.93428746 0.67851595,2.12119878 C0.510848821,1.96795107 0.403281553,1.85228135 0.28987656,1.80540673 C0.176471567,1.75843425 -0.0155034674,1.86275229 0.065554785,2.11102141 C0.24843828,2.67175535 0.679568655,2.76256881 0.864653259,3.28670336 C0.952027739,3.53448318 1.0808405,3.72755963 1.35387379,3.53291743 C1.38985714,3.50727829 1.39942718,3.50121101 1.43072122,3.47850765 C1.5173301,3.42732722 1.65456449,3.51324771 1.63992233,3.70006116 C1.71007074,3.52851376 1.66528294,3.4759633 1.60575728,3.37311315 C1.56173509,3.39708869 1.56527601,3.25666055 1.53809709,3.23816514 C1.69389736,3.1391315 1.88338419,3.03980428 2.12244383,2.96905199 C2.13124827,3.05291743 2.15383356,3.14196942 2.22934119,3.12905199 C2.26982247,3.11985321 2.31087795,3.11153517 2.35403883,3.10419572 C2.27853121,3.11711315 2.25728571,3.01964526 2.24857698,2.93587768 C2.36188627,2.90925994 2.48572261,2.88910092 2.6214258,2.87774924 C2.77780028,2.86463609 2.93943828,2.83214679 3.09121914,2.78174924 C3.11380444,2.8621896 3.16050624,2.99772477 3.23831068,2.97110703 C3.30731068,2.94850153 3.37439667,2.92296024 3.43736755,2.89330887 C3.32913037,2.94605505 3.28654369,2.79544954 3.26051318,2.71579205 C3.45832594,2.62781651 3.62685437,2.50784098 3.72762691,2.36467278 L3.71221914,2.27307645" id="Fill-11" fill="#FFF101"></path>
                            <path d="M3.71221914,2.27307645 C3.51622469,2.56244648 3.04805825,2.76217737 2.61520527,2.80631193 C2.10856727,2.85798165 1.76844799,3.03040979 1.518,3.19921713 C1.49646741,3.1595841 1.45761304,3.13825076 1.42325659,3.11212232 C1.05681969,2.83459327 1.20745215,2.45851988 1.34621775,2.51224465 C1.29386963,2.49149847 1.26343689,2.4635107 1.23482247,2.44247095 C1.18639806,2.4057737 1.04667545,2.54639755 1.06418863,2.76971254 C1.07165326,2.8648318 1.15127601,3.00516208 1.21606519,3.07953517 C1.09777947,3.05751682 1.04112483,3.02659327 0.971646325,2.94077064 C1.01069209,2.91591437 1.06122191,2.90182263 1.10199029,2.89859327 C1.08811373,2.86453823 1.06878225,2.82676453 1.06418863,2.76971254 C1.00628988,2.76922324 0.935662968,2.78987156 0.875084605,2.83195107 C0.729715673,2.68388991 0.580040222,2.5657737 0.493239945,2.39099694 C0.354378641,2.11102141 0.495632455,1.93428746 0.67851595,2.12119878 C0.510848821,1.96795107 0.403281553,1.85228135 0.28987656,1.80540673 C0.176471567,1.75843425 -0.0155034674,1.86275229 0.065554785,2.11102141 C0.24843828,2.67175535 0.679568655,2.76256881 0.864653259,3.28670336 C0.952027739,3.53448318 1.0808405,3.72755963 1.35387379,3.53291743 C1.38985714,3.50727829 1.39942718,3.50121101 1.43072122,3.47850765 C1.5173301,3.42732722 1.65456449,3.51324771 1.63992233,3.70006116 C1.71007074,3.52851376 1.66528294,3.4759633 1.60575728,3.37311315 C1.56173509,3.39708869 1.56527601,3.25666055 1.53809709,3.23816514 C1.69389736,3.1391315 1.88338419,3.03980428 2.12244383,2.96905199 C2.13124827,3.05291743 2.15383356,3.14196942 2.22934119,3.12905199 C2.26982247,3.11985321 2.31087795,3.11153517 2.35403883,3.10419572 C2.27853121,3.11711315 2.25728571,3.01964526 2.24857698,2.93587768 C2.36188627,2.90925994 2.48572261,2.88910092 2.6214258,2.87774924 C2.77780028,2.86463609 2.93943828,2.83214679 3.09121914,2.78174924 C3.11380444,2.8621896 3.16050624,2.99772477 3.23831068,2.97110703 C3.30731068,2.94850153 3.37439667,2.92296024 3.43736755,2.89330887 C3.32913037,2.94605505 3.28654369,2.79544954 3.26051318,2.71579205 C3.45832594,2.62781651 3.62685437,2.50784098 3.72762691,2.36467278 L3.71221914,2.27307645 L3.71221914,2.27307645 Z" id="Stroke-12"></path>
                            <path d="M4.57795203,2.41674335 C4.67346104,2.34100023 4.7554763,2.30518372 4.67307824,2.14479228 C4.53833205,1.88252928 4.62205041,1.8816288 4.32700603,1.71477865 C4.02650672,1.54509057 4.06449979,1.53178171 3.66686456,1.67514562 C3.56905874,1.71037498 3.59087843,1.74638721 3.60800881,1.89141473 C3.64485347,2.20397742 3.71489875,2.45568196 3.77892233,2.71285627 C4.02889182,2.67948624 4.41344301,2.54738555 4.57795203,2.41674335 Z" id="Fill-13" fill="#FFF101"></path>
                            <path d="M3.64513315,2.34568807 C3.59268932,2.19224465 3.60675728,2.21308869 3.79681831,2.25986544 C3.85902358,2.05759021 3.94493747,1.88686597 3.99307478,1.72314731 C4.04685841,1.53985679 4.06370168,1.5068782 4.14284593,1.55179563 C4.24409697,1.6091412 4.35530085,1.66971612 4.42774607,1.70611979 C4.55426202,1.76953263 4.53560043,1.7917467 4.47521347,1.89254181 C4.41482651,1.99333692 4.21732594,2.19762691 4.09549931,2.41076453 C4.25618031,2.52643425 4.30776283,2.5369052 4.19359223,2.5867156 C4.06583218,2.64239755 3.85356865,2.71138838 3.76418447,2.72773089 C3.74781969,2.62703364 3.69499307,2.49120489 3.64513315,2.34568807 Z" id="Fill-15" fill="#FFF101"></path>
                            <polyline id="Fill-17" fill="#FFF101" points="1.75859085 3.78862385 1.74595839 3.94647095 1.6321706 3.84078287 1.50488904 3.92914985 1.51331068 3.77159633 1.36679334 3.72628746 1.49196949 3.63449541 1.43675035 3.48809786 1.58365049 3.53193884 1.66126352 3.39640367 1.72021498 3.54113761 1.87180444 3.51774924 1.79754092 3.65582875 1.909319 3.76249541 1.75859085 3.78862385"></polyline>
                            <polygon id="Stroke-18" points="1.75859085 3.78862385 1.74595839 3.94647095 1.6321706 3.84078287 1.50488904 3.92914985 1.51331068 3.77159633 1.36679334 3.72628746 1.49196949 3.63449541 1.43675035 3.48809786 1.58365049 3.53193884 1.66126352 3.39640367 1.72021498 3.54113761 1.87180444 3.51774924 1.79754092 3.65582875 1.909319 3.76249541"></polygon>
                            <path d="M4.94254369,5.88985933 C4.72635645,5.68866055 4.63524965,5.31601223 4.7140111,4.98896636 C4.54806657,4.78913761 4.14727323,4.72699694 3.8638086,4.80176147 C3.09523856,5.35730887 2.78689182,6.26319266 2.45816089,6.67743119 C2.35423024,6.80836697 2.28121082,7.17406728 2.52103606,7.36822018 C2.71817892,7.52773089 2.7148294,7.66923547 3.44626768,8.16420795 C3.8417975,8.43185321 4.2087129,8.63706422 4.33570735,8.78444037 C4.4627975,8.93181651 4.59132316,9.09054434 4.56443135,9.28420795 C4.52749098,9.5506789 4.60472122,9.77947401 4.56730236,9.9630581 C4.52127046,10.1881346 4.47715257,10.3412844 4.49409154,10.4651743 C4.51112621,10.5890642 4.69534951,10.7068869 4.86512205,10.5109725 C5.24849792,10.0686483 5.10992372,9.64149235 5.46133564,9.2155107 C5.62737587,9.01421407 5.72307628,8.8110581 5.42525659,8.65908257 C5.12734119,8.50720489 4.71994452,8.2843792 4.36317337,7.70524771 C4.12363523,7.31625688 3.7484896,6.98950459 3.40703051,6.93920489 C3.6111595,6.8212844 3.73633564,6.649737 4.01137864,6.51302752 C4.28642164,6.37631804 4.61333426,6.17942508 4.94254369,5.88985933" id="Fill-19" fill="#FFFFFF"></path>
                            <path d="M4.94254369,5.88985933 C4.72635645,5.68866055 4.63524965,5.31601223 4.7140111,4.98896636 C4.54806657,4.78913761 4.14727323,4.72699694 3.8638086,4.80176147 C3.09523856,5.35730887 2.78689182,6.26319266 2.45816089,6.67743119 C2.35423024,6.80836697 2.28121082,7.17406728 2.52103606,7.36822018 C2.71817892,7.52773089 2.7148294,7.66923547 3.44626768,8.16420795 C3.8417975,8.43185321 4.2087129,8.63706422 4.33570735,8.78444037 C4.4627975,8.93181651 4.59132316,9.09054434 4.56443135,9.28420795 C4.52749098,9.5506789 4.60472122,9.77947401 4.56730236,9.9630581 C4.52127046,10.1881346 4.47715257,10.3412844 4.49409154,10.4651743 C4.51112621,10.5890642 4.69534951,10.7068869 4.86512205,10.5109725 C5.24849792,10.0686483 5.10992372,9.64149235 5.46133564,9.2155107 C5.62737587,9.01421407 5.72307628,8.8110581 5.42525659,8.65908257 C5.12734119,8.50720489 4.71994452,8.2843792 4.36317337,7.70524771 C4.12363523,7.31625688 3.7484896,6.98950459 3.40703051,6.93920489 C3.6111595,6.8212844 3.73633564,6.649737 4.01137864,6.51302752 C4.28642164,6.37631804 4.61333426,6.17942508 4.94254369,5.88985933 L4.94254369,5.88985933 Z M4.554,9.49480122 C4.56328294,9.62612844 4.73554369,9.67447095 5.03451179,9.58473394 L4.554,9.49480122 Z M4.56481415,9.66478287 C4.576681,9.78847706 4.6453939,9.85717431 4.968,9.8297737 L4.56481415,9.66478287 Z M4.57333148,9.92215291 C4.56050763,10.0297982 4.69506241,10.0797064 4.84138835,10.0577859 L4.57333148,9.92215291 Z" id="Stroke-20"></path>
                            <path d="M4.70157004,5.4106422 C4.34336338,5.7195841 4.21091401,5.62103976 3.83184466,6.05573089 C3.60398197,6.31711315 3.28529958,6.58632416 3.12184327,6.68477064 L3.17581831,6.73761468 C3.33927462,6.6391682 3.657957,6.36995719 3.8859154,6.10857492 C4.25244799,5.68826911 4.38834258,5.76655657 4.72099723,5.49264832 C4.7143939,5.47268502 4.70472816,5.4279633 4.70157004,5.4106422" id="Fill-21" fill="#FFF101"></path>
                            <path d="M4.70157004,5.4106422 C4.34336338,5.7195841 4.21091401,5.62103976 3.83184466,6.05573089 C3.60398197,6.31711315 3.28529958,6.58632416 3.12184327,6.68477064 L3.17581831,6.73761468 C3.33927462,6.6391682 3.657957,6.36995719 3.8859154,6.10857492 C4.25244799,5.68826911 4.38834258,5.76655657 4.72099723,5.49264832 C4.7143939,5.47268502 4.70472816,5.4279633 4.70157004,5.4106422 L4.70157004,5.4106422 Z" id="Stroke-22"></path>
                            <path d="M4.86904577,5.81078899 C4.81803745,5.84024465 4.76683773,5.87488685 4.72578225,5.90982263 C4.63639806,5.81352905 4.62931623,5.56242202 4.55734951,5.61223242 C4.53438141,5.62769419 4.45609847,5.67075229 4.41437309,5.69325994 C4.47964078,5.65812844 4.52222746,5.98781651 4.5759154,6.01727217 C4.37121221,6.20379205 4.09760472,6.28393884 3.97376838,6.40919878 C3.89979196,6.33423853 3.85940638,6.1403792 3.80256033,6.20056269 C3.77413731,6.23246483 3.69958669,6.30537003 3.65336338,6.35175535 C3.702362,6.30419572 3.72848821,6.46174924 3.78571706,6.48640979 C3.67259917,6.58368196 3.45220111,6.75816514 3.34243273,6.82206728 L3.40703051,6.93920489 C3.6111595,6.8212844 3.73633564,6.649737 4.01137864,6.51302752 C4.28642164,6.37631804 4.61333426,6.17942508 4.94254369,5.88985933 C4.92081969,5.86862385 4.88761165,5.83212232 4.86904577,5.81078899" id="Fill-23" fill="#FFF101"></path>
                            <path d="M4.86904577,5.81078899 C4.81803745,5.84024465 4.76683773,5.87488685 4.72578225,5.90982263 C4.63639806,5.81352905 4.62931623,5.56242202 4.55734951,5.61223242 C4.53438141,5.62769419 4.45609847,5.67075229 4.41437309,5.69325994 C4.47964078,5.65812844 4.52222746,5.98781651 4.5759154,6.01727217 C4.37121221,6.20379205 4.09760472,6.28393884 3.97376838,6.40919878 C3.89979196,6.33423853 3.85940638,6.1403792 3.80256033,6.20056269 C3.77413731,6.23246483 3.69958669,6.30537003 3.65336338,6.35175535 C3.702362,6.30419572 3.72848821,6.46174924 3.78571706,6.48640979 C3.67259917,6.58368196 3.45220111,6.75816514 3.34243273,6.82206728 L3.40703051,6.93920489 C3.6111595,6.8212844 3.73633564,6.649737 4.01137864,6.51302752 C4.28642164,6.37631804 4.61333426,6.17942508 4.94254369,5.88985933 C4.92081969,5.86862385 4.88761165,5.83212232 4.86904577,5.81078899 L4.86904577,5.81078899 Z M3.1743828,7.97700306 C3.29285992,8.06752294 3.5421595,7.70779205 3.70523301,7.42419572 L3.1743828,7.97700306 Z M3.77987933,7.37927829 C3.82772954,7.41538838 3.87490985,7.45433639 3.92036755,7.49622018 L3.77987933,7.37927829 Z M4.47217614,8.16538226 C4.50711424,8.2036844 4.54172376,8.23985865 4.57655233,8.27412898 L4.47217614,8.16538226 Z" id="Stroke-24"></path>
                            <path d="M3.17907212,7.20058716 C3.52215811,7.22945566 3.92534397,7.54417125 4.17914147,7.90546789 C4.47619556,8.32831804 4.79238974,8.54321713 5.0605423,8.68061162 C5.0377656,8.71955963 5.03910541,8.76457492 5.03422469,8.80812232 C4.98235506,9.27138838 4.58854785,9.32599388 4.56462275,9.17626911 C4.57323578,9.23302752 4.56471845,9.27393272 4.56127323,9.30984709 C4.5543828,9.37110703 4.74339112,9.42444037 4.92369071,9.2973211 C5.00053814,9.24310703 5.07949098,9.10248318 5.11021082,9.00795107 C5.15059639,9.1236208 5.1527018,9.1892844 5.11490014,9.29370031 C5.07422746,9.2715841 5.0370957,9.2338104 5.0139362,9.19946177 C4.9920208,9.22872171 4.96972261,9.26473394 4.92369071,9.2973211 C4.95220943,9.34889297 5.00503606,9.40105199 5.07097365,9.43363914 C5.01824272,9.63640367 4.99307351,9.82801223 4.88837725,9.99222018 C4.72080583,10.2551682 4.50040777,10.2184709 4.56730236,9.9630581 C4.52127046,10.1881346 4.47715257,10.3412844 4.49409154,10.4651743 C4.51112621,10.5890642 4.69534951,10.7068869 4.86512205,10.5109725 C5.24849792,10.0686483 5.10992372,9.64149235 5.46133564,9.2155107 C5.62737587,9.01421407 5.7266172,8.8036208 5.42525659,8.65908257 C5.38544521,8.64009786 5.37558807,8.6347156 5.34075312,8.61827523 C5.25404854,8.56719266 5.25825936,8.40269113 5.42372538,8.32225076 C5.2434258,8.34593272 5.221319,8.41188991 5.16399445,8.51601223 C5.20619834,8.54292355 5.08552011,8.61005505 5.0834147,8.64342508 C4.921681,8.55496024 4.74291262,8.43684404 4.56337864,8.26040367 C4.63008183,8.21078899 4.69420111,8.14620183 4.6453939,8.08582263 C4.61735368,8.0546055 4.58979196,8.02231193 4.56194313,7.98776758 C4.61075035,8.04824465 4.53887933,8.11566972 4.47217614,8.16538226 C4.3930319,8.07838532 4.31407906,7.97876453 4.23656172,7.86426911 C4.14727323,7.73225688 4.03894036,7.60543119 3.92036755,7.49622018 C3.97721359,7.43593884 4.06860749,7.32692355 4.00716782,7.27124159 C3.95357559,7.22143119 3.89835645,7.17475229 3.8417975,7.13394495 C3.94056033,7.20342508 3.83423717,7.3164526 3.77987933,7.37927829 C3.60637448,7.24814679 3.42052427,7.15880122 3.24893343,7.1412844 L3.17907212,7.20058716" id="Fill-25" fill="#FFF101"></path>
                            <path d="M3.17907212,7.20058716 C3.52215811,7.22945566 3.92534397,7.54417125 4.17914147,7.90546789 C4.47619556,8.32831804 4.79238974,8.54321713 5.0605423,8.68061162 C5.0377656,8.71955963 5.03910541,8.76457492 5.03422469,8.80812232 C4.98235506,9.27138838 4.58854785,9.32599388 4.56462275,9.17626911 C4.57323578,9.23302752 4.56471845,9.27393272 4.56127323,9.30984709 C4.5543828,9.37110703 4.74339112,9.42444037 4.92369071,9.2973211 C5.00053814,9.24310703 5.07949098,9.10248318 5.11021082,9.00795107 C5.15059639,9.1236208 5.1527018,9.1892844 5.11490014,9.29370031 C5.07422746,9.2715841 5.0370957,9.2338104 5.0139362,9.19946177 C4.9920208,9.22872171 4.96972261,9.26473394 4.92369071,9.2973211 C4.95220943,9.34889297 5.00503606,9.40105199 5.07097365,9.43363914 C5.01824272,9.63640367 4.99307351,9.82801223 4.88837725,9.99222018 C4.72080583,10.2551682 4.50040777,10.2184709 4.56730236,9.9630581 C4.52127046,10.1881346 4.47715257,10.3412844 4.49409154,10.4651743 C4.51112621,10.5890642 4.69534951,10.7068869 4.86512205,10.5109725 C5.24849792,10.0686483 5.10992372,9.64149235 5.46133564,9.2155107 C5.62737587,9.01421407 5.7266172,8.8036208 5.42525659,8.65908257 C5.38544521,8.64009786 5.37558807,8.6347156 5.34075312,8.61827523 C5.25404854,8.56719266 5.25825936,8.40269113 5.42372538,8.32225076 C5.2434258,8.34593272 5.221319,8.41188991 5.16399445,8.51601223 C5.20619834,8.54292355 5.08552011,8.61005505 5.0834147,8.64342508 C4.921681,8.55496024 4.74291262,8.43684404 4.56337864,8.26040367 C4.63008183,8.21078899 4.69420111,8.14620183 4.6453939,8.08582263 C4.61735368,8.0546055 4.58979196,8.02231193 4.56194313,7.98776758 C4.61075035,8.04824465 4.53887933,8.11566972 4.47217614,8.16538226 C4.3930319,8.07838532 4.31407906,7.97876453 4.23656172,7.86426911 C4.14727323,7.73225688 4.03894036,7.60543119 3.92036755,7.49622018 C3.97721359,7.43593884 4.06860749,7.32692355 4.00716782,7.27124159 C3.95357559,7.22143119 3.89835645,7.17475229 3.8417975,7.13394495 C3.94056033,7.20342508 3.83423717,7.3164526 3.77987933,7.37927829 C3.60637448,7.24814679 3.42052427,7.15880122 3.24893343,7.1412844 L3.17907212,7.20058716 L3.17907212,7.20058716 Z" id="Stroke-26"></path>
                            <path d="M2.72861026,6.42485627 C2.61664078,6.37817737 2.67189002,6.31508126 2.57724231,6.46823111 C2.42249473,6.71865313 2.39259214,6.6609874 2.39890837,7.00574581 C2.40532029,7.3565715 2.47194175,7.30059938 2.79225104,7.58106421 C3.03848821,7.39229358 3.33238419,7.10693578 3.5181387,6.92159021 C3.36492233,6.71696636 2.9214466,6.5053945 2.72861026,6.42485627 Z" id="Fill-27" fill="#FFF101"></path>
                            <path d="M3.27410264,7.22368196 C3.17036338,7.34688685 3.18098613,7.32408563 3.12557559,7.13228135 C2.92316921,7.17827523 2.76704143,7.23141283 2.60444642,7.27065442 C2.42223283,7.31459326 2.38596237,7.31615901 2.38433547,7.22368195 C2.38232576,7.10527216 2.37811494,6.97658715 2.37266002,6.89418959 C2.36318567,6.7505321 2.3912259,6.7558165 2.506832,6.758948 C2.6224381,6.76198164 2.86259085,6.79104587 3.104043,6.79231804 C3.12165187,6.59219572 3.1047129,6.54130887 3.20404993,6.61754128 C3.31496671,6.70277676 3.47957143,6.85631804 3.53814008,6.92726606 C3.46100555,6.99204893 3.37248266,7.10683792 3.27410264,7.22368196 Z" id="Fill-29" fill="#FFF101"></path>
                            <polyline id="Fill-31" fill="#FFF101" points="5.43942025 8.17301529 5.57942996 8.10519878 5.54679612 8.25874006 5.68537032 8.32733945 5.54765742 8.39858104 5.58249237 8.55104587 5.44209986 8.48606728 5.34572954 8.60819572 5.30945908 8.45612232 5.15585992 8.45514373 5.24907212 8.33066667 5.15337171 8.20814679 5.30754508 8.20481957 5.34199723 8.05255046 5.43942025 8.17301529"></polyline>
                            <polygon id="Stroke-32" points="5.43942025 8.17301529 5.57942996 8.10519878 5.54679612 8.25874006 5.68537032 8.32733945 5.54765742 8.39858104 5.58249237 8.55104587 5.44209986 8.48606728 5.34572954 8.60819572 5.30945908 8.45612232 5.15585992 8.45514373 5.24907212 8.33066667 5.15337171 8.20814679 5.30754508 8.20481957 5.34199723 8.05255046"></polygon>
                            <path d="M5.62699307,4.30277676 C5.56478779,4.59469113 5.29462552,4.86174924 4.97833564,4.95559633 C4.89201387,5.20239755 5.03977531,5.58825688 5.2448613,5.80207951 C6.09956172,6.2048685 7.02106103,6.02500306 7.53621637,6.10896636 C7.69909847,6.13548624 8.04534258,6.01727217 8.08984327,5.70793884 C8.12640083,5.45360245 8.24784466,5.38588379 8.30134119,4.49056881 C8.33024272,4.00645872 8.32057698,3.57891131 8.38192094,3.39278287 C8.44326491,3.20665443 8.51341331,3.01338226 8.69084189,2.9403792 C8.93497365,2.83987768 9.09010402,2.65697859 9.26447018,2.59836086 C9.47797781,2.52653211 9.62975867,2.48905199 9.72612899,2.41213456 C9.82259501,2.33521713 9.83025104,2.11307645 9.57951595,2.06072171 C9.01316089,1.94231193 8.72070042,2.27865443 8.18420388,2.18040367 C7.93069348,2.13401835 7.71077393,2.15075229 7.73106241,2.49061774 C7.7513509,2.83038532 7.76637587,3.30255657 7.45420111,3.90801223 C7.2445215,4.3147156 7.15542441,4.81027523 7.28347157,5.1378104 C7.08154369,5.01597554 6.87368239,4.99092355 6.62045908,4.81575535 C6.36714008,4.6404893 6.03687795,4.44956575 5.62699307,4.30277676" id="Fill-33" fill="#FFFFFF"></path>
                            <path d="M5.62699307,4.30277676 C5.56478779,4.59469113 5.29462552,4.86174924 4.97833564,4.95559633 C4.89201387,5.20239755 5.03977531,5.58825688 5.2448613,5.80207951 C6.09956172,6.2048685 7.02106103,6.02500306 7.53621637,6.10896636 C7.69909847,6.13548624 8.04534258,6.01727217 8.08984327,5.70793884 C8.12640083,5.45360245 8.24784466,5.38588379 8.30134119,4.49056881 C8.33024272,4.00645872 8.32057698,3.57891131 8.38192094,3.39278287 C8.44326491,3.20665443 8.51341331,3.01338226 8.69084189,2.9403792 C8.93497365,2.83987768 9.09010402,2.65697859 9.26447018,2.59836086 C9.47797781,2.52653211 9.62975867,2.48905199 9.72612899,2.41213456 C9.82259501,2.33521713 9.83025104,2.11307645 9.57951595,2.06072171 C9.01316089,1.94231193 8.72070042,2.27865443 8.18420388,2.18040367 C7.93069348,2.13401835 7.71077393,2.15075229 7.73106241,2.49061774 C7.7513509,2.83038532 7.76637587,3.30255657 7.45420111,3.90801223 C7.2445215,4.3147156 7.15542441,4.81027523 7.28347157,5.1378104 C7.08154369,5.01597554 6.87368239,4.99092355 6.62045908,4.81575535 C6.36714008,4.6404893 6.03687795,4.44956575 5.62699307,4.30277676 L5.62699307,4.30277676 Z M8.87439528,2.84428135 C8.98100555,2.77039755 8.93583495,2.59366361 8.71026907,2.3737737 L8.87439528,2.84428135 Z M9.01296949,2.74974924 C9.11173232,2.67733333 9.13556172,2.58211621 8.95114702,2.31016514 L9.01296949,2.74974924 Z M9.22943319,2.61352905 C9.34103796,2.57096024 9.31245224,2.42691131 9.20752843,2.30820795 L9.22943319,2.61352905 Z" id="Stroke-34"></path>
                            <path d="M5.34161442,4.75566972 C5.78241054,4.91840979 5.76518447,5.08496636 6.32283079,5.20337615 C6.65816505,5.27451988 7.04546463,5.42209174 7.21064355,5.51760245 L7.22834813,5.44332722 C7.06326491,5.34781651 6.67586963,5.20034251 6.34063107,5.12910092 C5.80135922,5.0146055 5.79973232,4.8550948 5.40142718,4.69744343 C5.38783773,4.7133945 5.35472538,4.74422018 5.34161442,4.75566972" id="Fill-35" fill="#FFF101"></path>
                            <path d="M5.34161442,4.75566972 C5.78241054,4.91840979 5.76518447,5.08496636 6.32283079,5.20337615 C6.65816505,5.27451988 7.04546463,5.42209174 7.21064355,5.51760245 L7.22834813,5.44332722 C7.06326491,5.34781651 6.67586963,5.20034251 6.34063107,5.12910092 C5.80135922,5.0146055 5.79973232,4.8550948 5.40142718,4.69744343 C5.38783773,4.7133945 5.35472538,4.74422018 5.34161442,4.75566972 L5.34161442,4.75566972 Z" id="Stroke-36"></path>
                            <path d="M5.59675173,4.40729052 C5.64728155,4.43772477 5.70221359,4.46571254 5.75226491,4.48469725 C5.71551595,4.61191437 5.50631484,4.74382875 5.58450208,4.7826789 C5.60909709,4.79530275 5.68460472,4.8430581 5.72451179,4.86869725 C5.66221082,4.82847706 5.92002774,4.62590826 5.91820943,4.56357187 C6.17861026,4.65164526 6.38321775,4.85392049 6.55126768,4.90099083 C6.52485437,5.00393884 6.38072954,5.13663609 6.46016089,5.15689297 C6.50140777,5.16609174 6.6004577,5.19564526 6.66285437,5.2133578 C6.59806519,5.19378593 6.71845631,5.09181651 6.71070458,5.02889297 C6.84966158,5.08036697 7.1075742,5.18830581 7.21657698,5.25357798 L7.28347157,5.1378104 C7.08154369,5.01597554 6.87368239,4.99092355 6.62045908,4.81575535 C6.36714008,4.6404893 6.03687795,4.44956575 5.62699307,4.30277676 C5.61991123,4.33252599 5.60555617,4.38018349 5.59675173,4.40729052" id="Fill-37" fill="#FFF101"></path>
                            <path d="M5.59675173,4.40729052 C5.64728155,4.43772477 5.70221359,4.46571254 5.75226491,4.48469725 C5.71551595,4.61191437 5.50631484,4.74382875 5.58450208,4.7826789 C5.60909709,4.79530275 5.68460472,4.8430581 5.72451179,4.86869725 C5.66221082,4.82847706 5.92002774,4.62590826 5.91820943,4.56357187 C6.17861026,4.65164526 6.38321775,4.85392049 6.55126768,4.90099083 C6.52485437,5.00393884 6.38072954,5.13663609 6.46016089,5.15689297 C6.50140777,5.16609174 6.6004577,5.19564526 6.66285437,5.2133578 C6.59806519,5.19378593 6.71845631,5.09181651 6.71070458,5.02889297 C6.84966158,5.08036697 7.1075742,5.18830581 7.21657698,5.25357798 L7.28347157,5.1378104 C7.08154369,5.01597554 6.87368239,4.99092355 6.62045908,4.81575535 C6.36714008,4.6404893 6.03687795,4.44956575 5.62699307,4.30277676 C5.61991123,4.33252599 5.60555617,4.38018349 5.59675173,4.40729052 L5.59675173,4.40729052 Z M8.27875589,4.82485627 C8.29626907,4.67474006 7.8668613,4.63393272 7.5451165,4.63129052 L8.27875589,4.82485627 Z M7.46980028,4.5875474 C7.47746694,4.5271682 7.48820028,4.46590826 7.50276694,4.40474618 L7.46980028,4.5875474 Z M7.78934397,3.58145566 C7.80434873,3.53771254 7.81771063,3.49514373 7.82932016,3.45316208 L7.78934397,3.58145566 Z" id="Stroke-38"></path>
                            <path d="M7.61880583,5.20895413 C7.47171429,4.8907156 7.53669487,4.37626911 7.71584605,3.97083792 C7.92542996,3.49631804 7.94935506,3.10889297 7.93155479,2.80278899 C7.97595978,2.80357187 8.01337864,2.77979205 8.05280721,2.76237309 C8.47101803,2.57673394 8.71419279,2.89810398 8.59925659,2.99410398 C8.64308738,2.95809174 8.68203745,2.94527217 8.71409709,2.93039755 C8.76941193,2.905737 8.72012621,2.71177982 8.52231345,2.61568196 C8.43800139,2.5746789 8.2794258,2.57507034 8.18391678,2.5951315 C8.26181692,2.50148012 8.31627046,2.46683792 8.42364632,2.44814679 C8.42527323,2.49521713 8.41187517,2.54698471 8.3942663,2.58466055 C8.43005825,2.5893578 8.47168793,2.59111927 8.52231345,2.61568196 C8.55169348,2.56459939 8.56949376,2.49179205 8.56413454,2.41702752 C8.7622344,2.36242202 8.93707906,2.28892966 9.12847989,2.29949847 C9.43500832,2.31642813 9.51415257,2.52995719 9.26447018,2.59836086 C9.47797781,2.52653211 9.62975867,2.48905199 9.72612899,2.41213456 C9.82259501,2.33521713 9.83025104,2.11307645 9.57951595,2.06072171 C9.01316089,1.94231193 8.72070042,2.27865443 8.18420388,2.18040367 C7.93069348,2.13401835 7.70273509,2.15143731 7.73106241,2.49061774 C7.73479473,2.53533945 7.73517753,2.54678899 7.73871845,2.58583486 C7.73871845,2.68819572 7.59736893,2.7666789 7.44654508,2.66030581 C7.55669626,2.80826911 7.62359085,2.79486239 7.74044105,2.79359021 C7.74216366,2.7426055 7.85930097,2.81590214 7.8885853,2.80112538 C7.89461442,2.98862385 7.88389598,3.20606728 7.82427462,3.45316208 C7.74886269,3.41900917 7.66225381,3.39444648 7.635362,3.46784098 C7.62292094,3.50825688 7.60942718,3.54877064 7.59411512,3.59065443 C7.62091123,3.51725994 7.71402774,3.54730275 7.78934397,3.58145566 C7.75527462,3.69507034 7.71039112,3.81485015 7.65220527,3.94069725 C7.58502358,4.08572477 7.53181415,4.24503976 7.4986061,4.40474618 C7.41917476,4.3844893 7.28107906,4.35806728 7.26461859,4.44036697 C7.24930652,4.51268502 7.23734397,4.5849052 7.23102774,4.65546177 C7.24050208,4.53323547 7.38931623,4.57081346 7.46980028,4.5875474 C7.44549237,4.80675229 7.46271845,5.01597554 7.53363245,5.17685627 L7.61880583,5.20895413" id="Fill-39" fill="#FFF101"></path>
                            <path d="M7.61880583,5.20895413 C7.47171429,4.8907156 7.53669487,4.37626911 7.71584605,3.97083792 C7.92542996,3.49631804 7.94935506,3.10889297 7.93155479,2.80278899 C7.97595978,2.80357187 8.01337864,2.77979205 8.05280721,2.76237309 C8.47101803,2.57673394 8.71419279,2.89810398 8.59925659,2.99410398 C8.64308738,2.95809174 8.68203745,2.94527217 8.71409709,2.93039755 C8.76941193,2.905737 8.72012621,2.71177982 8.52231345,2.61568196 C8.43800139,2.5746789 8.2794258,2.57507034 8.18391678,2.5951315 C8.26181692,2.50148012 8.31627046,2.46683792 8.42364632,2.44814679 C8.42527323,2.49521713 8.41187517,2.54698471 8.3942663,2.58466055 C8.43005825,2.5893578 8.47168793,2.59111927 8.52231345,2.61568196 C8.55169348,2.56459939 8.56949376,2.49179205 8.56413454,2.41702752 C8.7622344,2.36242202 8.93707906,2.28892966 9.12847989,2.29949847 C9.43500832,2.31642813 9.51415257,2.52995719 9.26447018,2.59836086 C9.47797781,2.52653211 9.62975867,2.48905199 9.72612899,2.41213456 C9.82259501,2.33521713 9.83025104,2.11307645 9.57951595,2.06072171 C9.01316089,1.94231193 8.72070042,2.27865443 8.18420388,2.18040367 C7.93069348,2.13401835 7.70273509,2.15143731 7.73106241,2.49061774 C7.73479473,2.53533945 7.73517753,2.54678899 7.73871845,2.58583486 C7.73871845,2.68819572 7.59736893,2.7666789 7.44654508,2.66030581 C7.55669626,2.80826911 7.62359085,2.79486239 7.74044105,2.79359021 C7.74216366,2.7426055 7.85930097,2.81590214 7.8885853,2.80112538 C7.89461442,2.98862385 7.88389598,3.20606728 7.82427462,3.45316208 C7.74886269,3.41900917 7.66225381,3.39444648 7.635362,3.46784098 C7.62292094,3.50825688 7.60942718,3.54877064 7.59411512,3.59065443 C7.62091123,3.51725994 7.71402774,3.54730275 7.78934397,3.58145566 C7.75527462,3.69507034 7.71039112,3.81485015 7.65220527,3.94069725 C7.58502358,4.08572477 7.53181415,4.24503976 7.4986061,4.40474618 C7.41917476,4.3844893 7.28107906,4.35806728 7.26461859,4.44036697 C7.24930652,4.51268502 7.23734397,4.5849052 7.23102774,4.65546177 C7.24050208,4.53323547 7.38931623,4.57081346 7.46980028,4.5875474 C7.44549237,4.80675229 7.46271845,5.01597554 7.53363245,5.17685627 L7.61880583,5.20895413 L7.61880583,5.20895413 Z" id="Stroke-40"></path>
                            <path d="M7.03024827,5.87421758 C7.04670874,5.99673745 7.03599029,6.08725733 7.21303606,6.09440106 C7.50252982,6.10624204 7.47898752,6.14274357 7.76781137,5.96483531 C8.06170735,5.7836977 8.06954807,5.81946679 8.1469697,5.39563804 C8.16601409,5.29141786 8.12457581,5.29269003 7.99317914,5.23534446 C7.71019301,5.11165027 7.46281415,5.12009786 7.21303606,5.04817125 C7.11628294,5.286263 7.00192094,5.66323287 7.03024827,5.87421758 Z" id="Fill-41" fill="#FFF101"></path>
                            <path d="M7.5908613,5.11334557 C7.74714008,5.14348624 7.72244938,5.14554128 7.58779889,5.29056881 C7.728,5.44675229 7.83532065,5.55663994 7.94996975,5.681117 C8.078304,5.82046869 8.09773119,5.85178367 8.02021385,5.89944116 C7.92097252,5.96040752 7.81417086,6.02851762 7.74708486,6.07460936 C7.63004325,6.15485401 7.62056891,6.12725768 7.56534977,6.02333107 C7.51013063,5.91950232 7.43018031,5.69394495 7.31065049,5.47963303 C7.13226491,5.56398777 7.09762136,5.60450153 7.11255062,5.47845872 C7.1292982,5.33754128 7.1770527,5.11500917 7.20786824,5.02771865 C7.30127184,5.06353517 7.44271706,5.08457492 7.5908613,5.11334557 Z" id="Fill-43" fill="#FFF101"></path>
                            <path d="M7.20786824,5.02771865 C7.30127184,5.06353517 7.44271706,5.08457492 7.5908613,5.11334557 C7.74714008,5.14348624 7.72244938,5.14554128 7.58779889,5.29056881 C7.728,5.44675229 7.93165049,5.69541284 8.04629958,5.81988991 C8.17463384,5.95924159 8.19406103,5.99055657 8.11654369,6.03821407 C8.01730236,6.09918043 7.91050069,6.16729052 7.8434147,6.21338226 C7.72637309,6.29362691 7.71689875,6.26603058 7.66167961,6.16210398 C7.60646047,6.05827523 7.43018031,5.69394495 7.31065049,5.47963303 C7.13226491,5.56398777 7.09762136,5.60450153 7.11255062,5.47845872 C7.1292982,5.33754128 7.1770527,5.11500917 7.20786824,5.02771865 L7.20786824,5.02771865 Z" id="Stroke-44"></path>
                            <polyline id="Fill-45" fill="#FFF101" points="7.31218169 2.72117431 7.18480444 2.63104587 7.33122607 2.5830948 7.31993343 2.42612844 7.44912899 2.51244037 7.56090707 2.40538226 7.57602774 2.56215291 7.7276172 2.58642202 7.61698752 2.69465443 7.69297365 2.83107034 7.54090569 2.81081346 7.48492094 2.95681957 7.4051068 2.82196942 7.25887656 2.86766972 7.31218169 2.72117431"></polyline>
                            <polygon id="Stroke-46" points="7.31218169 2.72117431 7.18480444 2.63104587 7.33122607 2.5830948 7.31993343 2.42612844 7.44912899 2.51244037 7.56090707 2.40538226 7.57602774 2.56215291 7.7276172 2.58642202 7.61698752 2.69465443 7.69297365 2.83107034 7.54090569 2.81081346 7.48492094 2.95681957 7.4051068 2.82196942 7.25887656 2.86766972"></polygon>
                        </g>
                        <g transform="translate(0.000000, 1.565749)">
                            <path d="M3.94247386,2.93015717 C4.21661968,2.84072902 4.5757899,2.94333265 4.81370444,3.17681643 C5.06028439,3.13347796 5.32293599,2.82477291 5.40719005,2.51476307 C5.36623927,2.05477265 5.21455531,1.64117906 4.94208722,1.13354208 C4.88757648,1.03198279 4.71072075,0.716582428 4.69951967,0.696179087 C4.61315135,0.538854804 4.55871007,0.428085855 4.52140183,0.32838307 C4.44139381,0.114686662 4.14389187,-0.0649686722 3.89710821,0.035122006 C3.86492533,0.0481804493 3.83362911,0.0585835667 3.79928338,0.0679442615 C3.77721347,0.0739592638 3.75468447,0.0793759437 3.72384306,0.0862519554 C3.40347819,0.15767647 3.22572209,0.219090327 2.75981852,0.456716433 C2.74683494,0.46333821 2.73374611,0.47005119 2.72053021,0.47686554 C2.59306872,0.542586951 2.21006103,0.749679483 2.17088597,0.770236358 C1.98777761,0.866321359 1.87313614,0.91691744 1.79138402,0.933747213 C1.51956644,0.98967608 1.38311841,0.987300472 1.25860804,0.887564404 C1.21774187,0.8548288 1.17409624,0.825247821 1.12606653,0.797088882 C1.0881885,0.774881691 1.04874195,0.754154321 1.00100956,0.730870537 C0.976840446,0.71908088 0.8956076,0.680640486 0.881872272,0.674002751 C0.786647313,0.627984337 0.729632577,0.593960548 0.682501681,0.550889156 C0.656170479,0.526822445 0.518838427,0.398282656 0.484411324,0.367682157 C0.419489167,0.309976157 0.370429772,0.273160844 0.322620911,0.248253856 C0.312372692,0.24291484 0.302224077,0.238164207 0.292118107,0.233987024 C0.14366109,0.172495957 -0.0123137687,0.326086369 0.0598813435,0.54720903 C0.137189667,0.784241909 0.235636245,0.920192521 0.462089857,1.15326332 C0.470410869,1.16182483 0.470410869,1.16182483 0.478726942,1.17037894 C0.694952297,1.39283236 0.785100429,1.51367987 0.85902751,1.72303136 C0.970674445,2.03964391 1.11115951,2.13867796 1.35717372,1.97226933 C1.79999277,1.67273822 2.14330849,1.53137088 2.69304746,1.50981814 C3.1657718,1.49117874 3.61844048,1.31117741 3.82429508,1.04373384 L3.81361397,1.03989615 C3.81309,1.09956395 3.81758893,1.15894007 3.82701997,1.23045972 C3.83126501,1.26265168 3.8328995,1.27353433 3.84488196,1.35130293 C3.87377408,1.53881882 3.88244087,1.6439743 3.87238903,1.78764918 C3.84652647,2.15905825 3.862768,2.53560131 3.93477867,2.9254654 L3.94247386,2.93015717 Z M3.9465334,2.92319515 C3.87472496,2.53442597 3.85852846,2.15892685 3.88432123,1.78852003 C3.8944529,1.643704 3.88572121,1.53776099 3.85669874,1.34939915 C3.84473398,1.27174535 3.84310304,1.26088639 3.83887523,1.22882507 C3.82951458,1.15783923 3.82505781,1.09901958 3.82557604,1.04000599 L3.81489493,1.0361683 C3.61153001,1.30037731 3.16212453,1.47908105 2.69258784,1.49759476 C2.14030447,1.51924725 1.79505812,1.66140957 1.35057385,1.96206706 C1.11275564,2.12293176 0.979680296,2.02912116 0.870279918,1.71887947 C0.795603914,1.50740713 0.704578804,1.38538399 0.487211454,1.16175569 C0.478894196,1.15320036 0.478894196,1.15320036 0.470576079,1.14464182 C0.245316419,0.912799867 0.147814178,0.778153345 0.0712288245,0.543337145 C0.00223850172,0.332030266 0.1487192,0.187788875 0.287630993,0.245326297 C0.297412804,0.249369495 0.307246008,0.253972482 0.317190438,0.259153232 C0.363953022,0.283515141 0.412314697,0.319806869 0.476563425,0.376914293 C0.510851273,0.407391016 0.64809547,0.535848574 0.674529899,0.560009634 C0.722738802,0.604066182 0.780569082,0.638576651 0.876760858,0.685062289 C0.890562314,0.691731981 0.971768491,0.730159754 0.99585901,0.741911072 C1.04334101,0.765072718 1.08253289,0.785666267 1.12011643,0.80770081 C1.16767034,0.83558079 1.21084162,0.864840283 1.25123102,0.897193965 C1.37948822,0.999931354 1.51859639,1.00235328 1.79374439,0.945739144 C1.87695154,0.928609836 1.99224696,0.877725138 2.17634761,0.781119442 C2.21562596,0.760508363 2.59858234,0.553443575 2.72591625,0.487787948 C2.73911673,0.480981546 2.75218996,0.47427657 2.76515781,0.467662817 C3.2301249,0.230514343 3.40694933,0.169422371 3.72639138,0.0982035992 C3.75739594,0.0912912129 3.78008647,0.0858356973 3.80236421,0.0797640498 C3.83714502,0.0702847791 3.86888347,0.0597346615 3.90151953,0.0464923359 C4.14143745,-0.050813733 4.4324073,0.124897002 4.51022963,0.332755594 C4.54779517,0.433146 4.6024565,0.544362651 4.68908836,0.702166986 C4.70033918,0.722660943 4.87715438,1.03798902 4.93160033,1.13942761 C5.20334843,1.64572317 5.35450561,2.05788039 5.39547101,2.51368512 C5.31252734,2.81738724 5.05301967,3.1223971 4.81677451,3.16638641 C4.58104293,2.93153338 4.21737167,2.82764394 3.9388382,2.91850338 L3.9465334,2.92319515 Z M1.08441003,0.772381856 C0.958357433,0.709796407 0.830933612,0.856006092 0.75950363,1.15701645 L0.769872816,1.16242081 L1.08635409,0.781845883 L1.08441003,0.772381856 Z M1.07724091,0.773921701 L0.760759639,1.15449662 L0.771128825,1.15990098 C0.841009169,0.865420903 0.962845254,0.725622744 1.07918498,0.783385728 L1.07724091,0.773921701 Z M0.934875002,0.696861983 C0.804042388,0.636324112 0.712155682,0.700062413 0.585636166,0.974320263 L0.594743052,0.981737406 L0.936106436,0.707241993 L0.934875002,0.696861983 L0.934875002,0.696861983 Z M0.929943306,0.708006518 L0.928711872,0.697626508 L0.587348488,0.972121921 L0.596455373,0.979539064 C0.720548301,0.710541358 0.806527823,0.650900645 0.929943306,0.708006518 L0.929943306,0.708006518 Z M0.713786732,0.576395413 C0.629303962,0.511457691 0.515331282,0.59533438 0.455623633,0.748611304 L0.464495912,0.755965115 L0.713508395,0.586374901 L0.713786732,0.576395413 L0.713786732,0.576395413 Z M0.706598844,0.586173394 L0.706877181,0.576193907 L0.457864698,0.745784121 L0.466736977,0.753137931 C0.523974197,0.606202903 0.630584185,0.52774469 0.706598844,0.586173394 L0.706598844,0.586173394 Z" id="Shape" fill="#000000"></path>
                            <path d="" id="Shape" fill="#000000"></path>
                            <path d="M4.05028057,2.89894671 C4.05088657,2.83563759 4.04672548,2.77339295 4.03794393,2.72140546 C4.06514635,2.72060323 4.10439582,2.72191161 4.15513447,2.73053464 C4.17242449,2.73347308 4.18973463,2.73697367 4.21413211,2.74230044 C4.29068752,2.75901499 4.30173514,2.7611248 4.32505356,2.76157524 C4.35864849,2.76222419 4.37633327,2.75000495 4.37440376,2.72163077 C4.37292902,2.69885142 4.37433753,2.63226978 4.37709378,2.55523279 L4.36513948,2.55477869 C4.3646179,2.56892144 4.3481689,2.57491327 4.31397693,2.57269348 C4.28565872,2.57085503 4.25320177,2.56465323 4.19108212,2.55047105 C4.18766037,2.54968937 4.18766037,2.54968937 4.18423907,2.54890651 C4.0703935,2.52285079 4.03398521,2.51742493 4.01282334,2.53082448 L4.02182922,2.53478395 C4.01818465,2.51679145 4.01501646,2.49845924 4.01229824,2.47974559 C3.99717638,2.37563882 3.99627795,2.28752517 4.00293188,2.11507892 C4.00978153,1.9375605 4.00868791,1.87454172 3.99094302,1.80522783 C4.01160583,1.80571819 4.0425604,1.80386612 4.08599103,1.80534734 C4.09626989,1.80569791 4.10556592,1.80614111 4.12220687,1.80702357 C4.17919929,1.81004585 4.1990004,1.8102382 4.21936171,1.80620469 C4.24816284,1.80049926 4.26078944,1.78478032 4.25322059,1.7578229 C4.24669092,1.73683702 4.23727763,1.70089984 4.22285371,1.64304576 C4.22193504,1.63935948 4.22193504,1.63935948 4.22101692,1.63566995 C4.22340318,1.64526246 4.20407589,1.56730561 4.19976664,1.55022732 L4.18815961,1.55318566 C4.19152823,1.56750691 4.1868076,1.5744476 4.1726946,1.57827302 C4.16040766,1.58160347 4.14693911,1.58195573 4.11186926,1.58097508 C4.10423293,1.5807623 4.10423293,1.5807623 4.09650779,1.58059488 C4.05267056,1.57977621 4.02746266,1.58332454 4.01006609,1.59678651 L4.01956532,1.60059844 C3.98743053,1.41480052 3.95640151,1.15381658 3.95706854,1.0413582 L3.81965595,1.03383518 C3.81309,1.09956395 3.81758893,1.15894007 3.82701997,1.23045972 C3.83126501,1.26265168 3.8328995,1.27353433 3.84488196,1.35130293 C3.87377408,1.53881882 3.88244087,1.6439743 3.87238903,1.78764918 C3.84652647,2.15905825 3.862768,2.53560131 3.93477867,2.9254654 C3.96740431,2.922706 4.01161943,2.91202564 4.04550804,2.90487693 L4.05028057,2.89894671 Z M4.04309113,2.89289677 C4.00891335,2.90010649 3.96441377,2.91085556 3.93897761,2.91845981 C3.87472496,2.53442597 3.85852846,2.15892685 3.88432123,1.78852003 C3.8944529,1.643704 3.88572121,1.53776099 3.85669874,1.34939915 C3.84473398,1.27174535 3.84310304,1.26088639 3.83887523,1.22882507 C3.82951458,1.15783923 3.82505781,1.09901958 3.82557604,1.04000599 L3.95102644,1.04743699 C3.94443365,1.15467365 3.97553328,1.41625145 4.00778558,1.60272877 L4.01728481,1.60654071 C4.03173534,1.59535848 4.0551851,1.59205763 4.09628936,1.59282526 C4.10392646,1.59299075 4.10392646,1.59299075 4.11154225,1.59320292 C4.14800434,1.59422251 4.16187863,1.59385963 4.17575973,1.59009708 C4.19582604,1.58465798 4.20477225,1.57150447 4.19979046,1.55032504 L4.18818343,1.55328338 C4.19248528,1.57033235 4.211803,1.64825061 4.20942357,1.63868553 C4.21034242,1.64237798 4.21034242,1.64237798 4.21126193,1.64606764 C4.22575064,1.70418161 4.23519258,1.74022815 4.24177203,1.76136573 C4.24711498,1.78040435 4.23962303,1.78973113 4.21708654,1.79419555 C4.19811468,1.79795382 4.17857763,1.79776403 4.12282641,1.79480757 C4.1061156,1.7939214 4.09676312,1.79347552 4.08638979,1.79312173 C4.04184723,1.79160258 4.0098973,1.7935142 3.9835783,1.80087736 C3.99668871,1.87597315 3.99777367,1.93849334 3.99097863,2.11459666 C3.98429619,2.28778161 3.98520027,2.37644898 4.0004655,2.48154276 C4.00321646,2.50048183 4.00642402,2.51904187 4.01011531,2.53726498 L4.01912118,2.54122445 C4.03594993,2.53056861 4.07434901,2.53629115 4.18162626,2.56084358 C4.18504963,2.56162692 4.18504963,2.56162692 4.18847545,2.56240953 C4.25124259,2.57673953 4.28404475,2.58300729 4.31321896,2.58490132 C4.35344773,2.58751302 4.37620909,2.57922181 4.37709353,2.55523966 L4.36513923,2.55478556 C4.3623604,2.6324536 4.36095196,2.6990318 4.36246868,2.72245907 C4.36381226,2.74221731 4.35272901,2.74987524 4.3252795,2.749345 C4.30312412,2.74891703 4.29197098,2.74678707 4.21663,2.73033767 C4.19206918,2.72497524 4.17460344,2.72144318 4.15709575,2.71846775 C4.1049116,2.70959906 4.06424706,2.7082435 4.03065223,2.71649961 C4.03480523,2.77469201 4.03891794,2.836213 4.03831859,2.89882699 L4.04309113,2.89289677 Z M3.05460085,0.309388107 C2.98757547,0.338781965 2.98810078,0.442961048 3.0422781,0.605242039 C3.08560332,0.735016972 3.16235588,0.898059505 3.25463938,1.06459326 L3.26560618,1.05994042 L3.0627213,0.313371611 L3.05460085,0.309388107 Z M3.05119549,0.316646737 L3.25408037,1.06321554 L3.26504717,1.05856271 C3.17309903,0.892634157 3.09664221,0.730219839 3.05359915,0.601290071 C3.00139436,0.444917554 3.00089685,0.346249827 3.05931593,0.320630242 L3.05119549,0.316646737 Z M3.25812688,1.14443445 C3.2018319,1.17309797 3.14557465,1.19826061 3.08936703,1.21968162 L3.09334871,1.23287823 L3.26264275,1.15739389 L3.25812688,1.14443445 L3.25812688,1.14443445 Z M3.26289947,1.15728684 L3.25838361,1.14432739 L3.08908957,1.21981173 L3.09307125,1.23300834 C3.14965107,1.21144548 3.20626357,1.18612395 3.26289947,1.15728684 L3.26289947,1.15728684 Z M2.2472442,1.364166 C2.2040215,1.37572758 2.16198696,1.38838961 2.1207935,1.40222789 L2.12393376,1.41573485 L2.25006691,1.3777687 L2.2472442,1.364166 L2.2472442,1.364166 Z M2.24990975,1.37780772 L2.24708704,1.36420503 L2.12095389,1.40217119 L2.12409416,1.41567815 C2.16507671,1.40191071 2.20689947,1.38931248 2.24990975,1.37780772 L2.24990975,1.37780772 Z" id="Shape" fill="#000000"></path>
                            <path d="M3.70730204,0.703844838 C3.5221338,0.977230831 3.07250737,1.18778872 2.6146118,1.23447666 C2.17328566,1.27948553 1.83477381,1.41263015 1.51470821,1.62836125 C1.5084156,1.60323274 1.49108809,1.58757909 1.44846179,1.55721597 C1.44838311,1.55715992 1.44838311,1.55715992 1.44830442,1.55710388 C1.43750624,1.54941222 1.43266854,1.54590865 1.42682607,1.5414654 C1.26440867,1.41845499 1.19055352,1.26453159 1.20124981,1.12268428 C1.21008508,1.00551664 1.27860755,0.926859231 1.34409984,0.952215359 L1.34837925,0.940792539 C1.32478507,0.931441889 1.30449519,0.920206884 1.28388261,0.905899629 C1.27264928,0.898102543 1.23922467,0.872425332 1.23831436,0.871755996 C1.16848524,0.818836929 1.04283953,1.0082491 1.05822649,1.20445221 C1.06514019,1.29255112 1.13692081,1.43212931 1.21159894,1.51785417 L1.21713641,1.50776861 C1.09885184,1.48575048 1.04404656,1.45486167 0.976253732,1.37112125 C1.0104961,1.35749449 1.05909141,1.34237669 1.10245225,1.33894198 L1.10751147,1.33049165 C1.10538105,1.32526329 1.0971667,1.30588481 1.09545898,1.30174631 C1.08073832,1.26607219 1.07296326,1.23840502 1.07014973,1.20346144 C1.0022205,1.1973232 0.930776119,1.22012295 0.871723625,1.26114255 C0.870329978,1.25272659 0.861042928,1.24339778 0.85125987,1.2336864 C0.826146184,1.20875671 0.741469629,1.12694799 0.72966933,1.11536702 C0.613319776,1.00118001 0.547585076,0.921166744 0.498572934,0.822478311 C0.434652423,0.693600221 0.427150452,0.577544741 0.470013829,0.518928734 C0.51126516,0.462517212 0.590360134,0.473999546 0.674287656,0.559775485 L0.682502002,0.550889449 C0.656170479,0.526822445 0.518838427,0.398282656 0.484411324,0.367682157 C0.419489167,0.309976157 0.370429772,0.273160844 0.322620911,0.248253856 C0.312372692,0.24291484 0.302224077,0.238164207 0.292118107,0.233987024 C0.14366109,0.172495957 -0.0123137687,0.326086369 0.0598813435,0.54720903 C0.137189667,0.784241909 0.235636245,0.920192521 0.462089857,1.15326332 C0.470410869,1.16182483 0.470410869,1.16182483 0.478726942,1.17037894 C0.694952297,1.39283236 0.785100429,1.51367987 0.85902751,1.72303136 C0.910426296,1.86878996 0.965432845,1.96467149 1.03622758,2.01499153 C1.12194043,2.07591517 1.22716135,2.06495583 1.35729447,1.97218547 C1.37221179,1.96155646 1.38257075,1.95428502 1.4000561,1.94207378 C1.40031975,1.94188904 1.40031975,1.94188904 1.40058338,1.94170427 C1.41237446,1.93344006 1.42165648,1.92683393 1.43418223,1.91774669 C1.52777747,1.86246831 1.64693924,1.96822867 1.63396017,2.1338233 L1.64544062,2.1366714 C1.69097307,2.02532213 1.69202312,1.9595306 1.65765949,1.88747606 C1.65194291,1.87548941 1.64527786,1.86314899 1.63613153,1.84731494 C1.63221452,1.84053385 1.61534531,1.81192154 1.61090467,1.80424888 C1.59466876,1.80647337 1.5890515,1.80343083 1.5830882,1.79137801 C1.57778063,1.78065051 1.5740121,1.76681607 1.56799204,1.73894677 C1.56723213,1.73542209 1.56723213,1.73542209 1.56647328,1.73189946 C1.55753068,1.69045039 1.55240035,1.67480257 1.54141086,1.66732415 L1.54125481,1.67761031 C1.7251626,1.56071027 1.91088694,1.47228254 2.12410675,1.40917783 C2.12864002,1.51962485 2.16067921,1.58125028 2.23032815,1.56933512 C2.27288342,1.55967382 2.31364773,1.55151514 2.35502003,1.54447983 L2.35305188,1.53241411 C2.29440505,1.54244709 2.26639934,1.48370131 2.25452474,1.36948188 C2.36708344,1.34856535 2.49082119,1.32906182 2.62191347,1.31809584 C2.78042927,1.30480313 2.94240653,1.27184255 3.09306641,1.22181721 C3.12430399,1.3559995 3.17127244,1.43474173 3.2402084,1.411158 C3.31353396,1.3871359 3.37973331,1.36143164 3.43986933,1.33311512 L3.43479433,1.32203836 C3.37046652,1.35338661 3.32710318,1.31394231 3.29044665,1.21909831 C3.28605942,1.20774691 3.28184039,1.1958331 3.27721088,1.18194175 C3.27448242,1.17375473 3.26570603,1.14663527 3.26618612,1.14810442 C3.46993406,1.06357431 3.6346327,0.941510869 3.73248148,0.802496472 L3.71811385,0.706290403 L3.70730204,0.703844838 L3.70730204,0.703844838 Z M3.71713624,0.710809596 L3.70632443,0.708364031 L3.7217322,0.799960361 C3.62632512,0.932373793 3.46333876,1.05316822 3.25812761,1.14443412 C3.25434518,1.15046626 3.26313906,1.17763972 3.26588777,1.18588753 C3.27057421,1.19994971 3.27485539,1.21203903 3.27932143,1.22359432 C3.31819354,1.32417085 3.367043,1.36860547 3.43994076,1.3330809 L3.43486576,1.32200414 C3.37520182,1.35009837 3.30944814,1.37562958 3.23648573,1.39953323 C3.17809628,1.41950836 3.13366878,1.34502602 3.09696816,1.21431219 C2.9395991,1.25991358 2.77853368,1.29268861 2.62093693,1.30590426 C2.48927563,1.31691783 2.36496872,1.33651107 2.24723778,1.36416751 C2.25520592,1.49174774 2.28597571,1.55629156 2.35502579,1.54447885 L2.35305764,1.53241313 C2.31146694,1.53948557 2.27049244,1.54768633 2.22804367,1.55733219 C2.16876412,1.56746473 2.13985639,1.51186247 2.12839093,1.40264992 C1.9064362,1.46086532 1.71972847,1.54976126 1.53493937,1.6672215 L1.53478332,1.67750765 C1.54177704,1.68226692 1.54685919,1.69776779 1.55479163,1.73453476 C1.55554895,1.73805028 1.55554895,1.73805028 1.55631105,1.74158512 C1.56256571,1.77054046 1.56647794,1.78490243 1.57241399,1.79690018 C1.58106542,1.81438617 1.59335997,1.8210454 1.60856902,1.81276219 C1.60508456,1.81821041 1.62195025,1.84681675 1.62583157,1.85353605 C1.63482988,1.86911385 1.64135357,1.88119254 1.64690735,1.89283784 C1.67966872,1.9615327 1.67867676,2.02368385 1.63440404,2.13195246 L1.64588449,2.13480055 C1.65956044,1.96031464 1.53115099,1.84634663 1.42772845,1.90746288 C1.41479042,1.91681679 1.40556066,1.92338572 1.39382017,1.93161448 C1.39355726,1.93179874 1.39355726,1.93179874 1.39329431,1.93198299 C1.37581066,1.94419297 1.36541291,1.95149164 1.35045427,1.96215009 C1.22409909,2.0522272 1.12421021,2.06263118 1.04305536,2.00494731 C0.974846341,1.95646517 0.920901723,1.86243468 0.870279918,1.71887947 C0.795603914,1.50740713 0.704578804,1.38538399 0.487211454,1.16175569 C0.478894196,1.15320036 0.478894196,1.15320036 0.470576079,1.14464182 C0.245316419,0.912799867 0.147814178,0.778153345 0.0712288245,0.543337145 C0.00223850172,0.332030266 0.1487192,0.187788875 0.287630993,0.245326297 C0.297412804,0.249369495 0.307246008,0.253972482 0.317190438,0.259153232 C0.363953022,0.283515141 0.412314697,0.319806869 0.476563425,0.376914293 C0.510851273,0.407391016 0.64809547,0.535848574 0.674529899,0.560009634 L0.682744244,0.551123597 C0.594302616,0.460734134 0.506909425,0.448047136 0.460433467,0.511603376 C0.414333707,0.574645163 0.42214057,0.695417321 0.487905505,0.828014181 C0.537668085,0.928213661 0.604145752,1.00913128 0.721385951,1.12419238 C0.733242526,1.13582858 0.817884769,1.21760415 0.842927427,1.24246333 C0.852675045,1.25213953 0.861925771,1.26143186 0.870863582,1.2705352 C0.935515103,1.23161896 1.00458792,1.20957604 1.0641392,1.2100793 C1.06116055,1.24089285 1.06926563,1.26973442 1.08443741,1.30650179 C1.08617956,1.31072373 1.0943794,1.33006797 1.09646911,1.33519642 L1.10152834,1.3267461 C1.05633217,1.33032619 1.00588687,1.34601952 0.968485209,1.36982916 C1.03670289,1.46497329 1.09403776,1.4972878 1.21499397,1.51980325 L1.22053143,1.5097177 C1.14743228,1.42580539 1.07682378,1.28850641 1.07015074,1.20347407 C1.05542129,1.01565516 1.17340624,0.837791681 1.23126111,0.881635575 C1.2320334,0.882204202 1.26564632,0.908026082 1.27716413,0.916020629 C1.29848693,0.930820845 1.31956388,0.942491669 1.34405626,0.952198287 L1.34833567,0.940775466 C1.27345764,0.911785541 1.19868244,0.997620503 1.18932266,1.12174385 C1.17829972,1.26792303 1.25407697,1.42585231 1.41969661,1.55128799 C1.42566179,1.55582459 1.43056731,1.55937728 1.44146679,1.56714109 C1.44154549,1.56719714 1.44154549,1.56719714 1.44162417,1.56725319 C1.4827749,1.59656524 1.49914145,1.61135077 1.51277142,1.63643818 C1.83981909,1.42388026 2.17651709,1.29144907 2.61579887,1.2466487 C3.07686446,1.19963753 3.52966754,0.987592043 3.71713624,0.710809596 L3.71713624,0.710809596 Z" id="Shape" fill="#000000"></path>
                            <path d="M4.94656966,4.31958682 C4.73366572,4.12144371 4.64096667,3.75210229 4.71981886,3.42467961 C4.55977119,3.22803386 4.16695833,3.14973932 3.86231472,3.23008986 C3.57176226,3.4396228 3.33161782,3.70667668 3.10390856,4.04733209 C2.97610324,4.23853019 2.58314316,4.93072775 2.49510219,5.05275409 C2.48101809,5.0722749 2.46718194,5.09060792 2.45351642,5.10782804 C2.31248024,5.28551077 2.30908909,5.63868813 2.51732337,5.80726626 C2.52664855,5.81481137 2.53567173,5.82243683 2.54449104,5.83021364 C2.57149887,5.85402896 2.59604817,5.87866916 2.62501977,5.91040275 C2.63698798,5.92351194 2.7014917,5.99646024 2.72295314,6.01985695 C2.76708786,6.06797147 2.81110015,6.11237121 2.86375701,6.1608142 C2.99946454,6.28566169 3.18294875,6.42760208 3.44296676,6.60355918 C3.57517181,6.69301908 3.99063698,6.96025501 3.98845506,6.95882145 C4.17109211,7.07881663 4.27455545,7.1569762 4.33121967,7.22273462 C4.51436595,7.43511451 4.58074512,7.557467 4.55850947,7.71759889 C4.54303251,7.82924262 4.54516378,7.92033025 4.56002639,8.08880397 C4.57522633,8.26110153 4.5768599,8.32044184 4.56144691,8.39606093 C4.55787734,8.4135146 4.5106788,8.63226914 4.5011994,8.68521039 C4.48483317,8.77661372 4.48023426,8.84224626 4.48816788,8.90027195 C4.51047236,9.06248819 4.71840016,9.12375983 4.86959868,8.94927953 C5.03487332,8.75859207 5.09708287,8.60931579 5.18640086,8.2725664 C5.26838828,7.96345493 5.32457706,7.82502594 5.46590752,7.6537051 C5.67815393,7.39639101 5.69180189,7.22251424 5.42792737,7.08786072 C4.95321529,6.84585185 4.66147744,6.61224783 4.36823421,6.13623851 C4.11613416,5.72684815 3.73737057,5.41593808 3.40788336,5.36740194 L3.40997252,5.37878085 C3.47204078,5.34292548 3.52711425,5.30281418 3.60326305,5.24065269 C3.61892251,5.22786961 3.67567288,5.1809552 3.67308424,5.18308754 C3.70154926,5.15964006 3.72358242,5.14183317 3.74582107,5.12445411 C3.83554213,5.05433889 3.91767741,5.00065275 4.01399348,4.95277907 C4.34180895,4.78983916 4.65238906,4.58739165 4.94644417,4.32874691 L4.94656966,4.31958682 Z M4.93864321,4.31947327 C4.64541537,4.57739036 4.33569725,4.77927599 4.0087638,4.9417775 C3.91166276,4.99004135 3.82887101,5.04415657 3.73855721,5.11473501 C3.7162241,5.13218789 3.69411742,5.1500542 3.66557977,5.1735615 C3.66814206,5.17145087 3.61142523,5.21833755 3.59579975,5.23109288 C3.52010558,5.29288326 3.46549531,5.33265721 3.40408851,5.36813046 L3.40617766,5.37950937 C3.73167881,5.42745833 4.107711,5.73612631 4.35811195,6.14275747 C4.65271313,6.6209711 4.94609064,6.85588806 5.42258787,7.098807 C5.67766786,7.22897273 5.66473955,7.39368119 5.45676356,7.64581809 C5.31400449,7.81887068 5.25726872,7.95864727 5.17485541,8.26936441 C5.08598529,8.60442522 5.02437613,8.75226084 4.8606458,8.94116652 C4.71615748,9.10790337 4.52088511,9.050361 4.50001456,8.89857351 C4.49229359,8.84210312 4.49681039,8.77764242 4.51296634,8.68741346 C4.52239982,8.6347287 4.56954674,8.41621341 4.57315698,8.39856087 C4.58890831,8.32128182 4.58725804,8.26133481 4.57194056,8.08770495 C4.55715613,7.92011731 4.55504208,7.82976613 4.57035342,7.71931714 C4.5932581,7.55436722 4.52558445,7.42962871 4.34019355,7.21464593 C4.28253477,7.14773332 4.17851913,7.06915652 3.9949215,6.94853023 C3.99700045,6.94989613 3.58163569,6.68272479 3.44956849,6.59335817 C3.19001283,6.41771395 3.00698969,6.27613023 2.87175796,6.15172046 C2.81936393,6.10351928 2.77559061,6.05936061 2.73167819,6.01148843 C2.71031349,5.98819719 2.6458224,5.91526317 2.63376407,5.90205527 C2.60451977,5.87002299 2.57967429,5.8450855 2.55230327,5.82094992 C2.54335693,5.8130611 2.53420395,5.80532596 2.52474749,5.79767462 C2.32230443,5.63378483 2.32562109,5.28836582 2.46280495,5.11553639 C2.47659036,5.0981652 2.49053837,5.07968396 2.50472845,5.06001625 C2.59325349,4.93731899 2.98636109,4.24486157 3.1137845,4.05423482 C3.34075051,3.71469131 3.57995979,3.44867739 3.86726117,3.24100662 C4.16590742,3.16264928 4.55402044,3.24000706 4.70945185,3.42717602 C4.62834653,3.75334883 4.72220764,4.12732027 4.93851771,4.32863336 L4.93864321,4.31947327 Z M4.54803429,7.92949292 C4.5581315,8.0723398 4.74565216,8.11206185 5.03619642,8.02485331 L5.03558866,8.01296845 L4.55507687,7.92303572 L4.54803429,7.92949292 Z M4.55292313,7.93506825 L5.03343492,8.02500097 L5.03282716,8.0131161 C4.74858622,8.09843266 4.56928495,8.06045171 4.55996571,7.92861106 L4.55292313,7.93506825 Z M4.55886145,8.09963078 C4.57287218,8.24567178 4.67293404,8.29522322 4.96849511,8.27011968 L4.9702223,8.25834608 L4.56703645,8.09335525 L4.55886145,8.09963078 L4.55886145,8.09963078 Z M4.57076685,8.0984365 L4.56259185,8.10471202 L4.9657777,8.26970285 L4.96750489,8.25792925 C4.67761497,8.2825511 4.58398186,8.23618323 4.57076685,8.0984365 L4.57076685,8.0984365 Z M4.5673941,8.35566407 C4.5546128,8.46295214 4.68271678,8.52198813 4.84225536,8.49808831 L4.84404103,8.48655489 L4.57598417,8.35092186 L4.5673941,8.35566407 L4.5673941,8.35566407 Z M4.57926887,8.35714327 L4.5706788,8.36188548 L4.83873567,8.4975185 L4.84052134,8.48598509 C4.68759221,8.50889477 4.56776898,8.45367492 4.57926887,8.35714327 L4.57926887,8.35714327 Z" id="Shape" fill="#000000"></path>
                            <path d="M4.69771372,3.84021769 C4.57057016,3.94987498 4.49759416,3.99547244 4.32202812,4.08800973 C4.30847868,4.09515137 4.29829906,4.10055117 4.28833939,4.10589552 C4.11525193,4.19877412 3.99801345,4.29024069 3.82738047,4.48591106 C3.61645326,4.72786657 3.29841991,5.00557455 3.11880775,5.11375138 L3.17168183,5.17628323 C3.35956614,5.06829604 3.67855333,4.78978107 3.8903794,4.5468965 C4.0599437,4.35245578 4.17602103,4.26187284 4.34774931,4.16968955 C4.35770596,4.16434484 4.36789057,4.15894072 4.38145205,4.15179077 C4.5451162,4.06550293 4.61122708,4.02513658 4.72474855,3.93166285 C4.72115256,3.90827964 4.71172029,3.86719298 4.70745,3.84377197 L4.69771372,3.84021769 L4.69771372,3.84021769 Z M4.70542637,3.84956824 L4.69569009,3.84601396 C4.70005562,3.86995732 4.70959964,3.91153075 4.71533128,3.92885874 C4.60450617,4.01496535 4.5389707,4.05498037 4.37597,4.14091842 C4.36238465,4.14808095 4.35217636,4.15349765 4.34218909,4.15885879 C4.16922666,4.25170457 4.05200286,4.34318217 3.88145125,4.53875505 C3.67040578,4.78074457 3.35235241,5.05844421 3.17278278,5.16659542 L3.12597975,5.11460362 C3.30563411,5.0154261 3.62460199,4.73690208 3.83630949,4.49405151 C4.0059538,4.29951487 4.12204522,4.20894322 4.29389801,4.11672714 C4.30382722,4.11139914 4.31398328,4.10601183 4.32750897,4.09888271 C4.50380778,4.00595919 4.57744306,3.95994979 4.70542637,3.84956824 L4.70542637,3.84956824 Z" id="Shape" fill="#000000"></path>
                            <path d="M4.86610457,4.2397141 C4.81228675,4.27079215 4.7616181,4.30562225 4.72195629,4.3393721 C4.70426358,4.31200717 4.68415521,4.27044549 4.66306422,4.2082065 C4.65741883,4.19154708 4.63761766,4.12863843 4.63295336,4.114985 C4.62172491,4.08211682 4.61232731,4.06143764 4.60161187,4.04856092 C4.58793446,4.03212481 4.57174455,4.02913439 4.55399682,4.04141815 C4.53508495,4.05414873 4.47281228,4.08907219 4.41158234,4.12210105 L4.41715917,4.13292288 C4.42952131,4.12626873 4.44294815,4.13806248 4.45829014,4.16991789 C4.4709386,4.19618056 4.48177846,4.22777123 4.5011759,4.29108418 C4.5145375,4.33469626 4.51480716,4.33556963 4.51970583,4.35073942 C4.54028659,4.41447216 4.55543708,4.44722855 4.57308752,4.45691239 L4.57193621,4.44695658 C4.51371253,4.50000839 4.44715108,4.54722524 4.36572285,4.59560587 C4.31325225,4.62678131 4.14059445,4.71974714 4.11553666,4.73421719 C4.04948126,4.77236203 4.00361637,4.80465546 3.96956204,4.83910127 C3.95807582,4.81893774 3.94020031,4.79030152 3.91693685,4.7447527 C3.91411832,4.73923414 3.89360505,4.69816308 3.88781338,4.68709103 C3.87700428,4.66642706 3.86828914,4.65182451 3.85977837,4.64080801 C3.83923535,4.61421674 3.81860229,4.60902583 3.79825812,4.63056441 C3.78330658,4.64734223 3.75676913,4.6744184 3.71224973,4.71879059 C3.7111994,4.71983738 3.7111994,4.71983738 3.71014891,4.72088407 C3.72122797,4.7098458 3.66150225,4.76926931 3.64917394,4.78164082 L3.6574812,4.79044209 C3.67213586,4.77621781 3.6841616,4.78318749 3.70234,4.81351754 C3.70553503,4.81884834 3.70886941,4.82481492 3.71303152,4.83256972 C3.71507161,4.8363708 3.71848938,4.84282951 3.72411042,4.85342175 C3.74703482,4.89630386 3.76252052,4.91730199 3.78339434,4.92629675 L3.78186741,4.91597953 C3.64121141,5.03693222 3.43524306,5.19525017 3.33947349,5.25100285 L3.40182052,5.3764599 C3.47204078,5.34292548 3.52711425,5.30281418 3.60326305,5.24065269 C3.61892251,5.22786961 3.67567288,5.1809552 3.67308424,5.18308754 C3.70154926,5.15964006 3.72358242,5.14183317 3.74582107,5.12445411 C3.83554213,5.05433889 3.91767741,5.00065275 4.01399348,4.95277907 C4.34180895,4.78983916 4.65238906,4.58739165 4.94644417,4.32874691 C4.92761872,4.3010595 4.89603146,4.26684774 4.87351397,4.24097377 L4.86610457,4.2397141 Z M4.86457757,4.24910574 C4.8872908,4.27520464 4.91908173,4.30963699 4.93841059,4.32853119 C4.64541537,4.57739036 4.33569725,4.77927599 4.0087638,4.9417775 C3.91166276,4.99004135 3.82887101,5.04415657 3.73855721,5.11473501 C3.7162241,5.13218789 3.69411742,5.1500542 3.66557977,5.1735615 C3.66814206,5.17145087 3.61142523,5.21833755 3.59579975,5.23109288 C3.52010558,5.29288326 3.46549531,5.33265721 3.40408851,5.36813046 L3.34764272,5.2533138 C3.44195336,5.20541961 3.64839369,5.04673888 3.78956671,4.92534158 L3.78803978,4.91502435 C3.77066641,4.90753797 3.7561534,4.88785877 3.73460701,4.84755434 C3.72902016,4.83702635 3.72558004,4.83052541 3.72351851,4.82668439 C3.71927238,4.81877304 3.71585133,4.81265138 3.71253942,4.80712556 C3.69095341,4.77111005 3.67158626,4.75988554 3.64924557,4.78157014 L3.65755282,4.79037141 C3.66985971,4.77802139 3.72955371,4.71862944 3.71849705,4.72964538 C3.71954833,4.72859791 3.71954833,4.72859791 3.7205995,4.72755029 C3.76531568,4.68298196 3.79192378,4.65583371 3.80698182,4.63893249 C3.82129205,4.62378585 3.83381745,4.62693701 3.85039146,4.64839072 C3.85836316,4.65870944 3.8667633,4.67278419 3.87726501,4.69286053 C3.88299216,4.70380924 3.9034671,4.74480354 3.90633329,4.75041542 C3.93013822,4.79702441 3.94852724,4.82648327 3.96955826,4.84779398 C4.01111707,4.81427445 4.0562096,4.78252485 4.12141906,4.74486851 C4.14624682,4.73053129 4.31899266,4.63751806 4.37173275,4.6061825 C4.45380314,4.55742033 4.52099839,4.50975387 4.57989458,4.4560893 L4.57874327,4.44613348 C4.5651671,4.43868497 4.5503775,4.40670885 4.53106511,4.34690388 C4.52619527,4.33182337 4.52592515,4.3309485 4.51259136,4.28742721 C4.49299632,4.22346929 4.48204542,4.19155503 4.46902187,4.16451352 C4.45100028,4.12709431 4.43249827,4.11084268 4.41158702,4.12209853 L4.41716385,4.13292035 C4.4788465,4.09964729 4.54119028,4.06468395 4.56063845,4.05159174 C4.5732053,4.04289443 4.58263918,4.04463695 4.59250131,4.05648824 C4.60196447,4.06786011 4.61090066,4.08752395 4.62166004,4.11901907 C4.62626097,4.13248702 4.64605601,4.19537617 4.65176104,4.21221158 C4.67337209,4.27598528 4.69409879,4.31882497 4.72144406,4.34828403 C4.76867596,4.31553034 4.81875854,4.28110311 4.87198697,4.25036541 L4.86457757,4.24910574 Z M3.17080271,6.41615343 C3.22923519,6.4607975 3.31723259,6.4082508 3.42758739,6.27916922 C3.51586049,6.17591652 3.61559021,6.02640839 3.71038902,5.86154657 L3.70096525,5.85416125 L3.17011505,6.40696859 L3.17080271,6.41615343 Z M3.17865056,6.41553906 L3.70950076,5.86273172 L3.70007699,5.8553464 C3.60562351,6.01960766 3.50627879,6.16853862 3.41858112,6.27111824 C3.31224249,6.39550214 3.22889823,6.44527026 3.17796289,6.40635422 L3.17865056,6.41553906 Z M3.77632764,5.81845022 C3.82562363,5.85565137 3.8723941,5.89450202 3.9163637,5.93501471 L3.92414357,5.92572763 L3.78365536,5.80878574 L3.77632764,5.81845022 L3.77632764,5.81845022 Z M3.78343103,5.80860789 L3.7761033,5.81827237 L3.91659152,5.93521426 L3.92437139,5.92592719 C3.88010521,5.88514123 3.83303308,5.84604 3.78343103,5.80860789 L3.78343103,5.80860789 Z M4.46780223,6.60448007 C4.50214376,6.64154191 4.53533081,6.67560729 4.56809413,6.70734343 L4.57732603,6.69795806 L4.47728272,6.59534886 L4.46780223,6.60448007 L4.46780223,6.60448007 Z M4.47740942,6.59546123 L4.46790736,6.6046132 L4.56817827,6.70745579 L4.57743117,6.69804908 C4.54477062,6.6664125 4.51167301,6.63243894 4.47740942,6.59546123 L4.47740942,6.59546123 Z" id="Shape" fill="#000000"></path>
                            <path d="M3.1785816,5.64093353 C3.50271616,5.66820739 3.90580268,5.96108749 4.17428357,6.34328685 C4.43298175,6.71153818 4.71492325,6.94461711 5.05786282,7.12033054 C5.03969297,7.13859744 5.03511456,7.1618113 5.03074371,7.21495247 C5.03068833,7.21562582 5.03068833,7.21562582 5.03063294,7.21629886 C5.02964335,7.22832005 5.02907592,7.23459583 5.02828231,7.24167669 C5.005293,7.44700239 4.91184949,7.58935869 4.78636137,7.65080162 C4.68270735,7.70155389 4.58181806,7.68020159 4.57052574,7.60953358 L4.55871221,7.61145772 C4.56416605,7.64739762 4.56341178,7.67417694 4.55822616,7.7178358 C4.55664836,7.73092271 4.55594727,7.73696729 4.55532053,7.74350077 C4.54538933,7.83178741 4.76865278,7.84830965 4.92708593,7.73660719 C4.9982029,7.68643583 5.08042275,7.55326207 5.11588692,7.44413054 L5.10457778,7.44425832 C5.14495022,7.55989041 5.14618807,7.62391015 5.10929089,7.7258277 C5.08069185,7.70242275 5.0436609,7.66702311 5.01886051,7.63024084 L5.00918763,7.62999363 C5.00657403,7.63348314 4.99123326,7.65459583 4.98642084,7.66094129 C4.97698513,7.67338282 4.9683185,7.68371059 4.9587429,7.69359009 C4.94712731,7.70557432 4.93454317,7.71645023 4.92028611,7.72654317 C4.94899827,7.78976256 5.00403752,7.84160235 5.06837089,7.87339668 C5.0543277,7.9080991 5.05184524,7.91855156 5.02809203,8.02053714 C4.98072454,8.22391181 4.94864047,8.32075391 4.8833668,8.42313061 C4.80623075,8.54417016 4.71170359,8.60884754 4.64062152,8.60020183 C4.57221046,8.591881 4.54238295,8.51609682 4.57308002,8.39889113 L4.56144774,8.39605687 C4.55787734,8.4135146 4.5106788,8.63226914 4.5011994,8.68521039 C4.48483317,8.77661372 4.48023426,8.84224626 4.48816788,8.90027195 C4.51047236,9.06248819 4.71840016,9.12375983 4.86959868,8.94927953 C5.03487332,8.75859207 5.09708287,8.60931579 5.18640086,8.2725664 C5.26838828,7.96345493 5.32457706,7.82502594 5.46590752,7.6537051 C5.56363389,7.53522784 5.6172983,7.43861516 5.62453161,7.3507762 C5.63329184,7.24439492 5.57142514,7.15668296 5.42779652,7.08779597 C5.41054014,7.07956697 5.40771269,7.07819222 5.38052413,7.06489437 C5.3803024,7.06478593 5.3803024,7.06478593 5.38008065,7.06467748 C5.36663538,7.05810261 5.35686227,7.0533925 5.34325962,7.04697273 C5.24960512,6.99176681 5.27959703,6.83334094 5.42629354,6.76202526 L5.42296335,6.75043516 C5.29046011,6.76783917 5.23910764,6.80334851 5.18779471,6.89414549 C5.1818929,6.9045886 5.16101209,6.94321256 5.15878237,6.94726255 C5.16837896,6.96026671 5.16888929,6.96621893 5.16283656,6.97647885 C5.15722822,6.98598546 5.14738817,6.9966292 5.12957309,7.01343306 C5.12686004,7.01598641 5.12686004,7.01598641 5.12412784,7.01854322 C5.08795265,7.052375 5.078338,7.06314149 5.07744584,7.07728207 L5.0862359,7.07228272 C4.8953254,6.96785882 4.72765237,6.8476145 4.5675233,6.69024468 C4.65876768,6.631266 4.6950439,6.57189524 4.65000412,6.51617671 C4.62126521,6.48416943 4.59381934,6.45194304 4.56655837,6.41812789 L4.55732989,6.42591128 C4.59524202,6.47288824 4.55961464,6.52689857 4.46865318,6.59469031 C4.39486352,6.50566973 4.31647419,6.40580789 4.24147948,6.29503847 C4.1510649,6.16136132 4.04218414,6.03443813 3.92437059,5.92592645 C4.02246598,5.8310138 4.06556066,5.75024034 4.01113507,5.70091515 C3.95415092,5.64795154 3.89924235,5.60215681 3.84524583,5.56319827 L3.83840732,5.57323459 C3.87773021,5.60089843 3.88505834,5.63662302 3.86690933,5.68147201 C3.85650566,5.70718107 3.83852196,5.73431857 3.81250582,5.76612198 C3.8026749,5.77813978 3.79295987,5.78938141 3.77539965,5.8094763 C3.60165206,5.67122297 3.41600653,5.58644418 3.2495276,5.56944921 L3.17525169,5.63013193 L3.1785816,5.64093353 L3.1785816,5.64093353 Z M3.17956265,5.62874232 L3.18289255,5.63954391 L3.25275386,5.58024116 C3.41242642,5.59837193 3.59614149,5.68226914 3.77632419,5.81844762 C3.80188937,5.79752262 3.81172903,5.78613677 3.82168147,5.77397041 C3.84841133,5.74129452 3.86699589,5.71325031 3.8779629,5.68614915 C3.89813332,5.63630499 3.88952712,5.59434985 3.84518769,5.56315685 L3.83834918,5.57319317 C3.89191446,5.61184058 3.94644834,5.6573228 4.00314477,5.71001835 C4.04925399,5.75180717 4.00849038,5.82821145 3.91606196,5.92622547 C4.03348463,6.04288847 4.14175135,6.16909586 4.23164239,6.30199896 C4.30696273,6.41324935 4.3857114,6.51356895 4.46779679,6.60379886 C4.57202998,6.53278229 4.61118476,6.47342448 4.56655638,6.41812542 L4.55732789,6.42590881 C4.5847254,6.45989333 4.61231144,6.4922843 4.64098879,6.52421074 C4.67931649,6.57163885 4.64659267,6.62519564 4.55986021,6.68970834 C4.72020703,6.85726346 4.88876806,6.97814459 5.08059351,7.08306896 L5.08938357,7.07806962 C5.08995928,7.06894482 5.10008781,7.0576029 5.13220126,7.02756973 C5.13494516,7.02500198 5.13494516,7.02500198 5.13768397,7.02242438 C5.15634142,7.00482597 5.16668383,6.99363885 5.17307965,6.98279737 C5.18217928,6.9673727 5.18102544,6.95391488 5.16715935,6.94507316 C5.17148557,6.94912388 5.19231828,6.9105889 5.19815217,6.90026597 C5.24761446,6.81274365 5.29571695,6.77948162 5.42448742,6.7625679 L5.42115723,6.75097779 C5.26658278,6.82612329 5.23426304,6.99684541 5.33776711,7.05782552 C5.35179481,7.06447334 5.36152019,7.06916044 5.37491968,7.07571293 C5.37514105,7.07582119 5.37514105,7.07582119 5.37536242,7.07592946 C5.40258737,7.0892451 5.40543625,7.09063027 5.42272862,7.09887642 C5.56217431,7.16575721 5.62090575,7.24902414 5.61261125,7.3497498 C5.60564196,7.4343824 5.55301234,7.52913217 5.45676356,7.64581809 C5.31400449,7.81887068 5.25726872,7.95864727 5.17485541,8.26936441 C5.08598529,8.60442522 5.02437613,8.75226084 4.8606458,8.94116652 C4.71615748,9.10790337 4.52088511,9.050361 4.50001456,8.89857351 C4.49229359,8.84210312 4.49681039,8.77764242 4.51296634,8.68741346 C4.52239982,8.6347287 4.56954674,8.41621341 4.57315698,8.39856087 L4.5615247,8.39572661 C4.52917626,8.51923744 4.56213371,8.60297401 4.63920858,8.61234862 C4.71565761,8.62164712 4.81402803,8.55434009 4.89338842,8.42981017 C4.95964234,8.32589605 4.99205513,8.22806171 5.0397291,8.02337117 C5.06345071,7.92152126 5.06592755,7.91109245 5.07675403,7.86946174 C5.01140308,7.83165632 4.95819416,7.78154047 4.92889723,7.72856134 C4.94197078,7.72606984 4.9551168,7.71470832 4.96723941,7.70220098 C4.97719168,7.69193286 4.98616277,7.68124227 4.99587387,7.66843761 C5.00078078,7.66196757 5.01615071,7.64081474 5.01868477,7.63743145 L5.00901188,7.63718424 C5.03485097,7.67550704 5.07328894,7.71225172 5.11209187,7.73335124 C5.15842213,7.62535171 5.15712734,7.55838681 5.11584385,7.44014535 L5.10453472,7.44027313 C5.06981706,7.54710748 4.98893656,7.67811187 4.92029408,7.72653753 C4.76863482,7.83346409 4.55898722,7.81794947 4.56721533,7.74479671 C4.56783884,7.73830582 4.56852397,7.73239881 4.57010145,7.71931066 C4.57540811,7.67463263 4.57619034,7.64686101 4.57053329,7.60958203 L4.55871975,7.61150618 C4.57162998,7.69229916 4.68172149,7.71559903 4.79152767,7.66183446 C4.92084794,7.59851519 5.0167233,7.45245409 5.04016714,7.24306879 C5.04097844,7.23583014 5.04155404,7.22946392 5.04255334,7.21732493 C5.04260879,7.21665114 5.04260879,7.21665114 5.04266418,7.21597766 C5.04688438,7.16466806 5.05120946,7.14273865 5.06567575,7.11800139 C4.72192881,6.93452446 4.44149826,6.70269463 4.18399927,6.33615032 C3.9136596,5.95130487 3.50772457,5.65635505 3.17956265,5.62874232 L3.17956265,5.62874232 Z" id="Shape" fill="#000000"></path>
                            <path d="M5.44198075,6.6127935 L5.58199046,6.54497699 L5.57358513,6.53815059 L5.54095129,6.69169188 L5.68276404,6.76709525 L5.68267022,6.75613267 L5.54495732,6.82737426 L5.57666794,6.98668811 L5.58495876,6.97972462 L5.44456625,6.91474603 L5.34107464,7.03860575 L5.35154049,7.0409973 L5.31527004,6.8889239 L5.15589718,6.88327841 L5.16060886,6.8931129 L5.25382106,6.76863584 L5.15804521,6.63858051 L5.15349791,6.6485124 L5.30767128,6.64518518 L5.34782457,6.48817987 L5.33738789,6.490699 L5.43481091,6.61116383 L5.44198075,6.6127935 Z M5.44402959,6.60336828 L5.34660656,6.48290345 L5.33616988,6.48542258 L5.30171773,6.63769169 L5.1532455,6.63628271 L5.1486982,6.64621459 L5.24439862,6.76873447 L5.15111098,6.88567609 L5.15582265,6.89551058 L5.30942182,6.89648918 L5.33991859,7.04389567 L5.35038445,7.04628721 L5.44675476,6.92415877 L5.58002598,6.99086865 L5.5883168,6.98390516 L5.55348185,6.83144033 L5.68807042,6.76704776 L5.6879766,6.75608518 L5.5494024,6.68748579 L5.58527479,6.54074849 L5.57686946,6.53392209 L5.43685975,6.60173861 L5.44402959,6.60336828 Z" id="Shape" fill="#000000"></path>
                            <path d="M5.62114892,2.73572535 C5.55989664,3.02316759 5.29336586,3.29000527 4.97666883,3.38397317 C4.89010588,3.62394163 5.02015462,4.01078591 5.24059106,4.24061292 C5.35948755,4.29708392 5.48116736,4.34293724 5.60786789,4.38034656 C5.99789018,4.49550368 6.31695682,4.52056251 6.95042315,4.52208297 C7.27435963,4.52286049 7.40074217,4.52733009 7.53527489,4.54925709 C7.75630621,4.58524461 8.05712165,4.41166875 8.09576086,4.14307975 C8.10190749,4.10031672 8.11063313,4.06111853 8.12343608,4.01614002 C8.13138998,3.98819691 8.16651774,3.87635669 8.16318074,3.88720472 C8.18113708,3.82883173 8.19523074,3.77773465 8.20894895,3.71875015 C8.25351891,3.52711156 8.28611612,3.27991444 8.30731134,2.92519257 C8.31546798,2.78856613 8.3176772,2.73446169 8.32827994,2.44295819 C8.34149709,2.07957594 8.35378732,1.93154719 8.38758899,1.82898694 C8.47611212,1.56039213 8.54641244,1.44064829 8.69307462,1.38030407 C8.7787101,1.34505058 8.85543418,1.29996411 8.95062989,1.23328095 C8.97407238,1.21685984 9.05229699,1.16050155 9.06646814,1.15049974 C9.10984161,1.11988732 9.14325626,1.09805428 9.17560611,1.07983738 C9.20743005,1.06191664 9.23717899,1.04822452 9.26633822,1.03842189 C9.29703762,1.02809392 9.48046018,0.968804629 9.52511246,0.952964555 C9.6203127,0.919192959 9.68195725,0.889399502 9.72980923,0.851206711 C9.85609627,0.750511419 9.80403127,0.535609979 9.58071262,0.488979929 C9.33810436,0.43825699 9.17806999,0.457728494 8.85479117,0.545220094 C8.84372937,0.548214216 8.84372937,0.548214216 8.83267297,0.551202866 C8.54760321,0.628198625 8.39669703,0.647355637 8.18525832,0.608634016 C7.8611248,0.549326637 7.70711768,0.624137568 7.72509225,0.925241155 C7.7574342,1.46686584 7.70547976,1.84179978 7.44891017,2.3394105 C7.22826707,2.76737912 7.15434618,3.25824484 7.27791763,3.57433149 L7.28651113,3.56679357 C7.21853054,3.52577692 7.15578319,3.49730111 7.04305127,3.45282263 C6.82357246,3.36622706 6.74890758,3.33147659 6.62381053,3.24494021 C6.32229597,3.03632868 5.99529935,2.86244583 5.6289701,2.73125509 L5.62114892,2.73572535 Z M5.62501603,2.74279996 C5.99031619,2.87362215 6.31640529,3.04702242 6.61710723,3.25507173 C6.74319309,3.34229211 6.8184396,3.37731328 7.038745,3.46423499 C7.15090472,3.50848771 7.21316384,3.53674195 7.28043201,3.57732875 L7.2890255,3.56979083 C7.16694826,3.25752627 7.24033625,2.77019927 7.45949214,2.3451153 C7.71724967,1.8452006 7.76949622,1.46815857 7.73703257,0.924495741 C7.71965688,0.633424406 7.86553793,0.562560818 8.18315035,0.620675018 C8.39672958,0.65978864 8.54910376,0.64044527 8.83572794,0.563029673 C8.84678984,0.560039533 8.84678984,0.560039533 8.85785189,0.557045347 C9.17948253,0.469999805 9.33797645,0.450715729 9.5783178,0.500964717 C9.79172031,0.545524227 9.84061575,0.747343158 9.72245101,0.84156212 C9.67586014,0.878748363 9.61525438,0.90803976 9.52119168,0.941407821 C9.47672704,0.957181332 9.29343895,1.01642716 9.26260091,1.02680177 C9.23268589,1.03685848 9.20227183,1.05085672 9.16983552,1.06912231 C9.13706999,1.08757328 9.10334861,1.10960674 9.05967287,1.14043249 C9.04543149,1.15048387 8.96723011,1.20682543 8.94386931,1.22318931 C8.84932931,1.28941317 8.77330057,1.33409102 8.68860813,1.36895629 C8.53753078,1.43111713 8.46586094,1.55319368 8.3762529,1.82508034 C8.34190994,1.92928294 8.32959998,2.07754938 8.31632565,2.44250355 C8.30572711,2.73389174 8.30351941,2.78795891 8.29537103,2.92444689 C8.27421516,3.27851037 8.24170788,3.52502555 8.19731098,3.71591998 C8.18366462,3.77459556 8.16964605,3.82542038 8.15176942,3.88353427 C8.1551567,3.87252281 8.11995813,3.98458843 8.11195018,4.01272143 C8.09900286,4.05820713 8.09015774,4.09794208 8.08392558,4.1413002 C8.04636122,4.40241767 7.75215185,4.57218171 7.53715688,4.537177 C7.40176476,4.51510993 7.27508383,4.51062978 6.95045123,4.50985059 C6.31806296,4.50833271 5.99980725,4.48333758 5.61118643,4.36859425 C5.48505129,4.33135186 5.36393547,4.28571107 5.2473648,4.23077559 C5.03161492,4.00526483 4.90312244,3.6230498 4.98396755,3.3919068 C5.30073336,3.30055621 5.57060409,3.03037474 5.63283721,2.7383297 L5.62501603,2.74279996 Z M8.87775095,1.28359508 C8.99372161,1.20322428 8.93359279,1.01727844 8.71439624,0.803597586 L8.70463546,0.810079291 L8.86876167,1.28058694 L8.87775095,1.28359508 Z M8.8800289,1.27647728 L8.71590268,0.805969639 L8.7061419,0.812451343 C8.92058306,1.02149646 8.97807575,1.1992902 8.87103962,1.27346914 L8.8800289,1.27647728 Z M9.01645494,1.18897045 C9.13306612,1.10346759 9.12501046,0.990073844 8.95606223,0.740930735 L8.94522665,0.745286525 L9.00704912,1.18487062 L9.01645494,1.18897045 L9.01645494,1.18897045 Z M9.00948404,1.17902955 L9.01888985,1.18312938 L8.95706739,0.74354528 L8.94623181,0.74790107 C9.11193906,0.992264795 9.11947756,1.09837896 9.00948404,1.17902955 L9.00948404,1.17902955 Z M9.23298291,1.05340492 C9.34421194,1.01097942 9.32815659,0.86808527 9.21376254,0.738667944 L9.20155941,0.742849977 L9.22346417,1.04817108 L9.23298291,1.05340492 L9.23298291,1.05340492 Z M9.22742368,1.04215471 L9.23694242,1.04738855 L9.21503766,0.742067454 L9.20283453,0.746249487 C9.31249455,0.870311069 9.32751316,1.00397812 9.22742368,1.04215471 L9.22742368,1.04215471 Z" id="Shape" fill="#000000"></path>
                            <path d="M5.33958322,3.19567322 C5.37108724,3.20730437 5.40093343,3.21920857 5.4294173,3.23145758 C5.5431539,3.2803681 5.59288762,3.30973786 5.74465257,3.40928324 C5.92959286,3.53058893 6.05793428,3.58762586 6.3216147,3.64361537 C6.63202226,3.70947071 7.02618916,3.85222327 7.20769943,3.95717718 L7.23415927,3.87902635 C7.04899471,3.76678377 6.65357974,3.62360955 6.3418481,3.55736342 C6.07972288,3.50171035 5.95269583,3.4452666 5.76896739,3.32476259 C5.61574807,3.22426894 5.56511193,3.1944056 5.44932109,3.14481877 C5.43445634,3.13845302 5.41922592,3.13218062 5.40358628,3.12599036 C5.38567044,3.14087798 5.35596461,3.16934567 5.33773007,3.18526954 L5.33958322,3.19567322 L5.33958322,3.19567322 Z M5.34364563,3.18416776 L5.34549878,3.19457144 C5.36414629,3.17828694 5.39421239,3.14947399 5.40593711,3.13571172 C5.41480656,3.14354823 5.42993603,3.14977905 5.44470008,3.15610168 C5.55965912,3.2053323 5.60985124,3.23493376 5.76250886,3.335059 C5.94740187,3.45632683 6.07576102,3.51336249 6.3394151,3.56934017 C6.6499993,3.63534246 7.04425827,3.7780981 7.22540271,3.8829012 L7.2048324,3.95040484 C7.03092408,3.84090845 6.6356002,3.69773688 6.32404589,3.63163824 C6.06189657,3.57597385 5.93488717,3.51952888 5.75111137,3.398987 C5.59878875,3.29907583 5.54861641,3.26944705 5.43405471,3.22018171 C5.40537969,3.2078505 5.37534179,3.19586984 5.34364563,3.18416776 L5.34364563,3.18416776 Z" id="Shape" fill="#000000"></path>
                            <path d="M5.59371612,2.84681126 C5.64688278,2.87883368 5.70173997,2.90630708 5.75018473,2.92468242 C5.74485392,2.92301295 5.74277804,2.92891961 5.74030841,2.93494221 C5.72584413,2.97021569 5.70035214,3.0059173 5.65793478,3.05484542 C5.65054053,3.06337463 5.61961174,3.09831251 5.61213785,3.10698108 C5.595751,3.12598734 5.58455935,3.14018716 5.57637167,3.15285779 C5.55522633,3.18558066 5.55508551,3.20911304 5.58188792,3.22243079 C5.60203381,3.23277161 5.66126413,3.26953645 5.72132972,3.30812686 L5.72770487,3.29777626 C5.71615958,3.29032286 5.71903784,3.27317387 5.73729491,3.24472275 C5.75256091,3.22093281 5.77425246,3.19487346 5.81555433,3.14887001 C5.81823095,3.14588992 5.81823095,3.14588992 5.82091067,3.14291 C5.9028556,3.05180248 5.92493837,3.02336316 5.92418805,2.99764028 L5.91633114,3.00362944 C6.01182027,3.035926 6.10125734,3.0827426 6.21761213,3.15607494 C6.2190004,3.15694989 6.35689338,3.24576236 6.39346689,3.26765014 C6.45593421,3.30503433 6.50480819,3.32856992 6.54968751,3.3411405 C6.54055741,3.35288427 6.53114967,3.37428564 6.51715731,3.39943906 C6.50992858,3.41243381 6.50187792,3.42578326 6.49089625,3.44324413 C6.44399557,3.51781631 6.4446544,3.51671845 6.43650636,3.5377991 C6.4244097,3.56909562 6.4303962,3.58985658 6.45871351,3.59707816 C6.48053849,3.60194827 6.51689748,3.61194817 6.57755722,3.62940845 C6.57988522,3.63007867 6.57988522,3.63007867 6.58221251,3.63074918 C6.60329888,3.63683471 6.60329888,3.63683471 6.62367606,3.64272224 C6.64340532,3.64841076 6.65100465,3.65059229 6.66125443,3.6535019 L6.66454896,3.64174296 C6.65020382,3.6374095 6.64686553,3.62926069 6.65156293,3.61359835 C6.65549847,3.60047625 6.65992696,3.5924242 6.68244846,3.55482711 C6.68728073,3.54676019 6.69075804,3.54082125 6.69404662,3.53494766 C6.71125246,3.50421699 6.71905146,3.4819625 6.71663895,3.4623793 L6.70866736,3.46889424 C6.88097042,3.53272067 7.11835649,3.6361009 7.21355445,3.69310658 L7.28862109,3.57517251 C7.21853054,3.52577692 7.15578319,3.49730111 7.04305127,3.45282263 C6.82357246,3.36622706 6.74890758,3.33147659 6.62381053,3.24494021 C6.32229597,3.03632868 5.99529935,2.86244583 5.6289701,2.73125509 C5.61498475,2.76161211 5.60181936,2.80653488 5.59107535,2.83961346 L5.59371612,2.84681126 Z M5.60242812,2.84346911 C5.61326625,2.81010075 5.6265175,2.764885 5.63280464,2.7384741 C5.99031619,2.87362215 6.31640529,3.04702242 6.61710723,3.25507173 C6.74319309,3.34229211 6.8184396,3.37731328 7.038745,3.46423499 C7.15090472,3.50848771 7.21316384,3.53674195 7.28043201,3.57732875 L7.21142745,3.6847174 C7.12361432,3.62507384 6.88568115,3.52145535 6.71274179,3.45739322 L6.7047702,3.46390816 C6.70675713,3.48003676 6.69964721,3.50032493 6.68366511,3.52886993 C6.68044677,3.53461808 6.67702332,3.54046501 6.6722475,3.5484377 C6.64894841,3.58733289 6.64450462,3.59541277 6.64012614,3.61001176 C6.63361193,3.6317318 6.63988637,3.64704778 6.66115977,3.65347417 L6.66445431,3.64171523 C6.6542247,3.63881135 6.64664149,3.63663445 6.6269257,3.63094981 C6.60655368,3.62506378 6.60655368,3.62506378 6.5854572,3.61897533 C6.58312833,3.61830436 6.58312833,3.61830436 6.58079859,3.61763363 C6.51987068,3.60009617 6.48341772,3.59007043 6.46143543,3.58516799 C6.44151667,3.58008546 6.43788839,3.56750272 6.44763148,3.54229536 C6.45533116,3.52237472 6.45490735,3.52308096 6.5009577,3.4498608 C6.51204653,3.43222954 6.52019944,3.41871054 6.52755533,3.4054872 C6.54201784,3.37948862 6.55182023,3.35718948 6.55705316,3.33679369 C6.50917883,3.3171111 6.46115097,3.29398297 6.39950929,3.25709289 C6.36313449,3.23532403 6.22542736,3.14663126 6.22388875,3.14566156 C6.10681029,3.07187312 6.01663591,3.02467058 5.92008772,2.99201582 L5.91223081,2.99800498 C5.91282879,3.01850527 5.88931758,3.04878423 5.81210584,3.13462932 C5.80942334,3.13761233 5.80942334,3.13761233 5.80674217,3.14059748 C5.76498516,3.18710787 5.74304262,3.21346876 5.72729331,3.23801189 C5.70575144,3.27158189 5.70174035,3.29548039 5.72131871,3.30811976 L5.72769386,3.29776917 C5.66718357,3.25889306 5.60790433,3.22209785 5.58718531,3.21146342 C5.56854668,3.20220158 5.56863756,3.18701518 5.58635218,3.1596014 C5.59416489,3.14751106 5.6050612,3.13368596 5.62111104,3.11507059 C5.62851895,3.10647853 5.65943305,3.07155725 5.66688636,3.06295992 C5.71012235,3.01308752 5.7362279,2.9765266 5.75134038,2.9396724 C5.75397521,2.93324694 5.75619893,2.92691959 5.75800117,2.92068064 C5.70661177,2.89510813 5.6523793,2.8679476 5.59978735,2.83627131 L5.60242812,2.84346911 Z M8.28469506,3.25983154 C8.29333296,3.18579072 8.20484266,3.13417575 8.04031443,3.10102061 C7.90874852,3.07450792 7.73229529,3.06096201 7.54516454,3.05942527 L7.54362214,3.07146353 L8.27726153,3.26502928 L8.28469506,3.25983154 Z M8.28025026,3.25318479 L7.54661087,3.05961904 L7.54506847,3.0716573 C7.73151902,3.07318845 7.90729232,3.08668216 8.03800145,3.1130222 C8.19653735,3.14496979 8.28034496,3.19385342 8.27281673,3.25838253 L8.28025026,3.25318479 Z M7.47745484,3.02248764 C7.48538434,2.9600385 7.4962702,2.89924178 7.51031523,2.84026997 L7.49686184,2.83802396 L7.46389517,3.02082518 L7.47745484,3.02248764 L7.47745484,3.02248764 Z M7.46385713,3.02110869 L7.4774168,3.02277115 L7.51038346,2.83996993 L7.49693008,2.83772392 C7.4827905,2.89709274 7.47183508,2.95827792 7.46385713,3.02110869 L7.46385713,3.02110869 Z M7.79672102,2.01749868 C7.8121683,1.97246548 7.82544091,1.92994823 7.83679785,1.88887995 L7.82355804,1.8857724 L7.78358185,2.01406598 L7.79672102,2.01749868 L7.79672102,2.01749868 Z M7.78362526,2.01391417 L7.79676443,2.01734686 L7.83674062,1.88905329 L7.82350081,1.88594573 C7.81220683,1.92678631 7.79900145,1.96908822 7.78362526,2.01391417 L7.78362526,2.01391417 Z" id="Shape" fill="#000000"></path>
                            <path d="M7.62421353,3.64059138 C7.4852442,3.33992557 7.53178657,2.83648137 7.72129673,2.40760712 C7.90384617,1.99429611 7.96028023,1.62798009 7.93752551,1.23667671 C7.96155017,1.2436857 7.98407623,1.23607393 8.02912471,1.21444204 C8.03016096,1.21394435 8.03016096,1.21394435 8.03119644,1.21344689 C8.04300851,1.2077723 8.0484786,1.20519879 8.05517943,1.20223846 C8.24054416,1.11995712 8.40781698,1.13153219 8.52258182,1.21192049 C8.61738456,1.27832612 8.64971494,1.37831236 8.5954728,1.42361789 L8.60300299,1.43312256 C8.63438829,1.40733578 8.64285083,1.40298018 8.70851231,1.3738646 C8.71257688,1.37205233 8.71257688,1.37205233 8.71656848,1.37021802 C8.79626082,1.33469018 8.6987124,1.12885636 8.52488013,1.04440827 C8.44686615,1.00646813 8.29299702,1.00022663 8.18271329,1.02339114 L8.18847286,1.03334497 C8.26637032,0.939696814 8.31987028,0.906666253 8.42465009,0.888427022 C8.4191518,0.925520863 8.40767326,0.976041918 8.38886967,1.01627397 L8.39350489,1.02497776 C8.3997248,1.02576973 8.3997248,1.02576973 8.40606495,1.02651865 C8.46012418,1.03286406 8.48378949,1.03801128 8.51974944,1.05545847 C8.55893795,0.998319082 8.57532399,0.923711845 8.57009981,0.850831178 C8.59742758,0.848435712 8.62845035,0.83929605 8.67276787,0.825815454 C8.81316225,0.783110002 8.83720952,0.776140722 8.89670168,0.762746224 C8.98110546,0.743742943 9.05509227,0.735822023 9.12815737,0.739856545 C9.26925236,0.747649267 9.37131402,0.799021294 9.39955795,0.866290595 C9.42673763,0.931025125 9.377498,0.995314293 9.26292228,1.02670377 L9.26633946,1.03842147 C9.29703762,1.02809392 9.48046018,0.968804629 9.52511246,0.952964555 C9.6203127,0.919192959 9.68195725,0.889399502 9.72980923,0.851206711 C9.85609627,0.750511419 9.80403127,0.535609979 9.58071262,0.488979929 C9.33810436,0.43825699 9.17806999,0.457728494 8.85479117,0.545220094 C8.84372937,0.548214216 8.84372937,0.548214216 8.83267297,0.551202866 C8.54760321,0.628198625 8.39669703,0.647355637 8.18525832,0.608634016 C8.03604732,0.581332572 7.92739719,0.582119504 7.84939792,0.6196399 C7.75493336,0.665080682 7.711602,0.763735204 7.72510283,0.925388938 C7.72661453,0.943502562 7.72661033,0.943448079 7.7290873,0.976251182 C7.72918354,0.977524711 7.72918354,0.977524711 7.72928002,0.978796567 C7.73040082,0.993556237 7.7313443,1.0050093 7.73276272,1.02065037 C7.73273717,1.13122757 7.58365374,1.1838267 7.44994106,1.08952179 L7.44178586,1.09826122 C7.49108897,1.16448885 7.53368994,1.2014106 7.57911203,1.21934003 C7.61544739,1.23368266 7.64261419,1.23576674 7.71673785,1.23434173 C7.72840665,1.23411946 7.73361485,1.23403185 7.74050473,1.23395684 C7.74673966,1.21855438 7.75200322,1.21509412 7.76488047,1.21571844 C7.77644249,1.216279 7.7902301,1.21984939 7.81599428,1.2281572 C7.81775104,1.22872424 7.81775104,1.22872424 7.81950897,1.22929313 C7.86449852,1.24385698 7.8789512,1.24705782 7.89123212,1.24086091 L7.88260725,1.23557715 C7.88971132,1.45650509 7.87168652,1.66538672 7.81846749,1.88594771 C7.72265735,1.83470271 7.65456115,1.8322599 7.62976094,1.89994587 C7.61676904,1.94212209 7.60327737,1.98237657 7.58851253,2.02276352 L7.59971863,2.02704437 C7.62052215,1.97006357 7.68406436,1.97465694 7.78691925,2.02129753 C7.74845953,2.13118506 7.70308973,2.25058317 7.64679788,2.37233381 C7.5787951,2.51913385 7.52576297,2.67898368 7.49275561,2.83772493 C7.3635518,2.79825134 7.27334122,2.80048155 7.25875861,2.87339223 C7.24239278,2.95068523 7.23107941,3.02204107 7.22507137,3.08915499 L7.23699031,3.09019581 C7.24217749,3.02327719 7.29000824,3.00204332 7.37494406,3.01102902 C7.39394993,3.01303973 7.41348193,3.01635553 7.43835609,3.02144782 C7.44520743,3.02285045 7.46677291,3.02741009 7.46860849,3.02779173 C7.43838993,3.25076786 7.4593785,3.45753331 7.52817949,3.61362029 L7.61673748,3.64894377 L7.62421353,3.64059138 L7.62421353,3.64059138 Z M7.61339812,3.64581841 L7.62087417,3.63746601 L7.5357008,3.60536815 C7.47127072,3.45474437 7.45050021,3.25012703 7.47574347,3.02248728 C7.4691908,3.01543009 7.44760061,3.01086523 7.44070446,3.00945343 C7.41549248,3.00429197 7.39562516,3.00091925 7.37617513,2.99886155 C7.28545573,2.98926398 7.2309379,3.0134665 7.22506516,3.08922926 L7.23698411,3.09027008 C7.24294435,3.02369011 7.25418135,2.95281599 7.27046442,2.87591196 C7.28281984,2.81413886 7.36814362,2.81202946 7.49715872,2.84493138 C7.53726966,2.68246207 7.59000216,2.52351542 7.65761078,2.37756628 C7.7141485,2.25528383 7.75972674,2.13533718 7.79506245,2.01749945 C7.68283346,1.96071753 7.61300819,1.95566997 7.58851161,2.02276603 L7.59971771,2.02704687 C7.61455799,1.98645359 7.62811778,1.94599583 7.64106731,1.90392812 C7.66218705,1.84631201 7.72361679,1.84851568 7.82185248,1.89300512 C7.88358127,1.66715452 7.90170159,1.45716592 7.89456334,1.23517515 L7.88593847,1.22989138 C7.87803884,1.23387751 7.86305585,1.23055922 7.82311941,1.21763115 C7.82135734,1.21706091 7.82135734,1.21706091 7.81959194,1.21649108 C7.79278088,1.2078457 7.77842883,1.20412915 7.76544702,1.20349975 C7.7466357,1.20258773 7.73505215,1.21020276 7.73446334,1.2276298 C7.73344606,1.22180058 7.72820301,1.22188877 7.71651299,1.22211148 C7.64395478,1.22350639 7.61780256,1.22150014 7.58342,1.20792834 C7.54033012,1.19091951 7.49937519,1.15542436 7.45130429,1.09085193 L7.44314909,1.09959136 C7.58404246,1.19896067 7.74469972,1.1422781 7.74469972,1.02008563 C7.74326164,1.00394486 7.74232309,0.992551655 7.74120667,0.977849573 C7.74111042,0.976580665 7.74111042,0.976580665 7.74101435,0.975309473 C7.73853456,0.942469093 7.73853761,0.942508582 7.73702203,0.92434844 C7.72391318,0.76738814 7.7650486,0.673733227 7.85449008,0.630708724 C7.92964143,0.594558277 8.03619625,0.593786522 8.18315035,0.620675018 C8.39672958,0.65978864 8.54910376,0.64044527 8.83572794,0.563029673 C8.84678984,0.560039533 8.84678984,0.560039533 8.85785189,0.557045347 C9.17948253,0.469999805 9.33797645,0.450715729 9.5783178,0.500964717 C9.79172031,0.545524227 9.84061575,0.747343158 9.72245101,0.84156212 C9.67586014,0.878748363 9.61525438,0.90803976 9.52119168,0.941407821 C9.47672704,0.957181332 9.29343895,1.01642716 9.26260091,1.02680177 L9.26601808,1.03851947 C9.38676183,1.00544018 9.44117274,0.93439918 9.41055023,0.861464757 C9.38017485,0.789118927 9.27396581,0.735659347 9.12880248,0.727641929 C9.0545525,0.72354198 8.97951695,0.731575176 8.89412938,0.750799955 C8.83422915,0.764286327 8.81009875,0.771279701 8.66935707,0.814090796 C8.62513002,0.827543869 8.59419393,0.836657996 8.56257776,0.845372877 C8.56321826,0.922162077 8.54737646,0.994291326 8.51715773,1.04683212 C8.48740372,1.02622532 8.46271419,1.02085533 8.40742916,1.01436603 C8.40113195,1.01362213 8.40113195,1.01362213 8.3950277,1.01284487 L8.39966292,1.02154866 C8.41926132,0.979616061 8.43117861,0.927163891 8.42962387,0.882181523 C8.314978,0.89510947 8.25901267,0.929662141 8.17936071,1.02541956 L8.18512027,1.03537338 C8.29308369,1.01269624 8.44444492,1.01883601 8.51974452,1.05545608 C8.68615442,1.13629836 8.77776054,1.32959354 8.71170665,1.3590418 C8.70774312,1.36086286 8.70774312,1.36086286 8.7037531,1.36264192 C8.6370184,1.39223339 8.62805724,1.39684563 8.59551019,1.42358692 L8.60304038,1.43309159 C8.66505666,1.38129273 8.62977447,1.2721776 8.52934224,1.20182874 C8.41107251,1.1189854 8.23944655,1.1071091 8.05042549,1.19101345 C8.04358179,1.19403689 8.0380341,1.19664691 8.02610975,1.20237544 C8.02507437,1.20287285 8.02507437,1.20287285 8.02403987,1.2033697 C7.98059532,1.2242314 7.95934358,1.23141256 7.9316579,1.23092446 C7.94822936,1.62682474 7.89209787,1.9911768 7.71039494,2.40257121 C7.51957305,2.83441402 7.47270175,3.34141609 7.61339812,3.64581841 L7.61339812,3.64581841 Z" id="Shape" fill="#000000"></path>
                        </g>
                    </g>
                </g>
            </g>
        </g>
    </g>
</svg>