<?xml version="1.0" encoding="UTF-8"?>
<svg width="23px" height="16px" viewBox="0 0 23 16" version="1.1" xmlns="http://www.w3.org/2000/svg" xmlns:xlink="http://www.w3.org/1999/xlink">
    <!-- Generator: Sketch 39.1 (31720) - http://www.bohemiancoding.com/sketch -->
    <title>IQ</title>
    <desc>Created with Sketch.</desc>
    <defs>
        <rect id="path-1" x="0" y="0" width="23" height="16" rx="1.62"></rect>
        <mask id="mask-2" maskContentUnits="userSpaceOnUse" maskUnits="objectBoundingBox" x="0" y="0" width="23" height="16" fill="white">
            <use xlink:href="#path-1"></use>
        </mask>
        <mask id="mask-4" maskContentUnits="userSpaceOnUse" maskUnits="objectBoundingBox" x="0" y="0" width="23" height="16" fill="white">
            <use xlink:href="#path-1"></use>
        </mask>
    </defs>
    <g id="Page-1" stroke="none" stroke-width="1" fill="none" fill-rule="evenodd">
        <g id="Flags" transform="translate(-268.000000, -450.000000)">
            <g id="IQ" transform="translate(268.000000, 450.000000)">
                <mask id="mask-3" fill="white">
                    <use xlink:href="#path-1"></use>
                </mask>
                <g id="Mask" stroke="#F5F5F5" mask="url(#mask-2)" fill="#FFFFFF">
                    <use mask="url(#mask-4)" xlink:href="#path-1"></use>
                </g>
                <rect id="Rectangle-2" fill="#DF1E35" mask="url(#mask-3)" x="0" y="0" width="23" height="5.33333333"></rect>
                <rect id="Rectangle-2" fill="#262626" mask="url(#mask-3)" x="0" y="10.6666667" width="23" height="5.33333333"></rect>
                <path d="M15.3333333,6.6728302 C15.3333333,6.52215024 15.4344076,6.44921875 15.5764022,6.51836395 L16.1855026,6.81496938 C16.3197458,6.88033999 16.4285714,7.04791667 16.4285714,7.19877268 L16.4285714,9.33456065 C16.4285714,9.48115875 16.3113618,9.6 16.1521966,9.6 L15.6097082,9.6 C15.4570706,9.6 15.3333333,9.47846375 15.3333333,9.3271698 L15.3333333,6.6728302 Z" id="Rectangle-213" fill="#0F7A40" mask="url(#mask-3)"></path>
                <path d="M8.76190476,6.6728302 C8.76190476,6.52215024 8.86297898,6.44921875 9.00497359,6.51836395 L9.61407403,6.81496938 C9.74831723,6.88033999 9.85714286,7.04791667 9.85714286,7.19877268 L9.85714286,9.33456065 C9.85714286,9.48115875 9.7399332,9.6 9.58076804,9.6 L9.03827958,9.6 C8.88564198,9.6 8.76190476,9.47846375 8.76190476,9.3271698 L8.76190476,6.6728302 Z" id="Rectangle-213" fill="#0F7A40" mask="url(#mask-3)"></path>
                <path d="M13.1428571,7.19877268 C13.1428571,7.05217458 13.2439314,6.88411458 13.385926,6.81496938 L13.9950264,6.51836395 C14.1292696,6.45299335 14.2380952,6.52153625 14.2380952,6.6728302 L14.2380952,9.3271698 C14.2380952,9.47784976 14.1208856,9.6 13.9617204,9.6 L13.419232,9.6 C13.2665944,9.6 13.1428571,9.48541667 13.1428571,9.33456065 L13.1428571,7.19877268 Z" id="Rectangle-213" fill="#0F7A40" mask="url(#mask-3)"></path>
                <path d="M10.952381,8.27869873 C10.952381,8.12477767 11.0534552,7.95078125 11.1954498,7.88163605 L11.8045502,7.58503062 C11.9387934,7.51966001 12.047619,7.58593092 12.047619,7.7364407 L12.047619,8.58110337 L13.6904762,8.58110336 L13.6904762,9.59999997 L12.3189035,9.59999999 C12.1690772,9.6 11.9304094,9.6 11.7712442,9.6 L11.2287558,9.6 C11.0761182,9.6 10.952381,9.47445068 10.952381,9.32130127 L10.952381,8.27869873 Z" id="Rectangle-213" fill="#0F7A40" mask="url(#mask-3)"></path>
                <path d="M6.57142857,8.27869873 C6.57142857,8.12477767 6.67250279,7.95078125 6.8144974,7.88163605 L7.42359784,7.58503062 C7.55784104,7.51966001 7.66666667,7.58593092 7.66666667,7.7364407 L7.66666667,8.58110337 L9.30952381,8.58110336 L9.30952381,9.59999997 L7.93795111,9.59999999 C7.78812485,9.6 7.54945701,9.6 7.39029185,9.6 L6.84780339,9.6 C6.69516579,9.6 6.57142857,9.47445068 6.57142857,9.32130127 L6.57142857,8.27869873 Z" id="Rectangle-213" fill="#0F7A40" mask="url(#mask-3)"></path>
            </g>
        </g>
    </g>
</svg>