<?xml version="1.0" encoding="UTF-8"?>
<svg width="23px" height="16px" viewBox="0 0 23 16" version="1.1" xmlns="http://www.w3.org/2000/svg" xmlns:xlink="http://www.w3.org/1999/xlink">
    <!-- Generator: Sketch 39.1 (31720) - http://www.bohemiancoding.com/sketch -->
    <title>IR</title>
    <desc>Created with Sketch.</desc>
    <defs>
        <rect id="path-1" x="0" y="0" width="23" height="16" rx="1.62"></rect>
        <mask id="mask-2" maskContentUnits="userSpaceOnUse" maskUnits="objectBoundingBox" x="0" y="0" width="23" height="16" fill="white">
            <use xlink:href="#path-1"></use>
        </mask>
        <mask id="mask-4" maskContentUnits="userSpaceOnUse" maskUnits="objectBoundingBox" x="0" y="0" width="23" height="16" fill="white">
            <use xlink:href="#path-1"></use>
        </mask>
        <path d="M10.3939552,6.81691366 C10.0641334,7.10954925 9.85714286,7.5312326 9.85714286,8 C9.85714286,8.8836556 10.5926751,9.6 11.5,9.6 L11.5,9.6 C12.4073249,9.6 13.1428571,8.8836556 13.1428571,8 C13.1428571,7.54007924 12.9436056,7.12548214 12.6245863,6.83361896" id="path-5"></path>
        <mask id="mask-6" maskContentUnits="userSpaceOnUse" maskUnits="objectBoundingBox" x="0" y="0" width="3.28571429" height="2.78308634" fill="white">
            <use xlink:href="#path-5"></use>
        </mask>
    </defs>
    <g id="Page-1" stroke="none" stroke-width="1" fill="none" fill-rule="evenodd">
        <g id="Flags" transform="translate(-190.000000, -450.000000)">
            <g id="IR" transform="translate(190.000000, 450.000000)">
                <mask id="mask-3" fill="white">
                    <use xlink:href="#path-1"></use>
                </mask>
                <g id="Mask" stroke="#F5F5F5" mask="url(#mask-2)" fill="#FFFFFF">
                    <use mask="url(#mask-4)" xlink:href="#path-1"></use>
                </g>
                <rect id="Rectangle-2" fill="#38BB56" mask="url(#mask-3)" x="0" y="0" width="23" height="5.33333333"></rect>
                <rect id="Rectangle-2" fill="#DE1B27" mask="url(#mask-3)" x="0" y="10.6666667" width="23" height="5.33333333"></rect>
                <path d="M1.0952381,4.53583171 C1.0952381,4.38717596 1.21244776,4.26666667 1.37161291,4.26666667 L1.91410137,4.26666667 C2.06673897,4.26666667 2.19047619,4.39746094 2.19047619,4.53583171 L2.19047619,5.06416829 C2.19047619,5.21282404 2.07326653,5.33333333 1.91410137,5.33333333 L1.37161291,5.33333333 C1.21897532,5.33333333 1.0952381,5.20253906 1.0952381,5.06416829 L1.0952381,4.53583171 Z M3.28571429,4.53583171 C3.28571429,4.38717596 3.40292395,4.26666667 3.5620891,4.26666667 L4.10457756,4.26666667 C4.25721516,4.26666667 4.38095238,4.39746094 4.38095238,4.53583171 L4.38095238,5.06416829 C4.38095238,5.21282404 4.26374272,5.33333333 4.10457756,5.33333333 L3.5620891,5.33333333 C3.40945151,5.33333333 3.28571429,5.20253906 3.28571429,5.06416829 L3.28571429,4.53583171 Z M5.47619048,4.53583171 C5.47619048,4.38717596 5.59340014,4.26666667 5.75256529,4.26666667 L6.29505375,4.26666667 C6.44769135,4.26666667 6.57142857,4.39746094 6.57142857,4.53583171 L6.57142857,5.06416829 C6.57142857,5.21282404 6.45421891,5.33333333 6.29505375,5.33333333 L5.75256529,5.33333333 C5.5999277,5.33333333 5.47619048,5.20253906 5.47619048,5.06416829 L5.47619048,4.53583171 Z M7.66666667,4.53583171 C7.66666667,4.38717596 7.78387633,4.26666667 7.94304148,4.26666667 L8.48552995,4.26666667 C8.63816754,4.26666667 8.76190476,4.39746094 8.76190476,4.53583171 L8.76190476,5.06416829 C8.76190476,5.21282404 8.6446951,5.33333333 8.48552995,5.33333333 L7.94304148,5.33333333 C7.79040389,5.33333333 7.66666667,5.20253906 7.66666667,5.06416829 L7.66666667,4.53583171 Z M9.85714286,4.53583171 C9.85714286,4.38717596 9.97435252,4.26666667 10.1335177,4.26666667 L10.6760061,4.26666667 C10.8286437,4.26666667 10.952381,4.39746094 10.952381,4.53583171 L10.952381,5.06416829 C10.952381,5.21282404 10.8351713,5.33333333 10.6760061,5.33333333 L10.1335177,5.33333333 C9.98088008,5.33333333 9.85714286,5.20253906 9.85714286,5.06416829 L9.85714286,4.53583171 Z M12.047619,4.53583171 C12.047619,4.38717596 12.1648287,4.26666667 12.3239939,4.26666667 L12.8664823,4.26666667 C13.0191199,4.26666667 13.1428571,4.39746094 13.1428571,4.53583171 L13.1428571,5.06416829 C13.1428571,5.21282404 13.0256475,5.33333333 12.8664823,5.33333333 L12.3239939,5.33333333 C12.1713563,5.33333333 12.047619,5.20253906 12.047619,5.06416829 L12.047619,4.53583171 Z M14.2380952,4.53583171 C14.2380952,4.38717596 14.3553049,4.26666667 14.5144701,4.26666667 L15.0569585,4.26666667 C15.2095961,4.26666667 15.3333333,4.39746094 15.3333333,4.53583171 L15.3333333,5.06416829 C15.3333333,5.21282404 15.2161237,5.33333333 15.0569585,5.33333333 L14.5144701,5.33333333 C14.3618325,5.33333333 14.2380952,5.20253906 14.2380952,5.06416829 L14.2380952,4.53583171 Z M16.4285714,4.53583171 C16.4285714,4.38717596 16.5457811,4.26666667 16.7049462,4.26666667 L17.2474347,4.26666667 C17.4000723,4.26666667 17.5238095,4.39746094 17.5238095,4.53583171 L17.5238095,5.06416829 C17.5238095,5.21282404 17.4065999,5.33333333 17.2474347,5.33333333 L16.7049462,5.33333333 C16.5523086,5.33333333 16.4285714,5.20253906 16.4285714,5.06416829 L16.4285714,4.53583171 Z M18.6190476,4.53583171 C18.6190476,4.38717596 18.7362573,4.26666667 18.8954224,4.26666667 L19.4379109,4.26666667 C19.5905485,4.26666667 19.7142857,4.39746094 19.7142857,4.53583171 L19.7142857,5.06416829 C19.7142857,5.21282404 19.5970761,5.33333333 19.4379109,5.33333333 L18.8954224,5.33333333 C18.7427848,5.33333333 18.6190476,5.20253906 18.6190476,5.06416829 L18.6190476,4.53583171 Z M20.8095238,4.53583171 C20.8095238,4.38717596 20.9267335,4.26666667 21.0858986,4.26666667 L21.6283871,4.26666667 C21.7810247,4.26666667 21.9047619,4.39746094 21.9047619,4.53583171 L21.9047619,5.06416829 C21.9047619,5.21282404 21.7875522,5.33333333 21.6283871,5.33333333 L21.0858986,5.33333333 C20.933261,5.33333333 20.8095238,5.20253906 20.8095238,5.06416829 L20.8095238,4.53583171 Z M1.0952381,10.9358317 C1.0952381,10.787176 1.21244776,10.6666667 1.37161291,10.6666667 L1.91410137,10.6666667 C2.06673897,10.6666667 2.19047619,10.7974609 2.19047619,10.9358317 L2.19047619,11.4641683 C2.19047619,11.612824 2.07326653,11.7333333 1.91410137,11.7333333 L1.37161291,11.7333333 C1.21897532,11.7333333 1.0952381,11.6025391 1.0952381,11.4641683 L1.0952381,10.9358317 Z M3.28571429,10.9358317 C3.28571429,10.787176 3.40292395,10.6666667 3.5620891,10.6666667 L4.10457756,10.6666667 C4.25721516,10.6666667 4.38095238,10.7974609 4.38095238,10.9358317 L4.38095238,11.4641683 C4.38095238,11.612824 4.26374272,11.7333333 4.10457756,11.7333333 L3.5620891,11.7333333 C3.40945151,11.7333333 3.28571429,11.6025391 3.28571429,11.4641683 L3.28571429,10.9358317 Z M5.47619048,10.9358317 C5.47619048,10.787176 5.59340014,10.6666667 5.75256529,10.6666667 L6.29505375,10.6666667 C6.44769135,10.6666667 6.57142857,10.7974609 6.57142857,10.9358317 L6.57142857,11.4641683 C6.57142857,11.612824 6.45421891,11.7333333 6.29505375,11.7333333 L5.75256529,11.7333333 C5.5999277,11.7333333 5.47619048,11.6025391 5.47619048,11.4641683 L5.47619048,10.9358317 Z M7.66666667,10.9358317 C7.66666667,10.787176 7.78387633,10.6666667 7.94304148,10.6666667 L8.48552995,10.6666667 C8.63816754,10.6666667 8.76190476,10.7974609 8.76190476,10.9358317 L8.76190476,11.4641683 C8.76190476,11.612824 8.6446951,11.7333333 8.48552995,11.7333333 L7.94304148,11.7333333 C7.79040389,11.7333333 7.66666667,11.6025391 7.66666667,11.4641683 L7.66666667,10.9358317 Z M9.85714286,10.9358317 C9.85714286,10.787176 9.97435252,10.6666667 10.1335177,10.6666667 L10.6760061,10.6666667 C10.8286437,10.6666667 10.952381,10.7974609 10.952381,10.9358317 L10.952381,11.4641683 C10.952381,11.612824 10.8351713,11.7333333 10.6760061,11.7333333 L10.1335177,11.7333333 C9.98088008,11.7333333 9.85714286,11.6025391 9.85714286,11.4641683 L9.85714286,10.9358317 Z M12.047619,10.9358317 C12.047619,10.787176 12.1648287,10.6666667 12.3239939,10.6666667 L12.8664823,10.6666667 C13.0191199,10.6666667 13.1428571,10.7974609 13.1428571,10.9358317 L13.1428571,11.4641683 C13.1428571,11.612824 13.0256475,11.7333333 12.8664823,11.7333333 L12.3239939,11.7333333 C12.1713563,11.7333333 12.047619,11.6025391 12.047619,11.4641683 L12.047619,10.9358317 Z M14.2380952,10.9358317 C14.2380952,10.787176 14.3553049,10.6666667 14.5144701,10.6666667 L15.0569585,10.6666667 C15.2095961,10.6666667 15.3333333,10.7974609 15.3333333,10.9358317 L15.3333333,11.4641683 C15.3333333,11.612824 15.2161237,11.7333333 15.0569585,11.7333333 L14.5144701,11.7333333 C14.3618325,11.7333333 14.2380952,11.6025391 14.2380952,11.4641683 L14.2380952,10.9358317 Z M16.4285714,10.9358317 C16.4285714,10.787176 16.5457811,10.6666667 16.7049462,10.6666667 L17.2474347,10.6666667 C17.4000723,10.6666667 17.5238095,10.7974609 17.5238095,10.9358317 L17.5238095,11.4641683 C17.5238095,11.612824 17.4065999,11.7333333 17.2474347,11.7333333 L16.7049462,11.7333333 C16.5523086,11.7333333 16.4285714,11.6025391 16.4285714,11.4641683 L16.4285714,10.9358317 Z M18.6190476,10.9358317 C18.6190476,10.787176 18.7362573,10.6666667 18.8954224,10.6666667 L19.4379109,10.6666667 C19.5905485,10.6666667 19.7142857,10.7974609 19.7142857,10.9358317 L19.7142857,11.4641683 C19.7142857,11.612824 19.5970761,11.7333333 19.4379109,11.7333333 L18.8954224,11.7333333 C18.7427848,11.7333333 18.6190476,11.6025391 18.6190476,11.4641683 L18.6190476,10.9358317 Z M20.8095238,10.9358317 C20.8095238,10.787176 20.9267335,10.6666667 21.0858986,10.6666667 L21.6283871,10.6666667 C21.7810247,10.6666667 21.9047619,10.7974609 21.9047619,10.9358317 L21.9047619,11.4641683 C21.9047619,11.612824 21.7875522,11.7333333 21.6283871,11.7333333 L21.0858986,11.7333333 C20.933261,11.7333333 20.8095238,11.6025391 20.8095238,11.4641683 L20.8095238,10.9358317 Z" id="Rectangle-223" fill-opacity="0.5" fill="#FFFFFF" mask="url(#mask-3)"></path>
                <g id="Oval-1" mask="url(#mask-3)" stroke-width="1.08" stroke="#D80915">
                    <use mask="url(#mask-6)" xlink:href="#path-5"></use>
                </g>
                <rect id="Rectangle-243" fill="#D80915" mask="url(#mask-3)" x="10.952381" y="7.46666667" width="1.0952381" height="2.13333333" rx="0.54"></rect>
            </g>
        </g>
    </g>
</svg>