<?xml version="1.0" encoding="UTF-8"?>
<svg width="23px" height="16px" viewBox="0 0 23 16" version="1.1" xmlns="http://www.w3.org/2000/svg" xmlns:xlink="http://www.w3.org/1999/xlink">
    <!-- Generator: Sketch 39.1 (31720) - http://www.bohemiancoding.com/sketch -->
    <title>JO</title>
    <desc>Created with Sketch.</desc>
    <defs>
        <rect id="path-1" x="0" y="0" width="23" height="16" rx="1.62"></rect>
        <mask id="mask-2" maskContentUnits="userSpaceOnUse" maskUnits="objectBoundingBox" x="0" y="0" width="23" height="16" fill="white">
            <use xlink:href="#path-1"></use>
        </mask>
        <mask id="mask-4" maskContentUnits="userSpaceOnUse" maskUnits="objectBoundingBox" x="0" y="0" width="23" height="16" fill="white">
            <use xlink:href="#path-1"></use>
        </mask>
    </defs>
    <g id="Page-1" stroke="none" stroke-width="1" fill="none" fill-rule="evenodd">
        <g id="Flags" transform="translate(-152.000000, -489.000000)">
            <g id="JO" transform="translate(152.000000, 489.000000)">
                <mask id="mask-3" fill="white">
                    <use xlink:href="#path-1"></use>
                </mask>
                <g id="Mask" stroke="#F5F5F5" mask="url(#mask-2)" fill="#FFFFFF">
                    <use mask="url(#mask-4)" xlink:href="#path-1"></use>
                </g>
                <rect id="Rectangle-2" fill="#199E56" mask="url(#mask-3)" x="0" y="10.6666667" width="23" height="5.33333333"></rect>
                <rect id="Rectangle-2" fill="#262626" mask="url(#mask-3)" x="0" y="0" width="23" height="5.33333333"></rect>
                <polygon id="Rectangle-83" fill="#E6223A" mask="url(#mask-3)" points="0 0 10.952381 8 0 16"></polygon>
                <polygon id="Star-27" fill="#FFFFFF" mask="url(#mask-3)" points="3.83333333 8.8 3.12052433 9.44155019 3.19111462 8.49879184 2.23166605 8.35603349 3.03249969 7.82198325 2.5488959 7.00241632 3.47692883 7.27922491 3.83333333 6.4 4.18973783 7.27922491 5.11777077 7.00241632 4.63416698 7.82198325 5.43500062 8.35603349 4.47555205 8.49879184 4.54614233 9.44155019"></polygon>
            </g>
        </g>
    </g>
</svg>