<?xml version="1.0" encoding="UTF-8"?>
<svg width="23px" height="16px" viewBox="0 0 23 16" version="1.1" xmlns="http://www.w3.org/2000/svg" xmlns:xlink="http://www.w3.org/1999/xlink">
    <!-- Generator: Sketch 39.1 (31720) - http://www.bohemiancoding.com/sketch -->
    <title>MY</title>
    <desc>Created with Sketch.</desc>
    <defs>
        <rect id="path-1" x="0" y="0" width="23" height="16" rx="1.62"></rect>
    </defs>
    <g id="Page-1" stroke="none" stroke-width="1" fill="none" fill-rule="evenodd">
        <g id="Flags" transform="translate(-190.000000, -606.000000)">
            <g id="MY" transform="translate(190.000000, 606.000000)">
                <mask id="mask-2" fill="white">
                    <use xlink:href="#path-1"></use>
                </mask>
                <use id="Mask" fill="#FFFFFF" xlink:href="#path-1"></use>
                <path d="M10.952381,0 L23,0 L23,1.06666667 L10.952381,1.06666667 L10.952381,0 Z M10.952381,2.13333333 L23,2.13333333 L23,3.2 L10.952381,3.2 L10.952381,2.13333333 Z M10.952381,4.26666667 L23,4.26666667 L23,5.33333333 L10.952381,5.33333333 L10.952381,4.26666667 Z M10.952381,6.4 L23,6.4 L23,7.46666667 L10.952381,7.46666667 L10.952381,6.4 Z M0,8.53333333 L23,8.53333333 L23,9.6 L0,9.6 L0,8.53333333 Z M0,10.6666667 L23,10.6666667 L23,11.7333333 L0,11.7333333 L0,10.6666667 Z M0,12.8 L23,12.8 L23,13.8666667 L0,13.8666667 L0,12.8 Z M0,14.9333333 L23,14.9333333 L23,16 L0,16 L0,14.9333333 Z" id="Rectangle-537" fill="#E1244A" mask="url(#mask-2)"></path>
                <rect id="Rectangle-1568" fill="#0C3F8E" mask="url(#mask-2)" x="0" y="0" width="13.1428571" height="8.53333333"></rect>
                <path d="M7.52826688,6.76598155 C6.96598357,7.20444446 6.25252991,7.46666667 5.47619048,7.46666667 C3.66154058,7.46666667 2.19047619,6.03397787 2.19047619,4.26666667 C2.19047619,2.49935547 3.66154058,1.06666667 5.47619048,1.06666667 C6.25252991,1.06666667 6.96598357,1.32888887 7.52826688,1.76735178 C7.23041228,1.65914728 6.90801274,1.6 6.57142857,1.6 C5.05922033,1.6 3.83333333,2.79390733 3.83333333,4.26666667 C3.83333333,5.739426 5.05922033,6.93333333 6.57142857,6.93333333 C6.90801274,6.93333333 7.23041228,6.87418605 7.52826688,6.76598155 Z M8.76190476,5.14133333 L7.81149276,6.18873358 L8.05974564,4.81201241 L6.62634838,4.74137799 L7.88632665,4.07203502 L7.04932151,2.93655509 L8.37223585,3.47861924 L8.76190476,2.13333333 L9.15157368,3.47861924 L10.474488,2.93655509 L9.63748287,4.07203502 L10.8974611,4.74137799 L9.46406389,4.81201241 L9.71231676,6.18873358 L8.76190476,5.14133333 Z" id="Oval-12" fill="#FFD34F" mask="url(#mask-2)"></path>
            </g>
        </g>
    </g>
</svg>