<?xml version="1.0" encoding="UTF-8"?>
<svg width="23px" height="16px" viewBox="0 0 23 16" version="1.1" xmlns="http://www.w3.org/2000/svg" xmlns:xlink="http://www.w3.org/1999/xlink">
    <!-- Generator: Sketch 39.1 (31720) - http://www.bohemiancoding.com/sketch -->
    <title>PF</title>
    <desc>Created with Sketch.</desc>
    <defs>
        <rect id="path-1" x="0" y="0" width="23" height="16" rx="1.62"></rect>
        <mask id="mask-2" maskContentUnits="userSpaceOnUse" maskUnits="objectBoundingBox" x="0" y="0" width="23" height="16" fill="white">
            <use xlink:href="#path-1"></use>
        </mask>
        <mask id="mask-4" maskContentUnits="userSpaceOnUse" maskUnits="objectBoundingBox" x="0" y="0" width="23" height="16" fill="white">
            <use xlink:href="#path-1"></use>
        </mask>
        <ellipse id="path-5" cx="2.73809524" cy="2.66666667" rx="2.73809524" ry="2.66666667"></ellipse>
    </defs>
    <g id="Page-1" stroke="none" stroke-width="1" fill="none" fill-rule="evenodd">
        <g id="Flags" transform="translate(-502.000000, -723.000000)">
            <g id="PF" transform="translate(502.000000, 723.000000)">
                <mask id="mask-3" fill="white">
                    <use xlink:href="#path-1"></use>
                </mask>
                <g id="Mask" stroke="#F5F5F5" mask="url(#mask-2)" fill="#FFFFFF">
                    <use mask="url(#mask-4)" xlink:href="#path-1"></use>
                </g>
                <rect id="Rectangle-2" fill="#D82332" mask="url(#mask-3)" x="0" y="0" width="23" height="4.26666667"></rect>
                <rect id="Rectangle-2" fill="#D82332" mask="url(#mask-3)" x="0" y="11.7333333" width="23" height="4.26666667"></rect>
                <g id="Group-5" mask="url(#mask-3)">
                    <g transform="translate(8.761905, 5.333333)">
                        <g id="Group-3">
                            <path d="" id="Fill-7" fill="#054A89"></path>
                            <path d="" id="Fill-8" fill="#054A89"></path>
                            <path d="" id="Fill-9" fill="#054A89"></path>
                            <path d="" id="Fill-10" fill="#054A89"></path>
                            <path d="" id="Fill-11" fill="#054A89"></path>
                            <path d="" id="Fill-12" fill="#054A89"></path>
                            <path d="" id="Fill-13" fill="#054A89"></path>
                            <path d="" id="Fill-14" fill="#054A89"></path>
                            <path d="" id="Fill-15" fill="#054A89"></path>
                            <path d="" id="Fill-16" fill="#054A89"></path>
                            <path d="" id="Fill-17" fill="#054A89"></path>
                            <path d="M3.25164021,0.0482040351 C2.68385488,-0.0672368251 2.17309146,-0.000570158404 2.17309146,0.528031992 L2.17309146,1.97517178 C2.17309146,2.13422554 2.17630763,2.15435457 2.36753968,2.19839758 C2.78233938,2.29396748 2.82119426,2.30360188 3.27232804,2.40613952 L3.27232804,0.918053498 C2.91976568,0.879515863 2.78494709,0.683730917 2.78494709,0.456204035 C2.78494709,0.235558874 2.94045351,0.0918169384 3.25164021,0.0482040351" id="Fill-18" fill="#514437"></path>
                            <path d="M1.79663343,4.12946237 C1.48031824,4.12946237 1.14844371,3.85746237 1.14844371,3.3391828 L1.14844371,2.05109677 C1.14844371,1.93436559 1.16174303,1.91793548 1.13418823,1.89075269 C1.11802043,1.87475269 1.15235528,1.85101075 1.17565082,1.82787097 C1.21068105,1.7932043 1.23467198,1.7643871 1.18738551,1.71750538 C1.14001212,1.67070968 1.16017841,1.65849462 1.18999322,1.62907527 C1.21980804,1.59948387 1.23145581,1.57006452 1.20294485,1.54176344 C1.17443389,1.51354839 1.16791461,1.50460215 1.19903328,1.47380645 C1.23015195,1.44301075 1.21720033,1.43019355 1.19129708,1.40447312 C1.1653069,1.37883871 1.15305067,1.36025806 1.18608166,1.32756989 C1.21850418,1.29548387 1.22102497,1.29032258 1.25866291,1.29032258 L1.41425626,1.29032258 C1.45059035,1.29032258 1.45119882,1.30124731 1.42068861,1.33144086 C1.38113835,1.37049462 1.36949058,1.38589247 1.41425626,1.43019355 C1.45893502,1.4744086 1.4570227,1.4892043 1.42851174,1.51741935 C1.38565838,1.55974194 1.36688287,1.58864516 1.4103447,1.63165591 C1.45380653,1.67458065 1.45763117,1.69384946 1.42460018,1.72653763 C1.39156919,1.75922581 1.38826609,1.78812903 1.42460018,1.824 C1.45250267,1.8516129 1.45441499,1.86769892 1.45441499,1.9163871 L1.45441499,3.23139785 C1.45441499,3.45204301 1.61513684,3.58546237 1.92110811,3.58546237 C2.22707939,3.58546237 2.33077931,3.46227957 2.4189199,3.38021505 C2.36189798,3.77531183 2.19596072,4.12946237 1.79663343,4.12946237" id="Fill-19" fill="#514437"></path>
                            <path d="" id="Fill-20" fill="#514437"></path>
                            <path d="" id="Fill-21" fill="#514437"></path>
                            <path d="" id="Fill-22" fill="#514437"></path>
                            <path d="" id="Fill-23" fill="#514437"></path>
                            <path d="" id="Fill-24" fill="#514437"></path>
                            <polygon id="Fill-25" fill="#514437" points="1.56462585 3.09677419 3.84619803 3.09677419 3.84619803 3.20477419 1.56462585 3.20477419"></polygon>
                            <path d="M3.57769085,4.12946237 C3.89400605,4.12946237 4.22588057,3.85746237 4.22588057,3.3391828 L4.22588057,2.05109677 C4.22588057,1.93436559 4.21258125,1.91793548 4.24013605,1.89075269 C4.25630385,1.87475269 4.22196901,1.85101075 4.19867347,1.82787097 C4.16364324,1.7932043 4.13965231,1.7643871 4.18693878,1.71750538 C4.23431217,1.67070968 4.21414588,1.65849462 4.18441799,1.62907527 C4.15451625,1.59948387 4.14286848,1.57006452 4.17137944,1.54176344 C4.1998904,1.51354839 4.20640967,1.50460215 4.17529101,1.47380645 C4.14417234,1.44301075 4.15712396,1.43019355 4.18302721,1.40447312 C4.20901738,1.37883871 4.22127362,1.36025806 4.18824263,1.32756989 C4.15582011,1.29548387 4.15329932,1.29032258 4.11566138,1.29032258 L3.96006803,1.29032258 C3.92382086,1.29032258 3.92312547,1.30124731 3.95363568,1.33144086 C3.99318594,1.37049462 4.00483371,1.38589247 3.96006803,1.43019355 C3.91538927,1.4744086 3.91730159,1.4892043 3.94581255,1.51741935 C3.98866591,1.55974194 4.0073545,1.58864516 3.96397959,1.63165591 C3.92051776,1.67458065 3.9166062,1.69384946 3.94972411,1.72653763 C3.9827551,1.75922581 3.9860582,1.78812903 3.94972411,1.824 C3.92182162,1.8516129 3.9199093,1.86769892 3.9199093,1.9163871 L3.9199093,3.23139785 C3.9199093,3.45204301 3.75910053,3.58546237 3.45321618,3.58546237 C3.1472449,3.58546237 3.0436319,3.46227957 2.95540438,3.38021505 C3.0124263,3.77531183 3.17836357,4.12946237 3.57769085,4.12946237" id="Fill-26" fill="#514437"></path>
                            <path d="" id="Fill-27" fill="#EFA338"></path>
                            <path d="" id="Stroke-28" stroke="#000000" stroke-width="0.54"></path>
                            <path d="" id="Fill-29" fill="#EFA338"></path>
                            <path d="M1.02057067,2.48490323 L0,2.34873118 C0.0296409675,2.13230108 0.0857067271,1.92129032 0.166371882,1.72043011 L1.02057067,2.056 L1.02057067,2.48490323" id="Fill-31" fill="#EFA338"></path>
                            <path d="M3.1292517,0.823397849 L3.31066138,0.0860215054 C3.52292895,0.136946237 3.72928571,0.213677419 3.92486395,0.31483871 L3.3397808,1.42313978 L3.34186697,0.866666667 C3.27432729,0.867010753 3.17071429,0.856774194 3.1292517,0.823397849" id="Fill-33" fill="#EFA338"></path>
                            <path d="M1.04464315,2.55707527 L0.00503619254,2.49462366 C-0.00835005084,2.71036559 0.00494926889,2.92808602 0.0449341517,3.14288172 C0.0449341517,3.14288172 1.04464315,3.14907527 1.04464315,3.14288172 L1.04464315,2.55707527" id="Fill-35" fill="#EFA338"></path>
                            <path d="M1.03430461,1.86313978 C1.00066515,1.81952688 1.02143991,1.79630108 1.05768707,1.77316129 C1.09402116,1.75010753 1.08880574,1.73212903 1.07072562,1.69883871 C1.05255858,1.66546237 1.03439153,1.62950538 1.06811791,1.59363441 C1.10184429,1.55767742 1.08880574,1.54227957 1.06290249,1.51664516 C1.03699924,1.49101075 1.03439153,1.4627957 1.05768707,1.44223656 C1.08106954,1.42167742 1.07585412,1.40627957 1.06038171,1.38580645 C1.04473545,1.36524731 1.01422525,1.3236129 1.04151927,1.29668817 L0.617418745,0.946236559 C0.477297808,1.11208602 0.357343159,1.29513978 0.260770975,1.49144086 L1.03430461,1.86313978" id="Fill-37" fill="#EFA338"></path>
                            <path d="M2.05035525,2.05419355 L1.54489418,1.56911828 C1.61617158,1.49858065 1.62329932,1.48705376 1.57279667,1.43698925 C1.51768707,1.38245161 1.51568783,1.37677419 1.62781935,1.26572043 C1.66606576,1.22795699 1.64468254,1.20154839 1.59026833,1.20154839 L1.25708995,1.20154839 C1.22857899,1.20154839 1.20615268,1.20301075 1.18529101,1.22365591 L0.782312925,0.837591398 C0.936080877,0.680946237 1.10784203,0.544258065 1.29333711,0.430107527 L2.05035525,1.63483871 L2.05035525,2.05419355" id="Fill-39" fill="#EFA338"></path>
                            <path d="M1.5239306,2.128 C1.5239306,2.00748387 1.52401618,1.88817204 1.52401618,1.87122581 C1.52401618,1.83526882 1.52144875,1.82116129 1.4933782,1.79294624 C1.46530765,1.76473118 1.47934292,1.75122581 1.50108049,1.72043011 L1.973145,2.11569892 L1.973145,2.34778495 L1.5239306,2.128" id="Fill-41" fill="#EFA338"></path>
                            <path d="M1.97377551,1.42374194 L1.97377551,0.854795699 C1.97377551,0.485333333 1.99472411,0.30055914 2.04913832,0.263397849 L2.00558957,0.0860215054 C1.79271353,0.142709677 1.58635676,0.21944086 1.39077853,0.320602151 L1.97377551,1.42374194" id="Fill-43" fill="#EFA338"></path>
                            <path d="" id="Fill-45" fill="#EFA338"></path>
                            <path d="M4.34618292,2.48490323 L5.36675359,2.34873118 C5.33711262,2.13230108 5.28104686,1.92129032 5.20038171,1.72043011 L4.34618292,2.056 L4.34618292,2.48490323" id="Fill-47" fill="#EFA338"></path>
                            <path d="M4.34618292,2.55707527 L5.38570295,2.49462366 C5.39908919,2.71036559 5.3858768,2.92808602 5.34580499,3.14288172 C5.34580499,3.14288172 4.34618292,3.14907527 4.34618292,3.14288172 L4.34618292,2.55707527" id="Fill-49" fill="#EFA338"></path>
                            <path d="M4.31333555,1.86313978 C4.34706193,1.81952688 4.32620025,1.79630108 4.28995309,1.77316129 C4.253619,1.75010753 4.25883442,1.73212903 4.27691454,1.69883871 C4.29508158,1.66546237 4.31324863,1.62950538 4.27952225,1.59363441 C4.24579587,1.55767742 4.25883442,1.54227957 4.28473767,1.51664516 C4.31064092,1.49101075 4.31324863,1.4627957 4.28995309,1.44223656 C4.26657062,1.42167742 4.27178604,1.40627957 4.28725845,1.38580645 C4.30290471,1.36524731 4.33332799,1.3236129 4.30612089,1.29668817 L4.73022142,0.946236559 C4.87034235,1.11208602 4.99021008,1.29513978 5.08678226,1.49144086 L4.31333555,1.86313978" id="Fill-51" fill="#EFA338"></path>
                            <path d="M3.39002268,2.05419355 L3.89548375,1.56911828 C3.82411943,1.49858065 3.81699169,1.48705376 3.86758125,1.43698925 C3.92269085,1.38245161 3.9246901,1.37677419 3.81255858,1.26572043 C3.77422525,1.22795699 3.79569539,1.20154839 3.8501096,1.20154839 L4.18328798,1.20154839 C4.21179894,1.20154839 4.23422525,1.20301075 4.25508692,1.22365591 L4.658065,0.837591398 C4.50429705,0.680946237 4.3325359,0.544258065 4.14704082,0.430107527 L3.39002268,1.63483871 L3.39002268,2.05419355" id="Fill-53" fill="#EFA338"></path>
                            <path d="M3.83923708,2.128 C3.83923708,2.00748387 3.8391515,1.88817204 3.8391515,1.87122581 C3.8391515,1.83526882 3.84171893,1.82116129 3.86978948,1.79294624 C3.89786003,1.76473118 3.88382475,1.75122581 3.86208719,1.72043011 L3.39002268,2.11569892 L3.39002268,2.34778495 L3.83923708,2.128" id="Fill-55" fill="#EFA338"></path>
                            <path d="M1.21693122,1.89247312 C1.23509826,1.91045161 1.24292139,1.92834409 1.24292139,1.97195699 L1.24292139,3.34468817 C1.24292139,3.80137634 1.52290249,4.05539785 1.81070673,4.05539785 C2.0751285,4.05539785 2.24888889,3.81677419 2.33963719,3.53969892 C2.22298564,3.62950538 2.05183296,3.65772043 1.88841648,3.65772043 C1.69918367,3.65772043 1.39329932,3.53204301 1.39329932,3.26004301 L1.39329932,1.92834409 C1.39329932,1.89247312 1.35696523,1.89247312 1.21693122,1.89247312" id="Fill-57" fill="#D82331"></path>
                            <path d="M2.87038041,0.0938979783 C2.50886492,0.0576829245 2.17351344,0.132091527 2.17351344,0.620177548 L2.17351344,1.91695174 C2.17351344,2.13346787 2.15630256,2.10774744 2.34171072,2.15325282 C2.67810528,2.23583346 2.71626477,2.24632809 3.12428442,2.33854314 L3.12428442,1.01914529 C2.7758944,0.981381849 2.624908,0.755575398 2.624908,0.505510882 C2.624908,0.30654314 2.71374398,0.119274322 2.87038041,0.0938979783" id="Fill-58" fill="#D82331"></path>
                            <path d="M4.16503401,1.89247312 C4.14686697,1.91045161 4.13904384,1.92834409 4.13904384,1.97195699 L4.13904384,3.34468817 C4.13904384,3.80137634 3.85906274,4.05539785 3.5712585,4.05539785 C3.30683673,4.05539785 3.13307634,3.81677419 3.04232804,3.53969892 C3.15906652,3.62950538 3.33013228,3.65772043 3.49354875,3.65772043 C3.68278156,3.65772043 3.98866591,3.53204301 3.98866591,3.26004301 L3.98866591,1.92834409 C3.98866591,1.89247312 4.025,1.89247312 4.16503401,1.89247312" id="Fill-59" fill="#D82331"></path>
                        </g>
                        <g id="Oval-210">
                            <mask id="mask-6" fill="white">
                                <use xlink:href="#path-5"></use>
                            </mask>
                            <g id="Mask"></g>
                            <ellipse fill="#064A89" mask="url(#mask-6)" cx="2.73809524" cy="6.93333333" rx="2.73809524" ry="2.66666667"></ellipse>
                        </g>
                    </g>
                </g>
            </g>
        </g>
    </g>
</svg>