<?xml version="1.0" encoding="UTF-8"?>
<svg width="23px" height="16px" viewBox="0 0 23 16" version="1.1" xmlns="http://www.w3.org/2000/svg" xmlns:xlink="http://www.w3.org/1999/xlink">
    <!-- Generator: Sketch 39.1 (31720) - http://www.bohemiancoding.com/sketch -->
    <title>SC</title>
    <desc>Created with Sketch.</desc>
    <defs>
        <rect id="path-1" x="0" y="0" width="23" height="16" rx="1.62"></rect>
        <mask id="mask-2" maskContentUnits="userSpaceOnUse" maskUnits="objectBoundingBox" x="0" y="0" width="23" height="16" fill="white">
            <use xlink:href="#path-1"></use>
        </mask>
        <mask id="mask-4" maskContentUnits="userSpaceOnUse" maskUnits="objectBoundingBox" x="0" y="0" width="23" height="16" fill="white">
            <use xlink:href="#path-1"></use>
        </mask>
        <linearGradient x1="50%" y1="0%" x2="50%" y2="100%" id="linearGradient-5">
            <stop stop-color="#1CBE4F" offset="0%"></stop>
            <stop stop-color="#159B3F" offset="100%"></stop>
        </linearGradient>
    </defs>
    <g id="Page-1" stroke="none" stroke-width="1" fill="none" fill-rule="evenodd">
        <g id="Flags" transform="translate(-618.000000, -839.000000)">
            <g id="SC" transform="translate(618.000000, 839.000000)">
                <mask id="mask-3" fill="white">
                    <use xlink:href="#path-1"></use>
                </mask>
                <g id="Mask" stroke="#F5F5F5" mask="url(#mask-2)" fill="#FFFFFF">
                    <use mask="url(#mask-4)" xlink:href="#path-1"></use>
                </g>
                <path d="M0,0 L23,0 L23,16 L0,16 L0,0 Z M23,10.6666667 L23,5.33333333 L0,16 L23,10.6666667 Z" id="Combined-Shape" fill="url(#linearGradient-5)" mask="url(#mask-3)"></path>
                <polygon id="Rectangle-253" fill="#0858B4" mask="url(#mask-3)" points="0 0 7.66666667 0 0 16"></polygon>
                <polygon id="Rectangle-253" fill="#ED3535" mask="url(#mask-3)" points="15.3333333 0 23 0 23 5.33333333 0 16"></polygon>
                <polygon id="Rectangle-253" fill="#08964F" mask="url(#mask-3)" points="23 16 23 10.6666667 0 16"></polygon>
                <polygon id="Rectangle-253" fill="#FFDD67" mask="url(#mask-3)" points="7.66666667 0 15.3333333 0 0 16"></polygon>
            </g>
        </g>
    </g>
</svg>