<?xml version="1.0" encoding="UTF-8"?>
<svg width="23px" height="16px" viewBox="0 0 23 16" version="1.1" xmlns="http://www.w3.org/2000/svg" xmlns:xlink="http://www.w3.org/1999/xlink">
    <!-- Generator: Sketch 39.1 (31720) - http://www.bohemiancoding.com/sketch -->
    <title>SK</title>
    <desc>Created with Sketch.</desc>
    <defs>
        <rect id="path-1" x="0" y="0" width="23" height="16" rx="1.62"></rect>
        <mask id="mask-2" maskContentUnits="userSpaceOnUse" maskUnits="objectBoundingBox" x="0" y="0" width="23" height="16" fill="white">
            <use xlink:href="#path-1"></use>
        </mask>
        <mask id="mask-4" maskContentUnits="userSpaceOnUse" maskUnits="objectBoundingBox" x="0" y="0" width="23" height="16" fill="white">
            <use xlink:href="#path-1"></use>
        </mask>
        <path d="M0.778645833,1.08333333 C0.802274087,0.485024854 1.31074954,0 1.90265868,0 L6.85924609,0 C7.45639298,0 7.95929623,0.476556079 7.98325893,1.08333333 L8.17150298,5.85 C8.19513123,6.44830848 7.8467296,7.24016279 7.38250947,7.62768567 L5.62552586,9.09438504 C4.93816691,9.66818034 3.83172918,9.67485135 3.1363789,9.09438504 L1.37939529,7.62768567 C0.920017956,7.24420547 0.566439085,6.45677725 0.590401786,5.85 L0.778645833,1.08333333 Z" id="path-5"></path>
        <mask id="mask-7" maskContentUnits="userSpaceOnUse" maskUnits="objectBoundingBox" x="-1.08" y="-1.08" width="9.74449787" height="11.6784016">
            <rect x="-0.491292487" y="-1.08" width="9.74449787" height="11.6784016" fill="white"></rect>
            <use xlink:href="#path-5" fill="black"></use>
        </mask>
    </defs>
    <g id="Page-1" stroke="none" stroke-width="1" fill="none" fill-rule="evenodd">
        <g id="Flags" transform="translate(-462.000000, -839.000000)">
            <g id="SK" transform="translate(462.000000, 839.000000)">
                <mask id="mask-3" fill="white">
                    <use xlink:href="#path-1"></use>
                </mask>
                <g id="Mask" stroke="#F5F5F5" mask="url(#mask-2)" fill="#FFFFFF">
                    <use mask="url(#mask-4)" xlink:href="#path-1"></use>
                </g>
                <rect id="Rectangle-2" fill="#0C47B7" mask="url(#mask-3)" x="0" y="5.33333333" width="23" height="5.33333333"></rect>
                <rect id="Rectangle-2" fill="#E53B35" mask="url(#mask-3)" x="0" y="10.6666667" width="23" height="5.33333333"></rect>
                <g id="Rectangle-1693" mask="url(#mask-3)">
                    <g transform="translate(3.833333, 3.200000)">
                        <mask id="mask-6" fill="white">
                            <use xlink:href="#path-5"></use>
                        </mask>
                        <g id="Mask" stroke="none" fill="none">
                            <use fill="#F73744" fill-rule="evenodd" xlink:href="#path-5"></use>
                            <use stroke="#FFFFFF" mask="url(#mask-7)" stroke-width="2.16" xlink:href="#path-5"></use>
                        </g>
                        <path d="M3.83333333,5.59492188 C3.83333333,5.45045051 3.70442109,5.33333333 3.56204889,5.33333333 L2.46176063,5.33333333 C2.31193437,5.33333333 2.19047619,5.20253906 2.19047619,5.06416829 L2.19047619,4.53583171 C2.19047619,4.38717596 2.31938844,4.26666667 2.46176063,4.26666667 L3.56204889,4.26666667 C3.71187515,4.26666667 3.83333333,4.1358724 3.83333333,3.99750163 L3.83333333,3.46916504 C3.83333333,3.32050929 3.71612367,3.2 3.55695852,3.2 L3.01447005,3.2 C2.86183246,3.2 2.73809524,3.06920573 2.73809524,2.93083496 L2.73809524,2.40249837 C2.73809524,2.25384263 2.8553049,2.13333333 3.01447005,2.13333333 L3.55695852,2.13333333 C3.70959611,2.13333333 3.83333333,2.00253906 3.83333333,1.86416829 L3.83333333,1.33583171 C3.83333333,1.18717596 3.95054299,1.06666667 4.10970815,1.06666667 L4.65219661,1.06666667 C4.80483421,1.06666667 4.92857143,1.19746094 4.92857143,1.33583171 L4.92857143,1.86416829 C4.92857143,2.01282404 5.04578109,2.13333333 5.20494625,2.13333333 L5.74743471,2.13333333 C5.9000723,2.13333333 6.02380952,2.2641276 6.02380952,2.40249837 L6.02380952,2.93083496 C6.02380952,3.07949071 5.90659986,3.2 5.74743471,3.2 L5.20494625,3.2 C5.05230865,3.2 4.92857143,3.33079427 4.92857143,3.46916504 L4.92857143,3.99750163 C4.92857143,4.14615737 5.05748367,4.26666667 5.19985587,4.26666667 L6.30014413,4.26666667 C6.44997039,4.26666667 6.57142857,4.39746094 6.57142857,4.53583171 L6.57142857,5.06416829 C6.57142857,5.21282404 6.44251633,5.33333333 6.30014413,5.33333333 L5.19985587,5.33333333 C5.05002961,5.33333333 4.92857143,5.4480306 4.92857143,5.59492188 L4.92857143,7.20507813 C4.92857143,7.34954949 4.81136177,7.46666667 4.65219661,7.46666667 L4.10970815,7.46666667 C3.95707055,7.46666667 3.83333333,7.3519694 3.83333333,7.20507813 L3.83333333,5.59492188 Z" id="Rectangle-1694" stroke="none" fill="#FFFFFF" fill-rule="evenodd" mask="url(#mask-6)"></path>
                        <path d="M5.36957019,7.54035983 C6.70111994,7.74467805 7.66666667,8.35076423 7.66666667,9.06666667 C7.66666667,9.95032227 6.19560227,10.6666667 4.38095238,10.6666667 C2.56630249,10.6666667 1.0952381,9.95032227 1.0952381,9.06666667 C1.0952381,8.35076423 2.06078482,7.74467805 3.39233457,7.54035983 C3.5686364,7.18133368 3.94505683,6.93333333 4.38095238,6.93333333 C4.81684793,6.93333333 5.19326837,7.18133368 5.36957019,7.54035983 Z" id="Oval-215" stroke="none" fill="#1251A1" fill-rule="evenodd" mask="url(#mask-6)"></path>
                    </g>
                </g>
            </g>
        </g>
    </g>
</svg>