<?xml version="1.0" encoding="UTF-8"?>
<svg width="23px" height="16px" viewBox="0 0 23 16" version="1.1" xmlns="http://www.w3.org/2000/svg" xmlns:xlink="http://www.w3.org/1999/xlink">
    <!-- Generator: Sketch 39.1 (31720) - http://www.bohemiancoding.com/sketch -->
    <title>VG</title>
    <desc>Created with Sketch.</desc>
    <defs>
        <rect id="path-1" x="0" y="0" width="23" height="16" rx="1.62"></rect>
        <path d="M0,3.73333333 L2.85224806e-17,1.08224688 C1.27699495e-17,0.484538431 0.485975373,0 1.08191902,0 L4.39427146,0 C4.99179883,0 5.47619048,0.482261181 5.47619048,1.08224688 L5.47619048,3.73333333 C5.47619048,6.4 2.73809524,7.46666667 2.73809524,7.46666667 C2.73809524,7.46666667 0,6.4 0,3.73333333 Z" id="path-3"></path>
        <path d="M3.83333333,3.2 L0,0 L0.547619048,0 L4.38095238,2.66666667 L5.47619048,2.66666667 L9.85714286,0 L9.85714286,0.266666667 C9.85714286,0.4139426 9.76238578,0.599251302 9.62883021,0.692159526 L6.02380952,3.2 L6.02380952,4.26666667 L9.65104621,7.29462077 C9.76487024,7.38963909 9.7301316,7.46666667 9.58333333,7.46666667 L9.58333333,7.46666667 C9.43211251,7.46666667 9.21476673,7.4007487 9.08121116,7.30784047 L5.47619048,4.8 L4.38095238,4.8 L0,7.46666667 L0,6.93333333 L3.83333333,4.26666667 L3.83333333,3.2 Z" id="path-5"></path>
        <mask id="mask-6" maskContentUnits="userSpaceOnUse" maskUnits="objectBoundingBox" x="-0.54" y="-0.54" width="10.9371429" height="8.54666667">
            <rect x="-0.54" y="-0.54" width="10.9371429" height="8.54666667" fill="white"></rect>
            <use xlink:href="#path-5" fill="black"></use>
        </mask>
    </defs>
    <g id="Page-1" stroke="none" stroke-width="1" fill="none" fill-rule="evenodd">
        <g id="Flags" transform="translate(-268.000000, -956.000000)">
            <g id="VG" transform="translate(268.000000, 956.000000)">
                <mask id="mask-2" fill="white">
                    <use xlink:href="#path-1"></use>
                </mask>
                <use id="Mask" fill="#FFFFFF" xlink:href="#path-1"></use>
                <rect id="Mask-Copy" fill="#07319C" mask="url(#mask-2)" x="0" y="0" width="23" height="16"></rect>
                <g id="Rectangle-1105" mask="url(#mask-2)">
                    <g transform="translate(14.238095, 4.266667)">
                        <mask id="mask-4" fill="white">
                            <use xlink:href="#path-3"></use>
                        </mask>
                        <use id="Mask" stroke="none" fill="#008339" fill-rule="evenodd" xlink:href="#path-3"></use>
                        <path d="M1.64285714,2.13333333 C1.94529879,2.13333333 2.19047619,1.89455187 2.19047619,1.6 C2.19047619,1.30544813 1.94529879,1.06666667 1.64285714,1.06666667 C1.34041549,1.06666667 1.0952381,1.30544813 1.0952381,1.6 C1.0952381,1.89455187 1.34041549,2.13333333 1.64285714,2.13333333 Z M1.64285714,3.2 C1.94529879,3.2 2.19047619,2.96121853 2.19047619,2.66666667 C2.19047619,2.3721148 1.94529879,2.13333333 1.64285714,2.13333333 C1.34041549,2.13333333 1.0952381,2.3721148 1.0952381,2.66666667 C1.0952381,2.96121853 1.34041549,3.2 1.64285714,3.2 Z M1.64285714,4.26666667 C1.94529879,4.26666667 2.19047619,4.0278852 2.19047619,3.73333333 C2.19047619,3.43878147 1.94529879,3.2 1.64285714,3.2 C1.34041549,3.2 1.0952381,3.43878147 1.0952381,3.73333333 C1.0952381,4.0278852 1.34041549,4.26666667 1.64285714,4.26666667 Z M1.64285714,5.33333333 C1.94529879,5.33333333 2.19047619,5.09455187 2.19047619,4.8 C2.19047619,4.50544813 1.94529879,4.26666667 1.64285714,4.26666667 C1.34041549,4.26666667 1.0952381,4.50544813 1.0952381,4.8 C1.0952381,5.09455187 1.34041549,5.33333333 1.64285714,5.33333333 Z M3.83333333,5.33333333 C4.13577498,5.33333333 4.38095238,5.09455187 4.38095238,4.8 C4.38095238,4.50544813 4.13577498,4.26666667 3.83333333,4.26666667 C3.53089168,4.26666667 3.28571429,4.50544813 3.28571429,4.8 C3.28571429,5.09455187 3.53089168,5.33333333 3.83333333,5.33333333 Z M3.83333333,4.26666667 C4.13577498,4.26666667 4.38095238,4.0278852 4.38095238,3.73333333 C4.38095238,3.43878147 4.13577498,3.2 3.83333333,3.2 C3.53089168,3.2 3.28571429,3.43878147 3.28571429,3.73333333 C3.28571429,4.0278852 3.53089168,4.26666667 3.83333333,4.26666667 Z M3.83333333,3.2 C4.13577498,3.2 4.38095238,2.96121853 4.38095238,2.66666667 C4.38095238,2.3721148 4.13577498,2.13333333 3.83333333,2.13333333 C3.53089168,2.13333333 3.28571429,2.3721148 3.28571429,2.66666667 C3.28571429,2.96121853 3.53089168,3.2 3.83333333,3.2 Z M3.83333333,2.13333333 C4.13577498,2.13333333 4.38095238,1.89455187 4.38095238,1.6 C4.38095238,1.30544813 4.13577498,1.06666667 3.83333333,1.06666667 C3.53089168,1.06666667 3.28571429,1.30544813 3.28571429,1.6 C3.28571429,1.89455187 3.53089168,2.13333333 3.83333333,2.13333333 Z" id="Oval-197" stroke="none" fill="#FFD033" fill-rule="evenodd" mask="url(#mask-4)"></path>
                        <ellipse id="Oval-193" stroke="none" fill="#FFFFFF" fill-rule="evenodd" mask="url(#mask-4)" cx="2.73809524" cy="3.2" rx="0.547619048" ry="1.6"></ellipse>
                    </g>
                </g>
                <path d="M13.6904762,10.6666667 C13.6904762,11.6838827 15.1864617,12.2666667 16.9761905,12.2666667 C18.7659192,12.2666667 20.2619048,11.6838827 20.2619048,10.6666667 C20.2619048,10.3721148 20.0167274,10.1333333 19.7142857,10.1333333 C19.4118441,10.1333333 19.1666667,10.3721148 19.1666667,10.6666667 C19.1666667,10.6768638 19.0339285,10.7991204 18.7089356,10.9257263 C18.2677638,11.0975915 17.6462482,11.2 16.9761905,11.2 C16.3061328,11.2 15.6846171,11.0975915 15.2434454,10.9257263 C14.9184525,10.7991204 14.7857143,10.6768638 14.7857143,10.6666667 C14.7857143,10.3721148 14.5405369,10.1333333 14.2380952,10.1333333 C13.9356536,10.1333333 13.6904762,10.3721148 13.6904762,10.6666667 L13.6904762,10.6666667 Z" id="Shape" fill="#FFD033" mask="url(#mask-2)"></path>
                <g id="Rectangle-36" mask="url(#mask-2)">
                    <use fill="#DB1E36" fill-rule="evenodd" xlink:href="#path-5"></use>
                    <use stroke="#FFFFFF" mask="url(#mask-6)" stroke-width="1.08" xlink:href="#path-5"></use>
                </g>
                <path d="M0,2.66666667 L0,4.8 L3.83333333,4.8 L3.83333333,7.45716362 C3.83333333,7.75696387 4.06775266,8 4.36358652,8 L5.49355634,8 C5.78640709,8 6.02380952,7.74890137 6.02380952,7.45716362 L6.02380952,4.8 L9.86757115,4.8 C10.1642534,4.8 10.4047619,4.55527954 10.4047619,4.26166992 L10.4047619,3.20499674 C10.4047619,2.90768525 10.1692229,2.66666667 9.86757115,2.66666667 L6.02380952,2.66666667 L6.02380952,0 L3.83333333,0 L3.83333333,2.66666667 L0,2.66666667 Z" id="Rectangle-2" fill="#FFFFFF" mask="url(#mask-2)"></path>
                <polygon id="Rectangle-36" fill="#DB1E36" mask="url(#mask-2)" points="0 3.2 4.38095238 3.2 4.38095238 2.66666667 4.38095238 0 5.47619048 0 5.47619048 2.66666667 5.47619048 3.2 9.85714286 3.2 9.85714286 4.26666667 5.47619048 4.26666667 5.47619048 4.8 5.47619048 7.46666667 4.38095238 7.46666667 4.38095238 4.8 4.38095238 4.26666667 0 4.26666667"></polygon>
            </g>
        </g>
    </g>
</svg>