<?xml version="1.0" encoding="UTF-8"?>
<svg width="14px" height="15px" viewBox="0 0 14 15" version="1.1" xmlns="http://www.w3.org/2000/svg" xmlns:xlink="http://www.w3.org/1999/xlink">
    <!-- Generator: Sketch 39.1 (31720) - http://www.bohemiancoding.com/sketch -->
    <title>-g-Draft Icon</title>
    <desc>Created with Sketch.</desc>
    <defs></defs>
    <g id="Other" stroke="none" stroke-width="1" fill="none" fill-rule="evenodd">
        <g id="Icons-selected-and-unselected" transform="translate(-364.000000, -541.000000)" fill="#3190E6">
            <path d="M378,543.727273 L378,555.318182 C378,555.509091 377.936364,555.670455 377.809091,555.801818 C377.681818,555.934545 377.533758,556 377.363636,556 L375.454545,556 L375.454545,550.545455 L366.545455,550.545455 L366.545455,556 L364.636364,556 C364.458182,556 364.307576,555.934545 364.18497,555.801818 C364.061515,555.670455 364,555.509091 364,555.318182 L364,541.681818 C364,541.5 364.061515,541.340909 364.18497,541.204091 C364.307576,541.068182 364.458182,541 364.636364,541 L367.818182,541 L367.818182,545.090909 L374.181818,545.090909 L374.181818,541 L375.454545,541 L378,543.727273 L378,543.727273 L378,543.727273 L378,543.727273 Z M371.636364,543.727273 L372.909091,543.727273 L372.909091,541 L371.636364,541 L371.636364,541 L371.636364,543.727273 L371.636364,543.727273 Z" id="-g-Draft-Icon"></path>
        </g>
    </g>
</svg>