<?xml version="1.0" encoding="UTF-8"?>
<svg width="21px" height="20px" viewBox="0 0 21 20" version="1.1" xmlns="http://www.w3.org/2000/svg" xmlns:xlink="http://www.w3.org/1999/xlink">
    <!-- Generator: Sketch 39.1 (31720) - http://www.bohemiancoding.com/sketch -->
    <title>Group</title>
    <desc>Created with Sketch.</desc>
    <defs>
        <rect id="path-1" x="0" y="10" width="13.3228766" height="10"></rect>
        <mask id="mask-2" maskContentUnits="userSpaceOnUse" maskUnits="objectBoundingBox" x="0" y="0" width="13.3228766" height="10" fill="white">
            <use xlink:href="#path-1"></use>
        </mask>
        <rect id="path-3" x="0" y="7" width="13.3228766" height="2"></rect>
        <mask id="mask-4" maskContentUnits="userSpaceOnUse" maskUnits="objectBoundingBox" x="0" y="0" width="13.3228766" height="2" fill="white">
            <use xlink:href="#path-3"></use>
        </mask>
        <rect id="path-5" x="3" y="6" width="1.35714286" height="1"></rect>
        <mask id="mask-6" maskContentUnits="userSpaceOnUse" maskUnits="objectBoundingBox" x="0" y="0" width="1.35714286" height="1" fill="white">
            <use xlink:href="#path-5"></use>
        </mask>
        <rect id="path-7" x="10.6428571" y="6" width="1.35714286" height="1"></rect>
        <mask id="mask-8" maskContentUnits="userSpaceOnUse" maskUnits="objectBoundingBox" x="0" y="0" width="1.35714286" height="1" fill="white">
            <use xlink:href="#path-7"></use>
        </mask>
        <rect id="path-9" x="2" y="13" width="1" height="1"></rect>
        <mask id="mask-10" maskContentUnits="userSpaceOnUse" maskUnits="objectBoundingBox" x="0" y="0" width="1" height="1" fill="white">
            <use xlink:href="#path-9"></use>
        </mask>
        <rect id="path-11" x="4" y="13" width="1" height="1"></rect>
        <mask id="mask-12" maskContentUnits="userSpaceOnUse" maskUnits="objectBoundingBox" x="0" y="0" width="1" height="1" fill="white">
            <use xlink:href="#path-11"></use>
        </mask>
        <rect id="path-13" x="6" y="13" width="1" height="1"></rect>
        <mask id="mask-14" maskContentUnits="userSpaceOnUse" maskUnits="objectBoundingBox" x="0" y="0" width="1" height="1" fill="white">
            <use xlink:href="#path-13"></use>
        </mask>
        <rect id="path-15" x="8" y="13" width="1" height="1"></rect>
        <mask id="mask-16" maskContentUnits="userSpaceOnUse" maskUnits="objectBoundingBox" x="0" y="0" width="1" height="1" fill="white">
            <use xlink:href="#path-15"></use>
        </mask>
        <rect id="path-17" x="10" y="13" width="1" height="1"></rect>
        <mask id="mask-18" maskContentUnits="userSpaceOnUse" maskUnits="objectBoundingBox" x="0" y="0" width="1" height="1" fill="white">
            <use xlink:href="#path-17"></use>
        </mask>
        <rect id="path-19" x="10" y="15" width="1" height="1"></rect>
        <mask id="mask-20" maskContentUnits="userSpaceOnUse" maskUnits="objectBoundingBox" x="0" y="0" width="1" height="1" fill="white">
            <use xlink:href="#path-19"></use>
        </mask>
        <rect id="path-21" x="10" y="17" width="1" height="1"></rect>
        <mask id="mask-22" maskContentUnits="userSpaceOnUse" maskUnits="objectBoundingBox" x="0" y="0" width="1" height="1" fill="white">
            <use xlink:href="#path-21"></use>
        </mask>
        <rect id="path-23" x="8" y="15" width="1" height="1"></rect>
        <mask id="mask-24" maskContentUnits="userSpaceOnUse" maskUnits="objectBoundingBox" x="0" y="0" width="1" height="1" fill="white">
            <use xlink:href="#path-23"></use>
        </mask>
        <rect id="path-25" x="8" y="17" width="1" height="1"></rect>
        <mask id="mask-26" maskContentUnits="userSpaceOnUse" maskUnits="objectBoundingBox" x="0" y="0" width="1" height="1" fill="white">
            <use xlink:href="#path-25"></use>
        </mask>
        <rect id="path-27" x="6" y="15" width="1" height="1"></rect>
        <mask id="mask-28" maskContentUnits="userSpaceOnUse" maskUnits="objectBoundingBox" x="0" y="0" width="1" height="1" fill="white">
            <use xlink:href="#path-27"></use>
        </mask>
        <rect id="path-29" x="6" y="17" width="1" height="1"></rect>
        <mask id="mask-30" maskContentUnits="userSpaceOnUse" maskUnits="objectBoundingBox" x="0" y="0" width="1" height="1" fill="white">
            <use xlink:href="#path-29"></use>
        </mask>
        <rect id="path-31" x="4" y="15" width="1" height="1"></rect>
        <mask id="mask-32" maskContentUnits="userSpaceOnUse" maskUnits="objectBoundingBox" x="0" y="0" width="1" height="1" fill="white">
            <use xlink:href="#path-31"></use>
        </mask>
        <rect id="path-33" x="4" y="17" width="1" height="1"></rect>
        <mask id="mask-34" maskContentUnits="userSpaceOnUse" maskUnits="objectBoundingBox" x="0" y="0" width="1" height="1" fill="white">
            <use xlink:href="#path-33"></use>
        </mask>
        <rect id="path-35" x="2" y="15" width="1" height="1"></rect>
        <mask id="mask-36" maskContentUnits="userSpaceOnUse" maskUnits="objectBoundingBox" x="0" y="0" width="1" height="1" fill="white">
            <use xlink:href="#path-35"></use>
        </mask>
        <rect id="path-37" x="2" y="17" width="1" height="1"></rect>
        <mask id="mask-38" maskContentUnits="userSpaceOnUse" maskUnits="objectBoundingBox" x="0" y="0" width="1" height="1" fill="white">
            <use xlink:href="#path-37"></use>
        </mask>
    </defs>
    <g id="Page-1" stroke="none" stroke-width="1" fill="none" fill-rule="evenodd">
        <g id="Group">
            <use id="Rectangle" stroke="#777777" mask="url(#mask-2)" stroke-width="2" fill="#777777" xlink:href="#path-1"></use>
            <use id="Rectangle-2" stroke="#777777" mask="url(#mask-4)" stroke-width="2" fill="#D8D8D8" xlink:href="#path-3"></use>
            <use id="Rectangle-3" stroke="#979797" mask="url(#mask-6)" stroke-width="2" fill="#D8D8D8" xlink:href="#path-5"></use>
            <use id="Rectangle-4" stroke="#979797" mask="url(#mask-8)" stroke-width="2" fill="#D8D8D8" xlink:href="#path-7"></use>
            <use id="Rectangle-5" stroke="#FFFFFF" mask="url(#mask-10)" stroke-width="2" fill="#FFFFFF" xlink:href="#path-9"></use>
            <use id="Rectangle-6" stroke="#FFFFFF" mask="url(#mask-12)" stroke-width="2" fill="#FFFFFF" xlink:href="#path-11"></use>
            <use id="Rectangle-6" stroke="#FFFFFF" mask="url(#mask-14)" stroke-width="2" fill="#FFFFFF" xlink:href="#path-13"></use>
            <use id="Rectangle-6" stroke="#FFFFFF" mask="url(#mask-16)" stroke-width="2" fill="#FFFFFF" xlink:href="#path-15"></use>
            <use id="Rectangle-6" stroke="#FFFFFF" mask="url(#mask-18)" stroke-width="2" fill="#FFFFFF" xlink:href="#path-17"></use>
            <use id="Rectangle-6" stroke="#FFFFFF" mask="url(#mask-20)" stroke-width="2" fill="#FFFFFF" xlink:href="#path-19"></use>
            <use id="Rectangle-6" stroke="#FFFFFF" mask="url(#mask-22)" stroke-width="2" fill="#FFFFFF" xlink:href="#path-21"></use>
            <use id="Rectangle-6" stroke="#FFFFFF" mask="url(#mask-24)" stroke-width="2" fill="#FFFFFF" xlink:href="#path-23"></use>
            <use id="Rectangle-6" stroke="#FFFFFF" mask="url(#mask-26)" stroke-width="2" fill="#FFFFFF" xlink:href="#path-25"></use>
            <use id="Rectangle-6" stroke="#FFFFFF" mask="url(#mask-28)" stroke-width="2" fill="#FFFFFF" xlink:href="#path-27"></use>
            <use id="Rectangle-6" stroke="#FFFFFF" mask="url(#mask-30)" stroke-width="2" fill="#FFFFFF" xlink:href="#path-29"></use>
            <use id="Rectangle-6" stroke="#FFFFFF" mask="url(#mask-32)" stroke-width="2" fill="#FFFFFF" xlink:href="#path-31"></use>
            <use id="Rectangle-6" stroke="#FFFFFF" mask="url(#mask-34)" stroke-width="2" fill="#FFFFFF" xlink:href="#path-33"></use>
            <use id="Rectangle-6" stroke="#FFFFFF" mask="url(#mask-36)" stroke-width="2" fill="#FFFFFF" xlink:href="#path-35"></use>
            <use id="Rectangle-6" stroke="#FFFFFF" mask="url(#mask-38)" stroke-width="2" fill="#FFFFFF" xlink:href="#path-37"></use>
            <path d="M13.4916107,1.6901566 C14.25783,1.19301516 15.0939597,0.944444444 16,0.944444444 C16.9063199,0.944444444 17.74217,1.19301516 18.5086689,1.6901566 C19.2746085,2.18729804 19.8814318,2.86154611 20.3291387,3.71290082 C20.7762864,4.56456624 21,5.49328859 21,6.5 C21,7.50671141 20.7762864,8.43574447 20.3291387,9.28709918 C19.8814318,10.1384539 19.2746085,10.812702 18.5086689,11.3098434 C17.74217,11.8069848 16.9063199,12.0555556 16,12.0555556 C15.0939597,12.0555556 14.25783,11.8069848 13.4916107,11.3098434 C12.7251119,10.812702 12.1182886,10.1384539 11.6711409,9.28709918 C11.2237136,8.43574447 11,7.50671141 11,6.5 C11,5.49328859 11.2237136,4.56456624 11.6711409,3.71290082 C12.1182886,2.86154611 12.7251119,2.18729804 13.4916107,1.6901566 C13.4916107,1.6901566 12.7251119,2.18729804 13.4916107,1.6901566 L13.4916107,1.6901566 L13.4916107,1.6901566 Z M18.4541387,3.77348993 C17.7746085,3.01845638 16.9563758,2.6409396 16,2.6409396 C15.0436242,2.6409396 14.2256711,3.01845638 13.5461409,3.77348993 C12.8666107,4.52852349 12.5268456,5.43736018 12.5268456,6.5 C12.5268456,7.56263982 12.8666107,8.47147651 13.5461409,9.22651007 C14.2256711,9.98154362 15.0436242,10.3590604 16,10.3590604 C16.9563758,10.3590604 17.7746085,9.98154362 18.4541387,9.22651007 C19.1333893,8.47147651 19.4731544,7.56263982 19.4731544,6.5 C19.4731544,5.43736018 19.1333893,4.52852349 18.4541387,3.77348993 C18.4541387,3.77348993 19.1333893,4.52852349 18.4541387,3.77348993 L18.4541387,3.77348993 L18.4541387,3.77348993 Z M16,6.5 L17.6778523,6.5 L17.6778523,7.43214019 L15.1610738,7.43214019 L15.1610738,3.70357942 L16,3.70357942 L16,6.5 L16,6.5 Z" id="Clock-Icon-Copy-2" fill="#777777"></path>
        </g>
    </g>
</svg>