<?xml version="1.0" encoding="UTF-8"?>
<svg width="16px" height="22px" viewBox="0 0 16 22" version="1.1" xmlns="http://www.w3.org/2000/svg" xmlns:xlink="http://www.w3.org/1999/xlink">
    <!-- Generator: Sketch 39.1 (31720) - http://www.bohemiancoding.com/sketch -->
    <title>-g-Send Icon</title>
    <desc>Created with Sketch.</desc>
    <defs></defs>
    <g id="Other" stroke="none" stroke-width="1" fill="none" fill-rule="evenodd">
        <g id="Icons-selected-and-unselected" transform="translate(-157.000000, -535.000000)" fill="#3190E6">
            <g id="-g-Send-Icon" transform="translate(157.000000, 535.000000)">
                <path d="M1.928537,13.1456963 C2.51798015,12.7757402 3.12070208,12.3900821 3.60076403,11.9149987 C3.828529,11.6899995 4.291261,11.2652777 4.1906573,10.9320874 C4.15284652,10.8072368 4.15937338,10.6908117 4.19628391,10.5875993 C4.17647826,10.4884082 4.15802299,10.3874937 4.14136824,10.2846643 L3.1526612,9.90762312 L1.69019401,10.4656211 C1.53467465,11.2419161 1.49798919,12.2317209 1.72710454,13.2676746 C1.79439874,13.227079 1.86214306,13.1874408 1.928537,13.1456963 L1.928537,13.1456963 L1.928537,13.1456963 Z M4.07722495,9.12577493 C4.11323522,8.68669144 4.23454482,8.25335261 4.50057071,7.86156682 C6.98145341,4.20413347 5.18589121,2.54335234 3.7159969,1.76954668 C3.7159969,1.76954668 5.36346686,5.24200199 3.13960748,8.79277615 L3.15288627,8.8326058 L3.17044127,8.77994641 L4.07722495,9.12577493 L4.07722495,9.12577493 Z M3.12317779,8.78435065 C3.50173578,7.92399212 4.21586449,4.90210962 3.28454882,2.96156357 C3.28454882,2.96156357 3.57510671,6.88976188 2.18083398,9.14415784 L3.12317779,8.78435065 L3.12317779,8.78435065 Z" id="Shape-Copy-18"></path>
                <path d="M6.22501263,0.0114893194 C6.91685999,1.48403709 9.27778347,4.54574923 4.73486254,9.37700805 L3.59581262,8.94213731 C7.06630262,3.8810921 6.22501263,0.0114893194 6.22501263,0.0114893194 L6.22501263,0.0114893194 L6.22501263,0.0114893194 Z M3.97302022,10.2207071 C2.13334543,12.6796129 3.3997817,16.0923238 8.0453319,17.0804052 C8.8242791,17.2460429 11.2317909,17.1106604 12.2412038,15.6494105 C13.6525814,13.6054606 12.2794647,11.8793818 11.1246603,10.5466208 L12.1518533,10.1806859 C12.3699405,10.3334939 12.6148104,10.4887912 12.8929898,10.6640033 C14.8877338,12.2832314 16.4917664,14.9102643 14.6505161,17.9985933 C12.8090408,21.0867309 9.05654536,21.3280066 7.78155665,21.3280066 C6.50724314,21.3280066 2.50537656,20.7119876 1.05461271,18.0142954 C-0.658350939,14.8292646 0.325854819,11.8460628 1.31253628,10.6100035 L2.75834872,10.0583247 C2.53981138,10.3668129 2.39622042,10.5230677 2.39622042,10.5230677 C2.52855817,10.3647065 2.65549438,10.2073029 2.77905463,10.0504737 L3.1526612,9.90762312 L3.97302022,10.2207071 L3.97302022,10.2207071 Z M10.3898257,9.67400695 C9.38896519,8.28916099 10.3040762,6.68774135 10.3040762,6.68774135 C10.5748285,8.05688525 10.8469311,8.81479735 11.2623996,9.36302938 L10.3898257,9.67400695 L10.3898257,9.67400695 Z M2.83667106,8.89388217 C3.62844693,7.82767332 4.3434759,6.63737983 4.3434759,6.63737983 C4.08577738,7.54522755 3.76641128,8.29777798 3.46077409,8.89100984 L3.17021621,8.7801379 L3.1526612,8.83298877 L3.13510619,8.7801379 L2.83667106,8.89388217 L2.83667106,8.89388217 Z" id="Shape-Copy-19"></path>
                <path d="M6.33034268,1.4838456 C7.01746369,2.94547852 8.79277012,4.77553562 5.14605484,9.53383726 L4.05584385,9.11792389 C7.38094237,4.31423944 6.33034268,1.4838456 6.33034268,1.4838456 L6.33034268,1.4838456 L6.33034268,1.4838456 Z M8.4866828,17.3996168 C9.26563,17.5652545 11.6731418,17.429872 12.6821046,15.9690051 C14.2262701,13.7335665 12.4394854,11.8786159 11.2500211,10.5016209 L12.2024928,10.162303 C12.5760994,10.4282808 12.9575832,10.677599 13.3343407,10.9832149 C15.3286346,12.6030175 16.9326671,15.2296674 15.091867,18.3178049 C13.2508418,21.4063255 9.49789626,21.6472182 8.22290755,21.6472182 C6.94859404,21.6472182 2.94717758,21.0311992 1.49596361,18.333507 C-0.416181857,14.7789031 0.972014144,11.4244048 2.03454224,10.5207698 C2.13739658,10.433068 2.24587753,10.3283237 2.35773444,10.2111326 L3.15288627,9.90762312 L3.36737245,9.98938877 C3.02707538,10.5217272 2.7779293,10.7921092 2.7779293,10.7921092 C3.00119299,10.5247911 3.21095283,10.2622601 3.40878426,10.0052823 L4.47851442,10.4135361 C2.75272211,13.0286967 3.77518879,16.3973652 8.4866828,17.3996168 Z M10.569652,9.60966677 C9.79633139,8.32899063 9.85147212,7.00695294 9.85147212,7.00695294 C10.2392577,8.13788495 10.7175192,8.84447809 11.2405684,9.37068892 L10.569652,9.60966677 L10.569652,9.60966677 Z M3.42656434,8.87741414 C4.13124035,7.89507733 4.72540985,6.90603842 4.72540985,6.90603842 C4.48279064,7.7621842 4.18480563,8.47988369 3.89514801,9.05626455 L3.42656434,8.87741414 L3.42656434,8.87741414 Z" id="Shape-Copy-20"></path>
                <path d="M14.2093903,14.7249033 C14.1623519,13.6002904 13.4410211,13.1985472 11.7885997,11.9534879 C11.3508498,11.62317 10.9594632,11.1965333 10.657202,10.7128329 L12.7104627,9.98134625 C13.0863199,10.3938128 13.5215941,10.829258 13.9985051,11.4355111 C15.4674992,13.3032915 14.2093903,14.7249033 14.2093903,14.7249033 L14.2093903,14.7249033 L14.2093903,14.7249033 Z M10.201447,9.74102798 C9.82739025,8.58558543 9.97818327,7.28269661 11.0598418,6.21801967 C11.4084663,5.874872 11.2752283,6.09680735 11.2752283,6.09680735 C11.3283434,7.58678059 11.5925688,8.42875622 12.0118634,9.0959027 L10.201447,9.74102798 L10.201447,9.74102798 Z" id="Shape-Copy-21"></path>
                <path d="M13.2123559,10.8924493 C13.4813076,9.79062355 12.8936649,9.25426382 11.6382568,7.70971631 C10.3823986,6.16536029 10.1620607,3.42668952 12.5376134,1.9920565 C12.9724374,1.72933406 12.7811328,1.91814188 12.7811328,1.91814188 C11.992958,5.05855585 12.9974195,5.47753304 13.9289603,7.65514204 C14.832368,9.76707044 13.2123559,10.8924493 13.2123559,10.8924493 L13.2123559,10.8924493 L13.2123559,10.8924493 Z" id="Shape-Copy-22"></path>
            </g>
        </g>
    </g>
</svg>