<?xml version="1.0" encoding="UTF-8"?>
<svg width="84px" height="80px" viewBox="0 0 84 80" version="1.1" xmlns="http://www.w3.org/2000/svg" xmlns:xlink="http://www.w3.org/1999/xlink">
    <!-- Generator: Sketch 48.2 (47327) - http://www.bohemiancoding.com/sketch -->
    <title>sms</title>
    <desc>Created with Sketch.</desc>
    <defs>
        <polygon id="path-1" points="0 0.192330884 70.9010411 0.192330884 70.9010411 75.5705788 0 75.5705788"></polygon>
    </defs>
    <g id="Page-1" stroke="none" stroke-width="1" fill="none" fill-rule="evenodd" opacity="0.80395154">
        <g id="sms">
            <g id="Group-3" transform="translate(0.000000, 4.000000)">
                <mask id="mask-2" fill="white">
                    <use xlink:href="#path-1"></use>
                </mask>
                <g id="Clip-2"></g>
                <path d="M49.7926561,37.1155928 C49.6559978,37.6345537 49.5438223,38.3003864 49.3012204,38.9192543 C49.0067596,39.671118 49.3617596,40.0536675 50.0363708,40.1251821 C51.8249476,40.315176 53.6564806,40.6981526 55.4101138,40.5026083 C58.8296875,40.1213395 60.6828097,37.5728591 59.9020323,34.778027 C59.4319633,33.0945526 58.0700542,32.2707474 56.5429978,31.6136673 C55.5999665,31.2076353 54.6130887,30.8703427 53.7354931,30.3603477 C53.3711451,30.1485792 53.0027909,29.5301383 53.0651107,29.1638129 C53.1374461,28.7387815 53.6242078,28.3094806 54.0393019,28.0304671 C54.339327,27.8289454 54.8263113,27.7798458 55.2126937,27.8195524 C56.3366749,27.9348297 57.4519759,28.1288796 58.6758912,28.3075593 C58.8995746,27.5140678 59.1452925,26.642017 59.4235056,25.6559698 C56.7317376,24.7768743 54.1325589,24.4658393 51.6188473,25.8090323 C48.6459727,27.3979367 48.5075339,31.1119979 51.3321765,32.923985 C52.1523489,33.4499907 53.1200856,33.7620931 54.0132611,34.1856301 C54.6068567,34.4669919 55.2552047,34.6926364 55.7602172,35.084152 C56.6872235,35.8020729 56.4935871,37.0649989 55.4072204,37.5186361 C54.9467219,37.7109783 54.3878473,37.8478166 53.9017533,37.7910319 C52.5621013,37.6341268 51.2373614,37.361731 49.7926561,37.1155928 M21.0950793,25.7646293 C18.8248599,24.7006632 15.5070009,24.6818773 13.5488254,25.6617337 C10.3923301,27.2412451 10.12391,31.052438 13.0674053,32.9570738 C13.763606,33.4072954 14.5837784,33.6816125 15.3467502,34.0366237 C16.0104555,34.345097 16.7322517,34.5752244 17.3254022,34.9789082 C18.4400354,35.7378165 18.2517408,37.1713101 16.9463646,37.551298 C16.1293082,37.7888971 15.1905056,37.7974362 14.3311608,37.7024392 C13.4014837,37.5997571 12.5005182,37.2567006 11.5227658,37.0018099 C11.344932,37.6524858 11.220515,38.2790388 10.9992799,38.872503 C10.7417658,39.5633124 10.9500918,39.9198179 11.6732235,40.1307325 C13.7754022,40.7442635 15.8967219,40.8990338 18.0251639,40.3444223 C20.7857063,39.6247936 22.2566749,37.3380351 21.6058787,34.8305421 C21.1680824,33.1432252 19.8179696,32.2942298 18.2877972,31.6348014 C17.3445433,31.228129 16.3485401,30.9057798 15.4771765,30.3887401 C15.0921295,30.1603204 14.7226624,29.5154084 14.7749665,29.1106573 C14.8279382,28.7035579 15.3549853,28.1391265 15.7783144,28.0360174 C16.5753395,27.8419675 17.4533803,27.8562704 18.2855715,27.9237289 C18.959515,27.9783788 19.615653,28.2377526 20.3372266,28.4209153 C20.5994147,27.5012592 20.841794,26.6522639 21.0950793,25.7646293 M40.1989759,28.7964201 C40.3449821,32.8078539 40.4827533,36.590868 40.6198567,40.3523209 L44.1780918,40.3523209 C43.8885276,35.2628317 43.604305,30.2711146 43.3149633,25.1908049 C41.9750887,25.1908049 40.7529539,25.2471626 39.5397219,25.1709516 C38.7357972,25.1203577 38.4551357,25.4437743 38.2541545,26.1211347 C37.4046028,28.9889758 36.507421,31.8437948 35.6224806,34.7018159 C35.5614962,34.8992815 35.4595589,35.0852194 35.3707533,35.2899432 C34.3945589,31.8704793 33.4415119,28.531923 32.5078285,25.2614656 L27.6028191,25.2614656 C27.2705213,30.3385732 26.9426749,35.3488627 26.6090417,40.4449697 C27.1572329,40.4449697 27.4868599,40.4432618 27.8164868,40.4451831 C30.0119226,40.4579917 29.986327,40.4573513 30.0722392,38.3936756 C30.2017752,35.2792694 30.3711514,32.1663575 30.5293991,28.9360337 C31.5912831,32.7739111 32.6184461,36.4875454 33.629584,40.1422602 C36.4553395,40.3301194 36.4629069,40.3324676 37.2218724,38.0049352 C38.2009602,35.0006828 39.1664712,31.9921608 40.1989759,28.7964201 M14.9766154,75.5705788 C17.3100448,70.1570325 17.9935589,65.0276232 16.2902266,59.7415222 C16.1037125,59.1625744 15.5969194,58.566762 15.0674241,58.2181551 C7.17640846,53.0219277 1.99006991,46.0886434 0.452775235,36.9352053 C-1.15618715,27.3533201 1.53936458,18.8373223 8.2667815,11.6589672 C16.2855527,3.10304926 26.5511734,-0.627236158 38.3954868,0.342159865 C51.9271075,1.44988855 62.1925056,7.75512549 68.0336467,19.7132157 C74.075769,32.0824613 70.3072047,46.8008005 59.1931451,55.7360658 C52.7452768,60.9201251 45.2824868,63.6186794 36.8886843,63.9243775 C35.9576718,63.9581068 35.4615621,64.2473672 34.9975025,65.0271962 C32.1461514,69.8186725 27.5776687,72.4807223 22.2675809,74.0587394 C19.9572987,74.7452793 17.5252705,75.0550334 14.9766154,75.5705788" id="Fill-1" fill="#4C93E3" mask="url(#mask-2)"></path>
            </g>
            <path d="M70.8227435,25.1251923 C66.1992096,12.0679615 55.9917952,4.72798083 42,1.35156386 C43.838551,0.981097081 45.3756892,0.575737503 46.9411059,0.371334612 C57.2811599,-0.978069084 66.5917421,1.29405535 74.3748367,8.11021327 C85.4552935,17.814289 87.125969,33.4451869 78.5699289,45.6223437 C78.3609823,45.9197941 78.1883937,46.2583835 77.9206457,46.4968176 C75.9077106,48.2886276 76.0419213,50.5273669 76.6225281,52.7611523 C77.366073,55.6225774 78.5162895,58.3528314 80.2365646,60.8190201 C80.748944,61.5537074 81.439074,62.1735931 82.0423485,62.8402179 C78.0750553,65.2644061 66.728197,63.6806606 62.1403479,60.0145472 C71.8389739,49.9440971 75.4949793,38.3213482 70.8227435,25.1251923 Z" id="Fill-4" fill="#61A6E9"></path>
        </g>
    </g>
</svg>