<?xml version="1.0" encoding="UTF-8"?>
<svg width="170px" height="47px" viewBox="0 0 170 47" version="1.1" xmlns="http://www.w3.org/2000/svg" xmlns:xlink="http://www.w3.org/1999/xlink">
    <!-- Generator: Sketch 39.1 (31720) - http://www.bohemiancoding.com/sketch -->
    <title>Call_Burn LOGO</title>
    <desc>Created with Sketch.</desc>
    <defs>
        <linearGradient x1="49.9999972%" y1="-0.000522115834%" x2="49.9999972%" y2="99.9994882%" id="linearGradient-1">
            <stop stop-color="#D11A1C" offset="0%"></stop>
            <stop stop-color="#FFE500" offset="100%"></stop>
        </linearGradient>
        <linearGradient x1="50.0001804%" y1="99.9998541%" x2="50.0001804%" y2="0.000583600817%" id="linearGradient-2">
            <stop stop-color="#FFE900" offset="0%"></stop>
            <stop stop-color="#DC5F13" offset="100%"></stop>
        </linearGradient>
        <linearGradient x1="4.24998921%" y1="50.0619108%" x2="103.198466%" y2="49.5635078%" id="linearGradient-3">
            <stop stop-color="#F0BAA2" offset="0%"></stop>
            <stop stop-color="#F5CFAC" offset="39.85%"></stop>
            <stop stop-color="#F8DDB2" offset="75.52%"></stop>
            <stop stop-color="#F9E2B5" offset="100%"></stop>
        </linearGradient>
        <linearGradient x1="65.6957268%" y1="104.494064%" x2="36.002619%" y2="-4.66733375%" id="linearGradient-4">
            <stop stop-color="#F0BAA2" offset="0%"></stop>
            <stop stop-color="#F5CFAC" offset="39.85%"></stop>
            <stop stop-color="#F8DDB2" offset="75.52%"></stop>
            <stop stop-color="#F9E2B5" offset="100%"></stop>
        </linearGradient>
        <linearGradient x1="49.999845%" y1="100.000325%" x2="49.999845%" y2="0.00113782286%" id="linearGradient-5">
            <stop stop-color="#F0BAA2" offset="0%"></stop>
            <stop stop-color="#F1C0A4" offset="8.45%"></stop>
            <stop stop-color="#F6D6AB" offset="46.27%"></stop>
            <stop stop-color="#F9E3AE" offset="78.14%"></stop>
            <stop stop-color="#FAE7AF" offset="100%"></stop>
        </linearGradient>
        <linearGradient x1="5.53421183%" y1="92.6961048%" x2="99.9681373%" y2="0.043853771%" id="linearGradient-6">
            <stop stop-color="#F0BAA2" offset="0%"></stop>
            <stop stop-color="#F5CFAC" offset="39.85%"></stop>
            <stop stop-color="#F8DDB2" offset="75.52%"></stop>
            <stop stop-color="#F9E2B5" offset="100%"></stop>
        </linearGradient>
        <linearGradient x1="50.0032353%" y1="99.9993339%" x2="50.0032353%" y2="-0.00049960864%" id="linearGradient-7">
            <stop stop-color="#EC9500" offset="0%"></stop>
            <stop stop-color="#E8810B" offset="6.37%"></stop>
            <stop stop-color="#E26614" offset="16.27%"></stop>
            <stop stop-color="#DE4F18" offset="27.14%"></stop>
            <stop stop-color="#DC3A1A" offset="39.14%"></stop>
            <stop stop-color="#DA281B" offset="52.88%"></stop>
            <stop stop-color="#D9191B" offset="69.89%"></stop>
            <stop stop-color="#D9121B" offset="100%"></stop>
        </linearGradient>
        <linearGradient x1="50.0002741%" y1="100.000359%" x2="50.0002741%" y2="0.000449155587%" id="linearGradient-8">
            <stop stop-color="#E42E18" offset="0%"></stop>
            <stop stop-color="#FDD403" offset="100%"></stop>
        </linearGradient>
        <linearGradient x1="-0.000954889317%" y1="49.999905%" x2="99.9994483%" y2="49.999905%" id="linearGradient-9">
            <stop stop-color="#E42E18" offset="0%"></stop>
            <stop stop-color="#FDD403" offset="100%"></stop>
        </linearGradient>
        <linearGradient x1="100.000657%" y1="49.9998465%" x2="-0.00347230841%" y2="49.9998465%" id="linearGradient-10">
            <stop stop-color="#CB2F21" offset="0%"></stop>
            <stop stop-color="#CC3721" offset="9.55%"></stop>
            <stop stop-color="#CF4C21" offset="23.88%"></stop>
            <stop stop-color="#D56920" offset="41.2%"></stop>
            <stop stop-color="#DE8F1C" offset="60.85%"></stop>
            <stop stop-color="#EABA0F" offset="82.18%"></stop>
            <stop stop-color="#F5DE00" offset="100%"></stop>
        </linearGradient>
        <linearGradient x1="-14.0292303%" y1="40.4436359%" x2="128.839768%" y2="57.5183851%" id="linearGradient-11">
            <stop stop-color="#EEAB0C" offset="0%"></stop>
            <stop stop-color="#EA8912" offset="21.99%"></stop>
            <stop stop-color="#E66415" offset="46.63%"></stop>
            <stop stop-color="#E54517" offset="68.74%"></stop>
            <stop stop-color="#E42D18" offset="87.28%"></stop>
            <stop stop-color="#E32119" offset="100%"></stop>
        </linearGradient>
    </defs>
    <g id="Page-1" stroke="none" stroke-width="1" fill="none" fill-rule="evenodd">
        <g id="Homepage-Copy" transform="translate(-25.000000, -89.000000)">
            <g id="Call_Burn-LOGO" transform="translate(25.000000, 89.000000)">
                <g id="Burn" transform="translate(70.593220, 0.000000)">
                    <path d="M4.87436816,8.52566256 L0.0745009,42.9966159 L13.5842354,44.9417765 C20.3635496,45.9174164 25.0171115,43.5366408 25.9773106,36.6429091 C26.5978859,32.1819667 25.3992354,29.8375242 22.6841248,28.1543446 C25.6158726,26.8180506 26.938262,24.9914507 27.4817354,21.0885086 C28.3990584,14.4988277 25.0137266,11.4254281 18.1840142,10.4421391 L4.87436816,8.52566256 L4.87436816,8.52566256 Z M15.2398549,30.49458 C17.981669,30.8892725 19.4428416,32.4439476 19.047554,35.2832854 C18.5751646,38.6790937 16.9097664,39.3185566 14.0682841,38.9097134 L7.78731063,38.0052099 L8.95888143,29.590459 L15.2398549,30.49458 L15.2398549,30.49458 Z M17.0022885,16.3732343 C19.5947885,16.7468918 20.7708726,18.1569994 20.375585,20.9955723 C19.9949655,23.7331774 18.6007398,24.9799771 15.9089478,24.5925513 L9.77728851,23.7098477 L10.9206513,15.4974149 L17.0022885,16.3732343 L17.0022885,16.3732343 Z" id="Shape-Copy-33" fill="url(#linearGradient-1)"></path>
                    <path d="M57.3802974,44.6285467 L64.1272664,44.6285467 L64.1272664,27.4770187 C64.1272664,27.4770187 67.7017797,26.1969455 72.1319345,25.3264804 L72.1319345,18.4151558 C68.3054301,19.1831232 64.0764921,21.7428872 64.0764921,21.7428872 L64.0764921,19.0293767 L57.3799213,19.0293767 L57.3799213,44.6285467 L57.3802974,44.6285467 L57.3802974,44.6285467 Z M83.9638593,44.6285467 L83.9638593,25.4806093 C83.9638593,25.4806093 86.1795009,24.5588954 88.545585,24.5588954 C91.818085,24.5588954 92.3220673,27.067793 92.3220673,30.9584966 L92.3220673,44.6285467 L99.0686602,44.6285467 L99.0686602,30.7538838 C99.0686602,22.9208453 97.2565805,18.4151558 90.2072221,18.4151558 C87.3371558,18.4151558 83.9142133,20.462814 83.9142133,20.462814 L83.9142133,19.0293767 L77.2176425,19.0293767 L77.2176425,44.6285467 L83.9638593,44.6285467 L83.9638593,44.6285467 L83.9638593,44.6285467 Z" id="Shape-Copy-34" fill="url(#linearGradient-2)"></path>
                    <path d="M36.1445894,20.8467977 C33.2606071,26.0699708 33.7292354,33.4616575 43.3455186,36.2245045 C44.6366912,36.5954848 48.6704301,36.2849322 50.3565142,33.3671914 C52.9369788,28.9024244 49.9510717,25.1975934 47.9633505,22.4473673 L50.3147664,21.4399837 C50.9391027,21.9712122 51.5766027,22.4691672 52.2062044,23.0795636 C55.5388814,26.3147413 57.4600319,31.8905368 54.3834832,38.058371 C51.3069345,44.2269701 45.0353637,44.7080971 42.9047221,44.7080971 C40.7752089,44.7080971 34.0884168,43.4777429 31.6632841,38.0897322 C28.4678859,30.9902403 30.7877089,24.2904127 32.5633062,22.4856127 C32.7351867,22.3104488 32.9164699,22.1012465 33.1033947,21.8671847 L34.4321779,21.2609953 L34.7906071,21.4243031 C34.2219345,22.487525 33.805585,23.0275499 33.805585,23.0275499 C34.1786823,22.4936442 35.2558505,21.1091611 35.5864478,20.5959079 L36.1445894,20.8467977 L36.1445894,20.8467977 Z" id="Shape-Copy-51" fill="#FCE1D2"></path>
                    <path d="M35.4687266,21.5876109 C32.5847443,26.810784 35.2840584,33.5389132 43.1570894,35.5406769 C44.4587929,35.8714996 48.4820009,35.6011046 50.168085,32.6833638 C52.7485496,28.2185968 49.7626425,24.5137658 47.7749213,21.7635397 L49.3666027,21.0858314 C49.990939,21.6170599 50.628439,22.1150149 51.2580407,22.7254113 C54.5907177,25.9605889 57.2712266,31.2067092 54.195054,37.3745434 C51.1185053,43.5431425 44.8469345,44.0242695 42.7162929,44.0242695 C40.5867797,44.0242695 33.8999876,42.7939153 31.4748549,37.4059046 C28.2794567,30.3064127 30.5992797,23.6065851 32.374877,21.8017851 C32.5467575,21.6266212 32.7280407,21.4174189 32.9149655,21.1833572 L34.2437487,20.5771677 L34.6021779,20.7404755 C34.0335053,21.8036974 33.6171558,22.3437223 33.6171558,22.3437223 C33.9902531,21.8098167 34.3407841,21.2854723 34.6713814,20.7722192 L35.4687266,21.5876109 L35.4687266,21.5876109 Z" id="Shape-Copy-52" fill="#FACCB0"></path>
                    <path d="M33.550585,17.0884231 C33.5039478,15.234669 33.2214921,13.3162802 32.5050097,11.779198 C32.5050097,11.779198 32.8058947,14.3630566 32.6644788,17.4387509 L33.550585,17.0884231 L33.550585,17.0884231 Z" id="Shape-Copy-53" fill="url(#linearGradient-3)"></path>
                    <path d="M37.6587929,17.4708771 C37.5241469,14.6789635 36.1712929,11.7856997 33.2290142,10.4111603 C32.4200097,10.0321485 32.8021336,10.3427011 32.8021336,10.3427011 C34.0737487,13.4268094 34.2753416,15.2124867 34.0733726,16.8623929 L37.6587929,17.4708771 L37.6587929,17.4708771 Z" id="Shape-Copy-54" fill="url(#linearGradient-4)"></path>
                    <path d="M31.574523,7.00885035 C31.574523,7.00885035 37.3462487,10.8769892 36.9107177,17.6617216 C36.9107177,17.6617216 36.2525319,22.8248493 34.1647664,25.3157716 C32.1029522,27.7760976 29.0358062,30.5377973 29.0358062,30.5377973 C29.0358062,30.5377973 27.2071779,27.478931 30.6327531,20.6127359 C34.0583283,13.7465409 31.574523,7.00885035 31.574523,7.00885035 L31.574523,7.00885035 Z" id="Shape-Copy-55" fill="url(#linearGradient-5)" opacity="0.6"></path>
                    <path d="M31.5429301,6.75413605 C31.5429301,6.75413605 37.3146558,10.6222749 36.8791248,17.4070072 C36.8791248,17.4070072 36.4089921,22.8252318 34.1331735,25.0610573 C31.8472,27.3072092 29.0042133,30.2827006 29.0042133,30.2827006 C29.0042133,30.2827006 27.175585,27.2238342 30.6011602,20.3576392 C34.0267354,13.4914441 31.5429301,6.75413605 31.5429301,6.75413605 L31.5429301,6.75413605 Z" id="Shape-Copy-56"></path>
                    <path d="M36.6621115,2.95598627 C38.3158505,5.61251113 41.4864257,8.00476033 37.3940142,18.127168 L35.4540584,17.6487181 C39.1921779,7.18363179 36.6621115,2.95598627 36.6621115,2.95598627 L36.6621115,2.95598627 L36.6621115,2.95598627 Z" id="Shape-Copy-57" fill="#FDF3DA"></path>
                    <path d="M36.6858062,3.89261589 C38.1541248,6.65928748 40.8045451,8.19598729 36.2435053,17.6093254 L34.3407841,16.9958693 C38.7829744,6.81915321 36.6858062,3.89261589 36.6858062,3.89261589 L36.6858062,3.89261589 L36.6858062,3.89261589 Z" id="Shape-Copy-58" fill="#FACCB0"></path>
                    <path d="M52.7052974,28.9800626 C52.4469124,26.7480615 51.1813151,26.0481709 48.2303859,23.798577 C47.4484611,23.2015664 46.7285938,22.4064448 46.1475097,21.4854957 L49.6140805,20.064297 C50.3057398,20.8334118 50.7675982,21.433482 51.659346,22.5739596 C54.4045451,26.088711 52.7052974,28.9800626 52.7052974,28.9800626 L52.7052974,28.9800626 L52.7052974,28.9800626 Z" id="Shape-Copy-59" fill="#FEF5DD"></path>
                    <path d="M45.1835496,19.6554538 C44.218085,17.4724069 44.0744124,14.8617765 45.5397221,12.4783237 C46.0121115,11.7103563 45.8594124,12.1830693 45.8594124,12.1830693 C46.3957398,15.1099891 47.1524655,17.189391 48.0460938,18.3971804 L45.1835496,19.6554538 L45.1835496,19.6554538 Z" id="Shape-Copy-60" fill="#FDF3DA"></path>
                    <path d="M50.7954301,21.2315463 C48.8208726,18.7455959 48.2270009,17.9504743 47.3160717,14.3156323 C46.4043903,10.6811728 48.1329744,5.40369129 52.835054,4.12285315 C53.6952089,3.88764399 53.2668239,4.12858996 53.2668239,4.12858996 C49.884877,9.5426075 51.1722885,10.9209714 51.1425761,15.5490462 C51.1139921,20.0375252 50.8266469,21.5822566 50.8266469,21.5822566 L50.7954301,21.2315463 L50.7954301,21.2315463 Z" id="Shape-Copy-61" fill="url(#linearGradient-6)"></path>
                    <path d="M31.7749876,26.2554609 C32.7600097,25.5165599 33.7672221,24.7462978 34.5694567,23.7974296 C34.9500761,23.3480463 35.2163593,22.5005284 35.5217575,21.8450024 C35.6300761,21.612088 35.5029522,21.3527842 35.5646336,21.1466416 C35.5315363,20.9485305 35.5006956,20.7469772 35.4728637,20.5415995 L33.8206292,19.7885477 L31.3766912,20.9030184 C31.1168018,22.4534866 31.0554965,24.4303908 31.4383726,26.4994665 C31.5508283,26.4180038 31.6640363,26.3388359 31.7749876,26.2554609 L31.7749876,26.2554609 L31.7749876,26.2554609 Z M35.3656735,18.226606 C35.4258505,17.3496392 35.6285717,16.484146 36.0731292,15.7016453 C40.2189478,8.39677559 37.2183726,5.07975283 34.762023,3.53425658 C34.762023,3.53425658 37.5339257,10.3966271 33.8176204,17.4884699 L33.8352974,17.4586385 L33.8503416,17.5355118 L35.3656735,18.226606 L35.3656735,18.226606 Z M33.7713593,17.5446907 C34.4039699,15.8263252 35.5973549,9.79082009 34.0410274,5.91503217 C34.0410274,5.91503217 34.5265805,13.7606917 32.1966027,18.2633216 L33.7713593,17.5446907 L33.7713593,17.5446907 Z" id="Shape-Copy-62" fill="url(#linearGradient-7)"></path>
                    <path d="M38.9548549,0.0229472346 C40.1110053,2.9640178 44.0563593,9.07907336 36.4646558,18.7283855 L34.5611823,17.8598327 C40.3607398,7.75157584 38.9548549,0.0229472346 38.9548549,0.0229472346 L38.9548549,0.0229472346 L38.9548549,0.0229472346 Z M35.1915363,20.4134774 C32.1172443,25.3245681 34.2335938,32.1406617 41.9968018,34.1141238 C43.2985053,34.4449465 47.3217133,34.1745516 49.0085496,31.2560458 C51.3671115,27.1737327 49.0724876,23.7262932 47.1426867,21.064414 L48.8592354,20.3335446 C49.2236823,20.6387428 49.6328859,20.9489129 50.0977531,21.2988582 C53.4311823,24.5328885 56.1116912,29.7797737 53.0347664,35.9479903 C49.9574655,42.1158245 43.6866469,42.5977165 41.5560053,42.5977165 C39.4264921,42.5977165 32.7389478,41.3673622 30.3145673,35.9793516 C27.452023,29.6179957 29.0967354,23.6597462 30.745585,21.1910062 L33.1616912,20.0891565 C32.7964921,20.7052898 32.5565363,21.0173722 32.5565363,21.0173722 C32.7776867,20.7010828 32.9898106,20.3867057 33.1962929,20.0734759 L33.8206292,19.7881653 L35.1915363,20.4134774 L35.1915363,20.4134774 Z M45.9147,19.3215715 C44.2421558,16.5556648 45.7714036,13.3572028 45.7714036,13.3572028 C46.2238593,16.0917483 46.6785717,17.6055008 47.3728637,18.7004664 L45.9147,19.3215715 L45.9147,19.3215715 Z M33.2925761,17.7634543 C34.6157177,15.6339509 35.8106071,13.2566174 35.8106071,13.2566174 C35.3799655,15.0698314 34.8462708,16.5728753 34.3355186,17.7577175 L33.8499655,17.5362767 L33.8172443,17.5125645 L33.7912929,17.5362767 L33.2925761,17.7634543 L33.2925761,17.7634543 Z" id="Shape-Copy-63" fill="url(#linearGradient-8)"></path>
                    <path d="M39.1308726,2.96363535 C40.2791248,5.88290604 43.2458505,9.53801805 37.1518018,19.0416153 L35.3299434,18.2109254 C40.8865363,8.61668659 39.1308726,2.96363535 39.1308726,2.96363535 L39.1308726,2.96363535 L39.1308726,2.96363535 Z M34.248262,19.9832168 L36.0362708,20.7986085 C33.1522885,26.0217816 34.860939,32.7499107 42.734346,34.7516745 C44.0360496,35.0824971 48.0592575,34.8121022 49.7453416,31.8943613 C52.3258062,27.4295944 49.3398991,23.7247634 47.3521779,20.9745373 L48.9438593,20.296829 C49.5681956,20.8280575 50.2056956,21.3260125 50.8352974,21.9364089 C54.1679744,25.1715865 56.8484832,30.4177068 53.7723106,36.585541 C50.695762,42.7541401 44.4241912,43.2352671 42.2935496,43.2352671 C40.1640363,43.2352671 33.4772443,42.0049129 31.0521115,36.6169022 C27.8567133,29.5174103 30.1765363,22.8175827 31.9521336,21.0127827 C32.1240142,20.8376188 32.3052974,20.6284165 32.4922221,20.3943547 L33.8210053,19.7881653 L34.1794345,19.9514731 L34.248262,19.9832168 L34.248262,19.9832168 Z M46.2152089,19.193067 C44.922908,16.6352153 45.015054,13.9947535 45.015054,13.9947535 C45.663085,16.2535263 46.4623106,17.6647812 47.3363814,18.7157645 L46.2152089,19.193067 L46.2152089,19.193067 Z M34.2783505,17.7305633 C35.455939,15.7685747 36.4488593,13.7932003 36.4488593,13.7932003 C36.0434168,15.5031517 35.5454522,16.9365889 35.0614036,18.0877752 L34.2783505,17.7305633 L34.2783505,17.7305633 Z" id="Shape-Copy-64" fill="url(#linearGradient-9)"></path>
                    <path d="M52.2975982,29.4095583 C52.2189921,27.1634065 51.0135717,26.3610182 48.2522,23.8743029 C47.5206735,23.2145699 46.8666248,22.3624626 46.3615142,21.396384 L49.792731,19.93541 C50.4208283,20.7592158 51.1482177,21.628916 51.9451867,22.839765 C54.4000319,26.5702205 52.2975982,29.4095583 52.2975982,29.4095583 L52.2975982,29.4095583 L52.2975982,29.4095583 Z M45.5998991,19.4554304 C44.9748106,17.1477035 45.2268018,14.5454871 47.0343682,12.4190434 C47.6169567,11.733686 47.3943018,12.17695 47.3943018,12.17695 C47.4830628,15.1528239 47.9246115,16.8344737 48.6252974,18.1669432 L45.5998991,19.4554304 L45.5998991,19.4554304 Z" id="Shape-Copy-65" fill="url(#linearGradient-10)"></path>
                    <path d="M50.6314478,21.7551257 C51.0808947,19.554486 50.0988814,18.4832325 48.0009611,15.3983593 C45.9022885,12.3138685 45.5340805,6.84401271 49.5038814,3.97866802 C50.2305186,3.45394126 49.9108283,3.83104081 49.9108283,3.83104081 C48.5937044,10.1032849 50.2722664,10.9400941 51.8289699,15.2893599 C53.3386602,19.5074441 50.6314478,21.7551257 50.6314478,21.7551257 L50.6314478,21.7551257 L50.6314478,21.7551257 Z" id="Shape-Copy-66" fill="url(#linearGradient-11)"></path>
                    <polygon id="Shape-Copy-67" fill="#FFFFFF" points="36.7850982 18.8729531 33.8172443 17.5125645 33.8206292 19.7885477 36.299169 20.9206113"></polygon>
                </g>
                <g id="Call" transform="translate(0.000000, 1.912270)">
                    <path d="M47.7745133,24.4973203 C47.7745133,18.5260674 45.1647124,15.9230861 38.639646,15.9230861 C33.8213496,15.9230861 28.4509292,17.4031827 28.4509292,17.4031827 L28.6517699,22.1498182 C28.6517699,22.1498182 34.7751549,21.7413574 38.0875221,21.7413574 C40.095177,21.7413574 41.0489823,22.3027997 41.0489823,24.4973203 L41.0489823,26.0795321 L35.6785619,26.4876104 C30.1576991,26.8956887 26.8949779,28.5291494 26.8949779,34.2961719 C26.8949779,39.7063649 29.4043584,42.6661757 34.6747345,42.6661757 C38.4388053,42.6661757 42.0528097,40.880116 42.0528097,40.880116 C44.1605088,42.3089638 45.8672788,42.6661757 49.2300442,42.6661757 L49.430885,37.5118444 C48.0757743,37.2563652 47.8749336,36.643674 47.7745133,35.112711 L47.7745133,24.4973203 L47.7745133,24.4973203 L47.7745133,24.4973203 Z M41.0489823,30.8257851 L41.0489823,36.2868445 C41.0489823,36.2868445 38.2883628,37.1033836 36.1302655,37.1033836 C34.3234513,37.1033836 33.6709071,35.8783837 33.6709071,34.092324 C33.6709071,32.2546329 34.7247566,31.3876099 36.4815487,31.2342459 L41.0489823,30.8257851 L41.0489823,30.8257851 Z" id="Shape-Copy-68" fill="#23BEFF"></path>
                    <polygon id="Shape-Copy-69" fill="#23BEFF" points="51.832323 42.6669406 58.557854 42.6669406 58.557854 6.9403911 51.832323 6.9403911"></polygon>
                    <path d="M68.8488717,42.6669406 L68.8488717,6.9403911 L62.1233407,6.9403911 L62.1233407,19.254436 L62.1233407,42.6669406 L68.8488717,42.6669406 Z" id="Shape-Copy-70" fill="#23BEFF"></path>
                    <path d="M3.80920354,4.75428455 L5.3674115,3.97560839 C6.32121681,3.49907082 7.45367257,3.91938767 7.95389381,4.87246281 L9.47110619,7.76419682 C9.97132743,8.71727196 9.54256637,9.91779479 8.58876106,10.3943324 L7.0305531,11.1730085 C6.07712389,11.6491636 4.94429204,11.2296117 4.4440708,10.2761541 L2.92685841,7.38480254 C2.42663717,6.43096249 2.85502212,5.23120458 3.80920354,4.75428455 L3.80920354,4.75428455 L3.80920354,4.75428455 Z" id="Shape-Copy-71" fill="#23BEFF"></path>
                    <path d="M25.9614823,34.2074426 C23.8364823,34.7623832 20.2394027,35.5406769 18.1768363,35.7953912 C12.2979204,36.5235835 10.8168142,34.2900526 9.70692478,25.0189874 C8.5364823,15.2407883 9.95628319,13.1629162 15.1875442,12.5154217 C17.2279204,12.2626197 20.9178982,12.1467362 23.3246018,12.181157 L22.6449779,6.50515855 C20.3161283,6.28104056 16.5561947,6.07336809 13.4510619,6.45735181 C3.38683628,7.7030042 1.06738938,12.8232971 2.63236726,25.8944244 C4.07586283,37.9520488 7.25847345,43.4192275 17.7209956,42.1242385 C20.477854,41.7827072 24.2832965,40.7795306 26.6553982,40.0058263 L25.9614823,34.2074426 L25.9614823,34.2074426 Z" id="Shape-Copy-72" fill="#23BEFF"></path>
                    <path d="M13.6545354,14.4498736 L20.7441372,13.5721419 C21.3786283,13.4933564 21.9604646,13.9568905 22.0379425,14.6020903 L22.9296903,22.05191 C23.006792,22.6971097 22.5509513,23.2887659 21.9168363,23.3675514 L14.8272345,24.2449007 C14.1927434,24.3236862 13.6109071,23.8601521 13.5338053,23.2149523 L12.6416814,15.7651326 C12.5645796,15.1203153 13.0200442,14.5282767 13.6545354,14.4498736 L13.6545354,14.4498736 L13.6545354,14.4498736 Z" id="Shape-Copy-73" fill="#23BEFF"></path>
                    <path d="M14.4673009,25.5769877 L15.5896018,25.4381569 C15.9333628,25.3957045 16.2485398,25.6465943 16.2906637,25.9961572 L16.433208,27.1867362 C16.4749558,27.5359166 16.2282301,27.8567954 15.884469,27.8992478 L14.7621681,28.0380786 C14.4184071,28.080531 14.1032301,27.8296412 14.0614823,27.4800783 L13.9189381,26.2894993 C13.8768142,25.9403189 14.1235398,25.6194401 14.4673009,25.5769877 L14.4673009,25.5769877 L14.4673009,25.5769877 Z" id="Shape-Copy-74" fill="#23BEFF"></path>
                    <path d="M17.9628319,25.1444323 L19.0851327,25.0056015 C19.4288938,24.9631491 19.7440708,25.2140389 19.7858186,25.5636018 L19.9283628,26.7541808 C19.9701106,27.1037437 19.723385,27.4242401 19.3796239,27.4666924 L18.257323,27.6055232 C17.9135619,27.6479756 17.598385,27.3970858 17.5566372,27.0475229 L17.4140929,25.8569439 C17.371969,25.5077635 17.6190708,25.1868847 17.9628319,25.1444323 L17.9628319,25.1444323 L17.9628319,25.1444323 Z" id="Shape-Copy-75" fill="#23BEFF"></path>
                    <path d="M21.4583628,24.7114945 L22.5806637,24.5726637 C22.9244248,24.5302113 23.2396018,24.7811011 23.2813496,25.130664 L23.4513496,26.5499504 C23.4780531,26.7733035 23.3200885,26.9786812 23.1000664,27.0062179 L21.752854,27.1729678 C21.4090929,27.2154202 21.0939159,26.9645305 21.0521681,26.6149676 L20.9096239,25.4243886 C20.8675,25.0748257 21.1146018,24.7543293 21.4583628,24.7114945 L21.4583628,24.7114945 L21.4583628,24.7114945 Z" id="Shape-Copy-76" fill="#23BEFF"></path>
                    <path d="M14.871615,28.9525259 L15.9935398,28.8133127 C16.3373009,28.7712427 16.6524779,29.0221325 16.6946018,29.3716954 L16.837146,30.5615095 C16.8788938,30.9118373 16.6321681,31.2323336 16.2884071,31.274786 L15.1661062,31.4136168 C14.8223451,31.4560692 14.5071681,31.2051794 14.4654204,30.8556165 L14.3228761,29.6650375 C14.2807522,29.3154746 14.5274779,28.9945958 14.871615,28.9525259 L14.871615,28.9525259 L14.871615,28.9525259 Z" id="Shape-Copy-77" fill="#23BEFF"></path>
                    <path d="M18.3667699,28.5192056 L19.4890708,28.3803748 C19.8328319,28.3383049 20.1480088,28.5891947 20.1897566,28.9383751 L20.3323009,30.1289541 C20.3740487,30.478517 20.127323,30.7990134 19.7835619,30.8414657 L18.6616372,30.9802965 C18.3175,31.0227489 18.0026991,30.7718591 17.9605752,30.4222962 L17.818031,29.2320997 C17.7762832,28.8825368 18.0230088,28.561658 18.3667699,28.5192056 L18.3667699,28.5192056 L18.3667699,28.5192056 Z" id="Shape-Copy-78" fill="#23BEFF"></path>
                    <path d="M21.8623009,28.0866502 L22.9846018,27.9478195 C23.3283628,27.9053671 23.6435398,28.1562568 23.6852876,28.5058197 L23.8278319,29.6963987 C23.8699558,30.0459616 23.622854,30.366458 23.2790929,30.4089104 L22.1571681,30.5477411 C21.8134071,30.5901935 21.4982301,30.3393038 21.4561062,29.9897409 L21.3135619,28.7991619 C21.2718142,28.449599 21.5185398,28.1291026 21.8623009,28.0866502 L21.8623009,28.0866502 L21.8623009,28.0866502 Z" id="Shape-Copy-79" fill="#23BEFF"></path>
                    <path d="M15.2755531,32.3272992 L16.397854,32.1884684 C16.741615,32.146016 17.056792,32.3969058 17.0985398,32.7464687 L17.2410841,33.9370477 C17.2828319,34.2866106 17.0361062,34.6071069 16.6923451,34.6495593 L15.5700442,34.7883901 C15.2262832,34.8308425 14.9111062,34.5799527 14.8693584,34.2303898 L14.7268142,33.0398108 C14.6846903,32.6902479 14.931792,32.3697516 15.2755531,32.3272992 L15.2755531,32.3272992 L15.2755531,32.3272992 Z" id="Shape-Copy-80" fill="#23BEFF"></path>
                    <path d="M18.770708,31.8939789 L19.8930088,31.7551481 C20.2367699,31.7126957 20.5519469,31.9643504 20.5936947,32.3139133 L20.7362389,33.5037274 C20.7779867,33.8532903 20.5312611,34.1745516 20.1875,34.216239 L19.0655752,34.3550698 C18.7218142,34.3975222 18.4066372,34.1466324 18.3645133,33.7970695 L18.221969,32.6072554 C18.1802212,32.2576926 18.4269469,31.9364313 18.770708,31.8939789 L18.770708,31.8939789 L18.770708,31.8939789 Z" id="Shape-Copy-81" fill="#23BEFF"></path>
                    <path d="M22.2662389,31.4614235 L23.3885398,31.3225928 C23.7323009,31.2801404 24.0474779,31.5310301 24.0892257,31.880593 L24.2317699,33.071172 C24.2735177,33.4207349 24.026792,33.7412313 23.683031,33.7836837 L22.5607301,33.9225144 C22.216969,33.9649668 21.901792,33.7140771 21.8596681,33.3645142 L21.7171239,32.1739352 C21.6757522,31.8243723 21.922854,31.5042584 22.2662389,31.4614235 L22.2662389,31.4614235 L22.2662389,31.4614235 Z" id="Shape-Copy-82" fill="#23BEFF"></path>
                    <path d="M20.2751327,1.47435982 C22.9026106,0.605424539 26.874292,3.05542428 26.7407743,6.34491036 C25.3288717,2.88867438 23.1004425,1.97843408 20.2751327,1.47435982 L20.2751327,1.47435982 L20.2751327,1.47435982 Z" id="Shape-Copy-83" fill="#23BEFF"></path>
                    <path d="M22.6194027,0.347650604 C24.5608628,-0.29448951 27.4719248,1.51566484 27.373385,3.94615944 C26.3300664,1.39289714 24.7071681,0.719395804 22.6194027,0.347650604 L22.6194027,0.347650604 L22.6194027,0.347650604 Z" id="Shape-Copy-84" fill="#23BEFF"></path>
                    <path d="M6.43517699,43.1897551 C4.1830531,43.9351578 0.778915929,41.8347209 0.893628319,39.0156531 C2.10356195,41.9781411 4.0130531,42.7579647 6.43517699,43.1897551 L6.43517699,43.1897551 L6.43517699,43.1897551 Z" id="Shape-Copy-85" fill="#23BEFF"></path>
                    <path d="M4.42564159,44.1558337 C2.76174779,44.7061849 0.266659292,43.1549518 0.351283186,41.0724903 C1.24566372,43.2601266 2.63650442,43.837632 4.42564159,44.1558337 L4.42564159,44.1558337 L4.42564159,44.1558337 Z" id="Shape-Copy-86" fill="#23BEFF"></path>
                    <path d="M1.04595133,3.12197127 C1.04595133,3.12197127 1.19225664,1.91494673 2.48681416,1.06283942 C3.72984513,0.244388048 5.52838496,0.597393007 5.52838496,0.597393007" id="Shape-Copy-87" stroke="#23BEFF" stroke-width="1.08"></path>
                    <path d="M2.05429204,3.37898029 C2.05429204,3.37898029 2.29199115,2.52534317 3.11867257,2.04498106 C4.10595133,1.47130019 5.29707965,1.79447374 5.29707965,1.79447374" id="Shape-Copy-88" stroke="#23BEFF" stroke-width="1.08"></path>
                    <path d="M3.12168142,3.70597839 C3.12168142,3.70597839 3.22811947,3.30363687 3.6670354,2.9689897 C4.10595133,2.63434253 4.9179646,2.8121836 4.9179646,2.8121836" id="Shape-Copy-89" stroke="#23BEFF" stroke-width="1.08"></path>
                </g>
            </g>
        </g>
    </g>
</svg>