<?xml version="1.0" encoding="UTF-8"?>
<svg width="58px" height="66px" viewBox="0 0 58 66" version="1.1" xmlns="http://www.w3.org/2000/svg" xmlns:xlink="http://www.w3.org/1999/xlink">
    <!-- Generator: Sketch 39.1 (31720) - http://www.bohemiancoding.com/sketch -->
    <title>28842</title>
    <desc>Created with Sketch.</desc>
    <defs></defs>
    <g id="Page-1" stroke="none" stroke-width="1" fill="none" fill-rule="evenodd">
        <g id="Group" transform="translate(-481.000000, -129.000000)" fill="#FFFFFF">
            <g id="Group-4" transform="translate(442.000000, 109.000000)">
                <g id="28842" transform="translate(39.000000, 20.000000)">
                    <g id="Capa_1">
                        <path d="M54.3242798,23.577388 L52.7532675,23.577388 L52.7532675,15.9397814 C52.7532675,15.8918142 52.7456296,15.8442077 52.7394239,15.7955191 C52.7369177,15.4925683 52.6410864,15.1944262 52.4349835,14.9587978 L39.8190288,0.442043716 C39.8153292,0.437956284 39.8113909,0.436754098 39.8088848,0.433027322 C39.7338189,0.348032787 39.6461029,0.277704918 39.5533745,0.217114754 C39.5258066,0.198240437 39.4982387,0.18273224 39.469358,0.166743169 C39.3891605,0.122863388 39.3039506,0.0859562842 39.2162346,0.0593879781 C39.1924856,0.053136612 39.1712428,0.0432786885 39.1474938,0.0367868852 C39.0520206,0.0141857923 38.9530864,0 38.8530782,0 L7.84754321,0 C6.4316749,0 5.28158025,1.15998907 5.28158025,2.58493989 L5.28158025,23.5766667 L3.71068724,23.5766667 C1.68522222,23.5766667 0.042962963,25.2303934 0.042962963,27.2709836 L0.042962963,46.4831148 C0.042962963,48.5227432 1.68522222,50.178153 3.71068724,50.178153 L5.28158025,50.178153 L5.28158025,63.3299454 C5.28158025,64.7550164 6.4316749,65.914765 7.84754321,65.914765 L50.1871852,65.914765 C51.6017407,65.914765 52.7532675,64.7550164 52.7532675,63.3299454 L52.7532675,50.1782732 L54.3242798,50.1782732 C56.3490288,50.1782732 57.9915267,48.5235847 57.9915267,46.4838361 L57.9915267,27.2717049 C57.9916461,25.2305137 56.3490288,23.577388 54.3242798,23.577388 L54.3242798,23.577388 Z M7.84754321,2.58493989 L37.5699177,2.58493989 L37.5699177,15.8097049 C37.5699177,16.5238033 38.1449053,17.1021749 38.8529588,17.1021749 L50.1871852,17.1021749 L50.1871852,23.5772678 L7.84754321,23.5772678 L7.84754321,2.58493989 L7.84754321,2.58493989 Z M27.1642881,37.6500546 C23.9802551,36.5331038 21.9057407,34.7584372 21.9057407,31.9530164 C21.9057407,28.6585464 24.6340082,26.1382842 29.1537119,26.1382842 C31.3146296,26.1382842 32.9066461,26.5964372 34.0428971,27.1128962 L33.0774239,30.6353005 C32.3100576,30.2617814 30.9457449,29.7177923 29.0687407,29.7177923 C27.1930494,29.7177923 26.283428,30.577235 26.283428,31.579377 C26.283428,32.8112568 27.3631111,33.3548852 29.8374198,34.3001639 C33.219679,35.5599344 34.8116955,37.3343607 34.8116955,40.0555082 C34.8116955,43.2904699 32.3388189,46.0407104 27.0793169,46.0407104 C24.8908313,46.0407104 22.7294362,45.4665464 21.6496337,44.8661749 L22.5303745,41.257694 C23.6965802,41.8604699 25.4870617,42.4606011 27.3355432,42.4606011 C29.3250864,42.4606011 30.377321,41.6301311 30.377321,40.3692787 C30.3767243,39.1658907 29.4665062,38.4793224 27.1642881,37.6500546 L27.1642881,37.6500546 Z M4.59154733,36.3892022 C4.59154733,29.8035082 9.25469959,26.1382842 15.0523128,26.1382842 C17.2985597,26.1382842 19.00407,26.5964372 19.7721523,26.9977268 L18.8899794,30.4619454 C18.0092387,30.0911913 16.785749,29.7479672 15.2511358,29.7479672 C11.8114733,29.7479672 9.14013169,31.836765 9.14013169,36.1314536 C9.14013169,39.9974426 11.4137078,42.4309071 15.2809712,42.4309071 C16.5874033,42.4309071 18.0374033,42.1450273 18.8899794,41.8012022 L19.5443292,45.208918 C18.7480823,45.6104481 16.9577202,46.0407104 14.6265021,46.0407104 C8.00304527,46.0408306 4.59154733,41.8870383 4.59154733,36.3892022 L4.59154733,36.3892022 Z M50.1871852,62.6293115 L7.84754321,62.6293115 L7.84754321,50.1782732 L50.1871852,50.1782732 L50.1871852,62.6293115 L50.1871852,62.6293115 Z M47.3210782,45.7531475 L42.2611152,45.7531475 L36.1209918,26.4537377 L40.8692346,26.4537377 L43.1994979,34.6158579 C43.8533704,36.905541 44.4500782,39.1103497 44.905963,41.5160437 L44.9905761,41.5160437 C45.4736708,39.1960656 46.0700206,36.9054208 46.7241317,34.7004918 L49.1690823,26.4537377 L53.7755473,26.4537377 L47.3210782,45.7531475 L47.3210782,45.7531475 Z" id="Shape"></path>
                    </g>
                </g>
            </g>
        </g>
    </g>
</svg>