<svg width="300" height="300" xmlns="http://www.w3.org/2000/svg" preserveAspectRatio="xMidYMid meet">

 <metadata>Created by potrace 1.15, written by Peter Selinger 2001-2017</metadata>
 <g class="currentLayer">
  <title>Layer 1</title>
  <g id="svg_1" fill="#3190e6">
   <path fill="#3190e6" id="svg_2" d="m49.319576,53.371733c0.7,0.4 1.7,0.2 2.3,-0.4c1.8,-1.8 3.9,-1.3 11.8,2.7c11.1,5.7 35.900001,22.5 35.900001,24.4c0,0.4 0.6,0.8 1.4,0.8c0.7,0 2,0.7 2.7,1.7c0.8,0.9 3.8,3.4 6.8,5.6c2.9,2.2 6.1,4.7 7,5.6c0.9,0.9 3.9,3.4 6.6,5.6c2.8,2.1 7.1,5.7 9.6,8c11.5,10.2 20.3,18.1 21.8,19.7c0.8,1 2.1,1.8 2.8,1.8c0.7,0 1.3,0.5 1.3,1.2c0,0.6 3.3,4.4 7.2,8.3c8.8,8.7 20.4,21.8 27.8,31.5c3,4 7.6,9.8 10.2,13.1c2.7,3.2 4.8,6 4.8,6.3c0,0.3 3.5,5.9 7.8,12.5c9.4,14.5 9.9,15.4 17.9,31.1c5.6,10.9 8.9,19 7.8,19c-0.3,0 -14.5,-7.3 -17.5,-9c-1.3,-0.8 -6.1,-3 -18.2,-8.4c-2,-0.9 -6.6,-2.4 -10.1,-3.3c-7.3,-1.9 -11.9,-1.2 -12.5,2.1c-0.5,2.6 1.2,4 3.3,2.8c1.9,-1 7.8,0 13.2,2.4c1.7,0.8 3.7,1.4 4.5,1.4c0.7,0 2.2,0.6 3.3,1.3c1.1,0.8 4.2,2.2 7,3.2c2.7,1 5.4,2.2 6,2.6c3.3,2.3 23,11.9 24.6,11.9c2.9,0 3.8,-2.9 2.7,-9.5c-0.5,-3.3 -1.3,-6.2 -1.8,-6.3c-0.6,-0.2 -1,-5.3 -1,-11.4c0,-10.8 -0.7,-16.9 -3.7,-31.3c-0.7,-3.9 -1.6,-8.4 -1.9,-10c-0.8,-4.2 -4.6,-11.6 -6.6,-12.9c-1.3,-0.8 -2.2,-0.7 -3.4,0.6c-1.5,1.5 -1.5,1.9 0.4,5.5c5.3,9.8 8.1,18 9.8,28.3c1.3,8 2.1,23.6 1.3,24.5c-0.2,0.2 -2.9,-4.5 -5.9,-10.3c-6.2,-12.2 -9.7,-18.2 -15.2,-26.5c-2.1,-3.2 -3.8,-6 -3.8,-6.3c0,-0.4 -2.3,-3.4 -5,-6.9c-2.7,-3.5 -5,-6.6 -5,-7c0,-1.1 -15,-19.8 -17.1,-21.4c-1.1,-0.7 -1.9,-1.8 -1.9,-2.3c0,-1.1 -0.1,-1.2 -11.2,-13.3c-12.1,-13.1 -27.2,-27.8 -38.300001,-37.000001c-3.9,-3.2 -7.2,-6.1 -7.5,-6.4c-0.3,-0.3 -4.8,-4 -10,-8.2c-5.3,-4.2 -10.2,-8.3 -11,-9c-2.4,-2.3 -23.8,-18.1 -32.5,-24c-4.3,-3 -8.8,-6.2 -9.9,-7.2c-1.1,-0.9 -2.7,-1.7 -3.7,-1.7c-0.9,0 -1.9,-0.7 -2.3,-1.5c-0.3,-0.8 -1.4,-1.5 -2.5,-1.5c-1.1,0 -2.2,-0.4 -2.6,-0.9c-0.3,-0.6 -2.2,-0.9 -4.3,-0.7c-3.5,0.3 -3.7,0.5 -4,4.4c-0.2,2.2 0.2,4.3 0.8,4.7z"/>
  </g>
 </g>
 <g>
  <title>Layer 2</title>
  <rect fill="none" y="0" x="0" height="100%" width="100%" id="backgroundrect"/>
 </g>
 <g>
  <title>background</title>
  <rect fill="none" id="canvas_background" height="402" width="582" y="-1" x="-1"/>
 </g>
</svg>