<svg xmlns="http://www.w3.org/2000/svg" version="1.0" width="300.000000" height="300.000000" preserveAspectRatio="xMidYMid meet" style=""><rect id="backgroundrect" width="100%" height="100%" x="0" y="0" fill="none" stroke="none"/>
<metadata>
Created by potrace 1.15, written by Peter Selinger 2001-2017
</metadata>

<g class="currentLayer" style=""><title>Layer 1</title><g transform="translate(0,300) scale(0.10000000149011612,-0.10000000149011612) " fill="#3190e6" stroke="none" id="svg_1" class="" fill-opacity="1">
<path d="M2465 2650 c-4 -7 -2 -17 4 -23 18 -18 13 -39 -27 -118 -57 -111 -225 -359 -244 -359 -4 0 -8 -6 -8 -14 0 -7 -7 -20 -17 -27 -9 -8 -34 -38 -56 -68 -22 -29 -47 -61 -56 -70 -9 -9 -34 -39 -56 -66 -21 -28 -57 -71 -80 -96 -102 -115 -181 -203 -197 -218 -10 -8 -18 -21 -18 -28 0 -7 -5 -13 -12 -13 -6 0 -44 -33 -83 -72 -87 -88 -218 -204 -315 -278 -40 -30 -98 -76 -131 -102 -32 -27 -60 -48 -63 -48 -3 0 -59 -35 -125 -78 -145 -94 -154 -99 -311 -179 -109 -56 -190 -89 -190 -78 0 3 73 145 90 175 8 13 30 61 84 182 9 20 24 66 33 101 19 73 12 119 -21 125 -26 5 -40 -12 -28 -33 10 -19 0 -78 -24 -132 -8 -17 -14 -37 -14 -45 0 -7 -6 -22 -13 -33 -8 -11 -22 -42 -32 -70 -10 -27 -22 -54 -26 -60 -23 -33 -119 -230 -119 -246 0 -29 29 -38 95 -27 33 5 62 13 63 18 2 6 53 10 114 10 108 0 169 7 313 37 39 7 84 16 100 19 42 8 116 46 129 66 8 13 7 22 -6 34 -15 15 -19 15 -55 -4 -98 -53 -180 -81 -283 -98 -80 -13 -236 -21 -245 -13 -2 2 45 29 103 59 122 62 182 97 265 152 32 21 60 38 63 38 4 0 34 23 69 50 35 27 66 50 70 50 11 0 198 150 214 171 7 11 18 19 23 19 11 0 12 1 133 112 131 121 278 272 370 383 32 39 61 72 64 75 3 3 40 48 82 100 42 53 83 102 90 110 23 24 181 238 240 325 30 43 62 88 72 99 9 11 17 27 17 37 0 9 7 19 15 23 8 3 15 14 15 25 0 11 4 22 9 26 6 3 9 22 7 43 -3 35 -5 37 -44 40 -22 2 -43 -2 -47 -8z" id="svg_2" fill="#3190e6" fill-opacity="1"/>
</g></g></svg>