<?xml version="1.0" encoding="UTF-8"?>
<svg width="27px" height="17px" viewBox="0 0 27 17" version="1.1" xmlns="http://www.w3.org/2000/svg" xmlns:xlink="http://www.w3.org/1999/xlink">
    <!-- Generator: sketchtool 39.1 (31720) - http://www.bohemiancoding.com/sketch -->
    <title>4027AF5E-D66A-42E6-A4FA-4786A0B292BC</title>
    <desc>Created with sketchtool.</desc>
    <defs></defs>
    <g id="Page-1" stroke="none" stroke-width="1" fill="none" fill-rule="evenodd">
        <g id="ClickToCall---OverviewStatistics" transform="translate(-819.000000, -470.000000)">
            <g id="-g-Remove-from-phonebook-Icon" transform="translate(820.000000, 471.000000)">
                <g id="Phonebook-Icon">
                    <path d="M7.34982322,0.962269149 C7.30398677,0.964412057 7.16687979,1.41868059 7.12280702,1.41955998 C4.91927961,1.46352693 0.577076474,0.38421675 0.577076474,0.38421675 L0.457629885,13.5776957 C0.457629885,13.5776957 4.95786057,14.5038314 7.12280706,14.5367068 C9.31766109,14.5700364 13.5370315,13.7763106 13.5370315,13.7763106 L13.7879842,0.120619677 C13.7879842,0.120619677 9.59213835,0.857438329 7.34982322,0.962269149 Z" id="Path-1149-Copy" stroke="#FFFFFF" stroke-width="1.4"></path>
                    <path d="M7.5804369,14.8793803 L7.5804369,1.12061968" id="Path-1150-Copy" stroke="#FFFFFF" stroke-width="1.4"></path>
                    <path d="M2.35704509,9.32206681 L6.42051682,9.12061968" id="Path-1151-Copy" stroke="#FFFFFF" stroke-width="1.4"></path>
                    <path d="M2.35704509,10.9413942 L6.01649657,10.6206197" id="Path-1152-Copy" stroke="#FFFFFF" stroke-width="1.4"></path>
                    <path d="M3.30675269,11.9056899 L6.3292854,11.6206197" id="Path-1153-Copy" stroke="#FFFFFF" stroke-width="1.4"></path>
                    <path d="M9.00499831,8.81027544 L13.0157538,8.12061968" id="Path-1155-Copy" stroke="#FFFFFF" stroke-width="1.4"></path>
                    <path d="M9.00499831,10.9760183 L12.2738145,10.1206197" id="Path-1156-Copy" stroke="#FFFFFF" stroke-width="1.4"></path>
                    <path d="M9.47985211,12.1907602 L12.1883528,11.6206197" id="Path-1157-Copy" stroke="#FFFFFF" stroke-width="1.4"></path>
                    <polygon id="Path-1158-Copy" stroke="#FFFFFF" stroke-width="0.7" points="8.53014451 2.95782926 8.5301445 6.68336992 12.3248883 6.68336978 12.1131597 2.12061968"></polygon>
                    <path d="M12.3289749,6.20353634 L12.3289749,6.62061968 L9.00499831,6.62061968 L9.00499831,6.20353634 L10.1129905,5.45395301 L10.1129905,5.16228634 C10.0446643,5.16228634 9.98150877,5.08985579 9.92333918,4.94499468 C9.86507725,4.80013357 9.83599246,4.67811968 9.83599246,4.57895301 L9.83599246,3.99561968 C9.83599246,3.75460579 9.91724522,3.54839745 10.0798431,3.37728634 C10.2423486,3.20617523 10.4380016,3.12061968 10.6669866,3.12061968 C10.8959717,3.12061968 11.091717,3.20617523 11.2542225,3.37728634 C11.416728,3.54839745 11.4979808,3.75460579 11.4979808,3.99561968 L11.4979808,4.57895301 C11.4979808,4.67811968 11.4689883,4.80013357 11.4107264,4.94499468 C11.3525568,5.08985579 11.2894012,5.16228634 11.2209827,5.16228634 L11.2209827,5.45395301 L12.3289749,6.20353634" id="Account-icon-Copy-3" fill="#FFFFFF"></path>
                    <path d="M2.96343271,2.74226125 L3.15093462,2.64521546 C3.2657077,2.58582496 3.4019781,2.63820871 3.46217061,2.75698971 L3.64473945,3.11738421 C3.70493196,3.2361652 3.65333838,3.38578541 3.53856531,3.4451759 L3.35106339,3.54222169 C3.23633557,3.60156452 3.10001991,3.5492761 3.03982741,3.43044744 L2.85725856,3.0701006 C2.79706605,2.95122428 2.84861437,2.80169941 2.96343271,2.74226125 L2.96343271,2.74226125 L2.96343271,2.74226125 Z" id="Shape-Copy-33" fill="#FFFFFF"></path>
                    <path d="M5.69271507,6.60571389 C5.43701006,6.67487569 5.00416712,6.77187382 4.75597486,6.80361866 C4.04855453,6.89437267 3.8703304,6.61600951 3.73677545,5.46056405 C3.59593404,4.2419149 3.76678119,3.98295136 4.39626807,3.90225464 C4.64179013,3.87074813 5.08581169,3.85630566 5.37541458,3.8605955 L5.29363423,3.15320034 C5.01339965,3.12526869 4.5609602,3.09938664 4.18731409,3.14724222 C2.97626804,3.30248689 2.6971649,3.94062491 2.88548145,5.56966907 C3.05917982,7.07240117 3.44214898,7.75377128 4.70112275,7.59237784 C5.03286039,7.54981306 5.490776,7.42478797 5.7762152,7.32836182 L5.69271507,6.60571389 L5.69271507,6.60571389 Z" id="Shape-Copy-34" fill="#FFFFFF"></path>
                    <path d="M5.01598497,4.1217074 C5.09233441,4.11188842 5.1623478,4.16965831 5.17167085,4.25006904 L5.27897644,5.17853413 C5.28825423,5.25894485 5.23340211,5.33268249 5.15709793,5.34250147 L4.30399363,5.45184481 C4.22764419,5.46166378 4.1576308,5.40389389 4.14835301,5.32348316 L4.04100216,4.39501808 C4.03172437,4.31465502 4.08653123,4.24086971 4.16288067,4.2310984 L5.01598497,4.1217074 Z" id="Shape-Copy-35" fill="#FFFFFF"></path>
                    <path d="M4.7313141,2.14263393 C5.04748315,2.03433922 5.52540259,2.33968073 5.50933617,2.74964675 C5.33943943,2.31889882 5.07128861,2.2054563 4.7313141,2.14263393 L4.7313141,2.14263393 L4.7313141,2.14263393 Z" id="Shape-Copy-45" fill="#FFFFFF"></path>
                    <path d="M5.2061679,2.13812488 C5.43978723,2.05202553 5.79008045,2.29473441 5.77822298,2.62061968 C5.65267862,2.27827349 5.4573924,2.18796917 5.2061679,2.13812488 L5.2061679,2.13812488 L5.2061679,2.13812488 Z" id="Shape-Copy-46" fill="#FFFFFF"></path>
                    <path d="M3.02420939,7.64083467 C2.75320735,7.73373361 2.34358151,7.47195784 2.35738505,7.12061968 C2.5029785,7.48983219 2.73275095,7.58702097 3.02420939,7.64083467 L3.02420939,7.64083467 L3.02420939,7.64083467 Z" id="Shape-Copy-47" fill="#FFFFFF"></path>
                    <path d="M2.85704509,7.60310856 C2.65295924,7.68922882 2.34692274,7.44648819 2.35730233,7.12061968 C2.46700309,7.4629462 2.63759745,7.55331561 2.85704509,7.60310856 L2.85704509,7.60310856 L2.85704509,7.60310856 Z" id="Shape-Copy-48" fill="#FFFFFF"></path>
                </g>
                <path d="M19.9392046,9.42042953 L16,5.10350427 L19.9392046,9.42042953 L16.494478,13.5129536 L19.9392046,9.42042953 Z M19.9392046,9.42042953 L23.8247591,13.6785604 L19.9392046,9.42042953 L23.6599331,5 L19.9392046,9.42042953 Z" id="Remove-contact" stroke="#FFFFFF" stroke-width="4.2"></path>
            </g>
        </g>
    </g>
</svg>