<?xml version="1.0" encoding="UTF-8"?>
<svg width="58px" height="66px" viewBox="0 0 58 66" version="1.1" xmlns="http://www.w3.org/2000/svg" xmlns:xlink="http://www.w3.org/1999/xlink">
    <!-- Generator: Sketch 39.1 (31720) - http://www.bohemiancoding.com/sketch -->
    <title>29070</title>
    <desc>Created with Sketch.</desc>
    <defs></defs>
    <g id="Page-1" stroke="none" stroke-width="1" fill="none" fill-rule="evenodd">
        <g id="Group" transform="translate(-286.000000, -129.000000)" fill="#FFFFFF">
            <g id="Group-4" transform="translate(247.000000, 109.000000)">
                <g id="29070" transform="translate(39.000000, 20.000000)">
                    <path d="M54.2557382,23.5993721 L52.6870102,23.5993721 L52.6870102,15.9553503 C52.6870102,15.907677 52.6795378,15.8596443 52.6738446,15.8110127 C52.6713538,15.5078439 52.5750429,15.2095862 52.3692556,14.9734955 L39.7726994,0.442475499 C39.7689039,0.43876225 39.765227,0.437444646 39.7626176,0.433372051 C39.6875378,0.348686025 39.6000041,0.278254083 39.5074888,0.217284936 C39.48009,0.198718693 39.452454,0.183147005 39.4237505,0.166736842 C39.3435706,0.122896552 39.2585276,0.0858838475 39.1709939,0.0594119782 C39.147272,0.0530635209 39.1259223,0.0432413793 39.1022004,0.036892922 C39.0070757,0.0142540835 38.908274,0 38.8081677,0 L7.85194274,0 C6.43835583,0 5.28997955,1.161049 5.28997955,2.58741561 L5.28997955,23.5987731 L3.72160736,23.5987731 C1.69943558,23.5987731 0.0597791411,25.2539238 0.0597791411,27.2968094 L0.0597791411,46.527245 C0.0597791411,48.5680944 1.69943558,50.224922 3.72160736,50.224922 L5.29009816,50.224922 L5.29009816,63.3887477 C5.29009816,64.8149946 6.43847444,65.9761633 7.85206135,65.9761633 L50.124454,65.9761633 C51.5367362,65.9761633 52.6864172,64.8151143 52.6864172,63.3887477 L52.6864172,50.224922 L54.2551452,50.224922 C56.2767239,50.224922 57.9167362,48.5686933 57.9167362,46.527245 L57.9167362,27.2974083 C57.9166176,25.2539238 56.2777914,23.5993721 54.2557382,23.5993721 L54.2557382,23.5993721 Z M7.85194274,2.58741561 L37.5271861,2.58741561 L37.5271861,15.8245481 C37.5271861,16.5392886 38.1013742,17.118196 38.8081677,17.118196 L50.1243354,17.118196 L50.1243354,23.5993721 L7.85194274,23.5993721 L7.85194274,2.58741561 L7.85194274,2.58741561 Z M36.5983558,42.4441089 L36.5983558,46.196167 L24.3753006,46.196167 L24.3753006,26.4364138 L28.818409,26.4364138 L28.818409,42.4441089 L36.5983558,42.4441089 L36.5983558,42.4441089 Z M5.12985685,46.1955681 L10.7910838,36.198784 L5.33279755,26.4364138 L10.4131943,26.4364138 L12.1257955,30.0417387 C12.706863,31.2431543 13.1425153,32.2117132 13.607227,33.3254483 L13.6645153,33.3254483 C14.1301759,32.0642613 14.5067607,31.1847005 14.9999387,30.0417387 L16.6550143,26.4364138 L21.7063517,26.4364138 L16.1899468,36.0818766 L21.997182,46.1960472 L16.8873701,46.1960472 L15.1166503,42.6195898 C14.3913538,41.2412559 13.9262863,40.2155608 13.3749898,39.0722396 L13.3168712,39.0722396 C12.9099223,40.2161597 12.417456,41.2425735 11.8079223,42.6195898 L10.1816687,46.1960472 L5.12985685,46.1960472 L5.12985685,46.1955681 L5.12985685,46.1955681 Z M50.124454,62.6883811 L7.85194274,62.6883811 L7.85194274,50.224922 L50.1243354,50.224922 L50.1243354,62.6883811 L50.124454,62.6883811 Z M43.9997014,46.4904719 C41.765456,46.4904719 39.5582536,45.9030599 38.456135,45.2878584 L39.3549571,41.5938947 C40.5457955,42.2090962 42.3747526,42.8256152 44.2624213,42.8256152 C46.2952679,42.8256152 47.3685644,41.9752813 47.3685644,40.6854664 C47.3685644,39.4537459 46.4397342,38.7501452 44.0879468,37.8998113 C40.8367444,36.7558911 38.7170757,34.9385554 38.7170757,32.0642613 C38.7170757,28.692392 41.5041595,26.1130018 46.1215051,26.1130018 C48.3269284,26.1130018 49.953182,26.5833866 51.1141309,27.1098294 L50.1270634,30.7163521 C49.343411,30.334726 47.9492761,29.7779782 46.0339714,29.7779782 C44.1181922,29.7779782 43.189362,30.6569401 43.189362,31.6840726 C43.189362,32.9447804 44.291362,33.5023666 46.8177423,34.4699673 C50.2722413,35.759902 51.8984949,37.5766388 51.8984949,40.3621742 C51.896953,43.6758294 49.3719959,46.4904719 43.9997014,46.4904719 L43.9997014,46.4904719 Z" id="Shape"></path>
                </g>
            </g>
        </g>
    </g>
</svg>