<?xml version="1.0" encoding="UTF-8"?>
<svg width="58px" height="66px" viewBox="0 0 58 66" version="1.1" xmlns="http://www.w3.org/2000/svg" xmlns:xlink="http://www.w3.org/1999/xlink">
    <!-- Generator: Sketch 39.1 (31720) - http://www.bohemiancoding.com/sketch -->
    <title>28841</title>
    <desc>Created with Sketch.</desc>
    <defs></defs>
    <g id="Page-1" stroke="none" stroke-width="1" fill="none" fill-rule="evenodd">
        <g id="Group" transform="translate(-91.000000, -129.000000)" fill="#FFFFFF">
            <g id="Group-3" transform="translate(52.000000, 109.000000)">
                <g id="28841" transform="translate(39.000000, 20.000000)">
                    <g id="Capa_1">
                        <path d="M54.3249959,23.577388 L52.7537449,23.577388 L52.7537449,15.9405027 C52.7537449,15.8928962 52.7463457,15.844929 52.7407366,15.7962404 C52.7382305,15.4932896 52.6418025,15.1955082 52.4356996,14.9595191 L39.8191481,0.442043716 C39.8152099,0.43831694 39.8115103,0.436994536 39.8090041,0.433027322 C39.7338189,0.348393443 39.6462222,0.277945355 39.5532551,0.217114754 C39.5259259,0.198601093 39.4982387,0.183092896 39.4694774,0.166743169 C39.3892798,0.122863388 39.3039506,0.0859562842 39.2163539,0.0593879781 C39.1924856,0.053136612 39.1711235,0.0432786885 39.1474938,0.0370273224 C39.0521399,0.0141857923 38.9532058,0 38.8530782,0 L7.84754321,0 C6.43179424,0 5.28158025,1.15998907 5.28158025,2.58493989 L5.28158025,23.5766667 L3.7105679,23.5766667 C1.68522222,23.5766667 0.042962963,25.2303934 0.042962963,27.2713443 L0.042962963,46.4837158 C0.042962963,48.5227432 1.68522222,50.178153 3.7105679,50.178153 L5.28158025,50.178153 L5.28158025,63.3299454 C5.28158025,64.7550164 6.43179424,65.914765 7.84754321,65.914765 L50.1870658,65.914765 C51.6016214,65.914765 52.7530288,64.7550164 52.7530288,63.3299454 L52.7530288,50.1782732 L54.3242798,50.1782732 C56.3490288,50.1782732 57.9915267,48.5235847 57.9915267,46.4838361 L57.9915267,27.2720656 C57.9916461,25.2305137 56.3502222,23.577388 54.3249959,23.577388 L54.3249959,23.577388 Z M7.84754321,2.58493989 L37.570037,2.58493989 L37.570037,15.8097049 C37.570037,16.5238033 38.1449053,17.1021749 38.8530782,17.1021749 L50.1871852,17.1021749 L50.1871852,23.5772678 L7.84754321,23.5772678 L7.84754321,2.58493989 L7.84754321,2.58493989 Z M33.8424033,37.8280984 C31.3214321,36.9434098 29.676428,35.5385355 29.676428,33.314612 C29.676428,30.7061093 31.8377037,28.7106011 35.4186667,28.7106011 C37.1289506,28.7106011 38.3906296,29.0729399 39.2903457,29.4815628 L38.5252469,32.2706339 C37.917679,31.9765792 36.8370412,31.5448743 35.351,31.5448743 C33.8649588,31.5448743 33.1446132,32.2255519 33.1446132,33.0194754 C33.1446132,33.9950492 34.0004115,34.4255519 35.9586872,35.1739126 C38.637428,36.1723279 39.8985103,37.5782842 39.8985103,39.7327213 C39.8985103,42.2961421 37.9395185,44.473541 33.7741399,44.473541 C32.040823,44.473541 30.329823,44.0204372 29.474144,43.5434098 L30.1714568,40.6858142 C31.0949218,41.1616393 32.5137737,41.6387869 33.9766626,41.6387869 C35.5541193,41.6387869 36.38593,40.9811913 36.38593,39.9828962 C36.3865267,39.0310055 35.6661811,38.4855738 33.8424033,37.8280984 L33.8424033,37.8280984 Z M28.0353621,41.3431694 L28.0353621,44.2472896 L18.5549877,44.2472896 L18.5549877,28.9584918 L22.001214,28.9584918 L22.001214,41.3431694 L28.0353621,41.3431694 L28.0353621,41.3431694 Z M7.54680247,44.2472896 L3.6292963,44.2472896 L8.01963374,36.5108634 L3.78623045,28.9578907 L7.72700823,28.9578907 L9.05468313,31.7481639 C9.50507819,32.6781749 9.8430535,33.425694 10.2037037,34.2889836 L10.2475021,34.2889836 C10.608749,33.3134098 10.9011358,32.6329727 11.2827901,31.7481639 L12.566428,28.9578907 L16.4840535,28.9578907 L12.2058971,36.419377 L16.7098477,44.2459672 L12.7474691,44.2459672 L11.373251,41.4782951 C10.8112716,40.4137596 10.4507407,39.6191148 10.0227819,38.7344262 L9.97802881,38.7344262 C9.66237037,39.6191148 9.28047737,40.4137596 8.80716872,41.4782951 L7.54680247,44.2472896 L7.54680247,44.2472896 Z M50.1871852,62.6300328 L7.84754321,62.6300328 L7.84754321,50.1782732 L50.1870658,50.1782732 L50.1870658,62.6300328 L50.1871852,62.6300328 Z M50.2103374,44.2472896 L48.8364774,41.4796175 C48.2737819,40.4141202 47.9136091,39.6204372 47.4856502,38.7356284 L47.4419712,38.7356284 C47.1261934,39.6204372 46.7428683,40.4141202 46.2692016,41.4796175 L45.0100288,44.2472896 L41.0913292,44.2472896 L45.4816667,36.5108634 L41.2485021,28.9578907 L45.1891605,28.9578907 L46.5185062,31.7481639 C46.9684239,32.6781749 47.3053251,33.425694 47.6663333,34.2889836 L47.7113251,34.2889836 C48.0709012,33.3134098 48.3628107,32.6329727 48.7461358,31.7481639 L50.0292963,28.9578907 L53.9478765,28.9578907 L49.6696008,36.419377 L54.172716,44.2459672 L50.2103374,44.2459672 L50.2103374,44.2472896 L50.2103374,44.2472896 Z" id="Shape"></path>
                    </g>
                </g>
            </g>
        </g>
    </g>
</svg>