<?xml version="1.0" standalone="no"?>
<!DOCTYPE svg PUBLIC "-//W3C//DTD SVG 20010904//EN"
 "http://www.w3.org/TR/2001/REC-SVG-20010904/DTD/svg10.dtd">
<svg version="1.0" xmlns="http://www.w3.org/2000/svg"
 width="700.000000pt" height="700.000000pt" viewBox="0 0 700.000000 700.000000"
 preserveAspectRatio="xMidYMid meet">
<metadata>
Created by potrace 1.11, written by Peter Selinger 2001-2013
</metadata>
<g transform="translate(0.000000,700.000000) scale(0.100000,-0.100000)"
fill="#000000" stroke="none">
<path d="M3035 6870 c14 -110 8 -455 -10 -615 -16 -143 -50 -364 -61 -395 -3
-9 -19 22 -38 72 -26 69 -194 374 -202 365 -1 -1 4 -31 12 -67 7 -36 14 -80
14 -99 l0 -33 -43 58 c-24 33 -78 91 -119 130 -87 83 -205 167 -194 139 39
-102 99 -373 122 -551 55 -417 -16 -984 -154 -1246 -26 -48 -47 -86 -49 -85
-1 2 9 61 22 132 92 501 83 999 -23 1318 l-27 82 -6 -340 c-6 -328 -21 -530
-55 -760 -29 -197 -109 -514 -126 -497 -4 4 -9 66 -11 137 -2 118 -3 113 -5
-50 l-2 -180 -39 -87 c-22 -49 -35 -88 -31 -88 5 0 61 25 125 55 l116 55 187
-86 c103 -47 214 -99 247 -114 46 -22 63 -26 71 -17 22 24 153 247 221 377
160 305 262 585 307 840 20 114 46 404 46 516 0 166 -35 386 -91 577 -27 89
-191 503 -206 517 -3 3 -2 -24 2 -60z"/>
<path d="M4598 6363 c-217 -162 -370 -410 -423 -688 -33 -171 -29 -392 11
-564 l15 -64 -29 -41 c-16 -23 -45 -71 -65 -107 l-35 -67 -12 62 c-14 71 -15
70 -60 -77 l-26 -87 -18 55 c-9 30 -20 55 -23 55 -3 0 -3 -30 1 -67 4 -38 11
-147 15 -243 5 -96 16 -206 24 -245 9 -38 23 -111 32 -162 l17 -92 57 21 c31
11 131 54 224 94 92 41 170 74 175 74 4 0 20 -24 36 -53 16 -28 54 -87 84
-130 30 -43 53 -79 51 -81 -2 -1 -71 -31 -154 -65 -137 -58 -345 -150 -354
-157 -1 -1 19 -40 45 -84 70 -118 175 -241 303 -353 l111 -99 29 -91 c42 -132
54 -226 49 -369 -16 -402 -235 -721 -591 -858 -134 -52 -229 -71 -393 -77
-140 -5 -157 -4 -253 21 -281 72 -577 228 -714 376 -157 170 -263 378 -314
620 -27 131 -25 410 5 549 28 127 69 248 124 364 34 71 39 90 28 97 -7 5 -84
41 -170 80 l-156 71 -228 -105 c-126 -58 -235 -114 -242 -123 -7 -10 -33 -56
-57 -103 -214 -408 -285 -971 -191 -1500 57 -316 182 -644 324 -850 28 -41 82
-111 120 -155 39 -44 97 -114 131 -155 296 -367 875 -639 1434 -675 119 -8
361 14 515 45 575 119 1018 459 1269 974 220 452 255 905 104 1351 -47 138
-190 427 -280 565 -38 58 -84 132 -102 165 -35 61 -125 198 -179 270 l-30 40
54 80 c105 155 151 327 141 525 -9 178 -44 292 -210 690 -98 235 -182 484
-196 579 -28 191 -7 526 48 773 5 21 5 38 1 38 -4 0 -37 -21 -72 -47z"/>
</g>
</svg>
