<?xml version="1.0" encoding="UTF-8"?>
<svg width="15px" height="23px" viewBox="0 0 15 23" version="1.1" xmlns="http://www.w3.org/2000/svg" xmlns:xlink="http://www.w3.org/1999/xlink">
    <!-- Generator: Sketch 39.1 (31720) - http://www.bohemiancoding.com/sketch -->
    <title>-g-Delivery status Icon</title>
    <desc>Created with Sketch.</desc>
    <defs></defs>
    <g id="NewBackend" stroke="none" stroke-width="1" fill="none" fill-rule="evenodd">
        <g id="Messages---Overview-Statistics" transform="translate(-353.000000, -508.000000)">
            <g id="Group" transform="translate(353.000000, 508.000000)">
                <g id="-g-Delivery-status-Icon">
                    <path d="M2.00663401,2.4391405 L2.8274757,2.03964809 C3.32992671,1.79516502 3.92648823,2.01080459 4.18999763,2.49977073 L4.98924344,3.98334737 C5.25275284,4.47231352 5.02688764,5.08823034 4.52443663,5.33271341 L3.70359494,5.73220581 C3.20134205,5.97649267 2.60458241,5.76124553 2.34107301,5.27208318 L1.5418272,3.78870275 C1.27831779,3.29934417 1.50398487,2.68381978 2.00663401,2.4391405 L2.00663401,2.4391405 L2.00663401,2.4391405 Z" id="Shape" fill="#777777"></path>
                    <path d="M13.676138,17.5498033 C12.5567184,17.8345103 10.6618282,18.2338065 9.57529768,18.3644852 C6.47836876,18.7380773 5.69814317,17.5921856 5.1134693,12.8357537 C4.49689693,7.81914156 5.24482775,6.75310904 8.00058134,6.42091816 C9.07542233,6.29122047 11.01925,6.23176753 12.287067,6.24942682 L11.9290508,3.33740976 C10.7022462,3.22242815 8.72156685,3.11588376 7.08582728,3.31288296 C1.78413697,3.95195308 0.562285477,6.5788707 1.38669347,13.2848883 C2.14710631,19.4709379 3.82366012,22.2758219 9.33516731,21.6114401 C10.7874409,21.4362207 12.7920937,20.9215505 14.041683,20.5246089 L13.676138,17.5498033 L13.676138,17.5498033 Z" id="Shape" fill="#777777"></path>
                    <path d="M10.6806503,0.756406292 C12.0647681,0.310607305 14.1569931,1.56755638 14.0866579,3.25519595 C13.3428878,1.48200693 12.1689831,1.0150168 10.6806503,0.756406292 L10.6806503,0.756406292 L10.6806503,0.756406292 Z" id="Shape" fill="#777777"></path>
                    <path d="M11.9155782,0.178358838 C12.9383117,-0.151085044 14.4718175,0.777597441 14.4199081,2.02453959 C13.8703028,0.714612637 13.0153832,0.369079179 11.9155782,0.178358838 L11.9155782,0.178358838 L11.9155782,0.178358838 Z" id="Shape" fill="#777777"></path>
                    <path d="M3.38995931,22.1580933 C2.20357261,22.5405151 0.410321784,21.4629059 0.470750632,20.01661 C1.10812638,21.5364863 2.11401904,21.9365673 3.38995931,22.1580933 L3.38995931,22.1580933 L3.38995931,22.1580933 Z" id="Shape" fill="#777777"></path>
                    <path d="M2.33136477,22.6537307 C1.45484928,22.9360832 0.140472306,22.1402378 0.185050964,21.0718507 C0.656197851,22.1941967 1.38887287,22.4904804 2.33136477,22.6537307 L2.33136477,22.6537307 L2.33136477,22.6537307 Z" id="Shape" fill="#777777"></path>
                    <path d="M8.62002467,13.621745 L11.3763284,13.621745 C11.4222668,13.5948501 11.4870399,13.5589903 11.5692697,13.5141656 C11.6519588,13.4693409 11.7966647,13.3550378 12.0038469,13.1712564 C12.2105696,12.9874749 12.3915669,12.7835224 12.5477575,12.5593987 C12.703948,12.335275 12.846357,12.0259843 12.9754439,11.6315266 C13.1036121,11.2370689 13.1683852,10.8157164 13.1683852,10.367469 C13.1683852,9.91025672 13.0875336,9.51131655 12.9267492,9.17064855 C12.7659648,8.82998055 12.5730236,8.57044532 12.3483848,8.39069812 C12.1228273,8.21139917 11.8540877,8.06796001 11.542166,7.96038065 C11.2293255,7.85280128 10.9605859,7.78556417 10.7359472,7.75866933 C10.5103896,7.73177449 10.2738069,7.71832706 10.0257396,7.71832706 C9.06103327,7.71832706 8.27089287,7.96934559 7.65577775,8.47138265 C7.03974387,8.97341971 6.73195662,9.7937124 6.73195662,10.9322607 L8.7164953,10.9322607 C8.75324602,10.9322607 8.80653455,10.9367432 8.87498276,10.9457081 C8.94389036,10.9546731 8.99442259,10.9591556 9.02657947,10.9591556 C9.05873635,10.9591556 9.0885963,10.9457081 9.11615934,10.9188133 C9.14372238,10.8919185 9.1575039,10.8515762 9.1575039,10.7977865 C9.1575039,10.7439968 9.16209773,10.6946896 9.1717448,10.6498649 C9.18047309,10.6050401 9.19655153,10.5673874 9.21952073,10.5355618 C9.24248993,10.5041845 9.25856837,10.4772896 9.26775604,10.4548773 C9.27694372,10.4324649 9.30266922,10.414535 9.34401378,10.4010876 C9.38489895,10.3876402 9.41475891,10.376434 9.43313427,10.367469 C9.45150963,10.3585041 9.49285418,10.3517804 9.55716793,10.3472979 C9.62148169,10.3428154 9.66282624,10.3405742 9.6812016,10.3405742 L9.84014845,10.3405742 L10.0124174,10.3405742 C10.1869833,10.3405742 10.3243391,10.3853989 10.4254036,10.4750484 C10.5264681,10.5646979 10.5770003,10.6812422 10.5770003,10.8246814 C10.5770003,11.0219102 10.558625,11.1474195 10.5218742,11.2012092 C10.4851235,11.2549988 10.3610899,11.3536133 10.1497732,11.4970524 C10.1038348,11.5060174 10.0468712,11.5194648 9.97750425,11.5373947 C9.90859666,11.5553246 9.78456299,11.615838 9.60540325,11.7189349 C9.42624351,11.8220318 9.27005296,11.9430586 9.13683162,12.0820152 C9.00361027,12.2214202 8.88233291,12.4271657 8.77162137,12.7005966 C8.66136923,12.9740275 8.61083699,13.281077 8.62002467,13.621745 C8.62002467,13.621745 8.61083699,13.281077 8.62002467,13.621745 L8.62002467,13.621745 L8.62002467,13.621745 Z M8.62002467,16.3112292 L11.3763284,16.3112292 L11.3763284,14.9664871 L8.62002467,14.9664871 L8.62002467,14.9664871 L8.62002467,16.3112292 L8.62002467,16.3112292 Z" id="Fill-87" stroke="#777777" stroke-width="0.7" fill="#FFFFFF"></path>
                </g>
            </g>
        </g>
    </g>
</svg>