<?xml version="1.0" encoding="UTF-8"?>
<svg width="15px" height="23px" viewBox="0 0 15 23" version="1.1" xmlns="http://www.w3.org/2000/svg" xmlns:xlink="http://www.w3.org/1999/xlink">
    <!-- Generator: Sketch 39.1 (31720) - http://www.bohemiancoding.com/sketch -->
    <title>-g-Interactions icon</title>
    <desc>Created with Sketch.</desc>
    <defs></defs>
    <g id="NewBackend" stroke="none" stroke-width="1" fill="none" fill-rule="evenodd">
        <g id="Messages---Overview-Statistics" transform="translate(-568.000000, -508.000000)">
            <g id="Group" transform="translate(568.000000, 508.000000)">
                <g id="-g-Interactions-icon">
                    <path d="M2.00663401,2.4391405 L2.8274757,2.03964809 C3.32992671,1.79516502 3.92648823,2.01080459 4.18999763,2.49977073 L4.98924344,3.98334737 C5.25275284,4.47231352 5.02688764,5.08823034 4.52443663,5.33271341 L3.70359494,5.73220581 C3.20134205,5.97649267 2.60458241,5.76124553 2.34107301,5.27208318 L1.5418272,3.78870275 C1.27831779,3.29934417 1.50398487,2.68381978 2.00663401,2.4391405 L2.00663401,2.4391405 L2.00663401,2.4391405 Z" id="Shape" fill="#777777"></path>
                    <path d="M13.676138,17.5498033 C12.5567184,17.8345103 10.6618282,18.2338065 9.57529768,18.3644852 C6.47836876,18.7380773 5.69814317,17.5921856 5.1134693,12.8357537 C4.49689693,7.81914156 5.24482775,6.75310904 8.00058134,6.42091816 C9.07542233,6.29122047 11.01925,6.23176753 12.287067,6.24942682 L11.9290508,3.33740976 C10.7022462,3.22242815 8.72156685,3.11588376 7.08582728,3.31288296 C1.78413697,3.95195308 0.562285477,6.5788707 1.38669347,13.2848883 C2.14710631,19.4709379 3.82366012,22.2758219 9.33516731,21.6114401 C10.7874409,21.4362207 12.7920937,20.9215505 14.041683,20.5246089 L13.676138,17.5498033 L13.676138,17.5498033 Z" id="Shape" fill="#777777"></path>
                    <path d="M7.19301418,7.4133703 L10.9277151,6.96305838 C11.261956,6.92263823 11.568459,7.16045001 11.6092733,7.49146361 L12.0790333,11.3135228 C12.1196494,11.6445364 11.879519,11.94808 11.5454763,11.9885001 L7.81077532,12.4386158 C7.47653445,12.479036 7.17003141,12.2412242 7.1294153,11.9102106 L6.65945717,8.08815143 C6.61884106,7.75733404 6.85877331,7.45359424 7.19301418,7.4133703 L7.19301418,7.4133703 L7.19301418,7.4133703 Z" id="Shape" fill="#777777"></path>
                    <path d="M7.62116743,13.1220304 L8.2123795,13.0508046 C8.39346792,13.0290248 8.55949866,13.1577414 8.58168892,13.3370813 L8.6567792,13.9478966 C8.67877133,14.1270403 8.54879978,14.2916641 8.36771136,14.3134439 L7.77649929,14.3846697 C7.59541087,14.4064495 7.42938014,14.2777329 7.407388,14.098393 L7.33229772,13.4875777 C7.31010746,13.308434 7.44007901,13.1438102 7.62116743,13.1220304 L7.62116743,13.1220304 L7.62116743,13.1220304 Z" id="Shape" stroke="#777777" stroke-width="0.7"></path>
                    <path d="M9.46256321,12.900112 L10.0537753,12.8288862 C10.2348637,12.8071064 10.4008944,12.935823 10.4228866,13.1151629 L10.4979768,13.7259781 C10.519969,13.905318 10.3899974,14.0697457 10.208909,14.0915255 L9.61769694,14.1627513 C9.43660853,14.1845311 9.27057779,14.0558144 9.24858565,13.8764745 L9.17349538,13.2656593 C9.15130511,13.0865156 9.28147479,12.9218918 9.46256321,12.900112 L9.46256321,12.900112 L9.46256321,12.900112 Z" id="Shape" stroke="#777777" stroke-width="0.7"></path>
                    <path d="M11.303959,12.6779973 L11.8951711,12.6067715 C12.0762595,12.5849917 12.2422902,12.7137083 12.2642824,12.8930483 L12.3538359,13.6211997 C12.367903,13.7357889 12.2846895,13.841156 12.168785,13.8552834 L11.4590927,13.9408328 C11.2780043,13.9626126 11.1119736,13.833896 11.0899814,13.6545561 L11.0148912,13.0437409 C10.9927009,12.864401 11.1228706,12.6999733 11.303959,12.6779973 L11.303959,12.6779973 L11.303959,12.6779973 Z" id="Shape" stroke="#777777" stroke-width="0.7"></path>
                    <path d="M7.83415435,14.8538182 L8.4251683,14.7823962 C8.60625672,14.7608126 8.77228745,14.8895292 8.79447772,15.0688691 L8.86956799,15.6792919 C8.89156013,15.8590243 8.76158857,16.0234519 8.58050016,16.0452317 L7.98928808,16.1164575 C7.80819967,16.1382373 7.64216893,16.0095207 7.62017679,15.8301808 L7.54508652,15.2193655 C7.52289625,15.0400256 7.65286781,14.8754018 7.83415435,14.8538182 L7.83415435,14.8538182 L7.83415435,14.8538182 Z" id="Shape" stroke="#777777" stroke-width="0.7"></path>
                    <path d="M9.67535201,14.6315073 L10.2665641,14.5602815 C10.4476525,14.5386979 10.6136832,14.6674146 10.6356754,14.8465583 L10.7107656,15.4573735 C10.7327578,15.6367134 10.6027862,15.801141 10.4216978,15.8229208 L9.83068387,15.8941466 C9.64939732,15.9159264 9.48356471,15.7872098 9.46137445,15.6078699 L9.38628417,14.9972509 C9.36429204,14.817911 9.49426359,14.6532871 9.67535201,14.6315073 L9.67535201,14.6315073 L9.67535201,14.6315073 Z" id="Shape" stroke="#777777" stroke-width="0.7"></path>
                    <path d="M11.5167478,14.4095889 L12.1079599,14.3383631 C12.2890483,14.3165833 12.455079,14.4452999 12.4770712,14.6246398 L12.5521614,15.2354551 C12.5743517,15.414795 12.444182,15.5792226 12.2630936,15.6010024 L11.6720796,15.6722282 C11.4909912,15.694008 11.3249605,15.5652914 11.3027702,15.3859515 L11.22768,14.7751362 C11.2056878,14.5957963 11.3356594,14.4313687 11.5167478,14.4095889 L11.5167478,14.4095889 L11.5167478,14.4095889 Z" id="Shape" stroke="#777777" stroke-width="0.7"></path>
                    <path d="M8.04694315,16.5852135 L8.63815522,16.5139877 C8.81924364,16.4922079 8.98527438,16.6209246 9.00726651,16.8002645 L9.08235679,17.4110797 C9.10434893,17.5904196 8.97437737,17.7548472 8.79328895,17.776627 L8.20207688,17.8478528 C8.02098846,17.8696326 7.85495773,17.740916 7.83296559,17.5615761 L7.75787532,16.9507609 C7.73568505,16.771421 7.86585473,16.6069933 8.04694315,16.5852135 L8.04694315,16.5852135 L8.04694315,16.5852135 Z" id="Shape" stroke="#777777" stroke-width="0.7"></path>
                    <path d="M9.8881408,16.3629027 L10.4793529,16.2916769 C10.6604413,16.2698971 10.826472,16.3990061 10.8484642,16.578346 L10.9235544,17.1887689 C10.9455466,17.3681088 10.815575,17.5329288 10.6344866,17.5543162 L10.0434727,17.625542 C9.86238424,17.6473218 9.69635351,17.5186052 9.67416324,17.3392653 L9.59907297,16.7288424 C9.57708083,16.5495025 9.70705239,16.3846825 9.8881408,16.3629027 L9.8881408,16.3629027 L9.8881408,16.3629027 Z" id="Shape" stroke="#777777" stroke-width="0.7"></path>
                    <path d="M11.7295366,16.1409843 L12.3207487,16.0697585 C12.5018371,16.0479787 12.6678678,16.1766953 12.6898599,16.3560352 L12.7649502,16.9668504 C12.7869424,17.1461903 12.6569708,17.310618 12.4758824,17.3323978 L11.8846703,17.4036236 C11.7035819,17.4254034 11.5375512,17.2966868 11.5153609,17.1173468 L11.4402706,16.5065316 C11.4184766,16.3271917 11.5486463,16.1629603 11.7295366,16.1409843 L11.7295366,16.1409843 L11.7295366,16.1409843 Z" id="Shape" stroke="#777777" stroke-width="0.7"></path>
                    <path d="M10.6806503,0.756406292 C12.0647681,0.310607305 14.1569931,1.56755638 14.0866579,3.25519595 C13.3428878,1.48200693 12.1689831,1.0150168 10.6806503,0.756406292 L10.6806503,0.756406292 L10.6806503,0.756406292 Z" id="Shape" fill="#777777"></path>
                    <path d="M11.9155782,0.178358838 C12.9383117,-0.151085044 14.4718175,0.777597441 14.4199081,2.02453959 C13.8703028,0.714612637 13.0153832,0.369079179 11.9155782,0.178358838 L11.9155782,0.178358838 L11.9155782,0.178358838 Z" id="Shape" fill="#777777"></path>
                    <path d="M3.38995931,22.1580933 C2.20357261,22.5405151 0.410321784,21.4629059 0.470750632,20.01661 C1.10812638,21.5364863 2.11401904,21.9365673 3.38995931,22.1580933 L3.38995931,22.1580933 L3.38995931,22.1580933 Z" id="Shape" fill="#777777"></path>
                    <path d="M2.33136477,22.6537307 C1.45484928,22.9360832 0.140472306,22.1402378 0.185050964,21.0718507 C0.656197851,22.1941967 1.38887287,22.4904804 2.33136477,22.6537307 L2.33136477,22.6537307 L2.33136477,22.6537307 Z" id="Shape" fill="#777777"></path>
                </g>
            </g>
        </g>
    </g>
</svg>