<?xml version="1.0" encoding="UTF-8"?>
<svg width="31px" height="31px" viewBox="0 0 31 31" version="1.1" xmlns="http://www.w3.org/2000/svg" xmlns:xlink="http://www.w3.org/1999/xlink">
    <!-- Generator: Sketch 39.1 (31720) - http://www.bohemiancoding.com/sketch -->
    <title>Fill 92</title>
    <desc>Created with Sketch.</desc>
    <defs></defs>
    <g id="Page-1" stroke="none" stroke-width="1" fill="none" fill-rule="evenodd">
        <g id="Dashboard" transform="translate(-833.000000, -680.000000)" fill="#777777">
            <path d="M840.723993,682.080537 C843.099273,680.693512 845.691275,680 848.5,680 C851.309592,680 853.900727,680.693512 856.276874,682.080537 C858.651286,683.467562 860.532438,685.348714 861.92033,687.723993 C863.306488,690.10014 864,692.691275 864,695.5 C864,698.308725 863.306488,700.900727 861.92033,703.276007 C860.532438,705.651286 858.651286,707.532438 856.276874,708.919463 C853.900727,710.306488 851.309592,711 848.5,711 C845.691275,711 843.099273,710.306488 840.723993,708.919463 C838.347847,707.532438 836.466695,705.651286 835.080537,703.276007 C833.693512,700.900727 833,698.308725 833,695.5 C833,692.691275 833.693512,690.10014 835.080537,687.723993 C836.466695,685.348714 838.347847,683.467562 840.723993,682.080537 C840.723993,682.080537 838.347847,683.467562 840.723993,682.080537 L840.723993,682.080537 L840.723993,682.080537 Z M839.345638,701.091443 L854.118317,686.345638 C852.384536,685.270694 850.512053,684.733221 848.5,684.733221 C845.535235,684.733221 842.999581,685.786493 840.893037,687.893037 C838.786493,689.999581 837.733221,692.535235 837.733221,695.5 C837.733221,697.493848 838.270694,699.357662 839.345638,701.091443 C839.345638,701.091443 838.270694,699.357662 839.345638,701.091443 L839.345638,701.091443 L839.345638,701.091443 Z M857.733249,690.064597 L843.065464,704.732383 C844.746365,705.755313 846.558166,706.266779 848.5,706.266779 C851.464765,706.266779 854.001286,705.213507 856.10783,703.106963 C858.213507,701.000419 859.266779,698.464765 859.266779,695.5 C859.266779,693.558166 858.755313,691.746365 857.733249,690.064597 L857.733249,690.064597 Z" id="Fill-92"></path>
        </g>
    </g>
</svg>