<?xml version="1.0" encoding="UTF-8"?>
<svg width="33px" height="35px" viewBox="0 0 33 35" version="1.1" xmlns="http://www.w3.org/2000/svg" xmlns:xlink="http://www.w3.org/1999/xlink">
    <!-- Generator: Sketch 42 (36781) - http://www.bohemiancoding.com/sketch -->
    <title>CallerID</title>
    <desc>Created with Sketch.</desc>
    <defs></defs>
    <g id="Page-1" stroke="none" stroke-width="1" fill="none" fill-rule="evenodd">
        <g id="CallerID" fill="#777777">
            <g id="Other">
                <g id="PauseWhite">
                    <g id="CallerID">
                        <g id="Phone-Icon" transform="translate(0.643127, 0.086798)" fill-rule="nonzero">
                            <path d="M2.951448,3.63080085 L4.15877906,3.03613344 C4.89780672,2.67220634 5.77525636,2.99319822 6.1628379,3.72105243 L7.33840476,5.92944156 C7.7259863,6.65729577 7.39377356,7.57412337 6.6547459,7.93805047 L5.44741483,8.53271788 C4.70867859,8.89635291 3.83093754,8.57594518 3.443356,7.84779889 L2.26778913,5.63970184 C1.88020759,4.91126348 2.21212892,3.99502003 2.951448,3.63080085 L2.951448,3.63080085 L2.951448,3.63080085 Z" id="Shape"></path>
                            <path d="M20.1154819,26.123891 C18.4689889,26.5476938 15.6818988,27.1420691 14.0837806,27.336592 C9.52867759,27.8927053 8.38108653,26.1869795 7.52112178,19.1067572 C6.61423926,11.6392417 7.71432972,10.052391 11.7676167,9.5579058 C13.3485414,9.36484334 16.2076109,9.27634421 18.0723735,9.30263108 L17.5457872,4.96792628 C15.7413474,4.79676955 12.8280747,4.63817211 10.422155,4.93141674 C2.6241893,5.88270935 0.827034895,9.79302724 2.03961143,19.7753199 C3.15806101,28.9836104 5.62401213,33.1588415 13.730586,32.169871 C15.8666557,31.9090469 18.8151896,31.1429307 20.653142,30.5520603 L20.1154819,26.123891 L20.1154819,26.123891 Z" id="Shape"></path>
                            <path d="M16.0729773,10.3649127 C16.5645939,10.304745 17.0154124,10.6587415 17.0754439,11.1514742 L17.7663881,16.8408291 C17.8261281,17.3335618 17.4729335,17.7854039 16.9816083,17.8455716 L11.4884414,18.5155947 C10.9968248,18.5757625 10.5460063,18.2217659 10.4862663,17.7290332 L9.79503061,12.0396784 C9.7352906,11.5472377 10.0881938,11.0951035 10.5798104,11.0352279 L16.0729773,10.3649127 Z M16.4016702,15.7297852 L14.7503821,14.9463728 L14.7039667,14.5683501 C14.7985678,14.5567345 14.8743653,14.4521369 14.9317424,14.25451 C14.9892471,14.0568675 15.0099174,13.8938059 14.9941362,13.7652781 L14.9013055,13.0092327 C14.8629509,12.6968599 14.7177886,12.4433923 14.4658648,12.2492078 C14.213941,12.0550234 13.9296724,11.9773688 13.6130589,12.016244 C13.2964455,12.0551193 13.0395349,12.1992223 12.8420718,12.4485845 C12.644481,12.6979624 12.56495,12.9790189 12.6033045,13.2913917 L12.6961353,14.0474372 C12.7119165,14.1759649 12.7715486,14.3291666 12.8751592,14.5070267 C12.9786422,14.6849024 13.0774927,14.768056 13.1719661,14.7564561 L13.2183815,15.1344788 L11.8056683,16.2941033 L11.8720423,16.8346758 L16.4680441,16.2703577 L16.4016702,15.7297852 Z" id="Combined-Shape"></path>
                            <path d="M11.2095575,19.5328966 L12.079139,19.4268729 C12.345492,19.3944524 12.5896975,19.5860545 12.622336,19.8530122 L12.7327821,20.7622459 C12.7651292,21.0289115 12.5739611,21.2739636 12.3076081,21.3063841 L11.4380266,21.4124078 C11.1716736,21.4448282 10.9274681,21.2532262 10.8951211,20.9862684 L10.7846749,20.0770348 C10.7520365,19.8103691 10.9432045,19.5653171 11.2095575,19.5328966 L11.2095575,19.5328966 L11.2095575,19.5328966 Z" id="Shape"></path>
                            <path d="M13.9179657,19.2025583 L14.7875471,19.0965346 C15.0539001,19.0641141 15.2981057,19.2557162 15.3304527,19.5226739 L15.4408989,20.4319075 C15.4732459,20.6988653 15.2820778,20.9436253 15.0157248,20.9760457 L14.1461434,21.0820694 C13.8797903,21.1144899 13.6355848,20.9228878 13.6032378,20.6559301 L13.4927916,19.7466965 C13.4601532,19.4800308 13.6516126,19.2349787 13.9179657,19.2025583 L13.9179657,19.2025583 L13.9179657,19.2025583 Z" id="Shape"></path>
                            <path d="M16.6263738,18.8719279 L17.4959553,18.7659041 C17.7623083,18.7334837 18.0065138,18.9250857 18.0388608,19.1920435 L18.1705803,20.2759388 C18.1912707,20.4465113 18.0688765,20.6033563 17.8983989,20.6243858 L16.8545515,20.7517311 C16.5881985,20.7841516 16.343993,20.5925495 16.3116459,20.3255917 L16.2011998,19.4163581 C16.1685613,19.1494004 16.3600208,18.9046404 16.6263738,18.8719279 L16.6263738,18.8719279 L16.6263738,18.8719279 Z" id="Shape"></path>
                            <path d="M12.3921183,22.0044465 C12.6584714,21.9723181 12.9026769,22.1639202 12.9353153,22.4308779 L13.0457615,23.3395274 C13.0781085,23.6070693 12.8869405,23.8518293 12.6205875,23.8842497 L11.751006,23.9902734 C11.484653,24.0226939 11.2404475,23.8310919 11.2081005,23.5641341 L11.0976543,22.6549005 C11.0650158,22.3879427 11.2561839,22.1428907 11.5228283,22.1107623 L12.3921183,22.0044465 Z" id="Shape"></path>
                            <path d="M15.1005265,21.6738161 C15.3668795,21.6416877 15.611085,21.8332898 15.6434321,22.0999554 L15.7538782,23.0091891 C15.7862253,23.2761468 15.5950572,23.5209068 15.3287042,23.5533273 L14.4594142,23.659351 C14.1927697,23.6917714 13.9488556,23.5001694 13.9162172,23.2332116 L13.805771,22.3242701 C13.773424,22.0573123 13.964592,21.8122603 14.2309451,21.7798398 L15.1005265,21.6738161 Z" id="Shape"></path>
                            <path d="M17.8089346,21.3434778 C18.0752877,21.3110573 18.3194932,21.5026594 18.3518402,21.7696171 L18.4622864,22.6788507 C18.4949248,22.9458085 18.3034654,23.1905685 18.0371123,23.2229889 L17.1678223,23.3290126 C16.9014693,23.3614331 16.6572638,23.169831 16.6246253,22.9028733 L16.5141792,21.9936397 C16.4818321,21.7266819 16.6730002,21.4819219 16.9393532,21.4495015 L17.8089346,21.3434778 Z" id="Shape"></path>
                            <path d="M11.8358077,24.6880438 L12.7053891,24.5820201 C12.9717422,24.5495996 13.2159477,24.7412017 13.2482947,25.0081595 L13.3587409,25.9173931 C13.3910879,26.1843508 13.1999199,26.4291108 12.9335668,26.4615313 L12.0639854,26.567555 C11.7976324,26.5999755 11.5534269,26.4083734 11.5210798,26.1414156 L11.4106337,25.232182 C11.3779952,24.9652242 11.5694547,24.7204643 11.8358077,24.6880438 L11.8358077,24.6880438 L11.8358077,24.6880438 Z" id="Shape"></path>
                            <path d="M14.5439244,24.3571213 L15.4135059,24.2510976 C15.6798589,24.2186771 15.9240644,24.4108634 15.9564114,24.6778211 L16.0668576,25.5864706 C16.0992046,25.8534284 15.9080366,26.0987725 15.6416836,26.1306088 L14.7723935,26.2366325 C14.5060405,26.269053 14.261835,26.0774509 14.2291966,25.8104931 L14.1187504,24.9018437 C14.0864034,24.6348859 14.2775714,24.3895418 14.5439244,24.3571213 L14.5439244,24.3571213 L14.5439244,24.3571213 Z" id="Shape"></path>
                            <path d="M17.2523326,24.026783 L18.121914,23.9207593 C18.388267,23.8883388 18.6324726,24.0799409 18.6648196,24.3468986 L18.7752658,25.2561323 C18.8076128,25.52309 18.6164447,25.76785 18.3500917,25.8002705 L17.4805103,25.9062942 C17.2141572,25.9387146 16.9699517,25.7471126 16.9373133,25.4801548 L16.8268671,24.5709212 C16.7948115,24.3039634 16.986271,24.0594955 17.2523326,24.026783 L17.2523326,24.026783 L17.2523326,24.026783 Z" id="Shape"></path>
                            <path d="M15.7095832,1.12595425 C17.7454062,0.462356829 20.8227454,2.33339779 20.7192932,4.8455463 C19.6253224,2.20605251 17.8986904,1.51091085 15.7095832,1.12595425 L15.7095832,1.12595425 L15.7095832,1.12595425 Z" id="Shape"></path>
                            <path d="M17.525971,0.265497383 C19.0302536,-0.224898773 21.2858033,1.15749849 21.2094527,3.01364356 C20.4010683,1.06374199 19.1436139,0.549395575 17.525971,0.265497383 L17.525971,0.265497383 L17.525971,0.265497383 Z" id="Shape"></path>
                            <path d="M4.98610537,32.9835957 C3.2411142,33.5528525 0.603519826,31.9487693 0.692401307,29.7958746 C1.62988237,32.0582979 3.10939476,32.6538415 4.98610537,32.9835957 L4.98610537,32.9835957 L4.98610537,32.9835957 Z" id="Shape"></path>
                            <path d="M3.42907668,33.7213805 C2.13985808,34.1416783 0.206613016,32.9570168 0.272181322,31.3666611 C0.965165459,33.0373377 2.04281699,33.478373 3.42907668,33.7213805 L3.42907668,33.7213805 L3.42907668,33.7213805 Z" id="Shape"></path>
                        </g>
                        <g id="ID" transform="translate(26.000000, 29.000000)">
                            <path d="M0.424668819,0.00438120625 L1.12424304,0.00438120625 L1.12424304,5.1171898 L0.424668819,5.1171898 L0.424668819,0.00438120625 Z M4.21141882,4.52551011 C4.44577155,4.52551011 4.63835556,4.50114707 4.78917663,4.45242027 C5.05833423,4.36192763 5.27876171,4.18790593 5.45046569,3.93034996 C5.58736482,3.72384111 5.68597711,3.45932813 5.74630554,3.13680308 C5.7811104,2.94421618 5.79851257,2.7655539 5.79851257,2.60081089 C5.79851257,1.96736241 5.67263687,1.47546108 5.42088171,1.12509214 C5.16912654,0.774723204 4.76365599,0.599541362 4.20445788,0.599541362 L2.97585241,0.599541362 L2.97585241,4.52551011 L4.21141882,4.52551011 Z M2.27975866,0.00438120625 L4.35063757,0.00438120625 C5.05369577,0.00438120625 5.59896376,0.253812306 5.98645788,0.752681987 C6.33218617,1.20282486 6.50504773,1.77941675 6.50504773,2.48247496 C6.50504773,3.0254308 6.402955,3.51617198 6.19876648,3.95471324 C5.83911624,4.72970149 5.22075914,5.1171898 4.34367663,5.1171898 L2.27975866,5.1171898 L2.27975866,0.00438120625 Z"></path>
                        </g>
                    </g>
                </g>
            </g>
        </g>
    </g>
</svg>