<?xml version="1.0" encoding="UTF-8"?>
<svg width="24px" height="38px" viewBox="0 0 24 38" version="1.1" xmlns="http://www.w3.org/2000/svg" xmlns:xlink="http://www.w3.org/1999/xlink">
    <!-- Generator: sketchtool 39.1 (31720) - http://www.bohemiancoding.com/sketch -->
    <title>06D15AAF-E99E-4C75-BDD1-650FB6DB0B3E</title>
    <desc>Created with sketchtool.</desc>
    <defs></defs>
    <g id="Page-1" stroke="none" stroke-width="1" fill="none" fill-rule="evenodd">
        <g id="Dashboard-with-clicktocall" transform="translate(-836.000000, -674.000000)">
            <g id="callerid-icon" transform="translate(837.000000, 675.000000)">
                <path d="M3.06201673,3.86972048 L4.36516067,3.21843245 C5.16283699,2.81985442 6.10992036,3.1714092 6.52826008,3.96856527 L7.79711903,6.38722378 C8.21545874,7.18437985 7.85688184,8.18850219 7.05920552,8.58708023 L5.75606158,9.23836825 C4.9586998,9.6366264 4.01130189,9.28571139 3.59296217,8.48823543 L2.32410322,6.06989681 C1.90576351,5.27210097 2.26402587,4.26861839 3.06201673,3.86972048 L3.06201673,3.86972048 L3.06201673,3.86972048 Z" id="Shape-Copy" fill="#777777"></path>
                <path d="M21.5881752,28.504466 C19.8110178,28.9686206 16.8027464,29.6195888 15.0778028,29.8326329 C10.1612102,30.441696 8.92254722,28.5735614 7.99433632,20.8192033 C7.0154843,12.6406764 8.20287709,10.9027354 12.5778298,10.3611683 C14.2842155,10.1497236 17.3701786,10.0527982 19.3829273,10.0815879 L18.8145515,5.33415887 C16.8669127,5.14670563 13.722445,4.9730075 11.1255933,5.29417311 C2.70878703,6.33604201 0.769011836,10.6186766 2.07781751,21.5514225 C3.2850264,31.6364704 5.94667351,36.2092417 14.6965789,35.1261075 C17.0021654,34.8404492 20.1846927,34.0013881 22.1685036,33.3542586 L21.5881752,28.504466 L21.5881752,28.504466 Z" id="Shape-Copy-2" fill="#777777"></path>
                <path d="M17.2248606,11.2450135 C17.7554915,11.179117 18.2420866,11.5668189 18.3068821,12.1064667 L19.0526591,18.3375273 C19.11714,18.8771751 18.7359162,19.3720388 18.2055998,19.4379353 L12.2764994,20.171754 C11.7458685,20.2376505 11.2592733,19.8499486 11.1947924,19.3103008 L10.4487008,13.0792402 C10.3842199,12.5399123 10.7651292,12.0447287 11.2957601,11.979152 L17.2248606,11.2450135 Z" id="Shape-Copy-3" fill="#777777"></path>
                <path d="M11.9754835,21.2859171 L12.9140743,21.1697985 C13.2015649,21.1342911 13.4651503,21.3441364 13.5003789,21.6365122 L13.61959,22.6323175 C13.6545041,22.9243735 13.4481651,23.1927579 13.1606745,23.2282653 L12.2220838,23.3443839 C11.9345932,23.3798913 11.6710077,23.170046 11.6360936,22.8776701 L11.5168825,21.8818648 C11.4816539,21.5898089 11.6879929,21.3214245 11.9754835,21.2859171 L11.9754835,21.2859171 L11.9754835,21.2859171 Z" id="Shape-Copy-4" fill="#777777"></path>
                <path d="M14.8988288,20.924126 L15.8374196,20.8080073 C16.1249102,20.7725 16.3884957,20.9823452 16.4234097,21.2747211 L16.5426208,22.2705264 C16.5775349,22.5629023 16.3711959,22.8309668 16.0837053,22.8664741 L15.1451146,22.9825928 C14.857624,23.0181001 14.5940385,22.8082549 14.5591244,22.515879 L14.4399133,21.5200737 C14.4046847,21.2280177 14.6113382,20.9596333 14.8988288,20.924126 L14.8988288,20.924126 L14.8988288,20.924126 Z" id="Shape-Copy-5" fill="#777777"></path>
                <path d="M17.8221742,20.5620149 L18.7607649,20.4458963 C19.0482555,20.410389 19.311841,20.6202342 19.3467551,20.9126101 L19.4889277,22.0997072 C19.5112601,22.2865207 19.3791528,22.4582995 19.1951462,22.4813313 L18.0684599,22.6208016 C17.7809693,22.656309 17.5173838,22.4464637 17.4824698,22.1540879 L17.3632587,21.1582826 C17.3280301,20.8659067 17.5346836,20.5978422 17.8221742,20.5620149 L17.8221742,20.5620149 L17.8221742,20.5620149 Z" id="Shape-Copy-6" fill="#777777"></path>
                <path d="M12.3136152,24.1092315 L13.2518914,23.992793 C13.539382,23.9576055 13.8029675,24.1674507 13.8381961,24.4598266 L13.9574072,25.4549921 C13.9923213,25.7480078 13.7859823,26.0160723 13.4984917,26.0515797 L12.5599009,26.1676983 C12.2724103,26.2032056 12.0088249,25.9933604 11.9739108,25.7009845 L11.8546997,24.7051792 C11.8194711,24.4128034 12.0258101,24.144419 12.3136152,24.1092315 L12.3136152,24.1092315 L12.3136152,24.1092315 Z" id="Shape-Copy-7" fill="#777777"></path>
                <path d="M15.236646,23.7468006 L16.1752368,23.6306819 C16.4627274,23.5954945 16.7263129,23.8053397 16.7612269,24.0973957 L16.880438,25.093201 C16.9153521,25.3855769 16.7090131,25.6536414 16.4215225,25.6891487 L15.4832463,25.8052674 C15.1954411,25.8407747 14.9321702,25.6309295 14.8969416,25.3385536 L14.7777305,24.3430682 C14.7428164,24.0506923 14.9491554,23.7823079 15.236646,23.7468006 L15.236646,23.7468006 L15.236646,23.7468006 Z" id="Shape-Copy-8" fill="#777777"></path>
                <path d="M18.1599914,23.3850094 L19.0985821,23.2688908 C19.3860727,23.2333834 19.6496582,23.4432287 19.6845723,23.7356046 L19.8037834,24.7314099 C19.839012,25.0237857 19.6323584,25.2918503 19.3448678,25.3273576 L18.4065916,25.4434762 C18.119101,25.4789836 17.8555155,25.2691383 17.8202869,24.9767625 L17.7010758,23.9809572 C17.6661618,23.6885813 17.8725008,23.4205168 18.1599914,23.3850094 L18.1599914,23.3850094 L18.1599914,23.3850094 Z" id="Shape-Copy-9" fill="#777777"></path>
                <path d="M12.6514324,26.9319061 L13.5900232,26.8157875 C13.8775138,26.7802801 14.1410992,26.9901254 14.1760133,27.2825012 L14.2952244,28.2783065 C14.3301385,28.5706824 14.1237995,28.8387469 13.8363089,28.8742543 L12.8977181,28.9903729 C12.6102275,29.0258803 12.346642,28.816035 12.311728,28.5236591 L12.1925169,27.5278538 C12.1572883,27.235478 12.3639418,26.9674134 12.6514324,26.9319061 L12.6514324,26.9319061 L12.6514324,26.9319061 Z" id="Shape-Copy-10" fill="#777777"></path>
                <path d="M15.5744632,26.5694752 L16.513054,26.4533565 C16.8005446,26.4178492 17.06413,26.6283342 17.0990441,26.9207101 L17.2182552,27.9158756 C17.2531693,28.2082515 17.0468303,28.4769558 16.7593397,28.5118234 L15.8210635,28.627942 C15.5335729,28.6634493 15.2699874,28.4536041 15.2347588,28.1612282 L15.1155477,27.1660627 C15.0806336,26.8736868 15.2869726,26.6049825 15.5744632,26.5694752 L15.5744632,26.5694752 L15.5744632,26.5694752 Z" id="Shape-Copy-11" fill="#777777"></path>
                <path d="M18.4978085,26.2076841 L19.4363993,26.0915654 C19.7238899,26.0560581 19.9874754,26.2659033 20.0223894,26.5582792 L20.1416005,27.5540845 C20.1765146,27.8464603 19.9701756,28.1145249 19.682685,28.1500322 L18.7440943,28.2661509 C18.4566037,28.3016582 18.1930182,28.091813 18.1577896,27.7994371 L18.0385785,26.8036318 C18.003979,26.5112559 18.2106325,26.2435113 18.4978085,26.2076841 L18.4978085,26.2076841 L18.4978085,26.2076841 Z" id="Shape-Copy-12" fill="#777777"></path>
                <path d="M16.8326278,1.12637761 C19.0300122,0.399596478 22.3515666,2.44878659 22.2399045,5.20012661 C21.059117,2.30931627 19.1954608,1.54798744 16.8326278,1.12637761 L16.8326278,1.12637761 L16.8326278,1.12637761 Z" id="Shape-Copy-13" fill="#777777"></path>
                <path d="M18.7931627,0.183993272 C20.416824,-0.353095425 22.8513724,1.1609253 22.7689627,3.19380123 C21.8964255,1.05824188 20.5391805,0.494922524 18.7931627,0.183993272 L18.7931627,0.183993272 L18.7931627,0.183993272 Z" id="Shape-Copy-14" fill="#777777"></path>
                <path d="M5.25814296,36.01731 C3.37467062,36.640768 0.527758783,34.8839537 0.62369383,32.5260735 C1.63557267,35.003911 3.23249803,35.6561587 5.25814296,36.01731 L5.25814296,36.01731 L5.25814296,36.01731 Z" id="Shape-Copy-15" fill="#777777"></path>
                <path d="M3.57754966,36.8253422 C2.18601966,37.2856583 0.0993537529,35.9882004 0.170125509,34.2464208 C0.918104335,36.0761691 2.08127746,36.559197 3.57754966,36.8253422 L3.57754966,36.8253422 L3.57754966,36.8253422 Z" id="Shape-Copy-16" fill="#777777"></path>
                <path d="M0.751082991,2.50444676 C0.751082991,2.50444676 0.873439494,1.49488635 1.95609009,0.782180208 C2.99564855,0.0976240358 4.49978428,0.392878871 4.49978428,0.392878871" id="Shape-Copy-17" stroke="#777777" stroke-width="1.7325"></path>
                <path d="M1.59436778,2.7194102 C1.59436778,2.7194102 1.79315778,2.00542451 2.4845192,1.60364761 C3.31018969,1.12381852 4.30634148,1.39412224 4.30634148,1.39412224" id="Shape-Copy-18" stroke="#777777" stroke-width="1.7325"></path>
                <path d="M2.48703553,2.99291278 C2.48703553,2.99291278 2.57605067,2.65639264 2.94312018,2.37649234 C3.31018969,2.09659204 3.98928401,2.24533905 3.98928401,2.24533905" id="Shape-Copy-19" stroke="#777777" stroke-width="1.7325"></path>
                <path d="M13.9565361,12.4924652 C14.4097044,12.3872642 14.8908582,12.3985507 15.3382021,12.5259066 C15.8393863,12.6674751 16.2956798,12.9561857 16.6352009,13.3443843 C17.0539908,13.8170225 17.2908032,14.4391715 17.2919397,15.065222 C17.3257497,15.462617 17.2817114,15.865307 17.165081,16.2470961 C17.0102367,16.7613966 16.7391881,17.2358462 16.4130206,17.6638958 C16.0972234,18.0787083 15.728012,18.452555 15.3302468,18.7922637 C15.0921559,18.9940267 14.8432685,19.1838065 14.582164,19.356169 C14.7367242,19.1162271 14.856622,18.8457699 14.8756579,18.5597068 C14.8887274,18.3657468 14.8320458,18.1637051 14.6983683,18.0173991 C14.5342901,17.8348649 14.2937842,17.7422044 14.0582504,17.6860508 C13.8031124,17.634774 13.5528044,17.5527033 13.3239473,17.4298062 C12.8179331,17.1739796 12.4028367,16.7522002 12.1516764,16.2518336 C11.9255184,15.8044158 11.8347427,15.2935987 11.8882989,14.7972729 C11.9445543,14.2629076 12.1727011,13.7479103 12.5316842,13.3422943 C12.8999012,12.9216296 13.4059154,12.6188457 13.9565361,12.4924652 L13.9565361,12.4924652 Z M13.0554558,14.0484647 C12.9334271,14.0738244 12.8388158,14.1880825 12.8402364,14.3107009 C12.8356905,14.4478105 12.9533154,14.5758631 13.0933856,14.5832481 C13.2070328,14.5953706 13.3212482,14.5294632 13.368838,14.4281637 C13.4213998,14.3221267 13.3921357,14.1836236 13.2992291,14.1082412 C13.2337399,14.0518089 13.140265,14.0285392 13.0554558,14.0484647 L13.0554558,14.0484647 Z M15.9675235,14.0493007 C15.8511772,14.0747998 15.7596912,14.1811155 15.7554294,14.298439 C15.7430703,14.4482285 15.8790207,14.5900757 16.0328707,14.5840841 C16.1969488,14.5904937 16.3373031,14.428303 16.3063343,14.2705712 C16.286446,14.1186916 16.1181061,14.0084744 15.9675235,14.0493007 L15.9675235,14.0493007 Z M12.7305668,15.2140361 C12.7282939,15.6682815 12.9105556,16.1191828 13.2277734,16.4498344 C13.4921452,16.7275372 13.8472927,16.9221939 14.2284371,16.9926995 C14.6003476,17.0630657 14.9944193,17.0191739 15.3394806,16.8650649 C15.6092507,16.7437006 15.8508931,16.5607483 16.0334389,16.3306995 C16.2874404,16.0156539 16.4273685,15.615472 16.4268003,15.2140361 L12.7305668,15.2140361 L12.7305668,15.2140361 Z" id="Shape-Copy-20" fill="#FFFFFF"></path>
            </g>
        </g>
    </g>
</svg>