<?xml version="1.0" encoding="UTF-8"?>
<svg width="24px" height="38px" viewBox="0 0 24 38" version="1.1" xmlns="http://www.w3.org/2000/svg" xmlns:xlink="http://www.w3.org/1999/xlink">
    <!-- Generator: Sketch 42 (36781) - http://www.bohemiancoding.com/sketch -->
    <title>ClickToCall</title>
    <desc>Created with Sketch.</desc>
    <defs></defs>
    <g id="Page-1" stroke="none" stroke-width="1" fill="none" fill-rule="evenodd">
        <g id="ClickToCall" fill-rule="nonzero">
            <g id="Page-1">
                <g id="Dashboard-with-clicktocall">
                    <g id="callerid-icon">
                        <path d="M4.06201673,4.86972048 L5.36516067,4.21843245 C6.16283699,3.81985442 7.10992036,4.1714092 7.52826008,4.96856527 L8.79711903,7.38722378 C9.21545874,8.18437985 8.85688184,9.18850219 8.05920552,9.58708023 L6.75606158,10.2383683 C5.9586998,10.6366264 5.01130189,10.2857114 4.59296217,9.48823543 L3.32410322,7.06989681 C2.90576351,6.27210097 3.26402587,5.26861839 4.06201673,4.86972048 L4.06201673,4.86972048 L4.06201673,4.86972048 Z" id="Shape-Copy" fill="#777777"></path>
                        <path d="M22.5881752,29.504466 C20.8110178,29.9686206 17.8027464,30.6195888 16.0778028,30.8326329 C11.1612102,31.441696 9.92254722,29.5735614 8.99433632,21.8192033 C8.0154843,13.6406764 9.20287709,11.9027354 13.5778298,11.3611683 C15.2842155,11.1497236 18.3701786,11.0527982 20.3829273,11.0815879 L19.8145515,6.33415887 C17.8669127,6.14670563 14.722445,5.9730075 12.1255933,6.29417311 C3.70878703,7.33604201 1.76901184,11.6186766 3.07781751,22.5514225 C4.2850264,32.6364704 6.94667351,37.2092417 15.6965789,36.1261075 C18.0021654,35.8404492 21.1846927,35.0013881 23.1685036,34.3542586 L22.5881752,29.504466 L22.5881752,29.504466 Z" id="Shape-Copy-2" fill="#777777"></path>
                        <path d="M18.2248606,12.2450135 C18.7554915,12.179117 19.2420866,12.5668189 19.3068821,13.1064667 L20.0526591,19.3375273 C20.11714,19.8771751 19.7359162,20.3720388 19.2055998,20.4379353 L13.2764994,21.171754 C12.7458685,21.2376505 12.2592733,20.8499486 12.1947924,20.3103008 L11.4487008,14.0792402 C11.3842199,13.5399123 11.7651292,13.0447287 12.2957601,12.979152 L18.2248606,12.2450135 Z" id="Shape-Copy-3" fill="#777777"></path>
                        <path d="M12.9754835,22.2859171 L13.9140743,22.1697985 C14.2015649,22.1342911 14.4651503,22.3441364 14.5003789,22.6365122 L14.61959,23.6323175 C14.6545041,23.9243735 14.4481651,24.1927579 14.1606745,24.2282653 L13.2220838,24.3443839 C12.9345932,24.3798913 12.6710077,24.170046 12.6360936,23.8776701 L12.5168825,22.8818648 C12.4816539,22.5898089 12.6879929,22.3214245 12.9754835,22.2859171 L12.9754835,22.2859171 L12.9754835,22.2859171 Z" id="Shape-Copy-4" fill="#777777"></path>
                        <path d="M15.8988288,21.924126 L16.8374196,21.8080073 C17.1249102,21.7725 17.3884957,21.9823452 17.4234097,22.2747211 L17.5426208,23.2705264 C17.5775349,23.5629023 17.3711959,23.8309668 17.0837053,23.8664741 L16.1451146,23.9825928 C15.857624,24.0181001 15.5940385,23.8082549 15.5591244,23.515879 L15.4399133,22.5200737 C15.4046847,22.2280177 15.6113382,21.9596333 15.8988288,21.924126 L15.8988288,21.924126 L15.8988288,21.924126 Z" id="Shape-Copy-5" fill="#777777"></path>
                        <path d="M18.8221742,21.5620149 L19.7607649,21.4458963 C20.0482555,21.410389 20.311841,21.6202342 20.3467551,21.9126101 L20.4889277,23.0997072 C20.5112601,23.2865207 20.3791528,23.4582995 20.1951462,23.4813313 L19.0684599,23.6208016 C18.7809693,23.656309 18.5173838,23.4464637 18.4824698,23.1540879 L18.3632587,22.1582826 C18.3280301,21.8659067 18.5346836,21.5978422 18.8221742,21.5620149 L18.8221742,21.5620149 L18.8221742,21.5620149 Z" id="Shape-Copy-6" fill="#777777"></path>
                        <path d="M13.3136152,25.1092315 L14.2518914,24.992793 C14.539382,24.9576055 14.8029675,25.1674507 14.8381961,25.4598266 L14.9574072,26.4549921 C14.9923213,26.7480078 14.7859823,27.0160723 14.4984917,27.0515797 L13.5599009,27.1676983 C13.2724103,27.2032056 13.0088249,26.9933604 12.9739108,26.7009845 L12.8546997,25.7051792 C12.8194711,25.4128034 13.0258101,25.144419 13.3136152,25.1092315 L13.3136152,25.1092315 L13.3136152,25.1092315 Z" id="Shape-Copy-7" fill="#777777"></path>
                        <path d="M16.236646,24.7468006 L17.1752368,24.6306819 C17.4627274,24.5954945 17.7263129,24.8053397 17.7612269,25.0973957 L17.880438,26.093201 C17.9153521,26.3855769 17.7090131,26.6536414 17.4215225,26.6891487 L16.4832463,26.8052674 C16.1954411,26.8407747 15.9321702,26.6309295 15.8969416,26.3385536 L15.7777305,25.3430682 C15.7428164,25.0506923 15.9491554,24.7823079 16.236646,24.7468006 L16.236646,24.7468006 L16.236646,24.7468006 Z" id="Shape-Copy-8" fill="#777777"></path>
                        <path d="M19.1599914,24.3850094 L20.0985821,24.2688908 C20.3860727,24.2333834 20.6496582,24.4432287 20.6845723,24.7356046 L20.8037834,25.7314099 C20.839012,26.0237857 20.6323584,26.2918503 20.3448678,26.3273576 L19.4065916,26.4434762 C19.119101,26.4789836 18.8555155,26.2691383 18.8202869,25.9767625 L18.7010758,24.9809572 C18.6661618,24.6885813 18.8725008,24.4205168 19.1599914,24.3850094 L19.1599914,24.3850094 L19.1599914,24.3850094 Z" id="Shape-Copy-9" fill="#777777"></path>
                        <path d="M13.6514324,27.9319061 L14.5900232,27.8157875 C14.8775138,27.7802801 15.1410992,27.9901254 15.1760133,28.2825012 L15.2952244,29.2783065 C15.3301385,29.5706824 15.1237995,29.8387469 14.8363089,29.8742543 L13.8977181,29.9903729 C13.6102275,30.0258803 13.346642,29.816035 13.311728,29.5236591 L13.1925169,28.5278538 C13.1572883,28.235478 13.3639418,27.9674134 13.6514324,27.9319061 L13.6514324,27.9319061 L13.6514324,27.9319061 Z" id="Shape-Copy-10" fill="#777777"></path>
                        <path d="M16.5744632,27.5694752 L17.513054,27.4533565 C17.8005446,27.4178492 18.06413,27.6283342 18.0990441,27.9207101 L18.2182552,28.9158756 C18.2531693,29.2082515 18.0468303,29.4769558 17.7593397,29.5118234 L16.8210635,29.627942 C16.5335729,29.6634493 16.2699874,29.4536041 16.2347588,29.1612282 L16.1155477,28.1660627 C16.0806336,27.8736868 16.2869726,27.6049825 16.5744632,27.5694752 L16.5744632,27.5694752 L16.5744632,27.5694752 Z" id="Shape-Copy-11" fill="#777777"></path>
                        <path d="M19.4978085,27.2076841 L20.4363993,27.0915654 C20.7238899,27.0560581 20.9874754,27.2659033 21.0223894,27.5582792 L21.1416005,28.5540845 C21.1765146,28.8464603 20.9701756,29.1145249 20.682685,29.1500322 L19.7440943,29.2661509 C19.4566037,29.3016582 19.1930182,29.091813 19.1577896,28.7994371 L19.0385785,27.8036318 C19.003979,27.5112559 19.2106325,27.2435113 19.4978085,27.2076841 L19.4978085,27.2076841 L19.4978085,27.2076841 Z" id="Shape-Copy-12" fill="#777777"></path>
                        <path d="M17.8326278,2.12637761 C20.0300122,1.39959648 23.3515666,3.44878659 23.2399045,6.20012661 C22.059117,3.30931627 20.1954608,2.54798744 17.8326278,2.12637761 L17.8326278,2.12637761 L17.8326278,2.12637761 Z" id="Shape-Copy-13" fill="#777777"></path>
                        <path d="M19.7931627,1.18399327 C21.416824,0.646904575 23.8513724,2.1609253 23.7689627,4.19380123 C22.8964255,2.05824188 21.5391805,1.49492252 19.7931627,1.18399327 L19.7931627,1.18399327 L19.7931627,1.18399327 Z" id="Shape-Copy-14" fill="#777777"></path>
                        <path d="M6.25814296,37.01731 C4.37467062,37.640768 1.52775878,35.8839537 1.62369383,33.5260735 C2.63557267,36.003911 4.23249803,36.6561587 6.25814296,37.01731 L6.25814296,37.01731 L6.25814296,37.01731 Z" id="Shape-Copy-15" fill="#777777"></path>
                        <path d="M4.57754966,37.8253422 C3.18601966,38.2856583 1.09935375,36.9882004 1.17012551,35.2464208 C1.91810433,37.0761691 3.08127746,37.559197 4.57754966,37.8253422 L4.57754966,37.8253422 L4.57754966,37.8253422 Z" id="Shape-Copy-16" fill="#777777"></path>
                        <path d="M2.6110401,3.60867167 C2.62816928,3.46733924 2.73743114,3.17628311 3.00606189,2.87233273 C3.12402874,2.73885558 3.26496707,2.61594627 3.43239873,2.50572643 C3.57799611,2.4098496 3.75443374,2.33575478 3.95787974,2.283861 C4.34526761,2.18504843 4.78315003,2.1755049 5.18273019,2.22172735 C5.26173285,2.23086618 5.31400589,2.23919281 5.3329277,2.24290707 L5.66664086,0.542850668 C5.60491054,0.530733295 5.50810141,0.515312467 5.38181397,0.500703845 C4.79017255,0.432264217 4.15285919,0.446154298 3.52967467,0.605112456 C3.14886862,0.702246171 2.79586972,0.85048774 2.47967586,1.0587035 C2.18314566,1.25390857 1.92631605,1.4778842 1.70789894,1.72501883 C1.17728615,2.32539669 0.947065098,2.93866879 0.891125881,3.40022185 L2.6110401,3.60867167 Z" id="Shape-Copy-17" fill="#777777"></path>
                        <path d="M3.42887618,3.95175649 C3.4464106,3.88877885 3.5170222,3.73746549 3.64427791,3.58653269 C3.72379997,3.49221483 3.81514279,3.41341369 3.91977052,3.35261046 C3.98329124,3.31569611 4.0522881,3.28499895 4.12670602,3.26029301 C4.3896233,3.17300731 4.6980868,3.16605296 4.98098987,3.21148215 C5.03785116,3.22061305 5.07275612,3.22831384 5.07948954,3.23014094 L5.53319342,1.55810354 C5.47003,1.54096428 5.37598309,1.52021552 5.25567932,1.50089688 C4.72139099,1.41509971 4.14708376,1.42804753 3.58083089,1.61603737 C3.39601959,1.67739273 3.21824352,1.75648647 3.04926789,1.85468476 C2.76521361,2.0197597 2.5229275,2.2287791 2.31973714,2.46977489 C2.00987947,2.8372844 1.83855579,3.20441335 1.75985938,3.48706391 L3.42887618,3.95175649 Z" id="Shape-Copy-18" fill="#777777"></path>
                        <path d="M4.32448315,4.21443152 C4.32058308,4.22917566 4.34618422,4.17926801 4.41077541,4.11530859 C4.42818412,4.09807015 4.4473157,4.08138764 4.46837613,4.06532849 C4.44356443,4.08424808 4.44683375,4.08306673 4.4755351,4.07891958 C4.55260182,4.06778395 4.65631323,4.07073022 4.75523508,4.08407221 C4.78536065,4.08813537 4.80329461,4.09138718 4.80393706,4.0915279 L5.17463096,2.3991502 C5.13020403,2.38941904 5.06647196,2.37786304 4.98680756,2.36711838 C4.74196906,2.33409603 4.48652444,2.32683926 4.22777342,2.36422707 C3.92984854,2.40727524 3.65560758,2.50637053 3.41786423,2.68765619 C3.33700111,2.74931647 3.26165457,2.81501777 3.19174826,2.88424032 C2.88283242,3.19013465 2.7187096,3.51008074 2.64958791,3.77139404 L4.32448315,4.21443152 Z" id="Shape-Copy-19" fill="#777777"></path>
                        <path d="M14.9565361,13.4924652 C15.4097044,13.3872642 15.8908582,13.3985507 16.3382021,13.5259066 C16.8393863,13.6674751 17.2956798,13.9561857 17.6352009,14.3443843 C18.0539908,14.8170225 18.2908032,15.4391715 18.2919397,16.065222 C18.3257497,16.462617 18.2817114,16.865307 18.165081,17.2470961 C18.0102367,17.7613966 17.7391881,18.2358462 17.4130206,18.6638958 C17.0972234,19.0787083 16.728012,19.452555 16.3302468,19.7922637 C16.0921559,19.9940267 15.8432685,20.1838065 15.582164,20.356169 C15.7367242,20.1162271 15.856622,19.8457699 15.8756579,19.5597068 C15.8887274,19.3657468 15.8320458,19.1637051 15.6983683,19.0173991 C15.5342901,18.8348649 15.2937842,18.7422044 15.0582504,18.6860508 C14.8031124,18.634774 14.5528044,18.5527033 14.3239473,18.4298062 C13.8179331,18.1739796 13.4028367,17.7522002 13.1516764,17.2518336 C12.9255184,16.8044158 12.8347427,16.2935987 12.8882989,15.7972729 C12.9445543,15.2629076 13.1727011,14.7479103 13.5316842,14.3422943 C13.8999012,13.9216296 14.4059154,13.6188457 14.9565361,13.4924652 L14.9565361,13.4924652 Z M14.0554558,15.0484647 C13.9334271,15.0738244 13.8388158,15.1880825 13.8402364,15.3107009 C13.8356905,15.4478105 13.9533154,15.5758631 14.0933856,15.5832481 C14.2070328,15.5953706 14.3212482,15.5294632 14.368838,15.4281637 C14.4213998,15.3221267 14.3921357,15.1836236 14.2992291,15.1082412 C14.2337399,15.0518089 14.140265,15.0285392 14.0554558,15.0484647 L14.0554558,15.0484647 Z M16.9675235,15.0493007 C16.8511772,15.0747998 16.7596912,15.1811155 16.7554294,15.298439 C16.7430703,15.4482285 16.8790207,15.5900757 17.0328707,15.5840841 C17.1969488,15.5904937 17.3373031,15.428303 17.3063343,15.2705712 C17.286446,15.1186916 17.1181061,15.0084744 16.9675235,15.0493007 L16.9675235,15.0493007 Z M13.7305668,16.2140361 C13.7282939,16.6682815 13.9105556,17.1191828 14.2277734,17.4498344 C14.4921452,17.7275372 14.8472927,17.9221939 15.2284371,17.9926995 C15.6003476,18.0630657 15.9944193,18.0191739 16.3394806,17.8650649 C16.6092507,17.7437006 16.8508931,17.5607483 17.0334389,17.3306995 C17.2874404,17.0156539 17.4273685,16.615472 17.4268003,16.2140361 L13.7305668,16.2140361 L13.7305668,16.2140361 Z" id="Shape-Copy-20" fill="#FFFFFF"></path>
                    </g>
                </g>
            </g>
        </g>
    </g>
</svg>