<?xml version="1.0" encoding="UTF-8"?>
<svg width="31px" height="30px" viewBox="0 0 31 30" version="1.1" xmlns="http://www.w3.org/2000/svg" xmlns:xlink="http://www.w3.org/1999/xlink">
    <!-- Generator: Sketch 39.1 (31720) - http://www.bohemiancoding.com/sketch -->
    <title>Fill 89</title>
    <desc>Created with Sketch.</desc>
    <defs></defs>
    <g id="Page-1" stroke="none" stroke-width="1" fill="none" fill-rule="evenodd">
        <g id="Dashboard" transform="translate(-113.000000, -682.000000)" fill="#777777">
            <path d="M144,694.5 L144,699.5 L138.755833,699.5 C138.326139,701.2 137.322083,702.75 135.74625,704.15 C134.170417,705.55 132.616972,706.525 131.083333,707.075 L131.083333,712 L125.916667,712 L125.916667,707.075 C123.505556,706.625 121.714444,705.770833 120.543333,704.5125 C119.372222,703.254167 118.528333,701.584167 118.012528,699.5 L113,699.5 L113,694.5 L118.012528,694.5 C118.27,693.5 118.580861,692.629167 118.942528,691.8875 C119.304194,691.145833 119.78125,690.429167 120.376278,689.7375 C120.969583,689.045833 121.727361,688.470833 122.64875,688.0125 C123.570139,687.554167 124.659444,687.216667 125.916667,687 L125.916667,682 L131.083333,682 L131.083333,687 C132.013333,687.333333 132.986389,687.834167 134.0025,688.5 C135.019472,689.166667 135.988222,690.045833 136.90875,691.1375 C137.830139,692.229167 138.445833,693.35 138.755833,694.5 L144,694.5 L144,694.5 L144,694.5 L144,694.5 Z M131.083333,699.5 L131.083333,704.65 C133.649444,703.85 135.381139,702.133333 136.276694,699.5 L131.083333,699.5 L131.083333,694.5 L136.25,694.5 C135.819444,693.266667 135.165861,692.204167 134.286667,691.3125 C133.409194,690.421667 132.340556,689.783333 131.083333,689.4 L131.083333,694.5 L125.916667,694.5 L125.916667,689.425 C124.625,689.825 123.505556,690.471667 122.558333,691.3625 C121.611111,692.254167 120.930833,693.3 120.518361,694.5 L125.916667,694.5 L125.916667,699.5 L120.492528,699.5 C120.905,700.716667 121.589583,701.779167 122.545417,702.6875 C123.502111,703.596667 124.625,704.25 125.916667,704.65 L125.916667,699.5 L131.083333,699.5 L131.083333,699.5 Z" id="Fill-89"></path>
        </g>
    </g>
</svg>