<?xml version="1.0" encoding="UTF-8"?>
<svg width="43px" height="27px" viewBox="0 0 43 27" version="1.1" xmlns="http://www.w3.org/2000/svg" xmlns:xlink="http://www.w3.org/1999/xlink">
    <!-- Generator: Sketch 39.1 (31720) - http://www.bohemiancoding.com/sketch -->
    <title>Fill 14</title>
    <desc>Created with Sketch.</desc>
    <defs></defs>
    <g id="Page-1" stroke="none" stroke-width="1" fill="none" fill-rule="evenodd">
        <g id="Dashboard" transform="translate(-347.000000, -682.000000)" fill="#777777">
            <path d="M372.727777,705.7825 L372.727777,709 L347,709 L347,705.7825 L355.575926,700 L355.575926,697.75 C355.047077,697.75 354.558249,697.19125 354.108013,696.07375 C353.657062,694.95625 353.431944,694.015 353.431944,693.25 L353.431944,688.75 C353.431944,686.89075 354.060845,685.3 355.319363,683.98 C356.577165,682.66 358.09153,682 359.863888,682 C361.636246,682 363.151327,682.66 364.409129,683.98 C365.666931,685.3 366.295833,686.89075 366.295833,688.75 L366.295833,693.25 C366.295833,694.015 366.071429,694.95625 365.620478,696.07375 C365.170242,697.19125 364.681415,697.75 364.151851,697.75 L364.151851,700 L372.727777,705.7825 Z M378.964814,697.972273 L378.964814,692.636364 C380.034639,692.660591 381.065049,692.778182 382.056045,692.990909 C383.047041,693.203636 384.004253,693.5115 384.927681,693.912727 C385.851109,694.314545 386.678815,694.861136 387.410801,695.5525 C388.142787,696.243864 388.705852,697.044545 389.099998,697.954545 C389.032431,696.394545 388.801574,694.985227 388.406864,693.726591 C388.013281,692.467955 387.430508,691.3275 386.659108,690.305227 C385.887708,689.282955 384.851667,688.4675 383.550422,687.858864 C382.250303,687.250227 380.721579,686.899227 378.964814,686.804091 L378.964814,682 L368.829629,690.030455 L378.964814,697.972273 Z" id="Fill-14"></path>
        </g>
    </g>
</svg>