<?xml version="1.0" encoding="UTF-8"?>
<svg width="27px" height="29px" viewBox="0 0 27 29" version="1.1" xmlns="http://www.w3.org/2000/svg" xmlns:xlink="http://www.w3.org/1999/xlink">
    <!-- Generator: Sketch 39.1 (31720) - http://www.bohemiancoding.com/sketch -->
    <title>Fill 163</title>
    <desc>Created with Sketch.</desc>
    <defs></defs>
    <g id="Page-1" stroke="none" stroke-width="1" fill="none" fill-rule="evenodd">
        <g id="Dashboard" transform="translate(-115.000000, -340.000000)" fill="#777777">
            <path d="M141.1,345.092578 L141.1,366.736035 C141.1,367.092516 140.981364,367.393827 140.744091,367.639119 C140.506818,367.886958 140.230791,368.00918 139.913636,368.00918 L136.354545,368.00918 L136.354545,357.824024 L119.745455,357.824024 L119.745455,368.00918 L116.186364,368.00918 C115.854182,368.00918 115.573409,367.886958 115.344836,367.639119 C115.114682,367.393827 115,367.092516 115,366.736035 L115,341.273145 C115,340.933639 115.114682,340.636572 115.344836,340.381095 C115.573409,340.127314 115.854182,340 116.186364,340 L122.118182,340 L122.118182,347.638867 L133.981818,347.638867 L133.981818,340 L136.354545,340 L141.1,345.092578 L141.1,345.092578 L141.1,345.092578 L141.1,345.092578 Z M129.236364,345.092578 L131.609091,345.092578 L131.609091,340 L129.236364,340 L129.236364,340 L129.236364,345.092578 L129.236364,345.092578 Z" id="Fill-163"></path>
        </g>
    </g>
</svg>