<?xml version="1.0" encoding="UTF-8"?>
<svg width="27px" height="29px" viewBox="0 0 27 29" version="1.1" xmlns="http://www.w3.org/2000/svg" xmlns:xlink="http://www.w3.org/1999/xlink">
    <!-- Generator: Sketch 39.1 (31720) - http://www.bohemiancoding.com/sketch -->
    <title>Fill 5 Copy 3</title>
    <desc>Created with Sketch.</desc>
    <defs></defs>
    <g id="Page-1" stroke="none" stroke-width="1" fill="none" fill-rule="evenodd">
        <g id="Dashboard" transform="translate(-355.000000, -340.000000)" fill="#777777">
            <path d="M355,347.002295 L355,343.501148 C355,343.174492 355.1143,342.898295 355.3429,342.671672 C355.5733,342.44682 355.8523,342.334393 356.1862,342.334393 L359.7457,342.334393 L359.7457,340 L362.1181,340 L362.1181,342.334393 L373.9819,342.334393 L373.9819,340 L376.3552,340 L376.3552,342.334393 L379.9138,342.334393 C380.245,342.334393 380.5267,342.44682 380.7562,342.671672 C380.9839,342.898295 381.1,343.174492 381.1,343.501148 L381.1,347.002295 L355,347.002295 L355,347.002295 L355,347.002295 L355,347.002295 Z M381.1,349.334918 L381.1,366.838885 C381.1,367.151377 380.9839,367.423148 380.7562,367.655967 C380.5267,367.889672 380.245,368.006525 379.9138,368.006525 L356.1862,368.006525 C355.8523,368.006525 355.5733,367.889672 355.3429,367.655967 C355.1143,367.423148 355,367.151377 355,366.838885 L355,349.334918 L381.1,349.334918 L381.1,349.334918 L381.1,349.334918 L381.1,349.334918 Z M357.3733,356.337213 L359.7457,356.337213 L359.7457,354.003705 L357.3733,354.003705 L357.3733,354.003705 L357.3733,356.337213 L357.3733,356.337213 Z M357.3733,361.005115 L359.7457,361.005115 L359.7457,358.671607 L357.3733,358.671607 L357.3733,358.671607 L357.3733,361.005115 L357.3733,361.005115 Z M357.3733,365.673016 L359.7457,365.673016 L359.7457,363.338623 L357.3733,363.338623 L357.3733,363.338623 L357.3733,365.673016 L357.3733,365.673016 Z M362.1181,356.337213 L364.4905,356.337213 L364.4905,354.003705 L362.1181,354.003705 L362.1181,354.003705 L362.1181,356.337213 L362.1181,356.337213 Z M362.1181,361.005115 L364.4905,361.005115 L364.4905,358.671607 L362.1181,358.671607 L362.1181,358.671607 L362.1181,361.005115 L362.1181,361.005115 Z M362.1181,365.673016 L364.4905,365.673016 L364.4905,363.338623 L362.1181,363.338623 L362.1181,363.338623 L362.1181,365.673016 L362.1181,365.673016 Z M366.8638,356.337213 L369.2371,356.337213 L369.2371,354.003705 L366.8638,354.003705 L366.8638,354.003705 L366.8638,356.337213 L366.8638,356.337213 Z M366.8638,361.005115 L369.2371,361.005115 L369.2371,358.671607 L366.8638,358.671607 L366.8638,358.671607 L366.8638,361.005115 L366.8638,361.005115 Z M366.8638,365.673016 L369.2371,365.673016 L369.2371,363.338623 L366.8638,363.338623 L366.8638,363.338623 L366.8638,365.673016 L366.8638,365.673016 Z M371.6095,356.337213 L373.9819,356.337213 L373.9819,354.003705 L371.6095,354.003705 L371.6095,354.003705 L371.6095,356.337213 L371.6095,356.337213 Z M371.6095,361.005115 L373.9819,361.005115 L373.9819,358.671607 L371.6095,358.671607 L371.6095,358.671607 L371.6095,361.005115 L371.6095,361.005115 Z M371.6095,365.673016 L373.9819,365.673016 L373.9819,363.338623 L371.6095,363.338623 L371.6095,363.338623 L371.6095,365.673016 L371.6095,365.673016 Z M376.3552,356.337213 L378.7267,356.337213 L378.7267,354.003705 L376.3552,354.003705 L376.3552,354.003705 L376.3552,356.337213 L376.3552,356.337213 Z M376.3552,361.005115 L378.7267,361.005115 L378.7267,358.671607 L376.3552,358.671607 L376.3552,358.671607 L376.3552,361.005115 L376.3552,361.005115 Z M376.3552,365.673016 L378.7267,365.673016 L378.7267,363.338623 L376.3552,363.338623 L376.3552,363.338623 L376.3552,365.673016 L376.3552,365.673016 Z" id="Fill-5-Copy-3"></path>
        </g>
    </g>
</svg>