<?xml version="1.0" encoding="UTF-8"?>
<svg width="30px" height="30px" viewBox="0 0 30 30" version="1.1" xmlns="http://www.w3.org/2000/svg" xmlns:xlink="http://www.w3.org/1999/xlink">
    <!-- Generator: Sketch 39.1 (31720) - http://www.bohemiancoding.com/sketch -->
    <title>Fill 38 Copy</title>
    <desc>Created with Sketch.</desc>
    <defs></defs>
    <g id="Page-1" stroke="none" stroke-width="1" fill="none" fill-rule="evenodd">
        <g id="Dashboard" transform="translate(-353.000000, -511.000000)" fill="#777777">
            <path d="M353,511 L382.583964,511 L382.583964,541 L353,541 L353,541 L353,511 L353,511 Z M355.689451,538.5 L379.894513,538.5 L379.894513,516 L355.689451,516 L355.689451,516 L355.689451,538.5 L355.689451,538.5 Z M358.378903,521 L361.068354,521 L361.068354,518.5 L358.378903,518.5 L358.378903,518.5 L358.378903,521 L358.378903,521 Z M358.378903,526 L361.068354,526 L361.068354,523.5 L358.378903,523.5 L358.378903,523.5 L358.378903,526 L358.378903,526 Z M358.378903,531 L361.068354,531 L361.068354,528.5 L358.378903,528.5 L358.378903,528.5 L358.378903,531 L358.378903,531 Z M358.378903,536 L361.068354,536 L361.068354,533.5 L358.378903,533.5 L358.378903,533.5 L358.378903,536 L358.378903,536 Z M363.757805,521 L377.205061,521 L377.205061,518.5 L363.757805,518.5 L363.757805,518.5 L363.757805,521 L363.757805,521 Z M363.757805,526 L377.205061,526 L377.205061,523.5 L363.757805,523.5 L363.757805,523.5 L363.757805,526 L363.757805,526 Z M363.757805,531 L377.205061,531 L377.205061,528.5 L363.757805,528.5 L363.757805,528.5 L363.757805,531 L363.757805,531 Z M363.757805,533.5 L377.205061,533.5 L377.205061,536 L363.757805,536 L363.757805,536 L363.757805,533.5 L363.757805,533.5 Z" id="Fill-38-Copy"></path>
        </g>
    </g>
</svg>