<?xml version="1.0" encoding="UTF-8"?>
<svg width="31px" height="20px" viewBox="0 0 31 20" version="1.1" xmlns="http://www.w3.org/2000/svg" xmlns:xlink="http://www.w3.org/1999/xlink">
    <!-- Generator: Sketch 39.1 (31720) - http://www.bohemiancoding.com/sketch -->
    <title>Group</title>
    <desc>Created with Sketch.</desc>
    <defs></defs>
    <g id="NewBackend" stroke="none" stroke-width="1" fill="none" fill-rule="evenodd">
        <g id="Atomic-modal" transform="translate(-1547.000000, -129.000000)">
            <g id="Group" transform="translate(1547.000000, 129.000000)">
                <path d="M0,5.00047413 L0,2.50023706 C0,2.26696589 0.0832068966,2.06972848 0.24962069,1.90789266 C0.417344828,1.74732117 0.620448276,1.66703543 0.863517241,1.66703543 L3.45472414,1.66703543 L3.45472414,0 L5.18175862,0 L5.18175862,1.66703543 L13.8182414,1.66703543 L13.8182414,0 L15.545931,0 L15.545931,1.66703543 L18.1364828,1.66703543 C18.3775862,1.66703543 18.5826552,1.74732117 18.7497241,1.90789266 C18.9154828,2.06972848 19,2.26696589 19,2.50023706 L19,5.00047413 L0,5.00047413 L0,5.00047413 L0,5.00047413 L0,5.00047413 Z M19,6.66624522 L19,19.1661662 C19,19.3893226 18.9154828,19.5833992 18.7497241,19.7496602 C18.5826552,19.9165534 18.3775862,20 18.1364828,20 L0.863517241,20 C0.620448276,20 0.417344828,19.9165534 0.24962069,19.7496602 C0.0832068966,19.5833992 0,19.3893226 0,19.1661662 L0,6.66624522 L19,6.66624522 L19,6.66624522 L19,6.66624522 L19,6.66624522 Z M1.72768966,11.6667193 L3.45472414,11.6667193 L3.45472414,10.0003161 L1.72768966,10.0003161 L1.72768966,10.0003161 L1.72768966,11.6667193 L1.72768966,11.6667193 Z M1.72768966,15.000158 L3.45472414,15.000158 L3.45472414,13.3337548 L1.72768966,13.3337548 L1.72768966,13.3337548 L1.72768966,15.000158 L1.72768966,15.000158 Z M1.72768966,18.3335967 L3.45472414,18.3335967 L3.45472414,16.6665613 L1.72768966,16.6665613 L1.72768966,16.6665613 L1.72768966,18.3335967 L1.72768966,18.3335967 Z M5.18175862,11.6667193 L6.9087931,11.6667193 L6.9087931,10.0003161 L5.18175862,10.0003161 L5.18175862,10.0003161 L5.18175862,11.6667193 L5.18175862,11.6667193 Z M5.18175862,15.000158 L6.9087931,15.000158 L6.9087931,13.3337548 L5.18175862,13.3337548 L5.18175862,13.3337548 L5.18175862,15.000158 L5.18175862,15.000158 Z M5.18175862,18.3335967 L6.9087931,18.3335967 L6.9087931,16.6665613 L5.18175862,16.6665613 L5.18175862,16.6665613 L5.18175862,18.3335967 L5.18175862,18.3335967 Z M8.63648276,11.6667193 L10.3641724,11.6667193 L10.3641724,10.0003161 L8.63648276,10.0003161 L8.63648276,10.0003161 L8.63648276,11.6667193 L8.63648276,11.6667193 Z M8.63648276,15.000158 L10.3641724,15.000158 L10.3641724,13.3337548 L8.63648276,13.3337548 L8.63648276,13.3337548 L8.63648276,15.000158 L8.63648276,15.000158 Z M8.63648276,18.3335967 L10.3641724,18.3335967 L10.3641724,16.6665613 L8.63648276,16.6665613 L8.63648276,16.6665613 L8.63648276,18.3335967 L8.63648276,18.3335967 Z M12.0912069,11.6667193 L13.8182414,11.6667193 L13.8182414,10.0003161 L12.0912069,10.0003161 L12.0912069,10.0003161 L12.0912069,11.6667193 L12.0912069,11.6667193 Z M12.0912069,15.000158 L13.8182414,15.000158 L13.8182414,13.3337548 L12.0912069,13.3337548 L12.0912069,13.3337548 L12.0912069,15.000158 L12.0912069,15.000158 Z M12.0912069,18.3335967 L13.8182414,18.3335967 L13.8182414,16.6665613 L12.0912069,16.6665613 L12.0912069,16.6665613 L12.0912069,18.3335967 L12.0912069,18.3335967 Z M15.545931,11.6667193 L17.2723103,11.6667193 L17.2723103,10.0003161 L15.545931,10.0003161 L15.545931,10.0003161 L15.545931,11.6667193 L15.545931,11.6667193 Z M15.545931,15.000158 L17.2723103,15.000158 L17.2723103,13.3337548 L15.545931,13.3337548 L15.545931,13.3337548 L15.545931,15.000158 L15.545931,15.000158 Z M15.545931,18.3335967 L17.2723103,18.3335967 L17.2723103,16.6665613 L15.545931,16.6665613 L15.545931,16.6665613 L15.545931,18.3335967 L15.545931,18.3335967 Z" id="Scheduled" fill="#777777"></path>
                <path d="M24.9392046,13.4204295 L21,9.10350427 L24.9392046,13.4204295 L21.494478,17.5129536 L24.9392046,13.4204295 Z M24.9392046,13.4204295 L28.8247591,17.6785604 L24.9392046,13.4204295 L28.6599331,9 L24.9392046,13.4204295 Z" id="Remove-contact" stroke="#E3615A" stroke-width="4.2"></path>
            </g>
        </g>
    </g>
</svg>