<?xml version="1.0" encoding="UTF-8"?>
<svg width="21px" height="22px" viewBox="0 0 21 22" version="1.1" xmlns="http://www.w3.org/2000/svg" xmlns:xlink="http://www.w3.org/1999/xlink">
    <!-- Generator: Sketch 39.1 (31720) - http://www.bohemiancoding.com/sketch -->
    <title>Phonebook Icon</title>
    <desc>Created with Sketch.</desc>
    <defs>
        <linearGradient x1="50%" y1="0%" x2="50%" y2="100%" id="linearGradient-1">
            <stop stop-color="#48E0FF" offset="0%"></stop>
            <stop stop-color="#23BDFF" offset="100%"></stop>
        </linearGradient>
    </defs>
    <g id="Page-1" stroke="none" stroke-width="1" fill="none" fill-rule="evenodd" opacity="0.4">
        <g id="ClickToCall---OverviewStatistics" transform="translate(-951.000000, -910.000000)">
            <g id="Phonebook-Icon" transform="translate(952.000000, 911.000000)">
                <path d="M9.97476008,1.28302553 C9.91255347,1.28588274 9.72647971,1.89157413 9.66666667,1.89274664 C6.67616519,1.95136924 0.783175215,0.512289 0.783175215,0.512289 L0.621069129,18.1035943 C0.621069129,18.1035943 6.72852506,19.3384419 9.66666672,19.3822758 C12.6453972,19.4267152 18.3716856,18.3684141 18.3716856,18.3684141 L18.7122642,0.160826236 C18.7122642,0.160826236 13.017902,1.14325111 9.97476008,1.28302553 Z" id="Path-1149-Copy" stroke="#409CF9" stroke-width="1.4"></path>
                <path d="M10.2877358,19.8391738 L10.2877358,1.49415957" id="Path-1150-Copy" stroke="#409CF9" stroke-width="1.4"></path>
                <path d="M3.19884691,12.4294224 L8.71355854,12.1608262" id="Path-1151-Copy" stroke="#409CF9" stroke-width="1.4"></path>
                <path d="M3.19884691,14.5885256 L8.16524535,14.1608262" id="Path-1152-Copy" stroke="#409CF9" stroke-width="1.4"></path>
                <path d="M4.4877358,15.8742532 L8.58974448,15.4941596" id="Path-1153-Copy" stroke="#409CF9" stroke-width="1.4"></path>
                <path d="M12.2210691,11.7470339 L17.6642373,10.8274929" id="Path-1155-Copy" stroke="#409CF9" stroke-width="1.4"></path>
                <path d="M12.2210691,14.6346911 L16.6573197,13.4941596" id="Path-1156-Copy" stroke="#409CF9" stroke-width="1.4"></path>
                <path d="M12.8655136,16.2543469 L16.5413359,15.4941596" id="Path-1157-Copy" stroke="#409CF9" stroke-width="1.4"></path>
                <polygon id="Path-1158-Copy" stroke="#409CF9" stroke-width="0.7" points="11.5766247 3.94377235 11.5766247 8.9111599 16.7266342 8.9111597 16.4392882 2.8274929"></polygon>
                <path d="M16.7321802,8.27138179 L16.7321802,8.8274929 L12.2210691,8.8274929 L12.2210691,8.27138179 L13.7247728,7.27193735 L13.7247728,6.88304846 C13.6320444,6.88304846 13.5463333,6.78647438 13.4673889,6.59332624 C13.3883191,6.40017809 13.3488469,6.2374929 13.3488469,6.10527068 L13.3488469,5.3274929 C13.3488469,5.00614105 13.4591185,4.73119661 13.679787,4.50304846 C13.9003302,4.27490031 14.1658593,4.16082624 14.4766247,4.16082624 C14.7873901,4.16082624 15.0530444,4.27490031 15.2735876,4.50304846 C15.4941309,4.73119661 15.6044025,5.00614105 15.6044025,5.3274929 L15.6044025,6.10527068 C15.6044025,6.2374929 15.5650555,6.40017809 15.4859858,6.59332624 C15.4070414,6.78647438 15.3213302,6.88304846 15.2284765,6.88304846 L15.2284765,7.27193735 L16.7321802,8.27138179" id="Account-icon-Copy-3" fill="#409CF9"></path>
                <path d="M4.02180153,3.65634833 L4.27626842,3.52695394 C4.43203188,3.44776661 4.61697028,3.51761162 4.69866011,3.67598628 L4.94643212,4.15651228 C5.02812194,4.31488694 4.95810209,4.51438054 4.80233863,4.59356787 L4.54787174,4.72296225 C4.3921697,4.80208603 4.20716988,4.73236813 4.12548005,4.57392992 L3.87770804,4.09346747 C3.79601822,3.93496571 3.86597665,3.73559921 4.02180153,3.65634833 L4.02180153,3.65634833 L4.02180153,3.65634833 Z" id="Shape-Copy-33" fill="#409CF9"></path>
                <path d="M7.72582759,8.80761851 C7.37879937,8.89983426 6.79136966,9.02916509 6.45453731,9.07149154 C5.49446686,9.1924969 5.25259126,8.82134601 5.07133811,7.28075207 C4.8801962,5.65588654 5.11206019,5.31060182 5.96636381,5.20300619 C6.29957232,5.1609975 6.90217301,5.14174087 7.2952055,5.14746067 L7.18421789,4.20426712 C6.80389953,4.16702493 6.18987455,4.13251552 5.68278341,4.19632297 C4.03922091,4.40331585 3.66043808,5.25416655 3.91601054,7.42622542 C4.15174404,9.42986823 4.6714879,10.3383617 6.38009515,10.1231705 C6.83031052,10.0664174 7.45176743,9.89971729 7.8391492,9.77114909 L7.72582759,8.80761851 L7.72582759,8.80761851 Z" id="Shape-Copy-34" fill="#409CF9"></path>
                <path d="M6.4567611,5.49560986 C6.56037819,5.4825179 6.65539636,5.55954442 6.66804907,5.66675872 L6.81367808,6.90471217 C6.82626937,7.01192647 6.75182721,7.11024333 6.64827154,7.12333529 L5.49048712,7.26912641 C5.38687003,7.28221838 5.29185186,7.20519186 5.27926057,7.09797755 L5.13357014,5.86002411 C5.12097885,5.75287336 5.19535959,5.65449295 5.29897668,5.64146454 L6.4567611,5.49560986 Z" id="Shape-Copy-35" fill="#409CF9"></path>
                <path d="" id="Shape-Copy-36" fill="url(#linearGradient-1)"></path>
                <path d="" id="Shape-Copy-37" fill="url(#linearGradient-1)"></path>
                <path d="" id="Shape-Copy-38" fill="url(#linearGradient-1)"></path>
                <path d="" id="Shape-Copy-39" fill="url(#linearGradient-1)"></path>
                <path d="" id="Shape-Copy-40" fill="url(#linearGradient-1)"></path>
                <path d="" id="Shape-Copy-41" fill="url(#linearGradient-1)"></path>
                <path d="" id="Shape-Copy-42" fill="url(#linearGradient-1)"></path>
                <path d="" id="Shape-Copy-43" fill="url(#linearGradient-1)"></path>
                <path d="" id="Shape-Copy-44" fill="url(#linearGradient-1)"></path>
                <path d="M6.42106913,2.85684524 C6.8501557,2.71245229 7.49876066,3.11957431 7.47695623,3.66619567 C7.24638208,3.0918651 6.88246311,2.9406084 6.42106913,2.85684524 L6.42106913,2.85684524 L6.42106913,2.85684524 Z" id="Shape-Copy-45" fill="url(#linearGradient-1)"></path>
                <path d="M7.06551357,2.8491877 C7.38256838,2.74248182 7.85796633,3.04327927 7.84187405,3.44716007 C7.67149241,3.02287868 7.40646112,2.91096144 7.06551357,2.8491877 L7.06551357,2.8491877 L7.06551357,2.8491877 Z" id="Shape-Copy-46" fill="url(#linearGradient-1)"></path>
                <path d="M4.10428418,10.1877796 C3.73649569,10.3116448 3.18057491,9.96261046 3.19930829,9.49415957 C3.3968994,9.98644292 3.70873343,10.116028 4.10428418,10.1877796 L4.10428418,10.1877796 L4.10428418,10.1877796 Z" id="Shape-Copy-47" fill="url(#linearGradient-1)"></path>
                <path d="M3.86456227,10.0065257 C3.59283611,10.0979788 3.1853697,9.84020693 3.19918941,9.49415957 C3.34524836,9.85768407 3.57238294,9.95364945 3.86456227,10.0065257 L3.86456227,10.0065257 L3.86456227,10.0065257 Z" id="Shape-Copy-48" fill="url(#linearGradient-1)"></path>
            </g>
        </g>
    </g>
</svg>