<svg width="14" height="20" viewBox="0 0 14 20" xmlns="http://www.w3.org/2000/svg"><title>6EAE20A3-A6C4-48D6-90B1-79AF4E44948E</title><g fill="#777" fill-rule="evenodd" opacity=".4"><path d="M12.92 15.355c-1.057.248-2.847.596-3.874.71-2.926.324-3.663-.673-4.215-4.81-.583-4.365.124-5.292 2.727-5.581 1.016-.113 2.852-.165 4.05-.15l-.338-2.533c-1.16-.1-3.03-.193-4.576-.021-5.008.556-6.163 2.84-5.384 8.675.718 5.382 2.302 7.822 7.51 7.244 1.371-.152 3.265-.6 4.446-.946l-.346-2.588zM10.09.745c1.308-.387 3.285.706 3.218 2.174C12.606 1.377 11.496.97 10.09.745z"/><path d="M11.257.243c.966-.287 2.415.52 2.366 1.606-.52-1.14-1.327-1.44-2.366-1.606zM3.203 19.365c-1.121.332-2.815-.605-2.758-1.863.602 1.322 1.552 1.67 2.758 1.863z"/><path d="M2.203 19.796c-.829.245-2.07-.447-2.028-1.376.445.976 1.137 1.234 2.028 1.376zM1.896 2.21l.775-.348a1.022 1.022 0 0 1 1.287.4l.756 1.29c.248.426.035.962-.44 1.175l-.775.347a1.022 1.022 0 0 1-1.287-.4l-.755-1.29c-.25-.426-.036-.962.439-1.175zM10.324 6.145c.316-.035.605.172.644.46l.444 3.325c.038.288-.189.552-.505.587l-3.528.392c-.316.035-.605-.172-.644-.46l-.444-3.325c-.038-.288.189-.552.505-.587l3.528-.392zM7.2 11.503l.559-.062c.17-.019.327.093.348.25l.071.53c.021.157-.102.3-.273.319l-.558.062c-.171.019-.328-.093-.349-.25l-.07-.53c-.022-.156.1-.3.272-.319zM8.94 11.31l.558-.062c.171-.019.328.093.349.25l.07.53c.022.157-.101.3-.272.319l-.559.062c-.17.019-.328-.093-.349-.25l-.07-.53c-.021-.157.102-.3.273-.319zM10.68 11.117l.558-.062c.17-.019.328.093.349.25l.084.633c.013.1-.065.191-.175.203l-.67.075c-.171.019-.328-.093-.349-.25l-.07-.53c-.022-.157.101-.3.272-.319zM7.96 12.948c.17-.019.328.093.348.25l.071.53c.021.156-.102.3-.273.318l-.558.062c-.171.02-.328-.093-.349-.249l-.07-.531c-.022-.156.1-.3.272-.318l.559-.062zM9.7 12.755c.17-.02.327.093.348.249l.07.531c.022.156-.101.3-.272.318l-.559.062c-.17.019-.328-.093-.348-.249l-.071-.531c-.021-.156.102-.3.273-.318l.558-.062zM11.439 12.562c.17-.02.328.093.349.249l.07.531c.021.156-.102.3-.273.318l-.558.062c-.171.019-.328-.093-.349-.25l-.07-.53c-.022-.156.101-.3.272-.318l.559-.062zM7.602 14.516l.559-.062c.17-.019.328.093.349.25l.07.53c.021.157-.102.3-.273.319l-.558.062c-.171.019-.328-.093-.349-.25l-.07-.53c-.022-.157.101-.3.272-.319zM9.342 14.323l.558-.062c.171-.02.328.093.349.25l.07.53c.022.156-.101.3-.272.318l-.559.062c-.17.02-.327-.093-.348-.249l-.071-.53c-.021-.157.102-.3.273-.32zM11.081 14.13l.559-.062c.171-.02.328.093.349.249l.07.531c.021.156-.101.3-.273.318l-.558.062c-.171.02-.328-.093-.349-.249l-.071-.531c-.02-.156.102-.3.273-.318z"/></g></svg>