<svg width="21" height="22" viewBox="0 0 21 22" xmlns="http://www.w3.org/2000/svg"><title>B37DCE1B-18A3-4867-9D4D-6FA9325607A5</title><defs><linearGradient x1="50%" y1="0%" x2="50%" y2="100%" id="a"><stop stop-color="#48E0FF" offset="0%"/><stop stop-color="#23BDFF" offset="100%"/></linearGradient></defs><g fill="none" fill-rule="evenodd" opacity=".4"><path d="M10.975 2.283c-.062.003-.249.609-.308.61-2.99.058-8.884-1.38-8.884-1.38l-.162 17.59s6.108 1.235 9.046 1.28c2.978.044 8.705-1.015 8.705-1.015l.34-18.207s-5.694.982-8.737 1.122zM11.288 20.84V2.493M4.199 13.43l5.515-.27M4.199 15.589l4.966-.428M5.488 16.874l4.102-.38M13.221 12.747l5.443-.92M13.221 15.635l4.436-1.14M13.866 17.254l3.675-.76" stroke="#409CF9" stroke-width="1.4"/><path stroke="#409CF9" stroke-width=".7" d="M12.577 4.944V9.91h5.15l-.288-6.084z"/><path d="M17.732 9.271v.556h-4.51v-.556l1.503-1v-.388c-.093 0-.179-.097-.258-.29a1.34 1.34 0 0 1-.118-.488v-.778c0-.32.11-.596.33-.824.221-.228.487-.342.798-.342.31 0 .576.114.797.342.22.228.33.503.33.824v.778c0 .132-.039.295-.118.488-.079.193-.165.29-.258.29v.389l1.504 1M5.022 4.656l.254-.129c.156-.08.341-.01.423.149l.247.48a.329.329 0 0 1-.144.438l-.254.129c-.156.08-.34.01-.423-.15l-.247-.48a.329.329 0 0 1 .144-.437z" fill="#409CF9"/><path d="M8.726 9.808a12.02 12.02 0 0 1-1.271.263c-.96.121-1.202-.25-1.384-1.79-.19-1.625.041-1.97.895-2.078.334-.042.936-.061 1.33-.056l-.112-.943c-.38-.037-.994-.071-1.501-.008-1.644.207-2.023 1.058-1.767 3.23.236 2.004.755 2.912 2.464 2.697.45-.057 1.072-.223 1.46-.352l-.114-.963z" fill="#409CF9"/><path d="M7.457 6.496a.192.192 0 0 1 .211.17l.146 1.239a.196.196 0 0 1-.166.218L6.49 8.27a.192.192 0 0 1-.21-.171L6.133 6.86a.196.196 0 0 1 .165-.219l1.158-.145z" fill="#409CF9"/><path d="M6.421 2.857c.43-.145 1.078.263 1.056.81-.23-.575-.595-.726-1.056-.81z" fill="url(#a)" transform="translate(1 1)"/><path d="M7.066 2.85c.317-.108.792.193.776.597-.17-.424-.436-.536-.776-.598zM4.104 10.188c-.368.124-.923-.225-.905-.694.198.492.51.622.905.694z" fill="url(#a)" transform="translate(1 1)"/><path d="M3.865 10.007c-.272.091-.68-.167-.666-.513.146.364.373.46.666.513z" fill="url(#a)" transform="translate(1 1)"/></g></svg>