<?xml version="1.0" encoding="UTF-8"?>
<svg width="23px" height="16px" viewBox="0 0 23 16" version="1.1" xmlns="http://www.w3.org/2000/svg" xmlns:xlink="http://www.w3.org/1999/xlink">
    <!-- Generator: Sketch 39.1 (31720) - http://www.bohemiancoding.com/sketch -->
    <title>CY</title>
    <desc>Created with Sketch.</desc>
    <defs>
        <rect id="path-1" x="0" y="0" width="23" height="16" rx="1.62"></rect>
        <mask id="mask-2" maskContentUnits="userSpaceOnUse" maskUnits="objectBoundingBox" x="0" y="0" width="23" height="16" fill="white">
            <use xlink:href="#path-1"></use>
        </mask>
        <mask id="mask-4" maskContentUnits="userSpaceOnUse" maskUnits="objectBoundingBox" x="0" y="0" width="23" height="16" fill="white">
            <use xlink:href="#path-1"></use>
        </mask>
    </defs>
    <g id="Page-1" stroke="none" stroke-width="1" fill="none" fill-rule="evenodd">
        <g id="Flags" transform="translate(-657.000000, -217.000000)">
            <g id="CY" transform="translate(657.000000, 217.000000)">
                <mask id="mask-3" fill="white">
                    <use xlink:href="#path-1"></use>
                </mask>
                <g id="Mask" stroke="#F5F5F5" mask="url(#mask-2)" fill="#FFFFFF">
                    <use mask="url(#mask-4)" xlink:href="#path-1"></use>
                </g>
                <path d="M17.040234,2.36881358 C17.3073054,2.23876143 17.3895118,2.32952474 17.2187247,2.57902253 L16.7336563,3.28764413 C16.5651626,3.53379148 16.2271249,3.8641276 15.9796535,4.02480469 L15.2346322,4.50852865 C14.9867017,4.66950383 14.6124442,4.96875 14.3994371,5.17620036 L14.6243724,4.95713298 C14.4110374,5.1649027 14.4092262,5.5 14.6211564,5.70640157 L14.9502722,6.02693176 C15.161831,6.23297166 15.1622024,6.56666667 14.9502722,6.77306824 L14.6211564,7.09359843 C14.4095976,7.29963833 14.0269223,7.36383464 13.7545197,7.23118642 L13.6264326,7.16881358 C13.3593613,7.03876143 13.0320383,7.14918925 12.8946838,7.41673177 L12.8434114,7.51660156 C12.7063491,7.78357515 12.3668058,8.07415771 12.0754278,8.16875 L11.4721912,8.36458333 C11.1851079,8.45778138 10.7201091,8.53333333 10.4047619,8.53333333 L10.4047619,8.53333333 C10.1023203,8.53333333 9.74632397,8.74918925 9.60896955,9.01673177 L9.55769711,9.11660156 C9.42063478,9.38357515 9.09148434,9.49382426 8.82338615,9.36327209 L7.60518528,8.77006124 C7.33669886,8.63932003 6.94791667,8.36666667 6.73598648,8.1602651 L6.40687066,7.8397349 C6.19531184,7.63369501 6.02380952,7.21927083 6.02380952,6.93333333 L6.02380952,6.93333333 C6.02380952,6.63878147 6.27198283,6.4 6.56527855,6.4 L6.02995954,6.4 C6.32900463,6.4 6.74255952,6.23333333 6.95448971,6.02693176 L7.28360553,5.70640157 C7.49516435,5.50036167 7.8989385,5.33333333 8.21428571,5.33333333 L8.21428571,5.33333333 C8.51672736,5.33333333 8.83804884,5.11086019 8.93517485,4.82708333 L9.13625372,4.23958333 C9.23194815,3.95998918 9.54297227,3.77880503 9.83745611,3.83616536 L11.5196867,4.16383464 C11.8112557,4.2206272 12.2820384,4.20959066 12.5778722,4.13756154 L13.7078421,3.86243846 C14.0006928,3.79113567 14.4492682,3.6305013 14.7216707,3.49785309 L14.8497578,3.43548024 C15.1168292,3.3054281 15.5445063,3.09716797 15.8169088,2.96451976 L15.9449959,2.90214691 C16.2120673,2.77209476 16.6397443,2.56383464 16.9121469,2.43118642 L17.040234,2.36881358 Z" id="Line" fill="#E7832C" mask="url(#mask-3)"></path>
                <ellipse id="Oval-81" fill="#445128" mask="url(#mask-3)" cx="11.5" cy="12.2666667" rx="0.547619048" ry="0.533333333"></ellipse>
                <path d="M13.1428571,11.7333333 C13.1428571,11.7333333 14.7857143,11.2 15.3333333,10.1333333" id="Line" stroke="#445128" stroke-width="1.08" stroke-linecap="round" opacity="0.75" mask="url(#mask-3)"></path>
                <path d="M7.66666667,11.7333333 C7.66666667,11.7333333 9.30952381,11.2 9.85714286,10.1333333" id="Line" stroke="#445128" stroke-width="1.08" stroke-linecap="round" opacity="0.75" mask="url(#mask-3)" transform="translate(8.761905, 10.933333) scale(-1, 1) translate(-8.761905, -10.933333) "></path>
            </g>
        </g>
    </g>
</svg>