<?xml version="1.0" encoding="UTF-8"?>
<svg width="23px" height="16px" viewBox="0 0 23 16" version="1.1" xmlns="http://www.w3.org/2000/svg" xmlns:xlink="http://www.w3.org/1999/xlink">
    <!-- Generator: Sketch 39.1 (31720) - http://www.bohemiancoding.com/sketch -->
    <title>GB</title>
    <desc>Created with Sketch.</desc>
    <defs>
        <rect id="path-1" x="0" y="0" width="23" height="16" rx="1.62"></rect>
    </defs>
    <g id="Page-1" stroke="none" stroke-width="1" fill="none" fill-rule="evenodd">
        <g id="Flags" transform="translate(-190.000000, -373.000000)">
            <g id="GB" transform="translate(190.000000, 373.000000)">
                <mask id="mask-2" fill="white">
                    <use xlink:href="#path-1"></use>
                </mask>
                <use id="Mask" fill="#FFFFFF" xlink:href="#path-1"></use>
                <rect id="Mask-Copy" fill="#0A17A7" mask="url(#mask-2)" x="0" y="0" width="23" height="16"></rect>
                <path d="M8.76190476,11.133501 L8.76190476,17.0666667 L14.2380952,17.0666667 L14.2380952,11.133501 L24.0694338,17.7648226 L25.2623786,15.9962091 L17.361007,10.6666667 L23,10.6666667 L23,5.33333333 L17.361007,5.33333333 L25.2623786,0.00379087227 L24.0694338,-1.76482262 L14.2380952,4.86649896 L14.2380952,-1.06666667 L8.76190476,-1.06666667 L8.76190476,4.86649896 L-1.06943378,-1.76482262 L-2.26237864,0.00379087227 L5.63899299,5.33333333 L0,5.33333333 L0,10.6666667 L5.63899299,10.6666667 L-2.26237864,15.9962091 L-1.06943378,17.7648226 L8.76190476,11.133501 Z" id="Rectangle-2" fill="#FFFFFF" mask="url(#mask-2)"></path>
                <path d="M15.3344029,5.06575521 L25.7380952,-1.6" id="Line" stroke="#DB1F35" stroke-width="0.54" stroke-linecap="round" mask="url(#mask-2)"></path>
                <path d="M16.4390666,17.0802734 L25.7654361,10.9580078" id="Line-Copy-2" stroke="#DB1F35" stroke-width="0.54" stroke-linecap="round" mask="url(#mask-2)" transform="translate(21.102251, 14.019141) scale(1, -1) translate(-21.102251, -14.019141) "></path>
                <path d="M6.57597424,5.0483724 L-3.15221877,-1.33678385" id="Line-Copy" stroke="#DB1F35" stroke-width="0.54" stroke-linecap="round" mask="url(#mask-2)"></path>
                <path d="M7.63110352,17.8483724 L-3.15221877,10.8839193" id="Line-Copy-3" stroke="#DB1F35" stroke-width="0.54" stroke-linecap="round" mask="url(#mask-2)" transform="translate(2.239442, 14.366146) scale(1, -1) translate(-2.239442, -14.366146) "></path>
                <polygon id="Rectangle-2-Copy-3" fill="#E6273E" mask="url(#mask-2)" points="0 9.6 9.85714286 9.6 9.85714286 16 13.1428571 16 13.1428571 9.6 23 9.6 23 6.4 13.1428571 6.4 13.1428571 0 9.85714286 0 9.85714286 6.4 0 6.4"></polygon>
            </g>
        </g>
    </g>
</svg>