<?xml version="1.0" encoding="UTF-8"?>
<svg width="23px" height="16px" viewBox="0 0 23 16" version="1.1" xmlns="http://www.w3.org/2000/svg" xmlns:xlink="http://www.w3.org/1999/xlink">
    <!-- Generator: Sketch 39.1 (31720) - http://www.bohemiancoding.com/sketch -->
    <title>EU</title>
    <desc>Created with Sketch.</desc>
    <defs>
        <rect id="path-1" x="0" y="0" width="23" height="16" rx="1.62"></rect>
    </defs>
    <g id="Page-1" stroke="none" stroke-width="1" fill="none" fill-rule="evenodd">
        <g id="Flags" transform="translate(-113.000000, -1072.000000)">
            <g id="EU" transform="translate(113.000000, 1072.000000)">
                <mask id="mask-2" fill="white">
                    <use xlink:href="#path-1"></use>
                </mask>
                <use id="Mask" fill="#FFFFFF" xlink:href="#path-1"></use>
                <rect id="Mask-Copy" fill="#043CAE" mask="url(#mask-2)" x="0" y="0" width="23" height="16"></rect>
                <path d="M11.5,3.2 L10.7255497,3.4209139 L10.952381,2.66666667 L10.7255497,1.91241943 L11.5,2.13333333 L12.2744503,1.91241943 L12.047619,2.66666667 L12.2744503,3.4209139 L11.5,3.2 Z M11.5,13.8666667 L10.7255497,14.0875806 L10.952381,13.3333333 L10.7255497,12.5790861 L11.5,12.8 L12.2744503,12.5790861 L12.047619,13.3333333 L12.2744503,14.0875806 L11.5,13.8666667 Z M16.9761905,8.53333333 L16.2017402,8.75424723 L16.4285714,8 L16.2017402,7.24575277 L16.9761905,7.46666667 L17.7506408,7.24575277 L17.5238095,8 L17.7506408,8.75424723 L16.9761905,8.53333333 Z M6.02380952,8.53333333 L5.24935924,8.75424723 L5.47619048,8 L5.24935924,7.24575277 L6.02380952,7.46666667 L6.79825981,7.24575277 L6.57142857,8 L6.79825981,8.75424723 L6.02380952,8.53333333 Z M16.2425201,5.86666667 L15.4680698,6.08758057 L15.694901,5.33333333 L15.4680698,4.5790861 L16.2425201,4.8 L17.0169704,4.5790861 L16.7901391,5.33333333 L17.0169704,6.08758057 L16.2425201,5.86666667 Z M6.75747993,11.2 L5.98302965,11.4209139 L6.20986088,10.6666667 L5.98302965,9.91241943 L6.75747993,10.1333333 L7.53193022,9.91241943 L7.30509898,10.6666667 L7.53193022,11.4209139 L6.75747993,11.2 Z M14.2380952,3.91453118 L13.463645,4.13544508 L13.6904762,3.38119785 L13.463645,2.62695061 L14.2380952,2.84786451 L15.0125455,2.62695061 L14.7857143,3.38119785 L15.0125455,4.13544508 L14.2380952,3.91453118 Z M8.76190476,13.1521355 L7.98745448,13.3730494 L8.21428571,12.6188022 L7.98745448,11.8645549 L8.76190476,12.0854688 L9.53635505,11.8645549 L9.30952381,12.6188022 L9.53635505,13.3730494 L8.76190476,13.1521355 Z M16.2425201,11.2 L15.4680698,11.4209139 L15.694901,10.6666667 L15.4680698,9.91241943 L16.2425201,10.1333333 L17.0169704,9.91241943 L16.7901391,10.6666667 L17.0169704,11.4209139 L16.2425201,11.2 Z M6.75747993,5.86666667 L5.98302965,6.08758057 L6.20986088,5.33333333 L5.98302965,4.5790861 L6.75747993,4.8 L7.53193022,4.5790861 L7.30509898,5.33333333 L7.53193022,6.08758057 L6.75747993,5.86666667 Z M14.2380952,13.1521355 L13.463645,13.3730494 L13.6904762,12.6188022 L13.463645,11.8645549 L14.2380952,12.0854688 L15.0125455,11.8645549 L14.7857143,12.6188022 L15.0125455,13.3730494 L14.2380952,13.1521355 Z M8.76190476,3.91453118 L7.98745448,4.13544508 L8.21428571,3.38119785 L7.98745448,2.62695061 L8.76190476,2.84786451 L9.53635505,2.62695061 L9.30952381,3.38119785 L9.53635505,4.13544508 L8.76190476,3.91453118 Z" id="Star-2" fill="#FFD429" mask="url(#mask-2)"></path>
            </g>
        </g>
    </g>
</svg>