<?xml version="1.0" encoding="UTF-8"?>
<svg width="23px" height="16px" viewBox="0 0 23 16" version="1.1" xmlns="http://www.w3.org/2000/svg" xmlns:xlink="http://www.w3.org/1999/xlink">
    <!-- Generator: Sketch 39.1 (31720) - http://www.bohemiancoding.com/sketch -->
    <title>FM</title>
    <desc>Created with Sketch.</desc>
    <defs>
        <rect id="path-1" x="0" y="0" width="23" height="16" rx="1.62"></rect>
    </defs>
    <g id="Page-1" stroke="none" stroke-width="1" fill="none" fill-rule="evenodd">
        <g id="Flags" transform="translate(-190.000000, -334.000000)">
            <g id="FM" transform="translate(190.000000, 334.000000)">
                <mask id="mask-2" fill="white">
                    <use xlink:href="#path-1"></use>
                </mask>
                <use id="Mask" fill="#FFFFFF" xlink:href="#path-1"></use>
                <rect id="Mask-Copy" fill="#95CEF5" mask="url(#mask-2)" x="0" y="0" width="23" height="16"></rect>
                <path d="M11.5,4.60799999 L10.2124704,5.45923625 L10.6458607,4.0036202 L9.41673335,3.07409708 L10.9721129,3.02571314 L11.5,1.6 L12.0278871,3.02571314 L13.5832667,3.07409708 L12.3541393,4.0036202 L12.7875296,5.45923625 L11.5,4.60799999 Z M11.5,13.1413333 L10.2124704,13.9925696 L10.6458607,12.5369535 L9.41673335,11.6074304 L10.9721129,11.5590465 L11.5,10.1333333 L12.0278871,11.5590465 L13.5832667,11.6074304 L12.3541393,12.5369535 L12.7875296,13.9925696 L11.5,13.1413333 Z M15.8809524,8.87466666 L14.5934228,9.72590292 L15.0268131,8.27028686 L13.7976857,7.34076375 L15.3530652,7.29237981 L15.8809524,5.86666667 L16.4088395,7.29237981 L17.964219,7.34076375 L16.7350917,8.27028686 L17.168482,9.72590292 L15.8809524,8.87466666 Z M7.11904762,8.87466666 L5.83151802,9.72590292 L6.2649083,8.27028686 L5.03578096,7.34076375 L6.59116049,7.29237981 L7.11904762,5.86666667 L7.64693475,7.29237981 L9.20231427,7.34076375 L7.97318694,8.27028686 L8.40657722,9.72590292 L7.11904762,8.87466666 Z" id="Star-33" fill="#FFFFFF" mask="url(#mask-2)"></path>
            </g>
        </g>
    </g>
</svg>