<?xml version="1.0" encoding="UTF-8"?>
<svg width="23px" height="16px" viewBox="0 0 23 16" version="1.1" xmlns="http://www.w3.org/2000/svg" xmlns:xlink="http://www.w3.org/1999/xlink">
    <!-- Generator: Sketch 39.1 (31720) - http://www.bohemiancoding.com/sketch -->
    <title>HK</title>
    <desc>Created with Sketch.</desc>
    <defs>
        <rect id="path-1" x="0" y="0" width="23" height="16" rx="1.62"></rect>
    </defs>
    <g id="Page-1" stroke="none" stroke-width="1" fill="none" fill-rule="evenodd">
        <g id="Flags" transform="translate(-152.000000, -411.000000)">
            <g id="HK" transform="translate(152.000000, 411.000000)">
                <mask id="mask-2" fill="white">
                    <use xlink:href="#path-1"></use>
                </mask>
                <use id="Mask" fill="#FFFFFF" xlink:href="#path-1"></use>
                <rect id="Rectangle-2" fill="#F0371D" mask="url(#mask-2)" x="0" y="0" width="23" height="16"></rect>
                <path d="M13.1428571,7.66973913 C14.0168283,8.20307246 14.1724894,8.20307246 14.7857143,8.20307246 C15.2855384,8.20307246 15.389352,7.66973913 16.4285714,7.66973913 C16.4285714,6.78608353 15.4478618,6.06973913 14.2380952,6.06973913 C13.0283286,6.06973913 12.047619,6.78608353 12.047619,7.66973913 C12.047619,8.10547393 12.268886,7.13640579 13.1428571,7.66973913 Z M14.5119048,7.46666667 C14.6631256,7.46666667 14.7857143,7.34727593 14.7857143,7.2 C14.7857143,7.05272407 14.6631256,6.93333333 14.5119048,6.93333333 C14.3606839,6.93333333 14.2380952,7.05272407 14.2380952,7.2 C14.2380952,7.34727593 14.3606839,7.46666667 14.5119048,7.46666667 Z M12.542074,9.53278078 C12.3049157,10.5287858 12.3530177,10.6768283 12.5425146,11.2600398 C12.6969687,11.7354008 13.236279,11.6693243 13.5574155,12.6576808 C14.3978219,12.3846162 14.77605,11.2305433 14.4022116,10.0799869 C14.0283731,8.92943051 13.0440332,8.21808285 12.2036268,8.49114745 C11.7892184,8.62579691 12.7792322,8.53677578 12.542074,9.53278078 Z M13.1566463,10.7652763 C13.2033761,10.9090959 13.3548054,10.9887909 13.4948731,10.9432801 C13.6349409,10.8977694 13.7106062,10.7442868 13.6638764,10.6004673 C13.6171466,10.4566477 13.4657173,10.3769527 13.3256496,10.4224635 C13.1855818,10.4679742 13.1099165,10.6214568 13.1566463,10.7652763 Z M10.50118,9.55821073 C9.48063703,9.64044233 9.35470454,9.73193764 8.85859517,10.0923822 C8.45422898,10.3861714 8.68372748,10.8786673 7.84298129,11.4895051 C8.36238102,12.2043975 9.57684842,12.2074857 10.5555702,11.4964027 C11.5342919,10.7853198 11.9066459,9.62933833 11.3872462,8.91444593 C11.1311277,8.56192907 11.5217229,9.47597912 10.50118,9.55821073 Z M9.51195895,10.5230073 C9.38961873,10.6118927 9.3606185,10.7805377 9.44718512,10.8996864 C9.53375175,11.0188351 9.7031042,11.0433684 9.82544442,10.9544831 C9.94778463,10.8655977 9.97678486,10.6969527 9.89021824,10.577804 C9.80365162,10.4586553 9.63429916,10.434122 9.51195895,10.5230073 Z M9.84062132,7.71088565 C9.4470493,6.76570258 9.32111681,6.67420727 8.82500744,6.31376272 C8.42064125,6.01997349 8.02316882,6.39042911 7.18242262,5.77959125 C6.66302289,6.49448365 7.03537695,7.65046508 8.01409868,8.36154804 C8.99282042,9.072631 10.2072878,9.06954285 10.7266876,8.35465045 C10.982806,8.00213359 10.2341933,8.65606872 9.84062132,7.71088565 Z M8.61467678,7.07466719 C8.49233656,6.98578182 8.32298411,7.01031512 8.23641748,7.12946385 C8.14985086,7.24861258 8.17885109,7.41725755 8.30119131,7.50614292 C8.42353153,7.59502829 8.59288398,7.57049498 8.6794506,7.45134625 C8.76601722,7.33219752 8.73701699,7.16355256 8.61467678,7.07466719 Z M11.4732676,6.54374601 C12.2505697,5.87735915 12.2986716,5.72931663 12.4881685,5.14610508 C12.6426226,4.67074412 12.1674727,4.40720246 12.4886091,3.41884603 C11.6482027,3.14578143 10.6638628,3.85712909 10.2900243,5.00768549 C9.91618591,6.1582419 10.294414,7.31231474 11.1348204,7.58537934 C11.5492288,7.7200288 10.6959655,7.21013288 11.4732676,6.54374601 Z M11.7048132,5.18574477 C11.751543,5.04192522 11.6758777,4.88844268 11.53581,4.84293191 C11.3957422,4.79742114 11.2443129,4.87711616 11.1975831,5.02093571 C11.1508533,5.16475526 11.2265186,5.31823781 11.3665864,5.36374857 C11.5066541,5.40925934 11.6580834,5.32956432 11.7048132,5.18574477 Z" id="Oval-145" fill="#FFFFFF" mask="url(#mask-2)"></path>
            </g>
        </g>
    </g>
</svg>