<?xml version="1.0" encoding="UTF-8"?>
<svg width="23px" height="16px" viewBox="0 0 23 16" version="1.1" xmlns="http://www.w3.org/2000/svg" xmlns:xlink="http://www.w3.org/1999/xlink">
    <!-- Generator: Sketch 39.1 (31720) - http://www.bohemiancoding.com/sketch -->
    <title>KE</title>
    <desc>Created with Sketch.</desc>
    <defs>
        <rect id="path-1" x="0" y="0" width="23" height="16" rx="1.62"></rect>
        <path d="M2.73809524,11.2 C3.83333333,11.2 5.47619048,9.1067372 5.47619048,5.86666667 C5.47619048,2.62659613 3.83333333,0.533333333 2.73809524,0.533333333 C1.64285714,0.533333333 0,2.62659613 0,5.86666667 C0,9.1067372 1.64285714,11.2 2.73809524,11.2 Z" id="path-3"></path>
        <linearGradient x1="50%" y1="0%" x2="50%" y2="100%" id="linearGradient-5">
            <stop stop-color="#FFFFFF" offset="0%"></stop>
            <stop stop-color="#F0F0F0" offset="100%"></stop>
        </linearGradient>
        <path d="M2.73809524,7.46666667 C3.04053689,7.46666667 3.28571429,6.75032227 3.28571429,5.86666667 C3.28571429,4.98301107 3.04053689,4.26666667 2.73809524,4.26666667 C2.43565359,4.26666667 2.19047619,4.98301107 2.19047619,5.86666667 C2.19047619,6.75032227 2.43565359,7.46666667 2.73809524,7.46666667 Z M2.73809524,4.26666667 C3.04053689,4.26666667 3.28571429,3.3115408 3.28571429,2.13333333 C3.28571429,0.955125867 3.04053689,0 2.73809524,0 C2.43565359,0 2.19047619,0.955125867 2.19047619,2.13333333 C2.19047619,3.3115408 2.43565359,4.26666667 2.73809524,4.26666667 Z M2.73809524,11.7333333 C3.04053689,11.7333333 3.28571429,10.7782075 3.28571429,9.6 C3.28571429,8.42179253 3.04053689,7.46666667 2.73809524,7.46666667 C2.43565359,7.46666667 2.19047619,8.42179253 2.19047619,9.6 C2.19047619,10.7782075 2.43565359,11.7333333 2.73809524,11.7333333 Z" id="path-6"></path>
        <filter x="-50%" y="-50%" width="200%" height="200%" filterUnits="objectBoundingBox" id="filter-7">
            <feOffset dx="0" dy="1" in="SourceAlpha" result="shadowOffsetOuter1"></feOffset>
            <feColorMatrix values="0 0 0 0 0   0 0 0 0 0   0 0 0 0 0  0 0 0 0.06 0" type="matrix" in="shadowOffsetOuter1"></feColorMatrix>
        </filter>
    </defs>
    <g id="Page-1" stroke="none" stroke-width="1" fill="none" fill-rule="evenodd">
        <g id="Flags" transform="translate(-152.000000, -529.000000)">
            <g id="KE" transform="translate(152.000000, 529.000000)">
                <mask id="mask-2" fill="white">
                    <use xlink:href="#path-1"></use>
                </mask>
                <use id="Mask" fill="#FFFFFF" xlink:href="#path-1"></use>
                <rect id="Rectangle-2" fill="#262626" mask="url(#mask-2)" x="0" y="0" width="23" height="4.26666667"></rect>
                <rect id="Rectangle-2" fill="#018301" mask="url(#mask-2)" x="0" y="11.7333333" width="23" height="4.26666667"></rect>
                <rect id="Rectangle-2" fill="#FFFFFF" mask="url(#mask-2)" x="0" y="4.26666667" width="23" height="7.46666667"></rect>
                <rect id="Rectangle-2-Copy-4" fill="#DC0808" mask="url(#mask-2)" x="0" y="5.33333333" width="23" height="5.33333333"></rect>
                <g id="Oval-225" mask="url(#mask-2)">
                    <g transform="translate(8.761905, 2.133333)">
                        <mask id="mask-4" fill="white">
                            <use xlink:href="#path-3"></use>
                        </mask>
                        <use id="Mask" stroke="none" fill="#BC0000" fill-rule="evenodd" xlink:href="#path-3"></use>
                        <ellipse id="Mask-Copy" stroke="none" fill="#262626" fill-rule="evenodd" mask="url(#mask-4)" cx="-1.64285714" cy="5.86666667" rx="2.73809524" ry="5.86666667"></ellipse>
                        <ellipse id="Mask-Copy-2" stroke="none" fill="#262626" fill-rule="evenodd" mask="url(#mask-4)" cx="7.11904762" cy="5.86666667" rx="2.73809524" ry="5.86666667"></ellipse>
                        <g id="Oval-228" stroke="none" fill="none" mask="url(#mask-4)">
                            <use fill="black" fill-opacity="1" filter="url(#filter-7)" xlink:href="#path-6"></use>
                            <use fill="url(#linearGradient-5)" fill-rule="evenodd" xlink:href="#path-6"></use>
                        </g>
                    </g>
                </g>
            </g>
        </g>
    </g>
</svg>