<?xml version="1.0" encoding="UTF-8"?>
<svg width="23px" height="16px" viewBox="0 0 23 16" version="1.1" xmlns="http://www.w3.org/2000/svg" xmlns:xlink="http://www.w3.org/1999/xlink">
    <!-- Generator: Sketch 39.1 (31720) - http://www.bohemiancoding.com/sketch -->
    <title>KH</title>
    <desc>Created with Sketch.</desc>
    <defs>
        <rect id="path-1" x="0" y="0" width="23" height="16" rx="1.62"></rect>
    </defs>
    <g id="Page-1" stroke="none" stroke-width="1" fill="none" fill-rule="evenodd">
        <g id="Flags" transform="translate(-346.000000, -529.000000)">
            <g id="KH" transform="translate(346.000000, 529.000000)">
                <mask id="mask-2" fill="white">
                    <use xlink:href="#path-1"></use>
                </mask>
                <use id="Mask" fill="#FFFFFF" xlink:href="#path-1"></use>
                <rect id="Rectangle-2" fill="#0F3EB6" mask="url(#mask-2)" x="0" y="0" width="23" height="4.26666667"></rect>
                <rect id="Rectangle-2" fill="#0F3EB6" mask="url(#mask-2)" x="0" y="11.7333333" width="23" height="4.26666667"></rect>
                <rect id="Rectangle-2" fill="#ED1A3C" mask="url(#mask-2)" x="0" y="4.26666667" width="23" height="7.46666667"></rect>
                <path d="M8.21428571,8.53333333 L9.30952381,8.53333333 L9.30952381,10.6666667 L7.11904762,10.6666667 L8.21428571,8.53333333 Z M9.85714286,8.53333333 L13.1428571,8.53333333 L13.1428571,10.6666667 L9.85714286,10.6666667 L9.85714286,8.53333333 Z M13.6904762,8.53333333 L14.7857143,8.53333333 L15.8809524,10.6666667 L13.6904762,10.6666667 L13.6904762,8.53333333 Z M13.6904762,6.94168701 C13.6904762,6.64252154 13.922748,6.4 14.2380952,6.4 C14.5405369,6.4 14.7857143,6.65 14.7857143,6.94168701 L14.7857143,8 L13.6904762,8 L13.6904762,6.94168701 Z M9.85714286,6.98177083 L10.952381,6.98177083 L10.952381,6.398092 C10.952381,6.10459389 11.1846528,5.86666667 11.5,5.86666667 C11.8024416,5.86666667 12.047619,6.10315158 12.047619,6.398092 L12.047619,6.98177083 L13.1428571,6.98177083 L13.1428571,8 L9.85714286,8 L9.85714286,6.98177083 Z M8.21428571,6.94168701 C8.21428571,6.64252154 8.44655754,6.4 8.76190476,6.4 C9.06434641,6.4 9.30952381,6.65 9.30952381,6.94168701 L9.30952381,8 L8.21428571,8 L8.21428571,6.94168701 Z" id="Rectangle-621" fill="#FFFFFF" mask="url(#mask-2)"></path>
            </g>
        </g>
    </g>
</svg>