<?xml version="1.0" encoding="UTF-8"?>
<svg width="23px" height="16px" viewBox="0 0 23 16" version="1.1" xmlns="http://www.w3.org/2000/svg" xmlns:xlink="http://www.w3.org/1999/xlink">
    <!-- Generator: Sketch 39.1 (31720) - http://www.bohemiancoding.com/sketch -->
    <title>KZ</title>
    <desc>Created with Sketch.</desc>
    <defs>
        <rect id="path-1" x="0" y="0" width="23" height="16" rx="1.62"></rect>
    </defs>
    <g id="Page-1" stroke="none" stroke-width="1" fill="none" fill-rule="evenodd">
        <g id="Flags" transform="translate(-113.000000, -529.000000)">
            <g id="KZ" transform="translate(113.000000, 529.000000)">
                <mask id="mask-2" fill="white">
                    <use xlink:href="#path-1"></use>
                </mask>
                <use id="Mask" fill="#FFFFFF" xlink:href="#path-1"></use>
                <rect id="Mask-Copy" fill="#30C6E0" mask="url(#mask-2)" x="0" y="0" width="23" height="16"></rect>
                <ellipse id="Oval-9" fill="#FFCD4B" mask="url(#mask-2)" cx="11.5" cy="8" rx="3.28571429" ry="3.2"></ellipse>
                <path d="M11.5,11.7708904 L10.1595763,13.7195771 L9.82004711,11.3974549 L7.74421619,12.5867447 L8.47282949,10.3511117 L6.07273515,10.5454513 L7.72518012,8.83910206 L5.47619048,8 L7.72518012,7.16089794 L6.07273515,5.45454873 L8.47282949,5.64888828 L7.74421619,3.4132553 L9.82004711,4.60254514 L10.1595763,2.28042292 L11.5,4.22910959 L12.8404237,2.28042292 L13.1799529,4.60254514 L15.2557838,3.4132553 L14.5271705,5.64888828 L16.9272648,5.45454873 L15.2748199,7.16089794 L17.5238095,8 L15.2748199,8.83910206 L16.9272648,10.5454513 L14.5271705,10.3511117 L15.2557838,12.5867447 L13.1799529,11.3974549 L12.8404237,13.7195771 L11.5,11.7708904 Z M11.5,11.7333333 C13.6170915,11.7333333 15.3333333,10.0618631 15.3333333,8 C15.3333333,5.93813693 13.6170915,4.26666667 11.5,4.26666667 C9.38290846,4.26666667 7.66666667,5.93813693 7.66666667,8 C7.66666667,10.0618631 9.38290846,11.7333333 11.5,11.7333333 Z" id="Star-28" fill="#FFCD4B" mask="url(#mask-2)"></path>
                <path d="M1.0952381,1.33583171 C1.0952381,1.18717596 1.21244776,1.06666667 1.37161291,1.06666667 L1.91410137,1.06666667 C2.06673897,1.06666667 2.19047619,1.19746094 2.19047619,1.33583171 L2.19047619,1.86416829 C2.19047619,2.01282404 2.07326653,2.13333333 1.91410137,2.13333333 L1.37161291,2.13333333 C1.21897532,2.13333333 1.0952381,2.00253906 1.0952381,1.86416829 L1.0952381,1.33583171 Z M1.0952381,3.46916504 C1.0952381,3.32050929 1.21244776,3.2 1.37161291,3.2 L1.91410137,3.2 C2.06673897,3.2 2.19047619,3.33079427 2.19047619,3.46916504 L2.19047619,3.99750163 C2.19047619,4.14615737 2.07326653,4.26666667 1.91410137,4.26666667 L1.37161291,4.26666667 C1.21897532,4.26666667 1.0952381,4.1358724 1.0952381,3.99750163 L1.0952381,3.46916504 Z M1.0952381,5.60249837 C1.0952381,5.45384263 1.21244776,5.33333333 1.37161291,5.33333333 L1.91410137,5.33333333 C2.06673897,5.33333333 2.19047619,5.4641276 2.19047619,5.60249837 L2.19047619,6.13083496 C2.19047619,6.27949071 2.07326653,6.4 1.91410137,6.4 L1.37161291,6.4 C1.21897532,6.4 1.0952381,6.26920573 1.0952381,6.13083496 L1.0952381,5.60249837 Z M1.0952381,7.73583171 C1.0952381,7.58717596 1.21244776,7.46666667 1.37161291,7.46666667 L1.91410137,7.46666667 C2.06673897,7.46666667 2.19047619,7.59746094 2.19047619,7.73583171 L2.19047619,8.26416829 C2.19047619,8.41282404 2.07326653,8.53333333 1.91410137,8.53333333 L1.37161291,8.53333333 C1.21897532,8.53333333 1.0952381,8.40253906 1.0952381,8.26416829 L1.0952381,7.73583171 Z M1.0952381,9.86916504 C1.0952381,9.72050929 1.21244776,9.6 1.37161291,9.6 L1.91410137,9.6 C2.06673897,9.6 2.19047619,9.73079427 2.19047619,9.86916504 L2.19047619,10.3975016 C2.19047619,10.5461574 2.07326653,10.6666667 1.91410137,10.6666667 L1.37161291,10.6666667 C1.21897532,10.6666667 1.0952381,10.5358724 1.0952381,10.3975016 L1.0952381,9.86916504 Z M1.0952381,12.0024984 C1.0952381,11.8538426 1.21244776,11.7333333 1.37161291,11.7333333 L1.91410137,11.7333333 C2.06673897,11.7333333 2.19047619,11.8641276 2.19047619,12.0024984 L2.19047619,12.530835 C2.19047619,12.6794907 2.07326653,12.8 1.91410137,12.8 L1.37161291,12.8 C1.21897532,12.8 1.0952381,12.6692057 1.0952381,12.530835 L1.0952381,12.0024984 Z M1.0952381,14.1358317 C1.0952381,13.987176 1.21244776,13.8666667 1.37161291,13.8666667 L1.91410137,13.8666667 C2.06673897,13.8666667 2.19047619,13.9974609 2.19047619,14.1358317 L2.19047619,14.6641683 C2.19047619,14.812824 2.07326653,14.9333333 1.91410137,14.9333333 L1.37161291,14.9333333 C1.21897532,14.9333333 1.0952381,14.8025391 1.0952381,14.6641683 L1.0952381,14.1358317 Z M2.19047619,13.069165 C2.19047619,12.9205093 2.30768585,12.8 2.46685101,12.8 L3.00933947,12.8 C3.16197707,12.8 3.28571429,12.9307943 3.28571429,13.069165 L3.28571429,13.5975016 C3.28571429,13.7461574 3.16850462,13.8666667 3.00933947,13.8666667 L2.46685101,13.8666667 C2.31421341,13.8666667 2.19047619,13.7358724 2.19047619,13.5975016 L2.19047619,13.069165 Z M2.19047619,10.9358317 C2.19047619,10.787176 2.30768585,10.6666667 2.46685101,10.6666667 L3.00933947,10.6666667 C3.16197707,10.6666667 3.28571429,10.7974609 3.28571429,10.9358317 L3.28571429,11.4641683 C3.28571429,11.612824 3.16850462,11.7333333 3.00933947,11.7333333 L2.46685101,11.7333333 C2.31421341,11.7333333 2.19047619,11.6025391 2.19047619,11.4641683 L2.19047619,10.9358317 Z M2.19047619,8.80249837 C2.19047619,8.65384263 2.30768585,8.53333333 2.46685101,8.53333333 L3.00933947,8.53333333 C3.16197707,8.53333333 3.28571429,8.6641276 3.28571429,8.80249837 L3.28571429,9.33083496 C3.28571429,9.47949071 3.16850462,9.6 3.00933947,9.6 L2.46685101,9.6 C2.31421341,9.6 2.19047619,9.46920573 2.19047619,9.33083496 L2.19047619,8.80249837 Z M2.19047619,6.66916504 C2.19047619,6.52050929 2.30768585,6.4 2.46685101,6.4 L3.00933947,6.4 C3.16197707,6.4 3.28571429,6.53079427 3.28571429,6.66916504 L3.28571429,7.19750163 C3.28571429,7.34615737 3.16850462,7.46666667 3.00933947,7.46666667 L2.46685101,7.46666667 C2.31421341,7.46666667 2.19047619,7.3358724 2.19047619,7.19750163 L2.19047619,6.66916504 Z M2.19047619,4.53583171 C2.19047619,4.38717596 2.30768585,4.26666667 2.46685101,4.26666667 L3.00933947,4.26666667 C3.16197707,4.26666667 3.28571429,4.39746094 3.28571429,4.53583171 L3.28571429,5.06416829 C3.28571429,5.21282404 3.16850462,5.33333333 3.00933947,5.33333333 L2.46685101,5.33333333 C2.31421341,5.33333333 2.19047619,5.20253906 2.19047619,5.06416829 L2.19047619,4.53583171 Z M2.19047619,2.40249837 C2.19047619,2.25384263 2.30768585,2.13333333 2.46685101,2.13333333 L3.00933947,2.13333333 C3.16197707,2.13333333 3.28571429,2.2641276 3.28571429,2.40249837 L3.28571429,2.93083496 C3.28571429,3.07949071 3.16850462,3.2 3.00933947,3.2 L2.46685101,3.2 C2.31421341,3.2 2.19047619,3.06920573 2.19047619,2.93083496 L2.19047619,2.40249837 Z" id="Rectangle-294" fill="#FFCD4B" mask="url(#mask-2)"></path>
            </g>
        </g>
    </g>
</svg>