<?xml version="1.0" encoding="UTF-8"?>
<svg width="23px" height="16px" viewBox="0 0 23 16" version="1.1" xmlns="http://www.w3.org/2000/svg" xmlns:xlink="http://www.w3.org/1999/xlink">
    <!-- Generator: Sketch 39.1 (31720) - http://www.bohemiancoding.com/sketch -->
    <title>LK</title>
    <desc>Created with Sketch.</desc>
    <defs>
        <rect id="path-1" x="0" y="0" width="23" height="16" rx="1.62"></rect>
    </defs>
    <g id="Page-1" stroke="none" stroke-width="1" fill="none" fill-rule="evenodd">
        <g id="Flags" transform="translate(-502.000000, -567.000000)">
            <g id="LK" transform="translate(502.000000, 567.000000)">
                <mask id="mask-2" fill="white">
                    <use xlink:href="#path-1"></use>
                </mask>
                <use id="Mask" fill="#FFFFFF" xlink:href="#path-1"></use>
                <rect id="Mask-Copy" fill="#FFBF19" mask="url(#mask-2)" x="0" y="0" width="23" height="16"></rect>
                <rect id="Rectangle-1568" fill="#A52531" mask="url(#mask-2)" x="8.76190476" y="1.06666667" width="13.1428571" height="13.8666667" rx="1.08"></rect>
                <rect id="Rectangle-1568" fill="#03664F" mask="url(#mask-2)" x="1.0952381" y="1.06666667" width="3.28571429" height="13.8666667" rx="1.08"></rect>
                <rect id="Rectangle-1568" fill="#FF6816" mask="url(#mask-2)" x="4.38095238" y="1.06666667" width="3.28571429" height="13.8666667" rx="0.54"></rect>
                <path d="M10.4047619,3.2 C10.7072036,3.2 10.952381,2.96121853 10.952381,2.66666667 C10.952381,2.3721148 10.7072036,2.13333333 10.4047619,2.13333333 L9.85714286,2.13333333 L9.85714286,2.66666667 C9.85714286,2.96121853 10.1023203,3.2 10.4047619,3.2 Z M20.2619048,3.2 C19.9594631,3.2 19.7142857,2.96121853 19.7142857,2.66666667 C19.7142857,2.3721148 19.9594631,2.13333333 20.2619048,2.13333333 L20.8095238,2.13333333 L20.8095238,2.66666667 C20.8095238,2.96121853 20.5643464,3.2 20.2619048,3.2 Z M20.2619048,12.8 C19.9594631,12.8 19.7142857,13.0387815 19.7142857,13.3333333 C19.7142857,13.6278852 19.9594631,13.8666667 20.2619048,13.8666667 L20.8095238,13.8666667 L20.8095238,13.3333333 C20.8095238,13.0387815 20.5643464,12.8 20.2619048,12.8 Z M10.4047619,12.8 C10.7072036,12.8 10.952381,13.0387815 10.952381,13.3333333 C10.952381,13.6278852 10.7072036,13.8666667 10.4047619,13.8666667 L9.85714286,13.8666667 L9.85714286,13.3333333 C9.85714286,13.0387815 10.1023203,12.8 10.4047619,12.8 Z" id="Oval-157" fill="#FFBF18" mask="url(#mask-2)"></path>
                <path d="M13.1428571,10.1333333 C13.1428571,9.83878147 12.8946838,9.6 12.6013881,9.6 L13.1367071,9.6 C12.837662,9.6 12.3668058,9.51897582 12.0934,9.41068087 C12.0934,9.41068087 10.952381,9.06666655 10.952381,8.53333333 C10.952381,8.00000011 11.1751186,7.87799484 11.1751186,7.87799484 C11.3545456,7.65082456 11.4100448,7.25074061 11.2978676,6.96032323 C11.2978676,6.96032323 10.8429178,5.97297898 10.952381,5.33333333 C11.0618441,4.69368768 11.5896053,4.5260681 11.5896053,4.5260681 C11.8425593,4.38280464 12.047619,4.5177653 12.047619,4.80950305 L12.047619,6.92383029 C12.047619,7.22363054 12.258792,7.5694987 12.5311946,7.70214691 L12.6592816,7.76451976 C12.926353,7.8945719 13.3161272,7.83125 13.5291343,7.62379964 L13.304199,7.84286702 C13.517534,7.6350973 13.4793033,7.36383464 13.2069007,7.23118642 L12.5952381,6.93333333 L12.5952381,6.4 L13.1428571,6.4 C13.4452988,6.4 13.4793033,6.29716797 13.2069007,6.16451976 L12.5952381,5.86666667 L12.5952381,5.33333333 L13.1428571,5.33333333 C13.4452988,5.33333333 13.8637463,5.16458333 14.0767533,4.95713298 L13.8518181,5.17620036 C14.0651531,4.96843064 14.4703671,4.8 14.7857143,4.8 L14.7857143,4.8 C15.0881559,4.8 15.4441522,5.01585592 15.5815066,5.28339844 L15.6327791,5.38326823 C15.7698414,5.65024181 15.8048083,6.08913981 15.7076823,6.37291667 L15.5066034,6.96041667 C15.410909,7.24001082 15.5667818,7.46666667 15.8742928,7.46666667 L17.5304691,7.46666667 C17.8292327,7.46666667 18.2446987,7.29791667 18.4577057,7.09046631 L18.2327705,7.30953369 C18.4461054,7.10176397 18.4078747,6.8305013 18.1354721,6.69785309 L18.007385,6.63548024 C17.7403137,6.5054281 17.2915377,6.4 16.9761905,6.4 L16.9761905,6.4 C16.6737488,6.4 16.4285714,6.15260417 16.4285714,5.86666667 L16.4285714,5.86666667 C16.4285714,5.5721148 16.6018415,5.16458333 16.8148486,4.95713298 L16.9761905,4.8 L16.9761905,5.33333333 C16.9761905,5.6278852 17.2243638,5.86666667 17.5176595,5.86666667 L16.9823405,5.86666667 C17.2813856,5.86666667 17.7560814,5.86666667 18.0714286,5.86666667 L18.0714286,5.86666667 C18.3738702,5.86666667 18.7298665,6.08252258 18.8672209,6.3500651 L18.9184934,6.4499349 C19.0555557,6.71690848 19.1882394,7.16760258 19.2080503,7.47560407 C19.2080503,7.47560407 19.2827054,7.96827492 19.1666667,8.53333333 C19.0506279,9.09839174 18.9191068,9.16120577 18.9191068,9.16120577 C18.7533887,9.40354513 18.6190476,9.84472046 18.6190476,10.1383301 L18.6190476,11.1950033 C18.6190476,11.4923147 18.3867758,11.7333333 18.0714286,11.7333333 L18.0714286,11.7333333 C17.7689869,11.7333333 17.6346284,11.5174774 17.7719828,11.2499349 L17.8232553,11.1500651 C17.9603176,10.8830915 17.9606097,10.4508108 17.8232553,10.1832682 L17.7719828,10.0833984 C17.6349205,9.81642485 17.5238095,9.84739583 17.5238095,10.1333333 L17.5238095,10.1333333 C17.5238095,10.4278852 17.4129906,10.8825226 17.2756362,11.1500651 L17.2243638,11.2499349 C17.0873014,11.5169085 16.7439186,11.7333333 16.4285714,11.7333333 L16.4285714,11.7333333 C16.1261298,11.7333333 15.9917713,11.5174774 16.1291257,11.2499349 L16.1803981,11.1500651 C16.3174605,10.8830915 16.4285715,10.4192708 16.4285715,10.1333333 L16.4285715,10.1333333 C16.4285716,9.83878147 16.1941523,9.6 15.8983184,9.6 L14.7683484,9.6 C14.4754976,9.6 14.2380952,9.84739583 14.2380952,10.1333333 L14.2380952,10.1333333 C14.2380952,10.4278852 14.1272763,10.8825226 13.9899219,11.1500651 L13.9386494,11.2499349 C13.8015871,11.5169085 13.4582043,11.7333333 13.1428571,11.7333333 L13.1428571,11.7333333 C12.8404154,11.7333333 12.7060569,11.5174774 12.8434113,11.2499349 L12.8946838,11.1500651 C13.0317461,10.8830915 13.1428571,10.4192708 13.1428571,10.1333333 L13.1428571,10.1333333 Z" id="Rectangle-1067" fill="#FFBF18" mask="url(#mask-2)"></path>
            </g>
        </g>
    </g>
</svg>