<?xml version="1.0" encoding="UTF-8"?>
<svg width="23px" height="16px" viewBox="0 0 23 16" version="1.1" xmlns="http://www.w3.org/2000/svg" xmlns:xlink="http://www.w3.org/1999/xlink">
    <!-- Generator: Sketch 39.1 (31720) - http://www.bohemiancoding.com/sketch -->
    <title>MO</title>
    <desc>Created with Sketch.</desc>
    <defs>
        <rect id="path-1" x="0" y="0" width="23" height="16" rx="1.62"></rect>
    </defs>
    <g id="Page-1" stroke="none" stroke-width="1" fill="none" fill-rule="evenodd">
        <g id="Flags" transform="translate(-774.000000, -606.000000)">
            <g id="MO" transform="translate(774.000000, 606.000000)">
                <mask id="mask-2" fill="white">
                    <use xlink:href="#path-1"></use>
                </mask>
                <use id="Mask" fill="#FFFFFF" xlink:href="#path-1"></use>
                <rect id="Rectangle-2" fill="#079D7B" mask="url(#mask-2)" x="0" y="0" width="23" height="16"></rect>
                <g id="Oval-9" mask="url(#mask-2)">
                    <g transform="translate(6.571429, 2.133333)">
                        <path d="M2.58308808,7.36059515 C2.61181934,7.36868994 2.6407197,7.37663347 2.66978241,7.38442079 C2.78464683,7.41519862 2.89853505,7.44259544 3.01093354,7.46666668 L0.547619048,7.46666667 C0.677519793,7.84643095 0.852358223,8.20426046 1.06553235,8.53333333 L8.79161051,8.53333333 L8.79161051,8.53333333 C9.00478463,8.20426046 9.17962306,7.84643095 9.30952381,7.46666667 L6.81810679,7.46666667 C6.94941485,7.43976664 7.0828985,7.40829785 7.21772716,7.37217062 C7.23185762,7.36838438 7.2459497,7.36456121 7.26000263,7.36070168 C6.77772128,7.36528339 5.91393036,7.46666667 4.92857143,7.46666667 C3.93356758,7.46666667 3.06252325,7.36328895 2.58308808,7.36059515 Z M2.22230763,7.2481523 C1.03719293,6.84202857 0.229577762,6.1881797 0.361154936,5.697127 C0.508711466,5.14643854 1.7815556,5.00902329 3.20413187,5.39020145 C3.27956809,5.41041453 3.35391054,5.43167997 3.42704111,5.45391146 C3.39641413,5.24467778 3.38014559,5.02561079 3.38014559,4.8 C3.38014559,3.32724067 4.07339945,2.13333333 4.92857143,2.13333333 C5.7837434,2.13333333 6.47699726,3.32724067 6.47699726,4.8 C6.47699726,5.0245037 6.460888,5.24252767 6.43055157,5.45083058 C6.51329812,5.42526232 6.59763132,5.40092695 6.6833777,5.37795128 C8.10595397,4.99677312 9.3787981,5.13418837 9.52635463,5.68487683 C9.65907253,6.18018676 8.83624264,6.84112785 7.63429375,7.2464088 C7.43121031,6.59557596 6.29714778,6.4 4.92857143,6.4 C3.55877376,6.4 2.42390866,6.59592518 2.22230763,7.2481523 Z M7.84855898,9.6 C7.05074489,10.2670933 6.03481673,10.6666667 4.92857143,10.6666667 C3.82232613,10.6666667 2.80639797,10.2670933 2.00858387,9.6 L7.84855898,9.6 L7.84855898,9.6 Z" id="Mask" fill="#FFFFFF"></path>
                        <path d="M4.92857143,1.06666667 C5.23101308,1.06666667 5.47619048,0.8278852 5.47619048,0.533333333 C5.47619048,0.238781467 5.23101308,0 4.92857143,0 C4.62612978,0 4.38095238,0.238781467 4.38095238,0.533333333 C4.38095238,0.8278852 4.62612978,1.06666667 4.92857143,1.06666667 Z M0.547619048,3.73333333 C0.850060696,3.73333333 1.0952381,3.49455187 1.0952381,3.2 C1.0952381,2.90544813 0.850060696,2.66666667 0.547619048,2.66666667 C0.245177399,2.66666667 0,2.90544813 0,3.2 C0,3.49455187 0.245177399,3.73333333 0.547619048,3.73333333 Z M9.30952381,3.73333333 C9.61196546,3.73333333 9.85714286,3.49455187 9.85714286,3.2 C9.85714286,2.90544813 9.61196546,2.66666667 9.30952381,2.66666667 C9.00708216,2.66666667 8.76190476,2.90544813 8.76190476,3.2 C8.76190476,3.49455187 9.00708216,3.73333333 9.30952381,3.73333333 Z M7.66666667,2.13333333 C7.96910832,2.13333333 8.21428571,1.89455187 8.21428571,1.6 C8.21428571,1.30544813 7.96910832,1.06666667 7.66666667,1.06666667 C7.36422502,1.06666667 7.11904762,1.30544813 7.11904762,1.6 C7.11904762,1.89455187 7.36422502,2.13333333 7.66666667,2.13333333 Z M2.19047619,2.13333333 C2.49291784,2.13333333 2.73809524,1.89455187 2.73809524,1.6 C2.73809524,1.30544813 2.49291784,1.06666667 2.19047619,1.06666667 C1.88803454,1.06666667 1.64285714,1.30544813 1.64285714,1.6 C1.64285714,1.89455187 1.88803454,2.13333333 2.19047619,2.13333333 Z" id="Oval-184" fill="#FCD117"></path>
                    </g>
                </g>
            </g>
        </g>
    </g>
</svg>