<?xml version="1.0" encoding="UTF-8"?>
<svg width="23px" height="16px" viewBox="0 0 23 16" version="1.1" xmlns="http://www.w3.org/2000/svg" xmlns:xlink="http://www.w3.org/1999/xlink">
    <!-- Generator: Sketch 39.1 (31720) - http://www.bohemiancoding.com/sketch -->
    <title>NO</title>
    <desc>Created with Sketch.</desc>
    <defs>
        <rect id="path-1" x="0" y="0" width="23" height="16" rx="1.62"></rect>
        <mask id="mask-2" maskContentUnits="userSpaceOnUse" maskUnits="objectBoundingBox" x="0" y="0" width="23" height="16" fill="white">
            <use xlink:href="#path-1"></use>
        </mask>
        <mask id="mask-4" maskContentUnits="userSpaceOnUse" maskUnits="objectBoundingBox" x="0" y="0" width="23" height="16" fill="white">
            <use xlink:href="#path-1"></use>
        </mask>
    </defs>
    <g id="Page-1" stroke="none" stroke-width="1" fill="none" fill-rule="evenodd">
        <g id="Flags" transform="translate(-268.000000, -645.000000)">
            <g id="NO" transform="translate(268.000000, 645.000000)">
                <mask id="mask-3" fill="white">
                    <use xlink:href="#path-1"></use>
                </mask>
                <g id="Mask" stroke="#F5F5F5" mask="url(#mask-2)" fill="#FFFFFF">
                    <use mask="url(#mask-4)" xlink:href="#path-1"></use>
                </g>
                <path d="M0,0 L23,0 L23,16 L0,16 L0,0 Z M0,9.6 L6.57142857,9.6 L6.57142857,16 L9.85714286,16 L9.85714286,9.6 L23,9.6 L23,6.4 L9.85714286,6.4 L9.85714286,0 L6.57142857,0 L6.57142857,6.4 L0,6.4 L0,9.6 Z" id="Combined-Shape" fill="#F14247" mask="url(#mask-3)"></path>
                <polygon id="Rectangle-2" fill="#0A3A85" mask="url(#mask-3)" points="0 8.53333333 7.66666667 8.53333333 7.66666667 16 8.76190476 16 8.76190476 8.53333333 23 8.53333333 23 7.46666667 8.76190476 7.46666667 8.76190476 0 7.66666667 0 7.66666667 7.46666667 0 7.46666667"></polygon>
            </g>
        </g>
    </g>
</svg>