<?xml version="1.0" encoding="UTF-8"?>
<svg width="23px" height="16px" viewBox="0 0 23 16" version="1.1" xmlns="http://www.w3.org/2000/svg" xmlns:xlink="http://www.w3.org/1999/xlink">
    <!-- Generator: Sketch 39.1 (31720) - http://www.bohemiancoding.com/sketch -->
    <title>OM</title>
    <desc>Created with Sketch.</desc>
    <defs>
        <rect id="path-1" x="0" y="0" width="23" height="16" rx="1.62"></rect>
        <mask id="mask-2" maskContentUnits="userSpaceOnUse" maskUnits="objectBoundingBox" x="0" y="0" width="23" height="16" fill="white">
            <use xlink:href="#path-1"></use>
        </mask>
        <mask id="mask-4" maskContentUnits="userSpaceOnUse" maskUnits="objectBoundingBox" x="0" y="0" width="23" height="16" fill="white">
            <use xlink:href="#path-1"></use>
        </mask>
    </defs>
    <g id="Page-1" stroke="none" stroke-width="1" fill="none" fill-rule="evenodd">
        <g id="Flags" transform="translate(-113.000000, -683.000000)">
            <g id="OM" transform="translate(113.000000, 683.000000)">
                <mask id="mask-3" fill="white">
                    <use xlink:href="#path-1"></use>
                </mask>
                <g id="Mask" stroke="#F5F5F5" mask="url(#mask-2)" fill="#FFFFFF">
                    <use mask="url(#mask-4)" xlink:href="#path-1"></use>
                </g>
                <rect id="Rectangle-2" fill="#138E16" mask="url(#mask-3)" x="0" y="10.6666667" width="23" height="5.33333333"></rect>
                <polygon id="Rectangle-2" fill="#ED2B35" mask="url(#mask-3)" points="0 16 7.66666667 16 7.66666667 10.6666667 23 10.6666667 23 5.33333333 7.66666667 5.33333333 7.66666667 0 0 0"></polygon>
                <polygon id="Star-32" fill="#FFFFFF" mask="url(#mask-3)" points="3.83333333 3.76940639 2.88292133 5.12206692 3.37622903 3.55501908 1.69777695 3.67471133 3.26333359 3.07329516 2.12075009 1.86988842 3.57965958 2.68698257 3.83333333 1.06666667 4.08700708 2.68698257 5.54591658 1.86988842 4.40333308 3.07329516 5.96888971 3.67471133 4.29043764 3.55501908 4.78374533 5.12206692"></polygon>
            </g>
        </g>
    </g>
</svg>