<?xml version="1.0" encoding="UTF-8"?>
<svg width="23px" height="16px" viewBox="0 0 23 16" version="1.1" xmlns="http://www.w3.org/2000/svg" xmlns:xlink="http://www.w3.org/1999/xlink">
    <!-- Generator: Sketch 39.1 (31720) - http://www.bohemiancoding.com/sketch -->
    <title>PG</title>
    <desc>Created with Sketch.</desc>
    <defs>
        <rect id="path-1" x="0" y="0" width="23" height="16" rx="1.62"></rect>
    </defs>
    <g id="Page-1" stroke="none" stroke-width="1" fill="none" fill-rule="evenodd">
        <g id="Flags" transform="translate(-346.000000, -723.000000)">
            <g id="PG" transform="translate(346.000000, 723.000000)">
                <mask id="mask-2" fill="white">
                    <use xlink:href="#path-1"></use>
                </mask>
                <use id="Mask" fill="#FFFFFF" xlink:href="#path-1"></use>
                <rect id="Mask-Copy" fill="#262626" mask="url(#mask-2)" x="0" y="0" width="23" height="16"></rect>
                <polygon id="Mask" fill="#E8283F" mask="url(#mask-2)" points="0 0 23 0 23 16"></polygon>
                <polygon id="Star-2" fill="#FFFFFF" mask="url(#mask-2)" points="5.47619048 13.3333333 4.70174019 13.5542472 4.92857143 12.8 4.70174019 12.0457528 5.47619048 12.2666667 6.25064076 12.0457528 6.02380952 12.8 6.25064076 13.5542472"></polygon>
                <polygon id="Star-2" fill="#FFFFFF" mask="url(#mask-2)" points="5.47619048 6.93333333 4.70174019 7.15424723 4.92857143 6.4 4.70174019 5.64575277 5.47619048 5.86666667 6.25064076 5.64575277 6.02380952 6.4 6.25064076 7.15424723"></polygon>
                <polygon id="Star-2" fill="#FFFFFF" mask="url(#mask-2)" points="2.73809524 9.6 1.96364495 9.8209139 2.19047619 9.06666667 1.96364495 8.31241943 2.73809524 8.53333333 3.51254552 8.31241943 3.28571429 9.06666667 3.51254552 9.8209139"></polygon>
                <polygon id="Star-2" fill="#FFFFFF" mask="url(#mask-2)" points="7.66666667 9.06666667 6.89221638 9.28758057 7.11904762 8.53333333 6.89221638 7.7790861 7.66666667 8 8.44111695 7.7790861 8.21428571 8.53333333 8.44111695 9.28758057"></polygon>
                <path d="M15.4931636,7.41245594 C15.3620473,7.33583842 15.2557566,7.15535862 15.2557566,7.01096798 L15.2557566,6.02799292 C15.2557566,5.88287476 15.1485512,5.80003616 14.9863251,5.85270089 L14.3635128,6.05488923 C14.2147098,6.10319627 13.9868758,6.10755396 13.8246497,6.05488923 L13.2018373,5.85270089 C13.0530344,5.80439385 13.0365003,5.70440584 13.1698128,5.62650498 L14.6311245,4.77259068 C14.7622408,4.69597317 14.8327964,4.52945367 14.778721,4.37145949 L14.5711169,3.76489446 C14.5215159,3.61997334 14.5885118,3.53729446 14.7507379,3.58995919 L15.3735502,3.79214753 C15.5223532,3.84045457 15.7054385,3.77823615 15.785426,3.64840138 L16.662213,2.22521088 C16.7408828,2.09751503 16.8403923,2.09840582 16.8944677,2.25639999 L17.1020718,2.86296503 C17.1516728,3.00788615 17.1561472,3.22977667 17.1020718,3.38777084 L16.8944677,3.99433588 C16.8448667,4.139257 16.9261968,4.25673878 17.0744551,4.25673877 L18.0837598,4.25673873 C18.2327651,4.25673872 18.4160144,4.35811774 18.4960019,4.48795251 L19.372789,5.91114307 C19.4514588,6.03883892 19.3881986,6.167101 19.2460232,6.19479429 L17.8483175,6.46704306 C17.6996369,6.49600345 17.5537006,6.64320116 17.5252655,6.78166762 L17.2457244,8.14291155 C17.2159883,8.2877135 17.0877879,8.34427126 16.9544754,8.26637038 L15.4931636,7.41245594 L15.4931636,7.41245594 Z" id="Rectangle-419" fill="#FFD84E" mask="url(#mask-2)"></path>
            </g>
        </g>
    </g>
</svg>