<?xml version="1.0" encoding="UTF-8"?>
<svg width="23px" height="16px" viewBox="0 0 23 16" version="1.1" xmlns="http://www.w3.org/2000/svg" xmlns:xlink="http://www.w3.org/1999/xlink">
    <!-- Generator: Sketch 39.1 (31720) - http://www.bohemiancoding.com/sketch -->
    <title>SA</title>
    <desc>Created with Sketch.</desc>
    <defs>
        <linearGradient x1="50%" y1="0%" x2="50%" y2="100%" id="linearGradient-1">
            <stop stop-color="#FFFFFF" offset="0%"></stop>
            <stop stop-color="#F0F0F0" offset="100%"></stop>
        </linearGradient>
        <rect id="path-2" x="0" y="0" width="23" height="16" rx="1.62"></rect>
    </defs>
    <g id="Page-1" stroke="none" stroke-width="1" fill="none" fill-rule="evenodd">
        <g id="Flags" transform="translate(-268.000000, -529.000000)">
            <g id="SA" transform="translate(268.000000, 529.000000)">
                <mask id="mask-3" fill="white">
                    <use xlink:href="#path-2"></use>
                </mask>
                <use id="Mask" fill="#FFFFFF" xlink:href="#path-2"></use>
                <rect id="Mask-Copy" fill="#128C4B" mask="url(#mask-3)" x="0" y="0" width="23" height="16"></rect>
                <path d="M5.47619048,9.6 L14.2380952,9.6 L14.2380952,8.54168701 C14.2380952,8.24252154 14.4492682,8.10283203 14.7216707,8.23548024 L15.3333333,8.53333333 L15.3333333,9.6 L16.9935563,9.6 C17.2864071,9.6 17.5238095,9.84472046 17.5238095,10.1383301 L17.5238095,10.6541669 C17.5238095,11.2501741 17.0389911,11.7333333 16.4479438,11.7333333 L14.7806641,11.7333333 C14.4810116,11.7333333 14.2380952,11.4859375 14.2380952,11.2 L14.2380952,10.6666667 L7.11053368,10.6666667 C6.81279415,10.6666667 6.40029762,10.5 6.18836743,10.2935984 L5.47619048,9.6 Z" id="Rectangle-455" fill="#FFFFFF" mask="url(#mask-3)"></path>
                <path d="M5.47619048,6.66916504 C5.47619048,6.52050929 5.56175595,6.31666667 5.67389352,6.20745443 L5.82610648,6.05921224 C5.93529486,5.95287226 5.93824405,5.78333333 5.82610648,5.67412109 L5.67389352,5.52587891 C5.56470514,5.41953892 5.47619048,5.20253906 5.47619048,5.06416829 L5.47619048,4.53583171 C5.47619048,4.38717596 5.59340014,4.26666667 5.75256529,4.26666667 L6.29505375,4.26666667 C6.44769135,4.26666667 6.57142857,4.39746094 6.57142857,4.53583171 L6.57142857,5.06416829 C6.57142857,5.21282404 6.6300334,5.21918132 6.69843983,5.0859375 L6.99203637,4.5140625 C7.06218274,4.37742955 7.24795986,4.26666667 7.39033206,4.26666667 L8.49062032,4.26666667 C8.64044658,4.26666667 8.76190476,4.39036458 8.76190476,4.53333333 L8.76190476,4.53333333 C8.76190476,4.68060927 8.6446951,4.8 8.48552995,4.8 L7.94304148,4.8 C7.79040389,4.8 7.66666667,4.92369792 7.66666667,5.06666667 L7.66666667,5.06666667 C7.66666667,5.2139426 7.78387633,5.33333333 7.94304148,5.33333333 L8.48552995,5.33333333 C8.63816754,5.33333333 8.76190476,5.4480306 8.76190476,5.59492187 L8.76190476,7.20507812 C8.76190476,7.34954949 8.6446951,7.46666667 8.48552995,7.46666667 L7.94304148,7.46666667 C7.79040389,7.46666667 7.66666667,7.3358724 7.66666667,7.19750163 L7.66666667,6.66916504 C7.66666667,6.52050929 7.79367792,6.4 7.94047619,6.4 L7.94047619,6.4 C8.09169701,6.4 8.21428571,6.27630208 8.21428571,6.13333333 L8.21428571,6.13333333 C8.21428571,5.9860574 8.09707605,5.86666667 7.9379109,5.86666667 L7.39542244,5.86666667 C7.24278484,5.86666667 7.11904762,5.99221598 7.11904762,6.1453654 L7.11904762,7.18796794 C7.11904762,7.34188899 6.99203637,7.46666667 6.8452381,7.46666667 L6.8452381,7.46666667 C6.69401727,7.46666667 6.57142857,7.3358724 6.57142857,7.19750163 L6.57142857,6.66916504 C6.57142857,6.52050929 6.44441732,6.4 6.29761905,6.4 L6.29761905,6.4 C6.14639822,6.4 6.02380952,6.53079427 6.02380952,6.66916504 L6.02380952,7.19750163 C6.02380952,7.34615737 5.89679827,7.46666667 5.75,7.46666667 L5.75,7.46666667 C5.59877918,7.46666667 5.47619048,7.3358724 5.47619048,7.19750163 L5.47619048,6.66916504 Z" id="Rectangle-456" fill="#FFFFFF" mask="url(#mask-3)"></path>
                <path d="M14.2380952,6.66916504 C14.2380952,6.52050929 14.3236607,6.31666667 14.4357983,6.20745443 L14.5880112,6.05921224 C14.6971996,5.95287226 14.7001488,5.78333333 14.5880112,5.67412109 L14.4357983,5.52587891 C14.3266099,5.41953892 14.2380952,5.20253906 14.2380952,5.06416829 L14.2380952,4.53583171 C14.2380952,4.38717596 14.3553049,4.26666667 14.5144701,4.26666667 L15.0569585,4.26666667 C15.2095961,4.26666667 15.3333333,4.39746094 15.3333333,4.53583171 L15.3333333,5.06416829 C15.3333333,5.21282404 15.3919382,5.21918132 15.4603446,5.0859375 L15.7539411,4.5140625 C15.8240875,4.37742955 16.0098646,4.26666667 16.1522368,4.26666667 L17.2525251,4.26666667 C17.4023513,4.26666667 17.5238095,4.39036458 17.5238095,4.53333333 L17.5238095,4.53333333 C17.5238095,4.68060927 17.4065999,4.8 17.2474347,4.8 L16.7049462,4.8 C16.5523086,4.8 16.4285714,4.92369792 16.4285714,5.06666667 L16.4285714,5.06666667 C16.4285714,5.2139426 16.5457811,5.33333333 16.7049462,5.33333333 L17.2474347,5.33333333 C17.4000723,5.33333333 17.5238095,5.4480306 17.5238095,5.59492187 L17.5238095,7.20507812 C17.5238095,7.34954949 17.4065999,7.46666667 17.2474347,7.46666667 L16.7049462,7.46666667 C16.5523086,7.46666667 16.4285714,7.3358724 16.4285714,7.19750163 L16.4285714,6.66916504 C16.4285714,6.52050929 16.5555827,6.4 16.702381,6.4 L16.702381,6.4 C16.8536018,6.4 16.9761905,6.27630208 16.9761905,6.13333333 L16.9761905,6.13333333 C16.9761905,5.9860574 16.8589808,5.86666667 16.6998157,5.86666667 L16.1573272,5.86666667 C16.0046896,5.86666667 15.8809524,5.99221598 15.8809524,6.1453654 L15.8809524,7.18796794 C15.8809524,7.34188899 15.7539411,7.46666667 15.6071429,7.46666667 L15.6071429,7.46666667 C15.455922,7.46666667 15.3333333,7.3358724 15.3333333,7.19750163 L15.3333333,6.66916504 C15.3333333,6.52050929 15.2063221,6.4 15.0595238,6.4 L15.0595238,6.4 C14.908303,6.4 14.7857143,6.53079427 14.7857143,6.66916504 L14.7857143,7.19750163 C14.7857143,7.34615737 14.658703,7.46666667 14.5119048,7.46666667 L14.5119048,7.46666667 C14.3606839,7.46666667 14.2380952,7.3358724 14.2380952,7.19750163 L14.2380952,6.66916504 Z" id="Rectangle-456" fill="#FFFFFF" mask="url(#mask-3)"></path>
                <path d="M13.1428571,5.06416829 C13.1428571,5.21282404 13.0572917,5.41666667 12.9451541,5.52587891 L12.7929411,5.67412109 C12.6837528,5.78046108 12.6808036,5.95 12.7929411,6.05921224 L12.9451541,6.20745443 C13.0543425,6.31379441 13.1428571,6.51415202 13.1428571,6.66916504 L13.1428571,7.19750163 C13.1428571,7.34615737 13.0256475,7.46666667 12.8664823,7.46666667 L12.3239939,7.46666667 C12.1713563,7.46666667 12.047619,7.35251465 12.047619,7.19750163 L12.047619,6.66916504 C12.047619,6.52050929 11.9970819,6.4984375 11.9206078,6.64739583 L11.6270113,7.21927083 C11.5568649,7.35590378 11.3710878,7.46666667 11.2287156,7.46666667 L10.1284273,7.46666667 C9.97860104,7.46666667 9.85714286,7.34296875 9.85714286,7.2 L9.85714286,7.2 C9.85714286,7.05272407 9.97435252,6.93333333 10.1335177,6.93333333 L10.6760061,6.93333333 C10.8286437,6.93333333 10.952381,6.80963542 10.952381,6.66666667 L10.952381,6.66666667 C10.952381,6.51939073 10.8351713,6.4 10.6760061,6.4 L10.1335177,6.4 C9.98088008,6.4 9.85714286,6.28530273 9.85714286,6.13841146 L9.85714286,4.52825521 C9.85714286,4.38378385 9.97435252,4.26666667 10.1335177,4.26666667 L10.6760061,4.26666667 C10.8286437,4.26666667 10.952381,4.38081868 10.952381,4.53583171 L10.952381,5.06416829 C10.952381,5.21282404 10.8253697,5.33333333 10.6785714,5.33333333 L10.6785714,5.33333333 C10.5273506,5.33333333 10.4047619,5.45703125 10.4047619,5.6 L10.4047619,5.6 C10.4047619,5.74727593 10.5219716,5.86666667 10.6811367,5.86666667 L11.2236252,5.86666667 C11.3762628,5.86666667 11.5,5.74111735 11.5,5.60245921 L11.5,4.53087413 C11.5,4.38495638 11.6270113,4.26666667 11.7738095,4.26666667 L11.7738095,4.26666667 C11.9250303,4.26666667 12.047619,4.38081868 12.047619,4.53583171 L12.047619,5.06416829 C12.047619,5.21282404 12.1746303,5.33333333 12.3214286,5.33333333 L12.3214286,5.33333333 C12.4726494,5.33333333 12.5952381,5.21918132 12.5952381,5.06416829 L12.5952381,4.53583171 C12.5952381,4.38717596 12.7222493,4.26666667 12.8690476,4.26666667 L12.8690476,4.26666667 C13.0202684,4.26666667 13.1428571,4.38081868 13.1428571,4.53583171 L13.1428571,5.06416829 L13.1428571,5.06416829 Z" id="Rectangle-456" fill="#FFFFFF" mask="url(#mask-3)"></path>
            </g>
        </g>
    </g>
</svg>