<?xml version="1.0" encoding="UTF-8"?>
<svg width="23px" height="16px" viewBox="0 0 23 16" version="1.1" xmlns="http://www.w3.org/2000/svg" xmlns:xlink="http://www.w3.org/1999/xlink">
    <!-- Generator: Sketch 39.1 (31720) - http://www.bohemiancoding.com/sketch -->
    <title>SV</title>
    <desc>Created with Sketch.</desc>
    <defs>
        <rect id="path-1" x="0" y="0" width="23" height="16" rx="1.62"></rect>
        <mask id="mask-2" maskContentUnits="userSpaceOnUse" maskUnits="objectBoundingBox" x="0" y="0" width="23" height="16" fill="white">
            <use xlink:href="#path-1"></use>
        </mask>
        <mask id="mask-4" maskContentUnits="userSpaceOnUse" maskUnits="objectBoundingBox" x="0" y="0" width="23" height="16" fill="white">
            <use xlink:href="#path-1"></use>
        </mask>
        <linearGradient x1="50%" y1="0%" x2="50%" y2="100%" id="linearGradient-5">
            <stop stop-color="#3C7839" offset="0%"></stop>
            <stop stop-color="#31642E" offset="100%"></stop>
        </linearGradient>
    </defs>
    <g id="Page-1" stroke="none" stroke-width="1" fill="none" fill-rule="evenodd">
        <g id="Flags" transform="translate(-229.000000, -295.000000)">
            <g id="SV" transform="translate(229.000000, 295.000000)">
                <mask id="mask-3" fill="white">
                    <use xlink:href="#path-1"></use>
                </mask>
                <g id="Mask" stroke="#F5F5F5" mask="url(#mask-2)" fill="#FFFFFF">
                    <use mask="url(#mask-4)" xlink:href="#path-1"></use>
                </g>
                <rect id="Rectangle-2" fill="#1B57C4" mask="url(#mask-3)" x="0" y="0" width="23" height="5.33333333"></rect>
                <rect id="Rectangle-2" fill="#1B57C4" mask="url(#mask-3)" x="0" y="10.6666667" width="23" height="5.33333333"></rect>
                <path d="M12.8143285,6.29320838 C13.3463475,6.68241833 13.6904762,7.30206976 13.6904762,8 C13.6904762,9.17820747 12.7097666,10.1333333 11.5,10.1333333 C10.2902334,10.1333333 9.30952381,9.17820747 9.30952381,8 C9.30952381,7.30206976 9.65365253,6.68241833 10.1856715,6.29320838 L10.952381,8.53333333 L12.047619,8.53333333 L12.8143285,6.29320838 Z" id="Oval-12" fill="url(#linearGradient-5)" mask="url(#mask-3)"></path>
                <polygon id="Rectangle-483" fill="#F9C92E" mask="url(#mask-3)" points="11.5 5.86666667 12.047619 8.53333333 10.952381 8.53333333"></polygon>
            </g>
        </g>
    </g>
</svg>