<?xml version="1.0" encoding="UTF-8"?>
<svg width="23px" height="16px" viewBox="0 0 23 16" version="1.1" xmlns="http://www.w3.org/2000/svg" xmlns:xlink="http://www.w3.org/1999/xlink">
    <!-- Generator: Sketch 39.1 (31720) - http://www.bohemiancoding.com/sketch -->
    <title>TJ</title>
    <desc>Created with Sketch.</desc>
    <defs>
        <rect id="path-1" x="0" y="0" width="23" height="16" rx="1.62"></rect>
        <mask id="mask-2" maskContentUnits="userSpaceOnUse" maskUnits="objectBoundingBox" x="0" y="0" width="23" height="16" fill="white">
            <use xlink:href="#path-1"></use>
        </mask>
        <mask id="mask-4" maskContentUnits="userSpaceOnUse" maskUnits="objectBoundingBox" x="0" y="0" width="23" height="16" fill="white">
            <use xlink:href="#path-1"></use>
        </mask>
    </defs>
    <g id="Page-1" stroke="none" stroke-width="1" fill="none" fill-rule="evenodd">
        <g id="Flags" transform="translate(-229.000000, -878.000000)">
            <g id="TJ" transform="translate(229.000000, 878.000000)">
                <mask id="mask-3" fill="white">
                    <use xlink:href="#path-1"></use>
                </mask>
                <g id="Mask" stroke="#F5F5F5" mask="url(#mask-2)" fill="#FFFFFF">
                    <use mask="url(#mask-4)" xlink:href="#path-1"></use>
                </g>
                <rect id="Rectangle-2" fill="#D9101C" mask="url(#mask-3)" x="0" y="0" width="23" height="5.33333333"></rect>
                <rect id="Rectangle-2" fill="#0F7811" mask="url(#mask-3)" x="0" y="10.6666667" width="23" height="5.33333333"></rect>
                <path d="M11.9753241,8.53333333 C12.0213203,8.30137184 12.047619,8.09646937 12.047619,8 C12.047619,7.70544813 11.8024416,7.46666667 11.5,7.46666667 C11.1975584,7.46666667 10.952381,7.70544813 10.952381,8 C10.952381,8.09646937 10.9786797,8.30137184 11.0246759,8.53333333 L10.3997117,8.53333333 C10.0934433,8.53333333 9.85714286,8.7721148 9.85714286,9.06666667 C9.85714286,9.35260417 10.1000592,9.6 10.3997117,9.6 L12.6002883,9.6 C12.9065567,9.6 13.1428571,9.36121853 13.1428571,9.06666667 C13.1428571,8.78072917 12.8999408,8.53333333 12.6002883,8.53333333 L11.9753241,8.53333333 Z M10.4047619,7.46666667 C10.7072036,7.46666667 10.952381,7.2278852 10.952381,6.93333333 C10.952381,6.63878147 10.7072036,6.4 10.4047619,6.4 C10.1023203,6.4 9.85714286,6.63878147 9.85714286,6.93333333 C9.85714286,7.2278852 10.1023203,7.46666667 10.4047619,7.46666667 Z M12.5952381,7.46666667 C12.8976797,7.46666667 13.1428571,7.2278852 13.1428571,6.93333333 C13.1428571,6.63878147 12.8976797,6.4 12.5952381,6.4 C12.2927964,6.4 12.047619,6.63878147 12.047619,6.93333333 C12.047619,7.2278852 12.2927964,7.46666667 12.5952381,7.46666667 Z M14.7857143,8.53333333 C15.0881559,8.53333333 15.3333333,8.29455187 15.3333333,8 C15.3333333,7.70544813 15.0881559,7.46666667 14.7857143,7.46666667 C14.4832726,7.46666667 14.2380952,7.70544813 14.2380952,8 C14.2380952,8.29455187 14.4832726,8.53333333 14.7857143,8.53333333 Z M8.21428571,8.53333333 C8.51672736,8.53333333 8.76190476,8.29455187 8.76190476,8 C8.76190476,7.70544813 8.51672736,7.46666667 8.21428571,7.46666667 C7.91184407,7.46666667 7.66666667,7.70544813 7.66666667,8 C7.66666667,8.29455187 7.91184407,8.53333333 8.21428571,8.53333333 Z" id="Oval-36" fill="#FAD14E" mask="url(#mask-3)"></path>
            </g>
        </g>
    </g>
</svg>