<?xml version="1.0" encoding="UTF-8"?>
<svg width="23px" height="16px" viewBox="0 0 23 16" version="1.1" xmlns="http://www.w3.org/2000/svg" xmlns:xlink="http://www.w3.org/1999/xlink">
    <!-- Generator: Sketch 39.1 (31720) - http://www.bohemiancoding.com/sketch -->
    <title>UG</title>
    <desc>Created with Sketch.</desc>
    <defs>
        <rect id="path-1" x="0" y="0" width="23" height="16" rx="1.62"></rect>
    </defs>
    <g id="Page-1" stroke="none" stroke-width="1" fill="none" fill-rule="evenodd">
        <g id="Flags" transform="translate(-113.000000, -917.000000)">
            <g id="UG" transform="translate(113.000000, 917.000000)">
                <mask id="mask-2" fill="white">
                    <use xlink:href="#path-1"></use>
                </mask>
                <use id="Mask" fill="#FFFFFF" xlink:href="#path-1"></use>
                <rect id="Rectangle-2" fill="#262626" mask="url(#mask-2)" x="0" y="0" width="23" height="2.13333333"></rect>
                <rect id="Rectangle-2" fill="#262626" mask="url(#mask-2)" x="0" y="8.53333333" width="23" height="2.13333333"></rect>
                <rect id="Rectangle-2" fill="#ED1623" mask="url(#mask-2)" x="0" y="5.33333333" width="23" height="3.2"></rect>
                <rect id="Rectangle-2" fill="#FEE044" mask="url(#mask-2)" x="0" y="2.13333333" width="23" height="3.2"></rect>
                <rect id="Rectangle-2" fill="#ED1623" mask="url(#mask-2)" x="0" y="13.8666667" width="23" height="2.13333333"></rect>
                <rect id="Rectangle-2" fill="#FEE044" mask="url(#mask-2)" x="0" y="10.6666667" width="23" height="3.2"></rect>
                <ellipse id="Oval-220" fill="#FFFFFF" mask="url(#mask-2)" cx="11.5" cy="8" rx="3.83333333" ry="3.73333333"></ellipse>
                <path d="M10.6024649,6.05921224 C10.4932766,5.95287226 10.4903274,5.78333333 10.6024649,5.67412109 L10.7546779,5.52587891 C10.8638663,5.41953892 11.0317509,5.23643392 11.1254719,5.13873698 L11.2591834,5.03385417 C11.3921827,5.05197601 11.595299,4.99791972 11.743515,5.02110189 L11.8734664,5.11909993 C11.9696483,5.23741777 11.9890142,5.44748536 11.9206078,5.58072918 L11.6270113,6.15260421 C11.5568649,6.28923716 11.5,6.52369797 11.5,6.66666672 L11.5,6.66666672 C11.5,6.81394266 11.6010742,6.98255213 11.7430688,7.05169731 L12.3521693,7.34830267 C12.4864125,7.41367326 12.6811796,7.55036614 12.786014,7.65246575 L13.4997003,8.34753411 C13.6050629,8.45014815 13.6318714,8.64748531 13.5634649,8.78072915 L13.2698684,9.35260429 C13.199722,9.48923727 13.0572917,9.51666681 12.9451541,9.40745452 L12.7929411,9.25921226 C12.6837528,9.15287223 12.5096726,9.14999997 12.3975351,9.25921226 L12.2453221,9.40745452 C12.1361337,9.51379455 12.047619,9.7236981 12.047619,9.86666685 L12.047619,9.86666685 C12.047619,10.0139428 12.1331845,10.2166668 12.2453221,10.325879 L12.3975351,10.4741212 C12.5067234,10.5804611 12.4663259,10.6666667 12.3239537,10.6666667 L11.2236654,10.6666667 C11.0738391,10.6666667 11.0379464,10.5833333 11.150084,10.4741211 L11.302297,10.3258789 C11.4114853,10.2195389 11.5,10.0096354 11.5,9.86666667 L11.5,9.86666667 C11.5,9.71939073 11.3729887,9.6 11.2261905,9.6 L11.2261905,9.6 C11.0749697,9.6 10.8668155,9.68333333 10.7546779,9.79254557 L10.6024649,9.94078776 C10.4932766,10.0471277 10.3191964,10.05 10.2070589,9.94078776 L10.0548459,9.79254557 C9.94565752,9.68620559 9.94270833,9.51666667 10.0548459,9.40745443 L10.2070589,9.25921224 C10.3162472,9.15287226 10.5219716,9.06666667 10.6811367,9.06666667 L11.2236252,9.06666667 C11.3762628,9.06666667 11.4116729,8.98064372 11.3115434,8.88312632 L10.0455995,7.65020701 C9.94151775,7.54884048 9.94308435,7.38296712 10.0479188,7.28086751 L10.761605,6.58579915 C10.8669677,6.48318511 10.8668155,6.31666667 10.7546779,6.20745443 L10.6024649,6.05921224 Z" id="Rectangle-1723" fill="#262626" mask="url(#mask-2)"></path>
            </g>
        </g>
    </g>
</svg>