<?xml version="1.0" encoding="UTF-8"?>
<svg width="23px" height="16px" viewBox="0 0 23 16" version="1.1" xmlns="http://www.w3.org/2000/svg" xmlns:xlink="http://www.w3.org/1999/xlink">
    <!-- Generator: Sketch 39.1 (31720) - http://www.bohemiancoding.com/sketch -->
    <title>UY</title>
    <desc>Created with Sketch.</desc>
    <defs>
        <rect id="path-1" x="0" y="0" width="23" height="16" rx="1.62"></rect>
        <mask id="mask-2" maskContentUnits="userSpaceOnUse" maskUnits="objectBoundingBox" x="0" y="0" width="23" height="16" fill="white">
            <use xlink:href="#path-1"></use>
        </mask>
        <mask id="mask-4" maskContentUnits="userSpaceOnUse" maskUnits="objectBoundingBox" x="0" y="0" width="23" height="16" fill="white">
            <use xlink:href="#path-1"></use>
        </mask>
    </defs>
    <g id="Page-1" stroke="none" stroke-width="1" fill="none" fill-rule="evenodd">
        <g id="Flags" transform="translate(-190.000000, -917.000000)">
            <g id="UY" transform="translate(190.000000, 917.000000)">
                <mask id="mask-3" fill="white">
                    <use xlink:href="#path-1"></use>
                </mask>
                <g id="Mask" stroke="#F5F5F5" mask="url(#mask-2)" fill="#FFFFFF">
                    <use mask="url(#mask-4)" xlink:href="#path-1"></use>
                </g>
                <path d="M0,0 L23,0 L23,16 L0,16 L0,0 Z M10.952381,0 L23,0 L23,2.13333333 L10.952381,2.13333333 L10.952381,0 Z M10.952381,4.26666667 L23,4.26666667 L23,6.4 L10.952381,6.4 L10.952381,4.26666667 Z M10.952381,8.53333333 L23,8.53333333 L23,10.6666667 L10.952381,10.6666667 L10.952381,8.53333333 Z M0,12.8 L23,12.8 L23,14.9333333 L0,14.9333333 L0,12.8 Z M0,0 L10.952381,0 L10.952381,10.6666667 L0,10.6666667 L0,0 Z" id="Combined-Shape" fill="#0E4DC5" mask="url(#mask-3)"></path>
                <path d="M5.47619048,7.45704155 L4.74505026,8.51996155 L4.55985254,7.25334943 L3.42758113,7.90205298 L3.82500656,6.68261681 L2.5158642,6.7886202 L3.41719782,5.85788426 L2.19047619,5.40019223 L3.41719782,4.9425002 L2.5158642,4.01176427 L3.82500656,4.11776766 L3.42758113,2.89833149 L4.55985254,3.54703504 L4.74505026,2.28042292 L5.47619048,3.34334292 L6.20733069,2.28042292 L6.39252842,3.54703504 L7.52479983,2.89833149 L7.12737439,4.11776766 L8.43651676,4.01176427 L7.53518314,4.9425002 L8.76190476,5.40019223 L7.53518314,5.85788426 L8.43651676,6.7886202 L7.12737439,6.68261681 L7.52479983,7.90205298 L6.39252842,7.25334943 L6.20733069,8.51996155 L5.47619048,7.45704155 Z M5.47619048,7.43655587 C6.63096768,7.43655587 7.56709957,6.52484482 7.56709957,5.40019223 C7.56709957,4.27553965 6.63096768,3.3638286 5.47619048,3.3638286 C4.32141327,3.3638286 3.38528139,4.27553965 3.38528139,5.40019223 C3.38528139,6.52484482 4.32141327,7.43655587 5.47619048,7.43655587 Z M5.47619048,6.93333333 C6.38351542,6.93333333 7.11904762,6.21698893 7.11904762,5.33333333 C7.11904762,4.44967773 6.38351542,3.73333333 5.47619048,3.73333333 C4.56886553,3.73333333 3.83333333,4.44967773 3.83333333,5.33333333 C3.83333333,6.21698893 4.56886553,6.93333333 5.47619048,6.93333333 Z" id="Star-28" fill="#FED443" mask="url(#mask-3)"></path>
            </g>
        </g>
    </g>
</svg>