<?xml version="1.0" encoding="UTF-8"?>
<svg width="23px" height="16px" viewBox="0 0 23 16" version="1.1" xmlns="http://www.w3.org/2000/svg" xmlns:xlink="http://www.w3.org/1999/xlink">
    <!-- Generator: Sketch 39.1 (31720) - http://www.bohemiancoding.com/sketch -->
    <title>VE</title>
    <desc>Created with Sketch.</desc>
    <defs>
        <rect id="path-1" x="0" y="0" width="23" height="16" rx="1.62"></rect>
    </defs>
    <g id="Page-1" stroke="none" stroke-width="1" fill="none" fill-rule="evenodd">
        <g id="Flags" transform="translate(-113.000000, -956.000000)">
            <g id="VE" transform="translate(113.000000, 956.000000)">
                <mask id="mask-2" fill="white">
                    <use xlink:href="#path-1"></use>
                </mask>
                <use id="Mask" fill="#FFFFFF" xlink:href="#path-1"></use>
                <rect id="Rectangle-2-Copy-4" fill="#063191" mask="url(#mask-2)" x="0" y="5.33333333" width="23" height="5.33333333"></rect>
                <rect id="Rectangle-2" fill="#E2213B" mask="url(#mask-2)" x="0" y="10.6666667" width="23" height="5.33333333"></rect>
                <path d="M11.5,7.46666667 C11.8024416,7.46666667 12.047619,7.2278852 12.047619,6.93333333 C12.047619,6.63878147 11.8024416,6.4 11.5,6.4 C11.1975584,6.4 10.952381,6.63878147 10.952381,6.93333333 C10.952381,7.2278852 11.1975584,7.46666667 11.5,7.46666667 Z M9.30952381,8 C9.61196546,8 9.85714286,7.76121853 9.85714286,7.46666667 C9.85714286,7.1721148 9.61196546,6.93333333 9.30952381,6.93333333 C9.00708216,6.93333333 8.76190476,7.1721148 8.76190476,7.46666667 C8.76190476,7.76121853 9.00708216,8 9.30952381,8 Z M13.6904762,8 C13.9929178,8 14.2380952,7.76121853 14.2380952,7.46666667 C14.2380952,7.1721148 13.9929178,6.93333333 13.6904762,6.93333333 C13.3880345,6.93333333 13.1428571,7.1721148 13.1428571,7.46666667 C13.1428571,7.76121853 13.3880345,8 13.6904762,8 Z M8.21428571,9.6 C8.51672736,9.6 8.76190476,9.36121853 8.76190476,9.06666667 C8.76190476,8.7721148 8.51672736,8.53333333 8.21428571,8.53333333 C7.91184407,8.53333333 7.66666667,8.7721148 7.66666667,9.06666667 C7.66666667,9.36121853 7.91184407,9.6 8.21428571,9.6 Z M14.7857143,9.6 C15.0881559,9.6 15.3333333,9.36121853 15.3333333,9.06666667 C15.3333333,8.7721148 15.0881559,8.53333333 14.7857143,8.53333333 C14.4832726,8.53333333 14.2380952,8.7721148 14.2380952,9.06666667 C14.2380952,9.36121853 14.4832726,9.6 14.7857143,9.6 Z" id="Oval-61" fill="#FFFFFF" mask="url(#mask-2)"></path>
                <rect id="Rectangle-2" fill="#FFD044" mask="url(#mask-2)" x="0" y="0" width="23" height="5.33333333"></rect>
            </g>
        </g>
    </g>
</svg>