<?xml version="1.0" encoding="UTF-8"?>
<svg width="23px" height="16px" viewBox="0 0 23 16" version="1.1" xmlns="http://www.w3.org/2000/svg" xmlns:xlink="http://www.w3.org/1999/xlink">
    <!-- Generator: Sketch 39.1 (31720) - http://www.bohemiancoding.com/sketch -->
    <title>WS</title>
    <desc>Created with Sketch.</desc>
    <defs>
        <linearGradient x1="50%" y1="0%" x2="50%" y2="100%" id="linearGradient-1">
            <stop stop-color="#FFFFFF" offset="0%"></stop>
            <stop stop-color="#F0F0F0" offset="100%"></stop>
        </linearGradient>
        <rect id="path-2" x="0" y="0" width="23" height="16" rx="1.62"></rect>
    </defs>
    <g id="Page-1" stroke="none" stroke-width="1" fill="none" fill-rule="evenodd">
        <g id="Flags" transform="translate(-190.000000, -956.000000)">
            <g id="WS" transform="translate(190.000000, 956.000000)">
                <mask id="mask-3" fill="white">
                    <use xlink:href="#path-2"></use>
                </mask>
                <use id="Mask" fill="#FFFFFF" xlink:href="#path-2"></use>
                <rect id="Mask-Copy" fill="#E31F37" mask="url(#mask-3)" x="0" y="0" width="23" height="16"></rect>
                <rect id="Rectangle-2" fill="#083B9A" mask="url(#mask-3)" x="-1.0952381" y="-1.06666667" width="13.1428571" height="9.6"></rect>
                <path d="M5.47619048,7.46666667 L4.70174019,7.68758057 L4.92857143,6.93333333 L4.70174019,6.1790861 L5.47619048,6.4 L6.25064076,6.1790861 L6.02380952,6.93333333 L6.25064076,7.68758057 L5.47619048,7.46666667 Z M5.47619048,2.13333333 L4.70174019,2.35424723 L4.92857143,1.6 L4.70174019,0.845752767 L5.47619048,1.06666667 L6.25064076,0.845752767 L6.02380952,1.6 L6.25064076,2.35424723 L5.47619048,2.13333333 Z M3.28571429,4.8 L2.511264,5.0209139 L2.73809524,4.26666667 L2.511264,3.51241943 L3.28571429,3.73333333 L4.06016457,3.51241943 L3.83333333,4.26666667 L4.06016457,5.0209139 L3.28571429,4.8 Z M8.21428571,4.26666667 L7.43983543,4.48758057 L7.66666667,3.73333333 L7.43983543,2.9790861 L8.21428571,3.2 L8.988736,2.9790861 L8.76190476,3.73333333 L8.988736,4.48758057 L8.21428571,4.26666667 Z M6.8452381,5.86666667 C6.99645892,5.86666667 7.11904762,5.74727593 7.11904762,5.6 C7.11904762,5.45272407 6.99645892,5.33333333 6.8452381,5.33333333 C6.69401727,5.33333333 6.57142857,5.45272407 6.57142857,5.6 C6.57142857,5.74727593 6.69401727,5.86666667 6.8452381,5.86666667 Z" id="Star-2" fill="#FFFFFF" mask="url(#mask-3)"></path>
            </g>
        </g>
    </g>
</svg>